<svg xmlns="http://www.w3.org/2000/svg" xmlns:xlink="http://www.w3.org/1999/xlink" width="342" zoomAndPan="magnify" viewBox="0 0 256.5 277.500005" height="370" preserveAspectRatio="xMidYMid meet" version="1.0"><defs><clipPath id="id1"><path d="M 183 35 L 256 35 L 256 44 L 183 44 Z M 183 35 " clip-rule="nonzero"/></clipPath><clipPath id="id2"><path d="M 15 36 L 241 36 L 241 276.980469 L 15 276.980469 Z M 15 36 " clip-rule="nonzero"/></clipPath></defs><g clip-path="url(#id1)"><path fill="#3c6a98" d="M 252.785156 43.160156 L 185.09375 43.160156 C 182.992188 43.160156 183.480469 41.457031 183.480469 39.355469 C 183.480469 37.253906 182.992188 35.550781 185.09375 35.550781 L 252.785156 35.550781 C 253.289062 35.550781 253.773438 35.648438 254.242188 35.839844 C 254.707031 36.03125 255.117188 36.308594 255.476562 36.664062 C 255.832031 37.019531 256.109375 37.433594 256.300781 37.898438 C 256.496094 38.363281 256.589844 38.851562 256.589844 39.355469 C 256.589844 39.859375 256.496094 40.34375 256.300781 40.8125 C 256.109375 41.277344 255.832031 41.6875 255.476562 42.046875 C 255.117188 42.402344 254.707031 42.675781 254.242188 42.871094 C 253.773438 43.0625 253.289062 43.160156 252.785156 43.160156 Z M 252.785156 43.160156 " fill-opacity="1" fill-rule="nonzero"/></g><path fill="#3c6a98" d="M 164.074219 43.160156 L 3.714844 43.160156 C 3.210938 43.160156 2.726562 43.0625 2.257812 42.871094 C 1.792969 42.675781 1.382812 42.402344 1.023438 42.046875 C 0.667969 41.6875 0.390625 41.277344 0.199219 40.8125 C 0.00390625 40.34375 -0.0898438 39.859375 -0.0898438 39.355469 C -0.0898438 38.851562 0.00390625 38.363281 0.199219 37.898438 C 0.390625 37.433594 0.667969 37.019531 1.023438 36.664062 C 1.382812 36.308594 1.792969 36.03125 2.257812 35.839844 C 2.726562 35.648438 3.210938 35.550781 3.714844 35.550781 L 164.074219 35.550781 C 164.578125 35.550781 165.066406 35.648438 165.53125 35.839844 C 166 36.03125 166.410156 36.308594 166.765625 36.664062 C 167.125 37.019531 167.398438 37.433594 167.59375 37.898438 C 167.785156 38.363281 167.882812 38.851562 167.882812 39.355469 C 167.882812 39.859375 167.785156 40.34375 167.59375 40.8125 C 167.398438 41.277344 167.125 41.6875 166.765625 42.046875 C 166.410156 42.402344 166 42.675781 165.53125 42.871094 C 165.066406 43.0625 164.578125 43.160156 164.074219 43.160156 Z M 164.074219 43.160156 " fill-opacity="1" fill-rule="nonzero"/><path fill="#3c6a98" d="M 128.25 41.820312 C 126.148438 41.820312 124.441406 41.457031 124.441406 39.355469 L 124.441406 20.238281 C 124.441406 19.734375 124.539062 19.25 124.730469 18.78125 C 124.925781 18.316406 125.199219 17.90625 125.558594 17.546875 C 125.914062 17.191406 126.328125 16.917969 126.792969 16.722656 C 127.257812 16.53125 127.746094 16.433594 128.25 16.433594 C 128.753906 16.433594 129.242188 16.53125 129.707031 16.722656 C 130.171875 16.917969 130.585938 17.191406 130.941406 17.546875 C 131.300781 17.90625 131.574219 18.316406 131.769531 18.78125 C 131.960938 19.25 132.058594 19.734375 132.058594 20.238281 L 132.058594 39.355469 C 132.058594 41.457031 130.351562 41.820312 128.25 41.820312 Z M 128.25 41.820312 " fill-opacity="1" fill-rule="nonzero"/><g clip-path="url(#id2)"><path fill="#3c6a98" d="M 236.699219 37.316406 C 234.597656 37.316406 233.257812 37.316406 233.257812 39.355469 L 233.257812 180.320312 L 214.980469 180.320312 L 214.980469 76.035156 C 214.976562 75.78125 214.949219 75.53125 214.898438 75.285156 C 214.847656 75.039062 214.769531 74.796875 214.671875 74.566406 C 214.570312 74.335938 214.449219 74.113281 214.308594 73.90625 C 214.164062 73.699219 214 73.507812 213.820312 73.332031 C 213.640625 73.15625 213.441406 73 213.230469 72.863281 C 213.015625 72.726562 212.792969 72.613281 212.558594 72.519531 C 212.324219 72.429688 212.082031 72.359375 211.832031 72.316406 C 211.582031 72.273438 211.332031 72.253906 211.078125 72.261719 L 190.394531 72.261719 C 189.890625 72.261719 189.402344 72.355469 188.9375 72.550781 C 188.472656 72.742188 188.058594 73.019531 187.703125 73.375 C 187.34375 73.730469 187.070312 74.144531 186.875 74.609375 C 186.683594 75.074219 186.585938 75.558594 186.585938 76.066406 L 186.585938 180.320312 L 171.691406 180.320312 L 171.691406 140.445312 C 171.691406 139.941406 171.59375 139.453125 171.402344 138.988281 C 171.207031 138.523438 170.933594 138.109375 170.574219 137.753906 C 170.21875 137.398438 169.804688 137.121094 169.339844 136.929688 C 168.875 136.734375 168.386719 136.640625 167.882812 136.640625 L 147.199219 136.640625 C 146.691406 136.640625 146.207031 136.734375 145.742188 136.929688 C 145.273438 137.121094 144.863281 137.398438 144.503906 137.753906 C 144.148438 138.109375 143.875 138.523438 143.679688 138.988281 C 143.488281 139.453125 143.390625 139.941406 143.390625 140.445312 L 143.390625 180.320312 L 128.492188 180.320312 L 128.492188 128.574219 C 128.492188 128.070312 128.398438 127.582031 128.203125 127.117188 C 128.011719 126.652344 127.734375 126.238281 127.378906 125.882812 C 127.019531 125.527344 126.609375 125.25 126.144531 125.058594 C 125.675781 124.863281 125.191406 124.769531 124.6875 124.769531 L 104.03125 124.769531 C 103.78125 124.765625 103.53125 124.789062 103.285156 124.835938 C 103.039062 124.882812 102.800781 124.953125 102.570312 125.050781 C 102.335938 125.144531 102.117188 125.261719 101.910156 125.398438 C 101.699219 125.539062 101.507812 125.695312 101.332031 125.875 C 101.152344 126.050781 100.996094 126.242188 100.855469 126.453125 C 100.71875 126.660156 100.601562 126.878906 100.503906 127.113281 C 100.410156 127.34375 100.339844 127.582031 100.292969 127.828125 C 100.246094 128.074219 100.222656 128.324219 100.222656 128.574219 L 100.222656 180.320312 L 85.296875 180.320312 L 85.296875 158.097656 C 85.28125 157.605469 85.171875 157.136719 84.972656 156.683594 C 84.769531 156.234375 84.492188 155.839844 84.136719 155.5 C 83.78125 155.15625 83.375 154.894531 82.917969 154.714844 C 82.457031 154.53125 81.980469 154.441406 81.488281 154.445312 L 60.835938 154.445312 C 60.335938 154.4375 59.855469 154.523438 59.394531 154.703125 C 58.929688 154.882812 58.515625 155.144531 58.15625 155.484375 C 57.792969 155.828125 57.511719 156.222656 57.304688 156.675781 C 57.097656 157.128906 56.984375 157.601562 56.964844 158.097656 L 56.964844 180.320312 L 23.242188 180.320312 L 23.242188 39.355469 C 23.242188 37.253906 21.203125 36.917969 19.101562 36.917969 C 17 36.917969 15.628906 37.253906 15.628906 39.355469 L 15.628906 184.125 C 15.628906 184.628906 15.722656 185.113281 15.917969 185.582031 C 16.109375 186.046875 16.386719 186.460938 16.742188 186.816406 C 17.101562 187.171875 17.511719 187.449219 17.976562 187.640625 C 18.445312 187.832031 18.929688 187.929688 19.433594 187.929688 L 70.675781 187.929688 L 37.5625 270.117188 C 37.371094 270.585938 37.277344 271.070312 37.28125 271.578125 C 37.285156 272.082031 37.382812 272.566406 37.582031 273.035156 C 37.777344 273.5 38.058594 273.910156 38.417969 274.261719 C 38.777344 274.617188 39.195312 274.890625 39.664062 275.078125 C 40.125 275.253906 40.601562 275.347656 41.09375 275.351562 C 41.476562 275.375 41.851562 275.34375 42.226562 275.253906 C 42.597656 275.164062 42.949219 275.019531 43.277344 274.824219 C 43.605469 274.628906 43.898438 274.390625 44.152344 274.105469 C 44.410156 273.824219 44.621094 273.507812 44.78125 273.160156 L 56.964844 242.996094 L 124.625 221.230469 L 124.625 243.605469 C 124.625 244.109375 124.722656 244.59375 124.914062 245.058594 C 125.109375 245.527344 125.382812 245.9375 125.738281 246.292969 C 126.097656 246.652344 126.507812 246.925781 126.976562 247.121094 C 127.441406 247.3125 127.929688 247.410156 128.433594 247.410156 C 128.9375 247.410156 129.421875 247.3125 129.890625 247.121094 C 130.355469 246.925781 130.769531 246.652344 131.125 246.292969 C 131.480469 245.9375 131.757812 245.527344 131.949219 245.058594 C 132.144531 244.59375 132.242188 244.109375 132.242188 243.605469 L 132.242188 221.078125 L 199.960938 242.933594 L 212.144531 273.007812 C 212.191406 273.292969 212.265625 273.570312 212.375 273.839844 C 212.484375 274.109375 212.621094 274.363281 212.785156 274.597656 C 212.953125 274.835938 213.144531 275.050781 213.359375 275.246094 C 213.574219 275.441406 213.808594 275.605469 214.0625 275.746094 C 214.3125 275.886719 214.582031 275.996094 214.859375 276.078125 C 215.136719 276.15625 215.421875 276.203125 215.710938 276.21875 C 216 276.234375 216.285156 276.21875 216.574219 276.167969 C 216.859375 276.117188 217.132812 276.035156 217.398438 275.921875 C 217.667969 275.808594 217.917969 275.664062 218.152344 275.496094 C 218.386719 275.324219 218.597656 275.128906 218.785156 274.910156 C 218.976562 274.691406 219.140625 274.453125 219.273438 274.199219 C 219.410156 273.941406 219.515625 273.675781 219.589844 273.394531 C 219.664062 273.113281 219.703125 272.828125 219.714844 272.539062 C 219.722656 272.25 219.699219 271.964844 219.644531 271.679688 C 219.585938 271.398438 219.5 271.121094 219.378906 270.859375 C 219.261719 270.59375 219.113281 270.347656 218.9375 270.117188 L 185.824219 187.929688 L 237.09375 187.929688 C 237.601562 187.929688 238.085938 187.832031 238.550781 187.640625 C 239.019531 187.449219 239.429688 187.171875 239.789062 186.816406 C 240.144531 186.460938 240.417969 186.046875 240.613281 185.582031 C 240.804688 185.113281 240.902344 184.628906 240.902344 184.125 L 240.902344 39.355469 C 240.902344 37.253906 238.832031 37.316406 236.699219 37.316406 Z M 78.898438 187.929688 L 124.59375 187.929688 L 124.59375 213.074219 L 60.621094 233.773438 Z M 196.089844 233.773438 L 132.117188 213.074219 L 132.117188 187.929688 L 177.8125 187.929688 Z M 196.089844 233.773438 " fill-opacity="1" fill-rule="nonzero"/></g><path fill="#4c91d4" d="M 216.289062 30.742188 C 215.785156 30.742188 215.296875 30.644531 214.832031 30.449219 C 214.363281 30.257812 213.953125 29.984375 213.597656 29.625 C 213.238281 29.269531 212.964844 28.859375 212.769531 28.390625 C 212.578125 27.925781 212.480469 27.441406 212.480469 26.9375 L 212.480469 8.671875 L 192.496094 8.671875 C 191.992188 8.671875 191.507812 8.574219 191.039062 8.382812 C 190.574219 8.1875 190.160156 7.914062 189.804688 7.558594 C 189.445312 7.199219 189.171875 6.789062 188.980469 6.324219 C 188.785156 5.855469 188.6875 5.371094 188.6875 4.867188 C 188.6875 4.363281 188.785156 3.878906 188.980469 3.410156 C 189.171875 2.945312 189.445312 2.535156 189.804688 2.175781 C 190.160156 1.820312 190.574219 1.542969 191.039062 1.351562 C 191.507812 1.160156 191.992188 1.0625 192.496094 1.0625 L 216.289062 1.0625 C 216.792969 1.0625 217.277344 1.160156 217.746094 1.351562 C 218.210938 1.542969 218.625 1.820312 218.980469 2.175781 C 219.339844 2.535156 219.613281 2.945312 219.804688 3.410156 C 220 3.878906 220.097656 4.363281 220.097656 4.867188 L 220.097656 26.84375 C 220.097656 27.347656 220 27.835938 219.804688 28.300781 C 219.613281 28.765625 219.339844 29.179688 218.980469 29.535156 C 218.625 29.890625 218.210938 30.167969 217.746094 30.359375 C 217.277344 30.550781 216.792969 30.648438 216.289062 30.648438 Z M 216.289062 30.742188 " fill-opacity="1" fill-rule="nonzero"/><path fill="#4c91d4" d="M 57.910156 131.191406 C 57.074219 131.191406 56.320312 130.9375 55.65625 130.429688 C 55.253906 130.128906 54.925781 129.765625 54.667969 129.335938 C 54.410156 128.902344 54.242188 128.441406 54.167969 127.945312 C 54.09375 127.449219 54.117188 126.957031 54.238281 126.46875 C 54.359375 125.984375 54.566406 125.539062 54.863281 125.132812 L 91.144531 76.21875 C 91.4375 75.816406 91.796875 75.488281 92.21875 75.226562 C 92.636719 74.964844 93.09375 74.792969 93.582031 74.707031 C 94.070312 74.621094 94.558594 74.628906 95.042969 74.734375 C 95.527344 74.835938 95.972656 75.027344 96.386719 75.304688 L 128.097656 97.523438 L 210.042969 5.660156 C 210.378906 5.28125 210.773438 4.980469 211.226562 4.761719 C 211.683594 4.542969 212.160156 4.414062 212.664062 4.386719 C 213.167969 4.355469 213.660156 4.421875 214.136719 4.589844 C 214.613281 4.753906 215.042969 5.003906 215.421875 5.339844 C 215.796875 5.671875 216.097656 6.066406 216.316406 6.523438 C 216.539062 6.976562 216.664062 7.457031 216.695312 7.957031 C 216.722656 8.460938 216.65625 8.953125 216.492188 9.429688 C 216.324219 9.90625 216.074219 10.332031 215.742188 10.710938 L 131.539062 105.074219 C 131.230469 105.421875 130.867188 105.703125 130.453125 105.917969 C 130.039062 106.128906 129.601562 106.265625 129.136719 106.316406 C 128.671875 106.371094 128.214844 106.339844 127.765625 106.226562 C 127.3125 106.109375 126.894531 105.917969 126.511719 105.652344 L 95.074219 83.734375 L 60.988281 129.636719 C 60.632812 130.132812 60.179688 130.515625 59.636719 130.789062 C 59.09375 131.0625 58.519531 131.199219 57.910156 131.191406 Z M 57.910156 131.191406 " fill-opacity="1" fill-rule="nonzero"/><path fill="#3c6a98" d="M 38.199219 157.796875 L 21.171875 157.796875 C 20.667969 157.796875 20.179688 157.699219 19.714844 157.503906 C 19.25 157.3125 18.835938 157.039062 18.480469 156.679688 C 18.121094 156.324219 17.847656 155.914062 17.652344 155.445312 C 17.460938 154.980469 17.363281 154.496094 17.363281 153.988281 C 17.363281 153.484375 17.460938 153 17.652344 152.535156 C 17.847656 152.066406 18.121094 151.65625 18.480469 151.300781 C 18.835938 150.941406 19.25 150.667969 19.714844 150.476562 C 20.179688 150.28125 20.667969 150.183594 21.171875 150.183594 L 38.199219 150.183594 C 38.707031 150.183594 39.191406 150.28125 39.65625 150.476562 C 40.125 150.667969 40.535156 150.941406 40.894531 151.300781 C 41.25 151.65625 41.527344 152.066406 41.71875 152.535156 C 41.910156 153 42.007812 153.484375 42.007812 153.988281 C 42.007812 154.496094 41.910156 154.980469 41.71875 155.445312 C 41.527344 155.914062 41.25 156.324219 40.894531 156.679688 C 40.535156 157.039062 40.125 157.3125 39.65625 157.503906 C 39.191406 157.699219 38.707031 157.796875 38.199219 157.796875 Z M 38.199219 157.796875 " fill-opacity="1" fill-rule="nonzero"/><path fill="#3c6a98" d="M 38.199219 115.027344 L 21.171875 115.027344 C 20.667969 115.027344 20.179688 114.929688 19.714844 114.738281 C 19.25 114.542969 18.835938 114.269531 18.480469 113.914062 C 18.121094 113.554688 17.847656 113.144531 17.652344 112.679688 C 17.460938 112.210938 17.363281 111.726562 17.363281 111.222656 C 17.363281 110.71875 17.460938 110.234375 17.652344 109.765625 C 17.847656 109.300781 18.121094 108.890625 18.480469 108.53125 C 18.835938 108.175781 19.25 107.902344 19.714844 107.707031 C 20.179688 107.515625 20.667969 107.417969 21.171875 107.417969 L 38.199219 107.417969 C 38.707031 107.417969 39.191406 107.515625 39.65625 107.707031 C 40.125 107.902344 40.535156 108.175781 40.894531 108.53125 C 41.25 108.890625 41.527344 109.300781 41.71875 109.765625 C 41.910156 110.234375 42.007812 110.71875 42.007812 111.222656 C 42.007812 111.726562 41.910156 112.210938 41.71875 112.679688 C 41.527344 113.144531 41.25 113.554688 40.894531 113.914062 C 40.535156 114.269531 40.125 114.542969 39.65625 114.738281 C 39.191406 114.929688 38.707031 115.027344 38.199219 115.027344 Z M 38.199219 115.027344 " fill-opacity="1" fill-rule="nonzero"/><path fill="#3c6a98" d="M 38.199219 72.261719 L 21.171875 72.261719 C 20.667969 72.261719 20.179688 72.164062 19.714844 71.96875 C 19.25 71.777344 18.835938 71.503906 18.480469 71.144531 C 18.121094 70.789062 17.847656 70.378906 17.652344 69.910156 C 17.460938 69.445312 17.363281 68.960938 17.363281 68.457031 C 17.363281 67.949219 17.460938 67.464844 17.652344 67 C 17.847656 66.53125 18.121094 66.121094 18.480469 65.765625 C 18.835938 65.40625 19.25 65.132812 19.714844 64.941406 C 20.179688 64.746094 20.667969 64.648438 21.171875 64.648438 L 38.199219 64.648438 C 38.707031 64.648438 39.191406 64.746094 39.65625 64.941406 C 40.125 65.132812 40.535156 65.40625 40.894531 65.765625 C 41.25 66.121094 41.527344 66.53125 41.71875 67 C 41.910156 67.464844 42.007812 67.949219 42.007812 68.457031 C 42.007812 68.960938 41.910156 69.445312 41.71875 69.910156 C 41.527344 70.378906 41.25 70.789062 40.894531 71.144531 C 40.535156 71.503906 40.125 71.777344 39.65625 71.96875 C 39.191406 72.164062 38.707031 72.261719 38.199219 72.261719 Z M 38.199219 72.261719 " fill-opacity="1" fill-rule="nonzero"/><path fill="#fdd04c" d="M 128.492188 128.453125 C 128.492188 127.945312 128.398438 127.460938 128.203125 126.996094 C 128.011719 126.527344 127.734375 126.117188 127.378906 125.761719 C 127.019531 125.402344 126.609375 125.128906 126.144531 124.9375 C 125.675781 124.742188 125.191406 124.648438 124.6875 124.648438 L 104 124.648438 C 103.496094 124.648438 103.011719 124.742188 102.542969 124.9375 C 102.078125 125.128906 101.664062 125.402344 101.308594 125.761719 C 100.953125 126.117188 100.675781 126.527344 100.484375 126.996094 C 100.289062 127.460938 100.195312 127.945312 100.195312 128.453125 L 100.195312 180.199219 L 128.492188 180.199219 Z M 128.492188 128.453125 " fill-opacity="1" fill-rule="nonzero"/><path fill="#ff6d55" d="M 85.296875 158.128906 C 85.28125 157.636719 85.171875 157.164062 84.972656 156.710938 C 84.773438 156.257812 84.496094 155.863281 84.140625 155.519531 C 83.785156 155.175781 83.378906 154.910156 82.917969 154.722656 C 82.460938 154.539062 81.984375 154.445312 81.488281 154.445312 L 60.804688 154.445312 C 60.308594 154.441406 59.828125 154.53125 59.367188 154.714844 C 58.902344 154.898438 58.492188 155.164062 58.132812 155.507812 C 57.777344 155.851562 57.496094 156.25 57.292969 156.703125 C 57.089844 157.15625 56.980469 157.632812 56.964844 158.128906 L 56.964844 180.320312 L 85.296875 180.320312 Z M 85.296875 158.128906 " fill-opacity="1" fill-rule="nonzero"/><path fill="#ff6d55" d="M 171.691406 140.445312 C 171.691406 139.941406 171.59375 139.453125 171.402344 138.988281 C 171.207031 138.523438 170.933594 138.109375 170.574219 137.753906 C 170.21875 137.398438 169.804688 137.121094 169.339844 136.929688 C 168.875 136.734375 168.386719 136.640625 167.882812 136.640625 L 147.199219 136.640625 C 146.691406 136.640625 146.207031 136.734375 145.742188 136.929688 C 145.273438 137.121094 144.863281 137.398438 144.503906 137.753906 C 144.148438 138.109375 143.875 138.523438 143.679688 138.988281 C 143.488281 139.453125 143.390625 139.941406 143.390625 140.445312 L 143.390625 180.320312 L 171.691406 180.320312 Z M 171.691406 140.445312 " fill-opacity="1" fill-rule="nonzero"/><path fill="#4c91d4" d="M 214.886719 76.066406 C 214.886719 75.558594 214.789062 75.074219 214.597656 74.609375 C 214.402344 74.144531 214.128906 73.730469 213.773438 73.375 C 213.414062 73.019531 213.003906 72.742188 212.535156 72.550781 C 212.070312 72.355469 211.585938 72.261719 211.078125 72.261719 L 190.394531 72.261719 C 189.890625 72.261719 189.402344 72.355469 188.9375 72.550781 C 188.472656 72.742188 188.058594 73.019531 187.703125 73.375 C 187.34375 73.730469 187.070312 74.144531 186.875 74.609375 C 186.683594 75.074219 186.585938 75.558594 186.585938 76.066406 L 186.585938 180.320312 L 214.886719 180.320312 Z M 214.886719 76.066406 " fill-opacity="1" fill-rule="nonzero"/></svg>