<svg xmlns="http://www.w3.org/2000/svg" xmlns:xlink="http://www.w3.org/1999/xlink" width="450" zoomAndPan="magnify" viewBox="0 0 337.5 337.500003" height="450" preserveAspectRatio="xMidYMid meet" version="1.0"><defs><g/><clipPath id="id1"><path d="M 0 0 L 337 0 L 337 337 L 0 337 Z M 0 0 " clip-rule="nonzero"/></clipPath><clipPath id="id2"><path d="M 0 0 L 337 0 L 337 337 L 0 337 Z M 0 0 " clip-rule="nonzero"/></clipPath><clipPath id="id3"><path d="M 168.75 0 C 75.550781 0 0 75.550781 0 168.75 C 0 261.949219 75.550781 337.5 168.75 337.5 C 261.949219 337.5 337.5 261.949219 337.5 168.75 C 337.5 75.550781 261.949219 0 168.75 0 " clip-rule="nonzero"/></clipPath></defs><g clip-path="url(#id1)"><path fill="#14c38e" d="M 168.75 0 C 75.550781 0 0 75.550781 0 168.75 C 0 261.949219 75.550781 337.5 168.75 337.5 C 261.949219 337.5 337.5 261.949219 337.5 168.75 C 337.5 75.550781 261.949219 0 168.75 0 " fill-opacity="1" fill-rule="nonzero"/></g><g clip-path="url(#id2)"><g clip-path="url(#id3)"><path stroke-linecap="butt" transform="matrix(0.75, 0, 0, 0.75, 0, 0.0000114852)" fill="none" stroke-linejoin="miter" d="M 225.000012 -0.0000153136 C 100.73438 -0.0000153136 0 100.734365 0 224.999996 C 0 349.265628 100.73438 450.000008 225.000012 450.000008 C 349.265643 450.000008 450.000023 349.265628 450.000023 224.999996 C 450.000023 100.734365 349.265643 -0.0000153136 225.000012 -0.0000153136 " stroke="#b8f1b0" stroke-width="32" stroke-opacity="1" stroke-miterlimit="4"/></g></g><g fill="#d32f23" fill-opacity="0.4196"><g transform="translate(63.529035, 253.360711)"><g><path d="M 104.59375 -153.828125 C 105.625 -153.828125 106.394531 -153.53125 106.90625 -152.9375 C 107.414062 -152.351562 107.597656 -151.550781 107.453125 -150.53125 L 103.71875 -121.078125 C 103.425781 -119.316406 102.769531 -117.925781 101.75 -116.90625 L 76.6875 -92.953125 C 76.25 -92.660156 76.066406 -92.367188 76.140625 -92.078125 C 76.210938 -91.785156 76.46875 -91.640625 76.90625 -91.640625 C 82.769531 -91.191406 87.53125 -88.550781 91.1875 -83.71875 C 94.851562 -78.882812 96.6875 -72.953125 96.6875 -65.921875 C 96.6875 -64.753906 96.539062 -63 96.25 -60.65625 L 93.609375 -37.796875 C 92.734375 -30.179688 90.023438 -23.367188 85.484375 -17.359375 C 80.941406 -11.347656 75.117188 -6.65625 68.015625 -3.28125 C 60.910156 0.0820312 53.109375 1.765625 44.609375 1.765625 C 32.160156 1.765625 22.125 -1.421875 14.5 -7.796875 C 6.882812 -14.171875 3.078125 -22.488281 3.078125 -32.75 C 3.078125 -34.9375 3.148438 -36.617188 3.296875 -37.796875 L 4.609375 -47.6875 C 4.753906 -48.707031 5.117188 -49.507812 5.703125 -50.09375 C 6.296875 -50.6875 7.101562 -50.984375 8.125 -50.984375 L 41.75 -50.984375 C 42.78125 -50.984375 43.550781 -50.6875 44.0625 -50.09375 C 44.570312 -49.507812 44.753906 -48.707031 44.609375 -47.6875 L 43.953125 -41.75 C 43.660156 -39.40625 43.953125 -37.460938 44.828125 -35.921875 C 45.703125 -34.390625 47.019531 -33.625 48.78125 -33.625 C 50.6875 -33.625 52.296875 -34.351562 53.609375 -35.8125 C 54.929688 -37.28125 55.738281 -39.257812 56.03125 -41.75 L 59.109375 -66.578125 C 59.398438 -68.921875 59.070312 -70.863281 58.125 -72.40625 C 57.175781 -73.945312 55.75 -74.71875 53.84375 -74.71875 C 51.5 -74.71875 48.859375 -73.472656 45.921875 -70.984375 C 44.898438 -70.242188 44.097656 -69.875 43.515625 -69.875 C 42.921875 -69.875 42.257812 -70.242188 41.53125 -70.984375 L 26.8125 -89.21875 C 26.375 -89.945312 26.15625 -90.609375 26.15625 -91.203125 C 26.15625 -92.367188 26.59375 -93.242188 27.46875 -93.828125 L 54.28125 -117.34375 C 54.570312 -117.632812 54.679688 -117.925781 54.609375 -118.21875 C 54.535156 -118.519531 54.28125 -118.671875 53.84375 -118.671875 L 20 -118.671875 C 18.96875 -118.671875 18.195312 -118.960938 17.6875 -119.546875 C 17.175781 -120.128906 16.992188 -120.9375 17.140625 -121.96875 L 20.65625 -150.53125 C 20.800781 -151.550781 21.164062 -152.351562 21.75 -152.9375 C 22.34375 -153.53125 23.148438 -153.828125 24.171875 -153.828125 Z M 104.59375 -153.828125 "/></g></g></g><g fill="#d32f23" fill-opacity="0.4196"><g transform="translate(160.215577, 253.360711)"><g><path d="M 112.953125 -74.0625 C 113.828125 -74.0625 114.519531 -73.765625 115.03125 -73.171875 C 115.550781 -72.585938 115.738281 -71.785156 115.59375 -70.765625 L 111.859375 -40 C 111.710938 -38.96875 111.34375 -38.160156 110.75 -37.578125 C 110.164062 -36.992188 109.363281 -36.703125 108.34375 -36.703125 L 101.75 -36.703125 C 101.15625 -36.703125 100.710938 -36.332031 100.421875 -35.59375 L 96.46875 -3.296875 C 96.320312 -2.273438 95.957031 -1.46875 95.375 -0.875 C 94.789062 -0.289062 93.984375 0 92.953125 0 L 59.328125 0 C 58.304688 0 57.535156 -0.289062 57.015625 -0.875 C 56.503906 -1.46875 56.320312 -2.273438 56.46875 -3.296875 L 60.4375 -35.59375 C 60.4375 -36.332031 60.140625 -36.703125 59.546875 -36.703125 L 5.046875 -36.703125 C 4.171875 -36.703125 3.476562 -36.992188 2.96875 -37.578125 C 2.457031 -38.160156 2.273438 -38.96875 2.421875 -40 L 5.28125 -64.390625 C 5.425781 -65.265625 5.789062 -66.582031 6.375 -68.34375 L 42.40625 -151.1875 C 43.144531 -152.945312 44.46875 -153.828125 46.375 -153.828125 L 82.40625 -153.828125 C 83.582031 -153.828125 84.390625 -153.492188 84.828125 -152.828125 C 85.265625 -152.171875 85.265625 -151.257812 84.828125 -150.09375 L 53.625 -75.375 C 53.175781 -74.5 53.394531 -74.0625 54.28125 -74.0625 L 64.171875 -74.0625 C 64.898438 -74.0625 65.265625 -74.425781 65.265625 -75.15625 L 67.25 -90.3125 C 67.394531 -91.34375 67.757812 -92.148438 68.34375 -92.734375 C 68.925781 -93.316406 69.734375 -93.609375 70.765625 -93.609375 L 104.375 -93.609375 C 105.40625 -93.609375 106.175781 -93.316406 106.6875 -92.734375 C 107.195312 -92.148438 107.378906 -91.34375 107.234375 -90.3125 L 105.265625 -75.15625 C 105.265625 -74.425781 105.628906 -74.0625 106.359375 -74.0625 Z M 112.953125 -74.0625 "/></g></g></g><g fill="#e3fcbf" fill-opacity="1"><g transform="translate(56.996881, 247.479133)"><g><path d="M 104.59375 -153.828125 C 105.625 -153.828125 106.394531 -153.53125 106.90625 -152.9375 C 107.414062 -152.351562 107.597656 -151.550781 107.453125 -150.53125 L 103.71875 -121.078125 C 103.425781 -119.316406 102.769531 -117.925781 101.75 -116.90625 L 76.6875 -92.953125 C 76.25 -92.660156 76.066406 -92.367188 76.140625 -92.078125 C 76.210938 -91.785156 76.46875 -91.640625 76.90625 -91.640625 C 82.769531 -91.191406 87.53125 -88.550781 91.1875 -83.71875 C 94.851562 -78.882812 96.6875 -72.953125 96.6875 -65.921875 C 96.6875 -64.753906 96.539062 -63 96.25 -60.65625 L 93.609375 -37.796875 C 92.734375 -30.179688 90.023438 -23.367188 85.484375 -17.359375 C 80.941406 -11.347656 75.117188 -6.65625 68.015625 -3.28125 C 60.910156 0.0820312 53.109375 1.765625 44.609375 1.765625 C 32.160156 1.765625 22.125 -1.421875 14.5 -7.796875 C 6.882812 -14.171875 3.078125 -22.488281 3.078125 -32.75 C 3.078125 -34.9375 3.148438 -36.617188 3.296875 -37.796875 L 4.609375 -47.6875 C 4.753906 -48.707031 5.117188 -49.507812 5.703125 -50.09375 C 6.296875 -50.6875 7.101562 -50.984375 8.125 -50.984375 L 41.75 -50.984375 C 42.78125 -50.984375 43.550781 -50.6875 44.0625 -50.09375 C 44.570312 -49.507812 44.753906 -48.707031 44.609375 -47.6875 L 43.953125 -41.75 C 43.660156 -39.40625 43.953125 -37.460938 44.828125 -35.921875 C 45.703125 -34.390625 47.019531 -33.625 48.78125 -33.625 C 50.6875 -33.625 52.296875 -34.351562 53.609375 -35.8125 C 54.929688 -37.28125 55.738281 -39.257812 56.03125 -41.75 L 59.109375 -66.578125 C 59.398438 -68.921875 59.070312 -70.863281 58.125 -72.40625 C 57.175781 -73.945312 55.75 -74.71875 53.84375 -74.71875 C 51.5 -74.71875 48.859375 -73.472656 45.921875 -70.984375 C 44.898438 -70.242188 44.097656 -69.875 43.515625 -69.875 C 42.921875 -69.875 42.257812 -70.242188 41.53125 -70.984375 L 26.8125 -89.21875 C 26.375 -89.945312 26.15625 -90.609375 26.15625 -91.203125 C 26.15625 -92.367188 26.59375 -93.242188 27.46875 -93.828125 L 54.28125 -117.34375 C 54.570312 -117.632812 54.679688 -117.925781 54.609375 -118.21875 C 54.535156 -118.519531 54.28125 -118.671875 53.84375 -118.671875 L 20 -118.671875 C 18.96875 -118.671875 18.195312 -118.960938 17.6875 -119.546875 C 17.175781 -120.128906 16.992188 -120.9375 17.140625 -121.96875 L 20.65625 -150.53125 C 20.800781 -151.550781 21.164062 -152.351562 21.75 -152.9375 C 22.34375 -153.53125 23.148438 -153.828125 24.171875 -153.828125 Z M 104.59375 -153.828125 "/></g></g></g><g fill="#e3fcbf" fill-opacity="1"><g transform="translate(153.683424, 247.479133)"><g><path d="M 112.953125 -74.0625 C 113.828125 -74.0625 114.519531 -73.765625 115.03125 -73.171875 C 115.550781 -72.585938 115.738281 -71.785156 115.59375 -70.765625 L 111.859375 -40 C 111.710938 -38.96875 111.34375 -38.160156 110.75 -37.578125 C 110.164062 -36.992188 109.363281 -36.703125 108.34375 -36.703125 L 101.75 -36.703125 C 101.15625 -36.703125 100.710938 -36.332031 100.421875 -35.59375 L 96.46875 -3.296875 C 96.320312 -2.273438 95.957031 -1.46875 95.375 -0.875 C 94.789062 -0.289062 93.984375 0 92.953125 0 L 59.328125 0 C 58.304688 0 57.535156 -0.289062 57.015625 -0.875 C 56.503906 -1.46875 56.320312 -2.273438 56.46875 -3.296875 L 60.4375 -35.59375 C 60.4375 -36.332031 60.140625 -36.703125 59.546875 -36.703125 L 5.046875 -36.703125 C 4.171875 -36.703125 3.476562 -36.992188 2.96875 -37.578125 C 2.457031 -38.160156 2.273438 -38.96875 2.421875 -40 L 5.28125 -64.390625 C 5.425781 -65.265625 5.789062 -66.582031 6.375 -68.34375 L 42.40625 -151.1875 C 43.144531 -152.945312 44.46875 -153.828125 46.375 -153.828125 L 82.40625 -153.828125 C 83.582031 -153.828125 84.390625 -153.492188 84.828125 -152.828125 C 85.265625 -152.171875 85.265625 -151.257812 84.828125 -150.09375 L 53.625 -75.375 C 53.175781 -74.5 53.394531 -74.0625 54.28125 -74.0625 L 64.171875 -74.0625 C 64.898438 -74.0625 65.265625 -74.425781 65.265625 -75.15625 L 67.25 -90.3125 C 67.394531 -91.34375 67.757812 -92.148438 68.34375 -92.734375 C 68.925781 -93.316406 69.734375 -93.609375 70.765625 -93.609375 L 104.375 -93.609375 C 105.40625 -93.609375 106.175781 -93.316406 106.6875 -92.734375 C 107.195312 -92.148438 107.378906 -91.34375 107.234375 -90.3125 L 105.265625 -75.15625 C 105.265625 -74.425781 105.628906 -74.0625 106.359375 -74.0625 Z M 112.953125 -74.0625 "/></g></g></g></svg>