<svg xmlns="http://www.w3.org/2000/svg" xmlns:xlink="http://www.w3.org/1999/xlink" width="1000" zoomAndPan="magnify" viewBox="0 0 750 749.999995" height="1000" preserveAspectRatio="xMidYMid meet" version="1.0"><path fill="#051e0e" d="M 732.015625 375 C 732.015625 380.84375 731.871094 386.683594 731.585938 392.519531 C 731.296875 398.355469 730.867188 404.179688 730.296875 409.992188 C 729.722656 415.808594 729.007812 421.605469 728.148438 427.386719 C 727.292969 433.164062 726.292969 438.917969 725.15625 444.648438 C 724.015625 450.378906 722.734375 456.078125 721.316406 461.746094 C 719.894531 467.414062 718.335938 473.042969 716.640625 478.636719 C 714.945312 484.226562 713.113281 489.773438 711.144531 495.273438 C 709.175781 500.777344 707.074219 506.226562 704.839844 511.625 C 702.601562 517.019531 700.234375 522.363281 697.738281 527.644531 C 695.238281 532.925781 692.613281 538.140625 689.859375 543.296875 C 687.105469 548.449219 684.226562 553.53125 681.222656 558.542969 C 678.21875 563.554688 675.09375 568.488281 671.847656 573.347656 C 668.601562 578.203125 665.238281 582.980469 661.757812 587.671875 C 658.277344 592.367188 654.683594 596.972656 650.976562 601.488281 C 647.269531 606.003906 643.453125 610.425781 639.53125 614.757812 C 635.605469 619.085938 631.578125 623.316406 627.445312 627.445312 C 623.316406 631.578125 619.085938 635.605469 614.757812 639.53125 C 610.425781 643.453125 606.003906 647.269531 601.488281 650.976562 C 596.972656 654.683594 592.367188 658.277344 587.671875 661.757812 C 582.980469 665.238281 578.203125 668.601562 573.347656 671.847656 C 568.488281 675.09375 563.554688 678.21875 558.542969 681.222656 C 553.53125 684.226562 548.449219 687.105469 543.296875 689.859375 C 538.140625 692.613281 532.925781 695.238281 527.644531 697.738281 C 522.363281 700.234375 517.019531 702.601562 511.625 704.839844 C 506.226562 707.074219 500.777344 709.175781 495.273438 711.144531 C 489.773438 713.113281 484.226562 714.945312 478.636719 716.640625 C 473.042969 718.335938 467.414062 719.894531 461.746094 721.316406 C 456.078125 722.734375 450.378906 724.015625 444.648438 725.15625 C 438.917969 726.292969 433.164062 727.292969 427.386719 728.148438 C 421.605469 729.007812 415.808594 729.722656 409.992188 730.296875 C 404.179688 730.867188 398.355469 731.296875 392.519531 731.585938 C 386.683594 731.871094 380.84375 732.015625 375 732.015625 C 369.15625 732.015625 363.316406 731.871094 357.480469 731.585938 C 351.644531 731.296875 345.820312 730.867188 340.007812 730.296875 C 334.191406 729.722656 328.394531 729.007812 322.613281 728.148438 C 316.835938 727.292969 311.082031 726.292969 305.351562 725.15625 C 299.621094 724.015625 293.921875 722.734375 288.253906 721.316406 C 282.585938 719.894531 276.957031 718.335938 271.363281 716.640625 C 265.773438 714.945312 260.226562 713.113281 254.726562 711.144531 C 249.222656 709.175781 243.773438 707.074219 238.375 704.839844 C 232.976562 702.601562 227.636719 700.234375 222.355469 697.738281 C 217.074219 695.238281 211.859375 692.613281 206.703125 689.859375 C 201.550781 687.105469 196.46875 684.226562 191.457031 681.222656 C 186.445312 678.21875 181.511719 675.09375 176.652344 671.847656 C 171.796875 668.601562 167.019531 665.238281 162.328125 661.757812 C 157.632812 658.277344 153.027344 654.683594 148.511719 650.976562 C 143.996094 647.269531 139.574219 643.453125 135.242188 639.53125 C 130.914062 635.605469 126.683594 631.578125 122.550781 627.445312 C 118.421875 623.316406 114.394531 619.085938 110.46875 614.757812 C 106.546875 610.425781 102.730469 606.003906 99.023438 601.488281 C 95.316406 596.972656 91.722656 592.367188 88.242188 587.671875 C 84.761719 582.980469 81.398438 578.203125 78.152344 573.347656 C 74.90625 568.488281 71.78125 563.554688 68.777344 558.542969 C 65.773438 553.53125 62.894531 548.449219 60.140625 543.296875 C 57.386719 538.140625 54.761719 532.925781 52.261719 527.644531 C 49.765625 522.363281 47.398438 517.019531 45.160156 511.625 C 42.925781 506.226562 40.824219 500.777344 38.855469 495.273438 C 36.886719 489.773438 35.054688 484.226562 33.359375 478.636719 C 31.664062 473.042969 30.105469 467.414062 28.683594 461.746094 C 27.265625 456.078125 25.984375 450.378906 24.84375 444.648438 C 23.707031 438.917969 22.707031 433.164062 21.851562 427.386719 C 20.992188 421.605469 20.277344 415.808594 19.703125 409.992188 C 19.132812 404.179688 18.703125 398.355469 18.414062 392.519531 C 18.128906 386.683594 17.984375 380.84375 17.984375 375 C 17.984375 369.15625 18.128906 363.316406 18.414062 357.480469 C 18.703125 351.644531 19.132812 345.820312 19.703125 340.007812 C 20.277344 334.191406 20.992188 328.394531 21.851562 322.613281 C 22.707031 316.835938 23.707031 311.082031 24.84375 305.351562 C 25.984375 299.621094 27.265625 293.921875 28.683594 288.253906 C 30.105469 282.585938 31.664062 276.957031 33.359375 271.363281 C 35.054688 265.773438 36.886719 260.226562 38.855469 254.726562 C 40.824219 249.222656 42.925781 243.773438 45.160156 238.375 C 47.398438 232.976562 49.765625 227.636719 52.261719 222.355469 C 54.761719 217.074219 57.386719 211.859375 60.140625 206.703125 C 62.894531 201.550781 65.773438 196.46875 68.777344 191.457031 C 71.78125 186.445312 74.90625 181.511719 78.152344 176.652344 C 81.398438 171.796875 84.761719 167.019531 88.242188 162.328125 C 91.722656 157.632812 95.316406 153.027344 99.023438 148.511719 C 102.730469 143.996094 106.546875 139.574219 110.46875 135.242188 C 114.394531 130.914062 118.421875 126.683594 122.550781 122.550781 C 126.683594 118.421875 130.914062 114.394531 135.242188 110.46875 C 139.574219 106.546875 143.996094 102.730469 148.511719 99.023438 C 153.027344 95.316406 157.632812 91.722656 162.328125 88.242188 C 167.019531 84.761719 171.796875 81.398438 176.652344 78.152344 C 181.511719 74.90625 186.445312 71.78125 191.457031 68.777344 C 196.46875 65.773438 201.550781 62.894531 206.703125 60.140625 C 211.859375 57.386719 217.074219 54.761719 222.355469 52.261719 C 227.636719 49.765625 232.976562 47.398438 238.375 45.160156 C 243.773438 42.925781 249.222656 40.824219 254.726562 38.855469 C 260.226562 36.886719 265.773438 35.054688 271.363281 33.359375 C 276.957031 31.664062 282.585938 30.105469 288.253906 28.683594 C 293.921875 27.265625 299.621094 25.984375 305.351562 24.84375 C 311.082031 23.707031 316.835938 22.707031 322.613281 21.851562 C 328.394531 20.992188 334.191406 20.277344 340.007812 19.703125 C 345.820312 19.132812 351.644531 18.703125 357.480469 18.414062 C 363.316406 18.128906 369.15625 17.984375 375 17.984375 C 380.84375 17.984375 386.683594 18.128906 392.519531 18.414062 C 398.355469 18.703125 404.179688 19.132812 409.992188 19.703125 C 415.808594 20.277344 421.605469 20.992188 427.386719 21.851562 C 433.164062 22.707031 438.917969 23.707031 444.648438 24.84375 C 450.378906 25.984375 456.078125 27.265625 461.746094 28.683594 C 467.414062 30.105469 473.042969 31.664062 478.636719 33.359375 C 484.226562 35.054688 489.773438 36.886719 495.273438 38.855469 C 500.777344 40.824219 506.226562 42.925781 511.625 45.160156 C 517.019531 47.398438 522.363281 49.765625 527.644531 52.261719 C 532.925781 54.761719 538.140625 57.386719 543.296875 60.140625 C 548.449219 62.894531 553.53125 65.773438 558.542969 68.777344 C 563.554688 71.78125 568.488281 74.90625 573.347656 78.152344 C 578.203125 81.398438 582.980469 84.761719 587.671875 88.242188 C 592.367188 91.722656 596.972656 95.316406 601.488281 99.023438 C 606.003906 102.730469 610.425781 106.546875 614.757812 110.46875 C 619.085938 114.394531 623.316406 118.421875 627.445312 122.550781 C 631.578125 126.683594 635.605469 130.914062 639.53125 135.242188 C 643.453125 139.574219 647.269531 143.996094 650.976562 148.511719 C 654.683594 153.027344 658.277344 157.632812 661.757812 162.328125 C 665.238281 167.019531 668.601562 171.796875 671.847656 176.652344 C 675.09375 181.511719 678.21875 186.445312 681.222656 191.457031 C 684.226562 196.46875 687.105469 201.550781 689.859375 206.703125 C 692.613281 211.859375 695.238281 217.074219 697.738281 222.355469 C 700.234375 227.636719 702.601562 232.976562 704.839844 238.375 C 707.074219 243.773438 709.175781 249.222656 711.144531 254.726562 C 713.113281 260.226562 714.945312 265.773438 716.640625 271.363281 C 718.335938 276.957031 719.894531 282.585938 721.316406 288.253906 C 722.734375 293.921875 724.015625 299.621094 725.15625 305.351562 C 726.292969 311.082031 727.292969 316.835938 728.148438 322.613281 C 729.007812 328.394531 729.722656 334.191406 730.296875 340.007812 C 730.867188 345.820312 731.296875 351.644531 731.585938 357.480469 C 731.871094 363.316406 732.015625 369.15625 732.015625 375 Z M 732.015625 375 " fill-opacity="1" fill-rule="nonzero"/><path fill="#85ffb6" d="M 518.34375 514.75 L 470.683594 262.769531 C 469.246094 255.394531 464.75 248.742188 458.09375 244.425781 L 400.71875 207.015625 L 351.617188 175 C 341.546875 168.34375 326.976562 171.222656 319.964844 180.933594 L 285.972656 228.597656 L 246.222656 284.351562 C 241.546875 290.828125 239.75 298.5625 241.1875 306.113281 L 288.847656 558.09375 C 291.546875 572.480469 306.835938 581.65625 322.839844 578.777344 L 494.066406 546.402344 C 510.25 543.164062 521.042969 529.136719 518.34375 514.75 Z M 339.570312 197.300781 C 344.066406 196.402344 348.382812 199.460938 349.101562 203.777344 C 350 208.273438 346.941406 212.589844 342.625 213.308594 C 338.128906 214.207031 333.8125 211.152344 333.09375 206.835938 C 332.195312 202.519531 335.070312 198.203125 339.570312 197.300781 Z M 434.710938 429.496094 C 434.351562 434.53125 433.09375 439.207031 431.113281 443.886719 C 428.417969 450 424.460938 455.574219 419.605469 460.25 C 414.386719 465.109375 408.632812 468.886719 401.976562 471.582031 C 401.078125 471.941406 400.71875 472.300781 400.898438 473.203125 C 402.160156 479.316406 403.238281 485.429688 404.496094 491.546875 C 404.675781 492.625 404.855469 493.707031 405.214844 494.785156 C 405.574219 496.761719 404.496094 499.28125 402.339844 499.640625 C 396.222656 500.898438 389.929688 502.160156 383.8125 503.058594 C 381.476562 503.417969 379.675781 501.617188 379.316406 499.28125 C 378.058594 492.625 376.976562 486.152344 375.71875 479.496094 C 375.539062 478.597656 375.179688 478.238281 374.101562 478.238281 C 370.863281 478.597656 367.625 478.777344 364.386719 478.957031 C 361.332031 478.957031 358.273438 478.957031 355.214844 478.597656 C 351.4375 478.238281 347.660156 477.699219 344.066406 476.796875 C 340.648438 476.078125 337.230469 474.820312 333.992188 473.5625 C 331.835938 472.660156 331.113281 470.324219 331.65625 467.265625 C 332.734375 461.871094 333.632812 456.65625 334.53125 451.257812 C 335.070312 447.660156 338.128906 446.222656 341.546875 447.121094 C 346.222656 448.5625 351.078125 450 355.933594 450.71875 C 360.972656 451.4375 366.1875 451.796875 371.222656 451.4375 C 380.035156 450.898438 388.488281 448.742188 395.503906 442.984375 C 400.539062 438.847656 403.238281 433.453125 402.699219 426.976562 C 402.160156 420.324219 398.742188 415.109375 392.984375 411.511719 C 388.128906 408.453125 382.734375 406.65625 377.160156 405.394531 C 369.425781 403.597656 361.511719 402.160156 353.777344 400.179688 C 344.246094 397.839844 335.25 394.246094 327.699219 388.128906 C 320.683594 382.375 316.1875 375 314.207031 366.007812 C 312.050781 355.753906 312.949219 345.683594 317.804688 336.332031 C 321.402344 329.496094 326.257812 323.742188 332.734375 319.425781 C 336.871094 316.546875 341.367188 314.207031 345.863281 311.511719 C 344.605469 304.675781 342.984375 297.480469 341.90625 290.289062 C 341.367188 287.230469 342.085938 285.070312 347.121094 284.171875 C 352.160156 283.273438 357.015625 282.375 362.050781 281.296875 C 364.386719 280.933594 366.726562 282.375 367.265625 284.890625 C 368.703125 291.726562 369.785156 298.382812 371.042969 305.035156 L 379.496094 305.035156 C 382.554688 305.035156 385.792969 304.855469 388.847656 305.035156 C 392.984375 305.574219 396.941406 306.296875 401.078125 307.195312 C 402.519531 307.554688 403.957031 307.914062 405.394531 308.453125 C 407.914062 309.351562 408.8125 311.152344 408.273438 314.207031 L 405.035156 331.476562 C 404.316406 334.890625 401.976562 336.152344 398.5625 335.070312 C 393.34375 333.632812 388.128906 332.375 382.554688 332.015625 C 373.023438 331.476562 363.667969 332.554688 355.035156 336.871094 C 349.101562 339.75 345.324219 344.605469 344.964844 351.257812 C 344.605469 357.734375 347.480469 362.769531 353.238281 366.007812 C 359.171875 369.425781 365.648438 371.042969 372.121094 372.480469 C 381.476562 374.640625 391.1875 375.898438 400.179688 379.316406 C 408.632812 382.375 416.367188 386.511719 422.660156 393.164062 C 428.417969 399.28125 431.835938 406.65625 433.632812 414.75 C 434.710938 419.964844 434.890625 424.820312 434.710938 429.496094 Z M 375 750 C 168.164062 750 0 581.835938 0 375 C 0 168.164062 168.164062 0 375 0 C 581.835938 0 750 168.164062 750 375 C 750 581.835938 581.835938 750 375 750 Z M 375 35.972656 C 188.128906 35.972656 35.972656 188.128906 35.972656 375 C 35.972656 561.871094 188.128906 714.027344 375 714.027344 C 561.871094 714.027344 714.027344 561.871094 714.027344 375 C 714.027344 188.128906 561.871094 35.972656 375 35.972656 Z M 375 35.972656 " fill-opacity="1" fill-rule="nonzero"/></svg>