<svg xmlns="http://www.w3.org/2000/svg" xmlns:xlink="http://www.w3.org/1999/xlink" width="308" zoomAndPan="magnify" viewBox="0 0 230.87999 231" height="308" preserveAspectRatio="xMidYMid meet" version="1.0"><defs><g/><clipPath id="id1"><path d="M 0.804688 0.0585938 L 230.761719 0.0585938 L 230.761719 230.9375 L 0.804688 230.9375 Z M 0.804688 0.0585938 " clip-rule="nonzero"/></clipPath><clipPath id="id2"><path d="M 8.15625 8.21875 L 222.546875 8.21875 L 222.546875 222.605469 L 8.15625 222.605469 Z M 8.15625 8.21875 " clip-rule="nonzero"/></clipPath></defs><g clip-path="url(#id1)"><path fill="#b8f1b0" d="M 231.6875 115.5 C 231.6875 117.390625 231.640625 119.277344 231.546875 121.164062 C 231.453125 123.050781 231.316406 124.933594 231.128906 126.816406 C 230.945312 128.695312 230.714844 130.570312 230.4375 132.4375 C 230.160156 134.308594 229.835938 136.167969 229.46875 138.019531 C 229.097656 139.875 228.683594 141.71875 228.226562 143.550781 C 227.765625 145.382812 227.261719 147.203125 226.714844 149.011719 C 226.167969 150.820312 225.574219 152.613281 224.9375 154.390625 C 224.300781 156.167969 223.621094 157.929688 222.898438 159.675781 C 222.175781 161.421875 221.410156 163.148438 220.601562 164.855469 C 219.792969 166.566406 218.945312 168.25 218.054688 169.917969 C 217.164062 171.585938 216.234375 173.226562 215.261719 174.847656 C 214.289062 176.46875 213.28125 178.0625 212.230469 179.636719 C 211.179688 181.207031 210.09375 182.75 208.96875 184.265625 C 207.84375 185.785156 206.679688 187.273438 205.480469 188.734375 C 204.285156 190.195312 203.050781 191.625 201.78125 193.023438 C 200.511719 194.425781 199.210938 195.792969 197.875 197.128906 C 196.539062 198.464844 195.171875 199.765625 193.769531 201.035156 C 192.371094 202.304688 190.941406 203.539062 189.480469 204.734375 C 188.019531 205.933594 186.53125 207.097656 185.011719 208.222656 C 183.496094 209.347656 181.953125 210.433594 180.378906 211.484375 C 178.808594 212.535156 177.214844 213.542969 175.59375 214.515625 C 173.972656 215.488281 172.328125 216.417969 170.664062 217.308594 C 168.996094 218.199219 167.308594 219.046875 165.601562 219.855469 C 163.894531 220.664062 162.167969 221.429688 160.421875 222.152344 C 158.675781 222.875 156.914062 223.554688 155.136719 224.191406 C 153.359375 224.828125 151.5625 225.421875 149.757812 225.96875 C 147.949219 226.515625 146.128906 227.019531 144.296875 227.480469 C 142.460938 227.9375 140.621094 228.351562 138.765625 228.722656 C 136.914062 229.089844 135.054688 229.414062 133.183594 229.691406 C 131.316406 229.96875 129.441406 230.199219 127.5625 230.382812 C 125.679688 230.570312 123.796875 230.707031 121.910156 230.800781 C 120.023438 230.894531 118.136719 230.941406 116.246094 230.941406 C 114.355469 230.941406 112.46875 230.894531 110.582031 230.800781 C 108.695312 230.707031 106.8125 230.570312 104.929688 230.382812 C 103.050781 230.199219 101.175781 229.96875 99.308594 229.691406 C 97.4375 229.414062 95.578125 229.089844 93.722656 228.722656 C 91.871094 228.351562 90.027344 227.9375 88.195312 227.480469 C 86.363281 227.019531 84.542969 226.515625 82.734375 225.96875 C 80.925781 225.421875 79.132812 224.828125 77.355469 224.191406 C 75.578125 223.554688 73.8125 222.875 72.070312 222.152344 C 70.324219 221.429688 68.597656 220.664062 66.890625 219.855469 C 65.179688 219.046875 63.492188 218.199219 61.828125 217.308594 C 60.160156 216.417969 58.519531 215.488281 56.898438 214.515625 C 55.277344 213.542969 53.679688 212.535156 52.109375 211.484375 C 50.539062 210.433594 48.996094 209.347656 47.476562 208.222656 C 45.960938 207.097656 44.472656 205.933594 43.011719 204.734375 C 41.550781 203.539062 40.121094 202.304688 38.722656 201.035156 C 37.320312 199.765625 35.953125 198.464844 34.617188 197.128906 C 33.28125 195.792969 31.980469 194.425781 30.710938 193.023438 C 29.441406 191.625 28.207031 190.195312 27.007812 188.734375 C 25.8125 187.273438 24.648438 185.785156 23.523438 184.265625 C 22.398438 182.75 21.308594 181.207031 20.261719 179.636719 C 19.210938 178.0625 18.199219 176.46875 17.230469 174.847656 C 16.257812 173.226562 15.328125 171.585938 14.4375 169.917969 C 13.546875 168.25 12.695312 166.566406 11.890625 164.855469 C 11.082031 163.148438 10.316406 161.421875 9.59375 159.675781 C 8.871094 157.929688 8.191406 156.167969 7.554688 154.390625 C 6.917969 152.613281 6.324219 150.816406 5.777344 149.011719 C 5.226562 147.203125 4.722656 145.382812 4.265625 143.550781 C 3.804688 141.71875 3.390625 139.875 3.023438 138.019531 C 2.65625 136.167969 2.332031 134.308594 2.054688 132.4375 C 1.777344 130.570312 1.546875 128.695312 1.363281 126.816406 C 1.175781 124.933594 1.039062 123.050781 0.945312 121.164062 C 0.851562 119.277344 0.804688 117.390625 0.804688 115.5 C 0.804688 113.609375 0.851562 111.722656 0.945312 109.835938 C 1.039062 107.949219 1.175781 106.066406 1.363281 104.183594 C 1.546875 102.304688 1.777344 100.429688 2.054688 98.5625 C 2.332031 96.691406 2.65625 94.832031 3.023438 92.980469 C 3.390625 91.125 3.804688 89.28125 4.265625 87.449219 C 4.722656 85.617188 5.226562 83.796875 5.777344 81.988281 C 6.324219 80.179688 6.917969 78.386719 7.554688 76.609375 C 8.191406 74.832031 8.871094 73.070312 9.59375 71.324219 C 10.316406 69.578125 11.082031 67.851562 11.890625 66.144531 C 12.695312 64.433594 13.546875 62.75 14.4375 61.082031 C 15.328125 59.414062 16.257812 57.773438 17.230469 56.152344 C 18.199219 54.53125 19.210938 52.9375 20.261719 51.363281 C 21.308594 49.792969 22.398438 48.25 23.523438 46.734375 C 24.648438 45.214844 25.8125 43.726562 27.007812 42.265625 C 28.207031 40.804688 29.441406 39.375 30.710938 37.976562 C 31.980469 36.574219 33.28125 35.207031 34.617188 33.871094 C 35.953125 32.535156 37.320312 31.234375 38.722656 29.964844 C 40.121094 28.695312 41.550781 27.460938 43.011719 26.265625 C 44.472656 25.066406 45.960938 23.902344 47.476562 22.777344 C 48.996094 21.652344 50.539062 20.566406 52.109375 19.515625 C 53.679688 18.464844 55.277344 17.457031 56.898438 16.484375 C 58.519531 15.511719 60.160156 14.582031 61.828125 13.691406 C 63.492188 12.800781 65.179688 11.953125 66.890625 11.144531 C 68.597656 10.335938 70.324219 9.570312 72.070312 8.847656 C 73.8125 8.125 75.578125 7.445312 77.355469 6.808594 C 79.132812 6.171875 80.925781 5.578125 82.734375 5.03125 C 84.542969 4.480469 86.363281 3.980469 88.195312 3.519531 C 90.027344 3.0625 91.871094 2.648438 93.722656 2.277344 C 95.578125 1.910156 97.4375 1.585938 99.308594 1.308594 C 101.175781 1.03125 103.050781 0.800781 104.929688 0.617188 C 106.8125 0.429688 108.695312 0.292969 110.582031 0.199219 C 112.46875 0.105469 114.355469 0.0585938 116.246094 0.0585938 C 118.136719 0.0585938 120.023438 0.105469 121.910156 0.199219 C 123.796875 0.292969 125.679688 0.429688 127.5625 0.617188 C 129.441406 0.800781 131.316406 1.03125 133.183594 1.308594 C 135.054688 1.585938 136.914062 1.910156 138.765625 2.277344 C 140.621094 2.648438 142.460938 3.0625 144.296875 3.519531 C 146.128906 3.980469 147.949219 4.480469 149.757812 5.03125 C 151.5625 5.578125 153.359375 6.171875 155.136719 6.808594 C 156.914062 7.445312 158.675781 8.125 160.421875 8.847656 C 162.167969 9.570312 163.894531 10.335938 165.601562 11.144531 C 167.3125 11.953125 168.996094 12.800781 170.664062 13.691406 C 172.328125 14.582031 173.972656 15.511719 175.59375 16.484375 C 177.214844 17.457031 178.808594 18.464844 180.378906 19.515625 C 181.953125 20.566406 183.496094 21.652344 185.011719 22.777344 C 186.53125 23.902344 188.019531 25.066406 189.480469 26.265625 C 190.941406 27.460938 192.371094 28.695312 193.769531 29.964844 C 195.171875 31.234375 196.539062 32.535156 197.875 33.871094 C 199.210938 35.207031 200.511719 36.574219 201.78125 37.976562 C 203.050781 39.375 204.285156 40.804688 205.480469 42.265625 C 206.679688 43.726562 207.84375 45.214844 208.96875 46.734375 C 210.09375 48.25 211.179688 49.792969 212.230469 51.363281 C 213.28125 52.9375 214.289062 54.53125 215.261719 56.152344 C 216.234375 57.773438 217.164062 59.414062 218.054688 61.082031 C 218.945312 62.75 219.792969 64.433594 220.601562 66.144531 C 221.410156 67.851562 222.175781 69.578125 222.898438 71.324219 C 223.621094 73.070312 224.300781 74.832031 224.9375 76.609375 C 225.574219 78.386719 226.167969 80.179688 226.714844 81.988281 C 227.261719 83.796875 227.765625 85.617188 228.226562 87.449219 C 228.683594 89.28125 229.097656 91.125 229.46875 92.980469 C 229.835938 94.832031 230.160156 96.691406 230.4375 98.5625 C 230.714844 100.429688 230.945312 102.304688 231.128906 104.183594 C 231.316406 106.066406 231.453125 107.949219 231.546875 109.835938 C 231.640625 111.722656 231.6875 113.609375 231.6875 115.5 Z M 231.6875 115.5 " fill-opacity="1" fill-rule="nonzero"/></g><g clip-path="url(#id2)"><path fill="#14c38e" d="M 222.546875 115.410156 C 222.546875 117.167969 222.503906 118.917969 222.417969 120.671875 C 222.332031 122.425781 222.203125 124.171875 222.03125 125.917969 C 221.859375 127.664062 221.644531 129.40625 221.386719 131.140625 C 221.128906 132.875 220.828125 134.605469 220.488281 136.324219 C 220.144531 138.046875 219.761719 139.757812 219.332031 141.457031 C 218.90625 143.160156 218.441406 144.851562 217.929688 146.527344 C 217.421875 148.207031 216.871094 149.871094 216.28125 151.523438 C 215.6875 153.175781 215.058594 154.8125 214.386719 156.433594 C 213.714844 158.054688 213.003906 159.65625 212.253906 161.242188 C 211.503906 162.828125 210.714844 164.394531 209.890625 165.941406 C 209.0625 167.488281 208.199219 169.015625 207.296875 170.519531 C 206.394531 172.027344 205.457031 173.507812 204.480469 174.964844 C 203.507812 176.425781 202.496094 177.859375 201.449219 179.265625 C 200.40625 180.675781 199.328125 182.058594 198.214844 183.414062 C 197.101562 184.769531 195.957031 186.097656 194.777344 187.398438 C 193.597656 188.699219 192.390625 189.96875 191.148438 191.210938 C 189.910156 192.449219 188.640625 193.660156 187.339844 194.835938 C 186.039062 196.015625 184.710938 197.160156 183.355469 198.273438 C 182 199.386719 180.617188 200.464844 179.207031 201.511719 C 177.796875 202.554688 176.363281 203.566406 174.90625 204.539062 C 173.445312 205.515625 171.964844 206.453125 170.460938 207.355469 C 168.957031 208.257812 167.429688 209.121094 165.882812 209.949219 C 164.335938 210.777344 162.769531 211.5625 161.183594 212.3125 C 159.597656 213.0625 157.992188 213.773438 156.375 214.445312 C 154.753906 215.117188 153.117188 215.75 151.464844 216.339844 C 149.8125 216.929688 148.148438 217.480469 146.46875 217.992188 C 144.789062 218.5 143.101562 218.96875 141.398438 219.394531 C 139.695312 219.820312 137.984375 220.203125 136.265625 220.546875 C 134.542969 220.890625 132.816406 221.1875 131.082031 221.445312 C 129.34375 221.703125 127.605469 221.917969 125.859375 222.089844 C 124.113281 222.261719 122.363281 222.390625 120.613281 222.476562 C 118.859375 222.5625 117.105469 222.605469 115.351562 222.605469 C 113.597656 222.605469 111.84375 222.5625 110.09375 222.476562 C 108.339844 222.390625 106.589844 222.261719 104.84375 222.089844 C 103.097656 221.917969 101.359375 221.703125 99.625 221.445312 C 97.886719 221.1875 96.160156 220.890625 94.4375 220.546875 C 92.71875 220.203125 91.007812 219.820312 89.304688 219.394531 C 87.605469 218.96875 85.914062 218.5 84.234375 217.992188 C 82.554688 217.480469 80.890625 216.929688 79.238281 216.339844 C 77.585938 215.75 75.953125 215.117188 74.332031 214.445312 C 72.710938 213.773438 71.105469 213.0625 69.519531 212.3125 C 67.933594 211.5625 66.367188 210.777344 64.820312 209.949219 C 63.273438 209.121094 61.746094 208.257812 60.242188 207.355469 C 58.738281 206.453125 57.257812 205.515625 55.796875 204.539062 C 54.339844 203.566406 52.90625 202.554688 51.496094 201.511719 C 50.085938 200.464844 48.703125 199.386719 47.347656 198.273438 C 45.992188 197.160156 44.664062 196.015625 43.363281 194.835938 C 42.066406 193.660156 40.792969 192.449219 39.554688 191.210938 C 38.3125 189.96875 37.105469 188.699219 35.925781 187.398438 C 34.75 186.097656 33.601562 184.769531 32.488281 183.414062 C 31.375 182.058594 30.296875 180.675781 29.253906 179.265625 C 28.207031 177.859375 27.199219 176.425781 26.222656 174.964844 C 25.25 173.507812 24.308594 172.027344 23.410156 170.519531 C 22.507812 169.015625 21.640625 167.488281 20.816406 165.941406 C 19.988281 164.394531 19.199219 162.828125 18.449219 161.242188 C 17.699219 159.65625 16.988281 158.054688 16.316406 156.433594 C 15.644531 154.8125 15.015625 153.175781 14.421875 151.523438 C 13.832031 149.871094 13.28125 148.207031 12.773438 146.527344 C 12.265625 144.851562 11.796875 143.160156 11.371094 141.457031 C 10.945312 139.757812 10.558594 138.046875 10.21875 136.324219 C 9.875 134.605469 9.574219 132.875 9.316406 131.140625 C 9.058594 129.40625 8.847656 127.664062 8.671875 125.917969 C 8.5 124.171875 8.371094 122.425781 8.285156 120.671875 C 8.199219 118.917969 8.15625 117.167969 8.15625 115.410156 C 8.15625 113.65625 8.199219 111.90625 8.285156 110.152344 C 8.371094 108.398438 8.5 106.652344 8.671875 104.90625 C 8.847656 103.160156 9.058594 101.417969 9.316406 99.683594 C 9.574219 97.949219 9.875 96.21875 10.21875 94.5 C 10.558594 92.777344 10.945312 91.066406 11.371094 89.367188 C 11.796875 87.664062 12.265625 85.972656 12.773438 84.296875 C 13.28125 82.617188 13.832031 80.949219 14.421875 79.300781 C 15.015625 77.648438 15.644531 76.011719 16.316406 74.390625 C 16.988281 72.769531 17.699219 71.167969 18.449219 69.582031 C 19.199219 67.996094 19.988281 66.429688 20.816406 64.882812 C 21.640625 63.332031 22.507812 61.808594 23.410156 60.304688 C 24.308594 58.796875 25.25 57.316406 26.222656 55.859375 C 27.199219 54.398438 28.207031 52.964844 29.253906 51.554688 C 30.296875 50.148438 31.375 48.765625 32.488281 47.410156 C 33.601562 46.050781 34.75 44.722656 35.925781 43.425781 C 37.105469 42.125 38.3125 40.855469 39.554688 39.613281 C 40.792969 38.375 42.066406 37.164062 43.363281 35.984375 C 44.664062 34.808594 45.992188 33.664062 47.347656 32.550781 C 48.703125 31.4375 50.085938 30.359375 51.496094 29.3125 C 52.90625 28.269531 54.339844 27.257812 55.796875 26.28125 C 57.257812 25.308594 58.738281 24.371094 60.242188 23.46875 C 61.746094 22.566406 63.273438 21.703125 64.820312 20.875 C 66.367188 20.046875 67.933594 19.257812 69.519531 18.507812 C 71.105469 17.757812 72.710938 17.046875 74.332031 16.378906 C 75.953125 15.707031 77.585938 15.074219 79.238281 14.484375 C 80.890625 13.894531 82.554688 13.34375 84.234375 12.832031 C 85.914062 12.324219 87.605469 11.855469 89.304688 11.429688 C 91.007812 11.003906 92.71875 10.621094 94.4375 10.277344 C 96.160156 9.933594 97.886719 9.636719 99.625 9.378906 C 101.359375 9.121094 103.097656 8.90625 104.84375 8.734375 C 106.589844 8.5625 108.339844 8.433594 110.09375 8.347656 C 111.84375 8.261719 113.597656 8.21875 115.351562 8.21875 C 117.105469 8.21875 118.859375 8.261719 120.613281 8.347656 C 122.363281 8.433594 124.113281 8.5625 125.859375 8.734375 C 127.605469 8.90625 129.34375 9.121094 131.082031 9.378906 C 132.816406 9.636719 134.542969 9.933594 136.265625 10.277344 C 137.984375 10.621094 139.695312 11.003906 141.398438 11.429688 C 143.101562 11.855469 144.789062 12.324219 146.46875 12.832031 C 148.148438 13.34375 149.8125 13.894531 151.464844 14.484375 C 153.117188 15.074219 154.753906 15.707031 156.375 16.378906 C 157.996094 17.046875 159.597656 17.757812 161.183594 18.507812 C 162.769531 19.257812 164.335938 20.046875 165.882812 20.875 C 167.429688 21.703125 168.957031 22.566406 170.460938 23.46875 C 171.964844 24.371094 173.445312 25.308594 174.90625 26.28125 C 176.363281 27.257812 177.796875 28.269531 179.207031 29.3125 C 180.617188 30.359375 182 31.4375 183.355469 32.550781 C 184.710938 33.664062 186.039062 34.808594 187.339844 35.984375 C 188.640625 37.164062 189.910156 38.375 191.148438 39.613281 C 192.390625 40.855469 193.597656 42.125 194.777344 43.425781 C 195.957031 44.722656 197.101562 46.050781 198.214844 47.410156 C 199.328125 48.765625 200.40625 50.148438 201.449219 51.554688 C 202.496094 52.964844 203.507812 54.398438 204.480469 55.859375 C 205.457031 57.316406 206.394531 58.796875 207.296875 60.304688 C 208.199219 61.808594 209.0625 63.332031 209.890625 64.882812 C 210.714844 66.429688 211.503906 67.996094 212.253906 69.582031 C 213.003906 71.167969 213.714844 72.769531 214.386719 74.390625 C 215.058594 76.011719 215.6875 77.648438 216.28125 79.300781 C 216.871094 80.949219 217.421875 82.617188 217.929688 84.296875 C 218.441406 85.972656 218.90625 87.664062 219.332031 89.367188 C 219.761719 91.066406 220.144531 92.777344 220.488281 94.5 C 220.828125 96.21875 221.128906 97.949219 221.386719 99.683594 C 221.644531 101.417969 221.859375 103.160156 222.03125 104.90625 C 222.203125 106.652344 222.332031 108.398438 222.417969 110.152344 C 222.503906 111.90625 222.546875 113.65625 222.546875 115.410156 Z M 222.546875 115.410156 " fill-opacity="1" fill-rule="nonzero"/></g><g fill="#d32f23" fill-opacity="0.4196"><g transform="translate(24.694673, 169.841062)"><g><path d="M 65.203125 -78.1875 C 65.109375 -77.53125 64.847656 -77.007812 64.421875 -76.625 C 63.992188 -76.25 63.453125 -76.0625 62.796875 -76.0625 L 36.546875 -76.0625 C 36.078125 -76.0625 35.84375 -75.828125 35.84375 -75.359375 L 34.15625 -61.53125 C 33.96875 -61.0625 34.15625 -60.828125 34.71875 -60.828125 L 48.40625 -60.828125 C 49.0625 -60.828125 49.550781 -60.640625 49.875 -60.265625 C 50.207031 -59.890625 50.328125 -59.367188 50.234375 -58.703125 L 47.984375 -40.21875 C 47.703125 -38.8125 46.898438 -38.109375 45.578125 -38.109375 L 31.890625 -38.109375 C 31.421875 -38.109375 31.1875 -37.867188 31.1875 -37.390625 L 29.5 -23.421875 C 29.3125 -22.953125 29.5 -22.71875 30.0625 -22.71875 L 56.3125 -22.71875 C 56.96875 -22.71875 57.457031 -22.53125 57.78125 -22.15625 C 58.113281 -21.78125 58.234375 -21.265625 58.140625 -20.609375 L 55.890625 -2.109375 C 55.796875 -1.453125 55.535156 -0.9375 55.109375 -0.5625 C 54.679688 -0.1875 54.140625 0 53.484375 0 L 2.828125 0 C 2.253906 0 1.800781 -0.1875 1.46875 -0.5625 C 1.144531 -0.9375 1.03125 -1.453125 1.125 -2.109375 L 12.703125 -96.671875 C 12.796875 -97.328125 13.050781 -97.84375 13.46875 -98.21875 C 13.894531 -98.59375 14.390625 -98.78125 14.953125 -98.78125 L 65.625 -98.78125 C 66.28125 -98.78125 66.769531 -98.59375 67.09375 -98.21875 C 67.425781 -97.84375 67.546875 -97.328125 67.453125 -96.671875 Z M 65.203125 -78.1875 "/></g></g></g><g fill="#d32f23" fill-opacity="0.4196"><g transform="translate(85.514886, 169.841062)"><g><path d="M 29.359375 1.125 C 21.265625 1.125 14.863281 -0.96875 10.15625 -5.15625 C 5.457031 -9.34375 3.109375 -14.914062 3.109375 -21.875 C 3.109375 -22.53125 3.203125 -23.707031 3.390625 -25.40625 L 3.953125 -29.78125 C 4.046875 -30.4375 4.300781 -30.953125 4.71875 -31.328125 C 5.144531 -31.703125 5.640625 -31.890625 6.203125 -31.890625 L 27.65625 -31.890625 C 28.21875 -31.890625 28.664062 -31.703125 29 -31.328125 C 29.332031 -30.953125 29.453125 -30.4375 29.359375 -29.78125 L 29.078125 -26.671875 C 28.890625 -25.171875 29.078125 -23.945312 29.640625 -23 C 30.203125 -22.0625 31.046875 -21.59375 32.171875 -21.59375 C 33.398438 -21.59375 34.4375 -22.109375 35.28125 -23.140625 C 36.125 -24.179688 36.546875 -25.453125 36.546875 -26.953125 C 36.546875 -28.367188 35.863281 -29.828125 34.5 -31.328125 C 33.132812 -32.835938 30.523438 -35.144531 26.671875 -38.25 C 22.910156 -41.351562 19.804688 -44.101562 17.359375 -46.5 C 14.910156 -48.894531 12.789062 -51.859375 11 -55.390625 C 9.21875 -58.921875 8.328125 -62.941406 8.328125 -67.453125 C 8.328125 -68.304688 8.421875 -69.765625 8.609375 -71.828125 C 9.640625 -80.203125 13.117188 -86.976562 19.046875 -92.15625 C 24.972656 -97.332031 32.359375 -99.921875 41.203125 -99.921875 C 49.296875 -99.921875 55.671875 -97.753906 60.328125 -93.421875 C 64.984375 -89.097656 67.3125 -83.265625 67.3125 -75.921875 C 67.3125 -75.078125 67.21875 -73.710938 67.03125 -71.828125 L 66.609375 -68.734375 C 66.515625 -68.066406 66.253906 -67.546875 65.828125 -67.171875 C 65.410156 -66.796875 64.921875 -66.609375 64.359375 -66.609375 L 43.046875 -66.609375 C 42.484375 -66.609375 42.035156 -66.796875 41.703125 -67.171875 C 41.367188 -67.546875 41.25 -68.066406 41.34375 -68.734375 L 41.765625 -72.390625 C 41.867188 -73.804688 41.613281 -74.960938 41 -75.859375 C 40.382812 -76.753906 39.515625 -77.203125 38.390625 -77.203125 C 37.066406 -77.203125 35.984375 -76.632812 35.140625 -75.5 C 34.296875 -74.375 33.875 -72.867188 33.875 -70.984375 C 33.875 -69.390625 34.53125 -67.742188 35.84375 -66.046875 C 37.164062 -64.347656 39.613281 -61.992188 43.1875 -58.984375 C 47.976562 -54.941406 51.644531 -51.671875 54.1875 -49.171875 C 56.726562 -46.679688 58.726562 -43.953125 60.1875 -40.984375 C 61.644531 -38.023438 62.375 -34.664062 62.375 -30.90625 C 62.375 -30.15625 62.28125 -28.835938 62.09375 -26.953125 C 60.96875 -18.390625 57.414062 -11.566406 51.4375 -6.484375 C 45.46875 -1.410156 38.109375 1.125 29.359375 1.125 Z M 29.359375 1.125 "/></g></g></g><g fill="#d32f23" fill-opacity="0.4196"><g transform="translate(148.875157, 169.841062)"><g><path d="M 45.578125 -98.78125 C 53.109375 -98.78125 59.0625 -96.359375 63.4375 -91.515625 C 67.8125 -86.671875 70 -80.25 70 -72.25 C 70 -70 69.90625 -68.257812 69.71875 -67.03125 C 68.96875 -61.007812 67.203125 -55.691406 64.421875 -51.078125 C 61.648438 -46.472656 58.078125 -42.921875 53.703125 -40.421875 C 49.328125 -37.929688 44.503906 -36.6875 39.234375 -36.6875 L 31.46875 -36.6875 C 31 -36.6875 30.765625 -36.453125 30.765625 -35.984375 L 26.53125 -2.109375 C 26.4375 -1.453125 26.175781 -0.9375 25.75 -0.5625 C 25.332031 -0.1875 24.84375 0 24.28125 0 L 2.546875 0 C 1.972656 0 1.519531 -0.1875 1.1875 -0.5625 C 0.863281 -0.9375 0.75 -1.453125 0.84375 -2.109375 L 12.421875 -96.671875 C 12.515625 -97.328125 12.769531 -97.84375 13.1875 -98.21875 C 13.613281 -98.59375 14.109375 -98.78125 14.671875 -98.78125 Z M 35.84375 -57.15625 C 37.914062 -57.15625 39.679688 -57.929688 41.140625 -59.484375 C 42.597656 -61.035156 43.515625 -63.363281 43.890625 -66.46875 C 43.984375 -67.03125 44.03125 -67.832031 44.03125 -68.875 C 44.03125 -71.21875 43.507812 -73 42.46875 -74.21875 C 41.4375 -75.445312 40.03125 -76.0625 38.25 -76.0625 L 36.265625 -76.0625 C 35.796875 -76.0625 35.5625 -75.828125 35.5625 -75.359375 L 33.453125 -57.859375 C 33.265625 -57.390625 33.453125 -57.15625 34.015625 -57.15625 Z M 35.84375 -57.15625 "/></g></g></g><g fill="#e3fcbf" fill-opacity="1"><g transform="translate(20.499565, 166.063769)"><g><path d="M 65.203125 -78.1875 C 65.109375 -77.53125 64.847656 -77.007812 64.421875 -76.625 C 63.992188 -76.25 63.453125 -76.0625 62.796875 -76.0625 L 36.546875 -76.0625 C 36.078125 -76.0625 35.84375 -75.828125 35.84375 -75.359375 L 34.15625 -61.53125 C 33.96875 -61.0625 34.15625 -60.828125 34.71875 -60.828125 L 48.40625 -60.828125 C 49.0625 -60.828125 49.550781 -60.640625 49.875 -60.265625 C 50.207031 -59.890625 50.328125 -59.367188 50.234375 -58.703125 L 47.984375 -40.21875 C 47.703125 -38.8125 46.898438 -38.109375 45.578125 -38.109375 L 31.890625 -38.109375 C 31.421875 -38.109375 31.1875 -37.867188 31.1875 -37.390625 L 29.5 -23.421875 C 29.3125 -22.953125 29.5 -22.71875 30.0625 -22.71875 L 56.3125 -22.71875 C 56.96875 -22.71875 57.457031 -22.53125 57.78125 -22.15625 C 58.113281 -21.78125 58.234375 -21.265625 58.140625 -20.609375 L 55.890625 -2.109375 C 55.796875 -1.453125 55.535156 -0.9375 55.109375 -0.5625 C 54.679688 -0.1875 54.140625 0 53.484375 0 L 2.828125 0 C 2.253906 0 1.800781 -0.1875 1.46875 -0.5625 C 1.144531 -0.9375 1.03125 -1.453125 1.125 -2.109375 L 12.703125 -96.671875 C 12.796875 -97.328125 13.050781 -97.84375 13.46875 -98.21875 C 13.894531 -98.59375 14.390625 -98.78125 14.953125 -98.78125 L 65.625 -98.78125 C 66.28125 -98.78125 66.769531 -98.59375 67.09375 -98.21875 C 67.425781 -97.84375 67.546875 -97.328125 67.453125 -96.671875 Z M 65.203125 -78.1875 "/></g></g></g><g fill="#e3fcbf" fill-opacity="1"><g transform="translate(81.319778, 166.063769)"><g><path d="M 29.359375 1.125 C 21.265625 1.125 14.863281 -0.96875 10.15625 -5.15625 C 5.457031 -9.34375 3.109375 -14.914062 3.109375 -21.875 C 3.109375 -22.53125 3.203125 -23.707031 3.390625 -25.40625 L 3.953125 -29.78125 C 4.046875 -30.4375 4.300781 -30.953125 4.71875 -31.328125 C 5.144531 -31.703125 5.640625 -31.890625 6.203125 -31.890625 L 27.65625 -31.890625 C 28.21875 -31.890625 28.664062 -31.703125 29 -31.328125 C 29.332031 -30.953125 29.453125 -30.4375 29.359375 -29.78125 L 29.078125 -26.671875 C 28.890625 -25.171875 29.078125 -23.945312 29.640625 -23 C 30.203125 -22.0625 31.046875 -21.59375 32.171875 -21.59375 C 33.398438 -21.59375 34.4375 -22.109375 35.28125 -23.140625 C 36.125 -24.179688 36.546875 -25.453125 36.546875 -26.953125 C 36.546875 -28.367188 35.863281 -29.828125 34.5 -31.328125 C 33.132812 -32.835938 30.523438 -35.144531 26.671875 -38.25 C 22.910156 -41.351562 19.804688 -44.101562 17.359375 -46.5 C 14.910156 -48.894531 12.789062 -51.859375 11 -55.390625 C 9.21875 -58.921875 8.328125 -62.941406 8.328125 -67.453125 C 8.328125 -68.304688 8.421875 -69.765625 8.609375 -71.828125 C 9.640625 -80.203125 13.117188 -86.976562 19.046875 -92.15625 C 24.972656 -97.332031 32.359375 -99.921875 41.203125 -99.921875 C 49.296875 -99.921875 55.671875 -97.753906 60.328125 -93.421875 C 64.984375 -89.097656 67.3125 -83.265625 67.3125 -75.921875 C 67.3125 -75.078125 67.21875 -73.710938 67.03125 -71.828125 L 66.609375 -68.734375 C 66.515625 -68.066406 66.253906 -67.546875 65.828125 -67.171875 C 65.410156 -66.796875 64.921875 -66.609375 64.359375 -66.609375 L 43.046875 -66.609375 C 42.484375 -66.609375 42.035156 -66.796875 41.703125 -67.171875 C 41.367188 -67.546875 41.25 -68.066406 41.34375 -68.734375 L 41.765625 -72.390625 C 41.867188 -73.804688 41.613281 -74.960938 41 -75.859375 C 40.382812 -76.753906 39.515625 -77.203125 38.390625 -77.203125 C 37.066406 -77.203125 35.984375 -76.632812 35.140625 -75.5 C 34.296875 -74.375 33.875 -72.867188 33.875 -70.984375 C 33.875 -69.390625 34.53125 -67.742188 35.84375 -66.046875 C 37.164062 -64.347656 39.613281 -61.992188 43.1875 -58.984375 C 47.976562 -54.941406 51.644531 -51.671875 54.1875 -49.171875 C 56.726562 -46.679688 58.726562 -43.953125 60.1875 -40.984375 C 61.644531 -38.023438 62.375 -34.664062 62.375 -30.90625 C 62.375 -30.15625 62.28125 -28.835938 62.09375 -26.953125 C 60.96875 -18.390625 57.414062 -11.566406 51.4375 -6.484375 C 45.46875 -1.410156 38.109375 1.125 29.359375 1.125 Z M 29.359375 1.125 "/></g></g></g><g fill="#e3fcbf" fill-opacity="1"><g transform="translate(144.680049, 166.063769)"><g><path d="M 45.578125 -98.78125 C 53.109375 -98.78125 59.0625 -96.359375 63.4375 -91.515625 C 67.8125 -86.671875 70 -80.25 70 -72.25 C 70 -70 69.90625 -68.257812 69.71875 -67.03125 C 68.96875 -61.007812 67.203125 -55.691406 64.421875 -51.078125 C 61.648438 -46.472656 58.078125 -42.921875 53.703125 -40.421875 C 49.328125 -37.929688 44.503906 -36.6875 39.234375 -36.6875 L 31.46875 -36.6875 C 31 -36.6875 30.765625 -36.453125 30.765625 -35.984375 L 26.53125 -2.109375 C 26.4375 -1.453125 26.175781 -0.9375 25.75 -0.5625 C 25.332031 -0.1875 24.84375 0 24.28125 0 L 2.546875 0 C 1.972656 0 1.519531 -0.1875 1.1875 -0.5625 C 0.863281 -0.9375 0.75 -1.453125 0.84375 -2.109375 L 12.421875 -96.671875 C 12.515625 -97.328125 12.769531 -97.84375 13.1875 -98.21875 C 13.613281 -98.59375 14.109375 -98.78125 14.671875 -98.78125 Z M 35.84375 -57.15625 C 37.914062 -57.15625 39.679688 -57.929688 41.140625 -59.484375 C 42.597656 -61.035156 43.515625 -63.363281 43.890625 -66.46875 C 43.984375 -67.03125 44.03125 -67.832031 44.03125 -68.875 C 44.03125 -71.21875 43.507812 -73 42.46875 -74.21875 C 41.4375 -75.445312 40.03125 -76.0625 38.25 -76.0625 L 36.265625 -76.0625 C 35.796875 -76.0625 35.5625 -75.828125 35.5625 -75.359375 L 33.453125 -57.859375 C 33.265625 -57.390625 33.453125 -57.15625 34.015625 -57.15625 Z M 35.84375 -57.15625 "/></g></g></g></svg>