<svg xmlns="http://www.w3.org/2000/svg" xmlns:xlink="http://www.w3.org/1999/xlink" width="450" zoomAndPan="magnify" viewBox="0 0 337.5 337.500003" height="450" preserveAspectRatio="xMidYMid meet" version="1.0"><defs><g/><clipPath id="id1"><path d="M 0 0 L 337 0 L 337 337 L 0 337 Z M 0 0 " clip-rule="nonzero"/></clipPath><clipPath id="id2"><path d="M 0 0 L 337 0 L 337 337 L 0 337 Z M 0 0 " clip-rule="nonzero"/></clipPath><clipPath id="id3"><path d="M 168.75 0 C 75.550781 0 0 75.550781 0 168.75 C 0 261.949219 75.550781 337.5 168.75 337.5 C 261.949219 337.5 337.5 261.949219 337.5 168.75 C 337.5 75.550781 261.949219 0 168.75 0 " clip-rule="nonzero"/></clipPath></defs><g clip-path="url(#id1)"><path fill="#14c38e" d="M 168.75 0 C 75.550781 0 0 75.550781 0 168.75 C 0 261.949219 75.550781 337.5 168.75 337.5 C 261.949219 337.5 337.5 261.949219 337.5 168.75 C 337.5 75.550781 261.949219 0 168.75 0 " fill-opacity="1" fill-rule="nonzero"/></g><g clip-path="url(#id2)"><g clip-path="url(#id3)"><path stroke-linecap="butt" transform="matrix(0.75, 0, 0, 0.75, 0, 0.0000114852)" fill="none" stroke-linejoin="miter" d="M 225.000012 -0.0000153136 C 100.73438 -0.0000153136 0 100.734365 0 224.999996 C 0 349.265628 100.73438 450.000008 225.000012 450.000008 C 349.265643 450.000008 450.000023 349.265628 450.000023 224.999996 C 450.000023 100.734365 349.265643 -0.0000153136 225.000012 -0.0000153136 " stroke="#b8f1b0" stroke-width="32" stroke-opacity="1" stroke-miterlimit="4"/></g></g><g fill="#d32f23" fill-opacity="0.4196"><g transform="translate(87.704813, 253.360711)"><g><path d="M 104.59375 -153.828125 C 105.625 -153.828125 106.394531 -153.53125 106.90625 -152.9375 C 107.414062 -152.351562 107.597656 -151.550781 107.453125 -150.53125 L 103.71875 -121.078125 C 103.425781 -119.316406 102.769531 -117.925781 101.75 -116.90625 L 76.6875 -92.953125 C 76.25 -92.660156 76.066406 -92.367188 76.140625 -92.078125 C 76.210938 -91.785156 76.46875 -91.640625 76.90625 -91.640625 C 82.769531 -91.191406 87.53125 -88.550781 91.1875 -83.71875 C 94.851562 -78.882812 96.6875 -72.953125 96.6875 -65.921875 C 96.6875 -64.753906 96.539062 -63 96.25 -60.65625 L 93.609375 -37.796875 C 92.734375 -30.179688 90.023438 -23.367188 85.484375 -17.359375 C 80.941406 -11.347656 75.117188 -6.65625 68.015625 -3.28125 C 60.910156 0.0820312 53.109375 1.765625 44.609375 1.765625 C 32.160156 1.765625 22.125 -1.421875 14.5 -7.796875 C 6.882812 -14.171875 3.078125 -22.488281 3.078125 -32.75 C 3.078125 -34.9375 3.148438 -36.617188 3.296875 -37.796875 L 4.609375 -47.6875 C 4.753906 -48.707031 5.117188 -49.507812 5.703125 -50.09375 C 6.296875 -50.6875 7.101562 -50.984375 8.125 -50.984375 L 41.75 -50.984375 C 42.78125 -50.984375 43.550781 -50.6875 44.0625 -50.09375 C 44.570312 -49.507812 44.753906 -48.707031 44.609375 -47.6875 L 43.953125 -41.75 C 43.660156 -39.40625 43.953125 -37.460938 44.828125 -35.921875 C 45.703125 -34.390625 47.019531 -33.625 48.78125 -33.625 C 50.6875 -33.625 52.296875 -34.351562 53.609375 -35.8125 C 54.929688 -37.28125 55.738281 -39.257812 56.03125 -41.75 L 59.109375 -66.578125 C 59.398438 -68.921875 59.070312 -70.863281 58.125 -72.40625 C 57.175781 -73.945312 55.75 -74.71875 53.84375 -74.71875 C 51.5 -74.71875 48.859375 -73.472656 45.921875 -70.984375 C 44.898438 -70.242188 44.097656 -69.875 43.515625 -69.875 C 42.921875 -69.875 42.257812 -70.242188 41.53125 -70.984375 L 26.8125 -89.21875 C 26.375 -89.945312 26.15625 -90.609375 26.15625 -91.203125 C 26.15625 -92.367188 26.59375 -93.242188 27.46875 -93.828125 L 54.28125 -117.34375 C 54.570312 -117.632812 54.679688 -117.925781 54.609375 -118.21875 C 54.535156 -118.519531 54.28125 -118.671875 53.84375 -118.671875 L 20 -118.671875 C 18.96875 -118.671875 18.195312 -118.960938 17.6875 -119.546875 C 17.175781 -120.128906 16.992188 -120.9375 17.140625 -121.96875 L 20.65625 -150.53125 C 20.800781 -151.550781 21.164062 -152.351562 21.75 -152.9375 C 22.34375 -153.53125 23.148438 -153.828125 24.171875 -153.828125 Z M 104.59375 -153.828125 "/></g></g></g><g fill="#d32f23" fill-opacity="0.4196"><g transform="translate(184.391356, 253.360711)"><g><path d="M 32.96875 -153.171875 C 34.28125 -153.609375 35.523438 -153.828125 36.703125 -153.828125 L 71.859375 -153.828125 C 72.734375 -153.828125 73.425781 -153.53125 73.9375 -152.9375 C 74.457031 -152.351562 74.644531 -151.550781 74.5 -150.53125 L 56.46875 -3.296875 C 56.320312 -2.273438 55.921875 -1.46875 55.265625 -0.875 C 54.609375 -0.289062 53.835938 0 52.953125 0 L 19.125 0 C 18.238281 0 17.539062 -0.289062 17.03125 -0.875 C 16.519531 -1.46875 16.335938 -2.273438 16.484375 -3.296875 L 30.109375 -115.15625 C 30.109375 -115.882812 29.816406 -116.25 29.234375 -116.25 L 14.9375 -116.25 C 13.914062 -116.25 13.144531 -116.539062 12.625 -117.125 C 12.113281 -117.707031 11.9375 -118.515625 12.09375 -119.546875 L 15.15625 -145.03125 C 15.457031 -146.789062 16.484375 -148.035156 18.234375 -148.765625 Z M 32.96875 -153.171875 "/></g></g></g><g fill="#e3fcbf" fill-opacity="1"><g transform="translate(81.17266, 247.479133)"><g><path d="M 104.59375 -153.828125 C 105.625 -153.828125 106.394531 -153.53125 106.90625 -152.9375 C 107.414062 -152.351562 107.597656 -151.550781 107.453125 -150.53125 L 103.71875 -121.078125 C 103.425781 -119.316406 102.769531 -117.925781 101.75 -116.90625 L 76.6875 -92.953125 C 76.25 -92.660156 76.066406 -92.367188 76.140625 -92.078125 C 76.210938 -91.785156 76.46875 -91.640625 76.90625 -91.640625 C 82.769531 -91.191406 87.53125 -88.550781 91.1875 -83.71875 C 94.851562 -78.882812 96.6875 -72.953125 96.6875 -65.921875 C 96.6875 -64.753906 96.539062 -63 96.25 -60.65625 L 93.609375 -37.796875 C 92.734375 -30.179688 90.023438 -23.367188 85.484375 -17.359375 C 80.941406 -11.347656 75.117188 -6.65625 68.015625 -3.28125 C 60.910156 0.0820312 53.109375 1.765625 44.609375 1.765625 C 32.160156 1.765625 22.125 -1.421875 14.5 -7.796875 C 6.882812 -14.171875 3.078125 -22.488281 3.078125 -32.75 C 3.078125 -34.9375 3.148438 -36.617188 3.296875 -37.796875 L 4.609375 -47.6875 C 4.753906 -48.707031 5.117188 -49.507812 5.703125 -50.09375 C 6.296875 -50.6875 7.101562 -50.984375 8.125 -50.984375 L 41.75 -50.984375 C 42.78125 -50.984375 43.550781 -50.6875 44.0625 -50.09375 C 44.570312 -49.507812 44.753906 -48.707031 44.609375 -47.6875 L 43.953125 -41.75 C 43.660156 -39.40625 43.953125 -37.460938 44.828125 -35.921875 C 45.703125 -34.390625 47.019531 -33.625 48.78125 -33.625 C 50.6875 -33.625 52.296875 -34.351562 53.609375 -35.8125 C 54.929688 -37.28125 55.738281 -39.257812 56.03125 -41.75 L 59.109375 -66.578125 C 59.398438 -68.921875 59.070312 -70.863281 58.125 -72.40625 C 57.175781 -73.945312 55.75 -74.71875 53.84375 -74.71875 C 51.5 -74.71875 48.859375 -73.472656 45.921875 -70.984375 C 44.898438 -70.242188 44.097656 -69.875 43.515625 -69.875 C 42.921875 -69.875 42.257812 -70.242188 41.53125 -70.984375 L 26.8125 -89.21875 C 26.375 -89.945312 26.15625 -90.609375 26.15625 -91.203125 C 26.15625 -92.367188 26.59375 -93.242188 27.46875 -93.828125 L 54.28125 -117.34375 C 54.570312 -117.632812 54.679688 -117.925781 54.609375 -118.21875 C 54.535156 -118.519531 54.28125 -118.671875 53.84375 -118.671875 L 20 -118.671875 C 18.96875 -118.671875 18.195312 -118.960938 17.6875 -119.546875 C 17.175781 -120.128906 16.992188 -120.9375 17.140625 -121.96875 L 20.65625 -150.53125 C 20.800781 -151.550781 21.164062 -152.351562 21.75 -152.9375 C 22.34375 -153.53125 23.148438 -153.828125 24.171875 -153.828125 Z M 104.59375 -153.828125 "/></g></g></g><g fill="#e3fcbf" fill-opacity="1"><g transform="translate(177.859202, 247.479133)"><g><path d="M 32.96875 -153.171875 C 34.28125 -153.609375 35.523438 -153.828125 36.703125 -153.828125 L 71.859375 -153.828125 C 72.734375 -153.828125 73.425781 -153.53125 73.9375 -152.9375 C 74.457031 -152.351562 74.644531 -151.550781 74.5 -150.53125 L 56.46875 -3.296875 C 56.320312 -2.273438 55.921875 -1.46875 55.265625 -0.875 C 54.609375 -0.289062 53.835938 0 52.953125 0 L 19.125 0 C 18.238281 0 17.539062 -0.289062 17.03125 -0.875 C 16.519531 -1.46875 16.335938 -2.273438 16.484375 -3.296875 L 30.109375 -115.15625 C 30.109375 -115.882812 29.816406 -116.25 29.234375 -116.25 L 14.9375 -116.25 C 13.914062 -116.25 13.144531 -116.539062 12.625 -117.125 C 12.113281 -117.707031 11.9375 -118.515625 12.09375 -119.546875 L 15.15625 -145.03125 C 15.457031 -146.789062 16.484375 -148.035156 18.234375 -148.765625 Z M 32.96875 -153.171875 "/></g></g></g></svg>