<svg xmlns="http://www.w3.org/2000/svg" xmlns:xlink="http://www.w3.org/1999/xlink" width="1000" zoomAndPan="magnify" viewBox="0 0 750 749.999995" height="1000" preserveAspectRatio="xMidYMid meet" version="1.0"><path fill="#000000" d="M 694.734375 0 L 55.265625 0 C 24.734375 0 0 24.734375 0 55.265625 L 0 694.734375 C 0 725.265625 24.734375 750 55.265625 750 L 694.734375 750 C 725.265625 750 750 725.265625 750 694.734375 L 750 55.265625 C 750 24.734375 725.265625 0 694.734375 0 Z M 549.679688 234.65625 C 549.679688 249.246094 537.8125 261.113281 523.222656 261.113281 L 226.957031 261.113281 C 212.371094 261.113281 200.5 249.246094 200.5 234.65625 L 200.5 111.078125 C 200.5 96.492188 212.371094 84.621094 226.957031 84.621094 L 523.222656 84.621094 C 537.8125 84.621094 549.679688 96.492188 549.679688 111.078125 Z M 361.863281 136.175781 L 361.863281 168.246094 L 357.242188 172.867188 L 352.621094 168.246094 L 352.53125 136.175781 L 320.546875 136.175781 L 320.546875 168.246094 L 315.929688 172.867188 L 311.308594 168.246094 L 311.308594 136.175781 L 320.457031 127.023438 L 352.621094 127.023438 Z M 352.621094 177.578125 L 357.242188 172.957031 L 361.863281 177.578125 L 361.863281 209.652344 L 352.621094 218.894531 L 320.457031 218.894531 L 311.214844 209.652344 L 311.214844 177.578125 L 315.835938 172.957031 L 320.457031 177.578125 L 320.457031 209.652344 L 352.621094 209.652344 Z M 293.910156 136.175781 L 293.910156 168.246094 L 289.289062 172.867188 L 284.671875 168.246094 L 284.671875 136.175781 L 252.507812 136.175781 L 252.507812 168.246094 L 247.886719 172.867188 L 243.265625 168.246094 L 243.265625 136.175781 L 252.417969 127.023438 L 284.578125 127.023438 Z M 284.671875 177.578125 L 289.289062 172.957031 L 293.910156 177.578125 L 293.910156 209.652344 L 289.289062 214.273438 L 284.671875 218.894531 L 252.507812 218.894531 L 243.265625 209.652344 L 243.265625 177.578125 L 247.886719 172.957031 L 252.507812 177.578125 L 252.507812 209.652344 L 284.671875 209.652344 Z M 440.234375 168.246094 L 435.613281 172.867188 L 430.992188 168.246094 L 430.992188 136.175781 L 398.828125 136.175781 L 398.828125 168.246094 L 394.207031 172.867188 L 389.585938 168.246094 L 389.585938 136.175781 L 398.375 127.023438 L 430.449219 127.023438 L 440.140625 136.175781 L 440.140625 168.246094 Z M 431.082031 177.578125 L 435.703125 172.957031 L 440.324219 177.578125 L 440.324219 209.652344 L 431.082031 218.894531 L 399.007812 218.894531 L 394.390625 214.273438 L 389.769531 209.652344 L 389.769531 177.578125 L 394.390625 172.957031 L 399.007812 177.578125 L 399.007812 209.652344 L 431.082031 209.652344 Z M 506.734375 168.246094 L 502.113281 172.867188 L 497.492188 168.246094 L 497.492188 136.175781 L 465.328125 136.175781 L 465.328125 168.246094 L 460.710938 172.867188 L 456.089844 168.246094 L 456.089844 136.175781 L 464.875 127.023438 L 496.949219 127.023438 L 506.644531 136.175781 L 506.644531 168.246094 Z M 497.492188 177.578125 L 502.113281 172.957031 L 506.734375 177.578125 L 506.734375 209.652344 L 497.492188 218.894531 L 465.421875 218.894531 L 456.179688 209.652344 L 456.179688 177.578125 L 460.800781 172.957031 L 465.421875 177.578125 L 465.421875 209.652344 L 497.492188 209.652344 Z M 371.011719 209.5625 L 380.34375 209.5625 L 380.34375 218.894531 L 371.011719 218.894531 Z M 371.011719 209.5625 " fill-opacity="1" fill-rule="nonzero"/></svg>