<svg xmlns="http://www.w3.org/2000/svg" xmlns:xlink="http://www.w3.org/1999/xlink" width="1000" zoomAndPan="magnify" viewBox="0 0 750 749.999995" height="1000" preserveAspectRatio="xMidYMid meet" version="1.0"><path fill="#000000" d="M 612.105469 500.414062 C 577.699219 500.414062 549.707031 528.40625 549.707031 562.8125 C 549.707031 597.21875 577.699219 625.207031 612.105469 625.207031 C 646.511719 625.207031 674.5 597.21875 674.5 562.8125 C 674.5 528.40625 646.511719 500.414062 612.105469 500.414062 Z M 612.105469 600.25 C 591.464844 600.25 574.667969 583.453125 574.667969 562.8125 C 574.667969 542.171875 591.464844 525.375 612.105469 525.375 C 632.746094 525.375 649.542969 542.171875 649.542969 562.8125 C 649.542969 583.453125 632.746094 600.25 612.105469 600.25 Z M 612.105469 600.25 " fill-opacity="1" fill-rule="nonzero"/><path fill="#000000" d="M 736.898438 525.375 L 717.714844 524.863281 C 716.503906 521.492188 715.144531 518.210938 713.375 514.480469 L 726.8125 501.039062 C 731.691406 496.160156 731.691406 488.273438 726.8125 483.394531 L 691.523438 448.089844 C 689.175781 445.746094 686.019531 444.433594 682.699219 444.433594 C 679.378906 444.433594 676.210938 445.746094 673.875 448.089844 L 659.914062 461.269531 C 656.707031 459.769531 653.4375 458.410156 649.542969 457.039062 L 649.542969 438.019531 C 649.542969 431.132812 643.964844 425.539062 637.0625 425.539062 L 587.144531 425.539062 C 580.246094 425.539062 574.667969 431.132812 574.667969 438.019531 L 574.128906 457.214844 C 570.761719 458.410156 567.503906 459.769531 563.773438 461.542969 L 550.332031 448.101562 C 545.652344 443.421875 537.367188 443.421875 532.6875 448.101562 L 497.394531 483.40625 C 492.515625 488.285156 492.515625 496.171875 497.394531 501.050781 L 510.585938 515.003906 C 509.078125 518.210938 507.714844 521.503906 506.34375 525.386719 L 487.3125 525.386719 C 480.410156 525.386719 474.832031 530.976562 474.832031 537.867188 L 474.832031 587.78125 C 474.832031 594.671875 480.410156 600.261719 487.3125 600.261719 L 506.492188 600.773438 C 507.703125 604.144531 509.0625 607.425781 510.835938 611.15625 L 497.394531 624.597656 C 492.515625 629.476562 492.515625 637.363281 497.394531 642.242188 L 532.6875 677.546875 C 535.035156 679.890625 538.191406 681.203125 541.511719 681.203125 C 544.828125 681.203125 548 679.890625 550.332031 677.546875 L 564.296875 664.367188 C 567.503906 665.863281 570.773438 667.226562 574.667969 668.597656 L 574.667969 687.605469 C 574.667969 694.492188 580.246094 700.082031 587.144531 700.082031 L 637.0625 700.082031 C 643.964844 700.082031 649.542969 694.492188 649.542969 687.605469 L 650.078125 668.410156 C 653.449219 667.214844 656.707031 665.851562 660.4375 664.082031 L 673.875 677.519531 C 678.554688 682.199219 686.84375 682.199219 691.523438 677.519531 L 726.8125 642.21875 C 731.691406 637.335938 731.691406 629.449219 726.8125 624.570312 L 713.625 610.621094 C 715.132812 607.414062 716.492188 604.117188 717.867188 600.238281 L 736.898438 600.238281 C 743.796875 600.238281 749.375 594.644531 749.375 587.757812 L 749.375 537.839844 C 749.375 530.964844 743.796875 525.375 736.898438 525.375 Z M 724.417969 575.292969 L 717.878906 575.292969 C 707.222656 575.292969 697.9375 581.992188 694.207031 592.386719 C 693.292969 594.984375 692.246094 597.503906 691.0625 600 C 686.382812 609.972656 688.214844 621.277344 695.742188 628.789062 L 700.359375 633.40625 L 682.710938 651.066406 L 678.09375 646.449219 C 670.683594 639.023438 659.101562 637.125 649.292969 641.769531 C 646.820312 642.941406 644.265625 644 641.65625 644.925781 C 631.449219 648.59375 624.585938 658.089844 624.585938 668.585938 L 624.585938 675.125 L 599.625 675.125 L 599.625 668.585938 C 599.625 658.089844 592.761719 648.582031 582.566406 644.925781 C 579.957031 643.988281 577.398438 642.929688 574.941406 641.769531 C 565.144531 637.152344 553.550781 639.011719 546.128906 646.433594 L 541.511719 651.050781 L 523.863281 633.394531 L 528.480469 628.777344 C 536.007812 621.265625 537.839844 609.957031 533.148438 599.960938 C 531.976562 597.492188 530.925781 594.972656 530.003906 592.335938 C 526.273438 581.992188 516.988281 575.292969 506.332031 575.292969 L 499.792969 575.292969 L 499.792969 550.332031 L 506.332031 550.332031 C 516.988281 550.332031 526.273438 543.632812 530.003906 533.234375 C 530.914062 530.640625 531.964844 528.121094 533.148438 525.625 C 537.828125 515.652344 535.992188 504.347656 528.46875 496.835938 L 523.851562 492.21875 L 541.496094 474.558594 L 546.113281 479.175781 C 553.527344 486.589844 565.09375 488.472656 574.917969 483.855469 C 577.386719 482.683594 579.945312 481.621094 582.554688 480.699219 C 592.761719 477.03125 599.625 467.535156 599.625 457.039062 L 599.625 450.5 L 624.585938 450.5 L 624.585938 457.039062 C 624.585938 467.535156 631.449219 477.042969 641.644531 480.699219 C 644.25 481.636719 646.808594 482.695312 649.269531 483.855469 C 659.089844 488.484375 670.65625 486.625 678.082031 479.1875 L 682.699219 474.570312 L 700.34375 492.230469 L 695.726562 496.847656 C 688.203125 504.359375 686.367188 515.664062 691.0625 525.660156 C 692.234375 528.132812 693.28125 530.652344 694.207031 533.285156 C 697.9375 543.632812 707.222656 550.332031 717.878906 550.332031 L 724.417969 550.332031 Z M 724.417969 575.292969 " fill-opacity="1" fill-rule="nonzero"/><path fill="#000000" d="M 137.894531 625.207031 C 172.300781 625.207031 200.292969 597.21875 200.292969 562.8125 C 200.292969 528.40625 172.300781 500.414062 137.894531 500.414062 C 103.488281 500.414062 75.5 528.40625 75.5 562.8125 C 75.5 597.21875 103.488281 625.207031 137.894531 625.207031 Z M 137.894531 525.375 C 158.535156 525.375 175.332031 542.171875 175.332031 562.8125 C 175.332031 583.453125 158.535156 600.25 137.894531 600.25 C 117.253906 600.25 100.457031 583.453125 100.457031 562.8125 C 100.457031 542.171875 117.253906 525.375 137.894531 525.375 Z M 137.894531 525.375 " fill-opacity="1" fill-rule="nonzero"/><path fill="#000000" d="M 13.101562 600.25 L 32.285156 600.761719 C 33.496094 604.128906 34.855469 607.414062 36.625 611.144531 L 23.1875 624.585938 C 18.308594 629.464844 18.308594 637.351562 23.1875 642.230469 L 58.476562 677.535156 C 60.824219 679.878906 63.980469 681.191406 67.300781 681.191406 C 70.621094 681.191406 73.789062 679.878906 76.125 677.535156 L 90.085938 664.355469 C 93.292969 665.851562 96.5625 667.214844 100.457031 668.585938 L 100.457031 687.605469 C 100.457031 694.492188 106.035156 700.082031 112.9375 700.082031 L 162.855469 700.082031 C 169.753906 700.082031 175.332031 694.492188 175.332031 687.605469 L 175.871094 668.410156 C 179.238281 667.214844 182.496094 665.851562 186.226562 664.082031 L 199.667969 677.519531 C 204.347656 682.199219 212.632812 682.199219 217.3125 677.519531 L 252.605469 642.21875 C 257.484375 637.335938 257.484375 629.449219 252.605469 624.570312 L 239.414062 610.621094 C 240.921875 607.414062 242.285156 604.117188 243.65625 600.238281 L 262.6875 600.238281 C 269.589844 600.238281 275.167969 594.644531 275.167969 587.757812 L 275.167969 537.839844 C 275.167969 530.953125 269.589844 525.363281 262.6875 525.363281 L 243.507812 524.851562 C 242.296875 521.480469 240.9375 518.199219 239.164062 514.46875 L 252.605469 501.027344 C 257.484375 496.148438 257.484375 488.261719 252.605469 483.382812 L 217.3125 448.078125 C 214.964844 445.730469 211.808594 444.421875 208.488281 444.421875 C 205.171875 444.421875 202 445.730469 199.667969 448.078125 L 185.703125 461.257812 C 182.496094 459.757812 179.226562 458.398438 175.332031 457.027344 L 175.332031 438.019531 C 175.332031 431.132812 169.753906 425.539062 162.855469 425.539062 L 112.9375 425.539062 C 106.035156 425.539062 100.457031 431.132812 100.457031 438.019531 L 99.921875 457.214844 C 96.550781 458.410156 93.292969 459.769531 89.5625 461.542969 L 76.125 448.101562 C 71.445312 443.421875 63.15625 443.421875 58.476562 448.101562 L 23.1875 483.40625 C 18.308594 488.285156 18.308594 496.171875 23.1875 501.050781 L 36.375 515.003906 C 34.867188 518.210938 33.507812 521.503906 32.132812 525.386719 L 13.101562 525.386719 C 6.203125 525.386719 0.625 530.976562 0.625 537.867188 L 0.625 587.78125 C 0.625 594.660156 6.203125 600.25 13.101562 600.25 Z M 25.582031 550.332031 L 32.121094 550.332031 C 42.777344 550.332031 52.0625 543.632812 55.792969 533.234375 C 56.707031 530.640625 57.753906 528.121094 58.9375 525.625 C 63.617188 515.652344 61.785156 504.347656 54.257812 496.835938 L 49.640625 492.21875 L 67.289062 474.558594 L 71.90625 479.175781 C 79.316406 486.589844 90.886719 488.472656 100.707031 483.855469 C 103.179688 482.683594 105.734375 481.621094 108.34375 480.699219 C 118.550781 477.03125 125.414062 467.535156 125.414062 457.039062 L 125.414062 450.5 L 150.375 450.5 L 150.375 457.039062 C 150.375 467.535156 157.238281 477.042969 167.433594 480.699219 C 170.042969 481.636719 172.601562 482.695312 175.058594 483.855469 C 184.878906 488.484375 196.449219 486.625 203.871094 479.1875 L 208.488281 474.570312 L 226.136719 492.230469 L 221.519531 496.847656 C 213.992188 504.359375 212.160156 515.664062 216.851562 525.660156 C 218.023438 528.132812 219.074219 530.652344 219.996094 533.285156 C 223.726562 543.632812 233.011719 550.332031 243.667969 550.332031 L 250.207031 550.332031 L 250.207031 575.292969 L 243.667969 575.292969 C 233.011719 575.292969 223.726562 581.992188 219.996094 592.386719 C 219.085938 594.984375 218.035156 597.503906 216.851562 600 C 212.171875 609.972656 214.003906 621.277344 221.53125 628.789062 L 226.148438 633.40625 L 208.503906 651.066406 L 203.886719 646.449219 C 196.460938 639.023438 184.890625 637.125 175.082031 641.769531 C 172.613281 642.941406 170.054688 644 167.445312 644.925781 C 157.238281 648.59375 150.375 658.089844 150.375 668.585938 L 150.375 675.125 L 125.414062 675.125 L 125.414062 668.585938 C 125.414062 658.089844 118.550781 648.582031 108.355469 644.925781 C 105.75 643.988281 103.191406 642.929688 100.730469 641.769531 C 90.9375 637.152344 79.355469 639.011719 71.917969 646.433594 L 67.300781 651.050781 L 49.65625 633.394531 L 54.273438 628.777344 C 61.796875 621.265625 63.632812 609.957031 58.9375 599.960938 C 57.765625 597.492188 56.71875 594.972656 55.792969 592.335938 C 52.0625 581.992188 42.777344 575.292969 32.121094 575.292969 L 25.582031 575.292969 Z M 25.582031 550.332031 " fill-opacity="1" fill-rule="nonzero"/><path fill="#000000" d="M 262.6875 438.019531 L 287.644531 438.019531 L 287.644531 462.976562 L 262.6875 462.976562 Z M 262.6875 438.019531 " fill-opacity="1" fill-rule="nonzero"/><path fill="#000000" d="M 312.605469 438.019531 L 337.5625 438.019531 L 337.5625 462.976562 L 312.605469 462.976562 Z M 312.605469 438.019531 " fill-opacity="1" fill-rule="nonzero"/><path fill="#000000" d="M 362.519531 438.019531 L 387.480469 438.019531 L 387.480469 462.976562 L 362.519531 462.976562 Z M 362.519531 438.019531 " fill-opacity="1" fill-rule="nonzero"/><path fill="#000000" d="M 412.4375 438.019531 L 437.394531 438.019531 L 437.394531 462.976562 L 412.4375 462.976562 Z M 412.4375 438.019531 " fill-opacity="1" fill-rule="nonzero"/><path fill="#000000" d="M 462.355469 438.019531 L 487.3125 438.019531 L 487.3125 462.976562 L 462.355469 462.976562 Z M 462.355469 438.019531 " fill-opacity="1" fill-rule="nonzero"/><path fill="#000000" d="M 262.6875 662.644531 L 287.644531 662.644531 L 287.644531 687.605469 L 262.6875 687.605469 Z M 262.6875 662.644531 " fill-opacity="1" fill-rule="nonzero"/><path fill="#000000" d="M 312.605469 662.644531 L 337.5625 662.644531 L 337.5625 687.605469 L 312.605469 687.605469 Z M 312.605469 662.644531 " fill-opacity="1" fill-rule="nonzero"/><path fill="#000000" d="M 362.519531 662.644531 L 387.480469 662.644531 L 387.480469 687.605469 L 362.519531 687.605469 Z M 362.519531 662.644531 " fill-opacity="1" fill-rule="nonzero"/><path fill="#000000" d="M 412.4375 662.644531 L 437.394531 662.644531 L 437.394531 687.605469 L 412.4375 687.605469 Z M 412.4375 662.644531 " fill-opacity="1" fill-rule="nonzero"/><path fill="#000000" d="M 462.355469 662.644531 L 487.3125 662.644531 L 487.3125 687.605469 L 462.355469 687.605469 Z M 462.355469 662.644531 " fill-opacity="1" fill-rule="nonzero"/><path fill="#000000" d="M 0.625 725.042969 L 749.375 725.042969 L 749.375 750 L 0.625 750 Z M 0.625 725.042969 " fill-opacity="1" fill-rule="nonzero"/><path fill="#000000" d="M 686.980469 375.625 L 686.980469 238.351562 C 686.980469 231.464844 681.402344 225.875 674.5 225.875 L 524.75 225.875 C 517.847656 225.875 512.269531 231.464844 512.269531 238.351562 L 512.269531 375.625 L 462.355469 375.625 L 462.355469 238.351562 C 462.355469 231.464844 456.777344 225.875 449.875 225.875 L 300.125 225.875 C 293.222656 225.875 287.644531 231.464844 287.644531 238.351562 L 287.644531 375.625 L 237.730469 375.625 L 237.730469 238.351562 C 237.730469 231.464844 232.152344 225.875 225.25 225.875 L 75.5 225.875 C 68.597656 225.875 63.019531 231.464844 63.019531 238.351562 L 63.019531 375.625 L 0.625 375.625 L 0.625 400.582031 L 749.375 400.582031 L 749.375 375.625 Z M 137.894531 250.832031 L 162.855469 250.832031 L 162.855469 300.75 L 137.894531 300.75 Z M 212.769531 375.625 L 87.976562 375.625 L 87.976562 250.832031 L 112.9375 250.832031 L 112.9375 313.226562 C 112.9375 320.117188 118.515625 325.707031 125.414062 325.707031 L 175.332031 325.707031 C 182.234375 325.707031 187.8125 320.117188 187.8125 313.226562 L 187.8125 250.832031 L 212.769531 250.832031 Z M 362.519531 250.832031 L 387.480469 250.832031 L 387.480469 300.75 L 362.519531 300.75 Z M 437.394531 375.625 L 312.605469 375.625 L 312.605469 250.832031 L 337.5625 250.832031 L 337.5625 313.226562 C 337.5625 320.117188 343.140625 325.707031 350.042969 325.707031 L 399.957031 325.707031 C 406.859375 325.707031 412.4375 320.117188 412.4375 313.226562 L 412.4375 250.832031 L 437.394531 250.832031 Z M 587.144531 250.832031 L 612.105469 250.832031 L 612.105469 300.75 L 587.144531 300.75 Z M 662.023438 375.625 L 537.230469 375.625 L 537.230469 250.832031 L 562.1875 250.832031 L 562.1875 313.226562 C 562.1875 320.117188 567.765625 325.707031 574.667969 325.707031 L 624.585938 325.707031 C 631.484375 325.707031 637.0625 320.117188 637.0625 313.226562 L 637.0625 250.832031 L 662.023438 250.832031 Z M 662.023438 375.625 " fill-opacity="1" fill-rule="nonzero"/><path fill="#000000" d="M 644.550781 3.742188 C 640.769531 0.898438 635.703125 0.449219 631.484375 2.558594 C 627.253906 4.679688 624.585938 8.996094 624.585938 13.726562 L 624.585938 38.683594 L 487.3125 38.683594 C 480.410156 38.683594 474.832031 44.277344 474.832031 51.164062 L 474.832031 126.039062 C 474.832031 132.929688 480.410156 138.519531 487.3125 138.519531 L 624.585938 138.519531 L 624.585938 163.476562 C 624.585938 168.207031 627.253906 172.523438 631.484375 174.644531 C 633.246094 175.519531 635.167969 175.957031 637.0625 175.957031 C 639.707031 175.957031 642.355469 175.109375 644.550781 173.460938 L 744.382812 98.585938 C 747.527344 96.226562 749.375 92.535156 749.375 88.601562 C 749.375 84.671875 747.527344 80.976562 744.382812 78.617188 Z M 649.542969 138.519531 L 649.542969 126.039062 C 649.542969 119.152344 643.964844 113.5625 637.0625 113.5625 L 499.792969 113.5625 L 499.792969 63.644531 L 637.0625 63.644531 C 643.964844 63.644531 649.542969 58.054688 649.542969 51.164062 L 649.542969 38.683594 L 716.09375 88.601562 Z M 649.542969 138.519531 " fill-opacity="1" fill-rule="nonzero"/></svg>