<svg xmlns="http://www.w3.org/2000/svg" xmlns:xlink="http://www.w3.org/1999/xlink" width="1000" zoomAndPan="magnify" viewBox="0 0 750 671.249979" height="895" preserveAspectRatio="xMidYMid meet" version="1.0"><path fill="#ff5576" d="M 312.195312 460.558594 L 312.195312 651.957031 L 198.550781 580.183594 L 84.90625 651.957031 L 84.90625 460.558594 " fill-opacity="1" fill-rule="nonzero"/><path fill="#ffffff" d="M 366.027344 580.183594 L 587.335938 580.183594 L 587.335938 651.957031 L 366.027344 651.957031 Z M 473.691406 472.519531 C 380.980469 472.519531 306.214844 397.753906 306.214844 305.046875 L 306.214844 17.945312 L 641.167969 17.945312 L 641.167969 305.046875 C 641.167969 397.753906 566.402344 472.519531 473.691406 472.519531 Z M 473.691406 472.519531 " fill-opacity="1" fill-rule="nonzero"/><path fill="#444b54" d="M 730.886719 59.8125 L 659.109375 59.8125 L 659.109375 17.945312 C 659.109375 7.777344 651.335938 0 641.167969 0 L 306.214844 0 C 296.046875 0 288.273438 7.777344 288.273438 17.945312 L 288.273438 59.8125 L 216.496094 59.8125 C 206.328125 59.8125 198.550781 67.589844 198.550781 77.757812 C 198.550781 87.925781 206.328125 95.699219 216.496094 95.699219 L 306.214844 95.699219 C 316.382812 95.699219 324.160156 87.925781 324.160156 77.757812 L 324.160156 35.886719 L 623.222656 35.886719 L 623.222656 305.046875 C 623.222656 387.585938 556.234375 454.578125 473.691406 454.578125 C 454.550781 454.578125 436.007812 450.988281 418.664062 443.808594 C 409.691406 440.222656 398.925781 444.410156 395.335938 453.980469 C 391.746094 462.949219 395.933594 473.71875 405.503906 477.304688 C 421.652344 483.886719 439 488.070312 456.34375 489.269531 L 456.34375 562.238281 L 383.972656 562.238281 C 373.804688 562.238281 366.027344 570.015625 366.027344 580.183594 C 366.027344 590.351562 373.804688 598.128906 383.972656 598.128906 L 569.390625 598.128906 L 569.390625 634.015625 L 383.972656 634.015625 C 373.804688 634.015625 366.027344 641.789062 366.027344 651.957031 C 366.027344 662.128906 373.804688 669.902344 383.972656 669.902344 L 587.335938 669.902344 C 597.503906 669.902344 605.277344 662.128906 605.277344 651.957031 L 605.277344 580.183594 C 605.277344 570.015625 597.503906 562.238281 587.335938 562.238281 L 491.636719 562.238281 L 491.636719 489.867188 C 581.355469 481.492188 651.933594 408.519531 658.511719 318.800781 C 709.351562 310.429688 748.828125 266.167969 748.828125 212.933594 L 748.828125 77.757812 C 748.828125 67.589844 741.054688 59.8125 730.886719 59.8125 Z M 712.941406 212.335938 C 712.941406 245.832031 690.214844 273.941406 659.109375 281.71875 L 659.109375 95.699219 L 712.941406 95.699219 Z M 712.941406 212.335938 " fill-opacity="1" fill-rule="nonzero"/><path fill="#ffffff" d="M 198.550781 137.570312 C 195.617188 137.570312 192.679688 137.640625 189.746094 137.785156 C 186.816406 137.929688 183.886719 138.144531 180.964844 138.433594 C 178.042969 138.722656 175.128906 139.082031 172.222656 139.511719 C 169.320312 139.941406 166.425781 140.445312 163.546875 141.015625 C 160.664062 141.589844 157.800781 142.234375 154.953125 142.945312 C 152.105469 143.660156 149.273438 144.445312 146.464844 145.296875 C 143.652344 146.148438 140.867188 147.070312 138.101562 148.058594 C 135.335938 149.046875 132.597656 150.105469 129.882812 151.226562 C 127.171875 152.351562 124.488281 153.542969 121.832031 154.796875 C 119.179688 156.054688 116.554688 157.371094 113.964844 158.757812 C 111.375 160.140625 108.820312 161.589844 106.300781 163.097656 C 103.785156 164.609375 101.304688 166.179688 98.863281 167.808594 C 96.421875 169.441406 94.019531 171.132812 91.660156 172.882812 C 89.300781 174.628906 86.988281 176.4375 84.71875 178.300781 C 82.449219 180.164062 80.226562 182.082031 78.050781 184.050781 C 75.875 186.023438 73.746094 188.050781 71.671875 190.125 C 69.59375 192.203125 67.570312 194.328125 65.597656 196.503906 C 63.625 198.679688 61.707031 200.902344 59.84375 203.171875 C 57.980469 205.441406 56.175781 207.757812 54.425781 210.117188 C 52.675781 212.476562 50.988281 214.875 49.355469 217.316406 C 47.722656 219.757812 46.152344 222.238281 44.644531 224.757812 C 43.132812 227.277344 41.6875 229.832031 40.300781 232.421875 C 38.917969 235.011719 37.597656 237.632812 36.34375 240.289062 C 35.085938 242.941406 33.898438 245.625 32.773438 248.339844 C 31.648438 251.050781 30.59375 253.792969 29.601562 256.554688 C 28.613281 259.320312 27.691406 262.109375 26.839844 264.917969 C 25.988281 267.730469 25.207031 270.558594 24.492188 273.40625 C 23.777344 276.257812 23.136719 279.121094 22.5625 282 C 21.988281 284.882812 21.488281 287.773438 21.054688 290.679688 C 20.625 293.582031 20.265625 296.496094 19.976562 299.417969 C 19.691406 302.34375 19.472656 305.269531 19.332031 308.203125 C 19.1875 311.136719 19.113281 314.070312 19.113281 317.007812 C 19.113281 319.945312 19.1875 322.878906 19.332031 325.8125 C 19.472656 328.746094 19.691406 331.671875 19.976562 334.59375 C 20.265625 337.519531 20.625 340.433594 21.054688 343.335938 C 21.488281 346.242188 21.988281 349.132812 22.5625 352.015625 C 23.136719 354.894531 23.777344 357.757812 24.492188 360.609375 C 25.207031 363.457031 25.988281 366.285156 26.839844 369.09375 C 27.691406 371.90625 28.613281 374.695312 29.601562 377.457031 C 30.59375 380.222656 31.648438 382.960938 32.773438 385.675781 C 33.898438 388.386719 35.085938 391.074219 36.34375 393.726562 C 37.597656 396.382812 38.917969 399.003906 40.300781 401.59375 C 41.6875 404.183594 43.132812 406.738281 44.644531 409.257812 C 46.152344 411.777344 47.722656 414.257812 49.355469 416.699219 C 50.988281 419.140625 52.675781 421.539062 54.425781 423.898438 C 56.175781 426.257812 57.980469 428.570312 59.84375 430.84375 C 61.707031 433.113281 63.625 435.335938 65.597656 437.511719 C 67.570312 439.6875 69.59375 441.8125 71.671875 443.890625 C 73.746094 445.964844 75.875 447.988281 78.050781 449.960938 C 80.226562 451.933594 82.449219 453.851562 84.71875 455.714844 C 86.988281 457.578125 89.300781 459.382812 91.660156 461.132812 C 94.019531 462.882812 96.421875 464.574219 98.863281 466.203125 C 101.304688 467.835938 103.785156 469.40625 106.300781 470.917969 C 108.820312 472.425781 111.375 473.875 113.964844 475.257812 C 116.554688 476.640625 119.179688 477.960938 121.832031 479.21875 C 124.488281 480.472656 127.171875 481.664062 129.882812 482.785156 C 132.597656 483.910156 135.335938 484.96875 138.101562 485.957031 C 140.867188 486.945312 143.652344 487.867188 146.464844 488.71875 C 149.273438 489.570312 152.105469 490.355469 154.953125 491.066406 C 157.800781 491.78125 160.664062 492.425781 163.546875 492.996094 C 166.425781 493.570312 169.320312 494.074219 172.222656 494.503906 C 175.128906 494.933594 178.042969 495.292969 180.964844 495.582031 C 183.886719 495.871094 186.816406 496.085938 189.746094 496.230469 C 192.679688 496.375 195.617188 496.445312 198.550781 496.445312 C 201.488281 496.445312 204.425781 496.375 207.355469 496.230469 C 210.289062 496.085938 213.21875 495.871094 216.140625 495.582031 C 219.0625 495.292969 221.976562 494.933594 224.882812 494.503906 C 227.785156 494.074219 230.679688 493.570312 233.558594 492.996094 C 236.4375 492.425781 239.304688 491.78125 242.152344 491.066406 C 245 490.355469 247.832031 489.570312 250.640625 488.71875 C 253.449219 487.867188 256.238281 486.945312 259.003906 485.957031 C 261.769531 484.96875 264.507812 483.910156 267.21875 482.785156 C 269.933594 481.664062 272.617188 480.472656 275.273438 479.21875 C 277.925781 477.960938 280.550781 476.640625 283.140625 475.257812 C 285.730469 473.875 288.285156 472.425781 290.800781 470.917969 C 293.320312 469.40625 295.800781 467.835938 298.242188 466.203125 C 300.683594 464.574219 303.085938 462.882812 305.445312 461.132812 C 307.800781 459.382812 310.117188 457.578125 312.386719 455.714844 C 314.65625 453.851562 316.878906 451.933594 319.054688 449.960938 C 321.230469 447.988281 323.359375 445.964844 325.433594 443.890625 C 327.511719 441.8125 329.535156 439.6875 331.507812 437.511719 C 333.480469 435.335938 335.398438 433.113281 337.261719 430.84375 C 339.121094 428.570312 340.929688 426.257812 342.679688 423.898438 C 344.429688 421.539062 346.117188 419.140625 347.75 416.699219 C 349.382812 414.257812 350.953125 411.777344 352.460938 409.257812 C 353.972656 406.738281 355.417969 404.183594 356.804688 401.59375 C 358.1875 399.003906 359.507812 396.382812 360.761719 393.726562 C 362.019531 391.074219 363.207031 388.386719 364.332031 385.675781 C 365.457031 382.960938 366.511719 380.222656 367.5 377.457031 C 368.492188 374.691406 369.410156 371.90625 370.265625 369.09375 C 371.117188 366.285156 371.898438 363.457031 372.613281 360.605469 C 373.328125 357.757812 373.96875 354.894531 374.542969 352.015625 C 375.117188 349.132812 375.617188 346.242188 376.046875 343.335938 C 376.480469 340.433594 376.839844 337.519531 377.125 334.59375 C 377.414062 331.671875 377.628906 328.746094 377.773438 325.8125 C 377.917969 322.878906 377.992188 319.945312 377.992188 317.007812 C 377.992188 314.070312 377.917969 311.136719 377.773438 308.203125 C 377.628906 305.269531 377.414062 302.34375 377.125 299.417969 C 376.839844 296.496094 376.480469 293.582031 376.046875 290.679688 C 375.617188 287.773438 375.117188 284.882812 374.542969 282 C 373.96875 279.121094 373.328125 276.257812 372.613281 273.40625 C 371.898438 270.558594 371.117188 267.730469 370.265625 264.917969 C 369.410156 262.109375 368.492188 259.320312 367.5 256.554688 C 366.511719 253.792969 365.457031 251.050781 364.332031 248.339844 C 363.207031 245.625 362.019531 242.941406 360.761719 240.289062 C 359.507812 237.632812 358.1875 235.011719 356.804688 232.421875 C 355.417969 229.832031 353.972656 227.277344 352.460938 224.757812 C 350.953125 222.238281 349.382812 219.757812 347.75 217.316406 C 346.117188 214.875 344.429688 212.476562 342.679688 210.117188 C 340.929688 207.757812 339.121094 205.441406 337.261719 203.171875 C 335.398438 200.902344 333.480469 198.679688 331.507812 196.503906 C 329.535156 194.328125 327.511719 192.203125 325.433594 190.125 C 323.359375 188.050781 321.230469 186.023438 319.054688 184.050781 C 316.878906 182.082031 314.65625 180.164062 312.386719 178.300781 C 310.117188 176.4375 307.800781 174.628906 305.445312 172.882812 C 303.085938 171.132812 300.683594 169.441406 298.242188 167.808594 C 295.800781 166.179688 293.320312 164.609375 290.800781 163.097656 C 288.285156 161.589844 285.730469 160.140625 283.140625 158.757812 C 280.550781 157.371094 277.925781 156.054688 275.273438 154.796875 C 272.617188 153.542969 269.933594 152.351562 267.21875 151.226562 C 264.507812 150.105469 261.769531 149.046875 259.003906 148.058594 C 256.238281 147.070312 253.449219 146.148438 250.640625 145.296875 C 247.832031 144.445312 245 143.660156 242.152344 142.945312 C 239.304688 142.234375 236.4375 141.589844 233.558594 141.015625 C 230.679688 140.445312 227.785156 139.941406 224.882812 139.511719 C 221.976562 139.082031 219.0625 138.722656 216.140625 138.433594 C 213.21875 138.144531 210.289062 137.929688 207.355469 137.785156 C 204.425781 137.640625 201.488281 137.570312 198.550781 137.570312 Z M 198.550781 137.570312 " fill-opacity="1" fill-rule="nonzero"/><path fill="#444b54" d="M 395.933594 317.007812 C 395.933594 208.148438 307.410156 119.625 198.550781 119.625 C 89.691406 119.625 1.171875 208.148438 1.171875 317.007812 C 1.171875 425.867188 89.691406 514.390625 198.550781 514.390625 C 233.242188 514.390625 266.140625 505.417969 294.253906 489.269531 L 294.253906 619.0625 L 208.121094 564.632812 C 202.140625 561.042969 194.964844 561.042969 188.980469 564.632812 L 102.851562 619.660156 L 102.851562 520.371094 C 102.851562 510.203125 95.078125 502.425781 84.90625 502.425781 C 74.738281 502.425781 66.964844 510.203125 66.964844 520.371094 L 66.964844 651.957031 C 66.964844 658.539062 70.554688 664.519531 76.535156 667.511719 C 82.515625 670.5 89.09375 670.5 94.476562 666.910156 L 198.550781 601.117188 L 302.625 666.910156 C 305.617188 668.707031 308.609375 669.902344 312.195312 669.902344 C 315.1875 669.902344 318.179688 669.304688 320.570312 667.511719 C 326.550781 664.519531 330.140625 658.539062 330.140625 651.957031 L 330.140625 464.148438 C 370.214844 427.660156 395.933594 375.625 395.933594 317.007812 Z M 37.058594 317.007812 C 37.058594 227.886719 109.429688 155.511719 198.550781 155.511719 C 287.671875 155.511719 360.046875 227.886719 360.046875 317.007812 C 360.046875 406.128906 287.671875 478.5 198.550781 478.5 C 109.429688 478.5 37.058594 406.128906 37.058594 317.007812 Z M 37.058594 317.007812 " fill-opacity="1" fill-rule="nonzero"/></svg>