<svg xmlns="http://www.w3.org/2000/svg" xmlns:xlink="http://www.w3.org/1999/xlink" width="1024" zoomAndPan="magnify" viewBox="0 0 768 767.999994" height="1024" preserveAspectRatio="xMidYMid meet" version="1.0"><defs><g/><clipPath id="id1"><path d="M 384 0 C 171.921875 0 0 171.921875 0 384 C 0 596.078125 171.921875 768 384 768 C 596.078125 768 768 596.078125 768 384 C 768 171.921875 596.078125 0 384 0 " clip-rule="nonzero"/></clipPath></defs><path fill="#14c38e" d="M 384 0 C 171.921875 0 0 171.921875 0 384 C 0 596.078125 171.921875 768 384 768 C 596.078125 768 768 596.078125 768 384 C 768 171.921875 596.078125 0 384 0 " fill-opacity="1" fill-rule="nonzero"/><g clip-path="url(#id1)"><path stroke-linecap="butt" transform="matrix(0.75, 0, 0, 0.75, 0.000003, 0.00002)" fill="none" stroke-linejoin="miter" d="M 512.000021 -0.0000266667 C 229.229174 -0.0000266667 -0.000004 229.229151 -0.000004 511.999999 C -0.000004 794.770846 229.229174 1024.000024 512.000021 1024.000024 C 794.770869 1024.000024 1024.000047 794.770846 1024.000047 511.999999 C 1024.000047 229.229151 794.770869 -0.0000266667 512.000021 -0.0000266667 " stroke="#000000" stroke-width="8" stroke-opacity="1" stroke-miterlimit="4"/></g><g fill="#e3fcbf" fill-opacity="1"><g transform="translate(55.869141, 575.059884)"><g><path d="M 257.578125 0 L 147.9375 0 L 147.9375 -211.640625 C 147.9375 -237.347656 148.484375 -260.867188 149.578125 -282.203125 C 142.828125 -273.992188 134.441406 -265.421875 124.421875 -256.484375 L 79.03125 -219.03125 L 22.96875 -287.9375 L 160.234375 -399.78125 L 257.578125 -399.78125 Z M 257.578125 0 "/></g></g><g transform="translate(383.99998, 575.059884)"><g><path d="M 181.5625 -261.953125 C 204.53125 -261.953125 225.265625 -256.617188 243.765625 -245.953125 C 262.273438 -235.296875 276.679688 -220.210938 286.984375 -200.703125 C 297.285156 -181.203125 302.4375 -158.691406 302.4375 -133.171875 C 302.4375 -88.503906 288.988281 -54.226562 262.09375 -30.34375 C 235.207031 -6.46875 194.507812 5.46875 140 5.46875 C 93.332031 5.46875 55.234375 -1.734375 25.703125 -16.140625 L 25.703125 -104.734375 C 41.566406 -97.441406 59.476562 -91.425781 79.4375 -86.6875 C 99.394531 -81.945312 116.578125 -79.578125 130.984375 -79.578125 C 151.035156 -79.578125 166.4375 -83.8125 177.1875 -92.28125 C 187.945312 -100.757812 193.328125 -113.296875 193.328125 -129.890625 C 193.328125 -145.203125 187.859375 -157.140625 176.921875 -165.703125 C 165.984375 -174.273438 149.394531 -178.5625 127.15625 -178.5625 C 110.195312 -178.5625 91.875 -175.367188 72.1875 -168.984375 L 32.546875 -188.671875 L 47.578125 -399.78125 L 275.625 -399.78125 L 275.625 -309.8125 L 139.453125 -309.8125 L 134.53125 -257.03125 C 148.75 -259.769531 158.863281 -261.273438 164.875 -261.546875 C 170.894531 -261.816406 176.457031 -261.953125 181.5625 -261.953125 Z M 181.5625 -261.953125 "/></g></g></g></svg>