<svg xmlns="http://www.w3.org/2000/svg" xmlns:xlink="http://www.w3.org/1999/xlink" width="1024" zoomAndPan="magnify" viewBox="0 0 768 767.999994" height="1024" preserveAspectRatio="xMidYMid meet" version="1.0"><defs><g/><clipPath id="id1"><path d="M 384 0 C 171.921875 0 0 171.921875 0 384 C 0 596.078125 171.921875 768 384 768 C 596.078125 768 768 596.078125 768 384 C 768 171.921875 596.078125 0 384 0 " clip-rule="nonzero"/></clipPath></defs><path fill="#14c38e" d="M 384 0 C 171.921875 0 0 171.921875 0 384 C 0 596.078125 171.921875 768 384 768 C 596.078125 768 768 596.078125 768 384 C 768 171.921875 596.078125 0 384 0 " fill-opacity="1" fill-rule="nonzero"/><g clip-path="url(#id1)"><path stroke-linecap="butt" transform="matrix(0.75, 0, 0, 0.75, 0.000003, 0.00002)" fill="none" stroke-linejoin="miter" d="M 512.000021 -0.0000266667 C 229.229174 -0.0000266667 -0.000004 229.229151 -0.000004 511.999999 C -0.000004 794.770846 229.229174 1024.000024 512.000021 1024.000024 C 794.770869 1024.000024 1024.000047 794.770846 1024.000047 511.999999 C 1024.000047 229.229151 794.770869 -0.0000266667 512.000021 -0.0000266667 " stroke="#000000" stroke-width="8" stroke-opacity="1" stroke-miterlimit="4"/></g><g fill="#e3fcbf" fill-opacity="1"><g transform="translate(55.869141, 575.059884)"><g><path d="M 257.578125 0 L 147.9375 0 L 147.9375 -211.640625 C 147.9375 -237.347656 148.484375 -260.867188 149.578125 -282.203125 C 142.828125 -273.992188 134.441406 -265.421875 124.421875 -256.484375 L 79.03125 -219.03125 L 22.96875 -287.9375 L 160.234375 -399.78125 L 257.578125 -399.78125 Z M 257.578125 0 "/></g></g><g transform="translate(383.99998, 575.059884)"><g><path d="M 19.140625 -168.984375 C 19.140625 -224.765625 27.113281 -269.925781 43.0625 -304.46875 C 59.019531 -339.019531 82.535156 -364.5 113.609375 -380.90625 C 144.691406 -397.3125 183.019531 -405.515625 228.59375 -405.515625 C 244.820312 -405.515625 263.785156 -403.96875 285.484375 -400.875 L 285.484375 -316.375 C 267.242188 -319.84375 247.460938 -321.578125 226.140625 -321.578125 C 190.046875 -321.578125 163.15625 -313.644531 145.46875 -297.78125 C 127.789062 -281.914062 118.128906 -256.03125 116.484375 -220.125 L 119.765625 -220.125 C 136.171875 -251.113281 162.515625 -266.609375 198.796875 -266.609375 C 234.335938 -266.609375 261.90625 -255.164062 281.5 -232.28125 C 301.101562 -209.40625 310.90625 -177.550781 310.90625 -136.71875 C 310.90625 -92.789062 298.507812 -58.109375 273.71875 -32.671875 C 248.925781 -7.242188 214.289062 5.46875 169.8125 5.46875 C 122.59375 5.46875 85.675781 -9.84375 59.0625 -40.46875 C 32.445312 -71.09375 19.140625 -113.929688 19.140625 -168.984375 Z M 167.34375 -80.125 C 178.832031 -80.125 188.175781 -84.453125 195.375 -93.109375 C 202.570312 -101.765625 206.171875 -115.570312 206.171875 -134.53125 C 206.171875 -166.976562 193.59375 -183.203125 168.4375 -183.203125 C 156.039062 -183.203125 145.96875 -179.007812 138.21875 -170.625 C 130.476562 -162.238281 126.609375 -152.03125 126.609375 -140 C 126.609375 -122.5 130.34375 -108.144531 137.8125 -96.9375 C 145.289062 -85.726562 155.132812 -80.125 167.34375 -80.125 Z M 167.34375 -80.125 "/></g></g></g></svg>