<svg xmlns="http://www.w3.org/2000/svg" xmlns:xlink="http://www.w3.org/1999/xlink" width="1024" zoomAndPan="magnify" viewBox="0 0 768 767.999994" height="1024" preserveAspectRatio="xMidYMid meet" version="1.0"><path fill="#56b48c" d="M 384 0 C 171.957031 0 0 171.957031 0 384 C 0 596.042969 171.957031 768 384 768 C 596.042969 768 768 596.042969 768 384 C 768 171.957031 596.042969 0 384 0 Z M 384 0 " fill-opacity="1" fill-rule="nonzero"/><path fill="#e3fcbf" d="M 494.820312 417.433594 C 490.796875 407.527344 484.605469 398.550781 476.554688 390.347656 C 468.507812 382.144531 458.601562 374.867188 446.683594 368.523438 C 458.910156 358.308594 468.351562 347.628906 474.855469 336.949219 C 481.355469 326.113281 484.757812 313.113281 484.757812 298.097656 C 484.757812 286.644531 482.4375 275.8125 477.949219 265.90625 C 473.460938 256 466.652344 247.179688 457.828125 239.59375 C 448.851562 232.007812 438.480469 226.28125 426.253906 222.257812 C 414.179688 218.234375 400.714844 216.222656 386.167969 216.222656 C 369.449219 216.222656 354.128906 218.542969 340.664062 223.34375 C 327.195312 228.140625 315.742188 234.484375 306.613281 242.226562 C 297.480469 250.117188 290.515625 258.320312 285.71875 266.988281 C 280.917969 275.65625 278.597656 284.015625 278.597656 291.753906 C 278.597656 299.957031 281.074219 306.457031 286.179688 311.410156 C 291.289062 316.363281 296.859375 318.839844 302.898438 318.839844 C 308.003906 318.839844 312.492188 317.910156 316.519531 316.054688 C 320.386719 314.195312 323.171875 311.71875 324.722656 308.625 C 327.351562 302.742188 330.136719 296.398438 333.234375 289.742188 C 336.328125 283.085938 339.578125 277.667969 343.140625 273.488281 C 346.542969 269.3125 351.34375 265.90625 357.378906 263.273438 C 363.414062 260.644531 371 259.40625 380.128906 259.40625 C 393.75 259.40625 404.585938 263.585938 412.480469 271.941406 C 420.527344 280.300781 424.550781 290.359375 424.550781 301.96875 C 424.550781 317.292969 419.597656 328.898438 409.539062 337.101562 C 399.476562 345.304688 387.558594 349.332031 373.628906 349.332031 L 364.34375 349.332031 C 353.664062 349.332031 345.460938 351.496094 340.042969 355.984375 C 334.625 360.472656 331.839844 366.355469 331.839844 373.628906 C 331.839844 381.058594 334.160156 386.785156 338.652344 390.964844 C 343.140625 395.144531 349.640625 397.15625 357.996094 397.15625 C 359.855469 397.15625 363.878906 396.847656 370.226562 396.226562 C 376.570312 395.609375 381.214844 395.296875 384.308594 395.296875 C 401.488281 395.296875 414.957031 400.25 424.707031 410.3125 C 434.300781 420.371094 439.253906 434.300781 439.253906 451.945312 C 439.253906 463.863281 436.46875 474.390625 430.742188 483.519531 C 425.015625 492.652344 417.894531 499.464844 409.230469 504.105469 C 400.5625 508.75 391.429688 511.070312 382.144531 511.070312 C 365.890625 511.070312 353.199219 505.964844 344.222656 495.75 C 335.246094 485.53125 326.734375 469.902344 318.992188 449.007812 C 317.753906 445.601562 315.28125 442.503906 311.253906 440.027344 C 307.386719 437.550781 303.207031 436.3125 299.027344 436.3125 C 290.515625 436.3125 283.550781 438.945312 277.824219 444.363281 C 272.097656 449.78125 269.3125 456.746094 269.3125 465.566406 C 269.3125 472.378906 271.632812 481.042969 276.429688 491.414062 C 281.230469 501.785156 288.195312 512 297.480469 521.75 C 306.765625 531.5 318.53125 539.550781 332.925781 546.050781 C 347.316406 552.550781 363.570312 555.800781 381.679688 555.800781 C 399.476562 555.800781 415.730469 553.015625 430.585938 547.289062 C 445.445312 541.5625 457.984375 533.824219 468.816406 523.761719 C 479.496094 513.703125 487.699219 502.25 493.117188 489.402344 C 498.6875 476.554688 501.320312 463.246094 501.320312 449.46875 C 500.855469 438.015625 498.84375 427.335938 494.820312 417.433594 " fill-opacity="1" fill-rule="nonzero"/></svg>