<svg xmlns="http://www.w3.org/2000/svg" xmlns:xlink="http://www.w3.org/1999/xlink" width="450" zoomAndPan="magnify" viewBox="0 0 337.5 337.500003" height="450" preserveAspectRatio="xMidYMid meet" version="1.0"><defs><g/><clipPath id="id1"><path d="M 0 0 L 337 0 L 337 337 L 0 337 Z M 0 0 " clip-rule="nonzero"/></clipPath><clipPath id="id2"><path d="M 0 0 L 337 0 L 337 337 L 0 337 Z M 0 0 " clip-rule="nonzero"/></clipPath><clipPath id="id3"><path d="M 168.75 0 C 75.550781 0 0 75.550781 0 168.75 C 0 261.949219 75.550781 337.5 168.75 337.5 C 261.949219 337.5 337.5 261.949219 337.5 168.75 C 337.5 75.550781 261.949219 0 168.75 0 " clip-rule="nonzero"/></clipPath></defs><g clip-path="url(#id1)"><path fill="#14c38e" d="M 168.75 0 C 75.550781 0 0 75.550781 0 168.75 C 0 261.949219 75.550781 337.5 168.75 337.5 C 261.949219 337.5 337.5 261.949219 337.5 168.75 C 337.5 75.550781 261.949219 0 168.75 0 " fill-opacity="1" fill-rule="nonzero"/></g><g clip-path="url(#id2)"><g clip-path="url(#id3)"><path stroke-linecap="butt" transform="matrix(0.75, 0, 0, 0.75, 0, 0.0000114852)" fill="none" stroke-linejoin="miter" d="M 225.000012 -0.0000153136 C 100.73438 -0.0000153136 0 100.734365 0 224.999996 C 0 349.265628 100.73438 450.000008 225.000012 450.000008 C 349.265643 450.000008 450.000023 349.265628 450.000023 224.999996 C 450.000023 100.734365 349.265643 -0.0000153136 225.000012 -0.0000153136 " stroke="#b8f1b0" stroke-width="32" stroke-opacity="1" stroke-miterlimit="4"/></g></g><g fill="#d32f23" fill-opacity="0.4196"><g transform="translate(87.482157, 253.360711)"><g><path d="M 32.96875 -153.171875 C 34.28125 -153.609375 35.523438 -153.828125 36.703125 -153.828125 L 71.859375 -153.828125 C 72.734375 -153.828125 73.425781 -153.53125 73.9375 -152.9375 C 74.457031 -152.351562 74.644531 -151.550781 74.5 -150.53125 L 56.46875 -3.296875 C 56.320312 -2.273438 55.921875 -1.46875 55.265625 -0.875 C 54.609375 -0.289062 53.835938 0 52.953125 0 L 19.125 0 C 18.238281 0 17.539062 -0.289062 17.03125 -0.875 C 16.519531 -1.46875 16.335938 -2.273438 16.484375 -3.296875 L 30.109375 -115.15625 C 30.109375 -115.882812 29.816406 -116.25 29.234375 -116.25 L 14.9375 -116.25 C 13.914062 -116.25 13.144531 -116.539062 12.625 -117.125 C 12.113281 -117.707031 11.9375 -118.515625 12.09375 -119.546875 L 15.15625 -145.03125 C 15.457031 -146.789062 16.484375 -148.035156 18.234375 -148.765625 Z M 32.96875 -153.171875 "/></g></g></g><g fill="#d32f23" fill-opacity="0.4196"><g transform="translate(152.086313, 253.360711)"><g><path d="M 94.046875 -38.671875 C 92.585938 -26.222656 87.28125 -16.367188 78.125 -9.109375 C 68.96875 -1.859375 57.578125 1.765625 43.953125 1.765625 C 31.941406 1.765625 22.304688 -1.3125 15.046875 -7.46875 C 7.796875 -13.625 4.171875 -22.050781 4.171875 -32.75 C 4.171875 -34.0625 4.316406 -36.035156 4.609375 -38.671875 L 5.5 -47.25 C 5.9375 -49.445312 7.179688 -50.546875 9.234375 -50.546875 L 42.84375 -50.546875 C 43.875 -50.546875 44.644531 -50.25 45.15625 -49.65625 C 45.664062 -49.070312 45.847656 -48.269531 45.703125 -47.25 L 45.046875 -41.53125 L 44.828125 -40 C 44.828125 -38.382812 45.191406 -37.0625 45.921875 -36.03125 C 46.660156 -35.007812 47.46875 -34.5 48.34375 -34.5 C 49.8125 -34.5 51.054688 -35.15625 52.078125 -36.46875 C 53.109375 -37.789062 53.769531 -39.476562 54.0625 -41.53125 L 56.703125 -62.1875 C 56.703125 -63.0625 56.257812 -63.28125 55.375 -62.84375 C 52.738281 -60.789062 49.878906 -59.175781 46.796875 -58 C 43.722656 -56.832031 40.648438 -56.25 37.578125 -56.25 C 28.640625 -56.25 21.679688 -59.101562 16.703125 -64.8125 C 11.722656 -70.53125 9.234375 -78.445312 9.234375 -88.5625 C 9.234375 -92.070312 9.378906 -94.78125 9.671875 -96.6875 L 12.09375 -116.25 C 13.550781 -128.550781 18.859375 -138.179688 28.015625 -145.140625 C 37.171875 -152.097656 48.707031 -155.578125 62.625 -155.578125 C 75.519531 -155.578125 85.59375 -152.425781 92.84375 -146.125 C 100.09375 -139.832031 103.425781 -130.382812 102.84375 -117.78125 C 102.84375 -115 102.625 -112.070312 102.1875 -109 Z M 54.0625 -85.265625 C 55.664062 -85.265625 57.050781 -85.921875 58.21875 -87.234375 C 59.394531 -88.554688 60.132812 -90.242188 60.4375 -92.296875 L 62.84375 -113.390625 C 63.132812 -115.441406 62.878906 -117.125 62.078125 -118.4375 C 61.273438 -119.757812 60.066406 -120.421875 58.453125 -120.421875 C 56.984375 -120.421875 55.660156 -119.757812 54.484375 -118.4375 C 53.316406 -117.125 52.660156 -115.441406 52.515625 -113.390625 L 49.890625 -92.296875 C 49.734375 -90.242188 50.019531 -88.554688 50.75 -87.234375 C 51.488281 -85.921875 52.59375 -85.265625 54.0625 -85.265625 Z M 54.0625 -85.265625 "/></g></g></g><g fill="#e3fcbf" fill-opacity="1"><g transform="translate(80.950003, 247.479133)"><g><path d="M 32.96875 -153.171875 C 34.28125 -153.609375 35.523438 -153.828125 36.703125 -153.828125 L 71.859375 -153.828125 C 72.734375 -153.828125 73.425781 -153.53125 73.9375 -152.9375 C 74.457031 -152.351562 74.644531 -151.550781 74.5 -150.53125 L 56.46875 -3.296875 C 56.320312 -2.273438 55.921875 -1.46875 55.265625 -0.875 C 54.609375 -0.289062 53.835938 0 52.953125 0 L 19.125 0 C 18.238281 0 17.539062 -0.289062 17.03125 -0.875 C 16.519531 -1.46875 16.335938 -2.273438 16.484375 -3.296875 L 30.109375 -115.15625 C 30.109375 -115.882812 29.816406 -116.25 29.234375 -116.25 L 14.9375 -116.25 C 13.914062 -116.25 13.144531 -116.539062 12.625 -117.125 C 12.113281 -117.707031 11.9375 -118.515625 12.09375 -119.546875 L 15.15625 -145.03125 C 15.457031 -146.789062 16.484375 -148.035156 18.234375 -148.765625 Z M 32.96875 -153.171875 "/></g></g></g><g fill="#e3fcbf" fill-opacity="1"><g transform="translate(145.55416, 247.479133)"><g><path d="M 94.046875 -38.671875 C 92.585938 -26.222656 87.28125 -16.367188 78.125 -9.109375 C 68.96875 -1.859375 57.578125 1.765625 43.953125 1.765625 C 31.941406 1.765625 22.304688 -1.3125 15.046875 -7.46875 C 7.796875 -13.625 4.171875 -22.050781 4.171875 -32.75 C 4.171875 -34.0625 4.316406 -36.035156 4.609375 -38.671875 L 5.5 -47.25 C 5.9375 -49.445312 7.179688 -50.546875 9.234375 -50.546875 L 42.84375 -50.546875 C 43.875 -50.546875 44.644531 -50.25 45.15625 -49.65625 C 45.664062 -49.070312 45.847656 -48.269531 45.703125 -47.25 L 45.046875 -41.53125 L 44.828125 -40 C 44.828125 -38.382812 45.191406 -37.0625 45.921875 -36.03125 C 46.660156 -35.007812 47.46875 -34.5 48.34375 -34.5 C 49.8125 -34.5 51.054688 -35.15625 52.078125 -36.46875 C 53.109375 -37.789062 53.769531 -39.476562 54.0625 -41.53125 L 56.703125 -62.1875 C 56.703125 -63.0625 56.257812 -63.28125 55.375 -62.84375 C 52.738281 -60.789062 49.878906 -59.175781 46.796875 -58 C 43.722656 -56.832031 40.648438 -56.25 37.578125 -56.25 C 28.640625 -56.25 21.679688 -59.101562 16.703125 -64.8125 C 11.722656 -70.53125 9.234375 -78.445312 9.234375 -88.5625 C 9.234375 -92.070312 9.378906 -94.78125 9.671875 -96.6875 L 12.09375 -116.25 C 13.550781 -128.550781 18.859375 -138.179688 28.015625 -145.140625 C 37.171875 -152.097656 48.707031 -155.578125 62.625 -155.578125 C 75.519531 -155.578125 85.59375 -152.425781 92.84375 -146.125 C 100.09375 -139.832031 103.425781 -130.382812 102.84375 -117.78125 C 102.84375 -115 102.625 -112.070312 102.1875 -109 Z M 54.0625 -85.265625 C 55.664062 -85.265625 57.050781 -85.921875 58.21875 -87.234375 C 59.394531 -88.554688 60.132812 -90.242188 60.4375 -92.296875 L 62.84375 -113.390625 C 63.132812 -115.441406 62.878906 -117.125 62.078125 -118.4375 C 61.273438 -119.757812 60.066406 -120.421875 58.453125 -120.421875 C 56.984375 -120.421875 55.660156 -119.757812 54.484375 -118.4375 C 53.316406 -117.125 52.660156 -115.441406 52.515625 -113.390625 L 49.890625 -92.296875 C 49.734375 -90.242188 50.019531 -88.554688 50.75 -87.234375 C 51.488281 -85.921875 52.59375 -85.265625 54.0625 -85.265625 Z M 54.0625 -85.265625 "/></g></g></g></svg>