<svg xmlns="http://www.w3.org/2000/svg" xmlns:xlink="http://www.w3.org/1999/xlink" width="1024" zoomAndPan="magnify" viewBox="0 0 768 427.499982" height="570" preserveAspectRatio="xMidYMid meet" version="1.0"><defs><clipPath id="id1"><path d="M 1 1 L 767.550781 1 L 767.550781 426 L 1 426 Z M 1 1 " clip-rule="nonzero"/></clipPath></defs><path fill="#616e30" d="M 161.203125 308.964844 C 168.683594 308.964844 174.703125 315.039062 174.703125 322.515625 C 174.703125 329.988281 168.683594 336.003906 161.203125 336.003906 C 153.726562 336.003906 147.648438 329.988281 147.648438 322.515625 C 147.648438 315.039062 153.726562 308.964844 161.203125 308.964844 Z M 161.203125 308.964844 " fill-opacity="1" fill-rule="nonzero"/><path fill="#acccc6" d="M 193.730469 220.125 L 193.730469 419.558594 L 89.039062 419.558594 L 89.039062 220.125 Z M 174.703125 322.515625 C 174.703125 315.039062 168.683594 308.964844 161.203125 308.964844 C 153.726562 308.964844 147.648438 315.039062 147.648438 322.515625 C 147.648438 329.988281 153.726562 336.003906 161.203125 336.003906 C 168.683594 336.003906 174.703125 329.988281 174.703125 322.515625 Z M 174.703125 322.515625 " fill-opacity="1" fill-rule="nonzero"/><path fill="#c3ddda" d="M 243.949219 221.097656 L 243.949219 419.558594 L 193.730469 419.558594 L 193.730469 220.125 L 89.039062 220.125 L 89.039062 419.558594 L 59.613281 419.558594 L 59.613281 149.574219 L 69.585938 133.167969 L 177.132812 133.167969 L 209.902344 205.296875 C 214.28125 214.898438 223.886719 221.097656 234.402344 221.097656 Z M 243.949219 221.097656 " fill-opacity="1" fill-rule="nonzero"/><path fill="#8bcb8f" d="M 358 327.316406 C 358 355.996094 334.230469 368.453125 316.417969 368.453125 C 316.417969 339.042969 332.832031 327.742188 358 327.316406 Z M 358 327.316406 " fill-opacity="1" fill-rule="nonzero"/><path fill="#8bcb8f" d="M 443.90625 376.050781 C 438.496094 389.539062 439.589844 406.128906 449.679688 419.558594 C 429.617188 407.464844 416.546875 389.722656 417.214844 366.265625 C 429.011719 366.207031 438.191406 369.121094 443.90625 376.050781 Z M 443.90625 376.050781 " fill-opacity="1" fill-rule="nonzero"/><path fill="#8bcb8f" d="M 582.339844 368.453125 C 550.480469 372.769531 535.039062 357.394531 528.898438 331.023438 C 556.195312 327.921875 574.738281 339.226562 582.339844 368.453125 Z M 582.339844 368.453125 " fill-opacity="1" fill-rule="nonzero"/><path fill="#cbdd56" d="M 694.082031 382.734375 C 689.519531 394.097656 690.433594 408.195312 699.003906 419.558594 C 682.042969 409.351562 670.917969 394.28125 671.527344 374.46875 C 681.496094 374.410156 689.277344 376.902344 694.082031 382.734375 Z M 694.082031 382.734375 " fill-opacity="1" fill-rule="nonzero"/><path fill="#349370" d="M 721.011719 361.953125 C 730.316406 383.707031 723.566406 409.226562 699.003906 419.558594 C 690.433594 408.195312 689.519531 394.097656 694.082031 382.734375 C 698.519531 371.734375 708.0625 363.226562 721.011719 361.953125 Z M 721.011719 361.953125 " fill-opacity="1" fill-rule="nonzero"/><path fill="#349370" d="M 623.921875 327.316406 C 623.921875 355.996094 600.152344 368.453125 582.339844 368.453125 C 582.339844 339.042969 598.753906 327.742188 623.921875 327.316406 Z M 623.921875 327.316406 " fill-opacity="1" fill-rule="nonzero"/><path fill="#cbdd56" d="M 475.640625 351.441406 C 486.707031 377.144531 478.742188 407.34375 449.679688 419.558594 C 439.589844 406.128906 438.496094 389.539062 443.90625 376.050781 C 449.132812 363.046875 460.382812 352.957031 475.640625 351.441406 Z M 475.640625 351.441406 " fill-opacity="1" fill-rule="nonzero"/><path fill="#cbdd56" d="M 316.417969 368.453125 C 284.558594 372.769531 269.179688 357.394531 262.976562 331.023438 C 290.273438 327.921875 308.816406 339.226562 316.417969 368.453125 Z M 316.417969 368.453125 " fill-opacity="1" fill-rule="nonzero"/><path fill="#e7f2f1" d="M 744.90625 419.558594 L 699.003906 419.558594 C 723.566406 409.226562 730.316406 383.707031 721.011719 361.953125 C 708.0625 363.226562 698.519531 371.734375 694.082031 382.734375 C 689.277344 376.902344 681.496094 374.410156 671.527344 374.46875 C 670.917969 394.28125 682.042969 409.351562 699.003906 419.558594 L 653.53125 419.558594 L 653.53125 221.097656 L 744.90625 221.097656 C 745.269531 224.378906 744.90625 419.558594 744.90625 419.558594 Z M 744.90625 419.558594 " fill-opacity="1" fill-rule="nonzero"/><path fill="#e7f2f1" d="M 509.382812 221.097656 L 509.382812 419.558594 L 653.53125 419.558594 L 653.53125 221.097656 Z M 582.339844 368.453125 C 550.480469 372.769531 535.039062 357.394531 528.898438 331.023438 C 556.195312 327.921875 574.738281 339.226562 582.339844 368.453125 C 582.339844 339.042969 598.753906 327.742188 623.921875 327.316406 C 623.921875 355.996094 600.152344 368.453125 582.339844 368.453125 Z M 582.339844 368.453125 " fill-opacity="1" fill-rule="nonzero"/><path fill="#e7f2f1" d="M 509.382812 221.097656 L 509.382812 419.558594 L 449.679688 419.558594 C 478.742188 407.34375 486.707031 377.144531 475.640625 351.441406 C 460.382812 352.957031 449.132812 363.046875 443.90625 376.050781 C 438.191406 369.121094 429.011719 366.207031 417.214844 366.265625 C 416.546875 389.722656 429.617188 407.464844 449.679688 419.558594 L 380.496094 419.558594 L 380.496094 221.097656 Z M 509.382812 221.097656 " fill-opacity="1" fill-rule="nonzero"/><path fill="#e7f2f1" d="M 243.949219 221.097656 L 243.949219 419.558594 L 380.496094 419.558594 L 380.496094 221.097656 Z M 347.605469 355.085938 C 339.09375 364.261719 326.753906 368.453125 316.417969 368.453125 C 284.558594 372.769531 269.179688 357.394531 262.976562 331.023438 C 290.273438 327.921875 308.816406 339.226562 316.417969 368.453125 C 316.417969 343.296875 328.394531 331.386719 347.605469 328.226562 C 350.886719 327.679688 354.355469 327.375 358 327.316406 C 358 339.347656 353.804688 348.523438 347.605469 355.085938 Z M 347.605469 355.085938 " fill-opacity="1" fill-rule="nonzero"/><path fill="#96b443" d="M 255.683594 27.921875 L 188.929688 101.449219 L 171.296875 62.617188 L 202.667969 27.921875 Z M 255.683594 27.921875 " fill-opacity="1" fill-rule="nonzero"/><path fill="#96b443" d="M 329.730469 120.042969 L 348.457031 161.300781 L 315.503906 197.578125 L 256.167969 197.578125 L 326.570312 120.042969 Z M 329.730469 120.042969 " fill-opacity="1" fill-rule="nonzero"/><path fill="#96b443" d="M 469.5625 27.921875 L 434.785156 66.203125 L 417.398438 27.921875 Z M 469.5625 27.921875 " fill-opacity="1" fill-rule="nonzero"/><path fill="#96b443" d="M 417.398438 27.921875 L 434.785156 66.203125 L 402.808594 101.449219 L 343.472656 101.449219 L 410.226562 27.921875 Z M 417.398438 27.921875 " fill-opacity="1" fill-rule="nonzero"/><path fill="#96b443" d="M 385.90625 120.042969 L 348.457031 161.300781 L 329.730469 120.042969 Z M 385.90625 120.042969 " fill-opacity="1" fill-rule="nonzero"/><path fill="#96b443" d="M 562.761719 62.679688 L 580.332031 101.449219 L 527.5625 101.449219 Z M 562.761719 62.679688 " fill-opacity="1" fill-rule="nonzero"/><path fill="#96b443" d="M 653.652344 27.921875 L 586.898438 101.449219 L 580.332031 101.449219 L 562.761719 62.679688 L 594.316406 27.921875 Z M 653.652344 27.921875 " fill-opacity="1" fill-rule="nonzero"/><path fill="#96b443" d="M 569.996094 120.042969 L 499.59375 197.578125 L 494.488281 197.578125 L 476.433594 157.777344 L 510.660156 120.042969 Z M 569.996094 120.042969 " fill-opacity="1" fill-rule="nonzero"/><path fill="#96b443" d="M 476.433594 157.777344 L 494.488281 197.578125 L 440.257812 197.578125 Z M 476.433594 157.777344 " fill-opacity="1" fill-rule="nonzero"/><path fill="#e7f2f1" d="M 697.730469 120.042969 L 732.988281 197.578125 L 624.042969 197.578125 L 588.78125 120.042969 Z M 697.730469 120.042969 " fill-opacity="1" fill-rule="nonzero"/><path fill="#e7f2f1" d="M 588.78125 120.042969 L 624.042969 197.578125 L 499.59375 197.578125 L 569.996094 120.042969 Z M 588.78125 120.042969 " fill-opacity="1" fill-rule="nonzero"/><path fill="#e7f2f1" d="M 655.902344 27.921875 L 689.277344 101.449219 L 586.898438 101.449219 L 653.652344 27.921875 Z M 655.902344 27.921875 " fill-opacity="1" fill-rule="nonzero"/><path fill="#e7f2f1" d="M 594.316406 27.921875 L 562.761719 62.679688 L 546.953125 27.921875 Z M 594.316406 27.921875 " fill-opacity="1" fill-rule="nonzero"/><path fill="#e7f2f1" d="M 510.660156 120.042969 L 476.433594 157.777344 L 459.289062 120.042969 Z M 510.660156 120.042969 " fill-opacity="1" fill-rule="nonzero"/><path fill="#e7f2f1" d="M 434.785156 66.203125 L 450.777344 101.449219 L 402.808594 101.449219 Z M 434.785156 66.203125 " fill-opacity="1" fill-rule="nonzero"/><path fill="#e7f2f1" d="M 562.761719 62.679688 L 527.5625 101.449219 L 450.777344 101.449219 L 434.785156 66.203125 L 469.5625 27.921875 L 546.953125 27.921875 Z M 562.761719 62.679688 " fill-opacity="1" fill-rule="nonzero"/><path fill="#e7f2f1" d="M 348.457031 161.300781 L 364.933594 197.578125 L 315.503906 197.578125 Z M 348.457031 161.300781 " fill-opacity="1" fill-rule="nonzero"/><path fill="#e7f2f1" d="M 459.289062 120.042969 L 476.433594 157.777344 L 440.257812 197.578125 L 364.933594 197.578125 L 348.457031 161.300781 L 385.90625 120.042969 Z M 459.289062 120.042969 " fill-opacity="1" fill-rule="nonzero"/><path fill="#e7f2f1" d="M 410.226562 27.921875 L 343.472656 101.449219 L 321.097656 101.449219 L 321.097656 101.082031 L 287.84375 27.921875 Z M 410.226562 27.921875 " fill-opacity="1" fill-rule="nonzero"/><path fill="#e7f2f1" d="M 202.667969 27.921875 L 171.296875 62.617188 L 155.550781 27.921875 Z M 202.667969 27.921875 " fill-opacity="1" fill-rule="nonzero"/><path fill="#e7f2f1" d="M 326.570312 120.042969 L 256.167969 197.578125 L 232.640625 197.578125 L 197.4375 120.101562 L 197.621094 120.042969 Z M 326.570312 120.042969 " fill-opacity="1" fill-rule="nonzero"/><path fill="#e7f2f1" d="M 321.097656 101.082031 L 321.097656 101.449219 L 188.929688 101.449219 L 255.683594 27.921875 L 287.84375 27.921875 Z M 321.097656 101.082031 " fill-opacity="1" fill-rule="nonzero"/><path fill="#e7f2f1" d="M 59.613281 149.636719 L 59.613281 202.078125 L 27.820312 202.078125 Z M 59.613281 149.636719 " fill-opacity="1" fill-rule="nonzero"/><path fill="#e7f2f1" d="M 131.050781 31.75 L 177.132812 133.167969 L 69.585938 133.167969 Z M 131.050781 31.75 " fill-opacity="1" fill-rule="nonzero"/><path fill="#ffa25a" d="M 69.585938 133.167969 L 59.613281 149.574219 L 59.613281 149.636719 L 27.820312 202.078125 C 25.75 205.359375 22.164062 207.421875 18.273438 207.421875 C 9.640625 207.421875 4.289062 197.945312 8.789062 190.53125 L 119.863281 7.199219 L 131.050781 31.75 Z M 69.585938 133.167969 " fill-opacity="1" fill-rule="nonzero"/><path fill="#ffa25a" d="M 759.558594 198.371094 L 678.640625 20.324219 C 675.050781 12.363281 667.027344 7.199219 658.273438 7.199219 L 119.863281 7.199219 L 131.050781 31.75 L 177.132812 133.167969 L 209.902344 205.296875 C 214.28125 214.898438 223.886719 221.097656 234.402344 221.097656 L 744.90625 221.097656 C 756.640625 221.097656 764.421875 209.003906 759.558594 198.371094 Z M 171.296875 62.617188 L 155.550781 27.921875 L 655.902344 27.921875 L 689.277344 101.449219 L 188.929688 101.449219 Z M 232.640625 197.578125 L 197.4375 120.101562 L 197.621094 120.042969 L 697.730469 120.042969 L 732.988281 197.578125 Z M 232.640625 197.578125 " fill-opacity="1" fill-rule="nonzero"/><g clip-path="url(#id1)"><path fill="#3a322b" d="M 765.097656 195.867188 L 684.195312 17.820312 C 679.59375 7.679688 669.410156 1.121094 658.261719 1.121094 L 119.882812 1.121094 C 119.433594 1.121094 118.988281 1.195312 118.558594 1.292969 C 118.507812 1.304688 118.453125 1.296875 118.40625 1.3125 C 117.734375 1.480469 117.128906 1.785156 116.554688 2.160156 C 116.417969 2.253906 116.28125 2.351562 116.15625 2.453125 C 115.632812 2.867188 115.144531 3.335938 114.773438 3.910156 C 114.757812 3.941406 114.75 3.976562 114.734375 4.007812 C 114.71875 4.027344 114.703125 4.039062 114.691406 4.058594 L 3.574219 187.382812 C 0.316406 192.761719 0.210938 199.25 3.300781 204.726562 C 6.386719 210.207031 11.992188 213.476562 18.285156 213.476562 C 22.992188 213.476562 27.4375 211.457031 30.644531 208.121094 L 53.523438 208.121094 L 53.523438 419.550781 C 53.523438 422.914062 56.242188 425.628906 59.601562 425.628906 L 744.925781 425.628906 C 748.28125 425.628906 750.996094 422.917969 751.003906 419.566406 C 751.078125 378.582031 751.285156 254.652344 751.066406 226.273438 C 756.148438 224.816406 760.597656 221.589844 763.546875 217.011719 C 767.648438 210.65625 768.226562 202.75 765.097656 195.867188 Z M 167.679688 127.078125 L 80.347656 127.078125 L 130.261719 44.722656 Z M 13.898438 198.757812 C 13.464844 197.988281 12.601562 195.949219 13.980469 193.679688 L 119.117188 20.195312 L 124.167969 31.3125 L 65.234375 128.554688 C 64.253906 129.375 63.601562 130.476562 63.292969 131.757812 L 22.597656 198.890625 C 21.691406 200.394531 20.035156 201.324219 18.285156 201.324219 C 15.628906 201.324219 14.328125 199.53125 13.898438 198.757812 Z M 38.59375 195.96875 L 53.53125 171.316406 L 53.53125 195.96875 Z M 65.6875 151.257812 L 72.976562 139.230469 L 173.199219 139.230469 L 204.359375 207.800781 C 209.695312 219.570312 221.503906 227.171875 234.433594 227.171875 L 237.863281 227.171875 L 237.863281 413.480469 L 199.796875 413.480469 L 199.796875 220.125 C 199.796875 216.769531 197.082031 214.046875 193.71875 214.046875 L 89.066406 214.046875 C 85.703125 214.046875 82.984375 216.769531 82.984375 220.125 L 82.984375 413.480469 L 65.6875 413.480469 Z M 374.398438 227.167969 L 374.398438 413.476562 L 322.507812 413.476562 L 322.507812 374.128906 C 343.640625 371.503906 364.085938 355.316406 364.085938 327.328125 C 364.085938 325.699219 363.4375 324.144531 362.273438 322.996094 C 361.121094 321.859375 359.691406 321.304688 357.917969 321.25 C 335.238281 321.589844 320.394531 330.394531 313.984375 346.898438 C 303.296875 329.84375 285.738281 322.300781 262.285156 324.953125 C 260.558594 325.144531 259 326.074219 258 327.492188 C 257 328.90625 256.648438 330.6875 257.050781 332.378906 C 263.726562 360.875 280.269531 375.273438 306.300781 375.273438 C 307.621094 375.273438 308.980469 375.199219 310.347656 375.125 L 310.347656 413.476562 L 250.023438 413.476562 L 250.023438 227.167969 Z M 503.304688 227.167969 L 503.304688 413.476562 L 470.046875 413.476562 C 475.433594 408.3125 479.652344 402.160156 482.492188 395.125 C 488.195312 380.984375 487.75 364.195312 481.257812 349.058594 C 480.21875 346.625 477.761719 345.164062 475.074219 345.40625 C 461.300781 346.753906 449.347656 354.460938 442.007812 366.351562 C 435.644531 362.164062 427.316406 360.007812 417.167969 360.179688 C 413.890625 360.195312 411.214844 362.804688 411.117188 366.078125 C 410.597656 384.367188 417.625 400.472656 431.527344 413.46875 L 386.5625 413.46875 L 386.5625 227.160156 L 503.304688 227.160156 Z M 647.476562 227.167969 L 647.476562 413.476562 L 588.421875 413.476562 L 588.421875 374.128906 C 609.554688 371.503906 630.003906 355.316406 630.003906 327.328125 C 630.003906 325.699219 629.351562 324.144531 628.191406 322.996094 C 627.035156 321.859375 625.507812 321.304688 623.832031 321.25 C 601.148438 321.589844 586.308594 330.394531 579.898438 346.898438 C 569.210938 329.855469 551.667969 322.328125 528.207031 324.953125 C 526.480469 325.144531 524.921875 326.074219 523.917969 327.492188 C 522.921875 328.90625 522.570312 330.683594 522.972656 332.378906 C 529.640625 360.875 546.183594 375.273438 572.222656 375.273438 C 573.539062 375.273438 574.902344 375.199219 576.269531 375.125 L 576.269531 413.476562 L 515.460938 413.476562 L 515.460938 227.167969 Z M 588.769531 361.777344 C 590.601562 344.835938 599.835938 335.796875 617.339844 333.816406 C 614.542969 351.195312 600.578125 359.546875 588.769531 361.777344 Z M 574.332031 363.089844 C 554.914062 363.855469 543.019531 355.40625 536.753906 336.574219 C 536.960938 336.574219 537.160156 336.574219 537.367188 336.574219 C 555.84375 336.574219 567.800781 345.15625 574.332031 363.089844 Z M 451.859375 411.792969 C 445.839844 401.261719 445.0625 388.410156 449.972656 377.214844 C 454.3125 367.34375 462.109375 360.628906 471.75 358.277344 C 475.335938 369.214844 475.179688 380.757812 471.214844 390.578125 C 467.5625 399.640625 460.917969 406.894531 451.859375 411.792969 Z M 435.140625 399.578125 C 429.152344 392.515625 424.5 383.675781 423.464844 372.652344 C 429.21875 373.304688 433.625 375.011719 436.902344 377.714844 C 434.695312 384.847656 434.125 392.304688 435.140625 399.578125 Z M 322.855469 361.777344 C 324.683594 344.835938 333.921875 335.796875 351.421875 333.816406 C 348.625 351.195312 334.65625 359.546875 322.855469 361.777344 Z M 308.417969 363.089844 C 289.015625 363.855469 277.105469 355.40625 270.84375 336.574219 C 289.515625 336.40625 301.8125 344.960938 308.417969 363.089844 Z M 95.144531 413.476562 L 95.144531 226.195312 L 187.644531 226.195312 L 187.644531 413.476562 Z M 701.207031 411.714844 C 696.671875 403.210938 696.183594 393.023438 700.101562 384.101562 C 703.523438 376.316406 709.566406 370.933594 717.042969 368.832031 C 719.730469 377.617188 719.519531 386.824219 716.351562 394.679688 C 713.449219 401.871094 708.257812 407.683594 701.207031 411.714844 Z M 685.476562 399.558594 C 681.691406 394.417969 678.785156 388.300781 677.871094 380.941406 C 681.695312 381.507812 684.742188 382.671875 687.089844 384.421875 C 685.628906 389.382812 685.15625 394.5 685.476562 399.558594 Z M 738.863281 413.476562 L 718.449219 413.476562 C 722.34375 409.355469 725.464844 404.597656 727.632812 399.226562 C 732.558594 387.035156 732.167969 372.566406 726.578125 359.539062 C 725.53125 357.109375 723.050781 355.644531 720.394531 355.886719 C 708.691406 357.035156 698.542969 363.476562 692.152344 373.414062 C 686.683594 370.125 679.777344 368.367188 671.484375 368.386719 C 668.207031 368.40625 665.53125 371.019531 665.433594 374.292969 C 665.003906 389.308594 670.511719 402.585938 681.367188 413.476562 L 659.632812 413.476562 L 659.632812 227.167969 L 738.9375 227.167969 C 739.101562 253.300781 738.949219 362.4375 738.863281 413.476562 Z M 753.332031 210.429688 C 751.453125 213.34375 748.390625 215.011719 744.929688 215.011719 L 511.761719 215.011719 C 511.03125 214.703125 510.222656 214.527344 509.375 214.527344 C 508.53125 214.527344 507.730469 214.703125 506.992188 215.011719 L 234.433594 215.011719 C 226.261719 215.011719 218.804688 210.207031 215.421875 202.769531 L 129.324219 13.277344 L 658.261719 13.277344 C 664.65625 13.277344 670.492188 17.035156 673.128906 22.851562 L 754.03125 200.898438 C 755.460938 204.046875 755.203125 207.519531 753.332031 210.429688 Z M 753.332031 210.429688 " fill-opacity="1" fill-rule="nonzero"/></g><path fill="#3a322b" d="M 703.265625 117.519531 C 702.28125 115.351562 700.117188 113.960938 697.734375 113.960938 L 588.660156 113.960938 C 588.65625 113.960938 588.65625 113.960938 588.648438 113.960938 L 459.109375 113.960938 C 459.105469 113.960938 459.105469 113.960938 459.097656 113.960938 L 329.566406 113.960938 C 329.5625 113.960938 329.5625 113.960938 329.554688 113.960938 L 197.632812 113.960938 C 196.65625 113.960938 195.730469 114.191406 194.910156 114.597656 C 191.859375 115.988281 190.507812 119.585938 191.902344 122.644531 L 227.089844 200.101562 C 228.074219 202.269531 230.238281 203.664062 232.621094 203.664062 L 732.972656 203.664062 C 735.039062 203.664062 736.960938 202.609375 738.085938 200.878906 C 739.203125 199.140625 739.363281 196.953125 738.503906 195.074219 Z M 368.867188 191.507812 L 355.640625 162.414062 L 388.601562 126.113281 L 455.339844 126.113281 L 469.214844 156.648438 L 437.558594 191.507812 Z M 269.902344 191.507812 L 326.957031 128.664062 L 341.269531 160.160156 L 312.8125 191.503906 L 269.902344 191.503906 Z M 339.148438 126.113281 L 372.191406 126.113281 L 350.171875 150.363281 Z M 346.742188 172.210938 L 355.507812 191.507812 L 329.21875 191.507812 Z M 556.269531 126.113281 L 497.90625 190.390625 L 483.59375 158.894531 L 513.359375 126.113281 Z M 478.117188 146.847656 L 468.691406 126.113281 L 496.9375 126.113281 Z M 474.691406 168.699219 L 485.058594 191.507812 L 453.980469 191.507812 Z M 572.683594 126.113281 L 584.890625 126.113281 L 614.609375 191.507812 L 513.304688 191.507812 Z M 206.828125 126.113281 L 312.867188 126.113281 L 253.488281 191.507812 L 236.542969 191.507812 Z M 627.960938 191.507812 L 598.242188 126.113281 L 693.8125 126.113281 L 723.53125 191.507812 Z M 627.960938 191.507812 " fill-opacity="1" fill-rule="nonzero"/><path fill="#3a322b" d="M 161.199219 302.910156 C 150.390625 302.910156 141.59375 311.699219 141.59375 322.507812 C 141.59375 333.320312 150.382812 342.105469 161.199219 342.105469 C 172.015625 342.105469 180.804688 333.320312 180.804688 322.507812 C 180.804688 311.699219 172.007812 302.910156 161.199219 302.910156 Z M 161.199219 329.945312 C 157.09375 329.945312 153.75 326.605469 153.75 322.503906 C 153.75 318.402344 157.09375 315.058594 161.199219 315.058594 C 165.300781 315.058594 168.644531 318.402344 168.644531 322.503906 C 168.644531 326.605469 165.300781 329.945312 161.199219 329.945312 Z M 161.199219 329.945312 " fill-opacity="1" fill-rule="nonzero"/><path fill="#3a322b" d="M 186.976562 107.152344 C 187.601562 107.367188 188.253906 107.511719 188.941406 107.511719 L 450.792969 107.511719 C 450.800781 107.511719 450.804688 107.511719 450.8125 107.511719 C 450.816406 107.511719 450.824219 107.511719 450.824219 107.511719 L 689.277344 107.511719 C 691.34375 107.511719 693.265625 106.460938 694.390625 104.730469 C 695.507812 102.992188 695.667969 100.804688 694.808594 98.925781 L 661.402344 25.40625 C 660.417969 23.234375 658.253906 21.84375 655.871094 21.84375 L 155.527344 21.84375 C 153.460938 21.84375 151.539062 22.894531 150.414062 24.625 C 149.296875 26.363281 149.136719 28.550781 149.996094 30.429688 L 165.78125 65.175781 C 165.789062 65.1875 165.789062 65.195312 165.796875 65.207031 L 183.402344 103.949219 C 183.402344 103.957031 183.40625 103.964844 183.414062 103.96875 C 183.4375 104.019531 183.480469 104.058594 183.503906 104.109375 C 183.808594 104.722656 184.214844 105.25 184.691406 105.71875 C 184.757812 105.785156 184.78125 105.878906 184.855469 105.9375 C 184.953125 106.023438 185.074219 106.054688 185.171875 106.132812 C 185.558594 106.449219 185.980469 106.703125 186.441406 106.910156 C 186.617188 106.984375 186.789062 107.085938 186.976562 107.152344 Z M 178.484375 63.730469 L 205.355469 33.992188 L 241.964844 33.992188 L 190.65625 90.503906 Z M 283.941406 33.992188 L 311.828125 95.359375 L 202.660156 95.359375 L 258.375 33.992188 Z M 543.027344 33.992188 L 555.558594 61.558594 L 524.867188 95.359375 L 454.722656 95.359375 L 441.984375 67.328125 L 472.25 33.992188 Z M 639.910156 33.992188 L 584.242188 95.304688 L 569.929688 63.808594 L 597.003906 33.992188 Z M 570.914062 95.351562 L 541.28125 95.351562 L 561.027344 73.605469 Z M 564.457031 51.757812 L 556.382812 33.992188 L 580.59375 33.992188 Z M 441.371094 95.351562 L 416.535156 95.351562 L 433.089844 77.121094 Z M 436.507812 55.277344 L 426.835938 33.992188 L 455.832031 33.992188 Z M 413.488281 33.992188 L 427.613281 65.078125 L 400.121094 95.359375 L 357.203125 95.359375 L 412.925781 33.992188 Z M 340.789062 95.351562 L 325.175781 95.351562 L 297.289062 33.992188 L 396.507812 33.992188 Z M 679.84375 95.351562 L 600.605469 95.351562 L 653.414062 37.199219 Z M 188.96875 33.992188 L 173.003906 51.667969 L 164.972656 33.992188 Z M 188.96875 33.992188 " fill-opacity="1" fill-rule="nonzero"/></svg>