<svg xmlns="http://www.w3.org/2000/svg" xmlns:xlink="http://www.w3.org/1999/xlink" width="1024" zoomAndPan="magnify" viewBox="0 0 768 767.999994" height="1024" preserveAspectRatio="xMidYMid meet" version="1.0"><path fill="#56b48c" d="M 384 0 C 171.957031 0 0 171.957031 0 384 C 0 596.042969 171.957031 768 384 768 C 596.042969 768 768 596.042969 768 384 C 768 171.957031 596.042969 0 384 0 Z M 384 0 " fill-opacity="1" fill-rule="nonzero"/><path fill="#e3fcbf" d="M 293.609375 225.042969 C 288.8125 218.855469 282.3125 215.757812 274.261719 215.757812 C 267.144531 215.757812 262.347656 217.152344 259.714844 219.78125 C 257.082031 222.566406 251.667969 229.6875 243.152344 241.605469 C 234.640625 253.367188 225.042969 264.046875 214.054688 273.644531 C 203.066406 283.242188 188.515625 292.21875 170.253906 300.886719 C 158.027344 306.613281 149.515625 311.253906 144.5625 314.96875 C 139.761719 318.53125 137.285156 324.257812 137.285156 331.996094 C 137.285156 338.652344 139.761719 344.53125 144.714844 349.640625 C 149.667969 354.746094 155.242188 357.222656 161.585938 357.222656 C 174.898438 357.222656 200.746094 342.519531 239.128906 312.957031 L 239.128906 519.273438 C 239.128906 531.347656 241.914062 540.480469 247.488281 546.671875 C 253.058594 552.859375 260.488281 555.957031 269.773438 555.957031 C 290.515625 555.957031 300.886719 540.789062 300.886719 510.453125 L 300.886719 250.738281 C 300.730469 239.902344 298.410156 231.234375 293.609375 225.042969 " fill-opacity="1" fill-rule="nonzero"/><path fill="#e3fcbf" d="M 620.652344 281.382812 C 613.996094 266.988281 605.949219 254.917969 596.351562 245.164062 C 586.757812 235.414062 575.613281 227.984375 562.921875 222.878906 C 550.230469 217.769531 536.144531 215.292969 520.511719 215.292969 C 496.988281 215.292969 476.710938 221.019531 459.6875 232.472656 C 442.660156 243.925781 429.660156 260.488281 420.835938 282.3125 C 415.730469 295.46875 411.859375 311.253906 409.539062 329.519531 C 407.0625 347.78125 405.976562 368.367188 405.976562 391.121094 C 405.976562 408.765625 407.0625 425.171875 409.230469 440.492188 C 411.394531 455.660156 414.800781 469.589844 419.597656 482.128906 C 428.886719 505.035156 442.503906 523.144531 460.769531 536.144531 C 479.03125 549.144531 499.617188 555.648438 522.523438 555.648438 C 542.492188 555.648438 560.601562 550.847656 577.007812 541.097656 C 593.414062 531.347656 606.566406 517.726562 616.9375 499.773438 C 625.140625 485.222656 630.714844 469.125 633.652344 451.328125 C 636.75 433.527344 638.144531 412.167969 638.144531 387.40625 C 637.988281 341.589844 632.105469 306.300781 620.652344 281.382812 M 570.96875 453.496094 C 567.71875 471.449219 562.300781 485.378906 554.410156 494.972656 C 546.515625 504.726562 535.679688 509.523438 521.75 509.523438 C 508.285156 509.523438 497.605469 504.878906 489.710938 495.59375 C 481.820312 486.308594 476.246094 472.53125 472.996094 454.421875 C 469.746094 436.3125 468.042969 412.941406 468.042969 384.617188 C 468.042969 342.828125 471.914062 311.71875 479.652344 291.597656 C 487.390625 271.476562 501.320312 261.417969 521.285156 261.417969 C 535.214844 261.417969 546.050781 265.90625 553.945312 274.882812 C 561.839844 283.859375 567.410156 297.171875 570.660156 314.816406 C 573.910156 332.460938 575.613281 355.058594 575.613281 382.761719 C 575.769531 411.859375 574.21875 435.386719 570.96875 453.496094 " fill-opacity="1" fill-rule="nonzero"/></svg>