<svg xmlns="http://www.w3.org/2000/svg" xmlns:xlink="http://www.w3.org/1999/xlink" width="1024" zoomAndPan="magnify" viewBox="0 0 768 767.999994" height="1024" preserveAspectRatio="xMidYMid meet" version="1.0"><defs><g/><clipPath id="id1"><path d="M 384 0 C 171.921875 0 0 171.921875 0 384 C 0 596.078125 171.921875 768 384 768 C 596.078125 768 768 596.078125 768 384 C 768 171.921875 596.078125 0 384 0 " clip-rule="nonzero"/></clipPath></defs><path fill="#14c38e" d="M 384 0 C 171.921875 0 0 171.921875 0 384 C 0 596.078125 171.921875 768 384 768 C 596.078125 768 768 596.078125 768 384 C 768 171.921875 596.078125 0 384 0 " fill-opacity="1" fill-rule="nonzero"/><g clip-path="url(#id1)"><path stroke-linecap="butt" transform="matrix(0.75, 0, 0, 0.75, 0.000003, 0.00002)" fill="none" stroke-linejoin="miter" d="M 512.000021 -0.0000266667 C 229.229174 -0.0000266667 -0.000004 229.229151 -0.000004 511.999999 C -0.000004 794.770846 229.229174 1024.000024 512.000021 1024.000024 C 794.770869 1024.000024 1024.000047 794.770846 1024.000047 511.999999 C 1024.000047 229.229151 794.770869 -0.0000266667 512.000021 -0.0000266667 " stroke="#000000" stroke-width="8" stroke-opacity="1" stroke-miterlimit="4"/></g><g fill="#e3fcbf" fill-opacity="1"><g transform="translate(55.869141, 575.059884)"><g><path d="M 257.578125 0 L 147.9375 0 L 147.9375 -211.640625 C 147.9375 -237.347656 148.484375 -260.867188 149.578125 -282.203125 C 142.828125 -273.992188 134.441406 -265.421875 124.421875 -256.484375 L 79.03125 -219.03125 L 22.96875 -287.9375 L 160.234375 -399.78125 L 257.578125 -399.78125 Z M 257.578125 0 "/></g></g><g transform="translate(383.99998, 575.059884)"><g><path d="M 309.8125 -216.84375 C 309.8125 -138.632812 292.945312 -82.03125 259.21875 -47.03125 C 225.5 -12.03125 171.539062 5.46875 97.34375 5.46875 C 72.914062 5.46875 54.320312 4.554688 41.5625 2.734375 L 41.5625 -82.859375 C 57.238281 -79.941406 72.914062 -78.484375 88.59375 -78.484375 C 127.238281 -78.484375 157.039062 -86.457031 178 -102.40625 C 198.96875 -118.351562 210.363281 -143.554688 212.1875 -178.015625 L 208.90625 -178.015625 C 201.800781 -164.890625 194.785156 -155.410156 187.859375 -149.578125 C 180.929688 -143.742188 172.453125 -139.273438 162.421875 -136.171875 C 152.398438 -133.078125 139.914062 -131.53125 124.96875 -131.53125 C 90.332031 -131.53125 63.257812 -143.101562 43.75 -166.25 C 24.25 -189.40625 14.5 -221.304688 14.5 -261.953125 C 14.5 -306.253906 27.117188 -340.984375 52.359375 -366.140625 C 77.609375 -391.296875 112.203125 -403.875 156.140625 -403.875 C 204.992188 -403.875 242.816406 -387.648438 269.609375 -355.203125 C 296.410156 -322.753906 309.8125 -276.632812 309.8125 -216.84375 Z M 159.140625 -317.46875 C 147.296875 -317.46875 137.679688 -313.179688 130.296875 -304.609375 C 122.910156 -296.046875 119.21875 -282.285156 119.21875 -263.328125 C 119.21875 -248.378906 122.40625 -236.484375 128.78125 -227.640625 C 135.164062 -218.796875 144.921875 -214.375 158.046875 -214.375 C 169.898438 -214.375 180.203125 -218.65625 188.953125 -227.21875 C 197.703125 -235.789062 202.078125 -246.09375 202.078125 -258.125 C 202.078125 -274.351562 198.019531 -288.300781 189.90625 -299.96875 C 181.789062 -311.632812 171.535156 -317.46875 159.140625 -317.46875 Z M 159.140625 -317.46875 "/></g></g></g></svg>