<svg xmlns="http://www.w3.org/2000/svg" xmlns:xlink="http://www.w3.org/1999/xlink" width="414" zoomAndPan="magnify" viewBox="0 0 310.5 338.999992" height="452" preserveAspectRatio="xMidYMid meet" version="1.0"><defs><clipPath id="id1"><path d="M 55 0.433594 L 289 0.433594 L 289 183 L 55 183 Z M 55 0.433594 " clip-rule="nonzero"/></clipPath><clipPath id="id2"><path d="M 0 64 L 310 64 L 310 338.726562 L 0 338.726562 Z M 0 64 " clip-rule="nonzero"/></clipPath></defs><path fill="#ff6d55" d="M 160.03125 275.9375 C 160.03125 276.261719 160 276.585938 159.9375 276.910156 C 159.875 277.230469 159.777344 277.542969 159.652344 277.84375 C 159.527344 278.148438 159.375 278.433594 159.191406 278.707031 C 159.011719 278.980469 158.804688 279.230469 158.574219 279.460938 C 158.34375 279.695312 158.089844 279.898438 157.816406 280.082031 C 157.546875 280.265625 157.257812 280.417969 156.957031 280.542969 C 156.652344 280.667969 156.34375 280.761719 156.019531 280.828125 C 155.699219 280.890625 155.375 280.921875 155.050781 280.921875 C 154.722656 280.921875 154.398438 280.890625 154.078125 280.828125 C 153.753906 280.761719 153.445312 280.667969 153.140625 280.542969 C 152.839844 280.417969 152.550781 280.265625 152.28125 280.082031 C 152.007812 279.898438 151.757812 279.695312 151.523438 279.460938 C 151.292969 279.230469 151.085938 278.980469 150.90625 278.707031 C 150.722656 278.433594 150.570312 278.148438 150.445312 277.84375 C 150.320312 277.542969 150.222656 277.230469 150.160156 276.910156 C 150.097656 276.585938 150.066406 276.261719 150.066406 275.9375 C 150.066406 275.609375 150.097656 275.285156 150.160156 274.964844 C 150.222656 274.640625 150.320312 274.332031 150.445312 274.027344 C 150.570312 273.726562 150.722656 273.4375 150.90625 273.164062 C 151.085938 272.894531 151.292969 272.640625 151.523438 272.410156 C 151.757812 272.179688 152.007812 271.972656 152.28125 271.789062 C 152.550781 271.609375 152.839844 271.453125 153.140625 271.328125 C 153.445312 271.203125 153.753906 271.109375 154.078125 271.046875 C 154.398438 270.980469 154.722656 270.949219 155.050781 270.949219 C 155.375 270.949219 155.699219 270.980469 156.019531 271.046875 C 156.34375 271.109375 156.652344 271.203125 156.957031 271.328125 C 157.257812 271.453125 157.546875 271.609375 157.816406 271.789062 C 158.089844 271.972656 158.34375 272.179688 158.574219 272.410156 C 158.804688 272.640625 159.011719 272.894531 159.191406 273.164062 C 159.375 273.4375 159.527344 273.726562 159.652344 274.027344 C 159.777344 274.332031 159.875 274.640625 159.9375 274.964844 C 160 275.285156 160.03125 275.609375 160.03125 275.9375 Z M 160.03125 275.9375 " fill-opacity="1" fill-rule="nonzero"/><g clip-path="url(#id1)"><path fill="#fdd04c" d="M 288.734375 5.300781 C 288.734375 4.96875 288.703125 4.640625 288.636719 4.320312 C 288.574219 3.996094 288.476562 3.679688 288.351562 3.375 C 288.226562 3.070312 288.070312 2.78125 287.886719 2.507812 C 287.703125 2.230469 287.496094 1.976562 287.261719 1.746094 C 287.03125 1.511719 286.777344 1.304688 286.5 1.121094 C 286.226562 0.9375 285.9375 0.78125 285.632812 0.65625 C 285.328125 0.527344 285.015625 0.433594 284.691406 0.367188 C 284.367188 0.304688 284.039062 0.273438 283.710938 0.273438 L 250.230469 0.273438 C 249.898438 0.273438 249.570312 0.304688 249.25 0.367188 C 248.925781 0.433594 248.609375 0.527344 248.304688 0.65625 C 248 0.78125 247.710938 0.9375 247.4375 1.121094 C 247.164062 1.304688 246.910156 1.511719 246.675781 1.746094 C 246.441406 1.976562 246.234375 2.230469 246.050781 2.507812 C 245.867188 2.78125 245.714844 3.070312 245.585938 3.375 C 245.460938 3.679688 245.363281 3.996094 245.300781 4.320312 C 245.238281 4.640625 245.203125 4.96875 245.203125 5.300781 C 245.203125 5.628906 245.238281 5.957031 245.300781 6.28125 C 245.363281 6.601562 245.460938 6.917969 245.585938 7.222656 C 245.714844 7.527344 245.867188 7.816406 246.050781 8.089844 C 246.234375 8.367188 246.441406 8.621094 246.675781 8.851562 C 246.910156 9.085938 247.164062 9.296875 247.4375 9.480469 C 247.710938 9.660156 248 9.816406 248.304688 9.941406 C 248.609375 10.070312 248.925781 10.164062 249.25 10.230469 C 249.570312 10.292969 249.898438 10.324219 250.230469 10.324219 L 271.773438 10.324219 L 159.589844 136.234375 L 114.695312 104.828125 C 114.429688 104.644531 114.144531 104.488281 113.851562 104.359375 C 113.554688 104.230469 113.246094 104.128906 112.933594 104.058594 C 112.617188 103.988281 112.296875 103.949219 111.976562 103.9375 C 111.652344 103.929688 111.332031 103.949219 111.011719 104.003906 C 110.691406 104.054688 110.382812 104.136719 110.078125 104.246094 C 109.773438 104.359375 109.484375 104.5 109.207031 104.664062 C 108.929688 104.832031 108.671875 105.023438 108.433594 105.242188 C 108.191406 105.457031 107.976562 105.695312 107.78125 105.953125 L 56.652344 174.917969 C 56.460938 175.1875 56.296875 175.472656 56.160156 175.773438 C 56.023438 176.074219 55.917969 176.386719 55.84375 176.707031 C 55.765625 177.027344 55.722656 177.355469 55.710938 177.683594 C 55.699219 178.015625 55.71875 178.34375 55.769531 178.667969 C 55.824219 178.996094 55.90625 179.3125 56.019531 179.625 C 56.136719 179.933594 56.277344 180.230469 56.449219 180.511719 C 56.621094 180.792969 56.820312 181.054688 57.042969 181.300781 C 57.269531 181.542969 57.511719 181.761719 57.78125 181.957031 C 58.683594 182.59375 59.6875 182.917969 60.792969 182.921875 C 61.585938 182.929688 62.335938 182.753906 63.046875 182.398438 C 63.753906 182.046875 64.34375 181.550781 64.8125 180.910156 L 113.046875 115.886719 L 157.5 147.210938 C 158.003906 147.566406 158.554688 147.820312 159.152344 147.96875 C 159.746094 148.121094 160.351562 148.164062 160.960938 148.09375 C 161.574219 148.019531 162.152344 147.84375 162.699219 147.5625 C 163.246094 147.277344 163.722656 146.90625 164.132812 146.449219 L 278.847656 17.644531 L 278.847656 36.261719 C 278.84375 36.59375 278.875 36.921875 278.9375 37.246094 C 279 37.570312 279.09375 37.886719 279.21875 38.195312 C 279.34375 38.5 279.496094 38.789062 279.679688 39.066406 C 279.863281 39.339844 280.074219 39.597656 280.304688 39.828125 C 280.539062 40.0625 280.792969 40.273438 281.070312 40.457031 C 281.34375 40.640625 281.636719 40.792969 281.941406 40.917969 C 282.246094 41.042969 282.5625 41.136719 282.886719 41.199219 C 283.210938 41.261719 283.539062 41.292969 283.871094 41.289062 C 284.199219 41.289062 284.527344 41.257812 284.851562 41.195312 C 285.175781 41.128906 285.488281 41.035156 285.792969 40.90625 C 286.097656 40.78125 286.386719 40.625 286.664062 40.441406 C 286.9375 40.257812 287.191406 40.050781 287.421875 39.816406 C 287.65625 39.585938 287.863281 39.332031 288.046875 39.054688 C 288.230469 38.78125 288.386719 38.492188 288.511719 38.1875 C 288.640625 37.882812 288.734375 37.566406 288.796875 37.242188 C 288.863281 36.921875 288.894531 36.59375 288.894531 36.261719 Z M 288.734375 5.300781 " fill-opacity="1" fill-rule="nonzero"/></g><path fill="#3c6a98" d="M 37.199219 231.179688 L 8.664062 231.179688 C 8.332031 231.179688 8.003906 231.144531 7.683594 231.082031 C 7.359375 231.015625 7.042969 230.921875 6.738281 230.796875 C 6.433594 230.667969 6.144531 230.515625 5.871094 230.332031 C 5.597656 230.148438 5.34375 229.941406 5.109375 229.707031 C 4.875 229.472656 4.667969 229.21875 4.484375 228.945312 C 4.300781 228.671875 4.148438 228.378906 4.019531 228.074219 C 3.894531 227.769531 3.800781 227.457031 3.734375 227.132812 C 3.671875 226.808594 3.636719 226.480469 3.636719 226.152344 C 3.636719 225.820312 3.671875 225.496094 3.734375 225.171875 C 3.800781 224.847656 3.894531 224.53125 4.019531 224.226562 C 4.148438 223.921875 4.300781 223.632812 4.484375 223.359375 C 4.667969 223.085938 4.875 222.832031 5.109375 222.597656 C 5.34375 222.363281 5.597656 222.15625 5.871094 221.972656 C 6.144531 221.789062 6.433594 221.632812 6.738281 221.507812 C 7.042969 221.382812 7.359375 221.285156 7.683594 221.222656 C 8.003906 221.15625 8.332031 221.125 8.664062 221.125 L 37.199219 221.125 C 37.53125 221.125 37.855469 221.15625 38.179688 221.222656 C 38.503906 221.285156 38.816406 221.382812 39.121094 221.507812 C 39.425781 221.632812 39.71875 221.789062 39.992188 221.972656 C 40.265625 222.15625 40.519531 222.363281 40.753906 222.597656 C 40.984375 222.832031 41.195312 223.085938 41.378906 223.359375 C 41.5625 223.632812 41.714844 223.921875 41.84375 224.226562 C 41.96875 224.53125 42.0625 224.847656 42.128906 225.171875 C 42.191406 225.496094 42.222656 225.820312 42.222656 226.152344 C 42.222656 226.480469 42.191406 226.808594 42.128906 227.132812 C 42.0625 227.457031 41.96875 227.769531 41.84375 228.074219 C 41.714844 228.378906 41.5625 228.671875 41.378906 228.945312 C 41.195312 229.21875 40.984375 229.472656 40.753906 229.707031 C 40.519531 229.941406 40.265625 230.148438 39.992188 230.332031 C 39.71875 230.515625 39.425781 230.667969 39.121094 230.796875 C 38.816406 230.921875 38.503906 231.015625 38.179688 231.082031 C 37.855469 231.144531 37.53125 231.179688 37.199219 231.179688 Z M 37.199219 231.179688 " fill-opacity="1" fill-rule="nonzero"/><path fill="#3c6a98" d="M 37.199219 201.019531 L 8.664062 201.019531 C 8.332031 201.019531 8.003906 200.984375 7.683594 200.921875 C 7.359375 200.855469 7.042969 200.761719 6.738281 200.636719 C 6.433594 200.507812 6.144531 200.355469 5.871094 200.171875 C 5.597656 199.988281 5.34375 199.78125 5.109375 199.546875 C 4.875 199.3125 4.667969 199.058594 4.484375 198.785156 C 4.300781 198.511719 4.148438 198.21875 4.019531 197.914062 C 3.894531 197.609375 3.800781 197.296875 3.734375 196.972656 C 3.671875 196.648438 3.636719 196.320312 3.636719 195.992188 C 3.636719 195.660156 3.671875 195.335938 3.734375 195.011719 C 3.800781 194.6875 3.894531 194.371094 4.019531 194.066406 C 4.148438 193.761719 4.300781 193.472656 4.484375 193.199219 C 4.667969 192.925781 4.875 192.671875 5.109375 192.4375 C 5.34375 192.203125 5.597656 191.996094 5.871094 191.8125 C 6.144531 191.628906 6.433594 191.472656 6.738281 191.347656 C 7.042969 191.222656 7.359375 191.125 7.683594 191.0625 C 8.003906 190.996094 8.332031 190.964844 8.664062 190.964844 L 37.199219 190.964844 C 37.53125 190.964844 37.855469 190.996094 38.179688 191.0625 C 38.503906 191.125 38.816406 191.222656 39.121094 191.347656 C 39.425781 191.472656 39.71875 191.628906 39.992188 191.8125 C 40.265625 191.996094 40.519531 192.203125 40.753906 192.4375 C 40.984375 192.671875 41.195312 192.925781 41.378906 193.199219 C 41.5625 193.472656 41.714844 193.761719 41.84375 194.066406 C 41.96875 194.371094 42.0625 194.6875 42.128906 195.011719 C 42.191406 195.335938 42.222656 195.660156 42.222656 195.992188 C 42.222656 196.320312 42.191406 196.648438 42.128906 196.972656 C 42.0625 197.296875 41.96875 197.609375 41.84375 197.914062 C 41.714844 198.21875 41.5625 198.511719 41.378906 198.785156 C 41.195312 199.058594 40.984375 199.3125 40.753906 199.546875 C 40.519531 199.78125 40.265625 199.988281 39.992188 200.171875 C 39.71875 200.355469 39.425781 200.507812 39.121094 200.636719 C 38.816406 200.761719 38.503906 200.855469 38.179688 200.921875 C 37.855469 200.984375 37.53125 201.019531 37.199219 201.019531 Z M 37.199219 201.019531 " fill-opacity="1" fill-rule="nonzero"/><path fill="#3c6a98" d="M 37.199219 170.859375 L 8.664062 170.859375 C 8.332031 170.859375 8.003906 170.824219 7.683594 170.761719 C 7.359375 170.695312 7.042969 170.601562 6.738281 170.476562 C 6.433594 170.347656 6.144531 170.195312 5.871094 170.011719 C 5.597656 169.828125 5.34375 169.621094 5.109375 169.386719 C 4.875 169.152344 4.667969 168.898438 4.484375 168.625 C 4.300781 168.351562 4.148438 168.058594 4.019531 167.753906 C 3.894531 167.449219 3.800781 167.136719 3.734375 166.8125 C 3.671875 166.488281 3.636719 166.160156 3.636719 165.832031 C 3.636719 165.5 3.671875 165.175781 3.734375 164.851562 C 3.800781 164.527344 3.894531 164.210938 4.019531 163.90625 C 4.148438 163.601562 4.300781 163.3125 4.484375 163.039062 C 4.667969 162.765625 4.875 162.511719 5.109375 162.277344 C 5.34375 162.042969 5.597656 161.835938 5.871094 161.652344 C 6.144531 161.46875 6.433594 161.3125 6.738281 161.1875 C 7.042969 161.0625 7.359375 160.964844 7.683594 160.902344 C 8.003906 160.835938 8.332031 160.804688 8.664062 160.804688 L 37.199219 160.804688 C 37.53125 160.804688 37.855469 160.835938 38.179688 160.902344 C 38.503906 160.964844 38.816406 161.0625 39.121094 161.1875 C 39.425781 161.3125 39.71875 161.46875 39.992188 161.652344 C 40.265625 161.835938 40.519531 162.042969 40.753906 162.277344 C 40.984375 162.511719 41.195312 162.765625 41.378906 163.039062 C 41.5625 163.3125 41.714844 163.601562 41.84375 163.90625 C 41.96875 164.210938 42.0625 164.527344 42.128906 164.851562 C 42.191406 165.175781 42.222656 165.5 42.222656 165.832031 C 42.222656 166.160156 42.191406 166.488281 42.128906 166.8125 C 42.0625 167.136719 41.96875 167.449219 41.84375 167.753906 C 41.714844 168.058594 41.5625 168.351562 41.378906 168.625 C 41.195312 168.898438 40.984375 169.152344 40.753906 169.386719 C 40.519531 169.621094 40.265625 169.828125 39.992188 170.011719 C 39.71875 170.195312 39.425781 170.347656 39.121094 170.476562 C 38.816406 170.601562 38.503906 170.695312 38.179688 170.761719 C 37.855469 170.824219 37.53125 170.859375 37.199219 170.859375 Z M 37.199219 170.859375 " fill-opacity="1" fill-rule="nonzero"/><path fill="#3c6a98" d="M 37.199219 140.699219 L 8.664062 140.699219 C 8.332031 140.699219 8.003906 140.664062 7.683594 140.601562 C 7.359375 140.535156 7.042969 140.441406 6.738281 140.316406 C 6.433594 140.1875 6.144531 140.035156 5.871094 139.851562 C 5.597656 139.667969 5.34375 139.460938 5.109375 139.226562 C 4.875 138.992188 4.667969 138.738281 4.484375 138.464844 C 4.300781 138.191406 4.148438 137.898438 4.019531 137.59375 C 3.894531 137.289062 3.800781 136.976562 3.734375 136.652344 C 3.671875 136.328125 3.636719 136 3.636719 135.671875 C 3.636719 135.339844 3.671875 135.015625 3.734375 134.691406 C 3.800781 134.367188 3.894531 134.050781 4.019531 133.746094 C 4.148438 133.441406 4.300781 133.152344 4.484375 132.878906 C 4.667969 132.605469 4.875 132.351562 5.109375 132.117188 C 5.34375 131.882812 5.597656 131.675781 5.871094 131.492188 C 6.144531 131.308594 6.433594 131.152344 6.738281 131.027344 C 7.042969 130.902344 7.359375 130.804688 7.683594 130.742188 C 8.003906 130.675781 8.332031 130.644531 8.664062 130.644531 L 37.199219 130.644531 C 37.53125 130.644531 37.855469 130.675781 38.179688 130.742188 C 38.503906 130.804688 38.816406 130.902344 39.121094 131.027344 C 39.425781 131.152344 39.71875 131.308594 39.992188 131.492188 C 40.265625 131.675781 40.519531 131.882812 40.753906 132.117188 C 40.984375 132.351562 41.195312 132.605469 41.378906 132.878906 C 41.5625 133.152344 41.714844 133.441406 41.84375 133.746094 C 41.96875 134.050781 42.0625 134.367188 42.128906 134.691406 C 42.191406 135.015625 42.222656 135.339844 42.222656 135.671875 C 42.222656 136 42.191406 136.328125 42.128906 136.652344 C 42.0625 136.976562 41.96875 137.289062 41.84375 137.59375 C 41.714844 137.898438 41.5625 138.191406 41.378906 138.464844 C 41.195312 138.738281 40.984375 138.992188 40.753906 139.226562 C 40.519531 139.460938 40.265625 139.667969 39.992188 139.851562 C 39.71875 140.035156 39.425781 140.1875 39.121094 140.316406 C 38.816406 140.441406 38.503906 140.535156 38.179688 140.601562 C 37.855469 140.664062 37.53125 140.699219 37.199219 140.699219 Z M 37.199219 140.699219 " fill-opacity="1" fill-rule="nonzero"/><path fill="#3c6a98" d="M 37.199219 110.539062 L 8.664062 110.539062 C 8.332031 110.539062 8.003906 110.503906 7.683594 110.441406 C 7.359375 110.375 7.042969 110.28125 6.738281 110.15625 C 6.433594 110.027344 6.144531 109.875 5.871094 109.691406 C 5.597656 109.507812 5.34375 109.300781 5.109375 109.066406 C 4.875 108.832031 4.667969 108.578125 4.484375 108.304688 C 4.300781 108.03125 4.148438 107.738281 4.019531 107.433594 C 3.894531 107.128906 3.800781 106.816406 3.734375 106.492188 C 3.671875 106.167969 3.636719 105.839844 3.636719 105.511719 C 3.636719 105.179688 3.671875 104.855469 3.734375 104.53125 C 3.800781 104.207031 3.894531 103.890625 4.019531 103.585938 C 4.148438 103.28125 4.300781 102.992188 4.484375 102.71875 C 4.667969 102.445312 4.875 102.191406 5.109375 101.957031 C 5.34375 101.722656 5.597656 101.515625 5.871094 101.332031 C 6.144531 101.148438 6.433594 100.992188 6.738281 100.867188 C 7.042969 100.742188 7.359375 100.644531 7.683594 100.582031 C 8.003906 100.515625 8.332031 100.484375 8.664062 100.484375 L 37.199219 100.484375 C 37.53125 100.484375 37.855469 100.515625 38.179688 100.582031 C 38.503906 100.644531 38.816406 100.742188 39.121094 100.867188 C 39.425781 100.992188 39.71875 101.148438 39.992188 101.332031 C 40.265625 101.515625 40.519531 101.722656 40.753906 101.957031 C 40.984375 102.191406 41.195312 102.445312 41.378906 102.71875 C 41.5625 102.992188 41.714844 103.28125 41.84375 103.585938 C 41.96875 103.890625 42.0625 104.207031 42.128906 104.53125 C 42.191406 104.855469 42.222656 105.179688 42.222656 105.511719 C 42.222656 105.839844 42.191406 106.167969 42.128906 106.492188 C 42.0625 106.816406 41.96875 107.128906 41.84375 107.433594 C 41.714844 107.738281 41.5625 108.03125 41.378906 108.304688 C 41.195312 108.578125 40.984375 108.832031 40.753906 109.066406 C 40.519531 109.300781 40.265625 109.507812 39.992188 109.691406 C 39.71875 109.875 39.425781 110.027344 39.121094 110.15625 C 38.816406 110.28125 38.503906 110.375 38.179688 110.441406 C 37.855469 110.503906 37.53125 110.539062 37.199219 110.539062 Z M 37.199219 110.539062 " fill-opacity="1" fill-rule="nonzero"/><g clip-path="url(#id2)"><path fill="#4c91d4" d="M 308.953125 256.433594 L 308.953125 77.765625 C 308.953125 76.878906 308.867188 76.003906 308.691406 75.136719 C 308.519531 74.269531 308.265625 73.425781 307.925781 72.609375 C 307.589844 71.792969 307.175781 71.015625 306.683594 70.28125 C 306.191406 69.542969 305.632812 68.863281 305.007812 68.238281 C 304.382812 67.613281 303.703125 67.054688 302.96875 66.5625 C 302.234375 66.070312 301.457031 65.65625 300.640625 65.316406 C 299.824219 64.980469 298.980469 64.722656 298.113281 64.550781 C 297.246094 64.378906 296.371094 64.292969 295.488281 64.292969 L 254.730469 64.292969 C 254.398438 64.292969 254.074219 64.324219 253.75 64.390625 C 253.425781 64.453125 253.113281 64.546875 252.808594 64.675781 C 252.503906 64.800781 252.214844 64.957031 251.9375 65.140625 C 251.664062 65.324219 251.410156 65.53125 251.175781 65.765625 C 250.945312 65.996094 250.734375 66.25 250.550781 66.527344 C 250.371094 66.800781 250.214844 67.089844 250.089844 67.394531 C 249.960938 67.699219 249.867188 68.015625 249.800781 68.339844 C 249.738281 68.660156 249.707031 68.988281 249.707031 69.320312 C 249.707031 69.648438 249.738281 69.976562 249.800781 70.300781 C 249.867188 70.625 249.960938 70.9375 250.089844 71.242188 C 250.214844 71.546875 250.371094 71.835938 250.550781 72.113281 C 250.734375 72.386719 250.945312 72.640625 251.175781 72.875 C 251.410156 73.105469 251.664062 73.316406 251.9375 73.5 C 252.214844 73.683594 252.503906 73.835938 252.808594 73.964844 C 253.113281 74.089844 253.425781 74.183594 253.75 74.25 C 254.074219 74.3125 254.398438 74.34375 254.730469 74.34375 L 295.328125 74.34375 C 295.777344 74.34375 296.214844 74.433594 296.632812 74.605469 C 297.050781 74.78125 297.421875 75.027344 297.742188 75.347656 C 298.0625 75.667969 298.308594 76.035156 298.484375 76.457031 C 298.65625 76.875 298.742188 77.308594 298.742188 77.765625 L 298.742188 252.652344 L 281.417969 252.652344 L 281.417969 105.511719 C 281.417969 105.179688 281.386719 104.855469 281.324219 104.53125 C 281.257812 104.207031 281.164062 103.890625 281.035156 103.585938 C 280.910156 103.28125 280.753906 102.992188 280.574219 102.71875 C 280.390625 102.445312 280.179688 102.191406 279.949219 101.957031 C 279.714844 101.722656 279.460938 101.515625 279.1875 101.332031 C 278.910156 101.148438 278.621094 100.992188 278.316406 100.867188 C 278.011719 100.742188 277.699219 100.644531 277.375 100.582031 C 277.050781 100.515625 276.726562 100.484375 276.394531 100.484375 L 247.253906 100.484375 C 246.925781 100.484375 246.597656 100.515625 246.273438 100.582031 C 245.949219 100.644531 245.636719 100.742188 245.332031 100.867188 C 245.027344 100.992188 244.738281 101.148438 244.460938 101.332031 C 244.1875 101.515625 243.933594 101.722656 243.703125 101.957031 C 243.46875 102.191406 243.261719 102.445312 243.078125 102.71875 C 242.894531 102.992188 242.738281 103.28125 242.613281 103.585938 C 242.484375 103.890625 242.390625 104.207031 242.328125 104.53125 C 242.261719 104.855469 242.230469 105.179688 242.230469 105.511719 L 242.230469 252.652344 L 220.566406 252.652344 L 220.566406 196.351562 C 220.558594 196.027344 220.519531 195.707031 220.449219 195.390625 C 220.378906 195.074219 220.277344 194.765625 220.148438 194.46875 C 220.019531 194.167969 219.863281 193.886719 219.675781 193.617188 C 219.492188 193.351562 219.285156 193.105469 219.050781 192.875 C 218.820312 192.648438 218.566406 192.445312 218.296875 192.269531 C 218.023438 192.089844 217.738281 191.941406 217.4375 191.816406 C 217.136719 191.695312 216.824219 191.601562 216.507812 191.539062 C 216.1875 191.476562 215.867188 191.449219 215.542969 191.449219 L 186.398438 191.449219 C 186.070312 191.449219 185.742188 191.480469 185.421875 191.542969 C 185.097656 191.609375 184.78125 191.703125 184.476562 191.828125 C 184.171875 191.957031 183.882812 192.109375 183.609375 192.292969 C 183.335938 192.476562 183.082031 192.6875 182.847656 192.917969 C 182.613281 193.152344 182.40625 193.40625 182.222656 193.679688 C 182.039062 193.957031 181.886719 194.246094 181.757812 194.550781 C 181.632812 194.855469 181.535156 195.167969 181.472656 195.492188 C 181.410156 195.816406 181.375 196.144531 181.375 196.472656 L 181.375 252.773438 L 159.75 252.773438 L 159.75 179.382812 C 159.75 179.054688 159.71875 178.726562 159.65625 178.402344 C 159.589844 178.078125 159.496094 177.765625 159.371094 177.460938 C 159.242188 177.15625 159.089844 176.863281 158.90625 176.589844 C 158.722656 176.316406 158.511719 176.0625 158.28125 175.828125 C 158.046875 175.59375 157.792969 175.386719 157.519531 175.203125 C 157.246094 175.019531 156.953125 174.867188 156.648438 174.738281 C 156.34375 174.613281 156.03125 174.519531 155.707031 174.453125 C 155.382812 174.390625 155.058594 174.355469 154.726562 174.355469 L 125.628906 174.355469 C 125.296875 174.355469 124.96875 174.390625 124.648438 174.453125 C 124.324219 174.519531 124.007812 174.613281 123.703125 174.738281 C 123.398438 174.867188 123.109375 175.019531 122.835938 175.203125 C 122.5625 175.386719 122.308594 175.59375 122.074219 175.828125 C 121.839844 176.0625 121.632812 176.316406 121.449219 176.589844 C 121.265625 176.863281 121.113281 177.15625 120.984375 177.460938 C 120.859375 177.765625 120.761719 178.078125 120.699219 178.402344 C 120.636719 178.726562 120.601562 179.054688 120.601562 179.382812 L 120.601562 252.652344 L 98.9375 252.652344 L 98.9375 221.207031 C 98.9375 220.878906 98.90625 220.550781 98.84375 220.230469 C 98.777344 219.90625 98.683594 219.59375 98.558594 219.292969 C 98.433594 218.988281 98.28125 218.699219 98.101562 218.425781 C 97.917969 218.152344 97.710938 217.898438 97.480469 217.664062 C 97.25 217.433594 97 217.222656 96.726562 217.039062 C 96.453125 216.855469 96.167969 216.699219 95.863281 216.574219 C 95.5625 216.445312 95.25 216.347656 94.929688 216.28125 C 94.605469 216.214844 94.28125 216.179688 93.953125 216.179688 L 64.773438 216.179688 C 64.441406 216.179688 64.117188 216.210938 63.792969 216.273438 C 63.46875 216.339844 63.15625 216.433594 62.851562 216.5625 C 62.546875 216.6875 62.257812 216.84375 61.980469 217.027344 C 61.707031 217.210938 61.453125 217.417969 61.21875 217.652344 C 60.988281 217.882812 60.777344 218.136719 60.59375 218.414062 C 60.414062 218.6875 60.257812 218.976562 60.132812 219.28125 C 60.003906 219.585938 59.910156 219.902344 59.84375 220.226562 C 59.78125 220.546875 59.75 220.875 59.75 221.207031 L 59.75 252.652344 L 11.273438 252.652344 L 11.273438 77.765625 C 11.273438 77.308594 11.363281 76.875 11.535156 76.457031 C 11.707031 76.035156 11.957031 75.667969 12.277344 75.347656 C 12.597656 75.027344 12.964844 74.78125 13.382812 74.605469 C 13.800781 74.433594 14.238281 74.34375 14.691406 74.34375 L 198.457031 74.34375 C 198.789062 74.34375 199.113281 74.3125 199.4375 74.25 C 199.761719 74.183594 200.078125 74.089844 200.382812 73.964844 C 200.6875 73.835938 200.976562 73.683594 201.25 73.5 C 201.523438 73.316406 201.777344 73.105469 202.011719 72.875 C 202.246094 72.640625 202.453125 72.386719 202.636719 72.113281 C 202.820312 71.835938 202.972656 71.546875 203.101562 71.242188 C 203.226562 70.9375 203.320312 70.625 203.386719 70.300781 C 203.449219 69.976562 203.484375 69.648438 203.484375 69.320312 C 203.484375 68.988281 203.449219 68.660156 203.386719 68.339844 C 203.320312 68.015625 203.226562 67.699219 203.101562 67.394531 C 202.972656 67.089844 202.820312 66.800781 202.636719 66.527344 C 202.453125 66.25 202.246094 65.996094 202.011719 65.765625 C 201.777344 65.53125 201.523438 65.324219 201.25 65.140625 C 200.976562 64.957031 200.6875 64.800781 200.382812 64.675781 C 200.078125 64.546875 199.761719 64.453125 199.4375 64.390625 C 199.113281 64.324219 198.789062 64.292969 198.457031 64.292969 L 14.691406 64.292969 C 13.808594 64.292969 12.929688 64.378906 12.066406 64.550781 C 11.199219 64.722656 10.355469 64.980469 9.539062 65.316406 C 8.722656 65.65625 7.945312 66.070312 7.210938 66.5625 C 6.476562 67.054688 5.796875 67.613281 5.171875 68.238281 C 4.546875 68.863281 3.988281 69.542969 3.496094 70.28125 C 3.003906 71.015625 2.589844 71.792969 2.25 72.609375 C 1.914062 73.425781 1.65625 74.269531 1.484375 75.136719 C 1.3125 76.003906 1.226562 76.878906 1.226562 77.765625 L 1.226562 256.433594 C 1.101562 256.839844 1.023438 257.253906 0.984375 257.679688 L 0.984375 283.65625 C 1.035156 284.644531 1.171875 285.621094 1.394531 286.585938 C 1.621094 287.546875 1.929688 288.484375 2.324219 289.390625 C 2.71875 290.296875 3.191406 291.164062 3.746094 291.984375 C 4.296875 292.804688 4.917969 293.570312 5.605469 294.277344 C 6.296875 294.988281 7.042969 295.628906 7.851562 296.203125 C 8.65625 296.773438 9.507812 297.269531 10.40625 297.6875 C 11.300781 298.109375 12.226562 298.441406 13.183594 298.691406 C 14.140625 298.941406 15.113281 299.105469 16.097656 299.179688 L 115.898438 299.179688 C 115.898438 306.417969 115.898438 318.441406 115.335938 321.214844 C 115.050781 322.1875 114.644531 323.109375 114.117188 323.976562 C 113.59375 324.84375 112.964844 325.628906 112.238281 326.335938 C 111.507812 327.039062 110.699219 327.640625 109.816406 328.136719 C 108.933594 328.628906 108 329.003906 107.015625 329.257812 L 91.785156 329.257812 C 91.453125 329.257812 91.125 329.292969 90.804688 329.355469 C 90.480469 329.421875 90.164062 329.515625 89.859375 329.640625 C 89.554688 329.769531 89.265625 329.921875 88.992188 330.105469 C 88.71875 330.289062 88.464844 330.5 88.230469 330.730469 C 87.996094 330.964844 87.789062 331.21875 87.605469 331.492188 C 87.421875 331.765625 87.269531 332.058594 87.140625 332.363281 C 87.015625 332.667969 86.921875 332.980469 86.855469 333.304688 C 86.792969 333.628906 86.757812 333.957031 86.757812 334.285156 C 86.757812 334.617188 86.792969 334.941406 86.855469 335.265625 C 86.921875 335.589844 87.015625 335.90625 87.140625 336.210938 C 87.269531 336.515625 87.421875 336.804688 87.605469 337.078125 C 87.789062 337.351562 87.996094 337.605469 88.230469 337.839844 C 88.464844 338.074219 88.71875 338.28125 88.992188 338.464844 C 89.265625 338.648438 89.554688 338.804688 89.859375 338.929688 C 90.164062 339.054688 90.480469 339.152344 90.804688 339.214844 C 91.125 339.28125 91.453125 339.3125 91.785156 339.3125 L 218.554688 339.3125 C 218.886719 339.3125 219.210938 339.28125 219.535156 339.214844 C 219.859375 339.152344 220.171875 339.054688 220.476562 338.929688 C 220.78125 338.804688 221.074219 338.648438 221.347656 338.464844 C 221.621094 338.28125 221.875 338.074219 222.109375 337.839844 C 222.339844 337.605469 222.550781 337.351562 222.734375 337.078125 C 222.917969 336.804688 223.070312 336.515625 223.199219 336.210938 C 223.324219 335.90625 223.417969 335.589844 223.484375 335.265625 C 223.546875 334.941406 223.578125 334.617188 223.578125 334.285156 C 223.578125 333.957031 223.546875 333.628906 223.484375 333.304688 C 223.417969 332.980469 223.324219 332.667969 223.199219 332.363281 C 223.070312 332.058594 222.917969 331.765625 222.734375 331.492188 C 222.550781 331.21875 222.339844 330.964844 222.109375 330.730469 C 221.875 330.5 221.621094 330.289062 221.347656 330.105469 C 221.074219 329.921875 220.78125 329.769531 220.476562 329.640625 C 220.171875 329.515625 219.859375 329.421875 219.535156 329.355469 C 219.210938 329.292969 218.886719 329.257812 218.554688 329.257812 L 202.476562 329.257812 C 201.535156 329 200.648438 328.617188 199.8125 328.113281 C 198.972656 327.609375 198.21875 327.003906 197.546875 326.296875 C 196.875 325.589844 196.308594 324.800781 195.847656 323.941406 C 195.390625 323.078125 195.054688 322.171875 194.839844 321.214844 C 194.320312 318.402344 194.320312 306.257812 194.238281 299.179688 L 296.210938 299.179688 C 304.25 299.179688 309.191406 291.5 309.191406 284.058594 L 309.191406 257.679688 C 309.15625 257.253906 309.074219 256.839844 308.953125 256.433594 Z M 296.210938 289.125 L 16.097656 289.125 C 15.445312 288.984375 14.832031 288.75 14.253906 288.417969 C 13.675781 288.085938 13.160156 287.675781 12.707031 287.1875 C 12.253906 286.699219 11.882812 286.152344 11.597656 285.550781 C 11.3125 284.949219 11.125 284.316406 11.035156 283.65625 L 11.035156 262.867188 L 299.144531 262.867188 L 299.144531 283.9375 C 299.144531 286.472656 297.9375 289.125 296.210938 289.125 Z M 296.210938 289.125 " fill-opacity="1" fill-rule="nonzero"/></g><path fill="#3c6a98" d="M 120.601562 179.382812 C 120.601562 179.050781 120.628906 178.726562 120.691406 178.398438 C 120.753906 178.074219 120.847656 177.757812 120.972656 177.453125 C 121.097656 177.148438 121.253906 176.855469 121.4375 176.582031 C 121.621094 176.304688 121.828125 176.050781 122.0625 175.816406 C 122.296875 175.582031 122.550781 175.375 122.824219 175.191406 C 123.101562 175.007812 123.390625 174.855469 123.699219 174.726562 C 124.003906 174.601562 124.320312 174.507812 124.644531 174.445312 C 124.96875 174.382812 125.296875 174.355469 125.628906 174.355469 L 154.726562 174.355469 C 155.058594 174.355469 155.382812 174.390625 155.707031 174.453125 C 156.03125 174.519531 156.34375 174.613281 156.648438 174.738281 C 156.953125 174.867188 157.246094 175.019531 157.519531 175.203125 C 157.792969 175.386719 158.046875 175.59375 158.28125 175.828125 C 158.511719 176.0625 158.722656 176.316406 158.90625 176.589844 C 159.089844 176.863281 159.242188 177.15625 159.371094 177.460938 C 159.496094 177.765625 159.589844 178.078125 159.65625 178.402344 C 159.71875 178.726562 159.75 179.054688 159.75 179.382812 L 159.75 252.613281 L 120.601562 252.613281 Z M 120.601562 179.382812 " fill-opacity="1" fill-rule="nonzero"/><path fill="#ff6d55" d="M 181.417969 196.3125 C 181.425781 195.992188 181.46875 195.675781 181.539062 195.359375 C 181.609375 195.046875 181.710938 194.742188 181.839844 194.449219 C 181.96875 194.152344 182.125 193.875 182.308594 193.609375 C 182.492188 193.34375 182.699219 193.101562 182.929688 192.875 C 183.160156 192.652344 183.410156 192.449219 183.675781 192.273438 C 183.945312 192.097656 184.230469 191.949219 184.527344 191.824219 C 184.824219 191.703125 185.128906 191.609375 185.445312 191.546875 C 185.761719 191.484375 186.078125 191.449219 186.398438 191.449219 L 215.5 191.449219 C 215.832031 191.449219 216.15625 191.480469 216.480469 191.542969 C 216.804688 191.609375 217.117188 191.703125 217.421875 191.828125 C 217.726562 191.957031 218.019531 192.109375 218.292969 192.292969 C 218.566406 192.476562 218.820312 192.6875 219.054688 192.917969 C 219.285156 193.152344 219.496094 193.40625 219.679688 193.679688 C 219.863281 193.957031 220.015625 194.246094 220.144531 194.550781 C 220.269531 194.855469 220.363281 195.167969 220.429688 195.492188 C 220.492188 195.816406 220.523438 196.144531 220.523438 196.472656 L 220.523438 252.773438 L 181.417969 252.773438 Z M 181.417969 196.3125 " fill-opacity="1" fill-rule="nonzero"/><path fill="#fdd04c" d="M 242.230469 105.511719 C 242.230469 105.179688 242.261719 104.855469 242.328125 104.53125 C 242.390625 104.207031 242.484375 103.890625 242.613281 103.585938 C 242.738281 103.28125 242.894531 102.992188 243.078125 102.71875 C 243.261719 102.445312 243.46875 102.191406 243.703125 101.957031 C 243.933594 101.722656 244.1875 101.515625 244.460938 101.332031 C 244.738281 101.148438 245.027344 100.992188 245.332031 100.867188 C 245.636719 100.742188 245.949219 100.644531 246.273438 100.582031 C 246.597656 100.515625 246.925781 100.484375 247.253906 100.484375 L 276.394531 100.484375 C 276.726562 100.484375 277.050781 100.515625 277.375 100.582031 C 277.699219 100.644531 278.011719 100.742188 278.316406 100.867188 C 278.621094 100.992188 278.910156 101.148438 279.1875 101.332031 C 279.460938 101.515625 279.714844 101.722656 279.949219 101.957031 C 280.179688 102.191406 280.390625 102.445312 280.574219 102.71875 C 280.753906 102.992188 280.910156 103.28125 281.035156 103.585938 C 281.164062 103.890625 281.257812 104.207031 281.324219 104.53125 C 281.386719 104.855469 281.417969 105.179688 281.417969 105.511719 L 281.417969 252.613281 L 242.230469 252.613281 Z M 242.230469 105.511719 " fill-opacity="1" fill-rule="nonzero"/><path fill="#ff6d55" d="M 59.75 221.246094 C 59.746094 220.914062 59.777344 220.585938 59.839844 220.261719 C 59.902344 219.9375 59.996094 219.621094 60.121094 219.316406 C 60.246094 219.007812 60.398438 218.71875 60.582031 218.445312 C 60.765625 218.167969 60.976562 217.914062 61.207031 217.679688 C 61.441406 217.445312 61.695312 217.238281 61.972656 217.054688 C 62.246094 216.871094 62.539062 216.714844 62.84375 216.589844 C 63.148438 216.464844 63.464844 216.371094 63.789062 216.308594 C 64.113281 216.246094 64.441406 216.214844 64.773438 216.21875 L 93.953125 216.21875 C 94.285156 216.214844 94.613281 216.246094 94.9375 216.308594 C 95.261719 216.371094 95.578125 216.464844 95.882812 216.589844 C 96.1875 216.714844 96.480469 216.871094 96.753906 217.054688 C 97.03125 217.238281 97.285156 217.445312 97.519531 217.679688 C 97.753906 217.914062 97.960938 218.167969 98.144531 218.441406 C 98.328125 218.71875 98.480469 219.007812 98.605469 219.316406 C 98.730469 219.621094 98.824219 219.9375 98.886719 220.261719 C 98.949219 220.585938 98.980469 220.914062 98.976562 221.246094 L 98.976562 252.613281 L 59.75 252.613281 Z M 59.75 221.246094 " fill-opacity="1" fill-rule="nonzero"/></svg>