<svg xmlns="http://www.w3.org/2000/svg" xmlns:xlink="http://www.w3.org/1999/xlink" width="450" zoomAndPan="magnify" viewBox="0 0 337.5 337.500003" height="450" preserveAspectRatio="xMidYMid meet" version="1.0"><defs><g/><clipPath id="id1"><path d="M 0 0 L 337 0 L 337 337 L 0 337 Z M 0 0 " clip-rule="nonzero"/></clipPath><clipPath id="id2"><path d="M 0 0 L 337 0 L 337 337 L 0 337 Z M 0 0 " clip-rule="nonzero"/></clipPath><clipPath id="id3"><path d="M 168.75 0 C 75.550781 0 0 75.550781 0 168.75 C 0 261.949219 75.550781 337.5 168.75 337.5 C 261.949219 337.5 337.5 261.949219 337.5 168.75 C 337.5 75.550781 261.949219 0 168.75 0 " clip-rule="nonzero"/></clipPath></defs><g clip-path="url(#id1)"><path fill="#14c38e" d="M 168.75 0 C 75.550781 0 0 75.550781 0 168.75 C 0 261.949219 75.550781 337.5 168.75 337.5 C 261.949219 337.5 337.5 261.949219 337.5 168.75 C 337.5 75.550781 261.949219 0 168.75 0 " fill-opacity="1" fill-rule="nonzero"/></g><g clip-path="url(#id2)"><g clip-path="url(#id3)"><path stroke-linecap="butt" transform="matrix(0.75, 0, 0, 0.75, 0, 0.0000114852)" fill="none" stroke-linejoin="miter" d="M 225.000012 -0.0000153136 C 100.73438 -0.0000153136 0 100.734365 0 224.999996 C 0 349.265628 100.73438 450.000008 225.000012 450.000008 C 349.265643 450.000008 450.000023 349.265628 450.000023 224.999996 C 450.000023 100.734365 349.265643 -0.0000153136 225.000012 -0.0000153136 " stroke="#b8f1b0" stroke-width="32" stroke-opacity="1" stroke-miterlimit="4"/></g></g><g fill="#d32f23" fill-opacity="0.4196"><g transform="translate(89.685282, 253.360711)"><g><path d="M 32.96875 -153.171875 C 34.28125 -153.609375 35.523438 -153.828125 36.703125 -153.828125 L 71.859375 -153.828125 C 72.734375 -153.828125 73.425781 -153.53125 73.9375 -152.9375 C 74.457031 -152.351562 74.644531 -151.550781 74.5 -150.53125 L 56.46875 -3.296875 C 56.320312 -2.273438 55.921875 -1.46875 55.265625 -0.875 C 54.609375 -0.289062 53.835938 0 52.953125 0 L 19.125 0 C 18.238281 0 17.539062 -0.289062 17.03125 -0.875 C 16.519531 -1.46875 16.335938 -2.273438 16.484375 -3.296875 L 30.109375 -115.15625 C 30.109375 -115.882812 29.816406 -116.25 29.234375 -116.25 L 14.9375 -116.25 C 13.914062 -116.25 13.144531 -116.539062 12.625 -117.125 C 12.113281 -117.707031 11.9375 -118.515625 12.09375 -119.546875 L 15.15625 -145.03125 C 15.457031 -146.789062 16.484375 -148.035156 18.234375 -148.765625 Z M 32.96875 -153.171875 "/></g></g></g><g fill="#d32f23" fill-opacity="0.4196"><g transform="translate(154.289438, 253.360711)"><g><path d="M 13.625 0 C 12.445312 0 11.640625 -0.328125 11.203125 -0.984375 C 10.765625 -1.648438 10.835938 -2.566406 11.421875 -3.734375 L 58.890625 -117.125 C 59.328125 -118 59.109375 -118.4375 58.234375 -118.4375 L 44.828125 -118.4375 C 44.242188 -118.4375 43.804688 -118.070312 43.515625 -117.34375 L 42.84375 -110.96875 C 42.695312 -109.945312 42.296875 -109.140625 41.640625 -108.546875 C 40.984375 -107.960938 40.210938 -107.671875 39.328125 -107.671875 L 13.40625 -107.671875 C 12.375 -107.671875 11.601562 -107.960938 11.09375 -108.546875 C 10.582031 -109.140625 10.398438 -109.945312 10.546875 -110.96875 L 15.609375 -150.53125 C 16.046875 -152.726562 17.289062 -153.828125 19.34375 -153.828125 L 102.84375 -153.828125 C 103.863281 -153.828125 104.628906 -153.53125 105.140625 -152.9375 C 105.660156 -152.351562 105.847656 -151.550781 105.703125 -150.53125 L 101.96875 -120.421875 C 101.675781 -118.660156 101.304688 -117.34375 100.859375 -116.46875 L 52.734375 -2.640625 C 52.148438 -0.878906 50.832031 0 48.78125 0 Z M 13.625 0 "/></g></g></g><g fill="#e3fcbf" fill-opacity="1"><g transform="translate(83.153128, 247.479133)"><g><path d="M 32.96875 -153.171875 C 34.28125 -153.609375 35.523438 -153.828125 36.703125 -153.828125 L 71.859375 -153.828125 C 72.734375 -153.828125 73.425781 -153.53125 73.9375 -152.9375 C 74.457031 -152.351562 74.644531 -151.550781 74.5 -150.53125 L 56.46875 -3.296875 C 56.320312 -2.273438 55.921875 -1.46875 55.265625 -0.875 C 54.609375 -0.289062 53.835938 0 52.953125 0 L 19.125 0 C 18.238281 0 17.539062 -0.289062 17.03125 -0.875 C 16.519531 -1.46875 16.335938 -2.273438 16.484375 -3.296875 L 30.109375 -115.15625 C 30.109375 -115.882812 29.816406 -116.25 29.234375 -116.25 L 14.9375 -116.25 C 13.914062 -116.25 13.144531 -116.539062 12.625 -117.125 C 12.113281 -117.707031 11.9375 -118.515625 12.09375 -119.546875 L 15.15625 -145.03125 C 15.457031 -146.789062 16.484375 -148.035156 18.234375 -148.765625 Z M 32.96875 -153.171875 "/></g></g></g><g fill="#e3fcbf" fill-opacity="1"><g transform="translate(147.757284, 247.479133)"><g><path d="M 13.625 0 C 12.445312 0 11.640625 -0.328125 11.203125 -0.984375 C 10.765625 -1.648438 10.835938 -2.566406 11.421875 -3.734375 L 58.890625 -117.125 C 59.328125 -118 59.109375 -118.4375 58.234375 -118.4375 L 44.828125 -118.4375 C 44.242188 -118.4375 43.804688 -118.070312 43.515625 -117.34375 L 42.84375 -110.96875 C 42.695312 -109.945312 42.296875 -109.140625 41.640625 -108.546875 C 40.984375 -107.960938 40.210938 -107.671875 39.328125 -107.671875 L 13.40625 -107.671875 C 12.375 -107.671875 11.601562 -107.960938 11.09375 -108.546875 C 10.582031 -109.140625 10.398438 -109.945312 10.546875 -110.96875 L 15.609375 -150.53125 C 16.046875 -152.726562 17.289062 -153.828125 19.34375 -153.828125 L 102.84375 -153.828125 C 103.863281 -153.828125 104.628906 -153.53125 105.140625 -152.9375 C 105.660156 -152.351562 105.847656 -151.550781 105.703125 -150.53125 L 101.96875 -120.421875 C 101.675781 -118.660156 101.304688 -117.34375 100.859375 -116.46875 L 52.734375 -2.640625 C 52.148438 -0.878906 50.832031 0 48.78125 0 Z M 13.625 0 "/></g></g></g></svg>