<svg xmlns="http://www.w3.org/2000/svg" xmlns:xlink="http://www.w3.org/1999/xlink" width="450" zoomAndPan="magnify" viewBox="0 0 337.5 337.500003" height="450" preserveAspectRatio="xMidYMid meet" version="1.0"><defs><g/><clipPath id="id1"><path d="M 0 0 L 337 0 L 337 337 L 0 337 Z M 0 0 " clip-rule="nonzero"/></clipPath><clipPath id="id2"><path d="M 0 0 L 337 0 L 337 337 L 0 337 Z M 0 0 " clip-rule="nonzero"/></clipPath><clipPath id="id3"><path d="M 168.75 0 C 75.550781 0 0 75.550781 0 168.75 C 0 261.949219 75.550781 337.5 168.75 337.5 C 261.949219 337.5 337.5 261.949219 337.5 168.75 C 337.5 75.550781 261.949219 0 168.75 0 " clip-rule="nonzero"/></clipPath></defs><g clip-path="url(#id1)"><path fill="#14c38e" d="M 168.75 0 C 75.550781 0 0 75.550781 0 168.75 C 0 261.949219 75.550781 337.5 168.75 337.5 C 261.949219 337.5 337.5 261.949219 337.5 168.75 C 337.5 75.550781 261.949219 0 168.75 0 " fill-opacity="1" fill-rule="nonzero"/></g><g clip-path="url(#id2)"><g clip-path="url(#id3)"><path stroke-linecap="butt" transform="matrix(0.75, 0, 0, 0.75, 0, 0.0000114852)" fill="none" stroke-linejoin="miter" d="M 225.000012 -0.0000153136 C 100.73438 -0.0000153136 0 100.734365 0 224.999996 C 0 349.265628 100.73438 450.000008 225.000012 450.000008 C 349.265643 450.000008 450.000023 349.265628 450.000023 224.999996 C 450.000023 100.734365 349.265643 -0.0000153136 225.000012 -0.0000153136 " stroke="#b8f1b0" stroke-width="32" stroke-opacity="1" stroke-miterlimit="4"/></g></g><g fill="#d32f23" fill-opacity="0.4196"><g transform="translate(67.372784, 253.360711)"><g><path d="M 101.53125 -121.734375 C 101.382812 -120.710938 100.976562 -119.90625 100.3125 -119.3125 C 99.65625 -118.726562 98.8125 -118.4375 97.78125 -118.4375 L 56.921875 -118.4375 C 56.179688 -118.4375 55.8125 -118.070312 55.8125 -117.34375 L 53.171875 -95.8125 C 52.878906 -95.082031 53.175781 -94.71875 54.0625 -94.71875 L 75.375 -94.71875 C 76.394531 -94.71875 77.160156 -94.421875 77.671875 -93.828125 C 78.191406 -93.242188 78.378906 -92.441406 78.234375 -91.421875 L 74.71875 -62.625 C 74.28125 -60.425781 73.035156 -59.328125 70.984375 -59.328125 L 49.65625 -59.328125 C 48.925781 -59.328125 48.5625 -58.960938 48.5625 -58.234375 L 45.921875 -36.484375 C 45.628906 -35.742188 45.925781 -35.375 46.8125 -35.375 L 87.6875 -35.375 C 88.707031 -35.375 89.472656 -35.082031 89.984375 -34.5 C 90.492188 -33.914062 90.675781 -33.109375 90.53125 -32.078125 L 87.015625 -3.296875 C 86.867188 -2.273438 86.46875 -1.46875 85.8125 -0.875 C 85.15625 -0.289062 84.3125 0 83.28125 0 L 4.390625 0 C 3.515625 0 2.816406 -0.289062 2.296875 -0.875 C 1.785156 -1.46875 1.609375 -2.273438 1.765625 -3.296875 L 19.78125 -150.53125 C 19.925781 -151.550781 20.328125 -152.351562 20.984375 -152.9375 C 21.640625 -153.53125 22.410156 -153.828125 23.296875 -153.828125 L 102.1875 -153.828125 C 103.207031 -153.828125 103.972656 -153.53125 104.484375 -152.9375 C 105.003906 -152.351562 105.191406 -151.550781 105.046875 -150.53125 Z M 101.53125 -121.734375 "/></g></g></g><g fill="#d32f23" fill-opacity="0.4196"><g transform="translate(162.081628, 253.360711)"><g><path d="M 2.421875 0 C 0.660156 0 -0.21875 -0.660156 -0.21875 -1.984375 L 0.21875 -3.734375 L 37.359375 -76.25 C 37.503906 -76.6875 37.503906 -77.128906 37.359375 -77.578125 L 18.234375 -150.09375 C 18.085938 -150.382812 18.015625 -150.75 18.015625 -151.1875 C 18.015625 -152.945312 19.113281 -153.828125 21.3125 -153.828125 L 55.375 -153.828125 C 56.257812 -153.828125 56.992188 -153.566406 57.578125 -153.046875 C 58.160156 -152.535156 58.523438 -151.84375 58.671875 -150.96875 L 63.5 -120.421875 C 63.65625 -119.984375 63.878906 -119.765625 64.171875 -119.765625 C 64.460938 -119.765625 64.679688 -119.984375 64.828125 -120.421875 L 77.359375 -150.96875 C 78.085938 -152.875 79.40625 -153.828125 81.3125 -153.828125 L 115.15625 -153.828125 C 116.90625 -153.828125 117.78125 -153.164062 117.78125 -151.84375 L 117.34375 -150.09375 L 80.203125 -77.578125 C 80.054688 -77.128906 80.054688 -76.6875 80.203125 -76.25 L 99.328125 -3.734375 C 99.472656 -3.441406 99.546875 -3.078125 99.546875 -2.640625 C 99.546875 -0.878906 98.445312 0 96.25 0 L 62.625 0 C 61.75 0 61.015625 -0.253906 60.421875 -0.765625 C 59.835938 -1.273438 59.472656 -1.972656 59.328125 -2.859375 L 54.0625 -33.1875 C 54.0625 -33.769531 53.910156 -34.0625 53.609375 -34.0625 C 53.316406 -34.0625 53.097656 -33.769531 52.953125 -33.1875 L 40.21875 -2.859375 C 39.476562 -0.953125 38.160156 0 36.265625 0 Z M 2.421875 0 "/></g></g></g><g fill="#e3fcbf" fill-opacity="1"><g transform="translate(60.840631, 247.479133)"><g><path d="M 101.53125 -121.734375 C 101.382812 -120.710938 100.976562 -119.90625 100.3125 -119.3125 C 99.65625 -118.726562 98.8125 -118.4375 97.78125 -118.4375 L 56.921875 -118.4375 C 56.179688 -118.4375 55.8125 -118.070312 55.8125 -117.34375 L 53.171875 -95.8125 C 52.878906 -95.082031 53.175781 -94.71875 54.0625 -94.71875 L 75.375 -94.71875 C 76.394531 -94.71875 77.160156 -94.421875 77.671875 -93.828125 C 78.191406 -93.242188 78.378906 -92.441406 78.234375 -91.421875 L 74.71875 -62.625 C 74.28125 -60.425781 73.035156 -59.328125 70.984375 -59.328125 L 49.65625 -59.328125 C 48.925781 -59.328125 48.5625 -58.960938 48.5625 -58.234375 L 45.921875 -36.484375 C 45.628906 -35.742188 45.925781 -35.375 46.8125 -35.375 L 87.6875 -35.375 C 88.707031 -35.375 89.472656 -35.082031 89.984375 -34.5 C 90.492188 -33.914062 90.675781 -33.109375 90.53125 -32.078125 L 87.015625 -3.296875 C 86.867188 -2.273438 86.46875 -1.46875 85.8125 -0.875 C 85.15625 -0.289062 84.3125 0 83.28125 0 L 4.390625 0 C 3.515625 0 2.816406 -0.289062 2.296875 -0.875 C 1.785156 -1.46875 1.609375 -2.273438 1.765625 -3.296875 L 19.78125 -150.53125 C 19.925781 -151.550781 20.328125 -152.351562 20.984375 -152.9375 C 21.640625 -153.53125 22.410156 -153.828125 23.296875 -153.828125 L 102.1875 -153.828125 C 103.207031 -153.828125 103.972656 -153.53125 104.484375 -152.9375 C 105.003906 -152.351562 105.191406 -151.550781 105.046875 -150.53125 Z M 101.53125 -121.734375 "/></g></g></g><g fill="#e3fcbf" fill-opacity="1"><g transform="translate(155.549474, 247.479133)"><g><path d="M 2.421875 0 C 0.660156 0 -0.21875 -0.660156 -0.21875 -1.984375 L 0.21875 -3.734375 L 37.359375 -76.25 C 37.503906 -76.6875 37.503906 -77.128906 37.359375 -77.578125 L 18.234375 -150.09375 C 18.085938 -150.382812 18.015625 -150.75 18.015625 -151.1875 C 18.015625 -152.945312 19.113281 -153.828125 21.3125 -153.828125 L 55.375 -153.828125 C 56.257812 -153.828125 56.992188 -153.566406 57.578125 -153.046875 C 58.160156 -152.535156 58.523438 -151.84375 58.671875 -150.96875 L 63.5 -120.421875 C 63.65625 -119.984375 63.878906 -119.765625 64.171875 -119.765625 C 64.460938 -119.765625 64.679688 -119.984375 64.828125 -120.421875 L 77.359375 -150.96875 C 78.085938 -152.875 79.40625 -153.828125 81.3125 -153.828125 L 115.15625 -153.828125 C 116.90625 -153.828125 117.78125 -153.164062 117.78125 -151.84375 L 117.34375 -150.09375 L 80.203125 -77.578125 C 80.054688 -77.128906 80.054688 -76.6875 80.203125 -76.25 L 99.328125 -3.734375 C 99.472656 -3.441406 99.546875 -3.078125 99.546875 -2.640625 C 99.546875 -0.878906 98.445312 0 96.25 0 L 62.625 0 C 61.75 0 61.015625 -0.253906 60.421875 -0.765625 C 59.835938 -1.273438 59.472656 -1.972656 59.328125 -2.859375 L 54.0625 -33.1875 C 54.0625 -33.769531 53.910156 -34.0625 53.609375 -34.0625 C 53.316406 -34.0625 53.097656 -33.769531 52.953125 -33.1875 L 40.21875 -2.859375 C 39.476562 -0.953125 38.160156 0 36.265625 0 Z M 2.421875 0 "/></g></g></g></svg>