<svg xmlns="http://www.w3.org/2000/svg" xmlns:xlink="http://www.w3.org/1999/xlink" width="1024" zoomAndPan="magnify" viewBox="0 0 768 767.999994" height="1024" preserveAspectRatio="xMidYMid meet" version="1.0"><defs><g/><clipPath id="id1"><path d="M 384 0 C 171.921875 0 0 171.921875 0 384 C 0 596.078125 171.921875 768 384 768 C 596.078125 768 768 596.078125 768 384 C 768 171.921875 596.078125 0 384 0 " clip-rule="nonzero"/></clipPath></defs><path fill="#14c38e" d="M 384 0 C 171.921875 0 0 171.921875 0 384 C 0 596.078125 171.921875 768 384 768 C 596.078125 768 768 596.078125 768 384 C 768 171.921875 596.078125 0 384 0 " fill-opacity="1" fill-rule="nonzero"/><g clip-path="url(#id1)"><path stroke-linecap="butt" transform="matrix(0.75, 0, 0, 0.75, 0.000003, 0.00002)" fill="none" stroke-linejoin="miter" d="M 512.000021 -0.0000266667 C 229.229174 -0.0000266667 -0.000004 229.229151 -0.000004 511.999999 C -0.000004 794.770846 229.229174 1024.000024 512.000021 1024.000024 C 794.770869 1024.000024 1024.000047 794.770846 1024.000047 511.999999 C 1024.000047 229.229151 794.770869 -0.0000266667 512.000021 -0.0000266667 " stroke="#000000" stroke-width="8" stroke-opacity="1" stroke-miterlimit="4"/></g><g fill="#e3fcbf" fill-opacity="1"><g transform="translate(55.869141, 575.059884)"><g><path d="M 319.65625 -77.390625 L 275.625 -77.390625 L 275.625 0 L 168.984375 0 L 168.984375 -77.390625 L 9.578125 -77.390625 L 9.578125 -156.6875 L 175.828125 -399.78125 L 275.625 -399.78125 L 275.625 -158.046875 L 319.65625 -158.046875 Z M 168.984375 -158.046875 L 168.984375 -204.53125 C 168.984375 -213.28125 169.300781 -225.082031 169.9375 -239.9375 C 170.582031 -254.800781 171.085938 -262.597656 171.453125 -263.328125 L 168.4375 -263.328125 C 162.238281 -249.285156 155.222656 -236.160156 147.390625 -223.953125 L 103.09375 -158.046875 Z M 168.984375 -158.046875 "/></g></g><g transform="translate(383.99998, 575.059884)"><g><path d="M 306.8125 0 L 16.6875 0 L 16.6875 -71.09375 L 114.296875 -169.8125 C 142.191406 -198.976562 160.421875 -218.890625 168.984375 -229.546875 C 177.554688 -240.210938 183.523438 -249.375 186.890625 -257.03125 C 190.265625 -264.6875 191.953125 -272.710938 191.953125 -281.109375 C 191.953125 -291.492188 188.578125 -299.691406 181.828125 -305.703125 C 175.085938 -311.722656 165.613281 -314.734375 153.40625 -314.734375 C 140.820312 -314.734375 128.101562 -311.132812 115.25 -303.9375 C 102.40625 -296.738281 87.867188 -286.117188 71.640625 -272.078125 L 12.3125 -341.53125 C 32.90625 -359.945312 50.21875 -373.117188 64.25 -381.046875 C 78.289062 -388.972656 93.5625 -395.03125 110.0625 -399.21875 C 126.5625 -403.414062 145.109375 -405.515625 165.703125 -405.515625 C 191.585938 -405.515625 214.691406 -400.957031 235.015625 -391.84375 C 255.347656 -382.726562 271.117188 -369.738281 282.328125 -352.875 C 293.546875 -336.019531 299.15625 -317.109375 299.15625 -296.140625 C 299.15625 -280.460938 297.191406 -265.96875 293.265625 -252.65625 C 289.347656 -239.351562 283.285156 -226.273438 275.078125 -213.421875 C 266.878906 -200.566406 255.988281 -187.03125 242.40625 -172.8125 C 228.820312 -158.59375 199.882812 -131.613281 155.59375 -91.875 L 155.59375 -89.140625 L 306.8125 -89.140625 Z M 306.8125 0 "/></g></g></g></svg>