<svg xmlns="http://www.w3.org/2000/svg" xmlns:xlink="http://www.w3.org/1999/xlink" width="1000" zoomAndPan="magnify" viewBox="0 0 750 656.249984" height="875" preserveAspectRatio="xMidYMid meet" version="1.0"><defs><clipPath id="id1"><path d="M 0.429688 0 L 749.570312 0 L 749.570312 655.5 L 0.429688 655.5 Z M 0.429688 0 " clip-rule="nonzero"/></clipPath></defs><g clip-path="url(#id1)"><path fill="#000000" d="M 655.929688 298.488281 L 609.109375 298.488281 L 609.109375 234.109375 C 609.109375 221.230469 598.574219 210.695312 585.695312 210.695312 L 445.230469 210.695312 C 432.355469 210.695312 421.820312 221.230469 421.820312 234.109375 L 421.820312 298.488281 L 398.410156 298.488281 L 398.410156 234.109375 C 398.410156 221.230469 387.875 210.695312 375 210.695312 L 334.03125 210.695312 L 334.03125 160.363281 C 341.054688 156.265625 345.738281 148.660156 345.738281 140.464844 L 345.738281 105.347656 C 358.613281 105.347656 369.148438 94.8125 369.148438 81.9375 L 369.148438 23.410156 C 369.148438 10.535156 358.613281 0 345.738281 0 L 252.09375 0 C 246.242188 0 240.972656 2.339844 236.875 5.851562 L 58.953125 5.851562 C 46.078125 5.851562 35.542969 16.386719 35.542969 29.261719 L 35.542969 217.132812 C 25.59375 219.476562 17.984375 228.839844 17.984375 239.960938 L 17.984375 298.488281 L 12.132812 298.488281 C 5.695312 298.488281 0.429688 303.753906 0.429688 310.191406 C 0.429688 316.628906 5.695312 321.898438 12.132812 321.898438 L 655.929688 321.898438 C 694.554688 321.898438 726.160156 353.503906 726.160156 392.128906 C 726.160156 430.757812 694.554688 462.363281 655.929688 462.363281 L 12.132812 462.363281 C 5.695312 462.363281 0.429688 467.628906 0.429688 474.066406 C 0.429688 480.503906 5.695312 485.773438 12.132812 485.773438 L 41.398438 485.773438 L 41.398438 643.796875 C 41.398438 650.234375 46.664062 655.5 53.101562 655.5 C 59.539062 655.5 64.808594 650.234375 64.808594 643.796875 L 64.808594 596.972656 L 650.078125 596.972656 L 650.078125 643.796875 C 650.078125 650.234375 655.34375 655.5 661.78125 655.5 C 668.21875 655.5 673.488281 650.234375 673.488281 643.796875 L 673.488281 484.015625 C 716.796875 475.824219 749.570312 437.78125 749.570312 392.128906 C 749.570312 340.625 707.433594 298.488281 655.929688 298.488281 Z M 252.09375 23.410156 L 345.738281 23.410156 L 345.738281 81.9375 L 252.09375 81.9375 Z M 275.503906 140.464844 L 275.503906 105.347656 L 322.324219 105.347656 L 322.324219 140.464844 Z M 310.621094 163.875 L 310.621094 210.695312 L 287.210938 210.695312 L 287.210938 163.875 Z M 58.953125 29.261719 L 228.683594 29.261719 L 228.683594 76.085938 L 105.777344 76.085938 L 105.777344 216.550781 L 58.953125 216.550781 Z M 123.335938 298.488281 L 41.398438 298.488281 L 41.398438 239.960938 L 123.335938 239.960938 Z M 211.125 234.109375 L 211.125 298.488281 L 146.746094 298.488281 L 146.746094 239.960938 C 146.746094 228.839844 139.136719 220.0625 129.1875 217.132812 L 129.1875 99.496094 L 236.875 99.496094 C 240.972656 103.007812 246.242188 105.347656 252.09375 105.347656 L 252.09375 140.464844 C 252.09375 149.242188 256.777344 156.851562 263.800781 160.363281 L 263.800781 210.695312 L 234.535156 210.695312 C 221.660156 210.695312 211.125 221.230469 211.125 234.109375 Z M 375 298.488281 L 234.535156 298.488281 L 234.535156 234.109375 L 375 234.109375 Z M 585.695312 298.488281 L 445.230469 298.488281 L 445.230469 234.109375 L 585.695312 234.109375 Z M 650.078125 573.5625 L 64.808594 573.5625 L 64.808594 485.773438 L 650.078125 485.773438 Z M 650.078125 573.5625 " fill-opacity="1" fill-rule="nonzero"/></g><path fill="#000000" d="M 702.75 392.128906 C 702.75 366.378906 681.679688 345.308594 655.929688 345.308594 C 630.175781 345.308594 609.109375 366.378906 609.109375 392.128906 C 609.109375 417.882812 630.175781 438.953125 655.929688 438.953125 C 681.679688 438.953125 702.75 417.882812 702.75 392.128906 Z M 632.519531 392.128906 C 632.519531 379.253906 643.054688 368.71875 655.929688 368.71875 C 668.804688 368.71875 679.339844 379.253906 679.339844 392.128906 C 679.339844 405.003906 668.804688 415.539062 655.929688 415.539062 C 643.054688 415.539062 632.519531 405.003906 632.519531 392.128906 Z M 632.519531 392.128906 " fill-opacity="1" fill-rule="nonzero"/><path fill="#000000" d="M 585.695312 392.128906 C 585.695312 369.304688 567.554688 351.160156 544.726562 351.160156 C 521.902344 351.160156 503.757812 369.304688 503.757812 392.128906 C 503.757812 414.957031 521.902344 433.097656 544.726562 433.097656 C 567.554688 433.097656 585.695312 414.957031 585.695312 392.128906 Z M 527.167969 392.128906 C 527.167969 382.179688 534.777344 374.570312 544.726562 374.570312 C 554.675781 374.570312 562.285156 382.179688 562.285156 392.128906 C 562.285156 402.078125 554.675781 409.6875 544.726562 409.6875 C 534.777344 409.6875 527.167969 402.078125 527.167969 392.128906 Z M 527.167969 392.128906 " fill-opacity="1" fill-rule="nonzero"/><path fill="#000000" d="M 480.347656 392.128906 C 480.347656 369.304688 462.203125 351.160156 439.378906 351.160156 C 416.554688 351.160156 398.410156 369.304688 398.410156 392.128906 C 398.410156 414.957031 416.554688 433.097656 439.378906 433.097656 C 462.203125 433.097656 480.347656 414.957031 480.347656 392.128906 Z M 421.820312 392.128906 C 421.820312 382.179688 429.429688 374.570312 439.378906 374.570312 C 449.328125 374.570312 456.9375 382.179688 456.9375 392.128906 C 456.9375 402.078125 449.328125 409.6875 439.378906 409.6875 C 429.429688 409.6875 421.820312 402.078125 421.820312 392.128906 Z M 421.820312 392.128906 " fill-opacity="1" fill-rule="nonzero"/><path fill="#000000" d="M 375 392.128906 C 375 369.304688 356.855469 351.160156 334.03125 351.160156 C 311.207031 351.160156 293.0625 369.304688 293.0625 392.128906 C 293.0625 414.957031 311.207031 433.097656 334.03125 433.097656 C 356.855469 433.097656 375 414.957031 375 392.128906 Z M 316.472656 392.128906 C 316.472656 382.179688 324.082031 374.570312 334.03125 374.570312 C 343.980469 374.570312 351.589844 382.179688 351.589844 392.128906 C 351.589844 402.078125 343.980469 409.6875 334.03125 409.6875 C 324.082031 409.6875 316.472656 402.078125 316.472656 392.128906 Z M 316.472656 392.128906 " fill-opacity="1" fill-rule="nonzero"/><path fill="#000000" d="M 269.652344 392.128906 C 269.652344 369.304688 251.507812 351.160156 228.683594 351.160156 C 205.855469 351.160156 187.714844 369.304688 187.714844 392.128906 C 187.714844 414.957031 205.855469 433.097656 228.683594 433.097656 C 251.507812 433.097656 269.652344 414.957031 269.652344 392.128906 Z M 211.125 392.128906 C 211.125 382.179688 218.734375 374.570312 228.683594 374.570312 C 238.632812 374.570312 246.242188 382.179688 246.242188 392.128906 C 246.242188 402.078125 238.632812 409.6875 228.683594 409.6875 C 218.734375 409.6875 211.125 402.078125 211.125 392.128906 Z M 211.125 392.128906 " fill-opacity="1" fill-rule="nonzero"/><path fill="#000000" d="M 164.304688 392.128906 C 164.304688 369.304688 146.160156 351.160156 123.335938 351.160156 C 100.507812 351.160156 82.367188 369.304688 82.367188 392.128906 C 82.367188 414.957031 100.507812 433.097656 123.335938 433.097656 C 146.160156 433.097656 164.304688 414.957031 164.304688 392.128906 Z M 105.777344 392.128906 C 105.777344 382.179688 113.386719 374.570312 123.335938 374.570312 C 133.285156 374.570312 140.890625 382.179688 140.890625 392.128906 C 140.890625 402.078125 133.285156 409.6875 123.335938 409.6875 C 113.386719 409.6875 105.777344 402.078125 105.777344 392.128906 Z M 105.777344 392.128906 " fill-opacity="1" fill-rule="nonzero"/></svg>