<svg xmlns="http://www.w3.org/2000/svg" xmlns:xlink="http://www.w3.org/1999/xlink" width="308" zoomAndPan="magnify" viewBox="0 0 230.87999 231" height="308" preserveAspectRatio="xMidYMid meet" version="1.0"><defs><clipPath id="id1"><path d="M 1.5 0.0585938 L 220 0.0585938 L 220 230.9375 L 1.5 230.9375 Z M 1.5 0.0585938 " clip-rule="nonzero"/></clipPath><clipPath id="id2"><path d="M 164 96 L 227.882812 96 L 227.882812 127 L 164 127 Z M 164 96 " clip-rule="nonzero"/></clipPath></defs><g clip-path="url(#id1)"><path fill="#57a865" d="M 172.574219 147.0625 C 162.601562 171.589844 138.542969 188.882812 110.449219 188.882812 C 73.457031 188.882812 43.402344 158.808594 43.402344 121.789062 C 43.402344 84.734375 73.421875 54.695312 110.449219 54.695312 L 110.449219 67.277344 L 160.730469 33.730469 L 110.449219 0.183594 L 110.449219 12.761719 C 50.273438 12.761719 1.5 61.574219 1.5 121.789062 C 1.5 182.183594 50.101562 230.816406 110.449219 230.816406 C 170.621094 230.816406 219.394531 182.007812 219.394531 121.789062 L 210.328125 121.789062 C 193.792969 121.789062 178.804688 131.734375 172.574219 147.0625 Z M 172.574219 147.0625 " fill-opacity="1" fill-rule="nonzero"/></g><g clip-path="url(#id2)"><path fill="#4e965a" d="M 169.109375 126.363281 C 168.285156 126.363281 167.457031 126.121094 166.730469 125.617188 C 164.824219 124.300781 164.347656 121.6875 165.664062 119.78125 C 176.164062 104.589844 194.222656 95.753906 212.773438 96.703125 L 223.804688 97.273438 C 226.113281 97.390625 227.890625 99.363281 227.773438 101.675781 C 227.652344 103.988281 225.675781 105.769531 223.371094 105.648438 L 212.339844 105.078125 C 196.648438 104.261719 181.417969 111.730469 172.558594 124.550781 C 171.746094 125.730469 170.4375 126.363281 169.109375 126.363281 Z M 169.109375 126.363281 " fill-opacity="1" fill-rule="nonzero"/></g></svg>