<svg xmlns="http://www.w3.org/2000/svg" xmlns:xlink="http://www.w3.org/1999/xlink" width="640" zoomAndPan="magnify" viewBox="0 0 480 457.499982" height="610" preserveAspectRatio="xMidYMid meet" version="1.0"><defs><clipPath id="id1"><path d="M 0.261719 401 L 54 401 L 54 416 L 0.261719 416 Z M 0.261719 401 " clip-rule="nonzero"/></clipPath><clipPath id="id2"><path d="M 0.261719 327 L 54 327 L 54 342 L 0.261719 342 Z M 0.261719 327 " clip-rule="nonzero"/></clipPath><clipPath id="id3"><path d="M 0.261719 252 L 54 252 L 54 267 L 0.261719 267 Z M 0.261719 252 " clip-rule="nonzero"/></clipPath><clipPath id="id4"><path d="M 0.261719 177 L 54 177 L 54 192 L 0.261719 192 Z M 0.261719 177 " clip-rule="nonzero"/></clipPath><clipPath id="id5"><path d="M 0.261719 103 L 54 103 L 54 118 L 0.261719 118 Z M 0.261719 103 " clip-rule="nonzero"/></clipPath><clipPath id="id6"><path d="M 0.261719 28 L 54 28 L 54 43 L 0.261719 43 Z M 0.261719 28 " clip-rule="nonzero"/></clipPath><clipPath id="id7"><path d="M 0.261719 0.191406 L 479.738281 0.191406 L 479.738281 457 L 0.261719 457 Z M 0.261719 0.191406 " clip-rule="nonzero"/></clipPath></defs><path fill="#ff6d55" d="M 266.3125 414.066406 L 211.003906 414.066406 C 210.542969 414.066406 210.085938 414.023438 209.636719 413.933594 C 209.1875 413.84375 208.75 413.710938 208.324219 413.535156 C 207.898438 413.359375 207.496094 413.144531 207.113281 412.886719 C 206.730469 412.632812 206.378906 412.34375 206.054688 412.015625 C 205.730469 411.691406 205.4375 411.339844 205.183594 410.957031 C 204.929688 410.574219 204.714844 410.171875 204.539062 409.746094 C 204.359375 409.320312 204.230469 408.882812 204.140625 408.433594 C 204.050781 407.980469 204.003906 407.527344 204.003906 407.066406 L 204.003906 251.988281 C 204.003906 251.53125 204.050781 251.074219 204.140625 250.625 C 204.230469 250.171875 204.359375 249.734375 204.539062 249.308594 C 204.714844 248.886719 204.929688 248.480469 205.183594 248.101562 C 205.4375 247.71875 205.730469 247.363281 206.054688 247.039062 C 206.378906 246.714844 206.730469 246.421875 207.113281 246.167969 C 207.496094 245.914062 207.898438 245.695312 208.324219 245.519531 C 208.75 245.34375 209.1875 245.210938 209.636719 245.121094 C 210.085938 245.035156 210.542969 244.988281 211.003906 244.988281 L 266.3125 244.988281 C 266.769531 244.988281 267.226562 245.035156 267.675781 245.121094 C 268.125 245.210938 268.5625 245.34375 268.988281 245.519531 C 269.414062 245.695312 269.816406 245.914062 270.199219 246.167969 C 270.582031 246.421875 270.933594 246.714844 271.257812 247.039062 C 271.582031 247.363281 271.875 247.71875 272.128906 248.101562 C 272.382812 248.480469 272.601562 248.886719 272.777344 249.308594 C 272.953125 249.734375 273.085938 250.171875 273.175781 250.625 C 273.261719 251.074219 273.308594 251.53125 273.308594 251.988281 L 273.308594 407.066406 C 273.308594 407.527344 273.261719 407.980469 273.175781 408.433594 C 273.085938 408.882812 272.953125 409.320312 272.777344 409.746094 C 272.601562 410.171875 272.382812 410.574219 272.128906 410.957031 C 271.875 411.339844 271.582031 411.691406 271.257812 412.015625 C 270.933594 412.34375 270.582031 412.632812 270.199219 412.886719 C 269.816406 413.144531 269.414062 413.359375 268.988281 413.535156 C 268.5625 413.710938 268.125 413.84375 267.675781 413.933594 C 267.226562 414.023438 266.769531 414.066406 266.3125 414.066406 Z M 266.3125 414.066406 " fill-opacity="1" fill-rule="nonzero"/><path fill="#4c91d4" d="M 461.738281 414.066406 L 406.484375 414.066406 C 406.027344 414.066406 405.570312 414.023438 405.121094 413.933594 C 404.671875 413.84375 404.234375 413.710938 403.808594 413.535156 C 403.382812 413.359375 402.980469 413.144531 402.597656 412.886719 C 402.214844 412.632812 401.863281 412.34375 401.539062 412.015625 C 401.214844 411.691406 400.921875 411.339844 400.667969 410.957031 C 400.414062 410.574219 400.195312 410.171875 400.019531 409.746094 C 399.84375 409.320312 399.710938 408.882812 399.625 408.433594 C 399.535156 407.980469 399.488281 407.527344 399.488281 407.066406 L 399.488281 158.292969 C 399.488281 157.832031 399.535156 157.378906 399.625 156.925781 C 399.710938 156.476562 399.84375 156.039062 400.019531 155.613281 C 400.195312 155.1875 400.414062 154.785156 400.667969 154.402344 C 400.921875 154.019531 401.214844 153.667969 401.539062 153.34375 C 401.863281 153.015625 402.214844 152.726562 402.597656 152.472656 C 402.980469 152.214844 403.382812 152 403.808594 151.824219 C 404.234375 151.648438 404.671875 151.515625 405.121094 151.425781 C 405.570312 151.335938 406.027344 151.292969 406.484375 151.292969 L 461.738281 151.292969 C 462.199219 151.292969 462.652344 151.335938 463.105469 151.425781 C 463.554688 151.515625 463.992188 151.648438 464.417969 151.824219 C 464.839844 152 465.246094 152.214844 465.625 152.472656 C 466.007812 152.726562 466.363281 153.015625 466.6875 153.34375 C 467.011719 153.667969 467.300781 154.019531 467.558594 154.402344 C 467.8125 154.785156 468.027344 155.1875 468.203125 155.613281 C 468.378906 156.039062 468.511719 156.476562 468.601562 156.925781 C 468.691406 157.378906 468.738281 157.832031 468.738281 158.292969 L 468.738281 407.066406 C 468.738281 407.527344 468.691406 407.980469 468.601562 408.433594 C 468.511719 408.882812 468.378906 409.320312 468.203125 409.746094 C 468.027344 410.171875 467.8125 410.574219 467.558594 410.957031 C 467.300781 411.339844 467.011719 411.691406 466.6875 412.015625 C 466.363281 412.34375 466.007812 412.632812 465.625 412.886719 C 465.246094 413.144531 464.839844 413.359375 464.417969 413.535156 C 463.992188 413.710938 463.554688 413.84375 463.105469 413.933594 C 462.652344 414.023438 462.199219 414.066406 461.738281 414.066406 Z M 461.738281 414.066406 " fill-opacity="1" fill-rule="nonzero"/><path fill="#3c6a98" d="M 363.996094 414.066406 L 308.746094 414.066406 C 308.289062 414.058594 307.839844 414.007812 307.394531 413.914062 C 306.949219 413.820312 306.519531 413.683594 306.101562 413.503906 C 305.683594 413.324219 305.285156 413.105469 304.910156 412.847656 C 304.535156 412.59375 304.1875 412.300781 303.867188 411.976562 C 303.550781 411.652344 303.265625 411.300781 303.015625 410.921875 C 302.765625 410.542969 302.554688 410.140625 302.378906 409.71875 C 302.207031 409.300781 302.078125 408.867188 301.992188 408.417969 C 301.902344 407.972656 301.859375 407.523438 301.859375 407.066406 L 301.859375 305.027344 C 301.859375 304.566406 301.902344 304.109375 301.992188 303.660156 C 302.082031 303.210938 302.214844 302.769531 302.390625 302.347656 C 302.566406 301.921875 302.78125 301.519531 303.039062 301.136719 C 303.292969 300.753906 303.582031 300.402344 303.90625 300.074219 C 304.234375 299.75 304.585938 299.460938 304.96875 299.203125 C 305.351562 298.949219 305.753906 298.734375 306.179688 298.558594 C 306.601562 298.382812 307.039062 298.25 307.492188 298.160156 C 307.941406 298.070312 308.398438 298.023438 308.855469 298.023438 L 363.996094 298.023438 C 364.457031 298.023438 364.910156 298.070312 365.363281 298.160156 C 365.8125 298.25 366.25 298.382812 366.675781 298.558594 C 367.097656 298.734375 367.503906 298.949219 367.882812 299.203125 C 368.265625 299.460938 368.621094 299.75 368.945312 300.074219 C 369.269531 300.402344 369.558594 300.753906 369.816406 301.136719 C 370.070312 301.519531 370.285156 301.921875 370.460938 302.347656 C 370.636719 302.769531 370.769531 303.210938 370.859375 303.660156 C 370.949219 304.109375 370.996094 304.566406 370.996094 305.027344 L 370.996094 407.066406 C 370.996094 407.527344 370.949219 407.980469 370.859375 408.433594 C 370.769531 408.882812 370.636719 409.320312 370.460938 409.746094 C 370.285156 410.171875 370.070312 410.574219 369.816406 410.957031 C 369.558594 411.339844 369.269531 411.691406 368.945312 412.015625 C 368.621094 412.34375 368.265625 412.632812 367.882812 412.886719 C 367.503906 413.144531 367.097656 413.359375 366.675781 413.535156 C 366.25 413.710938 365.8125 413.84375 365.363281 413.933594 C 364.910156 414.023438 364.457031 414.066406 363.996094 414.066406 Z M 363.996094 414.066406 " fill-opacity="1" fill-rule="nonzero"/><path fill="#fdd04c" d="M 168.570312 414.066406 L 113.261719 414.066406 C 112.800781 414.066406 112.34375 414.023438 111.894531 413.933594 C 111.445312 413.84375 111.007812 413.710938 110.582031 413.535156 C 110.15625 413.359375 109.753906 413.144531 109.371094 412.886719 C 108.992188 412.632812 108.636719 412.34375 108.3125 412.015625 C 107.988281 411.691406 107.695312 411.339844 107.441406 410.957031 C 107.1875 410.574219 106.972656 410.171875 106.796875 409.746094 C 106.621094 409.320312 106.488281 408.882812 106.398438 408.433594 C 106.308594 407.980469 106.261719 407.527344 106.261719 407.066406 L 106.261719 366.6875 C 106.261719 366.226562 106.308594 365.773438 106.398438 365.320312 C 106.488281 364.871094 106.621094 364.433594 106.796875 364.007812 C 106.972656 363.582031 107.1875 363.179688 107.441406 362.796875 C 107.695312 362.414062 107.988281 362.0625 108.3125 361.738281 C 108.636719 361.410156 108.992188 361.121094 109.371094 360.867188 C 109.753906 360.609375 110.15625 360.394531 110.582031 360.21875 C 111.007812 360.042969 111.445312 359.910156 111.894531 359.820312 C 112.34375 359.730469 112.800781 359.6875 113.261719 359.6875 L 168.570312 359.6875 C 169.027344 359.6875 169.484375 359.730469 169.933594 359.820312 C 170.382812 359.910156 170.820312 360.042969 171.246094 360.21875 C 171.671875 360.394531 172.074219 360.609375 172.457031 360.867188 C 172.839844 361.121094 173.191406 361.410156 173.515625 361.738281 C 173.839844 362.0625 174.132812 362.414062 174.386719 362.796875 C 174.640625 363.179688 174.859375 363.582031 175.035156 364.007812 C 175.210938 364.433594 175.34375 364.871094 175.433594 365.320312 C 175.523438 365.773438 175.566406 366.226562 175.566406 366.6875 L 175.566406 407.066406 C 175.566406 407.527344 175.523438 407.980469 175.433594 408.433594 C 175.34375 408.882812 175.210938 409.320312 175.035156 409.746094 C 174.859375 410.171875 174.640625 410.574219 174.386719 410.957031 C 174.132812 411.339844 173.839844 411.691406 173.515625 412.015625 C 173.191406 412.34375 172.839844 412.632812 172.457031 412.886719 C 172.074219 413.144531 171.671875 413.359375 171.246094 413.535156 C 170.820312 413.710938 170.382812 413.84375 169.933594 413.933594 C 169.484375 414.023438 169.027344 414.066406 168.570312 414.066406 Z M 168.570312 414.066406 " fill-opacity="1" fill-rule="nonzero"/><path fill="#4c91d4" d="M 405.421875 116.625 C 404.964844 116.625 404.507812 116.582031 404.058594 116.492188 C 403.605469 116.402344 403.167969 116.269531 402.746094 116.09375 C 402.320312 115.917969 401.917969 115.699219 401.535156 115.445312 C 401.152344 115.191406 400.800781 114.898438 400.472656 114.574219 C 400.148438 114.25 399.859375 113.894531 399.605469 113.515625 C 399.347656 113.132812 399.132812 112.726562 398.957031 112.304688 C 398.78125 111.878906 398.648438 111.441406 398.558594 110.988281 C 398.46875 110.539062 398.425781 110.085938 398.425781 109.625 L 398.425781 40.960938 L 329.847656 40.960938 C 329.390625 40.960938 328.933594 40.917969 328.484375 40.828125 C 328.03125 40.738281 327.59375 40.605469 327.171875 40.429688 C 326.746094 40.253906 326.34375 40.039062 325.960938 39.78125 C 325.578125 39.527344 325.226562 39.238281 324.902344 38.910156 C 324.574219 38.585938 324.285156 38.234375 324.03125 37.851562 C 323.773438 37.46875 323.558594 37.066406 323.382812 36.640625 C 323.207031 36.214844 323.074219 35.777344 322.984375 35.328125 C 322.894531 34.875 322.851562 34.421875 322.851562 33.960938 C 322.851562 33.503906 322.894531 33.046875 322.984375 32.597656 C 323.074219 32.144531 323.207031 31.707031 323.382812 31.28125 C 323.558594 30.859375 323.773438 30.453125 324.03125 30.074219 C 324.285156 29.691406 324.574219 29.335938 324.902344 29.011719 C 325.226562 28.6875 325.578125 28.394531 325.960938 28.140625 C 326.34375 27.886719 326.746094 27.667969 327.171875 27.492188 C 327.59375 27.316406 328.03125 27.183594 328.484375 27.09375 C 328.933594 27.007812 329.390625 26.960938 329.847656 26.960938 L 405.421875 26.960938 C 405.882812 26.960938 406.335938 27.007812 406.789062 27.09375 C 407.238281 27.183594 407.675781 27.316406 408.101562 27.492188 C 408.523438 27.667969 408.929688 27.886719 409.308594 28.140625 C 409.691406 28.394531 410.046875 28.6875 410.371094 29.011719 C 410.695312 29.335938 410.984375 29.691406 411.242188 30.074219 C 411.496094 30.453125 411.710938 30.859375 411.886719 31.28125 C 412.0625 31.707031 412.195312 32.144531 412.285156 32.597656 C 412.375 33.046875 412.421875 33.503906 412.421875 33.960938 L 412.421875 109.625 C 412.421875 110.085938 412.375 110.539062 412.285156 110.988281 C 412.195312 111.441406 412.0625 111.878906 411.886719 112.304688 C 411.710938 112.726562 411.496094 113.132812 411.242188 113.515625 C 410.984375 113.894531 410.695312 114.25 410.371094 114.574219 C 410.046875 114.898438 409.691406 115.191406 409.308594 115.445312 C 408.929688 115.699219 408.523438 115.917969 408.101562 116.09375 C 407.675781 116.269531 407.238281 116.402344 406.789062 116.492188 C 406.335938 116.582031 405.882812 116.625 405.421875 116.625 Z M 405.421875 116.625 " fill-opacity="1" fill-rule="nonzero"/><path fill="#4c91d4" d="M 82.359375 250.421875 C 81.675781 250.421875 81.007812 250.328125 80.355469 250.132812 C 79.703125 249.941406 79.089844 249.65625 78.519531 249.285156 C 77.949219 248.914062 77.441406 248.46875 77 247.945312 C 76.558594 247.425781 76.203125 246.855469 75.929688 246.230469 C 75.65625 245.605469 75.476562 244.953125 75.394531 244.277344 C 75.3125 243.601562 75.324219 242.925781 75.4375 242.253906 C 75.554688 241.582031 75.761719 240.9375 76.0625 240.328125 C 76.363281 239.714844 76.746094 239.160156 77.207031 238.660156 L 174.839844 133.257812 C 175.46875 132.476562 176.242188 131.886719 177.164062 131.492188 C 178.085938 131.09375 179.046875 130.9375 180.042969 131.019531 C 181.042969 131.039062 181.992188 131.257812 182.898438 131.679688 C 183.804688 132.097656 184.589844 132.679688 185.25 133.425781 L 238.878906 195.03125 L 395.625 32.617188 C 395.9375 32.257812 396.285156 31.9375 396.660156 31.648438 C 397.039062 31.359375 397.445312 31.113281 397.871094 30.90625 C 398.300781 30.703125 398.746094 30.539062 399.207031 30.425781 C 399.667969 30.3125 400.136719 30.242188 400.613281 30.222656 C 401.085938 30.203125 401.558594 30.234375 402.027344 30.308594 C 402.496094 30.386719 402.953125 30.507812 403.398438 30.679688 C 403.84375 30.847656 404.265625 31.0625 404.664062 31.316406 C 405.066406 31.574219 405.4375 31.867188 405.777344 32.199219 C 406.117188 32.53125 406.421875 32.894531 406.6875 33.285156 C 406.957031 33.679688 407.179688 34.097656 407.363281 34.535156 C 407.546875 34.976562 407.679688 35.429688 407.769531 35.894531 C 407.859375 36.363281 407.902344 36.832031 407.898438 37.308594 C 407.890625 37.785156 407.835938 38.253906 407.734375 38.71875 C 407.632812 39.183594 407.484375 39.632812 407.292969 40.066406 C 407.097656 40.5 406.863281 40.914062 406.585938 41.296875 C 406.308594 41.683594 405.996094 42.039062 405.648438 42.363281 L 243.75 210.378906 C 243.050781 211.054688 242.253906 211.574219 241.351562 211.945312 C 240.453125 212.3125 239.515625 212.5 238.542969 212.503906 C 237.554688 212.488281 236.609375 212.269531 235.714844 211.847656 C 234.816406 211.429688 234.042969 210.84375 233.394531 210.097656 L 179.875 148.492188 L 87.507812 248.179688 C 86.84375 248.898438 86.0625 249.449219 85.167969 249.839844 C 84.273438 250.230469 83.335938 250.421875 82.359375 250.421875 Z M 82.359375 250.421875 " fill-opacity="1" fill-rule="nonzero"/><g clip-path="url(#id1)"><path fill="#3c6a98" d="M 46.027344 415.691406 L 7.90625 415.691406 C 7.445312 415.691406 6.988281 415.648438 6.539062 415.558594 C 6.089844 415.46875 5.652344 415.335938 5.226562 415.160156 C 4.800781 414.984375 4.398438 414.765625 4.015625 414.511719 C 3.636719 414.257812 3.28125 413.964844 2.957031 413.640625 C 2.632812 413.316406 2.339844 412.960938 2.085938 412.582031 C 1.832031 412.199219 1.617188 411.792969 1.441406 411.371094 C 1.265625 410.945312 1.132812 410.507812 1.042969 410.058594 C 0.953125 409.605469 0.90625 409.152344 0.90625 408.691406 C 0.90625 408.230469 0.953125 407.777344 1.042969 407.324219 C 1.132812 406.875 1.265625 406.4375 1.441406 406.011719 C 1.617188 405.585938 1.832031 405.183594 2.085938 404.800781 C 2.339844 404.417969 2.632812 404.066406 2.957031 403.742188 C 3.28125 403.414062 3.636719 403.125 4.015625 402.871094 C 4.398438 402.613281 4.800781 402.398438 5.226562 402.222656 C 5.652344 402.046875 6.089844 401.914062 6.539062 401.824219 C 6.988281 401.734375 7.445312 401.691406 7.90625 401.691406 L 46.027344 401.691406 C 46.488281 401.691406 46.941406 401.734375 47.390625 401.824219 C 47.84375 401.914062 48.28125 402.046875 48.707031 402.222656 C 49.128906 402.398438 49.53125 402.613281 49.914062 402.871094 C 50.296875 403.125 50.652344 403.414062 50.976562 403.742188 C 51.300781 404.066406 51.589844 404.417969 51.84375 404.800781 C 52.101562 405.183594 52.316406 405.585938 52.492188 406.011719 C 52.667969 406.4375 52.800781 406.875 52.890625 407.324219 C 52.980469 407.777344 53.023438 408.230469 53.023438 408.691406 C 53.023438 409.152344 52.980469 409.605469 52.890625 410.054688 C 52.800781 410.507812 52.667969 410.945312 52.492188 411.371094 C 52.316406 411.792969 52.101562 412.199219 51.84375 412.582031 C 51.589844 412.960938 51.300781 413.316406 50.976562 413.640625 C 50.652344 413.964844 50.296875 414.257812 49.914062 414.511719 C 49.53125 414.765625 49.128906 414.984375 48.707031 415.160156 C 48.28125 415.335938 47.84375 415.46875 47.390625 415.558594 C 46.941406 415.648438 46.488281 415.691406 46.027344 415.691406 Z M 46.027344 415.691406 " fill-opacity="1" fill-rule="nonzero"/></g><g clip-path="url(#id2)"><path fill="#3c6a98" d="M 46.027344 341.261719 L 7.90625 341.261719 C 7.445312 341.261719 6.988281 341.214844 6.539062 341.125 C 6.089844 341.035156 5.652344 340.902344 5.226562 340.726562 C 4.800781 340.550781 4.398438 340.335938 4.015625 340.082031 C 3.636719 339.824219 3.28125 339.535156 2.957031 339.210938 C 2.632812 338.886719 2.339844 338.53125 2.085938 338.148438 C 1.832031 337.765625 1.617188 337.363281 1.441406 336.9375 C 1.265625 336.515625 1.132812 336.078125 1.042969 335.625 C 0.953125 335.175781 0.90625 334.71875 0.90625 334.261719 C 0.90625 333.800781 0.953125 333.34375 1.042969 332.894531 C 1.132812 332.445312 1.265625 332.007812 1.441406 331.582031 C 1.617188 331.15625 1.832031 330.753906 2.085938 330.371094 C 2.339844 329.988281 2.632812 329.636719 2.957031 329.308594 C 3.28125 328.984375 3.636719 328.695312 4.015625 328.441406 C 4.398438 328.183594 4.800781 327.96875 5.226562 327.792969 C 5.652344 327.617188 6.089844 327.484375 6.539062 327.394531 C 6.988281 327.304688 7.445312 327.257812 7.90625 327.257812 L 46.027344 327.257812 C 46.488281 327.257812 46.941406 327.304688 47.390625 327.394531 C 47.84375 327.484375 48.28125 327.617188 48.707031 327.792969 C 49.128906 327.96875 49.53125 328.183594 49.914062 328.441406 C 50.296875 328.695312 50.652344 328.984375 50.976562 329.308594 C 51.300781 329.636719 51.589844 329.988281 51.84375 330.371094 C 52.101562 330.753906 52.316406 331.15625 52.492188 331.582031 C 52.667969 332.007812 52.800781 332.445312 52.890625 332.894531 C 52.980469 333.34375 53.023438 333.800781 53.023438 334.261719 C 53.023438 334.71875 52.980469 335.175781 52.890625 335.625 C 52.800781 336.078125 52.667969 336.515625 52.492188 336.9375 C 52.316406 337.363281 52.101562 337.765625 51.84375 338.148438 C 51.589844 338.53125 51.300781 338.886719 50.976562 339.210938 C 50.652344 339.535156 50.296875 339.824219 49.914062 340.082031 C 49.53125 340.335938 49.128906 340.550781 48.707031 340.726562 C 48.28125 340.902344 47.84375 341.035156 47.390625 341.125 C 46.941406 341.214844 46.488281 341.261719 46.027344 341.261719 Z M 46.027344 341.261719 " fill-opacity="1" fill-rule="nonzero"/></g><g clip-path="url(#id3)"><path fill="#3c6a98" d="M 46.027344 266.496094 L 7.90625 266.496094 C 7.445312 266.496094 6.988281 266.449219 6.539062 266.359375 C 6.089844 266.269531 5.652344 266.136719 5.226562 265.960938 C 4.800781 265.785156 4.398438 265.570312 4.015625 265.3125 C 3.636719 265.058594 3.28125 264.769531 2.957031 264.445312 C 2.632812 264.117188 2.339844 263.765625 2.085938 263.382812 C 1.832031 263 1.617188 262.597656 1.441406 262.171875 C 1.265625 261.746094 1.132812 261.308594 1.042969 260.859375 C 0.953125 260.410156 0.90625 259.953125 0.90625 259.492188 C 0.90625 259.035156 0.953125 258.578125 1.042969 258.128906 C 1.132812 257.675781 1.265625 257.238281 1.441406 256.816406 C 1.617188 256.390625 1.832031 255.988281 2.085938 255.605469 C 2.339844 255.222656 2.632812 254.867188 2.957031 254.542969 C 3.28125 254.21875 3.636719 253.929688 4.015625 253.671875 C 4.398438 253.417969 4.800781 253.203125 5.226562 253.027344 C 5.652344 252.851562 6.089844 252.71875 6.539062 252.628906 C 6.988281 252.539062 7.445312 252.492188 7.90625 252.492188 L 46.027344 252.492188 C 46.488281 252.492188 46.941406 252.539062 47.390625 252.628906 C 47.84375 252.71875 48.28125 252.851562 48.707031 253.027344 C 49.128906 253.203125 49.53125 253.417969 49.914062 253.671875 C 50.296875 253.929688 50.652344 254.21875 50.976562 254.542969 C 51.300781 254.867188 51.589844 255.222656 51.84375 255.605469 C 52.101562 255.988281 52.316406 256.390625 52.492188 256.816406 C 52.667969 257.238281 52.800781 257.675781 52.890625 258.128906 C 52.980469 258.578125 53.023438 259.035156 53.023438 259.492188 C 53.023438 259.953125 52.980469 260.410156 52.890625 260.859375 C 52.800781 261.308594 52.667969 261.746094 52.492188 262.171875 C 52.316406 262.597656 52.101562 263 51.84375 263.382812 C 51.589844 263.765625 51.300781 264.117188 50.976562 264.445312 C 50.652344 264.769531 50.296875 265.058594 49.914062 265.3125 C 49.53125 265.570312 49.128906 265.785156 48.707031 265.960938 C 48.28125 266.136719 47.84375 266.269531 47.390625 266.359375 C 46.941406 266.449219 46.488281 266.496094 46.027344 266.496094 Z M 46.027344 266.496094 " fill-opacity="1" fill-rule="nonzero"/></g><g clip-path="url(#id4)"><path fill="#3c6a98" d="M 46.027344 191.839844 L 7.90625 191.839844 C 7.445312 191.839844 6.988281 191.792969 6.539062 191.707031 C 6.089844 191.617188 5.652344 191.484375 5.226562 191.308594 C 4.800781 191.128906 4.398438 190.914062 4.015625 190.660156 C 3.636719 190.40625 3.28125 190.113281 2.957031 189.789062 C 2.632812 189.464844 2.339844 189.109375 2.085938 188.726562 C 1.832031 188.347656 1.617188 187.941406 1.441406 187.519531 C 1.265625 187.09375 1.132812 186.65625 1.042969 186.203125 C 0.953125 185.753906 0.90625 185.296875 0.90625 184.839844 C 0.90625 184.378906 0.953125 183.925781 1.042969 183.472656 C 1.132812 183.023438 1.265625 182.585938 1.441406 182.160156 C 1.617188 181.734375 1.832031 181.332031 2.085938 180.949219 C 2.339844 180.566406 2.632812 180.214844 2.957031 179.890625 C 3.28125 179.5625 3.636719 179.273438 4.015625 179.019531 C 4.398438 178.761719 4.800781 178.546875 5.226562 178.371094 C 5.652344 178.195312 6.089844 178.0625 6.539062 177.972656 C 6.988281 177.882812 7.445312 177.839844 7.90625 177.839844 L 46.027344 177.839844 C 46.488281 177.839844 46.941406 177.882812 47.390625 177.972656 C 47.84375 178.0625 48.28125 178.195312 48.707031 178.371094 C 49.128906 178.546875 49.53125 178.761719 49.914062 179.019531 C 50.296875 179.273438 50.652344 179.5625 50.976562 179.890625 C 51.300781 180.214844 51.589844 180.566406 51.84375 180.949219 C 52.101562 181.332031 52.316406 181.734375 52.492188 182.160156 C 52.667969 182.585938 52.800781 183.023438 52.890625 183.472656 C 52.980469 183.925781 53.023438 184.378906 53.023438 184.839844 C 53.023438 185.296875 52.980469 185.753906 52.890625 186.203125 C 52.800781 186.65625 52.667969 187.09375 52.492188 187.519531 C 52.316406 187.941406 52.101562 188.347656 51.84375 188.726562 C 51.589844 189.109375 51.300781 189.464844 50.976562 189.789062 C 50.652344 190.113281 50.296875 190.40625 49.914062 190.660156 C 49.53125 190.914062 49.128906 191.128906 48.707031 191.308594 C 48.28125 191.484375 47.84375 191.617188 47.390625 191.707031 C 46.941406 191.792969 46.488281 191.839844 46.027344 191.839844 Z M 46.027344 191.839844 " fill-opacity="1" fill-rule="nonzero"/></g><g clip-path="url(#id5)"><path fill="#3c6a98" d="M 46.027344 117.242188 L 7.90625 117.242188 C 7.445312 117.242188 6.988281 117.195312 6.539062 117.105469 C 6.089844 117.015625 5.652344 116.882812 5.226562 116.707031 C 4.800781 116.53125 4.398438 116.316406 4.015625 116.0625 C 3.636719 115.804688 3.28125 115.515625 2.957031 115.191406 C 2.632812 114.867188 2.339844 114.511719 2.085938 114.128906 C 1.832031 113.746094 1.617188 113.34375 1.441406 112.917969 C 1.265625 112.496094 1.132812 112.058594 1.042969 111.605469 C 0.953125 111.15625 0.90625 110.699219 0.90625 110.242188 C 0.90625 109.78125 0.953125 109.324219 1.042969 108.875 C 1.132812 108.425781 1.265625 107.984375 1.441406 107.5625 C 1.617188 107.136719 1.832031 106.734375 2.085938 106.351562 C 2.339844 105.96875 2.632812 105.617188 2.957031 105.289062 C 3.28125 104.964844 3.636719 104.675781 4.015625 104.417969 C 4.398438 104.164062 4.800781 103.949219 5.226562 103.773438 C 5.652344 103.597656 6.089844 103.464844 6.539062 103.375 C 6.988281 103.285156 7.445312 103.238281 7.90625 103.238281 L 46.027344 103.238281 C 46.488281 103.238281 46.941406 103.285156 47.390625 103.375 C 47.84375 103.464844 48.28125 103.597656 48.707031 103.773438 C 49.128906 103.949219 49.53125 104.164062 49.914062 104.417969 C 50.296875 104.675781 50.652344 104.964844 50.976562 105.289062 C 51.300781 105.617188 51.589844 105.96875 51.84375 106.351562 C 52.101562 106.734375 52.316406 107.136719 52.492188 107.5625 C 52.667969 107.984375 52.800781 108.425781 52.890625 108.875 C 52.980469 109.324219 53.023438 109.78125 53.023438 110.242188 C 53.023438 110.699219 52.980469 111.15625 52.890625 111.605469 C 52.800781 112.058594 52.667969 112.496094 52.492188 112.917969 C 52.316406 113.34375 52.101562 113.746094 51.84375 114.128906 C 51.589844 114.511719 51.300781 114.867188 50.976562 115.191406 C 50.652344 115.515625 50.296875 115.804688 49.914062 116.0625 C 49.53125 116.316406 49.128906 116.53125 48.707031 116.707031 C 48.28125 116.882812 47.84375 117.015625 47.390625 117.105469 C 46.941406 117.195312 46.488281 117.242188 46.027344 117.242188 Z M 46.027344 117.242188 " fill-opacity="1" fill-rule="nonzero"/></g><g clip-path="url(#id6)"><path fill="#3c6a98" d="M 46.027344 42.640625 L 7.90625 42.640625 C 7.445312 42.640625 6.988281 42.597656 6.539062 42.507812 C 6.089844 42.417969 5.652344 42.285156 5.226562 42.109375 C 4.800781 41.933594 4.398438 41.71875 4.015625 41.460938 C 3.636719 41.207031 3.28125 40.917969 2.957031 40.59375 C 2.632812 40.265625 2.339844 39.914062 2.085938 39.53125 C 1.832031 39.148438 1.617188 38.746094 1.441406 38.320312 C 1.265625 37.894531 1.132812 37.457031 1.042969 37.007812 C 0.953125 36.558594 0.90625 36.101562 0.90625 35.640625 C 0.90625 35.183594 0.953125 34.726562 1.042969 34.277344 C 1.132812 33.824219 1.265625 33.386719 1.441406 32.960938 C 1.617188 32.539062 1.832031 32.132812 2.085938 31.753906 C 2.339844 31.371094 2.632812 31.015625 2.957031 30.691406 C 3.28125 30.367188 3.636719 30.078125 4.015625 29.820312 C 4.398438 29.566406 4.800781 29.351562 5.226562 29.175781 C 5.652344 29 6.089844 28.867188 6.539062 28.777344 C 6.988281 28.6875 7.445312 28.640625 7.90625 28.640625 L 46.027344 28.640625 C 46.488281 28.640625 46.941406 28.6875 47.390625 28.777344 C 47.84375 28.867188 48.28125 29 48.707031 29.175781 C 49.128906 29.351562 49.53125 29.566406 49.914062 29.820312 C 50.296875 30.078125 50.652344 30.367188 50.976562 30.691406 C 51.300781 31.015625 51.589844 31.371094 51.84375 31.753906 C 52.101562 32.132812 52.316406 32.539062 52.492188 32.960938 C 52.667969 33.386719 52.800781 33.824219 52.890625 34.277344 C 52.980469 34.726562 53.023438 35.183594 53.023438 35.640625 C 53.023438 36.101562 52.980469 36.558594 52.890625 37.007812 C 52.800781 37.457031 52.667969 37.894531 52.492188 38.320312 C 52.316406 38.746094 52.101562 39.148438 51.84375 39.53125 C 51.589844 39.914062 51.300781 40.265625 50.976562 40.59375 C 50.652344 40.917969 50.296875 41.207031 49.914062 41.460938 C 49.53125 41.71875 49.128906 41.933594 48.707031 42.109375 C 48.28125 42.285156 47.84375 42.417969 47.390625 42.507812 C 46.941406 42.597656 46.488281 42.640625 46.027344 42.640625 Z M 46.027344 42.640625 " fill-opacity="1" fill-rule="nonzero"/></g><g clip-path="url(#id7)"><path fill="#3c6a98" d="M 472.09375 457.078125 L 7.90625 457.078125 C 7.445312 457.078125 6.988281 457.035156 6.539062 456.945312 C 6.089844 456.855469 5.652344 456.722656 5.226562 456.546875 C 4.800781 456.371094 4.398438 456.15625 4.015625 455.898438 C 3.636719 455.644531 3.28125 455.355469 2.957031 455.027344 C 2.632812 454.703125 2.339844 454.351562 2.085938 453.96875 C 1.832031 453.585938 1.617188 453.183594 1.441406 452.757812 C 1.265625 452.332031 1.132812 451.894531 1.042969 451.445312 C 0.953125 450.992188 0.90625 450.539062 0.90625 450.078125 L 0.90625 7.304688 C 0.90625 6.84375 0.953125 6.386719 1.039062 5.9375 C 1.128906 5.484375 1.261719 5.046875 1.4375 4.625 C 1.613281 4.199219 1.828125 3.792969 2.085938 3.414062 C 2.339844 3.03125 2.628906 2.675781 2.957031 2.351562 C 3.28125 2.027344 3.632812 1.734375 4.015625 1.480469 C 4.398438 1.222656 4.800781 1.007812 5.226562 0.832031 C 5.652344 0.65625 6.089844 0.523438 6.539062 0.433594 C 6.988281 0.34375 7.445312 0.300781 7.90625 0.300781 C 8.363281 0.300781 8.820312 0.34375 9.269531 0.433594 C 9.722656 0.523438 10.160156 0.65625 10.582031 0.832031 C 11.007812 1.007812 11.410156 1.222656 11.792969 1.480469 C 12.175781 1.734375 12.527344 2.027344 12.855469 2.351562 C 13.179688 2.675781 13.46875 3.03125 13.722656 3.414062 C 13.980469 3.792969 14.195312 4.199219 14.371094 4.625 C 14.546875 5.046875 14.679688 5.484375 14.769531 5.9375 C 14.859375 6.386719 14.902344 6.84375 14.902344 7.304688 L 14.902344 443.078125 L 472.09375 443.078125 C 472.554688 443.078125 473.011719 443.121094 473.460938 443.210938 C 473.910156 443.300781 474.347656 443.433594 474.773438 443.609375 C 475.199219 443.785156 475.601562 444.003906 475.984375 444.257812 C 476.363281 444.511719 476.71875 444.804688 477.042969 445.128906 C 477.367188 445.453125 477.660156 445.808594 477.914062 446.1875 C 478.167969 446.570312 478.382812 446.976562 478.558594 447.398438 C 478.734375 447.824219 478.867188 448.261719 478.957031 448.710938 C 479.046875 449.164062 479.09375 449.617188 479.09375 450.078125 C 479.09375 450.539062 479.046875 450.992188 478.957031 451.445312 C 478.867188 451.894531 478.734375 452.332031 478.558594 452.757812 C 478.382812 453.183594 478.167969 453.585938 477.914062 453.96875 C 477.660156 454.351562 477.367188 454.703125 477.042969 455.027344 C 476.71875 455.355469 476.363281 455.644531 475.984375 455.898438 C 475.601562 456.15625 475.199219 456.371094 474.773438 456.546875 C 474.347656 456.722656 473.910156 456.855469 473.460938 456.945312 C 473.011719 457.035156 472.554688 457.078125 472.09375 457.078125 Z M 472.09375 457.078125 " fill-opacity="1" fill-rule="nonzero"/></g></svg>