<svg xmlns="http://www.w3.org/2000/svg" xmlns:xlink="http://www.w3.org/1999/xlink" width="1000" zoomAndPan="magnify" viewBox="0 0 750 507.750007" height="677" preserveAspectRatio="xMidYMid meet" version="1.0"><defs><clipPath id="id1"><path d="M 0.183594 0 L 749.066406 0 L 749.066406 507.5 L 0.183594 507.5 Z M 0.183594 0 " clip-rule="nonzero"/></clipPath></defs><path fill="#ffcf4c" d="M 494.90625 12.40625 L 494.90625 78.214844 C 494.90625 80.441406 493.089844 82.253906 490.863281 82.253906 L 439.296875 82.253906 C 437.066406 82.253906 435.253906 80.441406 435.253906 78.214844 L 435.253906 12.40625 L 346.347656 12.40625 L 346.347656 249.117188 L 583.5625 249.117188 L 583.5625 12.40625 Z M 494.90625 12.40625 " fill-opacity="1" fill-rule="nonzero"/><path fill="#ffcf4c" d="M 275.304688 123.648438 C 275.304688 125.875 273.496094 127.6875 271.261719 127.6875 L 233.363281 127.6875 C 231.128906 127.6875 229.320312 125.875 229.320312 123.648438 L 229.320312 75.867188 L 165.710938 75.867188 L 165.710938 249.117188 L 338.835938 249.117188 L 338.835938 75.867188 L 275.304688 75.867188 Z M 275.304688 123.648438 " fill-opacity="1" fill-rule="nonzero"/><path fill="#63a6d7" d="M 618.074219 257.199219 L 131.199219 257.199219 C 65.539062 257.222656 12.328125 310.472656 12.351562 376.160156 C 12.367188 441.804688 65.5625 495.015625 131.199219 495.039062 L 618.074219 495.039062 C 683.734375 495.015625 736.953125 441.761719 736.925781 376.074219 C 736.910156 310.433594 683.710938 257.222656 618.074219 257.199219 Z M 692.507812 376.601562 C 692.464844 420.832031 656.640625 456.667969 612.414062 456.714844 L 136.855469 456.714844 C 92.648438 458.125 55.664062 423.414062 54.253906 379.191406 C 52.847656 334.96875 87.554688 297.976562 131.765625 296.566406 C 133.464844 296.511719 135.15625 296.511719 136.855469 296.566406 L 612.414062 296.566406 C 656.605469 296.617188 692.421875 332.40625 692.507812 376.601562 Z M 692.507812 376.601562 " fill-opacity="1" fill-rule="nonzero"/><path fill="#dedede" d="M 374.640625 304.574219 C 334.867188 304.574219 302.625 336.820312 302.625 376.601562 C 302.625 416.386719 334.867188 448.632812 374.640625 448.632812 C 414.414062 448.632812 446.648438 416.386719 446.648438 376.601562 C 446.597656 336.835938 414.390625 304.621094 374.640625 304.574219 Z M 374.640625 409.671875 C 356.339844 409.671875 341.496094 394.828125 341.496094 376.519531 C 341.496094 358.21875 356.335938 343.378906 374.640625 343.378906 C 392.9375 343.378906 407.777344 358.21875 407.777344 376.519531 C 407.777344 394.84375 392.953125 409.699219 374.640625 409.75 Z M 374.640625 409.671875 " fill-opacity="1" fill-rule="nonzero"/><path fill="#dedede" d="M 136.855469 304.574219 C 97.109375 305.90625 65.96875 339.214844 67.292969 378.972656 C 68.566406 416.863281 98.976562 447.273438 136.855469 448.554688 L 137.585938 448.554688 C 177.324219 447.058594 208.328125 413.613281 206.835938 373.867188 C 205.402344 335.960938 174.839844 305.664062 136.941406 304.574219 Z M 136.855469 409.671875 C 118.5625 409.671875 103.71875 394.828125 103.71875 376.519531 C 103.71875 358.21875 118.558594 343.378906 136.855469 343.378906 C 155.15625 343.378906 169.996094 358.21875 169.996094 376.519531 C 169.996094 394.84375 155.171875 409.699219 136.855469 409.75 Z M 136.855469 409.671875 " fill-opacity="1" fill-rule="nonzero"/><path fill="#dedede" d="M 612.414062 304.574219 C 572.664062 305.710938 541.359375 338.875 542.496094 378.640625 C 543.589844 416.546875 573.886719 447.121094 611.769531 448.554688 L 612.5 448.554688 C 652.25 447.21875 683.390625 413.910156 682.0625 374.15625 C 680.796875 336.261719 650.378906 305.847656 612.5 304.570312 C 612.496094 304.574219 612.414062 304.574219 612.414062 304.574219 Z M 612.414062 409.671875 C 594.121094 409.671875 579.277344 394.828125 579.277344 376.519531 C 579.277344 358.21875 594.117188 343.378906 612.414062 343.378906 C 630.71875 343.378906 645.558594 358.21875 645.558594 376.519531 C 645.558594 394.84375 630.734375 409.699219 612.414062 409.75 Z M 612.414062 409.671875 " fill-opacity="1" fill-rule="nonzero"/><path fill="#ffffff" d="M 237.398438 119.605469 L 267.222656 119.605469 L 267.222656 75.949219 L 237.398438 75.949219 Z M 237.398438 119.605469 " fill-opacity="1" fill-rule="nonzero"/><path fill="#ffffff" d="M 443.660156 74.171875 L 486.738281 74.171875 L 486.738281 12.40625 L 443.660156 12.40625 Z M 443.660156 74.171875 " fill-opacity="1" fill-rule="nonzero"/><path fill="#ffffff" d="M 161.910156 376.601562 C 161.910156 390.449219 150.695312 401.660156 136.855469 401.660156 C 123.019531 401.660156 111.804688 390.449219 111.804688 376.601562 C 111.804688 362.761719 123.019531 351.542969 136.855469 351.542969 C 150.695312 351.542969 161.910156 362.761719 161.910156 376.601562 Z M 161.910156 376.601562 " fill-opacity="1" fill-rule="nonzero"/><path fill="#ffffff" d="M 637.46875 376.601562 C 637.46875 390.449219 626.257812 401.660156 612.414062 401.660156 C 598.578125 401.660156 587.363281 390.449219 587.363281 376.601562 C 587.363281 362.761719 598.578125 351.542969 612.414062 351.542969 C 626.257812 351.542969 637.46875 362.761719 637.46875 376.601562 Z M 637.46875 376.601562 " fill-opacity="1" fill-rule="nonzero"/><path fill="#ffffff" d="M 399.691406 376.601562 C 399.691406 390.449219 388.476562 401.660156 374.640625 401.660156 C 360.796875 401.660156 349.585938 390.449219 349.585938 376.601562 C 349.585938 362.761719 360.796875 351.542969 374.640625 351.542969 C 388.476562 351.542969 399.691406 362.761719 399.691406 376.601562 Z M 399.691406 376.601562 " fill-opacity="1" fill-rule="nonzero"/><path fill="#212326" d="M 136.855469 413.792969 C 157.382812 413.882812 174.109375 397.308594 174.199219 376.765625 C 174.289062 356.226562 157.71875 339.507812 137.183594 339.417969 C 116.640625 339.328125 99.929688 355.898438 99.839844 376.441406 L 99.839844 376.601562 C 99.878906 397.054688 116.410156 413.664062 136.855469 413.792969 Z M 136.855469 355.507812 C 148.464844 355.417969 157.945312 364.753906 158.035156 376.359375 C 158.125 387.96875 148.789062 397.449219 137.183594 397.542969 C 125.574219 397.628906 116.09375 388.292969 116.003906 376.679688 L 116.003906 376.601562 C 116.003906 365.042969 125.296875 355.636719 136.855469 355.507812 Z M 136.855469 355.507812 " fill-opacity="1" fill-rule="nonzero"/><path fill="#212326" d="M 374.640625 413.792969 C 395.175781 413.792969 411.8125 397.144531 411.8125 376.601562 C 411.8125 356.058594 395.175781 339.417969 374.640625 339.417969 C 354.101562 339.417969 337.457031 356.058594 337.457031 376.601562 C 337.507812 397.121094 354.125 413.753906 374.640625 413.792969 Z M 374.640625 355.507812 C 386.242188 355.507812 395.65625 364.917969 395.65625 376.523438 C 395.65625 388.132812 386.242188 397.542969 374.640625 397.542969 C 363.03125 397.542969 353.625 388.132812 353.625 376.523438 C 353.664062 364.929688 363.050781 355.546875 374.640625 355.507812 Z M 374.640625 355.507812 " fill-opacity="1" fill-rule="nonzero"/><path fill="#212326" d="M 612.414062 292.445312 L 136.855469 292.445312 C 90.410156 291.003906 51.597656 327.5 50.148438 373.953125 C 48.703125 420.410156 85.191406 459.234375 131.636719 460.6875 C 133.375 460.738281 135.113281 460.738281 136.847656 460.6875 L 612.40625 460.6875 C 658.859375 462.121094 697.667969 425.632812 699.117188 379.175781 C 700.566406 332.722656 664.078125 293.886719 617.632812 292.445312 C 615.894531 292.390625 614.15625 292.390625 612.414062 292.445312 Z M 442.6875 376.601562 C 442.601562 414.132812 412.15625 444.511719 374.640625 444.511719 C 337.09375 444.421875 306.738281 413.914062 306.824219 376.359375 C 306.914062 338.8125 337.417969 308.445312 374.964844 308.535156 C 412.433594 308.625 442.773438 339.039062 442.773438 376.523438 Z M 69.046875 376.601562 C 69 339.054688 99.394531 308.585938 136.9375 308.535156 C 174.480469 308.484375 204.9375 338.890625 204.988281 376.441406 C 205.035156 413.996094 174.644531 444.464844 137.097656 444.511719 L 137.019531 444.511719 C 99.464844 444.5625 68.972656 414.167969 68.886719 376.601562 Z M 186.238281 444.511719 C 223.757812 417.386719 232.199219 364.992188 205.074219 327.460938 C 199.84375 320.21875 193.480469 313.855469 186.238281 308.613281 L 325.257812 308.613281 C 287.738281 335.734375 279.296875 388.140625 306.417969 425.671875 C 311.652344 432.910156 318.015625 439.277344 325.257812 444.511719 Z M 424.019531 444.511719 C 461.535156 417.386719 469.980469 364.992188 442.855469 327.460938 C 437.621094 320.21875 431.257812 313.855469 424.019531 308.613281 L 563.035156 308.613281 C 525.519531 335.734375 517.078125 388.140625 544.199219 425.671875 C 549.433594 432.910156 555.796875 439.277344 563.035156 444.511719 Z M 612.414062 444.511719 C 574.875 444.421875 544.519531 413.910156 544.605469 376.359375 C 544.695312 338.8125 575.199219 308.445312 612.742188 308.535156 C 650.21875 308.625 680.550781 339.039062 680.550781 376.519531 C 680.503906 414.113281 650 444.5625 612.414062 444.511719 L 612.253906 444.511719 Z M 612.414062 444.511719 " fill-opacity="1" fill-rule="nonzero"/><path fill="#212326" d="M 612.414062 339.335938 C 591.886719 339.25 575.167969 355.820312 575.078125 376.359375 C 574.988281 396.894531 591.558594 413.625 612.089844 413.714844 C 632.632812 413.800781 649.34375 397.230469 649.433594 376.679688 L 649.433594 376.601562 C 649.433594 356.113281 632.898438 339.46875 612.414062 339.335938 Z M 612.414062 397.625 C 600.8125 397.710938 591.332031 388.371094 591.242188 376.765625 C 591.152344 365.15625 600.492188 355.671875 612.089844 355.585938 C 623.699219 355.5 633.179688 364.832031 633.269531 376.441406 L 633.269531 376.601562 C 633.230469 388.132812 623.941406 397.496094 612.414062 397.625 Z M 612.414062 397.625 " fill-opacity="1" fill-rule="nonzero"/><g clip-path="url(#id1)"><path fill="#212326" d="M 618.074219 245.074219 L 595.6875 245.074219 L 595.6875 8.367188 C 595.6875 3.902344 592.066406 0.28125 587.605469 0.28125 L 342.871094 0.28125 C 338.414062 0.28125 334.792969 3.902344 334.792969 8.367188 L 334.792969 63.824219 L 161.667969 63.824219 C 157.207031 63.824219 153.589844 67.445312 153.589844 71.90625 L 153.589844 245.074219 L 131.199219 245.074219 C 58.84375 245.074219 0.183594 303.742188 0.183594 376.113281 C 0.183594 448.496094 58.84375 507.164062 131.199219 507.164062 L 618.074219 507.164062 C 690.433594 507.164062 749.089844 448.496094 749.089844 376.113281 C 749.089844 303.738281 690.4375 245.074219 618.074219 245.074219 Z M 482.777344 70.125 L 447.378906 70.125 L 447.378906 16.449219 L 482.777344 16.449219 Z M 351.035156 16.449219 L 431.210938 16.449219 L 431.210938 78.214844 C 431.210938 82.675781 434.835938 86.296875 439.296875 86.296875 L 490.457031 86.296875 C 494.921875 86.296875 498.539062 82.675781 498.539062 78.214844 L 498.539062 16.449219 L 579.363281 16.449219 L 579.363281 245.074219 L 350.953125 245.074219 Z M 263.183594 115.5625 L 241.441406 115.5625 L 241.441406 79.988281 L 263.183594 79.988281 Z M 169.832031 79.988281 L 225.273438 79.988281 L 225.273438 123.648438 C 225.273438 128.109375 228.902344 131.730469 233.355469 131.730469 L 271.261719 131.730469 C 275.722656 131.730469 279.347656 128.109375 279.347656 123.648438 L 279.347656 79.988281 L 334.792969 79.988281 L 334.792969 245.074219 L 169.75 245.074219 Z M 618.074219 490.996094 L 131.199219 490.996094 C 67.773438 490.976562 16.367188 439.527344 16.386719 376.074219 C 16.414062 312.664062 67.800781 261.261719 131.199219 261.238281 L 618.074219 261.238281 C 681.507812 261.261719 732.902344 312.710938 732.882812 376.160156 C 732.859375 439.570312 681.476562 490.976562 618.074219 490.996094 Z M 618.074219 490.996094 " fill-opacity="1" fill-rule="nonzero"/></g></svg>