<svg xmlns="http://www.w3.org/2000/svg" xmlns:xlink="http://www.w3.org/1999/xlink" width="450" zoomAndPan="magnify" viewBox="0 0 337.5 337.500003" height="450" preserveAspectRatio="xMidYMid meet" version="1.0"><defs><g/><clipPath id="id1"><path d="M 0 0 L 337 0 L 337 337 L 0 337 Z M 0 0 " clip-rule="nonzero"/></clipPath><clipPath id="id2"><path d="M 0 0 L 337 0 L 337 337 L 0 337 Z M 0 0 " clip-rule="nonzero"/></clipPath><clipPath id="id3"><path d="M 168.75 0 C 75.550781 0 0 75.550781 0 168.75 C 0 261.949219 75.550781 337.5 168.75 337.5 C 261.949219 337.5 337.5 261.949219 337.5 168.75 C 337.5 75.550781 261.949219 0 168.75 0 " clip-rule="nonzero"/></clipPath></defs><g clip-path="url(#id1)"><path fill="#14c38e" d="M 168.75 0 C 75.550781 0 0 75.550781 0 168.75 C 0 261.949219 75.550781 337.5 168.75 337.5 C 261.949219 337.5 337.5 261.949219 337.5 168.75 C 337.5 75.550781 261.949219 0 168.75 0 " fill-opacity="1" fill-rule="nonzero"/></g><g clip-path="url(#id2)"><g clip-path="url(#id3)"><path stroke-linecap="butt" transform="matrix(0.75, 0, 0, 0.75, 0, 0.0000114852)" fill="none" stroke-linejoin="miter" d="M 225.000012 -0.0000153136 C 100.73438 -0.0000153136 0 100.734365 0 224.999996 C 0 349.265628 100.73438 450.000008 225.000012 450.000008 C 349.265643 450.000008 450.000023 349.265628 450.000023 224.999996 C 450.000023 100.734365 349.265643 -0.0000153136 225.000012 -0.0000153136 " stroke="#b8f1b0" stroke-width="32" stroke-opacity="1" stroke-miterlimit="4"/></g></g><g fill="#d32f23" fill-opacity="0.4196"><g transform="translate(116.814185, 253.360711)"><g><path d="M 100.859375 -44.171875 C 99.253906 -29.960938 93.648438 -19.046875 84.046875 -11.421875 C 74.453125 -3.804688 62.914062 0 49.4375 0 L 4.390625 0 C 3.515625 0 2.816406 -0.289062 2.296875 -0.875 C 1.785156 -1.46875 1.609375 -2.273438 1.765625 -3.296875 L 19.78125 -150.53125 C 19.925781 -151.550781 20.328125 -152.351562 20.984375 -152.9375 C 21.640625 -153.53125 22.410156 -153.828125 23.296875 -153.828125 L 61.96875 -153.828125 C 76.03125 -153.828125 86.976562 -150.859375 94.8125 -144.921875 C 102.65625 -138.992188 106.578125 -130.019531 106.578125 -118 C 106.578125 -116.539062 106.429688 -114.050781 106.140625 -110.53125 C 104.378906 -96.90625 99.03125 -86.796875 90.09375 -80.203125 C 89.21875 -79.765625 89 -79.328125 89.4375 -78.890625 C 97.351562 -72.148438 101.3125 -62.703125 101.3125 -50.546875 C 101.3125 -49.222656 101.160156 -47.097656 100.859375 -44.171875 Z M 56.921875 -118.4375 C 56.179688 -118.4375 55.8125 -118.070312 55.8125 -117.34375 L 52.953125 -94.9375 C 52.953125 -94.195312 53.25 -93.828125 53.84375 -93.828125 L 55.15625 -93.828125 C 61.457031 -93.828125 65.191406 -97.929688 66.359375 -106.140625 L 66.578125 -109 C 66.578125 -115.289062 63.796875 -118.4375 58.234375 -118.4375 Z M 50.546875 -35.375 C 53.765625 -35.375 56.4375 -36.910156 58.5625 -39.984375 C 60.6875 -43.066406 61.75 -47.460938 61.75 -53.171875 C 61.75 -56.546875 61.085938 -59.257812 59.765625 -61.3125 C 58.453125 -63.363281 56.625 -64.390625 54.28125 -64.390625 L 50.328125 -64.390625 C 49.585938 -64.390625 49.21875 -64.019531 49.21875 -63.28125 L 45.921875 -36.484375 C 45.628906 -35.742188 45.925781 -35.375 46.8125 -35.375 Z M 50.546875 -35.375 "/></g></g></g><g fill="#e3fcbf" fill-opacity="1"><g transform="translate(110.282031, 247.479133)"><g><path d="M 100.859375 -44.171875 C 99.253906 -29.960938 93.648438 -19.046875 84.046875 -11.421875 C 74.453125 -3.804688 62.914062 0 49.4375 0 L 4.390625 0 C 3.515625 0 2.816406 -0.289062 2.296875 -0.875 C 1.785156 -1.46875 1.609375 -2.273438 1.765625 -3.296875 L 19.78125 -150.53125 C 19.925781 -151.550781 20.328125 -152.351562 20.984375 -152.9375 C 21.640625 -153.53125 22.410156 -153.828125 23.296875 -153.828125 L 61.96875 -153.828125 C 76.03125 -153.828125 86.976562 -150.859375 94.8125 -144.921875 C 102.65625 -138.992188 106.578125 -130.019531 106.578125 -118 C 106.578125 -116.539062 106.429688 -114.050781 106.140625 -110.53125 C 104.378906 -96.90625 99.03125 -86.796875 90.09375 -80.203125 C 89.21875 -79.765625 89 -79.328125 89.4375 -78.890625 C 97.351562 -72.148438 101.3125 -62.703125 101.3125 -50.546875 C 101.3125 -49.222656 101.160156 -47.097656 100.859375 -44.171875 Z M 56.921875 -118.4375 C 56.179688 -118.4375 55.8125 -118.070312 55.8125 -117.34375 L 52.953125 -94.9375 C 52.953125 -94.195312 53.25 -93.828125 53.84375 -93.828125 L 55.15625 -93.828125 C 61.457031 -93.828125 65.191406 -97.929688 66.359375 -106.140625 L 66.578125 -109 C 66.578125 -115.289062 63.796875 -118.4375 58.234375 -118.4375 Z M 50.546875 -35.375 C 53.765625 -35.375 56.4375 -36.910156 58.5625 -39.984375 C 60.6875 -43.066406 61.75 -47.460938 61.75 -53.171875 C 61.75 -56.546875 61.085938 -59.257812 59.765625 -61.3125 C 58.453125 -63.363281 56.625 -64.390625 54.28125 -64.390625 L 50.328125 -64.390625 C 49.585938 -64.390625 49.21875 -64.019531 49.21875 -63.28125 L 45.921875 -36.484375 C 45.628906 -35.742188 45.925781 -35.375 46.8125 -35.375 Z M 50.546875 -35.375 "/></g></g></g></svg>