<svg xmlns="http://www.w3.org/2000/svg" xmlns:xlink="http://www.w3.org/1999/xlink" width="1024" zoomAndPan="magnify" viewBox="0 0 768 767.999994" height="1024" preserveAspectRatio="xMidYMid meet" version="1.0"><path fill="#56b48c" d="M 384 0 C 171.957031 0 0 171.957031 0 384 C 0 596.042969 171.957031 768 384 768 C 596.042969 768 768 596.042969 768 384 C 768 171.957031 596.042969 0 384 0 Z M 384 0 " fill-opacity="1" fill-rule="nonzero"/><path fill="#e3fcbf" d="M 500.855469 227.832031 C 494.355469 223.34375 483.832031 221.019531 469.28125 221.019531 L 318.21875 221.019531 C 306.300781 221.019531 297.015625 222.566406 290.359375 225.507812 C 283.703125 228.605469 280.453125 235.261719 280.453125 245.628906 C 280.453125 255.382812 283.550781 262.65625 289.894531 267.296875 C 296.242188 271.941406 305.683594 274.261719 318.375 274.261719 L 439.71875 274.261719 C 420.683594 298.410156 404.277344 322.707031 390.347656 347.164062 C 376.570312 371.617188 364.960938 395.453125 355.832031 418.515625 C 346.542969 441.730469 339.890625 461.699219 335.863281 478.257812 C 331.839844 494.820312 329.671875 507.976562 329.671875 517.726562 C 329.671875 530.261719 332.460938 539.703125 338.03125 546.207031 C 343.601562 552.550781 351.03125 555.800781 360.320312 555.800781 C 369.914062 555.800781 377.808594 552.859375 383.535156 546.824219 C 389.417969 540.789062 393.90625 530.109375 397 514.785156 C 398.394531 508.128906 399.941406 498.535156 401.800781 485.996094 C 403.65625 473.460938 405.203125 463.246094 406.753906 455.351562 C 408.300781 447.457031 410.777344 437.550781 414.492188 425.636719 C 423.160156 398.550781 432.601562 375.640625 442.96875 356.914062 C 453.339844 338.1875 463.398438 322.554688 473.152344 309.863281 C 482.902344 297.171875 491.570312 285.71875 499.152344 275.347656 C 506.738281 264.976562 510.605469 256.464844 510.605469 250.117188 C 510.605469 239.902344 507.355469 232.320312 500.855469 227.832031 " fill-opacity="1" fill-rule="nonzero"/></svg>