<svg xmlns="http://www.w3.org/2000/svg" xmlns:xlink="http://www.w3.org/1999/xlink" width="450" zoomAndPan="magnify" viewBox="0 0 337.5 337.500003" height="450" preserveAspectRatio="xMidYMid meet" version="1.0"><defs><g/><clipPath id="id1"><path d="M 0 0 L 337 0 L 337 337 L 0 337 Z M 0 0 " clip-rule="nonzero"/></clipPath><clipPath id="id2"><path d="M 0 0 L 337 0 L 337 337 L 0 337 Z M 0 0 " clip-rule="nonzero"/></clipPath><clipPath id="id3"><path d="M 168.75 0 C 75.550781 0 0 75.550781 0 168.75 C 0 261.949219 75.550781 337.5 168.75 337.5 C 261.949219 337.5 337.5 261.949219 337.5 168.75 C 337.5 75.550781 261.949219 0 168.75 0 " clip-rule="nonzero"/></clipPath></defs><g clip-path="url(#id1)"><path fill="#14c38e" d="M 168.75 0 C 75.550781 0 0 75.550781 0 168.75 C 0 261.949219 75.550781 337.5 168.75 337.5 C 261.949219 337.5 337.5 261.949219 337.5 168.75 C 337.5 75.550781 261.949219 0 168.75 0 " fill-opacity="1" fill-rule="nonzero"/></g><g clip-path="url(#id2)"><g clip-path="url(#id3)"><path stroke-linecap="butt" transform="matrix(0.75, 0, 0, 0.75, 0, 0.0000114852)" fill="none" stroke-linejoin="miter" d="M 225.000012 -0.0000153136 C 100.73438 -0.0000153136 0 100.734365 0 224.999996 C 0 349.265628 100.73438 450.000008 225.000012 450.000008 C 349.265643 450.000008 450.000023 349.265628 450.000023 224.999996 C 450.000023 100.734365 349.265643 -0.0000153136 225.000012 -0.0000153136 " stroke="#b8f1b0" stroke-width="32" stroke-opacity="1" stroke-miterlimit="4"/></g></g><g fill="#d32f23" fill-opacity="0.4196"><g transform="translate(79.572002, 253.360711)"><g><path d="M 32.96875 -153.171875 C 34.28125 -153.609375 35.523438 -153.828125 36.703125 -153.828125 L 71.859375 -153.828125 C 72.734375 -153.828125 73.425781 -153.53125 73.9375 -152.9375 C 74.457031 -152.351562 74.644531 -151.550781 74.5 -150.53125 L 56.46875 -3.296875 C 56.320312 -2.273438 55.921875 -1.46875 55.265625 -0.875 C 54.609375 -0.289062 53.835938 0 52.953125 0 L 19.125 0 C 18.238281 0 17.539062 -0.289062 17.03125 -0.875 C 16.519531 -1.46875 16.335938 -2.273438 16.484375 -3.296875 L 30.109375 -115.15625 C 30.109375 -115.882812 29.816406 -116.25 29.234375 -116.25 L 14.9375 -116.25 C 13.914062 -116.25 13.144531 -116.539062 12.625 -117.125 C 12.113281 -117.707031 11.9375 -118.515625 12.09375 -119.546875 L 15.15625 -145.03125 C 15.457031 -146.789062 16.484375 -148.035156 18.234375 -148.765625 Z M 32.96875 -153.171875 "/></g></g></g><g fill="#d32f23" fill-opacity="0.4196"><g transform="translate(144.176158, 253.360711)"><g><path d="M 112.953125 -74.0625 C 113.828125 -74.0625 114.519531 -73.765625 115.03125 -73.171875 C 115.550781 -72.585938 115.738281 -71.785156 115.59375 -70.765625 L 111.859375 -40 C 111.710938 -38.96875 111.34375 -38.160156 110.75 -37.578125 C 110.164062 -36.992188 109.363281 -36.703125 108.34375 -36.703125 L 101.75 -36.703125 C 101.15625 -36.703125 100.710938 -36.332031 100.421875 -35.59375 L 96.46875 -3.296875 C 96.320312 -2.273438 95.957031 -1.46875 95.375 -0.875 C 94.789062 -0.289062 93.984375 0 92.953125 0 L 59.328125 0 C 58.304688 0 57.535156 -0.289062 57.015625 -0.875 C 56.503906 -1.46875 56.320312 -2.273438 56.46875 -3.296875 L 60.4375 -35.59375 C 60.4375 -36.332031 60.140625 -36.703125 59.546875 -36.703125 L 5.046875 -36.703125 C 4.171875 -36.703125 3.476562 -36.992188 2.96875 -37.578125 C 2.457031 -38.160156 2.273438 -38.96875 2.421875 -40 L 5.28125 -64.390625 C 5.425781 -65.265625 5.789062 -66.582031 6.375 -68.34375 L 42.40625 -151.1875 C 43.144531 -152.945312 44.46875 -153.828125 46.375 -153.828125 L 82.40625 -153.828125 C 83.582031 -153.828125 84.390625 -153.492188 84.828125 -152.828125 C 85.265625 -152.171875 85.265625 -151.257812 84.828125 -150.09375 L 53.625 -75.375 C 53.175781 -74.5 53.394531 -74.0625 54.28125 -74.0625 L 64.171875 -74.0625 C 64.898438 -74.0625 65.265625 -74.425781 65.265625 -75.15625 L 67.25 -90.3125 C 67.394531 -91.34375 67.757812 -92.148438 68.34375 -92.734375 C 68.925781 -93.316406 69.734375 -93.609375 70.765625 -93.609375 L 104.375 -93.609375 C 105.40625 -93.609375 106.175781 -93.316406 106.6875 -92.734375 C 107.195312 -92.148438 107.378906 -91.34375 107.234375 -90.3125 L 105.265625 -75.15625 C 105.265625 -74.425781 105.628906 -74.0625 106.359375 -74.0625 Z M 112.953125 -74.0625 "/></g></g></g><g fill="#e3fcbf" fill-opacity="1"><g transform="translate(73.039848, 247.479133)"><g><path d="M 32.96875 -153.171875 C 34.28125 -153.609375 35.523438 -153.828125 36.703125 -153.828125 L 71.859375 -153.828125 C 72.734375 -153.828125 73.425781 -153.53125 73.9375 -152.9375 C 74.457031 -152.351562 74.644531 -151.550781 74.5 -150.53125 L 56.46875 -3.296875 C 56.320312 -2.273438 55.921875 -1.46875 55.265625 -0.875 C 54.609375 -0.289062 53.835938 0 52.953125 0 L 19.125 0 C 18.238281 0 17.539062 -0.289062 17.03125 -0.875 C 16.519531 -1.46875 16.335938 -2.273438 16.484375 -3.296875 L 30.109375 -115.15625 C 30.109375 -115.882812 29.816406 -116.25 29.234375 -116.25 L 14.9375 -116.25 C 13.914062 -116.25 13.144531 -116.539062 12.625 -117.125 C 12.113281 -117.707031 11.9375 -118.515625 12.09375 -119.546875 L 15.15625 -145.03125 C 15.457031 -146.789062 16.484375 -148.035156 18.234375 -148.765625 Z M 32.96875 -153.171875 "/></g></g></g><g fill="#e3fcbf" fill-opacity="1"><g transform="translate(137.644004, 247.479133)"><g><path d="M 112.953125 -74.0625 C 113.828125 -74.0625 114.519531 -73.765625 115.03125 -73.171875 C 115.550781 -72.585938 115.738281 -71.785156 115.59375 -70.765625 L 111.859375 -40 C 111.710938 -38.96875 111.34375 -38.160156 110.75 -37.578125 C 110.164062 -36.992188 109.363281 -36.703125 108.34375 -36.703125 L 101.75 -36.703125 C 101.15625 -36.703125 100.710938 -36.332031 100.421875 -35.59375 L 96.46875 -3.296875 C 96.320312 -2.273438 95.957031 -1.46875 95.375 -0.875 C 94.789062 -0.289062 93.984375 0 92.953125 0 L 59.328125 0 C 58.304688 0 57.535156 -0.289062 57.015625 -0.875 C 56.503906 -1.46875 56.320312 -2.273438 56.46875 -3.296875 L 60.4375 -35.59375 C 60.4375 -36.332031 60.140625 -36.703125 59.546875 -36.703125 L 5.046875 -36.703125 C 4.171875 -36.703125 3.476562 -36.992188 2.96875 -37.578125 C 2.457031 -38.160156 2.273438 -38.96875 2.421875 -40 L 5.28125 -64.390625 C 5.425781 -65.265625 5.789062 -66.582031 6.375 -68.34375 L 42.40625 -151.1875 C 43.144531 -152.945312 44.46875 -153.828125 46.375 -153.828125 L 82.40625 -153.828125 C 83.582031 -153.828125 84.390625 -153.492188 84.828125 -152.828125 C 85.265625 -152.171875 85.265625 -151.257812 84.828125 -150.09375 L 53.625 -75.375 C 53.175781 -74.5 53.394531 -74.0625 54.28125 -74.0625 L 64.171875 -74.0625 C 64.898438 -74.0625 65.265625 -74.425781 65.265625 -75.15625 L 67.25 -90.3125 C 67.394531 -91.34375 67.757812 -92.148438 68.34375 -92.734375 C 68.925781 -93.316406 69.734375 -93.609375 70.765625 -93.609375 L 104.375 -93.609375 C 105.40625 -93.609375 106.175781 -93.316406 106.6875 -92.734375 C 107.195312 -92.148438 107.378906 -91.34375 107.234375 -90.3125 L 105.265625 -75.15625 C 105.265625 -74.425781 105.628906 -74.0625 106.359375 -74.0625 Z M 112.953125 -74.0625 "/></g></g></g></svg>