<svg xmlns="http://www.w3.org/2000/svg" xmlns:xlink="http://www.w3.org/1999/xlink" width="450" zoomAndPan="magnify" viewBox="0 0 337.5 337.500003" height="450" preserveAspectRatio="xMidYMid meet" version="1.0"><defs><g/><clipPath id="id1"><path d="M 0 0 L 337 0 L 337 337 L 0 337 Z M 0 0 " clip-rule="nonzero"/></clipPath><clipPath id="id2"><path d="M 0 0 L 337 0 L 337 337 L 0 337 Z M 0 0 " clip-rule="nonzero"/></clipPath><clipPath id="id3"><path d="M 168.75 0 C 75.550781 0 0 75.550781 0 168.75 C 0 261.949219 75.550781 337.5 168.75 337.5 C 261.949219 337.5 337.5 261.949219 337.5 168.75 C 337.5 75.550781 261.949219 0 168.75 0 " clip-rule="nonzero"/></clipPath></defs><g clip-path="url(#id1)"><path fill="#14c38e" d="M 168.75 0 C 75.550781 0 0 75.550781 0 168.75 C 0 261.949219 75.550781 337.5 168.75 337.5 C 261.949219 337.5 337.5 261.949219 337.5 168.75 C 337.5 75.550781 261.949219 0 168.75 0 " fill-opacity="1" fill-rule="nonzero"/></g><g clip-path="url(#id2)"><g clip-path="url(#id3)"><path stroke-linecap="butt" transform="matrix(0.75, 0, 0, 0.75, 0, 0.0000114852)" fill="none" stroke-linejoin="miter" d="M 225.000012 -0.0000153136 C 100.73438 -0.0000153136 0 100.734365 0 224.999996 C 0 349.265628 100.73438 450.000008 225.000012 450.000008 C 349.265643 450.000008 450.000023 349.265628 450.000023 224.999996 C 450.000023 100.734365 349.265643 -0.0000153136 225.000012 -0.0000153136 " stroke="#b8f1b0" stroke-width="32" stroke-opacity="1" stroke-miterlimit="4"/></g></g><g fill="#d32f23" fill-opacity="0.4196"><g transform="translate(70.009503, 253.360711)"><g><path d="M 53.171875 -36.703125 C 52.734375 -36.410156 52.585938 -36.113281 52.734375 -35.8125 C 52.878906 -35.519531 53.175781 -35.375 53.625 -35.375 L 93.390625 -35.375 C 94.421875 -35.375 95.191406 -35.082031 95.703125 -34.5 C 96.210938 -33.914062 96.394531 -33.109375 96.25 -32.078125 L 92.734375 -3.296875 C 92.585938 -2.273438 92.179688 -1.46875 91.515625 -0.875 C 90.859375 -0.289062 90.019531 0 89 0 L 2.859375 0 C 1.828125 0 1.054688 -0.289062 0.546875 -0.875 C 0.0351562 -1.46875 -0.144531 -2.273438 0 -3.296875 L 3.515625 -32.96875 C 3.804688 -34.570312 4.539062 -35.960938 5.71875 -37.140625 L 21.96875 -53.625 C 35.59375 -67.25 45.265625 -77.578125 50.984375 -84.609375 C 55.378906 -90.171875 58.710938 -95.296875 60.984375 -99.984375 C 63.253906 -104.671875 64.390625 -109.210938 64.390625 -113.609375 C 64.390625 -115.804688 63.984375 -117.453125 63.171875 -118.546875 C 62.367188 -119.648438 61.234375 -120.203125 59.765625 -120.203125 C 58.015625 -120.203125 56.515625 -119.503906 55.265625 -118.109375 C 54.023438 -116.722656 53.253906 -114.859375 52.953125 -112.515625 L 51.859375 -103.28125 C 51.710938 -102.257812 51.347656 -101.453125 50.765625 -100.859375 C 50.179688 -100.273438 49.375 -99.984375 48.34375 -99.984375 L 14.28125 -99.984375 C 13.257812 -99.984375 12.488281 -100.273438 11.96875 -100.859375 C 11.457031 -101.453125 11.273438 -102.257812 11.421875 -103.28125 L 12.75 -114.265625 C 15.09375 -126.722656 21.171875 -136.722656 30.984375 -144.265625 C 40.796875 -151.804688 52.441406 -155.578125 65.921875 -155.578125 C 77.929688 -155.578125 87.453125 -152.132812 94.484375 -145.25 C 101.523438 -138.363281 105.046875 -129.207031 105.046875 -117.78125 C 105.046875 -116.320312 104.894531 -113.976562 104.59375 -110.75 C 103.570312 -102.550781 101.554688 -95.265625 98.546875 -88.890625 C 95.546875 -82.515625 90.972656 -75.738281 84.828125 -68.5625 C 78.523438 -61.238281 69.296875 -51.9375 57.140625 -40.65625 Z M 53.171875 -36.703125 "/></g></g></g><g fill="#d32f23" fill-opacity="0.4196"><g transform="translate(168.673687, 253.360711)"><g><path d="M 69.875 -97.5625 C 78.8125 -97.5625 85.769531 -94.703125 90.75 -88.984375 C 95.738281 -83.273438 98.234375 -75.367188 98.234375 -65.265625 C 98.234375 -61.742188 98.082031 -59.035156 97.78125 -57.140625 L 95.375 -37.578125 C 93.90625 -25.273438 88.628906 -15.640625 79.546875 -8.671875 C 70.460938 -1.710938 58.960938 1.765625 45.046875 1.765625 C 32.003906 1.765625 21.859375 -1.382812 14.609375 -7.6875 C 7.359375 -13.988281 4.023438 -23.4375 4.609375 -36.03125 C 4.753906 -37.0625 4.828125 -38.304688 4.828125 -39.765625 C 4.828125 -41.234375 4.976562 -42.921875 5.28125 -44.828125 L 13.40625 -115.15625 C 14.875 -127.601562 20.1875 -137.453125 29.34375 -144.703125 C 38.5 -151.953125 49.960938 -155.578125 63.734375 -155.578125 C 75.742188 -155.578125 85.375 -152.5 92.625 -146.34375 C 99.875 -140.195312 103.5 -131.773438 103.5 -121.078125 C 103.5 -119.765625 103.351562 -117.789062 103.0625 -115.15625 L 101.96875 -106.578125 C 101.820312 -105.554688 101.414062 -104.75 100.75 -104.15625 C 100.09375 -103.570312 99.328125 -103.28125 98.453125 -103.28125 L 64.609375 -103.28125 C 63.722656 -103.28125 63.023438 -103.570312 62.515625 -104.15625 C 62.003906 -104.75 61.820312 -105.554688 61.96875 -106.578125 L 62.625 -112.296875 C 62.769531 -114.347656 62.476562 -116.03125 61.75 -117.34375 C 61.019531 -118.664062 60.140625 -119.328125 59.109375 -119.328125 C 57.648438 -119.328125 56.367188 -118.664062 55.265625 -117.34375 C 54.171875 -116.03125 53.550781 -114.347656 53.40625 -112.296875 L 50.984375 -91.640625 C 50.835938 -91.191406 50.910156 -90.894531 51.203125 -90.75 C 51.492188 -90.601562 51.785156 -90.675781 52.078125 -90.96875 C 54.710938 -93.019531 57.566406 -94.628906 60.640625 -95.796875 C 63.722656 -96.972656 66.800781 -97.5625 69.875 -97.5625 Z M 57.578125 -61.53125 C 57.867188 -63.582031 57.644531 -65.265625 56.90625 -66.578125 C 56.175781 -67.898438 55.007812 -68.5625 53.40625 -68.5625 C 51.789062 -68.5625 50.429688 -67.898438 49.328125 -66.578125 C 48.234375 -65.265625 47.539062 -63.582031 47.25 -61.53125 L 44.609375 -40.4375 C 44.316406 -38.382812 44.609375 -36.695312 45.484375 -35.375 C 46.367188 -34.0625 47.539062 -33.40625 49 -33.40625 C 50.46875 -33.40625 51.785156 -34.0625 52.953125 -35.375 C 54.128906 -36.695312 54.863281 -38.382812 55.15625 -40.4375 Z M 57.578125 -61.53125 "/></g></g></g><g fill="#e3fcbf" fill-opacity="1"><g transform="translate(63.477349, 247.479133)"><g><path d="M 53.171875 -36.703125 C 52.734375 -36.410156 52.585938 -36.113281 52.734375 -35.8125 C 52.878906 -35.519531 53.175781 -35.375 53.625 -35.375 L 93.390625 -35.375 C 94.421875 -35.375 95.191406 -35.082031 95.703125 -34.5 C 96.210938 -33.914062 96.394531 -33.109375 96.25 -32.078125 L 92.734375 -3.296875 C 92.585938 -2.273438 92.179688 -1.46875 91.515625 -0.875 C 90.859375 -0.289062 90.019531 0 89 0 L 2.859375 0 C 1.828125 0 1.054688 -0.289062 0.546875 -0.875 C 0.0351562 -1.46875 -0.144531 -2.273438 0 -3.296875 L 3.515625 -32.96875 C 3.804688 -34.570312 4.539062 -35.960938 5.71875 -37.140625 L 21.96875 -53.625 C 35.59375 -67.25 45.265625 -77.578125 50.984375 -84.609375 C 55.378906 -90.171875 58.710938 -95.296875 60.984375 -99.984375 C 63.253906 -104.671875 64.390625 -109.210938 64.390625 -113.609375 C 64.390625 -115.804688 63.984375 -117.453125 63.171875 -118.546875 C 62.367188 -119.648438 61.234375 -120.203125 59.765625 -120.203125 C 58.015625 -120.203125 56.515625 -119.503906 55.265625 -118.109375 C 54.023438 -116.722656 53.253906 -114.859375 52.953125 -112.515625 L 51.859375 -103.28125 C 51.710938 -102.257812 51.347656 -101.453125 50.765625 -100.859375 C 50.179688 -100.273438 49.375 -99.984375 48.34375 -99.984375 L 14.28125 -99.984375 C 13.257812 -99.984375 12.488281 -100.273438 11.96875 -100.859375 C 11.457031 -101.453125 11.273438 -102.257812 11.421875 -103.28125 L 12.75 -114.265625 C 15.09375 -126.722656 21.171875 -136.722656 30.984375 -144.265625 C 40.796875 -151.804688 52.441406 -155.578125 65.921875 -155.578125 C 77.929688 -155.578125 87.453125 -152.132812 94.484375 -145.25 C 101.523438 -138.363281 105.046875 -129.207031 105.046875 -117.78125 C 105.046875 -116.320312 104.894531 -113.976562 104.59375 -110.75 C 103.570312 -102.550781 101.554688 -95.265625 98.546875 -88.890625 C 95.546875 -82.515625 90.972656 -75.738281 84.828125 -68.5625 C 78.523438 -61.238281 69.296875 -51.9375 57.140625 -40.65625 Z M 53.171875 -36.703125 "/></g></g></g><g fill="#e3fcbf" fill-opacity="1"><g transform="translate(162.141533, 247.479133)"><g><path d="M 69.875 -97.5625 C 78.8125 -97.5625 85.769531 -94.703125 90.75 -88.984375 C 95.738281 -83.273438 98.234375 -75.367188 98.234375 -65.265625 C 98.234375 -61.742188 98.082031 -59.035156 97.78125 -57.140625 L 95.375 -37.578125 C 93.90625 -25.273438 88.628906 -15.640625 79.546875 -8.671875 C 70.460938 -1.710938 58.960938 1.765625 45.046875 1.765625 C 32.003906 1.765625 21.859375 -1.382812 14.609375 -7.6875 C 7.359375 -13.988281 4.023438 -23.4375 4.609375 -36.03125 C 4.753906 -37.0625 4.828125 -38.304688 4.828125 -39.765625 C 4.828125 -41.234375 4.976562 -42.921875 5.28125 -44.828125 L 13.40625 -115.15625 C 14.875 -127.601562 20.1875 -137.453125 29.34375 -144.703125 C 38.5 -151.953125 49.960938 -155.578125 63.734375 -155.578125 C 75.742188 -155.578125 85.375 -152.5 92.625 -146.34375 C 99.875 -140.195312 103.5 -131.773438 103.5 -121.078125 C 103.5 -119.765625 103.351562 -117.789062 103.0625 -115.15625 L 101.96875 -106.578125 C 101.820312 -105.554688 101.414062 -104.75 100.75 -104.15625 C 100.09375 -103.570312 99.328125 -103.28125 98.453125 -103.28125 L 64.609375 -103.28125 C 63.722656 -103.28125 63.023438 -103.570312 62.515625 -104.15625 C 62.003906 -104.75 61.820312 -105.554688 61.96875 -106.578125 L 62.625 -112.296875 C 62.769531 -114.347656 62.476562 -116.03125 61.75 -117.34375 C 61.019531 -118.664062 60.140625 -119.328125 59.109375 -119.328125 C 57.648438 -119.328125 56.367188 -118.664062 55.265625 -117.34375 C 54.171875 -116.03125 53.550781 -114.347656 53.40625 -112.296875 L 50.984375 -91.640625 C 50.835938 -91.191406 50.910156 -90.894531 51.203125 -90.75 C 51.492188 -90.601562 51.785156 -90.675781 52.078125 -90.96875 C 54.710938 -93.019531 57.566406 -94.628906 60.640625 -95.796875 C 63.722656 -96.972656 66.800781 -97.5625 69.875 -97.5625 Z M 57.578125 -61.53125 C 57.867188 -63.582031 57.644531 -65.265625 56.90625 -66.578125 C 56.175781 -67.898438 55.007812 -68.5625 53.40625 -68.5625 C 51.789062 -68.5625 50.429688 -67.898438 49.328125 -66.578125 C 48.234375 -65.265625 47.539062 -63.582031 47.25 -61.53125 L 44.609375 -40.4375 C 44.316406 -38.382812 44.609375 -36.695312 45.484375 -35.375 C 46.367188 -34.0625 47.539062 -33.40625 49 -33.40625 C 50.46875 -33.40625 51.785156 -34.0625 52.953125 -35.375 C 54.128906 -36.695312 54.863281 -38.382812 55.15625 -40.4375 Z M 57.578125 -61.53125 "/></g></g></g></svg>