<svg xmlns="http://www.w3.org/2000/svg" xmlns:xlink="http://www.w3.org/1999/xlink" width="1000" zoomAndPan="magnify" viewBox="0 0 750 749.999995" height="1000" preserveAspectRatio="xMidYMid meet" version="1.0"><path fill="#000000" d="M 741.816406 186.816406 L 563.183594 8.183594 C 559.089844 4.089844 555 2.726562 549.546875 2.726562 C 544.089844 2.726562 540 5.453125 535.910156 8.183594 L 8.183594 535.910156 C 0 544.089844 0 556.363281 8.183594 563.183594 L 186.816406 741.816406 C 190.910156 745.910156 195 747.273438 200.453125 747.273438 C 205.910156 747.273438 210 745.910156 214.089844 741.816406 L 741.816406 214.089844 C 750 207.273438 750 195 741.816406 186.816406 Z M 647.726562 253.636719 L 625.910156 231.816406 C 617.726562 223.636719 605.453125 223.636719 598.636719 231.816406 C 590.453125 240 590.453125 252.273438 598.636719 259.089844 L 620.453125 280.910156 L 583.636719 317.726562 L 537.273438 272.726562 C 529.089844 264.546875 516.816406 264.546875 510 272.726562 C 501.816406 280.910156 501.816406 293.183594 510 300 L 555 345 L 518.183594 381.816406 L 496.363281 360 C 488.183594 351.816406 475.910156 351.816406 469.089844 360 C 460.910156 368.183594 460.910156 380.453125 469.089844 387.273438 L 490.910156 409.089844 L 454.089844 445.910156 L 409.089844 400.910156 C 400.910156 392.726562 388.636719 392.726562 381.816406 400.910156 C 373.636719 409.089844 373.636719 421.363281 381.816406 428.183594 L 426.816406 473.183594 L 390 510 L 368.183594 488.183594 C 360 480 347.726562 480 340.910156 488.183594 C 332.726562 496.363281 332.726562 508.636719 340.910156 515.453125 L 362.726562 537.273438 L 325.910156 574.089844 L 280.910156 529.089844 C 272.726562 520.910156 260.453125 520.910156 253.636719 529.089844 C 245.453125 537.273438 245.453125 549.546875 253.636719 556.363281 L 298.636719 601.363281 L 260.453125 640.910156 L 238.636719 619.089844 C 230.453125 610.910156 218.183594 610.910156 211.363281 619.089844 C 203.183594 627.273438 203.183594 639.546875 211.363281 646.363281 L 231.816406 668.183594 L 200.453125 699.546875 L 50.453125 549.546875 L 549.546875 50.453125 L 699.546875 200.453125 Z M 647.726562 253.636719 " fill-opacity="1" fill-rule="nonzero"/></svg>