<svg xmlns="http://www.w3.org/2000/svg" xmlns:xlink="http://www.w3.org/1999/xlink" width="610" zoomAndPan="magnify" viewBox="0 0 457.5 457.5" height="610" preserveAspectRatio="xMidYMid meet" version="1.0"><defs><clipPath id="id1"><path d="M 1 312 L 143 312 L 143 457 L 1 457 Z M 1 312 " clip-rule="nonzero"/></clipPath><clipPath id="id2"><path d="M 157 219 L 300 219 L 300 457 L 157 457 Z M 157 219 " clip-rule="nonzero"/></clipPath></defs><path fill="#454c57" d="M 11.796875 292.347656 C 13.335938 292.347656 15.386719 291.835938 16.925781 290.808594 L 417.496094 36.414062 L 408.261719 69.753906 C 406.722656 74.882812 409.800781 80.011719 414.929688 81.550781 C 415.957031 81.550781 416.46875 82.0625 417.496094 82.0625 C 421.597656 82.0625 425.1875 79.5 426.726562 75.394531 L 443.140625 16.925781 C 443.652344 14.359375 443.140625 11.285156 441.601562 9.230469 C 440.0625 6.667969 437.496094 5.640625 434.417969 5.128906 L 373.386719 0 C 368.257812 0 363.640625 3.589844 363.128906 8.71875 C 362.613281 13.847656 366.71875 18.464844 371.847656 18.976562 L 406.210938 21.027344 L 6.667969 274.910156 C 2.5625 277.476562 1.027344 283.628906 4.101562 287.734375 C 5.640625 290.808594 8.71875 292.347656 11.796875 292.347656 Z M 11.796875 292.347656 " fill-opacity="1" fill-rule="nonzero"/><g clip-path="url(#id1)"><path fill="#454c57" d="M 137.96875 342.613281 L 76.421875 312.863281 C 73.855469 311.839844 70.777344 311.839844 68.214844 312.863281 L 6.667969 342.613281 C 6.667969 342.613281 6.667969 342.613281 6.15625 343.125 C 6.15625 343.125 5.640625 343.125 5.640625 343.636719 C 3.078125 345.175781 1.027344 348.253906 1.027344 351.84375 L 1.027344 418.007812 C 1.027344 421.597656 3.078125 424.675781 6.15625 426.726562 L 67.703125 456.472656 C 69.242188 456.988281 70.265625 457.5 71.804688 457.5 C 73.34375 457.5 74.371094 456.988281 75.90625 456.472656 L 137.457031 426.726562 C 140.53125 425.1875 142.585938 422.109375 142.585938 418.007812 L 142.585938 351.332031 C 143.609375 347.226562 141.558594 344.152344 137.96875 342.613281 Z M 63.085938 431.855469 L 20.515625 411.339844 L 20.515625 366.207031 L 63.085938 386.722656 Z M 72.316406 370.308594 L 32.3125 351.332031 L 72.316406 332.355469 L 112.324219 351.332031 Z M 124.632812 411.339844 L 82.0625 431.855469 L 82.0625 386.207031 L 124.632812 365.691406 Z M 124.632812 411.339844 " fill-opacity="1" fill-rule="nonzero"/></g><g clip-path="url(#id2)"><path fill="#454c57" d="M 295.425781 250.292969 C 295.425781 250.292969 294.914062 250.292969 294.914062 249.777344 C 294.914062 249.777344 294.914062 249.777344 294.398438 249.777344 L 232.851562 220.03125 C 230.289062 219.003906 227.210938 219.003906 224.648438 220.03125 L 163.101562 249.777344 C 163.101562 249.777344 163.101562 249.777344 162.585938 250.292969 C 162.585938 250.292969 162.074219 250.292969 162.074219 250.804688 C 159.507812 252.34375 157.457031 255.421875 157.457031 259.011719 L 157.457031 418.007812 C 157.457031 421.597656 159.507812 424.675781 162.585938 426.726562 L 224.132812 456.472656 C 225.671875 456.988281 226.699219 457.5 228.238281 457.5 C 229.777344 457.5 230.800781 456.988281 232.339844 456.472656 L 293.886719 426.726562 C 296.964844 425.1875 299.015625 422.109375 299.015625 418.007812 L 299.015625 259.011719 C 300.042969 254.90625 297.992188 251.832031 295.425781 250.292969 Z M 228.75 239.007812 L 268.753906 257.984375 L 228.75 277.476562 L 188.746094 258.496094 Z M 176.433594 273.371094 L 219.003906 293.886719 L 219.003906 431.855469 L 176.433594 411.339844 Z M 281.066406 411.339844 L 238.496094 431.855469 L 238.496094 293.886719 L 281.066406 273.371094 Z M 281.066406 411.339844 " fill-opacity="1" fill-rule="nonzero"/></g><path fill="#454c57" d="M 456.472656 157.972656 C 456.472656 154.378906 454.421875 151.304688 451.34375 149.25 L 389.796875 119.503906 C 387.234375 118.476562 384.15625 118.476562 381.59375 119.503906 L 320.042969 149.25 C 320.042969 149.25 320.042969 149.25 319.53125 149.765625 C 319.53125 149.765625 319.019531 149.765625 319.019531 149.765625 C 316.453125 151.304688 314.402344 154.378906 314.402344 157.972656 L 314.402344 416.980469 C 314.402344 420.570312 316.453125 423.648438 319.53125 425.699219 L 381.078125 455.449219 C 382.617188 455.960938 383.644531 456.472656 385.183594 456.472656 C 386.722656 456.472656 387.746094 455.960938 389.285156 455.449219 L 450.832031 425.699219 C 453.910156 424.160156 455.960938 421.085938 455.960938 416.980469 Z M 385.183594 138.992188 L 425.1875 157.972656 L 385.183594 176.949219 L 345.175781 157.972656 Z M 332.867188 172.84375 L 375.4375 193.359375 L 375.4375 431.855469 L 332.867188 411.339844 Z M 437.496094 411.339844 L 394.925781 431.855469 L 394.925781 193.875 L 437.496094 173.359375 Z M 437.496094 411.339844 " fill-opacity="1" fill-rule="nonzero"/></svg>