<svg xmlns="http://www.w3.org/2000/svg" xmlns:xlink="http://www.w3.org/1999/xlink" width="1000" zoomAndPan="magnify" viewBox="0 0 750 749.999995" height="1000" preserveAspectRatio="xMidYMid meet" version="1.0"><path fill="#fbc63f" d="M 397.246094 724.578125 L 626.058594 724.578125 L 626.058594 495.761719 L 397.246094 495.761719 Z M 638.769531 750 L 384.535156 750 C 377.53125 750 371.820312 744.289062 371.820312 737.289062 L 371.820312 483.050781 C 371.820312 476.050781 377.53125 470.339844 384.535156 470.339844 L 638.769531 470.339844 C 645.773438 470.339844 651.484375 476.050781 651.484375 483.050781 L 651.484375 737.289062 C 651.484375 744.289062 645.773438 750 638.769531 750 " fill-opacity="1" fill-rule="nonzero"/><path fill="#fbc63f" d="M 492.585938 629.238281 L 721.398438 629.238281 L 721.398438 400.421875 L 492.585938 400.421875 Z M 734.109375 654.660156 L 479.871094 654.660156 C 472.871094 654.660156 467.160156 648.949219 467.160156 641.949219 L 467.160156 387.710938 C 467.160156 380.710938 472.871094 375 479.871094 375 L 734.109375 375 C 741.113281 375 746.820312 380.710938 746.820312 387.710938 L 746.820312 641.949219 C 746.820312 648.949219 741.113281 654.660156 734.109375 654.660156 " fill-opacity="1" fill-rule="nonzero"/><path fill="#fbc63f" d="M 393.523438 492.039062 L 375.546875 474.0625 L 470.886719 378.722656 L 488.859375 396.699219 L 393.523438 492.039062 " fill-opacity="1" fill-rule="nonzero"/><path fill="#fbc63f" d="M 393.523438 746.277344 L 375.546875 728.300781 L 470.886719 632.960938 L 488.859375 650.9375 L 393.523438 746.277344 " fill-opacity="1" fill-rule="nonzero"/><path fill="#fbc63f" d="M 647.757812 746.277344 L 629.785156 728.300781 L 725.121094 632.960938 L 743.097656 650.9375 L 647.757812 746.277344 " fill-opacity="1" fill-rule="nonzero"/><path fill="#fbc63f" d="M 647.757812 492.039062 L 629.785156 474.0625 L 725.121094 378.722656 L 743.097656 396.699219 L 647.757812 492.039062 " fill-opacity="1" fill-rule="nonzero"/><path fill="#da3d4d" d="M 431.90625 597.457031 L 387.414062 597.457031 L 387.414062 572.035156 L 419.195312 572.035156 L 419.195312 540.253906 L 444.617188 540.253906 L 444.617188 584.746094 C 444.617188 591.746094 438.957031 597.457031 431.90625 597.457031 " fill-opacity="1" fill-rule="nonzero"/><path fill="#da3d4d" d="M 198.773438 597.457031 L 110.683594 597.457031 L 110.683594 572.035156 L 198.773438 572.035156 Z M 337.113281 597.457031 L 249.074219 597.457031 L 249.074219 572.035156 L 337.113281 572.035156 L 337.113281 597.457031 " fill-opacity="1" fill-rule="nonzero"/><path fill="#da3d4d" d="M 60.382812 597.457031 L 15.890625 597.457031 C 8.886719 597.457031 3.179688 591.746094 3.179688 584.746094 L 3.179688 540.253906 L 28.601562 540.253906 L 28.601562 572.035156 L 60.382812 572.035156 L 60.382812 597.457031 " fill-opacity="1" fill-rule="nonzero"/><path fill="#da3d4d" d="M 28.601562 351.5625 L 3.179688 351.5625 L 3.179688 263.523438 L 28.601562 263.523438 Z M 28.601562 489.953125 L 3.179688 489.953125 L 3.179688 401.863281 L 28.601562 401.863281 L 28.601562 489.953125 " fill-opacity="1" fill-rule="nonzero"/><path fill="#da3d4d" d="M 28.601562 213.222656 L 3.179688 213.222656 L 3.179688 168.730469 C 3.179688 161.679688 8.886719 156.019531 15.890625 156.019531 L 60.382812 156.019531 L 60.382812 181.441406 L 28.601562 181.441406 L 28.601562 213.222656 " fill-opacity="1" fill-rule="nonzero"/><path fill="#da3d4d" d="M 198.773438 181.441406 L 110.683594 181.441406 L 110.683594 156.019531 L 198.773438 156.019531 Z M 337.113281 181.441406 L 249.074219 181.441406 L 249.074219 156.019531 L 337.113281 156.019531 L 337.113281 181.441406 " fill-opacity="1" fill-rule="nonzero"/><path fill="#da3d4d" d="M 444.617188 213.222656 L 419.195312 213.222656 L 419.195312 181.441406 L 387.414062 181.441406 L 387.414062 156.019531 L 431.90625 156.019531 C 438.957031 156.019531 444.617188 161.679688 444.617188 168.730469 L 444.617188 213.222656 " fill-opacity="1" fill-rule="nonzero"/><path fill="#da3d4d" d="M 444.617188 351.5625 L 419.195312 351.5625 L 419.195312 263.523438 L 444.617188 263.523438 Z M 444.617188 489.953125 L 419.195312 489.953125 L 419.195312 401.863281 L 444.617188 401.863281 L 444.617188 489.953125 " fill-opacity="1" fill-rule="nonzero"/><path fill="#da3d4d" d="M 587.921875 441.4375 L 543.433594 441.4375 L 543.433594 416.015625 L 575.210938 416.015625 L 575.210938 384.234375 L 600.636719 384.234375 L 600.636719 428.726562 C 600.636719 435.777344 594.925781 441.4375 587.921875 441.4375 " fill-opacity="1" fill-rule="nonzero"/><path fill="#da3d4d" d="M 354.742188 441.4375 L 266.699219 441.4375 L 266.699219 416.015625 L 354.742188 416.015625 Z M 493.132812 441.4375 L 405.042969 441.4375 L 405.042969 416.015625 L 493.132812 416.015625 L 493.132812 441.4375 " fill-opacity="1" fill-rule="nonzero"/><path fill="#da3d4d" d="M 216.398438 441.4375 L 171.90625 441.4375 C 164.855469 441.4375 159.195312 435.777344 159.195312 428.726562 L 159.195312 384.234375 L 184.621094 384.234375 L 184.621094 416.015625 L 216.398438 416.015625 L 216.398438 441.4375 " fill-opacity="1" fill-rule="nonzero"/><path fill="#da3d4d" d="M 184.621094 195.59375 L 159.195312 195.59375 L 159.195312 107.503906 L 184.621094 107.503906 Z M 184.621094 333.933594 L 159.195312 333.933594 L 159.195312 245.894531 L 184.621094 245.894531 L 184.621094 333.933594 " fill-opacity="1" fill-rule="nonzero"/><path fill="#da3d4d" d="M 184.621094 57.203125 L 159.195312 57.203125 L 159.195312 12.710938 C 159.195312 5.710938 164.855469 0 171.90625 0 L 216.398438 0 L 216.398438 25.421875 L 184.621094 25.421875 L 184.621094 57.203125 " fill-opacity="1" fill-rule="nonzero"/><path fill="#da3d4d" d="M 354.742188 25.421875 L 266.699219 25.421875 L 266.699219 0 L 354.742188 0 Z M 493.132812 25.421875 L 405.042969 25.421875 L 405.042969 0 L 493.132812 0 L 493.132812 25.421875 " fill-opacity="1" fill-rule="nonzero"/><path fill="#da3d4d" d="M 600.636719 57.203125 L 575.210938 57.203125 L 575.210938 25.421875 L 543.433594 25.421875 L 543.433594 0 L 587.921875 0 C 594.925781 0 600.636719 5.710938 600.636719 12.710938 L 600.636719 57.203125 " fill-opacity="1" fill-rule="nonzero"/><path fill="#da3d4d" d="M 600.636719 195.59375 L 575.210938 195.59375 L 575.210938 107.503906 L 600.636719 107.503906 Z M 600.636719 333.933594 L 575.210938 333.933594 L 575.210938 245.894531 L 600.636719 245.894531 L 600.636719 333.933594 " fill-opacity="1" fill-rule="nonzero"/><path fill="#da3d4d" d="M 24.878906 177.71875 L 6.902344 159.742188 L 38.382812 128.261719 L 56.308594 146.234375 L 24.878906 177.71875 " fill-opacity="1" fill-rule="nonzero"/><path fill="#da3d4d" d="M 81.1875 121.410156 L 63.160156 103.433594 L 106.609375 59.984375 L 124.585938 78.007812 L 81.1875 121.410156 " fill-opacity="1" fill-rule="nonzero"/><path fill="#da3d4d" d="M 149.414062 53.132812 L 131.4375 35.207031 L 162.921875 3.722656 L 180.894531 21.699219 L 149.414062 53.132812 " fill-opacity="1" fill-rule="nonzero"/><path fill="#da3d4d" d="M 149.414062 469.195312 L 131.4375 451.222656 L 162.921875 419.738281 L 180.894531 437.714844 L 149.414062 469.195312 " fill-opacity="1" fill-rule="nonzero"/><path fill="#da3d4d" d="M 81.1875 537.472656 L 63.160156 519.449219 L 106.609375 476.050781 L 124.585938 494.023438 L 81.1875 537.472656 " fill-opacity="1" fill-rule="nonzero"/><path fill="#da3d4d" d="M 24.878906 593.734375 L 6.902344 575.757812 L 38.382812 544.324219 L 56.308594 562.25 L 24.878906 593.734375 " fill-opacity="1" fill-rule="nonzero"/><path fill="#da3d4d" d="M 440.894531 593.734375 L 422.917969 575.757812 L 454.398438 544.324219 L 472.375 562.25 L 440.894531 593.734375 " fill-opacity="1" fill-rule="nonzero"/><path fill="#da3d4d" d="M 497.203125 537.472656 L 479.226562 519.449219 L 522.625 476.050781 L 540.652344 494.023438 L 497.203125 537.472656 " fill-opacity="1" fill-rule="nonzero"/><path fill="#da3d4d" d="M 565.429688 469.195312 L 547.503906 451.222656 L 578.9375 419.738281 L 596.910156 437.714844 L 565.429688 469.195312 " fill-opacity="1" fill-rule="nonzero"/><path fill="#da3d4d" d="M 440.894531 177.71875 L 422.917969 159.742188 L 454.398438 128.261719 L 472.375 146.234375 L 440.894531 177.71875 " fill-opacity="1" fill-rule="nonzero"/><path fill="#da3d4d" d="M 497.203125 121.410156 L 479.226562 103.433594 L 522.625 59.984375 L 540.652344 78.007812 L 497.203125 121.410156 " fill-opacity="1" fill-rule="nonzero"/><path fill="#da3d4d" d="M 565.429688 53.132812 L 547.503906 35.207031 L 578.9375 3.722656 L 596.910156 21.699219 L 565.429688 53.132812 " fill-opacity="1" fill-rule="nonzero"/></svg>