<svg xmlns="http://www.w3.org/2000/svg" xmlns:xlink="http://www.w3.org/1999/xlink" width="450" zoomAndPan="magnify" viewBox="0 0 337.5 337.500003" height="450" preserveAspectRatio="xMidYMid meet" version="1.0"><defs><g/><clipPath id="id1"><path d="M 0 0 L 337 0 L 337 337 L 0 337 Z M 0 0 " clip-rule="nonzero"/></clipPath><clipPath id="id2"><path d="M 0 0 L 337 0 L 337 337 L 0 337 Z M 0 0 " clip-rule="nonzero"/></clipPath><clipPath id="id3"><path d="M 168.75 0 C 75.550781 0 0 75.550781 0 168.75 C 0 261.949219 75.550781 337.5 168.75 337.5 C 261.949219 337.5 337.5 261.949219 337.5 168.75 C 337.5 75.550781 261.949219 0 168.75 0 " clip-rule="nonzero"/></clipPath></defs><g clip-path="url(#id1)"><path fill="#14c38e" d="M 168.75 0 C 75.550781 0 0 75.550781 0 168.75 C 0 261.949219 75.550781 337.5 168.75 337.5 C 261.949219 337.5 337.5 261.949219 337.5 168.75 C 337.5 75.550781 261.949219 0 168.75 0 " fill-opacity="1" fill-rule="nonzero"/></g><g clip-path="url(#id2)"><g clip-path="url(#id3)"><path stroke-linecap="butt" transform="matrix(0.75, 0, 0, 0.75, 0, 0.0000114852)" fill="none" stroke-linejoin="miter" d="M 225.000012 -0.0000153136 C 100.73438 -0.0000153136 0 100.734365 0 224.999996 C 0 349.265628 100.73438 450.000008 225.000012 450.000008 C 349.265643 450.000008 450.000023 349.265628 450.000023 224.999996 C 450.000023 100.734365 349.265643 -0.0000153136 225.000012 -0.0000153136 " stroke="#b8f1b0" stroke-width="32" stroke-opacity="1" stroke-miterlimit="4"/></g></g><g fill="#d32f23" fill-opacity="0.4196"><g transform="translate(62.54466, 253.360711)"><g><path d="M 112.953125 -74.0625 C 113.828125 -74.0625 114.519531 -73.765625 115.03125 -73.171875 C 115.550781 -72.585938 115.738281 -71.785156 115.59375 -70.765625 L 111.859375 -40 C 111.710938 -38.96875 111.34375 -38.160156 110.75 -37.578125 C 110.164062 -36.992188 109.363281 -36.703125 108.34375 -36.703125 L 101.75 -36.703125 C 101.15625 -36.703125 100.710938 -36.332031 100.421875 -35.59375 L 96.46875 -3.296875 C 96.320312 -2.273438 95.957031 -1.46875 95.375 -0.875 C 94.789062 -0.289062 93.984375 0 92.953125 0 L 59.328125 0 C 58.304688 0 57.535156 -0.289062 57.015625 -0.875 C 56.503906 -1.46875 56.320312 -2.273438 56.46875 -3.296875 L 60.4375 -35.59375 C 60.4375 -36.332031 60.140625 -36.703125 59.546875 -36.703125 L 5.046875 -36.703125 C 4.171875 -36.703125 3.476562 -36.992188 2.96875 -37.578125 C 2.457031 -38.160156 2.273438 -38.96875 2.421875 -40 L 5.28125 -64.390625 C 5.425781 -65.265625 5.789062 -66.582031 6.375 -68.34375 L 42.40625 -151.1875 C 43.144531 -152.945312 44.46875 -153.828125 46.375 -153.828125 L 82.40625 -153.828125 C 83.582031 -153.828125 84.390625 -153.492188 84.828125 -152.828125 C 85.265625 -152.171875 85.265625 -151.257812 84.828125 -150.09375 L 53.625 -75.375 C 53.175781 -74.5 53.394531 -74.0625 54.28125 -74.0625 L 64.171875 -74.0625 C 64.898438 -74.0625 65.265625 -74.425781 65.265625 -75.15625 L 67.25 -90.3125 C 67.394531 -91.34375 67.757812 -92.148438 68.34375 -92.734375 C 68.925781 -93.316406 69.734375 -93.609375 70.765625 -93.609375 L 104.375 -93.609375 C 105.40625 -93.609375 106.175781 -93.316406 106.6875 -92.734375 C 107.195312 -92.148438 107.378906 -91.34375 107.234375 -90.3125 L 105.265625 -75.15625 C 105.265625 -74.425781 105.628906 -74.0625 106.359375 -74.0625 Z M 112.953125 -74.0625 "/></g></g></g><g fill="#d32f23" fill-opacity="0.4196"><g transform="translate(175.492122, 253.360711)"><g><path d="M 53.171875 -36.703125 C 52.734375 -36.410156 52.585938 -36.113281 52.734375 -35.8125 C 52.878906 -35.519531 53.175781 -35.375 53.625 -35.375 L 93.390625 -35.375 C 94.421875 -35.375 95.191406 -35.082031 95.703125 -34.5 C 96.210938 -33.914062 96.394531 -33.109375 96.25 -32.078125 L 92.734375 -3.296875 C 92.585938 -2.273438 92.179688 -1.46875 91.515625 -0.875 C 90.859375 -0.289062 90.019531 0 89 0 L 2.859375 0 C 1.828125 0 1.054688 -0.289062 0.546875 -0.875 C 0.0351562 -1.46875 -0.144531 -2.273438 0 -3.296875 L 3.515625 -32.96875 C 3.804688 -34.570312 4.539062 -35.960938 5.71875 -37.140625 L 21.96875 -53.625 C 35.59375 -67.25 45.265625 -77.578125 50.984375 -84.609375 C 55.378906 -90.171875 58.710938 -95.296875 60.984375 -99.984375 C 63.253906 -104.671875 64.390625 -109.210938 64.390625 -113.609375 C 64.390625 -115.804688 63.984375 -117.453125 63.171875 -118.546875 C 62.367188 -119.648438 61.234375 -120.203125 59.765625 -120.203125 C 58.015625 -120.203125 56.515625 -119.503906 55.265625 -118.109375 C 54.023438 -116.722656 53.253906 -114.859375 52.953125 -112.515625 L 51.859375 -103.28125 C 51.710938 -102.257812 51.347656 -101.453125 50.765625 -100.859375 C 50.179688 -100.273438 49.375 -99.984375 48.34375 -99.984375 L 14.28125 -99.984375 C 13.257812 -99.984375 12.488281 -100.273438 11.96875 -100.859375 C 11.457031 -101.453125 11.273438 -102.257812 11.421875 -103.28125 L 12.75 -114.265625 C 15.09375 -126.722656 21.171875 -136.722656 30.984375 -144.265625 C 40.796875 -151.804688 52.441406 -155.578125 65.921875 -155.578125 C 77.929688 -155.578125 87.453125 -152.132812 94.484375 -145.25 C 101.523438 -138.363281 105.046875 -129.207031 105.046875 -117.78125 C 105.046875 -116.320312 104.894531 -113.976562 104.59375 -110.75 C 103.570312 -102.550781 101.554688 -95.265625 98.546875 -88.890625 C 95.546875 -82.515625 90.972656 -75.738281 84.828125 -68.5625 C 78.523438 -61.238281 69.296875 -51.9375 57.140625 -40.65625 Z M 53.171875 -36.703125 "/></g></g></g><g fill="#e3fcbf" fill-opacity="1"><g transform="translate(56.012506, 247.479133)"><g><path d="M 112.953125 -74.0625 C 113.828125 -74.0625 114.519531 -73.765625 115.03125 -73.171875 C 115.550781 -72.585938 115.738281 -71.785156 115.59375 -70.765625 L 111.859375 -40 C 111.710938 -38.96875 111.34375 -38.160156 110.75 -37.578125 C 110.164062 -36.992188 109.363281 -36.703125 108.34375 -36.703125 L 101.75 -36.703125 C 101.15625 -36.703125 100.710938 -36.332031 100.421875 -35.59375 L 96.46875 -3.296875 C 96.320312 -2.273438 95.957031 -1.46875 95.375 -0.875 C 94.789062 -0.289062 93.984375 0 92.953125 0 L 59.328125 0 C 58.304688 0 57.535156 -0.289062 57.015625 -0.875 C 56.503906 -1.46875 56.320312 -2.273438 56.46875 -3.296875 L 60.4375 -35.59375 C 60.4375 -36.332031 60.140625 -36.703125 59.546875 -36.703125 L 5.046875 -36.703125 C 4.171875 -36.703125 3.476562 -36.992188 2.96875 -37.578125 C 2.457031 -38.160156 2.273438 -38.96875 2.421875 -40 L 5.28125 -64.390625 C 5.425781 -65.265625 5.789062 -66.582031 6.375 -68.34375 L 42.40625 -151.1875 C 43.144531 -152.945312 44.46875 -153.828125 46.375 -153.828125 L 82.40625 -153.828125 C 83.582031 -153.828125 84.390625 -153.492188 84.828125 -152.828125 C 85.265625 -152.171875 85.265625 -151.257812 84.828125 -150.09375 L 53.625 -75.375 C 53.175781 -74.5 53.394531 -74.0625 54.28125 -74.0625 L 64.171875 -74.0625 C 64.898438 -74.0625 65.265625 -74.425781 65.265625 -75.15625 L 67.25 -90.3125 C 67.394531 -91.34375 67.757812 -92.148438 68.34375 -92.734375 C 68.925781 -93.316406 69.734375 -93.609375 70.765625 -93.609375 L 104.375 -93.609375 C 105.40625 -93.609375 106.175781 -93.316406 106.6875 -92.734375 C 107.195312 -92.148438 107.378906 -91.34375 107.234375 -90.3125 L 105.265625 -75.15625 C 105.265625 -74.425781 105.628906 -74.0625 106.359375 -74.0625 Z M 112.953125 -74.0625 "/></g></g></g><g fill="#e3fcbf" fill-opacity="1"><g transform="translate(168.959969, 247.479133)"><g><path d="M 53.171875 -36.703125 C 52.734375 -36.410156 52.585938 -36.113281 52.734375 -35.8125 C 52.878906 -35.519531 53.175781 -35.375 53.625 -35.375 L 93.390625 -35.375 C 94.421875 -35.375 95.191406 -35.082031 95.703125 -34.5 C 96.210938 -33.914062 96.394531 -33.109375 96.25 -32.078125 L 92.734375 -3.296875 C 92.585938 -2.273438 92.179688 -1.46875 91.515625 -0.875 C 90.859375 -0.289062 90.019531 0 89 0 L 2.859375 0 C 1.828125 0 1.054688 -0.289062 0.546875 -0.875 C 0.0351562 -1.46875 -0.144531 -2.273438 0 -3.296875 L 3.515625 -32.96875 C 3.804688 -34.570312 4.539062 -35.960938 5.71875 -37.140625 L 21.96875 -53.625 C 35.59375 -67.25 45.265625 -77.578125 50.984375 -84.609375 C 55.378906 -90.171875 58.710938 -95.296875 60.984375 -99.984375 C 63.253906 -104.671875 64.390625 -109.210938 64.390625 -113.609375 C 64.390625 -115.804688 63.984375 -117.453125 63.171875 -118.546875 C 62.367188 -119.648438 61.234375 -120.203125 59.765625 -120.203125 C 58.015625 -120.203125 56.515625 -119.503906 55.265625 -118.109375 C 54.023438 -116.722656 53.253906 -114.859375 52.953125 -112.515625 L 51.859375 -103.28125 C 51.710938 -102.257812 51.347656 -101.453125 50.765625 -100.859375 C 50.179688 -100.273438 49.375 -99.984375 48.34375 -99.984375 L 14.28125 -99.984375 C 13.257812 -99.984375 12.488281 -100.273438 11.96875 -100.859375 C 11.457031 -101.453125 11.273438 -102.257812 11.421875 -103.28125 L 12.75 -114.265625 C 15.09375 -126.722656 21.171875 -136.722656 30.984375 -144.265625 C 40.796875 -151.804688 52.441406 -155.578125 65.921875 -155.578125 C 77.929688 -155.578125 87.453125 -152.132812 94.484375 -145.25 C 101.523438 -138.363281 105.046875 -129.207031 105.046875 -117.78125 C 105.046875 -116.320312 104.894531 -113.976562 104.59375 -110.75 C 103.570312 -102.550781 101.554688 -95.265625 98.546875 -88.890625 C 95.546875 -82.515625 90.972656 -75.738281 84.828125 -68.5625 C 78.523438 -61.238281 69.296875 -51.9375 57.140625 -40.65625 Z M 53.171875 -36.703125 "/></g></g></g></svg>