<svg xmlns="http://www.w3.org/2000/svg" xmlns:xlink="http://www.w3.org/1999/xlink" width="1000" zoomAndPan="magnify" viewBox="0 0 750 749.999995" height="1000" preserveAspectRatio="xMidYMid meet" version="1.0"><path fill="#000000" d="M 399.8125 378.535156 C 400.953125 389.652344 397.867188 401.234375 390.269531 410.554688 L 389.445312 411.472656 C 384.75 416.207031 377.113281 416.207031 372.398438 411.507812 C 367.8125 406.921875 367.703125 399.53125 372.0625 394.796875 C 375.113281 390.738281 376.367188 385.761719 375.859375 380.988281 C 375.375 376.199219 373.148438 371.59375 369.328125 368.246094 L 354.601562 356.230469 C 350.429688 352.824219 345.210938 351.460938 340.195312 351.964844 C 335.179688 352.488281 330.351562 354.882812 326.964844 359.058594 C 323.578125 363.230469 322.191406 368.449219 322.71875 373.464844 C 323.222656 378.480469 325.636719 383.289062 329.808594 386.695312 L 343.972656 398.222656 C 353.3125 405.820312 358.683594 416.523438 359.824219 427.65625 C 360.964844 438.792969 357.878906 450.355469 350.28125 459.691406 C 342.683594 469.03125 331.980469 474.421875 320.847656 475.5625 C 310.628906 476.609375 300.039062 474.046875 291.148438 467.738281 L 281.90625 479.097656 C 277.714844 484.242188 270.132812 485.03125 264.988281 480.839844 C 259.84375 476.648438 259.058594 469.066406 263.25 463.921875 L 272.492188 452.546875 C 264.519531 445.117188 259.824219 435.273438 258.792969 425.054688 C 257.652344 413.941406 260.742188 402.359375 268.339844 393.019531 L 269.160156 392.101562 C 273.859375 387.367188 281.492188 387.367188 286.207031 392.066406 C 290.792969 396.652344 290.90625 404.042969 286.5625 408.757812 C 283.496094 412.835938 282.261719 417.796875 282.746094 422.585938 C 283.234375 427.375 285.460938 431.980469 289.277344 435.328125 L 304.003906 447.34375 C 308.175781 450.75 313.378906 452.113281 318.414062 451.609375 C 323.429688 451.105469 328.257812 448.691406 331.644531 444.515625 C 335.03125 440.34375 336.414062 435.140625 335.890625 430.109375 C 335.386719 425.09375 332.972656 420.285156 328.796875 416.878906 L 314.632812 405.351562 C 305.296875 397.753906 299.925781 387.050781 298.785156 375.917969 C 297.640625 364.78125 300.730469 353.21875 308.328125 343.882812 C 315.925781 334.542969 326.628906 329.152344 337.761719 328.011719 C 347.980469 326.964844 358.570312 329.527344 367.457031 335.835938 L 376.703125 324.476562 C 380.894531 319.328125 388.472656 318.542969 393.617188 322.734375 C 398.765625 326.925781 399.550781 334.507812 395.359375 339.652344 L 386.097656 351.027344 C 394.085938 358.457031 398.765625 368.300781 399.8125 378.535156 Z M 313.902344 556.792969 L 180.667969 448.390625 C 175.523438 444.199219 167.945312 444.984375 163.753906 450.132812 C 159.5625 455.277344 160.347656 462.855469 165.492188 467.046875 L 298.726562 575.449219 C 303.875 579.640625 311.453125 578.855469 315.644531 573.707031 C 319.835938 568.5625 319.050781 560.984375 313.902344 556.792969 Z M 278.890625 599.8125 L 145.660156 491.410156 C 140.511719 487.21875 132.933594 488.003906 128.742188 493.152344 C 124.550781 498.296875 125.335938 505.875 130.484375 510.066406 L 263.714844 618.46875 C 268.863281 622.660156 276.441406 621.875 280.632812 616.730469 C 284.824219 611.582031 284.039062 604.003906 278.890625 599.8125 Z M 750 174.8125 C 750 223.074219 730.425781 266.765625 698.800781 298.390625 C 667.195312 329.996094 623.484375 349.550781 575.167969 349.570312 C 568.582031 349.570312 562.144531 349.269531 555.855469 348.632812 C 553.761719 348.429688 551.703125 348.167969 549.625 347.886719 L 540.980469 420.378906 C 540.664062 423.035156 539.519531 425.375 537.835938 427.171875 L 280.015625 744.066406 C 275.824219 749.214844 268.246094 750 263.097656 745.808594 L 5.933594 536.546875 C 0.785156 532.355469 0 524.777344 4.191406 519.628906 L 262.539062 202.132812 C 264.035156 200.300781 265.960938 199.007812 268.058594 198.316406 L 401.683594 153.5 C 406.511719 113.753906 424.683594 78.105469 451.589844 51.199219 C 483.214844 19.574219 526.910156 0 575.1875 0 C 623.464844 0 667.160156 19.574219 698.800781 51.199219 C 730.425781 82.839844 750 126.554688 750 174.8125 Z M 517.476562 414.148438 L 536.996094 250.710938 L 435.011719 167.722656 L 424.605469 171.21875 C 424.570312 172.417969 424.511719 173.632812 424.511719 174.832031 C 424.511719 192.382812 427.601562 209.09375 433.140625 224.605469 C 434.542969 224.34375 435.964844 224.15625 437.40625 224.046875 L 437.480469 224.046875 C 449.082031 223.128906 459.992188 226.984375 468.246094 234 C 476.535156 241.035156 482.128906 251.234375 483.082031 262.910156 L 483.082031 262.96875 C 484.019531 274.570312 480.144531 285.496094 473.128906 293.75 C 466.09375 302.039062 455.875 307.652344 444.199219 308.589844 C 432.578125 309.542969 421.632812 305.652344 413.359375 298.632812 C 405.070312 291.597656 399.457031 281.382812 398.523438 269.703125 C 397.585938 258.082031 401.460938 247.136719 408.476562 238.867188 C 409.449219 237.722656 410.480469 236.640625 411.5625 235.609375 C 404.902344 217.984375 400.953125 199.082031 400.429688 179.304688 L 278.984375 220.023438 L 30.445312 525.46875 L 268.957031 719.535156 Z M 422.546875 267.8125 C 422.960938 272.847656 425.355469 277.226562 428.910156 280.238281 C 431.792969 282.691406 435.480469 284.226562 439.445312 284.523438 C 433.496094 277.019531 428.144531 269.050781 423.371094 260.667969 C 422.660156 262.894531 422.34375 265.308594 422.546875 267.8125 Z M 459.039062 265.214844 L 458.980469 264.410156 C 458.496094 259.542969 456.117188 255.3125 452.65625 252.375 C 450.242188 250.316406 447.269531 248.914062 444.011719 248.335938 C 448.316406 255.96875 453.199219 263.25 458.664062 270.058594 C 459 268.488281 459.132812 266.859375 459.039062 265.214844 Z M 725.859375 174.8125 C 725.859375 133.195312 709 95.527344 681.738281 68.261719 C 654.472656 41 616.804688 24.140625 575.1875 24.140625 C 533.570312 24.140625 495.902344 41.019531 468.636719 68.261719 C 448.089844 88.792969 433.476562 115.25 427.488281 144.835938 L 433.625 142.777344 C 437.761719 141.390625 442.121094 142.382812 445.226562 145.003906 L 557.335938 236.226562 C 560.648438 238.921875 562.144531 243.019531 561.695312 246.96875 L 552.507812 324.007812 C 554.417969 324.269531 556.324219 324.511719 558.234375 324.699219 C 563.847656 325.261719 569.515625 325.542969 575.1875 325.542969 C 616.765625 325.523438 654.453125 308.625 681.753906 281.34375 C 709 254.078125 725.859375 216.429688 725.859375 174.8125 Z M 725.859375 174.8125 " fill-opacity="1" fill-rule="nonzero"/></svg>