<svg xmlns="http://www.w3.org/2000/svg" xmlns:xlink="http://www.w3.org/1999/xlink" width="1024" zoomAndPan="magnify" viewBox="0 0 768 767.999994" height="1024" preserveAspectRatio="xMidYMid meet" version="1.0"><path fill="#56b48c" d="M 384 0 C 171.957031 0 0 171.957031 0 384 C 0 596.042969 171.957031 768 384 768 C 596.042969 768 768 596.042969 768 384 C 768 171.957031 596.042969 0 384 0 Z M 384 0 " fill-opacity="1" fill-rule="nonzero"/><path fill="#e3fcbf" d="M 496.058594 394.988281 C 490.640625 381.832031 483.210938 370.535156 473.617188 360.9375 C 464.019531 351.34375 453.03125 343.757812 440.339844 338.339844 C 427.648438 332.921875 414.179688 330.136719 399.632812 330.136719 C 381.523438 330.136719 361.710938 335.863281 340.199219 347.316406 L 353.042969 273.800781 L 460.769531 273.800781 C 471.914062 273.800781 480.425781 271.324219 486.152344 266.523438 C 491.878906 261.726562 494.820312 255.382812 494.820312 247.488281 C 494.820312 229.535156 483.058594 220.554688 459.375 220.554688 L 339.734375 220.554688 C 326.734375 220.554688 317.292969 223.496094 311.566406 229.378906 C 305.839844 235.261719 301.8125 244.703125 299.800781 257.703125 L 280.765625 366.355469 C 279.0625 375.953125 278.289062 381.058594 278.289062 381.832031 C 278.289062 388.644531 281.226562 394.679688 286.957031 400.097656 C 292.683594 405.515625 299.335938 408.144531 306.613281 408.144531 C 313.421875 408.144531 322.089844 404.121094 332.613281 396.226562 C 343.140625 388.332031 351.1875 382.761719 356.757812 379.511719 C 362.332031 376.261719 371.617188 374.714844 384.617188 374.714844 C 395.144531 374.714844 404.738281 377.191406 413.40625 382.296875 C 422.074219 387.40625 428.886719 394.988281 433.992188 405.359375 C 439.101562 415.574219 441.730469 427.957031 441.730469 442.503906 C 441.730469 455.972656 439.410156 468.042969 434.613281 478.566406 C 429.8125 489.09375 423.160156 497.449219 414.335938 503.488281 C 405.515625 509.523438 395.296875 512.617188 383.691406 512.617188 C 371 512.617188 359.546875 508.90625 349.175781 501.320312 C 338.960938 493.890625 330.757812 483.367188 324.71875 469.902344 C 318.53125 455.195312 309.089844 447.921875 296.398438 447.921875 C 288.96875 447.921875 282.777344 450.554688 277.976562 455.816406 C 273.023438 461.078125 270.550781 466.652344 270.550781 472.53125 C 270.550781 482.28125 274.109375 493.425781 281.074219 506.429688 C 288.039062 519.429688 300.109375 530.726562 316.828125 540.789062 C 333.699219 550.695312 355.675781 555.800781 382.761719 555.800781 C 406.90625 555.800781 428.265625 550.539062 446.839844 539.859375 C 465.414062 529.335938 479.496094 514.941406 489.402344 496.988281 C 499.152344 479.03125 504.105469 459.066406 504.105469 437.089844 C 504.261719 422.230469 501.628906 408.144531 496.058594 394.988281 " fill-opacity="1" fill-rule="nonzero"/></svg>