<svg xmlns="http://www.w3.org/2000/svg" xmlns:xlink="http://www.w3.org/1999/xlink" width="450" zoomAndPan="magnify" viewBox="0 0 337.5 337.500003" height="450" preserveAspectRatio="xMidYMid meet" version="1.0"><defs><g/><clipPath id="id1"><path d="M 0 0 L 337 0 L 337 337 L 0 337 Z M 0 0 " clip-rule="nonzero"/></clipPath><clipPath id="id2"><path d="M 0 0 L 337 0 L 337 337 L 0 337 Z M 0 0 " clip-rule="nonzero"/></clipPath><clipPath id="id3"><path d="M 168.75 0 C 75.550781 0 0 75.550781 0 168.75 C 0 261.949219 75.550781 337.5 168.75 337.5 C 261.949219 337.5 337.5 261.949219 337.5 168.75 C 337.5 75.550781 261.949219 0 168.75 0 " clip-rule="nonzero"/></clipPath></defs><g clip-path="url(#id1)"><path fill="#14c38e" d="M 168.75 0 C 75.550781 0 0 75.550781 0 168.75 C 0 261.949219 75.550781 337.5 168.75 337.5 C 261.949219 337.5 337.5 261.949219 337.5 168.75 C 337.5 75.550781 261.949219 0 168.75 0 " fill-opacity="1" fill-rule="nonzero"/></g><g clip-path="url(#id2)"><g clip-path="url(#id3)"><path stroke-linecap="butt" transform="matrix(0.75, 0, 0, 0.75, 0, 0.0000114852)" fill="none" stroke-linejoin="miter" d="M 225.000012 -0.0000153136 C 100.73438 -0.0000153136 0 100.734365 0 224.999996 C 0 349.265628 100.73438 450.000008 225.000012 450.000008 C 349.265643 450.000008 450.000023 349.265628 450.000023 224.999996 C 450.000023 100.734365 349.265643 -0.0000153136 225.000012 -0.0000153136 " stroke="#b8f1b0" stroke-width="32" stroke-opacity="1" stroke-miterlimit="4"/></g></g><g fill="#d32f23" fill-opacity="0.4196"><g transform="translate(120.997778, 253.360711)"><g><path d="M 101.53125 -121.734375 C 101.382812 -120.710938 100.976562 -119.90625 100.3125 -119.3125 C 99.65625 -118.726562 98.8125 -118.4375 97.78125 -118.4375 L 56.921875 -118.4375 C 56.179688 -118.4375 55.8125 -118.070312 55.8125 -117.34375 L 53.171875 -95.8125 C 52.878906 -95.082031 53.175781 -94.71875 54.0625 -94.71875 L 75.375 -94.71875 C 76.394531 -94.71875 77.160156 -94.421875 77.671875 -93.828125 C 78.191406 -93.242188 78.378906 -92.441406 78.234375 -91.421875 L 74.71875 -62.625 C 74.28125 -60.425781 73.035156 -59.328125 70.984375 -59.328125 L 49.65625 -59.328125 C 48.925781 -59.328125 48.5625 -58.960938 48.5625 -58.234375 L 45.921875 -36.484375 C 45.628906 -35.742188 45.925781 -35.375 46.8125 -35.375 L 87.6875 -35.375 C 88.707031 -35.375 89.472656 -35.082031 89.984375 -34.5 C 90.492188 -33.914062 90.675781 -33.109375 90.53125 -32.078125 L 87.015625 -3.296875 C 86.867188 -2.273438 86.46875 -1.46875 85.8125 -0.875 C 85.15625 -0.289062 84.3125 0 83.28125 0 L 4.390625 0 C 3.515625 0 2.816406 -0.289062 2.296875 -0.875 C 1.785156 -1.46875 1.609375 -2.273438 1.765625 -3.296875 L 19.78125 -150.53125 C 19.925781 -151.550781 20.328125 -152.351562 20.984375 -152.9375 C 21.640625 -153.53125 22.410156 -153.828125 23.296875 -153.828125 L 102.1875 -153.828125 C 103.207031 -153.828125 103.972656 -153.53125 104.484375 -152.9375 C 105.003906 -152.351562 105.191406 -151.550781 105.046875 -150.53125 Z M 101.53125 -121.734375 "/></g></g></g><g fill="#e3fcbf" fill-opacity="1"><g transform="translate(114.465624, 247.479133)"><g><path d="M 101.53125 -121.734375 C 101.382812 -120.710938 100.976562 -119.90625 100.3125 -119.3125 C 99.65625 -118.726562 98.8125 -118.4375 97.78125 -118.4375 L 56.921875 -118.4375 C 56.179688 -118.4375 55.8125 -118.070312 55.8125 -117.34375 L 53.171875 -95.8125 C 52.878906 -95.082031 53.175781 -94.71875 54.0625 -94.71875 L 75.375 -94.71875 C 76.394531 -94.71875 77.160156 -94.421875 77.671875 -93.828125 C 78.191406 -93.242188 78.378906 -92.441406 78.234375 -91.421875 L 74.71875 -62.625 C 74.28125 -60.425781 73.035156 -59.328125 70.984375 -59.328125 L 49.65625 -59.328125 C 48.925781 -59.328125 48.5625 -58.960938 48.5625 -58.234375 L 45.921875 -36.484375 C 45.628906 -35.742188 45.925781 -35.375 46.8125 -35.375 L 87.6875 -35.375 C 88.707031 -35.375 89.472656 -35.082031 89.984375 -34.5 C 90.492188 -33.914062 90.675781 -33.109375 90.53125 -32.078125 L 87.015625 -3.296875 C 86.867188 -2.273438 86.46875 -1.46875 85.8125 -0.875 C 85.15625 -0.289062 84.3125 0 83.28125 0 L 4.390625 0 C 3.515625 0 2.816406 -0.289062 2.296875 -0.875 C 1.785156 -1.46875 1.609375 -2.273438 1.765625 -3.296875 L 19.78125 -150.53125 C 19.925781 -151.550781 20.328125 -152.351562 20.984375 -152.9375 C 21.640625 -153.53125 22.410156 -153.828125 23.296875 -153.828125 L 102.1875 -153.828125 C 103.207031 -153.828125 103.972656 -153.53125 104.484375 -152.9375 C 105.003906 -152.351562 105.191406 -151.550781 105.046875 -150.53125 Z M 101.53125 -121.734375 "/></g></g></g></svg>