<svg xmlns="http://www.w3.org/2000/svg" xmlns:xlink="http://www.w3.org/1999/xlink" width="451" zoomAndPan="magnify" viewBox="0 0 338.25 374.999991" height="500" preserveAspectRatio="xMidYMid meet" version="1.0"><defs><clipPath id="id1"><path d="M 0 1 L 337 1 L 337 374.585938 L 0 374.585938 Z M 0 1 " clip-rule="nonzero"/></clipPath></defs><g clip-path="url(#id1)"><path fill="#008037" d="M 287.992188 348.148438 L 274.675781 344.816406 L 274.675781 44.617188 C 274.675781 41.1875 271.878906 38.390625 268.445312 38.390625 L 70.175781 38.390625 L 74.238281 14.023438 L 323.84375 37.761719 Z M 262.214844 362.132812 L 12.976562 362.132812 L 12.976562 50.84375 L 262.214844 50.84375 Z M 69.640625 1.0625 C 66.328125 0.671875 63.433594 3.03125 62.921875 6.242188 L 57.542969 38.390625 L 6.746094 38.390625 C 3.3125 38.390625 0.515625 41.1875 0.515625 44.617188 L 0.515625 368.359375 C 0.515625 371.789062 3.3125 374.585938 6.746094 374.585938 L 268.445312 374.585938 C 271.878906 374.585938 274.675781 371.789062 274.675781 368.359375 L 274.675781 357.660156 L 291.859375 361.9375 C 292.371094 362.0625 292.859375 362.132812 293.371094 362.132812 C 294.636719 362.132812 295.878906 361.746094 296.925781 361.039062 C 298.382812 359.992188 299.359375 358.386719 299.550781 356.613281 L 336.9375 32.871094 C 337.132812 31.21875 336.644531 29.5625 335.601562 28.25 C 334.554688 26.9375 333.019531 26.136719 331.339844 25.964844 L 69.640625 1.0625 " fill-opacity="1" fill-rule="nonzero"/></g><path fill="#008037" d="M 37.898438 100.648438 L 25.4375 100.648438 L 25.4375 200.261719 L 249.753906 200.261719 L 249.753906 187.8125 L 37.898438 187.8125 L 37.898438 100.648438 " fill-opacity="1" fill-rule="nonzero"/><path fill="#008037" d="M 175.445312 137.03125 L 136.792969 111.328125 L 100.210938 147.878906 L 81.515625 129.203125 L 45.957031 164.730469 L 54.769531 173.535156 L 81.515625 146.808594 L 100.210938 165.484375 L 138.398438 127.328125 L 174.519531 151.429688 L 252.550781 112.445312 L 246.953125 101.308594 L 175.445312 137.03125 " fill-opacity="1" fill-rule="nonzero"/><path fill="#008037" d="M 37.898438 88.199219 C 44.765625 88.199219 50.363281 82.605469 50.363281 75.746094 C 50.363281 68.890625 44.765625 63.296875 37.898438 63.296875 C 31.035156 63.296875 25.4375 68.890625 25.4375 75.746094 C 25.4375 82.605469 31.035156 88.199219 37.898438 88.199219 " fill-opacity="1" fill-rule="nonzero"/><path fill="#008037" d="M 237.292969 88.199219 C 244.15625 88.199219 249.753906 82.605469 249.753906 75.746094 C 249.753906 68.890625 244.15625 63.296875 237.292969 63.296875 C 230.429688 63.296875 224.828125 68.890625 224.828125 75.746094 C 224.828125 82.605469 230.429688 88.199219 237.292969 88.199219 " fill-opacity="1" fill-rule="nonzero"/><path fill="#008037" d="M 37.898438 324.777344 C 31.035156 324.777344 25.4375 330.371094 25.4375 337.230469 C 25.4375 344.089844 31.035156 349.683594 37.898438 349.683594 C 44.765625 349.683594 50.363281 344.089844 50.363281 337.230469 C 50.363281 330.371094 44.765625 324.777344 37.898438 324.777344 " fill-opacity="1" fill-rule="nonzero"/><path fill="#008037" d="M 237.292969 324.777344 C 230.429688 324.777344 224.828125 330.371094 224.828125 337.230469 C 224.828125 344.089844 230.429688 349.683594 237.292969 349.683594 C 244.15625 349.683594 249.753906 344.089844 249.753906 337.230469 C 249.753906 330.371094 244.15625 324.777344 237.292969 324.777344 " fill-opacity="1" fill-rule="nonzero"/><path fill="#008037" d="M 25.4375 225.167969 L 100.210938 225.167969 L 100.210938 212.714844 L 25.4375 212.714844 L 25.4375 225.167969 " fill-opacity="1" fill-rule="nonzero"/><path fill="#008037" d="M 137.597656 349.683594 L 212.367188 349.683594 L 212.367188 337.230469 L 137.597656 337.230469 L 137.597656 349.683594 " fill-opacity="1" fill-rule="nonzero"/><path fill="#008037" d="M 25.4375 250.070312 L 100.210938 250.070312 L 100.210938 237.617188 L 25.4375 237.617188 L 25.4375 250.070312 " fill-opacity="1" fill-rule="nonzero"/><path fill="#008037" d="M 25.4375 274.972656 L 100.210938 274.972656 L 100.210938 262.519531 L 25.4375 262.519531 L 25.4375 274.972656 " fill-opacity="1" fill-rule="nonzero"/><path fill="#008037" d="M 37.898438 287.425781 L 25.4375 287.425781 L 25.4375 299.875 L 37.898438 299.875 L 37.898438 287.425781 " fill-opacity="1" fill-rule="nonzero"/><path fill="#008037" d="M 50.363281 299.875 L 62.824219 299.875 L 62.824219 287.425781 L 50.363281 287.425781 L 50.363281 299.875 " fill-opacity="1" fill-rule="nonzero"/><path fill="#008037" d="M 87.75 287.425781 L 75.285156 287.425781 L 75.285156 299.875 L 87.75 299.875 L 87.75 287.425781 " fill-opacity="1" fill-rule="nonzero"/><path fill="#008037" d="M 125.132812 268.746094 C 125.132812 246.835938 141.417969 228.644531 162.519531 225.605469 L 162.519531 274.972656 L 211.929688 274.972656 C 208.886719 296.058594 190.679688 312.328125 168.75 312.328125 C 144.703125 312.328125 125.132812 292.773438 125.132812 268.746094 Z M 224.828125 268.746094 L 224.828125 262.519531 L 174.980469 262.519531 L 174.980469 212.714844 L 168.75 212.714844 C 137.816406 212.714844 112.671875 237.835938 112.671875 268.746094 C 112.671875 299.65625 137.816406 324.777344 168.75 324.777344 C 199.6875 324.777344 224.828125 299.65625 224.828125 268.746094 " fill-opacity="1" fill-rule="nonzero"/><path fill="#008037" d="M 181.652344 247.757812 L 193.238281 252.378906 L 204.117188 225.167969 L 249.753906 225.167969 L 249.753906 212.714844 L 195.695312 212.714844 L 181.652344 247.757812 " fill-opacity="1" fill-rule="nonzero"/><path fill="#008037" d="M 112.671875 349.683594 L 125.132812 349.683594 L 125.132812 337.230469 L 112.671875 337.230469 L 112.671875 349.683594 " fill-opacity="1" fill-rule="nonzero"/><path fill="#008037" d="M 87.75 349.683594 L 100.210938 349.683594 L 100.210938 337.230469 L 87.75 337.230469 L 87.75 349.683594 " fill-opacity="1" fill-rule="nonzero"/></svg>