<svg xmlns="http://www.w3.org/2000/svg" xmlns:xlink="http://www.w3.org/1999/xlink" width="450" zoomAndPan="magnify" viewBox="0 0 337.5 337.500003" height="450" preserveAspectRatio="xMidYMid meet" version="1.0"><defs><g/><clipPath id="id1"><path d="M 0 0 L 337 0 L 337 337 L 0 337 Z M 0 0 " clip-rule="nonzero"/></clipPath><clipPath id="id2"><path d="M 0 0 L 337 0 L 337 337 L 0 337 Z M 0 0 " clip-rule="nonzero"/></clipPath><clipPath id="id3"><path d="M 168.75 0 C 75.550781 0 0 75.550781 0 168.75 C 0 261.949219 75.550781 337.5 168.75 337.5 C 261.949219 337.5 337.5 261.949219 337.5 168.75 C 337.5 75.550781 261.949219 0 168.75 0 " clip-rule="nonzero"/></clipPath></defs><g clip-path="url(#id1)"><path fill="#14c38e" d="M 168.75 0 C 75.550781 0 0 75.550781 0 168.75 C 0 261.949219 75.550781 337.5 168.75 337.5 C 261.949219 337.5 337.5 261.949219 337.5 168.75 C 337.5 75.550781 261.949219 0 168.75 0 " fill-opacity="1" fill-rule="nonzero"/></g><g clip-path="url(#id2)"><g clip-path="url(#id3)"><path stroke-linecap="butt" transform="matrix(0.75, 0, 0, 0.75, 0, 0.0000114852)" fill="none" stroke-linejoin="miter" d="M 225.000012 -0.0000153136 C 100.73438 -0.0000153136 0 100.734365 0 224.999996 C 0 349.265628 100.73438 450.000008 225.000012 450.000008 C 349.265643 450.000008 450.000023 349.265628 450.000023 224.999996 C 450.000023 100.734365 349.265643 -0.0000153136 225.000012 -0.0000153136 " stroke="#b8f1b0" stroke-width="32" stroke-opacity="1" stroke-miterlimit="4"/></g></g><g fill="#d32f23" fill-opacity="0.4196"><g transform="translate(70.12669, 253.360711)"><g><path d="M 53.171875 -36.703125 C 52.734375 -36.410156 52.585938 -36.113281 52.734375 -35.8125 C 52.878906 -35.519531 53.175781 -35.375 53.625 -35.375 L 93.390625 -35.375 C 94.421875 -35.375 95.191406 -35.082031 95.703125 -34.5 C 96.210938 -33.914062 96.394531 -33.109375 96.25 -32.078125 L 92.734375 -3.296875 C 92.585938 -2.273438 92.179688 -1.46875 91.515625 -0.875 C 90.859375 -0.289062 90.019531 0 89 0 L 2.859375 0 C 1.828125 0 1.054688 -0.289062 0.546875 -0.875 C 0.0351562 -1.46875 -0.144531 -2.273438 0 -3.296875 L 3.515625 -32.96875 C 3.804688 -34.570312 4.539062 -35.960938 5.71875 -37.140625 L 21.96875 -53.625 C 35.59375 -67.25 45.265625 -77.578125 50.984375 -84.609375 C 55.378906 -90.171875 58.710938 -95.296875 60.984375 -99.984375 C 63.253906 -104.671875 64.390625 -109.210938 64.390625 -113.609375 C 64.390625 -115.804688 63.984375 -117.453125 63.171875 -118.546875 C 62.367188 -119.648438 61.234375 -120.203125 59.765625 -120.203125 C 58.015625 -120.203125 56.515625 -119.503906 55.265625 -118.109375 C 54.023438 -116.722656 53.253906 -114.859375 52.953125 -112.515625 L 51.859375 -103.28125 C 51.710938 -102.257812 51.347656 -101.453125 50.765625 -100.859375 C 50.179688 -100.273438 49.375 -99.984375 48.34375 -99.984375 L 14.28125 -99.984375 C 13.257812 -99.984375 12.488281 -100.273438 11.96875 -100.859375 C 11.457031 -101.453125 11.273438 -102.257812 11.421875 -103.28125 L 12.75 -114.265625 C 15.09375 -126.722656 21.171875 -136.722656 30.984375 -144.265625 C 40.796875 -151.804688 52.441406 -155.578125 65.921875 -155.578125 C 77.929688 -155.578125 87.453125 -152.132812 94.484375 -145.25 C 101.523438 -138.363281 105.046875 -129.207031 105.046875 -117.78125 C 105.046875 -116.320312 104.894531 -113.976562 104.59375 -110.75 C 103.570312 -102.550781 101.554688 -95.265625 98.546875 -88.890625 C 95.546875 -82.515625 90.972656 -75.738281 84.828125 -68.5625 C 78.523438 -61.238281 69.296875 -51.9375 57.140625 -40.65625 Z M 53.171875 -36.703125 "/></g></g></g><g fill="#d32f23" fill-opacity="0.4196"><g transform="translate(168.790875, 253.360711)"><g><path d="M 69.65625 -97.5625 C 78.59375 -97.5625 85.550781 -94.703125 90.53125 -88.984375 C 95.519531 -83.273438 98.015625 -75.367188 98.015625 -65.265625 C 98.015625 -61.742188 97.863281 -59.035156 97.5625 -57.140625 L 95.15625 -37.578125 C 93.6875 -25.273438 88.410156 -15.640625 79.328125 -8.671875 C 70.242188 -1.710938 58.742188 1.765625 44.828125 1.765625 C 32.078125 1.765625 22.148438 -1.347656 15.046875 -7.578125 C 7.941406 -13.804688 4.390625 -23.144531 4.390625 -35.59375 L 4.609375 -41.53125 C 4.898438 -43.726562 6.144531 -44.828125 8.34375 -44.828125 L 41.96875 -44.828125 C 44.164062 -44.828125 45.117188 -43.945312 44.828125 -42.1875 L 44.828125 -39.5625 C 44.972656 -35.457031 46.363281 -33.40625 49 -33.40625 C 50.757812 -33.40625 52.1875 -34.0625 53.28125 -35.375 C 54.382812 -36.695312 55.082031 -38.382812 55.375 -40.4375 L 57.359375 -54.9375 C 57.648438 -56.988281 57.351562 -58.671875 56.46875 -59.984375 C 55.59375 -61.304688 54.273438 -61.96875 52.515625 -61.96875 C 51.492188 -61.96875 50.503906 -61.710938 49.546875 -61.203125 C 48.597656 -60.691406 47.90625 -60.066406 47.46875 -59.328125 C 46.882812 -58.304688 46.296875 -57.570312 45.703125 -57.125 C 45.117188 -56.6875 44.390625 -56.46875 43.515625 -56.46875 L 9.453125 -56.46875 C 8.421875 -56.46875 7.648438 -56.757812 7.140625 -57.34375 C 6.628906 -57.9375 6.445312 -58.742188 6.59375 -59.765625 L 17.796875 -150.53125 C 17.941406 -151.550781 18.34375 -152.351562 19 -152.9375 C 19.664062 -153.53125 20.507812 -153.828125 21.53125 -153.828125 L 105.921875 -153.828125 C 106.796875 -153.828125 107.488281 -153.53125 108 -152.9375 C 108.519531 -152.351562 108.707031 -151.550781 108.5625 -150.53125 L 105.046875 -121.734375 C 104.898438 -120.710938 104.53125 -119.90625 103.9375 -119.3125 C 103.351562 -118.726562 102.550781 -118.4375 101.53125 -118.4375 L 54.9375 -118.4375 C 54.644531 -118.4375 54.390625 -118.328125 54.171875 -118.109375 C 53.953125 -117.890625 53.84375 -117.632812 53.84375 -117.34375 L 50.765625 -91.640625 C 50.617188 -91.191406 50.691406 -90.894531 50.984375 -90.75 C 51.273438 -90.601562 51.566406 -90.675781 51.859375 -90.96875 C 54.492188 -93.019531 57.347656 -94.628906 60.421875 -95.796875 C 63.503906 -96.972656 66.582031 -97.5625 69.65625 -97.5625 Z M 69.65625 -97.5625 "/></g></g></g><g fill="#e3fcbf" fill-opacity="1"><g transform="translate(63.594537, 247.479133)"><g><path d="M 53.171875 -36.703125 C 52.734375 -36.410156 52.585938 -36.113281 52.734375 -35.8125 C 52.878906 -35.519531 53.175781 -35.375 53.625 -35.375 L 93.390625 -35.375 C 94.421875 -35.375 95.191406 -35.082031 95.703125 -34.5 C 96.210938 -33.914062 96.394531 -33.109375 96.25 -32.078125 L 92.734375 -3.296875 C 92.585938 -2.273438 92.179688 -1.46875 91.515625 -0.875 C 90.859375 -0.289062 90.019531 0 89 0 L 2.859375 0 C 1.828125 0 1.054688 -0.289062 0.546875 -0.875 C 0.0351562 -1.46875 -0.144531 -2.273438 0 -3.296875 L 3.515625 -32.96875 C 3.804688 -34.570312 4.539062 -35.960938 5.71875 -37.140625 L 21.96875 -53.625 C 35.59375 -67.25 45.265625 -77.578125 50.984375 -84.609375 C 55.378906 -90.171875 58.710938 -95.296875 60.984375 -99.984375 C 63.253906 -104.671875 64.390625 -109.210938 64.390625 -113.609375 C 64.390625 -115.804688 63.984375 -117.453125 63.171875 -118.546875 C 62.367188 -119.648438 61.234375 -120.203125 59.765625 -120.203125 C 58.015625 -120.203125 56.515625 -119.503906 55.265625 -118.109375 C 54.023438 -116.722656 53.253906 -114.859375 52.953125 -112.515625 L 51.859375 -103.28125 C 51.710938 -102.257812 51.347656 -101.453125 50.765625 -100.859375 C 50.179688 -100.273438 49.375 -99.984375 48.34375 -99.984375 L 14.28125 -99.984375 C 13.257812 -99.984375 12.488281 -100.273438 11.96875 -100.859375 C 11.457031 -101.453125 11.273438 -102.257812 11.421875 -103.28125 L 12.75 -114.265625 C 15.09375 -126.722656 21.171875 -136.722656 30.984375 -144.265625 C 40.796875 -151.804688 52.441406 -155.578125 65.921875 -155.578125 C 77.929688 -155.578125 87.453125 -152.132812 94.484375 -145.25 C 101.523438 -138.363281 105.046875 -129.207031 105.046875 -117.78125 C 105.046875 -116.320312 104.894531 -113.976562 104.59375 -110.75 C 103.570312 -102.550781 101.554688 -95.265625 98.546875 -88.890625 C 95.546875 -82.515625 90.972656 -75.738281 84.828125 -68.5625 C 78.523438 -61.238281 69.296875 -51.9375 57.140625 -40.65625 Z M 53.171875 -36.703125 "/></g></g></g><g fill="#e3fcbf" fill-opacity="1"><g transform="translate(162.258721, 247.479133)"><g><path d="M 69.65625 -97.5625 C 78.59375 -97.5625 85.550781 -94.703125 90.53125 -88.984375 C 95.519531 -83.273438 98.015625 -75.367188 98.015625 -65.265625 C 98.015625 -61.742188 97.863281 -59.035156 97.5625 -57.140625 L 95.15625 -37.578125 C 93.6875 -25.273438 88.410156 -15.640625 79.328125 -8.671875 C 70.242188 -1.710938 58.742188 1.765625 44.828125 1.765625 C 32.078125 1.765625 22.148438 -1.347656 15.046875 -7.578125 C 7.941406 -13.804688 4.390625 -23.144531 4.390625 -35.59375 L 4.609375 -41.53125 C 4.898438 -43.726562 6.144531 -44.828125 8.34375 -44.828125 L 41.96875 -44.828125 C 44.164062 -44.828125 45.117188 -43.945312 44.828125 -42.1875 L 44.828125 -39.5625 C 44.972656 -35.457031 46.363281 -33.40625 49 -33.40625 C 50.757812 -33.40625 52.1875 -34.0625 53.28125 -35.375 C 54.382812 -36.695312 55.082031 -38.382812 55.375 -40.4375 L 57.359375 -54.9375 C 57.648438 -56.988281 57.351562 -58.671875 56.46875 -59.984375 C 55.59375 -61.304688 54.273438 -61.96875 52.515625 -61.96875 C 51.492188 -61.96875 50.503906 -61.710938 49.546875 -61.203125 C 48.597656 -60.691406 47.90625 -60.066406 47.46875 -59.328125 C 46.882812 -58.304688 46.296875 -57.570312 45.703125 -57.125 C 45.117188 -56.6875 44.390625 -56.46875 43.515625 -56.46875 L 9.453125 -56.46875 C 8.421875 -56.46875 7.648438 -56.757812 7.140625 -57.34375 C 6.628906 -57.9375 6.445312 -58.742188 6.59375 -59.765625 L 17.796875 -150.53125 C 17.941406 -151.550781 18.34375 -152.351562 19 -152.9375 C 19.664062 -153.53125 20.507812 -153.828125 21.53125 -153.828125 L 105.921875 -153.828125 C 106.796875 -153.828125 107.488281 -153.53125 108 -152.9375 C 108.519531 -152.351562 108.707031 -151.550781 108.5625 -150.53125 L 105.046875 -121.734375 C 104.898438 -120.710938 104.53125 -119.90625 103.9375 -119.3125 C 103.351562 -118.726562 102.550781 -118.4375 101.53125 -118.4375 L 54.9375 -118.4375 C 54.644531 -118.4375 54.390625 -118.328125 54.171875 -118.109375 C 53.953125 -117.890625 53.84375 -117.632812 53.84375 -117.34375 L 50.765625 -91.640625 C 50.617188 -91.191406 50.691406 -90.894531 50.984375 -90.75 C 51.273438 -90.601562 51.566406 -90.675781 51.859375 -90.96875 C 54.492188 -93.019531 57.347656 -94.628906 60.421875 -95.796875 C 63.503906 -96.972656 66.582031 -97.5625 69.65625 -97.5625 Z M 69.65625 -97.5625 "/></g></g></g></svg>