<svg xmlns="http://www.w3.org/2000/svg" xmlns:xlink="http://www.w3.org/1999/xlink" width="1024" zoomAndPan="magnify" viewBox="0 0 768 767.999994" height="1024" preserveAspectRatio="xMidYMid meet" version="1.0"><defs><g/><clipPath id="id1"><path d="M 384 0 C 171.921875 0 0 171.921875 0 384 C 0 596.078125 171.921875 768 384 768 C 596.078125 768 768 596.078125 768 384 C 768 171.921875 596.078125 0 384 0 " clip-rule="nonzero"/></clipPath></defs><path fill="#14c38e" d="M 384 0 C 171.921875 0 0 171.921875 0 384 C 0 596.078125 171.921875 768 384 768 C 596.078125 768 768 596.078125 768 384 C 768 171.921875 596.078125 0 384 0 " fill-opacity="1" fill-rule="nonzero"/><g clip-path="url(#id1)"><path stroke-linecap="butt" transform="matrix(0.75, 0, 0, 0.75, 0.000003, 0.00002)" fill="none" stroke-linejoin="miter" d="M 512.000021 -0.0000266667 C 229.229174 -0.0000266667 -0.000004 229.229151 -0.000004 511.999999 C -0.000004 794.770846 229.229174 1024.000024 512.000021 1024.000024 C 794.770869 1024.000024 1024.000047 794.770846 1024.000047 511.999999 C 1024.000047 229.229151 794.770869 -0.0000266667 512.000021 -0.0000266667 " stroke="#000000" stroke-width="8" stroke-opacity="1" stroke-miterlimit="4"/></g><g fill="#e3fcbf" fill-opacity="1"><g transform="translate(55.869141, 575.059884)"><g><path d="M 306.8125 0 L 16.6875 0 L 16.6875 -71.09375 L 114.296875 -169.8125 C 142.191406 -198.976562 160.421875 -218.890625 168.984375 -229.546875 C 177.554688 -240.210938 183.523438 -249.375 186.890625 -257.03125 C 190.265625 -264.6875 191.953125 -272.710938 191.953125 -281.109375 C 191.953125 -291.492188 188.578125 -299.691406 181.828125 -305.703125 C 175.085938 -311.722656 165.613281 -314.734375 153.40625 -314.734375 C 140.820312 -314.734375 128.101562 -311.132812 115.25 -303.9375 C 102.40625 -296.738281 87.867188 -286.117188 71.640625 -272.078125 L 12.3125 -341.53125 C 32.90625 -359.945312 50.21875 -373.117188 64.25 -381.046875 C 78.289062 -388.972656 93.5625 -395.03125 110.0625 -399.21875 C 126.5625 -403.414062 145.109375 -405.515625 165.703125 -405.515625 C 191.585938 -405.515625 214.691406 -400.957031 235.015625 -391.84375 C 255.347656 -382.726562 271.117188 -369.738281 282.328125 -352.875 C 293.546875 -336.019531 299.15625 -317.109375 299.15625 -296.140625 C 299.15625 -280.460938 297.191406 -265.96875 293.265625 -252.65625 C 289.347656 -239.351562 283.285156 -226.273438 275.078125 -213.421875 C 266.878906 -200.566406 255.988281 -187.03125 242.40625 -172.8125 C 228.820312 -158.59375 199.882812 -131.613281 155.59375 -91.875 L 155.59375 -89.140625 L 306.8125 -89.140625 Z M 306.8125 0 "/></g></g><g transform="translate(383.99998, 575.059884)"><g><path d="M 165.15625 -405.515625 C 207.269531 -405.515625 240.039062 -397.035156 263.46875 -380.078125 C 286.894531 -363.128906 298.609375 -339.070312 298.609375 -307.90625 C 298.609375 -286.75 293.09375 -268.195312 282.0625 -252.25 C 271.03125 -236.300781 253.570312 -222.398438 229.6875 -210.546875 C 259.21875 -193.773438 280.046875 -177.050781 292.171875 -160.375 C 304.296875 -143.695312 310.359375 -125.695312 310.359375 -106.375 C 310.359375 -70.820312 297.503906 -43.289062 271.796875 -23.78125 C 246.097656 -4.28125 210.1875 5.46875 164.0625 5.46875 C 117.03125 5.46875 81.023438 -4.054688 56.046875 -23.109375 C 31.078125 -42.160156 18.59375 -69.550781 18.59375 -105.28125 C 18.59375 -128.425781 24.148438 -148.15625 35.265625 -164.46875 C 46.390625 -180.789062 65.078125 -195.601562 91.328125 -208.90625 C 70.179688 -223.125 54.734375 -238.390625 44.984375 -254.703125 C 35.234375 -271.023438 30.359375 -288.941406 30.359375 -308.453125 C 30.359375 -339.078125 42.296875 -362.910156 66.171875 -379.953125 C 90.054688 -396.992188 123.050781 -405.515625 165.15625 -405.515625 Z M 117.578125 -109.65625 C 117.578125 -98.351562 121.585938 -89.28125 129.609375 -82.4375 C 137.628906 -75.601562 148.75 -72.1875 162.96875 -72.1875 C 195.050781 -72.1875 211.09375 -83.945312 211.09375 -107.46875 C 211.09375 -116.394531 207.582031 -125.1875 200.5625 -133.84375 C 193.550781 -142.507812 181.019531 -152.21875 162.96875 -162.96875 C 146.75 -154.40625 135.128906 -145.789062 128.109375 -137.125 C 121.085938 -128.46875 117.578125 -119.3125 117.578125 -109.65625 Z M 164.609375 -327.59375 C 155.316406 -327.59375 147.476562 -324.898438 141.09375 -319.515625 C 134.71875 -314.140625 131.53125 -307.171875 131.53125 -298.609375 C 131.53125 -282.921875 142.191406 -269.0625 163.515625 -257.03125 C 176.460938 -264.507812 185.304688 -271.347656 190.046875 -277.546875 C 194.785156 -283.742188 197.15625 -290.765625 197.15625 -298.609375 C 197.15625 -307.359375 193.960938 -314.375 187.578125 -319.65625 C 181.203125 -324.945312 173.546875 -327.59375 164.609375 -327.59375 Z M 164.609375 -327.59375 "/></g></g></g></svg>