<svg xmlns="http://www.w3.org/2000/svg" xmlns:xlink="http://www.w3.org/1999/xlink" width="1024" zoomAndPan="magnify" viewBox="0 0 768 767.999994" height="1024" preserveAspectRatio="xMidYMid meet" version="1.0"><defs><g/><clipPath id="id1"><path d="M 384 0 C 171.921875 0 0 171.921875 0 384 C 0 596.078125 171.921875 768 384 768 C 596.078125 768 768 596.078125 768 384 C 768 171.921875 596.078125 0 384 0 " clip-rule="nonzero"/></clipPath></defs><path fill="#14c38e" d="M 384 0 C 171.921875 0 0 171.921875 0 384 C 0 596.078125 171.921875 768 384 768 C 596.078125 768 768 596.078125 768 384 C 768 171.921875 596.078125 0 384 0 " fill-opacity="1" fill-rule="nonzero"/><g clip-path="url(#id1)"><path stroke-linecap="butt" transform="matrix(0.75, 0, 0, 0.75, 0.000003, 0.00002)" fill="none" stroke-linejoin="miter" d="M 512.000021 -0.0000266667 C 229.229174 -0.0000266667 -0.000004 229.229151 -0.000004 511.999999 C -0.000004 794.770846 229.229174 1024.000024 512.000021 1024.000024 C 794.770869 1024.000024 1024.000047 794.770846 1024.000047 511.999999 C 1024.000047 229.229151 794.770869 -0.0000266667 512.000021 -0.0000266667 " stroke="#000000" stroke-width="8" stroke-opacity="1" stroke-miterlimit="4"/></g><g fill="#e3fcbf" fill-opacity="1"><g transform="translate(55.869141, 575.059884)"><g><path d="M 257.578125 0 L 147.9375 0 L 147.9375 -211.640625 C 147.9375 -237.347656 148.484375 -260.867188 149.578125 -282.203125 C 142.828125 -273.992188 134.441406 -265.421875 124.421875 -256.484375 L 79.03125 -219.03125 L 22.96875 -287.9375 L 160.234375 -399.78125 L 257.578125 -399.78125 Z M 257.578125 0 "/></g></g><g transform="translate(383.99998, 575.059884)"><g><path d="M 319.65625 -77.390625 L 275.625 -77.390625 L 275.625 0 L 168.984375 0 L 168.984375 -77.390625 L 9.578125 -77.390625 L 9.578125 -156.6875 L 175.828125 -399.78125 L 275.625 -399.78125 L 275.625 -158.046875 L 319.65625 -158.046875 Z M 168.984375 -158.046875 L 168.984375 -204.53125 C 168.984375 -213.28125 169.300781 -225.082031 169.9375 -239.9375 C 170.582031 -254.800781 171.085938 -262.597656 171.453125 -263.328125 L 168.4375 -263.328125 C 162.238281 -249.285156 155.222656 -236.160156 147.390625 -223.953125 L 103.09375 -158.046875 Z M 168.984375 -158.046875 "/></g></g></g></svg>