<svg xmlns="http://www.w3.org/2000/svg" xmlns:xlink="http://www.w3.org/1999/xlink" width="450" zoomAndPan="magnify" viewBox="0 0 337.5 337.500003" height="450" preserveAspectRatio="xMidYMid meet" version="1.0"><path fill="#3e721d" d="M 49.503906 137.738281 C 45.851562 126.789062 49.503906 108.546875 64.113281 104.898438 C 78.71875 101.25 86.023438 108.546875 86.023438 112.195312 C 86.023438 115.84375 82.371094 123.140625 78.71875 119.492188 C 75.066406 115.84375 67.765625 115.84375 64.113281 123.140625 C 60.460938 130.4375 64.113281 137.738281 64.113281 137.738281 Z M 49.503906 137.738281 " fill-opacity="1" fill-rule="nonzero"/><path fill="#ffbd59" d="M 78.519531 181.394531 C 78.519531 207.664062 67.226562 214.152344 38.347656 225.304688 C 10.003906 236.25 13.65625 207.0625 9.128906 181.394531 C 7.222656 170.582031 5.40625 167.601562 3.425781 159.550781 C 0.675781 148.34375 1.308594 133.835938 20.085938 133.835938 C 52.359375 133.835938 78.519531 155.128906 78.519531 181.394531 Z M 78.519531 181.394531 " fill-opacity="1" fill-rule="nonzero"/><path fill="#ffbd59" d="M 35.097656 181.394531 C 35.097656 207.664062 46.386719 214.152344 75.269531 225.304688 C 103.613281 236.25 99.960938 207.0625 104.484375 181.394531 C 106.390625 170.582031 108.210938 167.601562 110.191406 159.550781 C 112.941406 148.347656 112.3125 133.835938 93.527344 133.835938 C 61.253906 133.835938 35.097656 155.128906 35.097656 181.394531 Z M 35.097656 181.394531 " fill-opacity="1" fill-rule="nonzero"/><path fill="#ffde59" d="M 82.265625 183.09375 C 82.265625 210.296875 78.902344 228.953125 56.808594 228.953125 C 34.710938 228.953125 31.347656 210.296875 31.347656 183.09375 C 31.347656 155.886719 13.160156 130.4375 56.808594 130.4375 C 100.453125 130.4375 82.265625 155.886719 82.265625 183.09375 Z M 82.265625 183.09375 " fill-opacity="1" fill-rule="nonzero"/><path fill="#3e721d" d="M 273.847656 137.738281 C 270.195312 126.789062 273.847656 108.546875 288.457031 104.898438 C 303.066406 101.25 310.371094 108.546875 310.371094 112.195312 C 310.371094 115.84375 306.71875 123.140625 303.066406 119.492188 C 299.414062 115.84375 292.109375 115.84375 288.457031 123.140625 C 284.804688 130.4375 288.457031 137.738281 288.457031 137.738281 Z M 273.847656 137.738281 " fill-opacity="1" fill-rule="nonzero"/><path fill="#5c913b" d="M 302.863281 181.394531 C 302.863281 207.664062 291.574219 214.152344 262.691406 225.304688 C 234.347656 236.25 238 207.0625 233.476562 181.394531 C 231.570312 170.582031 229.75 167.601562 227.769531 159.550781 C 225.019531 148.34375 225.652344 133.835938 244.433594 133.835938 C 276.703125 133.835938 302.863281 155.128906 302.863281 181.394531 Z M 302.863281 181.394531 " fill-opacity="1" fill-rule="nonzero"/><path fill="#5c913b" d="M 259.441406 181.394531 C 259.441406 207.664062 270.734375 214.152344 299.613281 225.304688 C 327.957031 236.25 324.304688 207.0625 328.832031 181.394531 C 330.738281 170.582031 332.554688 167.601562 334.535156 159.550781 C 337.289062 148.347656 336.65625 133.835938 317.875 133.835938 C 285.601562 133.835938 259.441406 155.128906 259.441406 181.394531 Z M 259.441406 181.394531 " fill-opacity="1" fill-rule="nonzero"/><path fill="#77b255" d="M 306.613281 183.09375 C 306.613281 210.296875 303.246094 228.953125 281.152344 228.953125 C 259.058594 228.953125 255.695312 210.296875 255.695312 183.09375 C 255.695312 155.886719 237.507812 130.4375 281.152344 130.4375 C 324.796875 130.4375 306.613281 155.886719 306.613281 183.09375 Z M 306.613281 183.09375 " fill-opacity="1" fill-rule="nonzero"/><path fill="#3e721d" d="M 155.308594 109.402344 C 148.320312 88.484375 155.308594 53.621094 183.261719 46.648438 C 211.21875 39.675781 225.195312 53.621094 225.195312 60.59375 C 225.195312 67.566406 218.207031 81.511719 211.21875 74.539062 C 204.230469 67.566406 190.253906 67.566406 183.261719 81.511719 C 176.273438 95.457031 183.261719 109.402344 183.261719 109.402344 Z M 155.308594 109.402344 " fill-opacity="1" fill-rule="nonzero"/><path fill="#ff1616" d="M 210.835938 192.84375 C 210.835938 243.042969 189.226562 255.445312 133.957031 276.753906 C 79.714844 297.675781 86.707031 241.890625 78.046875 192.84375 C 74.398438 172.175781 70.917969 166.476562 67.128906 151.09375 C 61.867188 129.675781 63.074219 101.949219 99.011719 101.949219 C 160.773438 101.949219 210.835938 142.644531 210.835938 192.84375 Z M 210.835938 192.84375 " fill-opacity="1" fill-rule="nonzero"/><path fill="#ff1616" d="M 127.738281 192.84375 C 127.738281 243.042969 149.347656 255.445312 204.613281 276.753906 C 258.855469 297.675781 251.867188 241.890625 260.523438 192.84375 C 264.171875 172.175781 267.652344 166.476562 271.441406 151.09375 C 276.710938 129.679688 275.503906 101.949219 239.558594 101.949219 C 177.796875 101.949219 127.738281 142.644531 127.738281 192.84375 Z M 127.738281 192.84375 " fill-opacity="1" fill-rule="nonzero"/><path fill="#ff5757" d="M 218.003906 196.085938 C 218.003906 248.074219 211.566406 283.726562 169.285156 283.726562 C 127.003906 283.726562 120.566406 248.074219 120.566406 196.085938 C 120.566406 144.09375 85.761719 95.457031 169.285156 95.457031 C 252.808594 95.457031 218.003906 144.09375 218.003906 196.085938 Z M 218.003906 196.085938 " fill-opacity="1" fill-rule="nonzero"/></svg>