<svg xmlns="http://www.w3.org/2000/svg" xmlns:xlink="http://www.w3.org/1999/xlink" width="451" zoomAndPan="magnify" viewBox="0 0 338.25 335.999987" height="448" preserveAspectRatio="xMidYMid meet" version="1.0"><defs><clipPath id="id1"><path d="M 2 0.371094 L 337.5 0.371094 L 337.5 335.628906 L 2 335.628906 Z M 2 0.371094 " clip-rule="nonzero"/></clipPath></defs><g clip-path="url(#id1)"><path fill="#e2ece1" d="M 81.207031 0.371094 L 81.207031 114.601562 L 81.234375 114.601562 C 71.613281 137.691406 71.722656 163.675781 81.207031 186.574219 L 81.207031 229.320312 C 78.855469 228.183594 75.964844 228.671875 74.128906 230.699219 L 7.226562 304.429688 C 1.09375 311.1875 1.632812 321.625 8.46875 327.734375 C 11.628906 330.574219 15.628906 331.953125 19.574219 331.953125 C 24.113281 331.953125 28.652344 330.140625 31.949219 326.515625 L 81.207031 272.199219 L 81.207031 335.628906 L 338.003906 335.628906 L 338.003906 0.371094 Z M 81.207031 0.371094 " fill-opacity="1" fill-rule="nonzero"/></g><path fill="#e2ece1" d="M 100.039062 215.449219 L 84.828125 232.210938 L 82.667969 230.265625 C 82.207031 229.859375 81.71875 229.5625 81.207031 229.320312 L 81.207031 186.574219 C 85.53125 197.011719 91.824219 206.824219 100.039062 215.449219 Z M 100.039062 215.449219 " fill-opacity="1" fill-rule="nonzero"/><path fill="#e15c63" d="M 281.398438 217.640625 L 297.125 217.640625 L 297.125 310.511719 L 281.398438 310.511719 Z M 281.398438 217.640625 " fill-opacity="1" fill-rule="nonzero"/><path fill="#ffc05a" d="M 249.539062 241.59375 L 265.292969 241.59375 L 265.292969 310.511719 L 249.539062 310.511719 Z M 249.539062 241.59375 " fill-opacity="1" fill-rule="nonzero"/><path fill="#e15c63" d="M 237.300781 150.589844 C 237.300781 157.402344 236.273438 163.972656 234.410156 170.164062 L 181.425781 143.179688 L 181.425781 84.105469 C 213.199219 89.835938 237.300781 117.414062 237.300781 150.589844 Z M 237.300781 150.589844 " fill-opacity="1" fill-rule="nonzero"/><path fill="#8bcb8f" d="M 217.710938 261.195312 L 233.464844 261.195312 L 233.464844 310.511719 L 217.710938 310.511719 Z M 217.710938 261.195312 " fill-opacity="1" fill-rule="nonzero"/><path fill="#c2e6f9" d="M 115.765625 140.339844 C 115.089844 143.667969 114.765625 147.074219 114.765625 150.589844 C 114.765625 160.917969 117.683594 170.59375 122.765625 178.789062 L 169.183594 150.589844 L 169.183594 204.609375 C 189.800781 204.609375 207.714844 193.253906 216.957031 176.542969 L 169.183594 150.589844 L 169.183594 96.570312 C 157.945312 96.570312 147.488281 99.949219 138.8125 105.761719 C 127.03125 113.65625 118.523438 125.984375 115.765625 140.339844 Z M 169.183594 69.316406 C 214.441406 69.316406 251.109375 105.707031 251.109375 150.589844 C 251.109375 195.496094 214.441406 231.886719 169.183594 231.886719 C 123.953125 231.886719 87.285156 195.496094 87.285156 150.589844 C 87.285156 105.707031 123.953125 69.316406 169.183594 69.316406 Z M 234.410156 170.164062 C 236.273438 163.972656 237.300781 157.402344 237.300781 150.589844 C 237.300781 117.414062 213.199219 89.835938 181.425781 84.105469 L 181.425781 143.179688 Z M 156.675781 217.019531 L 158.320312 171.082031 L 119.332031 196.605469 C 129.058594 206.988281 142.027344 214.3125 156.675781 217.019531 Z M 156.675781 217.019531 " fill-opacity="1" fill-rule="nonzero"/><path fill="#8bcb8f" d="M 169.183594 150.589844 L 216.957031 176.542969 C 207.714844 193.253906 189.800781 204.609375 169.183594 204.609375 Z M 169.183594 150.589844 " fill-opacity="1" fill-rule="nonzero"/><path fill="#52a7d7" d="M 185.882812 291.746094 L 201.609375 291.746094 L 201.609375 310.511719 L 185.882812 310.511719 Z M 185.882812 291.746094 " fill-opacity="1" fill-rule="nonzero"/><path fill="#f48ca7" d="M 169.777344 245 L 169.777344 310.511719 L 154.027344 310.511719 L 154.027344 243.785156 C 159.242188 244.621094 164.507812 245.027344 169.777344 245 Z M 169.777344 245 " fill-opacity="1" fill-rule="nonzero"/><path fill="#ffa25a" d="M 169.183594 96.570312 L 169.183594 150.589844 L 138.8125 105.761719 C 147.488281 99.949219 157.945312 96.570312 169.183594 96.570312 Z M 169.183594 96.570312 " fill-opacity="1" fill-rule="nonzero"/><path fill="#52a7d7" d="M 138.8125 105.761719 L 169.183594 150.589844 L 115.765625 140.339844 C 118.523438 125.984375 127.03125 113.65625 138.8125 105.761719 Z M 138.8125 105.761719 " fill-opacity="1" fill-rule="nonzero"/><path fill="#f48ca7" d="M 169.183594 150.589844 L 122.765625 178.789062 C 117.683594 170.59375 114.765625 160.917969 114.765625 150.589844 C 114.765625 147.074219 115.089844 143.667969 115.765625 140.339844 Z M 169.183594 150.589844 " fill-opacity="1" fill-rule="nonzero"/><path fill="#ffc05a" d="M 158.320312 171.082031 L 156.675781 217.019531 C 142.027344 214.3125 129.058594 206.988281 119.332031 196.605469 Z M 158.320312 171.082031 " fill-opacity="1" fill-rule="nonzero"/><path fill="#ffa25a" d="M 122.195312 261.195312 L 137.949219 261.195312 L 137.949219 310.511719 L 122.195312 310.511719 Z M 122.195312 261.195312 " fill-opacity="1" fill-rule="nonzero"/><path fill="#93b2b8" d="M 111.441406 225.617188 L 96.230469 242.378906 L 84.828125 232.210938 L 100.039062 215.449219 C 101.769531 217.261719 103.605469 219.046875 105.523438 220.75 C 107.445312 222.453125 109.414062 224.101562 111.441406 225.617188 Z M 111.441406 225.617188 " fill-opacity="1" fill-rule="nonzero"/><path fill="#e15c63" d="M 98.390625 244.324219 C 100.878906 246.542969 101.066406 250.328125 98.824219 252.789062 L 81.207031 272.199219 L 31.949219 326.515625 C 28.652344 330.140625 24.113281 331.953125 19.574219 331.953125 C 15.628906 331.953125 11.628906 330.574219 8.46875 327.734375 C 1.632812 321.625 1.09375 311.1875 7.226562 304.429688 L 74.128906 230.699219 C 75.964844 228.671875 78.855469 228.183594 81.207031 229.320312 C 81.71875 229.5625 82.207031 229.859375 82.667969 230.265625 L 84.828125 232.210938 L 96.230469 242.378906 Z M 98.390625 244.324219 " fill-opacity="1" fill-rule="nonzero"/><path fill="#4d727a" d="M 307.117188 307.808594 L 106.035156 307.808594 C 104.542969 307.808594 103.332031 309.019531 103.332031 310.511719 C 103.332031 312.003906 104.542969 313.214844 106.035156 313.214844 L 307.117188 313.214844 C 308.609375 313.214844 309.820312 312.003906 309.820312 310.511719 C 309.820312 309.019531 308.613281 307.808594 307.117188 307.808594 Z M 307.117188 307.808594 " fill-opacity="1" fill-rule="nonzero"/><path fill="#93b2b8" d="M 297.203125 41.601562 L 135.703125 41.601562 C 134.210938 41.601562 133 40.390625 133 38.898438 C 133 37.40625 134.210938 36.195312 135.703125 36.195312 L 297.203125 36.195312 C 298.695312 36.195312 299.902344 37.40625 299.902344 38.898438 C 299.902344 40.390625 298.695312 41.601562 297.203125 41.601562 Z M 297.203125 41.601562 " fill-opacity="1" fill-rule="nonzero"/><path fill="#93b2b8" d="M 297.203125 74.398438 L 221.464844 74.398438 C 219.972656 74.398438 218.761719 73.1875 218.761719 71.695312 C 218.761719 70.203125 219.972656 68.992188 221.464844 68.992188 L 297.203125 68.992188 C 298.695312 68.992188 299.902344 70.203125 299.902344 71.695312 C 299.902344 73.1875 298.695312 74.398438 297.203125 74.398438 Z M 297.203125 74.398438 " fill-opacity="1" fill-rule="nonzero"/><path fill="#93b2b8" d="M 297.203125 99.273438 L 247.242188 99.273438 C 245.75 99.273438 244.539062 98.0625 244.539062 96.570312 C 244.539062 95.078125 245.75 93.863281 247.242188 93.863281 L 297.203125 93.863281 C 298.695312 93.863281 299.902344 95.078125 299.902344 96.570312 C 299.902344 98.0625 298.695312 99.273438 297.203125 99.273438 Z M 297.203125 99.273438 " fill-opacity="1" fill-rule="nonzero"/><path fill="#93b2b8" d="M 297.203125 120.414062 L 258.429688 120.414062 C 256.9375 120.414062 255.714844 119.203125 255.714844 117.710938 C 255.714844 116.21875 256.910156 115.007812 258.402344 115.007812 L 297.203125 115.007812 C 298.695312 115.007812 299.902344 116.21875 299.902344 117.710938 C 299.902344 119.203125 298.695312 120.414062 297.203125 120.414062 Z M 297.203125 120.414062 " fill-opacity="1" fill-rule="nonzero"/><path fill="#93b2b8" d="M 297.203125 141.53125 L 263.589844 141.53125 C 262.097656 141.53125 260.886719 140.320312 260.886719 138.828125 C 260.886719 137.335938 262.097656 136.125 263.589844 136.125 L 297.203125 136.125 C 298.695312 136.125 299.902344 137.335938 299.902344 138.828125 C 299.902344 140.320312 298.695312 141.53125 297.203125 141.53125 Z M 297.203125 141.53125 " fill-opacity="1" fill-rule="nonzero"/><path fill="#93b2b8" d="M 297.203125 162.648438 L 263.886719 162.648438 C 262.394531 162.648438 261.183594 161.433594 261.183594 159.941406 C 261.183594 158.449219 262.394531 157.238281 263.886719 157.238281 L 297.203125 157.238281 C 298.695312 157.238281 299.902344 158.449219 299.902344 159.941406 C 299.902344 161.433594 298.695312 162.648438 297.203125 162.648438 Z M 297.203125 162.648438 " fill-opacity="1" fill-rule="nonzero"/><path fill="#4d727a" d="M 263.59375 138.828125 C 266.914062 165.078125 259.160156 192.578125 239.894531 213.773438 C 221.25 234.320312 195.609375 244.839844 169.777344 245 C 164.507812 245.027344 159.242188 244.621094 154.027344 243.785156 C 138.921875 241.40625 124.277344 235.347656 111.441406 225.617188 C 109.414062 224.101562 107.445312 222.453125 105.523438 220.75 C 103.605469 219.046875 101.769531 217.261719 100.039062 215.449219 C 91.824219 206.824219 85.53125 197.011719 81.207031 186.574219 C 71.722656 163.675781 71.613281 137.691406 81.234375 114.601562 C 85.261719 104.867188 91.015625 95.675781 98.5 87.429688 C 130.382812 52.28125 182.828125 46.441406 221.46875 71.695312 C 225.441406 74.261719 229.25 77.183594 232.871094 80.425781 C 238.382812 85.347656 243.191406 90.78125 247.246094 96.570312 C 251.917969 103.21875 255.648438 110.332031 258.402344 117.710938 L 258.429688 117.710938 C 260.972656 124.550781 262.699219 131.636719 263.59375 138.828125 Z M 251.109375 150.589844 C 251.109375 105.707031 214.441406 69.316406 169.183594 69.316406 C 123.953125 69.316406 87.285156 105.707031 87.285156 150.589844 C 87.285156 195.496094 123.953125 231.886719 169.183594 231.886719 C 214.441406 231.886719 251.109375 195.496094 251.109375 150.589844 Z M 251.109375 150.589844 " fill-opacity="1" fill-rule="nonzero"/></svg>