<svg xmlns="http://www.w3.org/2000/svg" xmlns:xlink="http://www.w3.org/1999/xlink" width="1024" zoomAndPan="magnify" viewBox="0 0 768 767.999994" height="1024" preserveAspectRatio="xMidYMid meet" version="1.0"><path fill="#56b48c" d="M 384 0 C 171.957031 0 0 171.957031 0 384 C 0 596.042969 171.957031 768 384 768 C 596.042969 768 768 596.042969 768 384 C 768 171.957031 596.042969 0 384 0 Z M 384 0 " fill-opacity="1" fill-rule="nonzero"/><path fill="#e3fcbf" d="M 494.972656 503.953125 C 488.785156 499.152344 479.804688 496.675781 468.042969 496.675781 L 349.640625 496.675781 C 353.355469 490.949219 357.070312 485.996094 360.785156 481.972656 C 369.296875 471.757812 384.929688 457.210938 407.527344 438.636719 C 430.277344 420.0625 446.53125 406.441406 456.125 397.773438 C 465.722656 389.109375 475.316406 377.035156 484.605469 361.710938 C 493.890625 346.390625 498.535156 329.363281 498.535156 310.636719 C 498.535156 298.71875 496.367188 287.109375 491.878906 276.121094 C 487.390625 264.976562 481.199219 255.226562 473.152344 246.714844 C 465.101562 238.199219 455.816406 231.546875 445.292969 226.746094 C 429.039062 219.472656 409.230469 215.914062 386.167969 215.914062 C 366.972656 215.914062 350.257812 218.699219 336.019531 224.425781 C 321.78125 230.152344 310.015625 237.582031 300.574219 246.714844 C 291.289062 256 284.324219 266.214844 279.679688 277.515625 C 275.039062 288.8125 272.714844 299.800781 272.714844 310.171875 C 272.714844 318.839844 275.191406 325.648438 280.144531 330.601562 C 285.097656 335.554688 291.445312 338.03125 299.027344 338.03125 C 307.695312 338.03125 314.195312 335.246094 318.683594 329.828125 C 323.171875 324.410156 327.195312 316.671875 330.757812 306.457031 C 334.316406 296.398438 336.792969 290.207031 338.339844 287.882812 C 349.640625 270.550781 365.273438 261.882812 385.082031 261.882812 C 394.523438 261.882812 403.039062 264.046875 411.085938 268.226562 C 418.980469 272.40625 425.324219 278.441406 429.96875 286.027344 C 434.613281 293.609375 436.933594 302.277344 436.933594 312.027344 C 436.933594 321.007812 434.765625 329.984375 430.433594 339.425781 C 426.097656 348.867188 419.90625 357.84375 411.550781 366.664062 C 403.347656 375.488281 392.976562 384.308594 380.59375 393.132812 C 373.628906 397.773438 362.023438 407.679688 345.925781 422.539062 C 329.671875 437.398438 311.566406 455.351562 291.445312 476.09375 C 286.644531 481.199219 282.15625 488.320312 278.132812 497.296875 C 274.109375 506.273438 271.941406 513.546875 271.941406 518.964844 C 271.941406 527.476562 275.191406 534.753906 281.539062 541.097656 C 287.882812 547.445312 296.707031 550.539062 308.003906 550.539062 L 474.855469 550.539062 C 484.757812 550.539062 492.34375 547.90625 497.140625 542.800781 C 502.09375 537.691406 504.570312 531.347656 504.570312 523.917969 C 504.261719 515.40625 501.164062 508.75 494.972656 503.953125 " fill-opacity="1" fill-rule="nonzero"/></svg>