<svg xmlns="http://www.w3.org/2000/svg" xmlns:xlink="http://www.w3.org/1999/xlink" width="1024" zoomAndPan="magnify" viewBox="0 0 768 767.999994" height="1024" preserveAspectRatio="xMidYMid meet" version="1.0"><path fill="#56b48c" d="M 384 0 C 171.957031 0 0 171.957031 0 384 C 0 596.042969 171.957031 768 384 768 C 596.042969 768 768 596.042969 768 384 C 768 171.957031 596.042969 0 384 0 Z M 384 0 " fill-opacity="1" fill-rule="nonzero"/><path fill="#e3fcbf" d="M 503.023438 433.21875 C 496.058594 429.96875 486.617188 428.421875 475.007812 428.421875 L 465.257812 428.421875 L 465.257812 253.058594 C 465.257812 226.746094 453.804688 213.589844 430.742188 213.589844 C 423.621094 213.589844 417.585938 215.914062 412.480469 220.710938 C 407.371094 225.507812 401.027344 233.09375 393.132812 243.773438 L 273.027344 404.585938 C 269.773438 408.917969 266.835938 412.632812 264.667969 415.730469 C 262.347656 418.824219 260.179688 421.921875 258.167969 425.171875 C 256 428.421875 254.453125 431.515625 253.367188 434.457031 C 252.285156 437.398438 251.820312 440.339844 251.820312 443.125 C 251.820312 454.269531 255.382812 463.089844 262.65625 469.589844 C 269.773438 476.09375 280.609375 479.34375 295.003906 479.34375 L 408.765625 479.34375 L 408.765625 521.441406 C 408.765625 532.738281 411.394531 541.40625 416.65625 547.132812 C 421.921875 552.859375 428.730469 555.800781 437.242188 555.800781 C 445.910156 555.800781 452.71875 553.015625 457.828125 547.289062 C 462.9375 541.5625 465.566406 532.894531 465.566406 521.285156 L 465.566406 479.1875 L 479.34375 479.1875 C 490.796875 479.1875 499.464844 477.175781 505.191406 473.152344 C 510.917969 469.128906 513.855469 462.78125 513.855469 453.957031 C 513.546875 443.433594 509.988281 436.46875 503.023438 433.21875 M 408.609375 428.421875 L 311.101562 428.421875 L 408.609375 296.707031 Z M 408.609375 428.421875 " fill-opacity="1" fill-rule="nonzero"/></svg>