<svg xmlns="http://www.w3.org/2000/svg" xmlns:xlink="http://www.w3.org/1999/xlink" width="290" zoomAndPan="magnify" viewBox="0 0 217.5 259.500006" height="346" preserveAspectRatio="xMidYMid meet" version="1.0"><path fill="#3e721d" d="M 95.074219 70.191406 C 88.0625 49.152344 95.074219 14.085938 123.128906 7.070312 C 151.179688 0.0585938 165.207031 14.085938 165.207031 21.097656 C 165.207031 28.113281 158.191406 42.140625 151.179688 35.125 C 144.167969 28.113281 130.140625 28.113281 123.128906 42.140625 C 116.113281 56.167969 123.128906 70.191406 123.128906 70.191406 Z M 95.074219 70.191406 " fill-opacity="1" fill-rule="nonzero"/><path fill="#ff1616" d="M 150.792969 154.117188 C 150.792969 204.605469 129.109375 217.085938 73.648438 238.515625 C 19.21875 259.558594 26.234375 203.449219 17.542969 154.117188 C 13.882812 133.328125 10.390625 127.597656 6.589844 112.125 C 1.308594 90.582031 2.519531 62.695312 38.582031 62.695312 C 100.558594 62.695312 150.792969 103.625 150.792969 154.117188 Z M 150.792969 154.117188 " fill-opacity="1" fill-rule="nonzero"/><path fill="#ff1616" d="M 67.40625 154.117188 C 67.40625 204.605469 89.09375 217.085938 144.550781 238.515625 C 198.980469 259.558594 191.96875 203.449219 200.65625 154.117188 C 204.320312 133.328125 207.8125 127.597656 211.613281 112.125 C 216.902344 90.589844 215.6875 62.695312 179.617188 62.695312 C 117.644531 62.695312 67.40625 103.625 67.40625 154.117188 Z M 67.40625 154.117188 " fill-opacity="1" fill-rule="nonzero"/><path fill="#ff5757" d="M 157.988281 157.378906 C 157.988281 209.671875 151.53125 245.53125 109.101562 245.53125 C 66.671875 245.53125 60.210938 209.671875 60.210938 157.378906 C 60.210938 105.085938 25.285156 56.167969 109.101562 56.167969 C 192.914062 56.167969 157.988281 105.085938 157.988281 157.378906 Z M 157.988281 157.378906 " fill-opacity="1" fill-rule="nonzero"/></svg>