<svg xmlns="http://www.w3.org/2000/svg" xmlns:xlink="http://www.w3.org/1999/xlink" width="346" zoomAndPan="magnify" viewBox="0 0 259.5 335.999987" height="448" preserveAspectRatio="xMidYMid meet" version="1.0"><defs><clipPath id="id1"><path d="M 0 0.324219 L 259 0.324219 L 259 335.675781 L 0 335.675781 Z M 0 0.324219 " clip-rule="nonzero"/></clipPath><clipPath id="id2"><path d="M 217 0.324219 L 259 0.324219 L 259 43 L 217 43 Z M 217 0.324219 " clip-rule="nonzero"/></clipPath></defs><g clip-path="url(#id1)"><path fill="#eceff1" d="M 6.898438 0.324219 L 214.507812 0.324219 C 216.375 0.324219 217.980469 0.988281 219.296875 2.308594 L 257.324219 40.339844 C 258.644531 41.660156 259.308594 43.265625 259.308594 45.132812 L 259.308594 329.550781 C 259.308594 333.28125 256.265625 336.324219 252.535156 336.324219 L 6.898438 336.324219 C 3.167969 336.324219 0.125 333.28125 0.125 329.550781 L 0.125 7.097656 C 0.125 3.367188 3.167969 0.324219 6.898438 0.324219 Z M 6.898438 0.324219 " fill-opacity="1" fill-rule="evenodd"/></g><g clip-path="url(#id2)"><path fill="#d1d1d6" d="M 217.316406 0.910156 C 218.035156 1.238281 218.695312 1.703125 219.300781 2.308594 L 257.324219 40.339844 C 257.925781 40.941406 258.394531 41.605469 258.722656 42.324219 L 220.703125 42.324219 C 218.835938 42.324219 217.316406 40.804688 217.316406 38.9375 Z M 217.316406 0.910156 " fill-opacity="1" fill-rule="evenodd"/></g><path fill="#8ac9fe" d="M 173.335938 82.894531 C 170.34375 82.894531 167.917969 80.46875 167.917969 77.476562 C 167.917969 74.480469 170.34375 72.054688 173.335938 72.054688 L 222.019531 72.054688 C 225.011719 72.054688 227.4375 74.480469 227.4375 77.476562 C 227.4375 80.46875 225.011719 82.894531 222.019531 82.894531 Z M 173.335938 82.894531 " fill-opacity="1" fill-rule="evenodd"/><path fill="#ffe177" d="M 173.335938 108.902344 C 170.34375 108.902344 167.917969 106.476562 167.917969 103.484375 C 167.917969 100.492188 170.34375 98.0625 173.335938 98.0625 L 222.019531 98.0625 C 225.011719 98.0625 227.4375 100.492188 227.4375 103.484375 C 227.4375 106.476562 225.011719 108.902344 222.019531 108.902344 Z M 173.335938 108.902344 " fill-opacity="1" fill-rule="evenodd"/><path fill="#fe646f" d="M 173.335938 134.910156 C 170.34375 134.910156 167.917969 132.484375 167.917969 129.492188 C 167.917969 126.5 170.34375 124.070312 173.335938 124.070312 L 222.019531 124.070312 C 225.011719 124.070312 227.4375 126.5 227.4375 129.492188 C 227.4375 132.484375 225.011719 134.910156 222.019531 134.910156 Z M 173.335938 134.910156 " fill-opacity="1" fill-rule="evenodd"/><path fill="#a79ba7" d="M 65.578125 184.554688 C 62.585938 184.554688 60.15625 182.125 60.15625 179.132812 C 60.15625 176.140625 62.585938 173.714844 65.578125 173.714844 L 106.667969 173.714844 C 109.660156 173.714844 112.085938 176.140625 112.085938 179.132812 C 112.085938 182.125 109.660156 184.554688 106.667969 184.554688 Z M 43.632812 210.5625 C 40.640625 210.5625 38.214844 208.136719 38.214844 205.140625 C 38.214844 202.148438 40.640625 199.722656 43.632812 199.722656 L 49.183594 199.722656 C 52.175781 199.722656 54.601562 202.148438 54.601562 205.140625 C 54.601562 208.136719 52.175781 210.5625 49.183594 210.5625 Z M 43.632812 184.554688 C 40.640625 184.554688 38.214844 182.125 38.214844 179.132812 C 38.214844 176.140625 40.640625 173.714844 43.632812 173.714844 L 49.183594 173.714844 C 52.175781 173.714844 54.601562 176.140625 54.601562 179.132812 C 54.601562 182.125 52.175781 184.554688 49.183594 184.554688 Z M 65.578125 210.5625 C 62.585938 210.5625 60.15625 208.136719 60.15625 205.140625 C 60.15625 202.148438 62.585938 199.722656 65.578125 199.722656 L 106.667969 199.722656 C 109.660156 199.722656 112.085938 202.148438 112.085938 205.140625 C 112.085938 208.136719 109.660156 210.5625 106.667969 210.5625 Z M 65.578125 210.5625 " fill-opacity="1" fill-rule="evenodd"/><path fill="#60b7ff" d="M 124.6875 58.765625 C 125.953125 60.03125 127.152344 61.355469 128.289062 62.738281 C 129.421875 64.121094 130.488281 65.558594 131.480469 67.046875 C 132.476562 68.535156 133.394531 70.066406 134.238281 71.644531 C 135.082031 73.226562 135.847656 74.839844 136.53125 76.496094 C 137.214844 78.148438 137.820312 79.832031 138.339844 81.542969 C 138.859375 83.257812 139.292969 84.992188 139.640625 86.746094 C 139.988281 88.503906 140.253906 90.269531 140.429688 92.050781 C 140.601562 93.835938 140.691406 95.621094 140.691406 97.410156 C 140.691406 99.199219 140.601562 100.984375 140.429688 102.765625 C 140.253906 104.546875 139.992188 106.316406 139.640625 108.074219 C 139.292969 109.828125 138.859375 111.5625 138.339844 113.273438 C 137.820312 114.988281 137.21875 116.671875 136.53125 118.324219 C 135.847656 119.980469 135.082031 121.59375 134.238281 123.171875 C 133.394531 124.753906 132.476562 126.285156 131.484375 127.773438 C 130.488281 129.261719 129.425781 130.699219 128.289062 132.082031 C 127.152344 133.464844 125.953125 134.789062 124.6875 136.054688 C 123.421875 137.320312 122.097656 138.523438 120.714844 139.660156 C 119.332031 140.792969 117.894531 141.859375 116.40625 142.851562 C 114.917969 143.847656 113.386719 144.765625 111.808594 145.609375 C 110.230469 146.453125 108.613281 147.21875 106.960938 147.902344 C 105.308594 148.589844 103.625 149.191406 101.910156 149.710938 C 100.199219 150.230469 98.464844 150.664062 96.710938 151.015625 C 94.957031 151.363281 93.1875 151.625 91.40625 151.800781 C 89.625 151.976562 87.839844 152.066406 86.050781 152.066406 C 84.261719 152.066406 82.476562 151.976562 80.695312 151.800781 C 78.914062 151.625 77.144531 151.363281 75.390625 151.015625 C 73.636719 150.664062 71.902344 150.230469 70.1875 149.710938 C 68.476562 149.191406 66.792969 148.589844 65.140625 147.90625 C 63.484375 147.21875 61.871094 146.457031 60.292969 145.613281 C 58.714844 144.769531 57.179688 143.847656 55.691406 142.855469 C 54.203125 141.859375 52.769531 140.796875 51.386719 139.660156 C 50.003906 138.523438 48.679688 137.324219 47.414062 136.058594 C 46.148438 134.792969 44.945312 133.46875 43.8125 132.082031 C 42.675781 130.699219 41.609375 129.265625 40.617188 127.777344 C 39.621094 126.289062 38.703125 124.753906 37.859375 123.175781 C 37.015625 121.597656 36.253906 119.980469 35.566406 118.328125 C 34.882812 116.671875 34.28125 114.988281 33.761719 113.277344 C 33.242188 111.5625 32.808594 109.828125 32.457031 108.074219 C 32.109375 106.320312 31.847656 104.550781 31.671875 102.769531 C 31.496094 100.988281 31.40625 99.203125 31.40625 97.410156 C 31.40625 95.621094 31.496094 93.835938 31.671875 92.054688 C 31.847656 90.273438 32.109375 88.503906 32.457031 86.75 C 32.804688 84.992188 33.242188 83.257812 33.761719 81.546875 C 34.28125 79.832031 34.882812 78.148438 35.566406 76.496094 C 36.25 74.84375 37.015625 73.226562 37.859375 71.648438 C 38.703125 70.070312 39.621094 68.535156 40.617188 67.046875 C 41.609375 65.558594 42.675781 64.121094 43.808594 62.738281 C 44.945312 61.355469 46.144531 60.03125 47.410156 58.765625 C 48.675781 57.5 50 56.296875 51.382812 55.164062 C 52.765625 54.027344 54.203125 52.960938 55.691406 51.96875 C 57.179688 50.972656 58.710938 50.054688 60.289062 49.210938 C 61.867188 48.367188 63.484375 47.601562 65.136719 46.917969 C 66.792969 46.230469 68.472656 45.628906 70.1875 45.109375 C 71.898438 44.589844 73.632812 44.15625 75.386719 43.808594 C 77.144531 43.457031 78.910156 43.195312 80.691406 43.019531 C 82.472656 42.84375 84.257812 42.757812 86.046875 42.757812 C 87.839844 42.757812 89.625 42.84375 91.402344 43.019531 C 93.183594 43.195312 94.953125 43.457031 96.707031 43.804688 C 98.464844 44.15625 100.199219 44.589844 101.910156 45.109375 C 103.621094 45.628906 105.304688 46.230469 106.957031 46.917969 C 108.613281 47.601562 110.226562 48.367188 111.804688 49.210938 C 113.382812 50.054688 114.917969 50.972656 116.40625 51.96875 C 117.894531 52.960938 119.328125 54.027344 120.714844 55.160156 C 122.097656 56.296875 123.421875 57.496094 124.6875 58.765625 Z M 124.6875 58.765625 " fill-opacity="1" fill-rule="nonzero"/><path fill="#8ac9fe" d="M 119.886719 63.566406 C 120.992188 64.675781 122.042969 65.835938 123.039062 67.046875 C 124.035156 68.257812 124.964844 69.515625 125.835938 70.820312 C 126.707031 72.121094 127.511719 73.464844 128.25 74.847656 C 128.988281 76.230469 129.660156 77.644531 130.257812 79.09375 C 130.859375 80.542969 131.386719 82.015625 131.839844 83.515625 C 132.296875 85.015625 132.675781 86.535156 132.980469 88.074219 C 133.289062 89.609375 133.515625 91.160156 133.671875 92.71875 C 133.824219 94.277344 133.902344 95.84375 133.902344 97.410156 C 133.902344 98.976562 133.824219 100.542969 133.671875 102.101562 C 133.519531 103.660156 133.289062 105.210938 132.980469 106.746094 C 132.675781 108.285156 132.296875 109.804688 131.839844 111.304688 C 131.386719 112.804688 130.859375 114.277344 130.257812 115.726562 C 129.660156 117.175781 128.992188 118.589844 128.25 119.972656 C 127.511719 121.355469 126.707031 122.699219 125.835938 124 C 124.964844 125.304688 124.035156 126.5625 123.039062 127.773438 C 122.046875 128.984375 120.996094 130.144531 119.886719 131.253906 C 118.777344 132.363281 117.617188 133.414062 116.40625 134.410156 C 115.195312 135.402344 113.9375 136.335938 112.636719 137.207031 C 111.332031 138.078125 109.988281 138.882812 108.609375 139.621094 C 107.226562 140.359375 105.808594 141.03125 104.363281 141.628906 C 102.914062 142.230469 101.441406 142.757812 99.941406 143.210938 C 98.441406 143.667969 96.921875 144.046875 95.386719 144.355469 C 93.847656 144.660156 92.300781 144.890625 90.742188 145.042969 C 89.179688 145.195312 87.617188 145.273438 86.050781 145.273438 C 84.484375 145.273438 82.917969 145.195312 81.359375 145.042969 C 79.800781 144.890625 78.25 144.660156 76.714844 144.355469 C 75.175781 144.046875 73.660156 143.667969 72.160156 143.214844 C 70.660156 142.757812 69.1875 142.230469 67.738281 141.628906 C 66.289062 141.03125 64.875 140.363281 63.492188 139.621094 C 62.109375 138.882812 60.769531 138.078125 59.464844 137.207031 C 58.160156 136.335938 56.902344 135.40625 55.691406 134.410156 C 54.480469 133.414062 53.320312 132.363281 52.214844 131.253906 C 51.105469 130.148438 50.054688 128.988281 49.058594 127.777344 C 48.066406 126.5625 47.132812 125.304688 46.261719 124.003906 C 45.390625 122.699219 44.585938 121.355469 43.847656 119.972656 C 43.109375 118.589844 42.441406 117.175781 41.839844 115.726562 C 41.238281 114.28125 40.710938 112.804688 40.257812 111.304688 C 39.804688 109.804688 39.421875 108.285156 39.117188 106.75 C 38.8125 105.210938 38.582031 103.664062 38.425781 102.101562 C 38.273438 100.542969 38.195312 98.980469 38.195312 97.410156 C 38.195312 95.84375 38.273438 94.28125 38.425781 92.71875 C 38.582031 91.160156 38.8125 89.613281 39.117188 88.074219 C 39.421875 86.535156 39.800781 85.019531 40.257812 83.519531 C 40.710938 82.015625 41.238281 80.542969 41.839844 79.09375 C 42.4375 77.648438 43.109375 76.230469 43.847656 74.847656 C 44.585938 73.464844 45.390625 72.125 46.261719 70.820312 C 47.132812 69.515625 48.0625 68.257812 49.058594 67.046875 C 50.050781 65.835938 51.105469 64.675781 52.210938 63.566406 C 53.320312 62.457031 54.480469 61.40625 55.691406 60.414062 C 56.902344 59.417969 58.160156 58.484375 59.464844 57.613281 C 60.765625 56.742188 62.109375 55.9375 63.492188 55.199219 C 64.875 54.460938 66.289062 53.792969 67.734375 53.191406 C 69.183594 52.589844 70.65625 52.0625 72.15625 51.609375 C 73.65625 51.152344 75.175781 50.773438 76.714844 50.46875 C 78.25 50.160156 79.796875 49.933594 81.359375 49.777344 C 82.917969 49.625 84.480469 49.546875 86.046875 49.546875 C 87.617188 49.546875 89.179688 49.625 90.738281 49.777344 C 92.296875 49.933594 93.847656 50.160156 95.382812 50.46875 C 96.921875 50.773438 98.441406 51.152344 99.9375 51.609375 C 101.4375 52.0625 102.914062 52.589844 104.359375 53.191406 C 105.808594 53.789062 107.222656 54.460938 108.605469 55.199219 C 109.988281 55.9375 111.332031 56.742188 112.632812 57.613281 C 113.9375 58.484375 115.195312 59.417969 116.40625 60.410156 C 117.617188 61.40625 118.777344 62.457031 119.886719 63.566406 Z M 119.886719 63.566406 " fill-opacity="1" fill-rule="nonzero"/><path fill="#fd4755" d="M 86.050781 97.410156 L 140.691406 97.410156 C 140.691406 117.636719 129.707031 135.296875 113.375 144.75 Z M 86.050781 97.410156 " fill-opacity="1" fill-rule="evenodd"/><path fill="#fe646f" d="M 86.050781 97.410156 L 133.902344 97.410156 C 133.902344 115.125 124.28125 130.589844 109.980469 138.867188 Z M 86.050781 97.410156 " fill-opacity="1" fill-rule="evenodd"/><path fill="#ffd064" d="M 140.691406 97.410156 L 86.050781 97.410156 L 86.050781 42.757812 C 116.226562 42.757812 140.691406 67.226562 140.691406 97.410156 Z M 140.691406 97.410156 " fill-opacity="1" fill-rule="evenodd"/><path fill="#ffe177" d="M 133.902344 97.410156 L 86.050781 97.410156 L 86.050781 49.546875 C 112.480469 49.546875 133.902344 70.976562 133.902344 97.410156 Z M 133.902344 97.410156 " fill-opacity="1" fill-rule="evenodd"/><path fill="#ffe177" d="M 116.886719 230.710938 C 120.363281 230.710938 123.835938 230.710938 127.3125 230.710938 C 129.734375 230.710938 131.710938 232.6875 131.710938 235.109375 C 131.710938 257.8125 131.710938 280.519531 131.710938 303.222656 C 131.710938 305.644531 129.738281 307.621094 127.3125 307.621094 C 123.835938 307.621094 120.363281 307.621094 116.886719 307.621094 C 114.464844 307.621094 112.488281 305.644531 112.488281 303.222656 C 112.488281 280.519531 112.488281 257.8125 112.488281 235.109375 C 112.488281 232.6875 114.460938 230.710938 116.886719 230.710938 Z M 116.886719 230.710938 " fill-opacity="1" fill-rule="evenodd"/><path fill="#ffd064" d="M 122.097656 230.710938 L 127.3125 230.710938 C 129.734375 230.710938 131.710938 232.6875 131.710938 235.109375 C 131.710938 257.8125 131.710938 280.519531 131.710938 303.222656 C 131.710938 305.644531 129.738281 307.621094 127.3125 307.621094 L 122.097656 307.621094 C 124.523438 307.621094 126.5 305.644531 126.5 303.222656 C 126.5 280.519531 126.5 257.8125 126.5 235.109375 C 126.5 232.6875 124.523438 230.710938 122.097656 230.710938 Z M 122.097656 230.710938 " fill-opacity="1" fill-rule="evenodd"/><path fill="#6cf5c2" d="M 158.242188 209.050781 C 161.71875 209.050781 165.195312 209.050781 168.667969 209.050781 C 171.09375 209.050781 173.070312 211.027344 173.070312 213.453125 C 173.070312 243.375 173.070312 273.296875 173.070312 303.222656 C 173.070312 305.644531 171.09375 307.621094 168.667969 307.621094 C 165.195312 307.621094 161.71875 307.621094 158.242188 307.621094 C 155.820312 307.621094 153.84375 305.648438 153.84375 303.222656 C 153.84375 273.296875 153.84375 243.375 153.84375 213.453125 C 153.84375 211.027344 155.820312 209.050781 158.242188 209.050781 Z M 158.242188 209.050781 " fill-opacity="1" fill-rule="evenodd"/><path fill="#00e499" d="M 163.457031 209.050781 L 168.667969 209.050781 C 171.09375 209.050781 173.070312 211.027344 173.070312 213.453125 C 173.070312 243.375 173.070312 273.296875 173.070312 303.222656 C 173.070312 305.644531 171.09375 307.621094 168.667969 307.621094 L 163.457031 307.621094 C 165.878906 307.621094 167.855469 305.648438 167.855469 303.222656 C 167.855469 273.296875 167.855469 243.375 167.855469 213.453125 C 167.855469 211.027344 165.878906 209.050781 163.457031 209.050781 Z M 163.457031 209.050781 " fill-opacity="1" fill-rule="evenodd"/><path fill="#8ac9fe" d="M 199.601562 187.394531 L 210.027344 187.394531 C 212.449219 187.394531 214.425781 189.367188 214.425781 191.792969 L 214.425781 303.222656 C 214.425781 305.644531 212.449219 307.621094 210.027344 307.621094 L 199.601562 307.621094 C 197.175781 307.621094 195.199219 305.648438 195.199219 303.222656 L 195.199219 191.792969 C 195.199219 189.367188 197.175781 187.394531 199.601562 187.394531 Z M 199.601562 187.394531 " fill-opacity="1" fill-rule="evenodd"/><path fill="#60b7ff" d="M 204.8125 187.394531 L 210.027344 187.394531 C 212.449219 187.394531 214.425781 189.371094 214.425781 191.792969 L 214.425781 303.222656 C 214.425781 305.644531 212.449219 307.621094 210.027344 307.621094 L 204.8125 307.621094 C 207.234375 307.621094 209.210938 305.648438 209.210938 303.222656 L 209.210938 191.792969 C 209.210938 189.367188 207.234375 187.394531 204.8125 187.394531 Z M 204.8125 187.394531 " fill-opacity="1" fill-rule="evenodd"/><path fill="#fe646f" d="M 75.527344 252.367188 L 85.957031 252.367188 C 88.378906 252.367188 90.355469 254.34375 90.355469 256.769531 L 90.355469 303.222656 C 90.355469 305.644531 88.378906 307.621094 85.957031 307.621094 L 75.527344 307.621094 C 73.105469 307.621094 71.128906 305.644531 71.128906 303.222656 L 71.128906 256.769531 C 71.128906 254.34375 73.105469 252.367188 75.527344 252.367188 Z M 75.527344 252.367188 " fill-opacity="1" fill-rule="evenodd"/><path fill="#fd4755" d="M 80.742188 252.367188 L 85.957031 252.367188 C 88.378906 252.367188 90.355469 254.34375 90.355469 256.769531 L 90.355469 303.222656 C 90.355469 305.644531 88.378906 307.621094 85.957031 307.621094 L 80.742188 307.621094 C 83.164062 307.621094 85.140625 305.644531 85.140625 303.222656 L 85.140625 256.769531 C 85.140625 254.34375 83.164062 252.367188 80.742188 252.367188 Z M 80.742188 252.367188 " fill-opacity="1" fill-rule="evenodd"/></svg>