<svg xmlns="http://www.w3.org/2000/svg" xmlns:xlink="http://www.w3.org/1999/xlink" width="1024" zoomAndPan="magnify" viewBox="0 0 768 767.999994" height="1024" preserveAspectRatio="xMidYMid meet" version="1.0"><defs><g/><clipPath id="id1"><path d="M 384 0 C 171.921875 0 0 171.921875 0 384 C 0 596.078125 171.921875 768 384 768 C 596.078125 768 768 596.078125 768 384 C 768 171.921875 596.078125 0 384 0 " clip-rule="nonzero"/></clipPath></defs><path fill="#14c38e" d="M 384 0 C 171.921875 0 0 171.921875 0 384 C 0 596.078125 171.921875 768 384 768 C 596.078125 768 768 596.078125 768 384 C 768 171.921875 596.078125 0 384 0 " fill-opacity="1" fill-rule="nonzero"/><g clip-path="url(#id1)"><path stroke-linecap="butt" transform="matrix(0.75, 0, 0, 0.75, 0.000003, 0.00002)" fill="none" stroke-linejoin="miter" d="M 512.000021 -0.0000266667 C 229.229174 -0.0000266667 -0.000004 229.229151 -0.000004 511.999999 C -0.000004 794.770846 229.229174 1024.000024 512.000021 1024.000024 C 794.770869 1024.000024 1024.000047 794.770846 1024.000047 511.999999 C 1024.000047 229.229151 794.770869 -0.0000266667 512.000021 -0.0000266667 " stroke="#000000" stroke-width="8" stroke-opacity="1" stroke-miterlimit="4"/></g><g fill="#e3fcbf" fill-opacity="1"><g transform="translate(55.869141, 575.059884)"><g><path d="M 306.8125 0 L 16.6875 0 L 16.6875 -71.09375 L 114.296875 -169.8125 C 142.191406 -198.976562 160.421875 -218.890625 168.984375 -229.546875 C 177.554688 -240.210938 183.523438 -249.375 186.890625 -257.03125 C 190.265625 -264.6875 191.953125 -272.710938 191.953125 -281.109375 C 191.953125 -291.492188 188.578125 -299.691406 181.828125 -305.703125 C 175.085938 -311.722656 165.613281 -314.734375 153.40625 -314.734375 C 140.820312 -314.734375 128.101562 -311.132812 115.25 -303.9375 C 102.40625 -296.738281 87.867188 -286.117188 71.640625 -272.078125 L 12.3125 -341.53125 C 32.90625 -359.945312 50.21875 -373.117188 64.25 -381.046875 C 78.289062 -388.972656 93.5625 -395.03125 110.0625 -399.21875 C 126.5625 -403.414062 145.109375 -405.515625 165.703125 -405.515625 C 191.585938 -405.515625 214.691406 -400.957031 235.015625 -391.84375 C 255.347656 -382.726562 271.117188 -369.738281 282.328125 -352.875 C 293.546875 -336.019531 299.15625 -317.109375 299.15625 -296.140625 C 299.15625 -280.460938 297.191406 -265.96875 293.265625 -252.65625 C 289.347656 -239.351562 283.285156 -226.273438 275.078125 -213.421875 C 266.878906 -200.566406 255.988281 -187.03125 242.40625 -172.8125 C 228.820312 -158.59375 199.882812 -131.613281 155.59375 -91.875 L 155.59375 -89.140625 L 306.8125 -89.140625 Z M 306.8125 0 "/></g></g><g transform="translate(383.99998, 575.059884)"><g><path d="M 293.40625 -313.09375 C 293.40625 -288.300781 285.835938 -267.015625 270.703125 -249.234375 C 255.578125 -231.460938 233.703125 -218.566406 205.078125 -210.546875 L 205.078125 -208.90625 C 271.804688 -200.519531 305.171875 -168.984375 305.171875 -114.296875 C 305.171875 -77.109375 290.445312 -47.847656 261 -26.515625 C 231.5625 -5.191406 190.679688 5.46875 138.359375 5.46875 C 116.847656 5.46875 96.929688 3.914062 78.609375 0.8125 C 60.296875 -2.28125 40.472656 -7.929688 19.140625 -16.140625 L 19.140625 -105.828125 C 36.640625 -96.890625 54.457031 -90.28125 72.59375 -86 C 90.738281 -81.71875 107.46875 -79.578125 122.78125 -79.578125 C 146.476562 -79.578125 163.75 -82.898438 174.59375 -89.546875 C 185.4375 -96.203125 190.859375 -106.640625 190.859375 -120.859375 C 190.859375 -131.796875 188.03125 -140.226562 182.375 -146.15625 C 176.726562 -152.082031 167.613281 -156.546875 155.03125 -159.546875 C 142.457031 -162.554688 126.054688 -164.0625 105.828125 -164.0625 L 81.21875 -164.0625 L 81.21875 -245.28125 L 106.375 -245.28125 C 161.238281 -245.28125 188.671875 -259.316406 188.671875 -287.390625 C 188.671875 -297.960938 184.613281 -305.800781 176.5 -310.90625 C 168.394531 -316.007812 157.503906 -318.5625 143.828125 -318.5625 C 118.304688 -318.5625 91.875 -309.992188 64.53125 -292.859375 L 19.6875 -365.046875 C 40.832031 -379.628906 62.476562 -390.019531 84.625 -396.21875 C 106.78125 -402.414062 132.164062 -405.515625 160.78125 -405.515625 C 202.164062 -405.515625 234.613281 -397.3125 258.125 -380.90625 C 281.644531 -364.5 293.40625 -341.894531 293.40625 -313.09375 Z M 293.40625 -313.09375 "/></g></g></g></svg>