<svg xmlns="http://www.w3.org/2000/svg" xmlns:xlink="http://www.w3.org/1999/xlink" width="655" zoomAndPan="magnify" viewBox="0 0 491.25 507.749985" height="677" preserveAspectRatio="xMidYMid meet" version="1.0"><defs><clipPath id="id1"><path d="M 0 456 L 153 456 L 153 507.238281 L 0 507.238281 Z M 0 456 " clip-rule="nonzero"/></clipPath></defs><path fill="#ffdd99" d="M 135.558594 406.011719 L 17.429688 406.011719 C 8.109375 406.011719 0.554688 398.460938 0.554688 389.140625 L 0.554688 372.269531 C 0.554688 362.949219 8.109375 355.398438 17.429688 355.398438 L 135.558594 355.398438 C 144.882812 355.398438 152.433594 362.949219 152.433594 372.269531 L 152.433594 389.140625 C 152.433594 398.460938 144.882812 406.011719 135.558594 406.011719 Z M 135.558594 406.011719 " fill-opacity="1" fill-rule="nonzero"/><path fill="#ffb41f" d="M 135.558594 355.398438 L 17.429688 355.398438 C 8.109375 355.398438 0.554688 362.949219 0.554688 372.269531 L 0.554688 380.703125 L 152.433594 380.703125 L 152.433594 372.269531 C 152.433594 362.949219 144.882812 355.398438 135.558594 355.398438 Z M 135.558594 355.398438 " fill-opacity="1" fill-rule="nonzero"/><path fill="#f5a300" d="M 42.746094 355.398438 L 42.746094 372.269531 C 42.746094 376.933594 38.964844 380.703125 34.308594 380.703125 C 29.648438 380.703125 25.867188 376.933594 25.867188 372.269531 L 25.867188 355.398438 " fill-opacity="1" fill-rule="nonzero"/><path fill="#f5a300" d="M 84.933594 355.398438 L 84.933594 372.269531 C 84.933594 376.933594 81.152344 380.703125 76.496094 380.703125 C 71.835938 380.703125 68.058594 376.933594 68.058594 372.269531 L 68.058594 355.398438 " fill-opacity="1" fill-rule="nonzero"/><path fill="#f5a300" d="M 127.121094 355.398438 L 127.121094 372.269531 C 127.121094 376.933594 123.34375 380.703125 118.683594 380.703125 C 114.027344 380.703125 110.246094 376.933594 110.246094 372.269531 L 110.246094 355.398438 " fill-opacity="1" fill-rule="nonzero"/><path fill="#ffdd99" d="M 169.3125 456.625 L 51.183594 456.625 C 41.859375 456.625 34.308594 449.074219 34.308594 439.753906 L 34.308594 422.882812 C 34.308594 413.5625 41.859375 406.011719 51.183594 406.011719 L 169.3125 406.011719 C 178.632812 406.011719 186.1875 413.5625 186.1875 422.882812 L 186.1875 439.753906 C 186.1875 449.074219 178.632812 456.625 169.3125 456.625 Z M 169.3125 456.625 " fill-opacity="1" fill-rule="nonzero"/><path fill="#ffb41f" d="M 169.3125 406.011719 L 51.183594 406.011719 C 41.859375 406.011719 34.308594 413.5625 34.308594 422.882812 L 34.308594 431.316406 L 186.1875 431.316406 L 186.1875 422.882812 C 186.1875 413.5625 178.632812 406.011719 169.3125 406.011719 Z M 169.3125 406.011719 " fill-opacity="1" fill-rule="nonzero"/><path fill="#f5a300" d="M 76.496094 406.011719 L 76.496094 422.882812 C 76.496094 427.546875 72.714844 431.316406 68.058594 431.316406 C 63.398438 431.316406 59.621094 427.546875 59.621094 422.882812 L 59.621094 406.011719 " fill-opacity="1" fill-rule="nonzero"/><path fill="#f5a300" d="M 118.683594 406.011719 L 118.683594 422.882812 C 118.683594 427.546875 114.902344 431.316406 110.246094 431.316406 C 105.589844 431.316406 101.808594 427.546875 101.808594 422.882812 L 101.808594 406.011719 " fill-opacity="1" fill-rule="nonzero"/><path fill="#f5a300" d="M 160.871094 406.011719 L 160.871094 422.882812 C 160.871094 427.546875 157.09375 431.316406 152.433594 431.316406 C 147.777344 431.316406 143.996094 427.546875 143.996094 422.882812 L 143.996094 406.011719 " fill-opacity="1" fill-rule="nonzero"/><g clip-path="url(#id1)"><path fill="#ffdd99" d="M 135.558594 507.238281 L 17.429688 507.238281 C 8.109375 507.238281 0.554688 499.6875 0.554688 490.367188 L 0.554688 473.496094 C 0.554688 464.175781 8.109375 456.625 17.429688 456.625 L 135.558594 456.625 C 144.882812 456.625 152.433594 464.175781 152.433594 473.496094 L 152.433594 490.367188 C 152.433594 499.6875 144.882812 507.238281 135.558594 507.238281 Z M 135.558594 507.238281 " fill-opacity="1" fill-rule="nonzero"/></g><path fill="#ffb41f" d="M 135.558594 456.625 L 17.429688 456.625 C 8.109375 456.625 0.554688 464.175781 0.554688 473.496094 L 0.554688 481.929688 L 152.433594 481.929688 L 152.433594 473.496094 C 152.433594 464.175781 144.882812 456.625 135.558594 456.625 Z M 135.558594 456.625 " fill-opacity="1" fill-rule="nonzero"/><path fill="#f5a300" d="M 42.746094 456.625 L 42.746094 473.496094 C 42.746094 478.160156 38.964844 481.929688 34.308594 481.929688 C 29.648438 481.929688 25.867188 478.160156 25.867188 473.496094 L 25.867188 456.625 " fill-opacity="1" fill-rule="nonzero"/><path fill="#f5a300" d="M 84.933594 456.625 L 84.933594 473.496094 C 84.933594 478.160156 81.152344 481.929688 76.496094 481.929688 C 71.835938 481.929688 68.058594 478.160156 68.058594 473.496094 L 68.058594 456.625 " fill-opacity="1" fill-rule="nonzero"/><path fill="#f5a300" d="M 127.121094 456.625 L 127.121094 473.496094 C 127.121094 478.160156 123.34375 481.929688 118.683594 481.929688 C 114.027344 481.929688 110.246094 478.160156 110.246094 473.496094 L 110.246094 456.625 " fill-opacity="1" fill-rule="nonzero"/><path fill="#61947d" d="M 76.496094 359.617188 C 74.167969 359.617188 72.277344 357.726562 72.277344 355.398438 L 72.277344 296.351562 C 72.277344 294.019531 74.167969 292.132812 76.496094 292.132812 C 78.824219 292.132812 80.714844 294.019531 80.714844 296.351562 L 80.714844 355.398438 C 80.714844 357.726562 78.824219 359.617188 76.496094 359.617188 Z M 76.496094 359.617188 " fill-opacity="1" fill-rule="nonzero"/><path fill="#a9c7b9" d="M 84.933594 304.785156 L 93.371094 304.785156 C 112.011719 304.785156 127.121094 289.675781 127.121094 271.042969 L 127.121094 254.171875 L 110.246094 254.171875 C 97.851562 254.171875 87.136719 260.921875 81.261719 270.875 C 83.589844 276.097656 84.933594 281.839844 84.933594 287.914062 Z M 84.933594 304.785156 " fill-opacity="1" fill-rule="nonzero"/><path fill="#a9c7b9" d="M 76.496094 304.785156 L 84.933594 304.785156 L 84.933594 287.914062 C 84.933594 281.839844 83.589844 276.097656 81.261719 270.875 C 78.308594 275.894531 76.496094 281.671875 76.496094 287.914062 Z M 76.496094 304.785156 " fill-opacity="1" fill-rule="nonzero"/><path fill="#a9c7b9" d="M 71.726562 270.875 C 65.855469 260.921875 55.140625 254.171875 42.746094 254.171875 L 25.867188 254.171875 L 25.867188 271.042969 C 25.867188 289.675781 40.980469 304.785156 59.621094 304.785156 L 68.058594 304.785156 L 68.058594 287.914062 C 68.058594 281.839844 69.398438 276.097656 71.726562 270.875 Z M 71.726562 270.875 " fill-opacity="1" fill-rule="nonzero"/><path fill="#83ae9b" d="M 71.726562 270.875 C 69.398438 276.097656 68.058594 281.839844 68.058594 287.914062 L 68.058594 304.785156 L 76.496094 304.785156 L 76.496094 287.914062 C 76.496094 281.671875 74.679688 275.894531 71.726562 270.875 Z M 71.726562 270.875 " fill-opacity="1" fill-rule="nonzero"/><path fill="#a9c7b9" d="M 186.1875 313.222656 L 489.945312 313.222656 L 489.945312 498.800781 L 186.1875 498.800781 Z M 186.1875 313.222656 " fill-opacity="1" fill-rule="nonzero"/><path fill="#ffc857" d="M 371.816406 406.011719 C 371.816406 407.394531 371.75 408.769531 371.613281 410.144531 C 371.476562 411.519531 371.277344 412.886719 371.007812 414.238281 C 370.738281 415.59375 370.402344 416.933594 370 418.253906 C 369.597656 419.578125 369.132812 420.875 368.605469 422.152344 C 368.078125 423.429688 367.488281 424.675781 366.835938 425.894531 C 366.183594 427.113281 365.472656 428.296875 364.707031 429.445312 C 363.9375 430.59375 363.117188 431.699219 362.242188 432.769531 C 361.363281 433.835938 360.4375 434.859375 359.460938 435.835938 C 358.484375 436.8125 357.460938 437.738281 356.390625 438.617188 C 355.324219 439.492188 354.214844 440.3125 353.066406 441.082031 C 351.917969 441.847656 350.734375 442.558594 349.515625 443.210938 C 348.296875 443.859375 347.050781 444.449219 345.773438 444.980469 C 344.496094 445.507812 343.195312 445.972656 341.875 446.375 C 340.550781 446.773438 339.214844 447.109375 337.859375 447.378906 C 336.503906 447.648438 335.136719 447.851562 333.761719 447.984375 C 332.386719 448.121094 331.011719 448.1875 329.628906 448.1875 C 328.246094 448.1875 326.867188 448.121094 325.492188 447.984375 C 324.117188 447.851562 322.753906 447.648438 321.398438 447.378906 C 320.042969 447.109375 318.703125 446.773438 317.382812 446.375 C 316.058594 445.972656 314.757812 445.507812 313.484375 444.980469 C 312.207031 444.449219 310.957031 443.859375 309.742188 443.210938 C 308.523438 442.558594 307.339844 441.847656 306.1875 441.082031 C 305.039062 440.3125 303.933594 439.492188 302.863281 438.617188 C 301.796875 437.738281 300.773438 436.8125 299.796875 435.835938 C 298.820312 434.859375 297.890625 433.835938 297.015625 432.769531 C 296.140625 431.699219 295.316406 430.59375 294.550781 429.445312 C 293.78125 428.296875 293.070312 427.113281 292.421875 425.894531 C 291.769531 424.675781 291.179688 423.429688 290.652344 422.152344 C 290.121094 420.875 289.65625 419.578125 289.257812 418.253906 C 288.855469 416.933594 288.519531 415.59375 288.25 414.238281 C 287.980469 412.886719 287.777344 411.519531 287.640625 410.144531 C 287.507812 408.769531 287.4375 407.394531 287.4375 406.011719 C 287.4375 404.628906 287.507812 403.253906 287.640625 401.878906 C 287.777344 400.503906 287.980469 399.136719 288.25 397.785156 C 288.519531 396.429688 288.855469 395.089844 289.257812 393.769531 C 289.65625 392.445312 290.121094 391.148438 290.652344 389.871094 C 291.179688 388.59375 291.769531 387.347656 292.421875 386.128906 C 293.070312 384.910156 293.78125 383.726562 294.550781 382.578125 C 295.316406 381.429688 296.140625 380.320312 297.015625 379.253906 C 297.890625 378.1875 298.820312 377.164062 299.796875 376.1875 C 300.773438 375.210938 301.796875 374.285156 302.863281 373.40625 C 303.933594 372.53125 305.039062 371.710938 306.1875 370.941406 C 307.339844 370.175781 308.523438 369.464844 309.742188 368.8125 C 310.960938 368.164062 312.207031 367.574219 313.484375 367.042969 C 314.757812 366.515625 316.058594 366.050781 317.382812 365.648438 C 318.703125 365.25 320.042969 364.914062 321.398438 364.644531 C 322.753906 364.375 324.117188 364.171875 325.492188 364.039062 C 326.867188 363.902344 328.246094 363.832031 329.628906 363.832031 C 331.011719 363.832031 332.386719 363.902344 333.761719 364.035156 C 335.136719 364.171875 336.503906 364.375 337.859375 364.644531 C 339.214844 364.914062 340.550781 365.25 341.875 365.648438 C 343.195312 366.050781 344.496094 366.515625 345.773438 367.042969 C 347.050781 367.574219 348.296875 368.164062 349.515625 368.8125 C 350.734375 369.464844 351.917969 370.175781 353.066406 370.941406 C 354.214844 371.710938 355.324219 372.53125 356.390625 373.40625 C 357.460938 374.285156 358.484375 375.210938 359.460938 376.1875 C 360.4375 377.164062 361.363281 378.1875 362.242188 379.253906 C 363.117188 380.320312 363.9375 381.429688 364.707031 382.578125 C 365.472656 383.726562 366.183594 384.910156 366.835938 386.128906 C 367.488281 387.347656 368.078125 388.59375 368.605469 389.871094 C 369.132812 391.148438 369.597656 392.445312 370 393.769531 C 370.402344 395.089844 370.738281 396.429688 371.007812 397.785156 C 371.277344 399.136719 371.476562 400.503906 371.613281 401.878906 C 371.75 403.253906 371.816406 404.628906 371.816406 406.011719 Z M 371.816406 406.011719 " fill-opacity="1" fill-rule="nonzero"/><path fill="#ffc857" d="M 473.070312 363.832031 L 489.945312 363.832031 L 489.945312 313.222656 L 439.320312 313.222656 L 439.320312 330.09375 C 439.320312 348.726562 454.429688 363.832031 473.070312 363.832031 Z M 473.070312 363.832031 " fill-opacity="1" fill-rule="nonzero"/><path fill="#ffc857" d="M 439.320312 498.800781 L 489.945312 498.800781 L 489.945312 448.1875 L 473.070312 448.1875 C 454.429688 448.1875 439.320312 463.296875 439.320312 481.929688 Z M 439.320312 498.800781 " fill-opacity="1" fill-rule="nonzero"/><path fill="#ffc857" d="M 186.1875 363.832031 L 203.0625 363.832031 C 221.699219 363.832031 236.8125 348.726562 236.8125 330.09375 L 236.8125 313.222656 L 186.1875 313.222656 Z M 186.1875 363.832031 " fill-opacity="1" fill-rule="nonzero"/><path fill="#ffc857" d="M 186.1875 498.800781 L 236.8125 498.800781 L 236.8125 481.929688 C 236.8125 463.296875 221.699219 448.1875 203.0625 448.1875 L 186.1875 448.1875 Z M 186.1875 498.800781 " fill-opacity="1" fill-rule="nonzero"/><path fill="#ffc857" d="M 439.320312 414.445312 L 405.566406 414.445312 C 400.910156 414.445312 397.128906 410.675781 397.128906 406.011719 C 397.128906 401.347656 400.910156 397.574219 405.566406 397.574219 L 439.320312 397.574219 C 443.976562 397.574219 447.757812 401.347656 447.757812 406.011719 C 447.757812 410.675781 443.976562 414.445312 439.320312 414.445312 Z M 439.320312 414.445312 " fill-opacity="1" fill-rule="nonzero"/><path fill="#ffc857" d="M 253.6875 414.445312 L 219.9375 414.445312 C 215.28125 414.445312 211.5 410.675781 211.5 406.011719 C 211.5 401.347656 215.28125 397.574219 219.9375 397.574219 L 253.6875 397.574219 C 258.347656 397.574219 262.125 401.347656 262.125 406.011719 C 262.125 410.675781 258.347656 414.445312 253.6875 414.445312 Z M 253.6875 414.445312 " fill-opacity="1" fill-rule="nonzero"/><path fill="#83ae9b" d="M 219.9375 279.480469 L 489.945312 279.480469 L 489.945312 313.222656 L 219.9375 313.222656 Z M 219.9375 279.480469 " fill-opacity="1" fill-rule="nonzero"/><path fill="#61947d" d="M 253.6875 245.738281 L 489.945312 245.738281 L 489.945312 279.480469 L 253.6875 279.480469 Z M 253.6875 245.738281 " fill-opacity="1" fill-rule="nonzero"/><path fill="#ffc857" d="M 397.128906 203.558594 L 397.128906 77.027344 L 447.757812 77.027344 L 447.757812 203.558594 " fill-opacity="1" fill-rule="nonzero"/><path fill="#a2bdcd" d="M 295.878906 203.558594 L 295.878906 110.769531 L 346.503906 110.769531 L 346.503906 203.558594 " fill-opacity="1" fill-rule="nonzero"/><path fill="#83ae9b" d="M 194.625 203.558594 L 194.625 144.511719 L 245.25 144.511719 L 245.25 203.558594 " fill-opacity="1" fill-rule="nonzero"/><path fill="#ffb41f" d="M 233.175781 93.898438 L 194.625 93.898438 C 189.964844 93.898438 186.1875 90.125 186.1875 85.460938 C 186.1875 80.796875 189.964844 77.027344 194.625 77.027344 L 233.175781 77.027344 C 304.171875 77.027344 372.324219 50.875 425.09375 3.398438 C 428.542969 0.289062 433.9375 0.480469 437.058594 3.933594 C 440.179688 7.375 440.003906 12.621094 436.578125 15.757812 C 380.515625 66.210938 308.347656 93.898438 233.175781 93.898438 Z M 233.175781 93.898438 " fill-opacity="1" fill-rule="nonzero"/><path fill="#a2bdcd" d="M 110.246094 186.6875 L 110.246094 102.332031 L 143.996094 102.332031 L 76.496094 34.847656 L 8.992188 102.332031 L 42.746094 102.332031 L 42.746094 186.6875 " fill-opacity="1" fill-rule="nonzero"/><path fill="#608ea9" d="M 76.496094 220.429688 C 71.835938 220.429688 68.058594 216.660156 68.058594 211.996094 L 68.058594 127.640625 C 68.058594 122.972656 71.835938 119.203125 76.496094 119.203125 C 81.152344 119.203125 84.933594 122.972656 84.933594 127.640625 L 84.933594 211.996094 C 84.933594 216.660156 81.152344 220.429688 76.496094 220.429688 Z M 76.496094 220.429688 " fill-opacity="1" fill-rule="nonzero"/><path fill="#517b68" d="M 72.277344 304.785156 L 72.277344 313.222656 L 80.714844 313.222656 L 80.714844 304.785156 Z M 72.277344 304.785156 " fill-opacity="1" fill-rule="nonzero"/><path fill="#ffc857" d="M 150.097656 397.574219 L 51.183594 397.574219 C 44.957031 397.574219 39.570312 400.992188 36.644531 406.011719 L 135.558594 406.011719 C 141.785156 406.011719 147.171875 402.59375 150.097656 397.574219 Z M 150.097656 397.574219 " fill-opacity="1" fill-rule="nonzero"/><path fill="#ffc857" d="M 135.558594 448.1875 L 36.644531 448.1875 C 39.570312 453.207031 44.957031 456.625 51.183594 456.625 L 150.097656 456.625 C 147.171875 451.605469 141.785156 448.1875 135.558594 448.1875 Z M 135.558594 448.1875 " fill-opacity="1" fill-rule="nonzero"/><path fill="#61947d" d="M 219.9375 304.785156 L 489.945312 304.785156 L 489.945312 313.222656 L 219.9375 313.222656 Z M 219.9375 304.785156 " fill-opacity="1" fill-rule="nonzero"/><path fill="#517b68" d="M 253.6875 271.042969 L 489.945312 271.042969 L 489.945312 279.480469 L 253.6875 279.480469 Z M 253.6875 271.042969 " fill-opacity="1" fill-rule="nonzero"/></svg>