<svg xmlns="http://www.w3.org/2000/svg" xmlns:xlink="http://www.w3.org/1999/xlink" width="509" zoomAndPan="magnify" viewBox="0 0 381.75 338.999992" height="452" preserveAspectRatio="xMidYMid meet" version="1.0"><defs><clipPath id="id1"><path d="M 0 2 L 381.5 2 L 381.5 337 L 0 337 Z M 0 2 " clip-rule="nonzero"/></clipPath></defs><g clip-path="url(#id1)"><path fill="#d3d3d3" d="M 15.90625 2.734375 L 365.84375 2.734375 C 374.667969 2.734375 381.75 9.8125 381.75 18.625 L 381.75 320.59375 C 381.75 329.410156 374.667969 336.488281 365.84375 336.488281 L 15.90625 336.488281 C 7.082031 336.488281 0 329.410156 0 320.59375 L 0 18.625 C 0 9.8125 7.082031 2.734375 15.90625 2.734375 Z M 15.90625 2.734375 " fill-opacity="1" fill-rule="evenodd"/></g><path fill="#ffffff" d="M 15.90625 18.625 L 365.84375 18.625 L 365.84375 320.59375 L 15.90625 320.59375 Z M 15.90625 18.625 " fill-opacity="1" fill-rule="evenodd"/><path fill="#555555" d="M 47.71875 50.414062 L 95.4375 50.414062 L 95.4375 66.304688 L 47.71875 66.304688 Z M 47.71875 50.414062 " fill-opacity="1" fill-rule="evenodd"/><path fill="#777777" d="M 111.34375 50.414062 L 190.875 50.414062 L 190.875 66.304688 L 111.34375 66.304688 Z M 111.34375 50.414062 " fill-opacity="1" fill-rule="evenodd"/><path fill="#555555" d="M 47.71875 82.199219 L 95.4375 82.199219 L 95.4375 98.09375 L 47.71875 98.09375 Z M 47.71875 82.199219 " fill-opacity="1" fill-rule="evenodd"/><path fill="#777777" d="M 111.34375 82.199219 L 190.875 82.199219 L 190.875 98.09375 L 111.34375 98.09375 Z M 111.34375 82.199219 " fill-opacity="1" fill-rule="evenodd"/><path fill="#555555" d="M 47.71875 113.984375 L 95.4375 113.984375 L 95.4375 129.878906 L 47.71875 129.878906 Z M 47.71875 113.984375 " fill-opacity="1" fill-rule="evenodd"/><path fill="#777777" d="M 111.34375 113.984375 L 190.875 113.984375 L 190.875 129.878906 L 111.34375 129.878906 Z M 111.34375 113.984375 " fill-opacity="1" fill-rule="evenodd"/><path fill="#555555" d="M 47.71875 145.769531 L 95.4375 145.769531 L 95.4375 161.664062 L 47.71875 161.664062 Z M 47.71875 145.769531 " fill-opacity="1" fill-rule="evenodd"/><path fill="#777777" d="M 238.59375 209.34375 L 270.40625 209.34375 L 270.40625 225.238281 L 238.59375 225.238281 Z M 238.59375 209.34375 " fill-opacity="1" fill-rule="evenodd"/><path fill="#777777" d="M 238.59375 241.128906 L 270.40625 241.128906 L 270.40625 257.023438 L 238.59375 257.023438 Z M 238.59375 241.128906 " fill-opacity="1" fill-rule="evenodd"/><path fill="#777777" d="M 238.59375 272.914062 L 270.40625 272.914062 L 270.40625 288.808594 L 238.59375 288.808594 Z M 238.59375 272.914062 " fill-opacity="1" fill-rule="evenodd"/><path fill="#555555" d="M 286.3125 209.34375 L 334.03125 209.34375 L 334.03125 225.238281 L 286.3125 225.238281 Z M 286.3125 209.34375 " fill-opacity="1" fill-rule="evenodd"/><path fill="#6dc871" d="M 334.03125 106.039062 C 334.03125 136.75 309.09375 161.664062 278.359375 161.664062 C 247.625 161.664062 222.6875 136.75 222.6875 106.039062 C 222.6875 75.328125 247.625 50.414062 278.359375 50.414062 C 309.09375 50.414062 334.03125 75.328125 334.03125 106.039062 Z M 334.03125 106.039062 " fill-opacity="1" fill-rule="evenodd"/><path fill="#0aa9dd" d="M 263.695312 159.71875 L 278.359375 106.039062 L 331.171875 88.449219 C 333.035156 93.953125 334.03125 99.871094 334.03125 106.039062 C 334.03125 136.75 309.09375 161.664062 278.359375 161.664062 C 273.265625 161.664062 268.335938 161.003906 263.695312 159.71875 Z M 263.695312 159.71875 " fill-opacity="1" fill-rule="evenodd"/><path fill="#f8a700" d="M 246.007812 60.761719 C 255.121094 54.261719 266.304688 50.414062 278.359375 50.414062 C 302.964844 50.414062 323.800781 66.347656 331.171875 88.449219 L 278.359375 106.039062 Z M 246.007812 60.761719 " fill-opacity="1" fill-rule="evenodd"/><path fill="#555555" d="M 286.3125 241.128906 L 334.03125 241.128906 L 334.03125 257.023438 L 286.3125 257.023438 Z M 286.3125 241.128906 " fill-opacity="1" fill-rule="evenodd"/><path fill="#555555" d="M 286.3125 272.914062 L 334.03125 272.914062 L 334.03125 288.808594 L 286.3125 288.808594 Z M 286.3125 272.914062 " fill-opacity="1" fill-rule="evenodd"/><path fill="#f44d61" d="M 47.71875 193.449219 L 63.625 193.449219 L 63.625 288.808594 L 47.71875 288.808594 Z M 47.71875 193.449219 " fill-opacity="1" fill-rule="evenodd"/><path fill="#f8a700" d="M 79.53125 257.023438 L 95.4375 257.023438 L 95.4375 288.808594 L 79.53125 288.808594 Z M 79.53125 257.023438 " fill-opacity="1" fill-rule="evenodd"/><path fill="#3bbae4" d="M 111.34375 225.238281 L 127.25 225.238281 L 127.25 288.808594 L 111.34375 288.808594 Z M 111.34375 225.238281 " fill-opacity="1" fill-rule="evenodd"/><path fill="#f44d61" d="M 143.15625 225.238281 L 159.0625 225.238281 L 159.0625 288.808594 L 143.15625 288.808594 Z M 143.15625 225.238281 " fill-opacity="1" fill-rule="evenodd"/><path fill="#f8a700" d="M 174.96875 241.128906 L 190.875 241.128906 L 190.875 288.808594 L 174.96875 288.808594 Z M 174.96875 241.128906 " fill-opacity="1" fill-rule="evenodd"/><path fill="#777777" d="M 111.34375 145.769531 L 190.875 145.769531 L 190.875 161.664062 L 111.34375 161.664062 Z M 111.34375 145.769531 " fill-opacity="1" fill-rule="evenodd"/></svg>