<svg xmlns="http://www.w3.org/2000/svg" xmlns:xlink="http://www.w3.org/1999/xlink" width="450" zoomAndPan="magnify" viewBox="0 0 337.5 337.500003" height="450" preserveAspectRatio="xMidYMid meet" version="1.0"><defs><g/><clipPath id="id1"><path d="M 0 0 L 337 0 L 337 337 L 0 337 Z M 0 0 " clip-rule="nonzero"/></clipPath><clipPath id="id2"><path d="M 0 0 L 337 0 L 337 337 L 0 337 Z M 0 0 " clip-rule="nonzero"/></clipPath><clipPath id="id3"><path d="M 168.75 0 C 75.550781 0 0 75.550781 0 168.75 C 0 261.949219 75.550781 337.5 168.75 337.5 C 261.949219 337.5 337.5 261.949219 337.5 168.75 C 337.5 75.550781 261.949219 0 168.75 0 " clip-rule="nonzero"/></clipPath></defs><g clip-path="url(#id1)"><path fill="#14c38e" d="M 168.75 0 C 75.550781 0 0 75.550781 0 168.75 C 0 261.949219 75.550781 337.5 168.75 337.5 C 261.949219 337.5 337.5 261.949219 337.5 168.75 C 337.5 75.550781 261.949219 0 168.75 0 " fill-opacity="1" fill-rule="nonzero"/></g><g clip-path="url(#id2)"><g clip-path="url(#id3)"><path stroke-linecap="butt" transform="matrix(0.75, 0, 0, 0.75, 0, 0.0000114852)" fill="none" stroke-linejoin="miter" d="M 225.000012 -0.0000153136 C 100.73438 -0.0000153136 0 100.734365 0 224.999996 C 0 349.265628 100.73438 450.000008 225.000012 450.000008 C 349.265643 450.000008 450.000023 349.265628 450.000023 224.999996 C 450.000023 100.734365 349.265643 -0.0000153136 225.000012 -0.0000153136 " stroke="#b8f1b0" stroke-width="32" stroke-opacity="1" stroke-miterlimit="4"/></g></g><g fill="#d32f23" fill-opacity="0.4196"><g transform="translate(71.111065, 253.360711)"><g><path d="M 104.59375 -153.828125 C 105.625 -153.828125 106.394531 -153.53125 106.90625 -152.9375 C 107.414062 -152.351562 107.597656 -151.550781 107.453125 -150.53125 L 103.71875 -121.078125 C 103.425781 -119.316406 102.769531 -117.925781 101.75 -116.90625 L 76.6875 -92.953125 C 76.25 -92.660156 76.066406 -92.367188 76.140625 -92.078125 C 76.210938 -91.785156 76.46875 -91.640625 76.90625 -91.640625 C 82.769531 -91.191406 87.53125 -88.550781 91.1875 -83.71875 C 94.851562 -78.882812 96.6875 -72.953125 96.6875 -65.921875 C 96.6875 -64.753906 96.539062 -63 96.25 -60.65625 L 93.609375 -37.796875 C 92.734375 -30.179688 90.023438 -23.367188 85.484375 -17.359375 C 80.941406 -11.347656 75.117188 -6.65625 68.015625 -3.28125 C 60.910156 0.0820312 53.109375 1.765625 44.609375 1.765625 C 32.160156 1.765625 22.125 -1.421875 14.5 -7.796875 C 6.882812 -14.171875 3.078125 -22.488281 3.078125 -32.75 C 3.078125 -34.9375 3.148438 -36.617188 3.296875 -37.796875 L 4.609375 -47.6875 C 4.753906 -48.707031 5.117188 -49.507812 5.703125 -50.09375 C 6.296875 -50.6875 7.101562 -50.984375 8.125 -50.984375 L 41.75 -50.984375 C 42.78125 -50.984375 43.550781 -50.6875 44.0625 -50.09375 C 44.570312 -49.507812 44.753906 -48.707031 44.609375 -47.6875 L 43.953125 -41.75 C 43.660156 -39.40625 43.953125 -37.460938 44.828125 -35.921875 C 45.703125 -34.390625 47.019531 -33.625 48.78125 -33.625 C 50.6875 -33.625 52.296875 -34.351562 53.609375 -35.8125 C 54.929688 -37.28125 55.738281 -39.257812 56.03125 -41.75 L 59.109375 -66.578125 C 59.398438 -68.921875 59.070312 -70.863281 58.125 -72.40625 C 57.175781 -73.945312 55.75 -74.71875 53.84375 -74.71875 C 51.5 -74.71875 48.859375 -73.472656 45.921875 -70.984375 C 44.898438 -70.242188 44.097656 -69.875 43.515625 -69.875 C 42.921875 -69.875 42.257812 -70.242188 41.53125 -70.984375 L 26.8125 -89.21875 C 26.375 -89.945312 26.15625 -90.609375 26.15625 -91.203125 C 26.15625 -92.367188 26.59375 -93.242188 27.46875 -93.828125 L 54.28125 -117.34375 C 54.570312 -117.632812 54.679688 -117.925781 54.609375 -118.21875 C 54.535156 -118.519531 54.28125 -118.671875 53.84375 -118.671875 L 20 -118.671875 C 18.96875 -118.671875 18.195312 -118.960938 17.6875 -119.546875 C 17.175781 -120.128906 16.992188 -120.9375 17.140625 -121.96875 L 20.65625 -150.53125 C 20.800781 -151.550781 21.164062 -152.351562 21.75 -152.9375 C 22.34375 -153.53125 23.148438 -153.828125 24.171875 -153.828125 Z M 104.59375 -153.828125 "/></g></g></g><g fill="#d32f23" fill-opacity="0.4196"><g transform="translate(167.797608, 253.360711)"><g><path d="M 69.65625 -97.5625 C 78.59375 -97.5625 85.550781 -94.703125 90.53125 -88.984375 C 95.519531 -83.273438 98.015625 -75.367188 98.015625 -65.265625 C 98.015625 -61.742188 97.863281 -59.035156 97.5625 -57.140625 L 95.15625 -37.578125 C 93.6875 -25.273438 88.410156 -15.640625 79.328125 -8.671875 C 70.242188 -1.710938 58.742188 1.765625 44.828125 1.765625 C 32.078125 1.765625 22.148438 -1.347656 15.046875 -7.578125 C 7.941406 -13.804688 4.390625 -23.144531 4.390625 -35.59375 L 4.609375 -41.53125 C 4.898438 -43.726562 6.144531 -44.828125 8.34375 -44.828125 L 41.96875 -44.828125 C 44.164062 -44.828125 45.117188 -43.945312 44.828125 -42.1875 L 44.828125 -39.5625 C 44.972656 -35.457031 46.363281 -33.40625 49 -33.40625 C 50.757812 -33.40625 52.1875 -34.0625 53.28125 -35.375 C 54.382812 -36.695312 55.082031 -38.382812 55.375 -40.4375 L 57.359375 -54.9375 C 57.648438 -56.988281 57.351562 -58.671875 56.46875 -59.984375 C 55.59375 -61.304688 54.273438 -61.96875 52.515625 -61.96875 C 51.492188 -61.96875 50.503906 -61.710938 49.546875 -61.203125 C 48.597656 -60.691406 47.90625 -60.066406 47.46875 -59.328125 C 46.882812 -58.304688 46.296875 -57.570312 45.703125 -57.125 C 45.117188 -56.6875 44.390625 -56.46875 43.515625 -56.46875 L 9.453125 -56.46875 C 8.421875 -56.46875 7.648438 -56.757812 7.140625 -57.34375 C 6.628906 -57.9375 6.445312 -58.742188 6.59375 -59.765625 L 17.796875 -150.53125 C 17.941406 -151.550781 18.34375 -152.351562 19 -152.9375 C 19.664062 -153.53125 20.507812 -153.828125 21.53125 -153.828125 L 105.921875 -153.828125 C 106.796875 -153.828125 107.488281 -153.53125 108 -152.9375 C 108.519531 -152.351562 108.707031 -151.550781 108.5625 -150.53125 L 105.046875 -121.734375 C 104.898438 -120.710938 104.53125 -119.90625 103.9375 -119.3125 C 103.351562 -118.726562 102.550781 -118.4375 101.53125 -118.4375 L 54.9375 -118.4375 C 54.644531 -118.4375 54.390625 -118.328125 54.171875 -118.109375 C 53.953125 -117.890625 53.84375 -117.632812 53.84375 -117.34375 L 50.765625 -91.640625 C 50.617188 -91.191406 50.691406 -90.894531 50.984375 -90.75 C 51.273438 -90.601562 51.566406 -90.675781 51.859375 -90.96875 C 54.492188 -93.019531 57.347656 -94.628906 60.421875 -95.796875 C 63.503906 -96.972656 66.582031 -97.5625 69.65625 -97.5625 Z M 69.65625 -97.5625 "/></g></g></g><g fill="#e3fcbf" fill-opacity="1"><g transform="translate(64.578911, 247.479133)"><g><path d="M 104.59375 -153.828125 C 105.625 -153.828125 106.394531 -153.53125 106.90625 -152.9375 C 107.414062 -152.351562 107.597656 -151.550781 107.453125 -150.53125 L 103.71875 -121.078125 C 103.425781 -119.316406 102.769531 -117.925781 101.75 -116.90625 L 76.6875 -92.953125 C 76.25 -92.660156 76.066406 -92.367188 76.140625 -92.078125 C 76.210938 -91.785156 76.46875 -91.640625 76.90625 -91.640625 C 82.769531 -91.191406 87.53125 -88.550781 91.1875 -83.71875 C 94.851562 -78.882812 96.6875 -72.953125 96.6875 -65.921875 C 96.6875 -64.753906 96.539062 -63 96.25 -60.65625 L 93.609375 -37.796875 C 92.734375 -30.179688 90.023438 -23.367188 85.484375 -17.359375 C 80.941406 -11.347656 75.117188 -6.65625 68.015625 -3.28125 C 60.910156 0.0820312 53.109375 1.765625 44.609375 1.765625 C 32.160156 1.765625 22.125 -1.421875 14.5 -7.796875 C 6.882812 -14.171875 3.078125 -22.488281 3.078125 -32.75 C 3.078125 -34.9375 3.148438 -36.617188 3.296875 -37.796875 L 4.609375 -47.6875 C 4.753906 -48.707031 5.117188 -49.507812 5.703125 -50.09375 C 6.296875 -50.6875 7.101562 -50.984375 8.125 -50.984375 L 41.75 -50.984375 C 42.78125 -50.984375 43.550781 -50.6875 44.0625 -50.09375 C 44.570312 -49.507812 44.753906 -48.707031 44.609375 -47.6875 L 43.953125 -41.75 C 43.660156 -39.40625 43.953125 -37.460938 44.828125 -35.921875 C 45.703125 -34.390625 47.019531 -33.625 48.78125 -33.625 C 50.6875 -33.625 52.296875 -34.351562 53.609375 -35.8125 C 54.929688 -37.28125 55.738281 -39.257812 56.03125 -41.75 L 59.109375 -66.578125 C 59.398438 -68.921875 59.070312 -70.863281 58.125 -72.40625 C 57.175781 -73.945312 55.75 -74.71875 53.84375 -74.71875 C 51.5 -74.71875 48.859375 -73.472656 45.921875 -70.984375 C 44.898438 -70.242188 44.097656 -69.875 43.515625 -69.875 C 42.921875 -69.875 42.257812 -70.242188 41.53125 -70.984375 L 26.8125 -89.21875 C 26.375 -89.945312 26.15625 -90.609375 26.15625 -91.203125 C 26.15625 -92.367188 26.59375 -93.242188 27.46875 -93.828125 L 54.28125 -117.34375 C 54.570312 -117.632812 54.679688 -117.925781 54.609375 -118.21875 C 54.535156 -118.519531 54.28125 -118.671875 53.84375 -118.671875 L 20 -118.671875 C 18.96875 -118.671875 18.195312 -118.960938 17.6875 -119.546875 C 17.175781 -120.128906 16.992188 -120.9375 17.140625 -121.96875 L 20.65625 -150.53125 C 20.800781 -151.550781 21.164062 -152.351562 21.75 -152.9375 C 22.34375 -153.53125 23.148438 -153.828125 24.171875 -153.828125 Z M 104.59375 -153.828125 "/></g></g></g><g fill="#e3fcbf" fill-opacity="1"><g transform="translate(161.265454, 247.479133)"><g><path d="M 69.65625 -97.5625 C 78.59375 -97.5625 85.550781 -94.703125 90.53125 -88.984375 C 95.519531 -83.273438 98.015625 -75.367188 98.015625 -65.265625 C 98.015625 -61.742188 97.863281 -59.035156 97.5625 -57.140625 L 95.15625 -37.578125 C 93.6875 -25.273438 88.410156 -15.640625 79.328125 -8.671875 C 70.242188 -1.710938 58.742188 1.765625 44.828125 1.765625 C 32.078125 1.765625 22.148438 -1.347656 15.046875 -7.578125 C 7.941406 -13.804688 4.390625 -23.144531 4.390625 -35.59375 L 4.609375 -41.53125 C 4.898438 -43.726562 6.144531 -44.828125 8.34375 -44.828125 L 41.96875 -44.828125 C 44.164062 -44.828125 45.117188 -43.945312 44.828125 -42.1875 L 44.828125 -39.5625 C 44.972656 -35.457031 46.363281 -33.40625 49 -33.40625 C 50.757812 -33.40625 52.1875 -34.0625 53.28125 -35.375 C 54.382812 -36.695312 55.082031 -38.382812 55.375 -40.4375 L 57.359375 -54.9375 C 57.648438 -56.988281 57.351562 -58.671875 56.46875 -59.984375 C 55.59375 -61.304688 54.273438 -61.96875 52.515625 -61.96875 C 51.492188 -61.96875 50.503906 -61.710938 49.546875 -61.203125 C 48.597656 -60.691406 47.90625 -60.066406 47.46875 -59.328125 C 46.882812 -58.304688 46.296875 -57.570312 45.703125 -57.125 C 45.117188 -56.6875 44.390625 -56.46875 43.515625 -56.46875 L 9.453125 -56.46875 C 8.421875 -56.46875 7.648438 -56.757812 7.140625 -57.34375 C 6.628906 -57.9375 6.445312 -58.742188 6.59375 -59.765625 L 17.796875 -150.53125 C 17.941406 -151.550781 18.34375 -152.351562 19 -152.9375 C 19.664062 -153.53125 20.507812 -153.828125 21.53125 -153.828125 L 105.921875 -153.828125 C 106.796875 -153.828125 107.488281 -153.53125 108 -152.9375 C 108.519531 -152.351562 108.707031 -151.550781 108.5625 -150.53125 L 105.046875 -121.734375 C 104.898438 -120.710938 104.53125 -119.90625 103.9375 -119.3125 C 103.351562 -118.726562 102.550781 -118.4375 101.53125 -118.4375 L 54.9375 -118.4375 C 54.644531 -118.4375 54.390625 -118.328125 54.171875 -118.109375 C 53.953125 -117.890625 53.84375 -117.632812 53.84375 -117.34375 L 50.765625 -91.640625 C 50.617188 -91.191406 50.691406 -90.894531 50.984375 -90.75 C 51.273438 -90.601562 51.566406 -90.675781 51.859375 -90.96875 C 54.492188 -93.019531 57.347656 -94.628906 60.421875 -95.796875 C 63.503906 -96.972656 66.582031 -97.5625 69.65625 -97.5625 Z M 69.65625 -97.5625 "/></g></g></g></svg>