<svg xmlns="http://www.w3.org/2000/svg" xmlns:xlink="http://www.w3.org/1999/xlink" width="1024" zoomAndPan="magnify" viewBox="0 0 768 767.999994" height="1024" preserveAspectRatio="xMidYMid meet" version="1.0"><path fill="#56b48c" d="M 384 0 C 171.957031 0 0 171.957031 0 384 C 0 596.042969 171.957031 768 384 768 C 596.042969 768 768 596.042969 768 384 C 768 171.957031 596.042969 0 384 0 Z M 384 0 " fill-opacity="1" fill-rule="nonzero"/><path fill="#e3fcbf" d="M 431.515625 225.042969 C 426.71875 218.855469 420.21875 215.757812 412.167969 215.757812 C 405.050781 215.757812 400.25 217.152344 397.621094 219.78125 C 394.988281 222.566406 389.570312 229.6875 381.058594 241.605469 C 372.546875 253.367188 362.949219 264.046875 351.960938 273.644531 C 340.972656 283.242188 326.421875 292.21875 308.160156 300.886719 C 295.933594 306.613281 287.417969 311.253906 282.464844 314.96875 C 277.667969 318.53125 275.191406 324.257812 275.191406 331.996094 C 275.191406 338.652344 277.667969 344.53125 282.621094 349.640625 C 287.574219 354.746094 293.144531 357.222656 299.492188 357.222656 C 312.804688 357.222656 338.652344 342.519531 377.035156 312.957031 L 377.035156 519.273438 C 377.035156 531.347656 379.820312 540.480469 385.394531 546.671875 C 390.964844 552.859375 398.394531 555.957031 407.679688 555.957031 C 428.421875 555.957031 438.789062 540.789062 438.789062 510.453125 L 438.789062 250.738281 C 438.789062 239.902344 436.3125 231.234375 431.515625 225.042969 " fill-opacity="1" fill-rule="nonzero"/></svg>