<svg xmlns="http://www.w3.org/2000/svg" xmlns:xlink="http://www.w3.org/1999/xlink" width="862" zoomAndPan="magnify" viewBox="0 0 646.5 749.999995" height="1000" preserveAspectRatio="xMidYMid meet" version="1.0"><defs><clipPath id="id1"><path d="M 625 314 L 646 314 L 646 506 L 625 506 Z M 625 314 " clip-rule="nonzero"/></clipPath></defs><path fill="#000000" d="M 70.683594 324.875 C 74.992188 323.148438 77.578125 318.839844 77.578125 314.53125 L 77.578125 45.648438 L 117.230469 99.941406 C 119.816406 105.113281 126.714844 106.835938 131.886719 104.25 C 137.058594 101.664062 138.78125 94.769531 136.195312 89.597656 C 135.335938 88.738281 75.855469 6.003906 75.855469 6.003906 C 74.132812 3.417969 70.683594 1.695312 67.234375 1.695312 C 62.0625 1.695312 59.476562 4.28125 58.617188 6.003906 L 3.449219 93.90625 C 0 99.078125 1.722656 105.113281 6.894531 108.558594 C 8.621094 109.421875 10.34375 110.28125 12.929688 110.28125 C 16.378906 110.28125 19.824219 108.558594 22.410156 105.113281 L 56.890625 49.957031 L 56.890625 286.09375 L 21.550781 243.863281 C 18.101562 239.554688 11.207031 238.691406 6.035156 243 C 3.449219 244.726562 2.585938 248.171875 2.585938 250.757812 L 2.585938 419.671875 C 2.585938 425.707031 7.757812 430.015625 12.929688 430.015625 C 18.101562 430.015625 23.273438 424.84375 23.273438 419.671875 L 23.273438 280.058594 L 58.617188 322.289062 C 62.0625 325.734375 67.234375 326.597656 70.683594 324.875 Z M 70.683594 324.875 " fill-opacity="1" fill-rule="nonzero"/><path fill="#000000" d="M 573.230469 311.085938 C 567.195312 311.085938 562.886719 316.253906 562.886719 321.425781 L 562.886719 492.925781 L 527.542969 450.699219 C 524.097656 446.390625 517.199219 445.527344 512.027344 449.835938 C 509.441406 451.558594 508.578125 455.007812 508.578125 457.59375 L 508.578125 701.484375 L 469.789062 640.296875 C 466.34375 635.125 460.308594 633.402344 455.136719 636.851562 C 449.964844 640.296875 448.238281 646.328125 451.6875 651.5 L 510.304688 743.714844 C 512.027344 747.160156 515.476562 748.886719 519.785156 748.886719 C 524.957031 748.886719 527.542969 746.300781 528.40625 744.578125 L 582.710938 656.671875 C 586.160156 651.5 584.4375 644.605469 579.265625 642.019531 C 574.09375 638.574219 567.195312 640.296875 564.609375 645.46875 L 530.128906 700.625 L 530.128906 487.757812 L 565.472656 529.984375 C 568.921875 534.292969 575.816406 535.15625 580.988281 530.847656 C 583.574219 529.125 584.4375 525.675781 584.4375 523.089844 L 584.4375 322.289062 C 584.4375 316.253906 579.265625 311.085938 573.230469 311.085938 C 574.09375 311.085938 573.230469 311.085938 573.230469 311.085938 Z M 573.230469 311.085938 " fill-opacity="1" fill-rule="nonzero"/><path fill="#000000" d="M 424.964844 575.660156 C 306.871094 638.574219 161.195312 593.757812 98.269531 475.691406 C 96.542969 471.382812 93.957031 467.933594 92.234375 463.625 C 77.578125 431.738281 69.820312 398.128906 70.683594 362.792969 C 70.683594 356.761719 65.511719 352.453125 60.339844 352.453125 C 54.304688 352.453125 49.996094 357.621094 49.996094 362.792969 C 49.996094 400.714844 57.753906 437.769531 74.132812 472.242188 C 134.472656 604.101562 290.492188 661.84375 421.519531 601.515625 C 426.691406 598.929688 431 597.207031 436.171875 594.621094 C 441.34375 592.035156 443.929688 586.003906 442.207031 580.832031 C 440.480469 575.660156 431 572.214844 424.964844 575.660156 Z M 424.964844 575.660156 " fill-opacity="1" fill-rule="nonzero"/><path fill="#000000" d="M 324.113281 457.59375 L 325.835938 457.59375 C 340.488281 457.59375 352.558594 445.527344 352.558594 430.875 L 352.558594 405.023438 C 352.558594 398.988281 346.523438 391.234375 336.179688 384.339844 L 324.113281 379.167969 Z M 324.113281 457.59375 " fill-opacity="1" fill-rule="nonzero"/><path fill="#000000" d="M 268.945312 294.710938 L 268.945312 320.566406 C 268.945312 328.320312 277.5625 336.078125 284.460938 340.386719 L 302.5625 347.28125 L 302.5625 267.132812 L 295.664062 267.132812 C 281.011719 267.996094 268.945312 280.058594 268.945312 294.710938 Z M 268.945312 294.710938 " fill-opacity="1" fill-rule="nonzero"/><path fill="#000000" d="M 311.183594 174.054688 C 206.019531 174.054688 121.542969 258.515625 121.542969 363.65625 C 121.542969 468.796875 206.019531 553.253906 311.183594 553.253906 C 416.347656 553.253906 500.820312 468.796875 500.820312 363.65625 C 500.820312 258.515625 416.347656 174.054688 311.183594 174.054688 Z M 374.96875 306.777344 C 374.96875 312.808594 369.796875 317.117188 364.625 317.117188 C 359.453125 317.117188 354.28125 311.945312 354.28125 306.777344 L 354.28125 294.710938 C 354.28125 280.058594 342.214844 267.996094 327.558594 267.996094 L 325.835938 267.996094 L 325.835938 355.898438 C 325.835938 355.898438 349.109375 365.378906 349.972656 365.378906 C 368.074219 376.582031 376.695312 390.371094 376.695312 404.160156 L 376.695312 430.015625 C 376.695312 456.730469 355.144531 478.277344 328.421875 478.277344 L 326.699219 478.277344 L 326.699219 502.40625 C 326.699219 508.441406 321.527344 512.75 316.355469 512.75 C 311.183594 512.75 306.011719 507.578125 306.011719 502.40625 L 306.011719 478.277344 L 299.113281 478.277344 C 272.390625 478.277344 250.84375 456.730469 249.980469 430.015625 L 249.980469 417.949219 C 249.980469 411.917969 255.152344 407.609375 260.324219 407.609375 C 265.496094 407.609375 270.667969 412.777344 270.667969 417.949219 L 270.667969 430.015625 C 270.667969 444.664062 282.734375 456.730469 298.253906 456.730469 L 305.148438 456.730469 L 305.148438 370.550781 L 275.839844 359.347656 C 256.015625 348.144531 247.394531 335.214844 247.394531 320.566406 L 247.394531 294.710938 C 247.394531 267.996094 268.945312 246.449219 296.527344 246.449219 L 303.425781 246.449219 L 303.425781 224.042969 C 303.425781 218.007812 308.597656 213.699219 313.769531 213.699219 C 318.941406 213.699219 324.113281 218.871094 324.113281 224.042969 L 324.113281 246.449219 L 325.835938 246.449219 C 352.558594 246.449219 374.109375 267.996094 374.109375 294.710938 L 374.109375 306.777344 Z M 374.96875 306.777344 " fill-opacity="1" fill-rule="nonzero"/><g clip-path="url(#id1)"><path fill="#000000" d="M 636.15625 314.53125 C 630.121094 314.53125 625.8125 319.703125 625.8125 324.875 L 625.8125 495.511719 C 625.8125 501.546875 630.984375 505.855469 636.15625 505.855469 C 641.328125 505.855469 646.5 500.683594 646.5 495.511719 L 646.5 324.875 C 646.5 318.839844 642.191406 314.53125 636.15625 314.53125 Z M 636.15625 314.53125 " fill-opacity="1" fill-rule="nonzero"/></g><path fill="#000000" d="M 178.433594 194.738281 C 184.46875 194.738281 188.777344 189.570312 188.777344 184.398438 L 188.777344 156.820312 C 303.425781 89.597656 450.824219 126.65625 518.0625 241.277344 C 526.683594 255.929688 534.441406 272.304688 539.613281 288.675781 C 541.335938 292.988281 544.785156 296.433594 549.957031 296.433594 C 550.816406 296.433594 552.542969 296.433594 553.402344 295.570312 C 559.4375 293.847656 562.023438 287.816406 560.300781 281.785156 C 515.476562 143.894531 367.210938 68.914062 229.292969 114.589844 C 215.5 118.902344 201.707031 124.933594 188.777344 131.828125 L 188.777344 100.800781 C 188.777344 94.769531 183.605469 90.460938 178.433594 90.460938 C 173.261719 90.460938 168.089844 95.632812 168.089844 100.800781 L 168.089844 184.398438 C 168.089844 189.570312 172.398438 194.738281 178.433594 194.738281 Z M 178.433594 194.738281 " fill-opacity="1" fill-rule="nonzero"/></svg>