<svg xmlns="http://www.w3.org/2000/svg" xmlns:xlink="http://www.w3.org/1999/xlink" width="450" zoomAndPan="magnify" viewBox="0 0 337.5 337.500003" height="450" preserveAspectRatio="xMidYMid meet" version="1.0"><defs><g/><clipPath id="id1"><path d="M 0 0 L 337 0 L 337 337 L 0 337 Z M 0 0 " clip-rule="nonzero"/></clipPath><clipPath id="id2"><path d="M 0 0 L 337 0 L 337 337 L 0 337 Z M 0 0 " clip-rule="nonzero"/></clipPath><clipPath id="id3"><path d="M 168.75 0 C 75.550781 0 0 75.550781 0 168.75 C 0 261.949219 75.550781 337.5 168.75 337.5 C 261.949219 337.5 337.5 261.949219 337.5 168.75 C 337.5 75.550781 261.949219 0 168.75 0 " clip-rule="nonzero"/></clipPath></defs><g clip-path="url(#id1)"><path fill="#14c38e" d="M 168.75 0 C 75.550781 0 0 75.550781 0 168.75 C 0 261.949219 75.550781 337.5 168.75 337.5 C 261.949219 337.5 337.5 261.949219 337.5 168.75 C 337.5 75.550781 261.949219 0 168.75 0 " fill-opacity="1" fill-rule="nonzero"/></g><g clip-path="url(#id2)"><g clip-path="url(#id3)"><path stroke-linecap="butt" transform="matrix(0.75, 0, 0, 0.75, 0, 0.0000114852)" fill="none" stroke-linejoin="miter" d="M 225.000012 -0.0000153136 C 100.73438 -0.0000153136 0 100.734365 0 224.999996 C 0 349.265628 100.73438 450.000008 225.000012 450.000008 C 349.265643 450.000008 450.000023 349.265628 450.000023 224.999996 C 450.000023 100.734365 349.265643 -0.0000153136 225.000012 -0.0000153136 " stroke="#b8f1b0" stroke-width="32" stroke-opacity="1" stroke-miterlimit="4"/></g></g><g fill="#d32f23" fill-opacity="0.4196"><g transform="translate(111.763404, 253.360711)"><g><path d="M 68.34375 0 C 66.289062 0 65.335938 -1.023438 65.484375 -3.078125 L 65.046875 -19.78125 C 65.191406 -20.070312 65.117188 -20.328125 64.828125 -20.546875 C 64.535156 -20.765625 64.242188 -20.875 63.953125 -20.875 L 44.828125 -20.875 C 44.097656 -20.875 43.585938 -20.507812 43.296875 -19.78125 L 39.109375 -3.078125 C 38.671875 -1.023438 37.425781 0 35.375 0 L 1.984375 0 C -0.210938 0 -1.019531 -1.171875 -0.4375 -3.515625 L 47.90625 -150.96875 C 48.488281 -152.875 49.804688 -153.828125 51.859375 -153.828125 L 90.75 -153.828125 C 92.800781 -153.828125 93.898438 -152.875 94.046875 -150.96875 L 106.140625 -3.515625 L 106.140625 -3.078125 C 106.140625 -1.023438 105.039062 0 102.84375 0 Z M 52.296875 -53.625 C 52.003906 -52.882812 52.222656 -52.515625 52.953125 -52.515625 L 63.28125 -52.515625 C 63.726562 -52.515625 64.097656 -52.882812 64.390625 -53.625 L 63.5 -94.265625 C 63.5 -94.859375 63.316406 -95.117188 62.953125 -95.046875 C 62.585938 -94.972656 62.40625 -94.710938 62.40625 -94.265625 Z M 52.296875 -53.625 "/></g></g></g><g fill="#e3fcbf" fill-opacity="1"><g transform="translate(105.23125, 247.479133)"><g><path d="M 68.34375 0 C 66.289062 0 65.335938 -1.023438 65.484375 -3.078125 L 65.046875 -19.78125 C 65.191406 -20.070312 65.117188 -20.328125 64.828125 -20.546875 C 64.535156 -20.765625 64.242188 -20.875 63.953125 -20.875 L 44.828125 -20.875 C 44.097656 -20.875 43.585938 -20.507812 43.296875 -19.78125 L 39.109375 -3.078125 C 38.671875 -1.023438 37.425781 0 35.375 0 L 1.984375 0 C -0.210938 0 -1.019531 -1.171875 -0.4375 -3.515625 L 47.90625 -150.96875 C 48.488281 -152.875 49.804688 -153.828125 51.859375 -153.828125 L 90.75 -153.828125 C 92.800781 -153.828125 93.898438 -152.875 94.046875 -150.96875 L 106.140625 -3.515625 L 106.140625 -3.078125 C 106.140625 -1.023438 105.039062 0 102.84375 0 Z M 52.296875 -53.625 C 52.003906 -52.882812 52.222656 -52.515625 52.953125 -52.515625 L 63.28125 -52.515625 C 63.726562 -52.515625 64.097656 -52.882812 64.390625 -53.625 L 63.5 -94.265625 C 63.5 -94.859375 63.316406 -95.117188 62.953125 -95.046875 C 62.585938 -94.972656 62.40625 -94.710938 62.40625 -94.265625 Z M 52.296875 -53.625 "/></g></g></g></svg>