<svg xmlns="http://www.w3.org/2000/svg" xmlns:xlink="http://www.w3.org/1999/xlink" width="450" zoomAndPan="magnify" viewBox="0 0 337.5 337.500003" height="450" preserveAspectRatio="xMidYMid meet" version="1.0"><defs><g/><clipPath id="id1"><path d="M 0 0 L 337 0 L 337 337 L 0 337 Z M 0 0 " clip-rule="nonzero"/></clipPath><clipPath id="id2"><path d="M 0 0 L 337 0 L 337 337 L 0 337 Z M 0 0 " clip-rule="nonzero"/></clipPath><clipPath id="id3"><path d="M 168.75 0 C 75.550781 0 0 75.550781 0 168.75 C 0 261.949219 75.550781 337.5 168.75 337.5 C 261.949219 337.5 337.5 261.949219 337.5 168.75 C 337.5 75.550781 261.949219 0 168.75 0 " clip-rule="nonzero"/></clipPath></defs><g clip-path="url(#id1)"><path fill="#14c38e" d="M 168.75 0 C 75.550781 0 0 75.550781 0 168.75 C 0 261.949219 75.550781 337.5 168.75 337.5 C 261.949219 337.5 337.5 261.949219 337.5 168.75 C 337.5 75.550781 261.949219 0 168.75 0 " fill-opacity="1" fill-rule="nonzero"/></g><g clip-path="url(#id2)"><g clip-path="url(#id3)"><path stroke-linecap="butt" transform="matrix(0.75, 0, 0, 0.75, 0, 0.0000114852)" fill="none" stroke-linejoin="miter" d="M 225.000012 -0.0000153136 C 100.73438 -0.0000153136 0 100.734365 0 224.999996 C 0 349.265628 100.73438 450.000008 225.000012 450.000008 C 349.265643 450.000008 450.000023 349.265628 450.000023 224.999996 C 450.000023 100.734365 349.265643 -0.0000153136 225.000012 -0.0000153136 " stroke="#b8f1b0" stroke-width="32" stroke-opacity="1" stroke-miterlimit="4"/></g></g><g fill="#d32f23" fill-opacity="0.4196"><g transform="translate(119.450903, 253.360711)"><g><path d="M 44.171875 2.640625 C 31.859375 2.640625 22.113281 -0.984375 14.9375 -8.234375 C 7.757812 -15.492188 4.171875 -25.273438 4.171875 -37.578125 C 4.171875 -39.191406 4.316406 -41.753906 4.609375 -45.265625 L 12.53125 -108.5625 C 13.695312 -118.082031 16.585938 -126.46875 21.203125 -133.71875 C 25.816406 -140.96875 31.820312 -146.570312 39.21875 -150.53125 C 46.625 -154.488281 54.796875 -156.46875 63.734375 -156.46875 C 76.035156 -156.46875 85.8125 -152.835938 93.0625 -145.578125 C 100.3125 -138.328125 103.9375 -128.550781 103.9375 -116.25 C 103.9375 -114.632812 103.789062 -112.070312 103.5 -108.5625 L 95.8125 -45.265625 C 94.632812 -35.742188 91.703125 -27.359375 87.015625 -20.109375 C 82.328125 -12.859375 76.285156 -7.253906 68.890625 -3.296875 C 61.492188 0.660156 53.253906 2.640625 44.171875 2.640625 Z M 48.5625 -32.75 C 50.320312 -32.75 51.785156 -33.660156 52.953125 -35.484375 C 54.128906 -37.316406 54.9375 -39.769531 55.375 -42.84375 L 63.734375 -110.96875 L 63.953125 -113.609375 C 63.953125 -118.585938 62.410156 -121.078125 59.328125 -121.078125 C 57.722656 -121.078125 56.332031 -120.160156 55.15625 -118.328125 C 53.988281 -116.503906 53.179688 -114.050781 52.734375 -110.96875 L 44.390625 -42.84375 L 44.171875 -40.21875 C 44.171875 -37.875 44.535156 -36.039062 45.265625 -34.71875 C 46.003906 -33.40625 47.101562 -32.75 48.5625 -32.75 Z M 48.5625 -32.75 "/></g></g></g><g fill="#e3fcbf" fill-opacity="1"><g transform="translate(112.91875, 247.479133)"><g><path d="M 44.171875 2.640625 C 31.859375 2.640625 22.113281 -0.984375 14.9375 -8.234375 C 7.757812 -15.492188 4.171875 -25.273438 4.171875 -37.578125 C 4.171875 -39.191406 4.316406 -41.753906 4.609375 -45.265625 L 12.53125 -108.5625 C 13.695312 -118.082031 16.585938 -126.46875 21.203125 -133.71875 C 25.816406 -140.96875 31.820312 -146.570312 39.21875 -150.53125 C 46.625 -154.488281 54.796875 -156.46875 63.734375 -156.46875 C 76.035156 -156.46875 85.8125 -152.835938 93.0625 -145.578125 C 100.3125 -138.328125 103.9375 -128.550781 103.9375 -116.25 C 103.9375 -114.632812 103.789062 -112.070312 103.5 -108.5625 L 95.8125 -45.265625 C 94.632812 -35.742188 91.703125 -27.359375 87.015625 -20.109375 C 82.328125 -12.859375 76.285156 -7.253906 68.890625 -3.296875 C 61.492188 0.660156 53.253906 2.640625 44.171875 2.640625 Z M 48.5625 -32.75 C 50.320312 -32.75 51.785156 -33.660156 52.953125 -35.484375 C 54.128906 -37.316406 54.9375 -39.769531 55.375 -42.84375 L 63.734375 -110.96875 L 63.953125 -113.609375 C 63.953125 -118.585938 62.410156 -121.078125 59.328125 -121.078125 C 57.722656 -121.078125 56.332031 -120.160156 55.15625 -118.328125 C 53.988281 -116.503906 53.179688 -114.050781 52.734375 -110.96875 L 44.390625 -42.84375 L 44.171875 -40.21875 C 44.171875 -37.875 44.535156 -36.039062 45.265625 -34.71875 C 46.003906 -33.40625 47.101562 -32.75 48.5625 -32.75 Z M 48.5625 -32.75 "/></g></g></g></svg>