<svg xmlns="http://www.w3.org/2000/svg" xmlns:xlink="http://www.w3.org/1999/xlink" width="414" zoomAndPan="magnify" viewBox="0 0 310.5 277.499997" height="370" preserveAspectRatio="xMidYMid meet" version="1.0"><defs><clipPath id="id1"><path d="M 0.03125 241 L 34 241 L 34 251 L 0.03125 251 Z M 0.03125 241 " clip-rule="nonzero"/></clipPath><clipPath id="id2"><path d="M 0.03125 193 L 34 193 L 34 203 L 0.03125 203 Z M 0.03125 193 " clip-rule="nonzero"/></clipPath><clipPath id="id3"><path d="M 0.03125 144 L 34 144 L 34 154 L 0.03125 154 Z M 0.03125 144 " clip-rule="nonzero"/></clipPath><clipPath id="id4"><path d="M 0.03125 96 L 34 96 L 34 106 L 0.03125 106 Z M 0.03125 96 " clip-rule="nonzero"/></clipPath><clipPath id="id5"><path d="M 0.03125 48 L 34 48 L 34 58 L 0.03125 58 Z M 0.03125 48 " clip-rule="nonzero"/></clipPath><clipPath id="id6"><path d="M 0.03125 0 L 309.972656 0 L 309.972656 277 L 0.03125 277 Z M 0.03125 0 " clip-rule="nonzero"/></clipPath></defs><g clip-path="url(#id1)"><path fill="#3c6a98" d="M 29.433594 250.535156 L 4.714844 250.535156 C 4.417969 250.535156 4.121094 250.503906 3.828125 250.445312 C 3.539062 250.390625 3.253906 250.300781 2.980469 250.1875 C 2.703125 250.074219 2.441406 249.933594 2.195312 249.769531 C 1.945312 249.605469 1.71875 249.417969 1.507812 249.207031 C 1.296875 248.996094 1.109375 248.765625 0.941406 248.519531 C 0.777344 248.273438 0.636719 248.011719 0.523438 247.734375 C 0.410156 247.460938 0.324219 247.175781 0.265625 246.886719 C 0.207031 246.59375 0.175781 246.296875 0.175781 246 C 0.175781 245.703125 0.207031 245.40625 0.265625 245.117188 C 0.324219 244.824219 0.410156 244.539062 0.523438 244.265625 C 0.636719 243.992188 0.777344 243.730469 0.941406 243.480469 C 1.109375 243.234375 1.296875 243.003906 1.507812 242.792969 C 1.71875 242.585938 1.945312 242.394531 2.195312 242.230469 C 2.441406 242.066406 2.703125 241.925781 2.980469 241.8125 C 3.253906 241.699219 3.539062 241.613281 3.828125 241.554688 C 4.121094 241.496094 4.417969 241.46875 4.714844 241.46875 L 29.433594 241.46875 C 29.734375 241.46875 30.027344 241.496094 30.320312 241.554688 C 30.613281 241.613281 30.894531 241.699219 31.171875 241.8125 C 31.445312 241.925781 31.707031 242.066406 31.957031 242.230469 C 32.203125 242.394531 32.433594 242.585938 32.644531 242.792969 C 32.855469 243.003906 33.042969 243.234375 33.207031 243.480469 C 33.375 243.730469 33.511719 243.992188 33.628906 244.265625 C 33.742188 244.539062 33.828125 244.824219 33.886719 245.117188 C 33.945312 245.40625 33.972656 245.703125 33.972656 246 C 33.972656 246.296875 33.945312 246.59375 33.886719 246.886719 C 33.828125 247.175781 33.742188 247.460938 33.628906 247.734375 C 33.511719 248.011719 33.375 248.273438 33.207031 248.519531 C 33.042969 248.765625 32.855469 248.996094 32.644531 249.207031 C 32.433594 249.417969 32.203125 249.605469 31.957031 249.769531 C 31.707031 249.933594 31.445312 250.074219 31.171875 250.1875 C 30.894531 250.300781 30.613281 250.390625 30.320312 250.445312 C 30.027344 250.503906 29.734375 250.535156 29.433594 250.535156 Z M 29.433594 250.535156 " fill-opacity="1" fill-rule="nonzero"/></g><g clip-path="url(#id2)"><path fill="#3c6a98" d="M 29.433594 202.117188 L 4.714844 202.117188 C 4.417969 202.117188 4.121094 202.085938 3.828125 202.03125 C 3.539062 201.972656 3.253906 201.886719 2.980469 201.773438 C 2.703125 201.65625 2.441406 201.519531 2.195312 201.351562 C 1.945312 201.1875 1.71875 201 1.507812 200.789062 C 1.296875 200.578125 1.109375 200.347656 0.941406 200.101562 C 0.777344 199.855469 0.636719 199.59375 0.523438 199.316406 C 0.410156 199.042969 0.324219 198.757812 0.265625 198.46875 C 0.207031 198.175781 0.175781 197.882812 0.175781 197.582031 C 0.175781 197.285156 0.207031 196.992188 0.265625 196.699219 C 0.324219 196.40625 0.410156 196.125 0.523438 195.847656 C 0.636719 195.574219 0.777344 195.3125 0.941406 195.066406 C 1.109375 194.816406 1.296875 194.589844 1.507812 194.378906 C 1.71875 194.167969 1.945312 193.980469 2.195312 193.8125 C 2.441406 193.648438 2.703125 193.507812 2.980469 193.394531 C 3.253906 193.28125 3.539062 193.195312 3.828125 193.136719 C 4.121094 193.078125 4.417969 193.050781 4.714844 193.050781 L 29.433594 193.050781 C 29.734375 193.050781 30.027344 193.078125 30.320312 193.136719 C 30.613281 193.195312 30.894531 193.28125 31.171875 193.394531 C 31.445312 193.507812 31.707031 193.648438 31.957031 193.8125 C 32.203125 193.980469 32.433594 194.167969 32.644531 194.378906 C 32.855469 194.589844 33.042969 194.816406 33.207031 195.066406 C 33.375 195.3125 33.511719 195.574219 33.628906 195.847656 C 33.742188 196.125 33.828125 196.40625 33.886719 196.699219 C 33.945312 196.992188 33.972656 197.285156 33.972656 197.582031 C 33.972656 197.882812 33.945312 198.175781 33.886719 198.46875 C 33.828125 198.757812 33.742188 199.042969 33.628906 199.316406 C 33.511719 199.59375 33.375 199.855469 33.207031 200.101562 C 33.042969 200.347656 32.855469 200.578125 32.644531 200.789062 C 32.433594 201 32.203125 201.1875 31.957031 201.351562 C 31.707031 201.519531 31.445312 201.65625 31.171875 201.773438 C 30.894531 201.886719 30.613281 201.972656 30.320312 202.03125 C 30.027344 202.085938 29.734375 202.117188 29.433594 202.117188 Z M 29.433594 202.117188 " fill-opacity="1" fill-rule="nonzero"/></g><g clip-path="url(#id3)"><path fill="#3c6a98" d="M 29.433594 153.882812 L 4.714844 153.882812 C 4.417969 153.878906 4.121094 153.851562 3.828125 153.792969 C 3.539062 153.734375 3.253906 153.648438 2.980469 153.535156 C 2.703125 153.421875 2.441406 153.28125 2.195312 153.117188 C 1.945312 152.953125 1.71875 152.761719 1.507812 152.554688 C 1.296875 152.34375 1.109375 152.113281 0.941406 151.867188 C 0.777344 151.617188 0.636719 151.355469 0.523438 151.082031 C 0.410156 150.808594 0.324219 150.523438 0.265625 150.230469 C 0.207031 149.941406 0.175781 149.644531 0.175781 149.347656 C 0.175781 149.050781 0.207031 148.753906 0.265625 148.464844 C 0.324219 148.171875 0.410156 147.886719 0.523438 147.613281 C 0.636719 147.335938 0.777344 147.078125 0.941406 146.828125 C 1.109375 146.582031 1.296875 146.351562 1.507812 146.140625 C 1.71875 145.929688 1.945312 145.742188 2.195312 145.578125 C 2.441406 145.414062 2.703125 145.273438 2.980469 145.160156 C 3.253906 145.046875 3.539062 144.960938 3.828125 144.902344 C 4.121094 144.84375 4.417969 144.8125 4.714844 144.8125 L 29.433594 144.8125 C 29.734375 144.8125 30.027344 144.84375 30.320312 144.902344 C 30.613281 144.960938 30.894531 145.046875 31.171875 145.160156 C 31.445312 145.273438 31.707031 145.414062 31.957031 145.578125 C 32.203125 145.742188 32.433594 145.929688 32.644531 146.140625 C 32.855469 146.351562 33.042969 146.582031 33.207031 146.828125 C 33.375 147.078125 33.511719 147.335938 33.628906 147.613281 C 33.742188 147.886719 33.828125 148.171875 33.886719 148.464844 C 33.945312 148.753906 33.972656 149.050781 33.972656 149.347656 C 33.972656 149.644531 33.945312 149.941406 33.886719 150.230469 C 33.828125 150.523438 33.742188 150.808594 33.628906 151.082031 C 33.511719 151.355469 33.375 151.617188 33.207031 151.867188 C 33.042969 152.113281 32.855469 152.34375 32.644531 152.554688 C 32.433594 152.761719 32.203125 152.953125 31.957031 153.117188 C 31.707031 153.28125 31.445312 153.421875 31.171875 153.535156 C 30.894531 153.648438 30.613281 153.734375 30.320312 153.792969 C 30.027344 153.851562 29.734375 153.878906 29.433594 153.882812 Z M 29.433594 153.882812 " fill-opacity="1" fill-rule="nonzero"/></g><g clip-path="url(#id4)"><path fill="#3c6a98" d="M 29.433594 105.535156 L 4.714844 105.535156 C 4.417969 105.535156 4.121094 105.507812 3.828125 105.449219 C 3.539062 105.390625 3.253906 105.304688 2.980469 105.191406 C 2.703125 105.078125 2.441406 104.9375 2.195312 104.773438 C 1.945312 104.605469 1.71875 104.417969 1.507812 104.207031 C 1.296875 103.996094 1.109375 103.769531 0.941406 103.519531 C 0.777344 103.273438 0.636719 103.011719 0.523438 102.738281 C 0.410156 102.460938 0.324219 102.179688 0.265625 101.886719 C 0.207031 101.59375 0.175781 101.300781 0.175781 101.003906 C 0.175781 100.703125 0.207031 100.410156 0.265625 100.117188 C 0.324219 99.828125 0.410156 99.542969 0.523438 99.269531 C 0.636719 98.992188 0.777344 98.730469 0.941406 98.484375 C 1.109375 98.238281 1.296875 98.007812 1.507812 97.796875 C 1.71875 97.585938 1.945312 97.398438 2.195312 97.234375 C 2.441406 97.066406 2.703125 96.929688 2.980469 96.8125 C 3.253906 96.699219 3.539062 96.613281 3.828125 96.554688 C 4.121094 96.5 4.417969 96.46875 4.714844 96.46875 L 29.433594 96.46875 C 29.734375 96.46875 30.027344 96.5 30.320312 96.554688 C 30.613281 96.613281 30.894531 96.699219 31.171875 96.8125 C 31.445312 96.929688 31.707031 97.066406 31.957031 97.234375 C 32.203125 97.398438 32.433594 97.585938 32.644531 97.796875 C 32.855469 98.007812 33.042969 98.238281 33.207031 98.484375 C 33.375 98.730469 33.511719 98.992188 33.628906 99.269531 C 33.742188 99.542969 33.828125 99.828125 33.886719 100.117188 C 33.945312 100.410156 33.972656 100.703125 33.972656 101.003906 C 33.972656 101.300781 33.945312 101.59375 33.886719 101.886719 C 33.828125 102.179688 33.742188 102.460938 33.628906 102.738281 C 33.511719 103.011719 33.375 103.273438 33.207031 103.519531 C 33.042969 103.769531 32.855469 103.996094 32.644531 104.207031 C 32.433594 104.417969 32.203125 104.605469 31.957031 104.773438 C 31.707031 104.9375 31.445312 105.078125 31.171875 105.191406 C 30.894531 105.304688 30.613281 105.390625 30.320312 105.449219 C 30.027344 105.507812 29.734375 105.535156 29.433594 105.535156 Z M 29.433594 105.535156 " fill-opacity="1" fill-rule="nonzero"/></g><g clip-path="url(#id5)"><path fill="#3c6a98" d="M 29.433594 57.226562 L 4.714844 57.226562 C 4.417969 57.226562 4.121094 57.199219 3.828125 57.140625 C 3.539062 57.082031 3.253906 56.996094 2.980469 56.882812 C 2.703125 56.769531 2.441406 56.628906 2.195312 56.464844 C 1.945312 56.296875 1.71875 56.109375 1.507812 55.898438 C 1.296875 55.691406 1.109375 55.460938 0.941406 55.214844 C 0.777344 54.964844 0.636719 54.703125 0.523438 54.429688 C 0.410156 54.152344 0.324219 53.871094 0.265625 53.578125 C 0.207031 53.285156 0.175781 52.992188 0.175781 52.695312 C 0.175781 52.398438 0.207031 52.101562 0.265625 51.808594 C 0.324219 51.519531 0.410156 51.234375 0.523438 50.960938 C 0.636719 50.683594 0.777344 50.421875 0.941406 50.175781 C 1.109375 49.929688 1.296875 49.699219 1.507812 49.488281 C 1.71875 49.277344 1.945312 49.089844 2.195312 48.925781 C 2.441406 48.757812 2.703125 48.621094 2.980469 48.507812 C 3.253906 48.390625 3.539062 48.304688 3.828125 48.246094 C 4.121094 48.191406 4.417969 48.160156 4.714844 48.160156 L 29.433594 48.160156 C 29.734375 48.160156 30.027344 48.191406 30.320312 48.246094 C 30.613281 48.304688 30.894531 48.390625 31.171875 48.507812 C 31.445312 48.621094 31.707031 48.757812 31.957031 48.925781 C 32.203125 49.089844 32.433594 49.277344 32.644531 49.488281 C 32.855469 49.699219 33.042969 49.929688 33.207031 50.175781 C 33.375 50.421875 33.511719 50.683594 33.628906 50.960938 C 33.742188 51.234375 33.828125 51.519531 33.886719 51.808594 C 33.945312 52.101562 33.972656 52.398438 33.972656 52.695312 C 33.972656 52.992188 33.945312 53.285156 33.886719 53.578125 C 33.828125 53.871094 33.742188 54.152344 33.628906 54.429688 C 33.511719 54.703125 33.375 54.964844 33.207031 55.214844 C 33.042969 55.460938 32.855469 55.691406 32.644531 55.898438 C 32.433594 56.109375 32.203125 56.296875 31.957031 56.464844 C 31.707031 56.628906 31.445312 56.769531 31.171875 56.882812 C 30.894531 56.996094 30.613281 57.082031 30.320312 57.140625 C 30.027344 57.199219 29.734375 57.226562 29.433594 57.226562 Z M 29.433594 57.226562 " fill-opacity="1" fill-rule="nonzero"/></g><g clip-path="url(#id6)"><path fill="#3c6a98" d="M 305.675781 277.300781 L 4.714844 277.300781 C 4.417969 277.300781 4.121094 277.269531 3.828125 277.210938 C 3.539062 277.152344 3.253906 277.066406 2.980469 276.953125 C 2.703125 276.839844 2.441406 276.699219 2.195312 276.535156 C 1.945312 276.371094 1.71875 276.183594 1.507812 275.972656 C 1.296875 275.761719 1.109375 275.53125 0.941406 275.285156 C 0.777344 275.035156 0.636719 274.777344 0.523438 274.5 C 0.410156 274.226562 0.324219 273.941406 0.265625 273.648438 C 0.207031 273.359375 0.175781 273.0625 0.175781 272.765625 L 0.175781 4.386719 C 0.175781 4.089844 0.207031 3.792969 0.265625 3.5 C 0.324219 3.210938 0.410156 2.925781 0.523438 2.652344 C 0.636719 2.375 0.777344 2.113281 0.941406 1.867188 C 1.109375 1.621094 1.296875 1.390625 1.507812 1.179688 C 1.71875 0.96875 1.945312 0.78125 2.195312 0.617188 C 2.441406 0.449219 2.703125 0.3125 2.980469 0.199219 C 3.253906 0.0820312 3.539062 -0.00390625 3.828125 -0.0585938 C 4.121094 -0.117188 4.417969 -0.148438 4.714844 -0.148438 C 5.011719 -0.148438 5.308594 -0.117188 5.601562 -0.0585938 C 5.890625 -0.00390625 6.175781 0.0820312 6.453125 0.199219 C 6.726562 0.3125 6.988281 0.449219 7.234375 0.617188 C 7.484375 0.78125 7.710938 0.96875 7.921875 1.179688 C 8.132812 1.390625 8.320312 1.621094 8.488281 1.867188 C 8.652344 2.113281 8.792969 2.375 8.90625 2.652344 C 9.019531 2.925781 9.105469 3.210938 9.164062 3.5 C 9.222656 3.792969 9.253906 4.089844 9.253906 4.386719 L 9.253906 268.234375 L 305.675781 268.234375 C 305.972656 268.234375 306.269531 268.261719 306.5625 268.320312 C 306.851562 268.378906 307.136719 268.464844 307.414062 268.578125 C 307.6875 268.691406 307.949219 268.832031 308.195312 268.996094 C 308.445312 269.160156 308.675781 269.351562 308.882812 269.558594 C 309.09375 269.769531 309.285156 270 309.449219 270.246094 C 309.613281 270.496094 309.753906 270.757812 309.867188 271.03125 C 309.980469 271.304688 310.066406 271.589844 310.125 271.882812 C 310.183594 272.171875 310.214844 272.46875 310.214844 272.765625 C 310.214844 273.0625 310.183594 273.359375 310.125 273.648438 C 310.066406 273.941406 309.980469 274.226562 309.867188 274.5 C 309.753906 274.777344 309.613281 275.035156 309.449219 275.285156 C 309.285156 275.53125 309.09375 275.761719 308.882812 275.972656 C 308.675781 276.183594 308.445312 276.371094 308.195312 276.535156 C 307.949219 276.699219 307.6875 276.839844 307.414062 276.953125 C 307.136719 277.066406 306.851562 277.152344 306.5625 277.210938 C 306.269531 277.269531 305.972656 277.300781 305.675781 277.300781 Z M 305.675781 277.300781 " fill-opacity="1" fill-rule="nonzero"/></g><path fill="#3c6a98" d="M 298.742188 83.8125 C 298.445312 83.8125 298.148438 83.78125 297.859375 83.726562 C 297.566406 83.667969 297.28125 83.582031 297.007812 83.46875 C 296.730469 83.351562 296.46875 83.214844 296.222656 83.046875 C 295.972656 82.882812 295.746094 82.695312 295.535156 82.484375 C 295.324219 82.273438 295.136719 82.042969 294.96875 81.796875 C 294.804688 81.550781 294.664062 81.289062 294.550781 81.011719 C 294.4375 80.738281 294.351562 80.453125 294.292969 80.164062 C 294.234375 79.871094 294.207031 79.574219 294.207031 79.277344 L 294.207031 34.851562 L 249.738281 34.851562 C 249.441406 34.851562 249.144531 34.820312 248.851562 34.761719 C 248.5625 34.707031 248.277344 34.621094 248 34.503906 C 247.726562 34.390625 247.464844 34.253906 247.21875 34.085938 C 246.96875 33.921875 246.742188 33.734375 246.53125 33.523438 C 246.320312 33.3125 246.132812 33.082031 245.964844 32.835938 C 245.800781 32.589844 245.660156 32.328125 245.546875 32.050781 C 245.433594 31.777344 245.347656 31.492188 245.289062 31.203125 C 245.230469 30.910156 245.199219 30.613281 245.199219 30.316406 C 245.199219 30.019531 245.230469 29.726562 245.289062 29.433594 C 245.347656 29.140625 245.433594 28.855469 245.546875 28.582031 C 245.660156 28.308594 245.800781 28.046875 245.964844 27.796875 C 246.132812 27.550781 246.320312 27.320312 246.53125 27.113281 C 246.742188 26.902344 246.96875 26.714844 247.21875 26.546875 C 247.464844 26.382812 247.726562 26.242188 248 26.128906 C 248.277344 26.015625 248.5625 25.929688 248.851562 25.871094 C 249.144531 25.8125 249.441406 25.785156 249.738281 25.785156 L 298.742188 25.785156 C 299.039062 25.785156 299.335938 25.8125 299.628906 25.871094 C 299.921875 25.929688 300.203125 26.015625 300.480469 26.128906 C 300.753906 26.242188 301.015625 26.382812 301.265625 26.546875 C 301.511719 26.714844 301.742188 26.902344 301.953125 27.113281 C 302.160156 27.320312 302.351562 27.550781 302.515625 27.796875 C 302.679688 28.046875 302.820312 28.308594 302.933594 28.582031 C 303.050781 28.855469 303.136719 29.140625 303.191406 29.433594 C 303.25 29.726562 303.28125 30.019531 303.28125 30.316406 L 303.28125 79.277344 C 303.28125 79.574219 303.25 79.871094 303.191406 80.164062 C 303.136719 80.453125 303.050781 80.738281 302.933594 81.011719 C 302.820312 81.289062 302.679688 81.550781 302.515625 81.796875 C 302.351562 82.042969 302.160156 82.273438 301.953125 82.484375 C 301.742188 82.695312 301.511719 82.882812 301.265625 83.046875 C 301.015625 83.214844 300.753906 83.351562 300.480469 83.46875 C 300.203125 83.582031 299.921875 83.667969 299.628906 83.726562 C 299.335938 83.78125 299.039062 83.8125 298.742188 83.8125 Z M 298.742188 83.8125 " fill-opacity="1" fill-rule="nonzero"/><path fill="#3c6a98" d="M 88.675781 162.984375 C 88.089844 162.976562 87.519531 162.867188 86.96875 162.65625 C 86.695312 162.546875 86.429688 162.414062 86.183594 162.25 C 85.933594 162.089844 85.703125 161.90625 85.488281 161.695312 C 85.277344 161.488281 85.085938 161.261719 84.917969 161.019531 C 84.75 160.773438 84.609375 160.515625 84.492188 160.242188 C 84.375 159.96875 84.289062 159.6875 84.226562 159.394531 C 84.167969 159.105469 84.136719 158.8125 84.132812 158.515625 C 84.128906 158.21875 84.15625 157.921875 84.214844 157.632812 C 84.269531 157.339844 84.351562 157.058594 84.464844 156.78125 L 108.167969 97.773438 C 108.28125 97.5 108.417969 97.234375 108.582031 96.988281 C 108.746094 96.738281 108.933594 96.507812 109.144531 96.292969 C 109.351562 96.082031 109.578125 95.890625 109.828125 95.726562 C 110.074219 95.558594 110.335938 95.414062 110.609375 95.300781 C 110.882812 95.183594 111.167969 95.09375 111.460938 95.035156 C 111.75 94.972656 112.046875 94.941406 112.34375 94.941406 C 112.644531 94.9375 112.9375 94.964844 113.230469 95.019531 C 113.523438 95.078125 113.808594 95.160156 114.085938 95.273438 C 114.363281 95.382812 114.625 95.523438 114.875 95.6875 C 115.125 95.847656 115.355469 96.035156 115.566406 96.246094 C 115.78125 96.453125 115.96875 96.683594 116.136719 96.929688 C 116.304688 97.175781 116.449219 97.433594 116.5625 97.710938 C 116.679688 97.984375 116.769531 98.269531 116.828125 98.558594 C 116.890625 98.851562 116.921875 99.144531 116.921875 99.445312 C 116.925781 99.742188 116.898438 100.039062 116.84375 100.332031 C 116.785156 100.625 116.703125 100.90625 116.589844 101.183594 L 92.886719 160.15625 C 92.71875 160.574219 92.492188 160.960938 92.207031 161.3125 C 91.925781 161.664062 91.59375 161.964844 91.21875 162.21875 C 90.84375 162.472656 90.4375 162.664062 90.003906 162.792969 C 89.570312 162.921875 89.128906 162.988281 88.675781 162.984375 Z M 88.675781 162.984375 " fill-opacity="1" fill-rule="nonzero"/><path fill="#3c6a98" d="M 189.007812 111.449219 C 188.230469 111.449219 187.503906 111.253906 186.832031 110.867188 L 145.59375 88.019531 C 145.3125 87.886719 145.042969 87.730469 144.792969 87.542969 C 144.542969 87.359375 144.316406 87.148438 144.109375 86.914062 C 143.902344 86.683594 143.71875 86.429688 143.5625 86.160156 C 143.410156 85.890625 143.28125 85.605469 143.1875 85.3125 C 143.089844 85.015625 143.023438 84.710938 142.988281 84.402344 C 142.957031 84.09375 142.953125 83.78125 142.984375 83.472656 C 143.011719 83.160156 143.074219 82.859375 143.167969 82.558594 C 143.257812 82.261719 143.382812 81.976562 143.53125 81.703125 C 143.683594 81.433594 143.863281 81.179688 144.066406 80.941406 C 144.269531 80.707031 144.496094 80.492188 144.742188 80.304688 C 144.992188 80.113281 145.253906 79.953125 145.535156 79.816406 C 145.816406 79.683594 146.109375 79.578125 146.414062 79.503906 C 146.714844 79.429688 147.023438 79.386719 147.335938 79.375 C 147.644531 79.363281 147.957031 79.382812 148.261719 79.4375 C 148.570312 79.488281 148.871094 79.570312 149.160156 79.683594 C 149.449219 79.800781 149.726562 79.941406 149.988281 80.113281 L 191.367188 102.742188 C 191.863281 102.96875 192.300781 103.269531 192.6875 103.652344 C 193.070312 104.03125 193.378906 104.46875 193.609375 104.957031 C 193.839844 105.449219 193.980469 105.964844 194.027344 106.503906 C 194.074219 107.042969 194.027344 107.574219 193.886719 108.097656 C 193.742188 108.617188 193.515625 109.101562 193.203125 109.542969 C 192.890625 109.984375 192.507812 110.359375 192.0625 110.667969 C 191.617188 110.972656 191.128906 111.195312 190.605469 111.328125 C 190.082031 111.460938 189.546875 111.503906 189.007812 111.449219 Z M 189.007812 111.449219 " fill-opacity="1" fill-rule="nonzero"/><path fill="#3c6a98" d="M 235.652344 105.535156 C 235.214844 105.542969 234.785156 105.488281 234.363281 105.367188 C 233.941406 105.25 233.546875 105.074219 233.175781 104.839844 C 232.804688 104.605469 232.476562 104.320312 232.191406 103.992188 C 231.902344 103.660156 231.667969 103.296875 231.488281 102.898438 C 231.304688 102.5 231.183594 102.085938 231.125 101.652344 C 231.066406 101.21875 231.070312 100.785156 231.136719 100.351562 C 231.203125 99.917969 231.332031 99.503906 231.519531 99.109375 C 231.707031 98.714844 231.949219 98.355469 232.242188 98.027344 L 292.5 29.59375 C 292.695312 29.367188 292.910156 29.167969 293.144531 28.984375 C 293.382812 28.804688 293.632812 28.648438 293.898438 28.515625 C 294.164062 28.382812 294.441406 28.28125 294.730469 28.203125 C 295.015625 28.125 295.308594 28.078125 295.605469 28.054688 C 295.898438 28.035156 296.195312 28.042969 296.492188 28.082031 C 296.785156 28.121094 297.074219 28.1875 297.355469 28.28125 C 297.636719 28.375 297.90625 28.496094 298.164062 28.644531 C 298.421875 28.789062 298.664062 28.960938 298.886719 29.15625 C 299.113281 29.355469 299.316406 29.570312 299.496094 29.808594 C 299.679688 30.042969 299.835938 30.296875 299.96875 30.566406 C 300.097656 30.832031 300.203125 31.109375 300.28125 31.398438 C 300.359375 31.6875 300.40625 31.980469 300.429688 32.277344 C 300.449219 32.574219 300.441406 32.871094 300.402344 33.167969 C 300.363281 33.464844 300.296875 33.753906 300.203125 34.035156 C 300.109375 34.320312 299.988281 34.589844 299.839844 34.847656 C 299.691406 35.109375 299.519531 35.351562 299.324219 35.574219 L 239.066406 104.195312 C 238.617188 104.644531 238.09375 104.988281 237.5 105.222656 C 236.90625 105.457031 236.292969 105.558594 235.652344 105.535156 Z M 235.652344 105.535156 " fill-opacity="1" fill-rule="nonzero"/><path fill="#fdd04c" d="M 214.492188 153.628906 C 213.40625 153.628906 212.324219 153.578125 211.242188 153.472656 C 210.160156 153.367188 209.089844 153.207031 208.023438 152.996094 C 206.957031 152.785156 205.90625 152.523438 204.867188 152.210938 C 203.828125 151.898438 202.804688 151.535156 201.804688 151.121094 C 200.800781 150.707031 199.820312 150.242188 198.859375 149.734375 C 197.902344 149.222656 196.972656 148.664062 196.070312 148.0625 C 195.164062 147.460938 194.292969 146.816406 193.453125 146.128906 C 192.613281 145.441406 191.808594 144.714844 191.042969 143.949219 C 190.273438 143.183594 189.542969 142.382812 188.855469 141.542969 C 188.164062 140.707031 187.519531 139.835938 186.914062 138.933594 C 186.3125 138.035156 185.753906 137.105469 185.238281 136.148438 C 184.726562 135.191406 184.261719 134.214844 183.847656 133.210938 C 183.429688 132.210938 183.0625 131.191406 182.746094 130.152344 C 182.433594 129.113281 182.167969 128.0625 181.953125 127 C 181.742188 125.9375 181.582031 124.863281 181.476562 123.785156 C 181.367188 122.707031 181.3125 121.625 181.3125 120.539062 C 181.3125 119.453125 181.363281 118.371094 181.46875 117.292969 C 181.574219 116.210938 181.734375 115.140625 181.945312 114.078125 C 182.15625 113.011719 182.417969 111.960938 182.734375 110.921875 C 183.046875 109.886719 183.414062 108.863281 183.828125 107.863281 C 184.242188 106.859375 184.707031 105.878906 185.21875 104.921875 C 185.726562 103.964844 186.285156 103.039062 186.886719 102.136719 C 187.492188 101.234375 188.136719 100.363281 188.824219 99.523438 C 189.511719 98.683594 190.238281 97.882812 191.007812 97.113281 C 191.773438 96.347656 192.578125 95.617188 193.417969 94.929688 C 194.253906 94.242188 195.125 93.59375 196.027344 92.992188 C 196.929688 92.390625 197.859375 91.832031 198.816406 91.320312 C 199.773438 90.808594 200.753906 90.34375 201.757812 89.929688 C 202.761719 89.511719 203.78125 89.148438 204.820312 88.832031 C 205.859375 88.515625 206.910156 88.253906 207.976562 88.042969 C 209.039062 87.828125 210.113281 87.667969 211.195312 87.5625 C 212.273438 87.457031 213.355469 87.402344 214.441406 87.402344 C 215.527344 87.402344 216.613281 87.453125 217.691406 87.5625 C 218.773438 87.667969 219.84375 87.824219 220.910156 88.035156 C 221.976562 88.246094 223.027344 88.511719 224.066406 88.824219 C 225.105469 89.140625 226.125 89.503906 227.128906 89.917969 C 228.132812 90.335938 229.113281 90.796875 230.070312 91.308594 C 231.027344 91.820312 231.957031 92.375 232.859375 92.980469 C 233.765625 93.582031 234.636719 94.226562 235.472656 94.914062 C 236.3125 95.601562 237.117188 96.328125 237.886719 97.097656 C 238.652344 97.863281 239.382812 98.667969 240.070312 99.503906 C 240.757812 100.34375 241.40625 101.214844 242.007812 102.113281 C 242.613281 103.015625 243.167969 103.945312 243.679688 104.902344 C 244.191406 105.859375 244.65625 106.839844 245.074219 107.839844 C 245.488281 108.84375 245.855469 109.863281 246.167969 110.902344 C 246.484375 111.9375 246.746094 112.988281 246.960938 114.054688 C 247.171875 115.117188 247.332031 116.1875 247.4375 117.269531 C 247.542969 118.347656 247.597656 119.429688 247.597656 120.515625 C 247.59375 121.597656 247.542969 122.679688 247.433594 123.757812 C 247.328125 124.835938 247.167969 125.90625 246.953125 126.96875 C 246.742188 128.03125 246.480469 129.078125 246.164062 130.117188 C 245.847656 131.152344 245.484375 132.171875 245.066406 133.171875 C 244.652344 134.171875 244.1875 135.152344 243.679688 136.105469 C 243.167969 137.0625 242.609375 137.988281 242.007812 138.890625 C 241.40625 139.792969 240.761719 140.660156 240.074219 141.5 C 239.386719 142.335938 238.65625 143.140625 237.890625 143.90625 C 237.125 144.671875 236.324219 145.398438 235.484375 146.085938 C 234.648438 146.773438 233.777344 147.421875 232.878906 148.023438 C 231.976562 148.625 231.046875 149.183594 230.09375 149.695312 C 229.136719 150.207031 228.160156 150.671875 227.15625 151.085938 C 226.15625 151.503906 225.136719 151.867188 224.097656 152.183594 C 223.0625 152.5 222.011719 152.765625 220.949219 152.980469 C 219.886719 153.191406 218.816406 153.351562 217.734375 153.460938 C 216.65625 153.570312 215.574219 153.625 214.492188 153.628906 Z M 214.492188 153.628906 " fill-opacity="1" fill-rule="nonzero"/><path fill="#4c91d4" d="M 121.601562 105.535156 C 120.515625 105.539062 119.429688 105.484375 118.351562 105.378906 C 117.269531 105.273438 116.195312 105.117188 115.128906 104.90625 C 114.066406 104.695312 113.011719 104.433594 111.972656 104.121094 C 110.933594 103.804688 109.914062 103.441406 108.910156 103.027344 C 107.90625 102.613281 106.925781 102.152344 105.964844 101.640625 C 105.007812 101.128906 104.078125 100.574219 103.175781 99.972656 C 102.269531 99.367188 101.398438 98.722656 100.558594 98.035156 C 99.71875 97.347656 98.914062 96.621094 98.144531 95.855469 C 97.378906 95.089844 96.648438 94.285156 95.960938 93.449219 C 95.269531 92.609375 94.625 91.738281 94.019531 90.835938 C 93.414062 89.9375 92.855469 89.007812 92.34375 88.050781 C 91.832031 87.09375 91.367188 86.113281 90.953125 85.113281 C 90.535156 84.109375 90.167969 83.089844 89.855469 82.050781 C 89.539062 81.015625 89.273438 79.960938 89.0625 78.898438 C 88.847656 77.835938 88.691406 76.761719 88.582031 75.683594 C 88.476562 74.601562 88.421875 73.519531 88.421875 72.4375 C 88.421875 71.351562 88.476562 70.269531 88.582031 69.1875 C 88.6875 68.109375 88.84375 67.035156 89.058594 65.972656 C 89.269531 64.910156 89.53125 63.859375 89.847656 62.820312 C 90.160156 61.78125 90.527344 60.761719 90.941406 59.757812 C 91.359375 58.753906 91.820312 57.777344 92.332031 56.820312 C 92.84375 55.863281 93.402344 54.933594 94.007812 54.03125 C 94.609375 53.128906 95.253906 52.257812 95.945312 51.417969 C 96.632812 50.582031 97.359375 49.777344 98.128906 49.011719 C 98.898438 48.242188 99.699219 47.515625 100.539062 46.828125 C 101.378906 46.136719 102.25 45.492188 103.152344 44.890625 C 104.058594 44.289062 104.988281 43.730469 105.945312 43.21875 C 106.902344 42.707031 107.882812 42.246094 108.886719 41.828125 C 109.890625 41.414062 110.910156 41.050781 111.949219 40.734375 C 112.988281 40.421875 114.042969 40.15625 115.105469 39.945312 C 116.171875 39.734375 117.246094 39.574219 118.324219 39.46875 C 119.40625 39.363281 120.488281 39.3125 121.574219 39.3125 C 122.660156 39.3125 123.746094 39.367188 124.824219 39.472656 C 125.90625 39.578125 126.980469 39.738281 128.042969 39.949219 C 129.109375 40.164062 130.160156 40.425781 131.199219 40.742188 C 132.238281 41.058594 133.261719 41.421875 134.261719 41.839844 C 135.265625 42.253906 136.246094 42.71875 137.203125 43.230469 C 138.160156 43.742188 139.089844 44.300781 139.992188 44.902344 C 140.894531 45.507812 141.765625 46.152344 142.605469 46.84375 C 143.445312 47.53125 144.25 48.257812 145.015625 49.027344 C 145.78125 49.792969 146.511719 50.597656 147.199219 51.4375 C 147.886719 52.277344 148.53125 53.148438 149.136719 54.050781 C 149.738281 54.953125 150.292969 55.882812 150.804688 56.839844 C 151.316406 57.796875 151.78125 58.777344 152.195312 59.78125 C 152.609375 60.78125 152.972656 61.804688 153.289062 62.84375 C 153.601562 63.878906 153.863281 64.933594 154.074219 65.996094 C 154.285156 67.0625 154.445312 68.132812 154.550781 69.214844 C 154.65625 70.292969 154.707031 71.375 154.707031 72.460938 C 154.703125 73.542969 154.648438 74.621094 154.539062 75.699219 C 154.429688 76.777344 154.269531 77.847656 154.058594 78.90625 C 153.84375 79.96875 153.578125 81.019531 153.265625 82.054688 C 152.949219 83.089844 152.582031 84.105469 152.167969 85.105469 C 151.75 86.105469 151.285156 87.082031 150.773438 88.039062 C 150.261719 88.992188 149.707031 89.917969 149.105469 90.820312 C 148.5 91.71875 147.855469 92.585938 147.167969 93.425781 C 146.480469 94.261719 145.753906 95.0625 144.988281 95.828125 C 144.222656 96.59375 143.421875 97.320312 142.582031 98.007812 C 141.746094 98.691406 140.875 99.335938 139.976562 99.941406 C 139.074219 100.542969 138.148438 101.097656 137.191406 101.609375 C 136.238281 102.121094 135.257812 102.582031 134.257812 103 C 133.257812 103.414062 132.238281 103.78125 131.203125 104.097656 C 130.164062 104.410156 129.117188 104.675781 128.054688 104.886719 C 126.992188 105.101562 125.921875 105.261719 124.84375 105.371094 C 123.765625 105.480469 122.683594 105.535156 121.601562 105.535156 Z M 121.601562 105.535156 " fill-opacity="1" fill-rule="nonzero"/><path fill="#ff6d55" d="M 80.980469 219.054688 C 79.894531 219.054688 78.8125 219 77.730469 218.894531 C 76.652344 218.789062 75.578125 218.628906 74.515625 218.417969 C 73.449219 218.207031 72.398438 217.941406 71.359375 217.628906 C 70.320312 217.3125 69.300781 216.949219 68.296875 216.53125 C 67.296875 216.117188 66.316406 215.65625 65.359375 215.144531 C 64.402344 214.632812 63.472656 214.074219 62.566406 213.472656 C 61.664062 212.871094 60.796875 212.226562 59.957031 211.539062 C 59.117188 210.847656 58.3125 210.121094 57.546875 209.355469 C 56.777344 208.589844 56.050781 207.785156 55.363281 206.949219 C 54.671875 206.109375 54.027344 205.238281 53.425781 204.335938 C 52.820312 203.4375 52.265625 202.507812 51.753906 201.550781 C 51.242188 200.59375 50.777344 199.613281 50.363281 198.613281 C 49.945312 197.609375 49.582031 196.589844 49.265625 195.554688 C 48.949219 194.515625 48.6875 193.464844 48.476562 192.402344 C 48.265625 191.335938 48.105469 190.265625 48 189.1875 C 47.890625 188.109375 47.839844 187.027344 47.839844 185.941406 C 47.839844 184.855469 47.890625 183.773438 48 182.695312 C 48.105469 181.617188 48.265625 180.546875 48.476562 179.480469 C 48.6875 178.417969 48.949219 177.367188 49.265625 176.328125 C 49.582031 175.292969 49.945312 174.273438 50.363281 173.269531 C 50.777344 172.269531 51.242188 171.289062 51.753906 170.332031 C 52.265625 169.375 52.820312 168.445312 53.425781 167.546875 C 54.027344 166.644531 54.671875 165.773438 55.363281 164.933594 C 56.050781 164.097656 56.777344 163.292969 57.546875 162.527344 C 58.3125 161.761719 59.117188 161.035156 59.957031 160.34375 C 60.796875 159.65625 61.664062 159.011719 62.566406 158.410156 C 63.472656 157.808594 64.402344 157.25 65.359375 156.738281 C 66.316406 156.226562 67.296875 155.765625 68.296875 155.351562 C 69.300781 154.933594 70.320312 154.570312 71.359375 154.253906 C 72.398438 153.941406 73.449219 153.675781 74.515625 153.464844 C 75.578125 153.253906 76.652344 153.09375 77.730469 152.988281 C 78.8125 152.882812 79.894531 152.828125 80.980469 152.828125 C 82.066406 152.828125 83.148438 152.882812 84.230469 152.988281 C 85.308594 153.09375 86.382812 153.253906 87.445312 153.464844 C 88.511719 153.675781 89.5625 153.941406 90.601562 154.253906 C 91.640625 154.570312 92.660156 154.933594 93.664062 155.351562 C 94.667969 155.765625 95.644531 156.226562 96.605469 156.738281 C 97.5625 157.25 98.492188 157.808594 99.394531 158.410156 C 100.296875 159.011719 101.167969 159.65625 102.003906 160.34375 C 102.84375 161.035156 103.648438 161.761719 104.414062 162.527344 C 105.183594 163.292969 105.910156 164.097656 106.597656 164.933594 C 107.289062 165.773438 107.933594 166.644531 108.535156 167.546875 C 109.140625 168.445312 109.699219 169.375 110.210938 170.332031 C 110.722656 171.289062 111.183594 172.269531 111.601562 173.269531 C 112.015625 174.273438 112.378906 175.292969 112.695312 176.328125 C 113.011719 177.367188 113.273438 178.417969 113.484375 179.480469 C 113.699219 180.546875 113.855469 181.617188 113.960938 182.695312 C 114.070312 183.773438 114.121094 184.855469 114.121094 185.941406 C 114.121094 187.027344 114.066406 188.105469 113.960938 189.1875 C 113.851562 190.265625 113.691406 191.335938 113.480469 192.398438 C 113.265625 193.460938 113.003906 194.511719 112.6875 195.550781 C 112.371094 196.585938 112.003906 197.605469 111.589844 198.605469 C 111.175781 199.609375 110.710938 200.585938 110.199219 201.542969 C 109.6875 202.5 109.128906 203.429688 108.527344 204.328125 C 107.921875 205.230469 107.277344 206.101562 106.589844 206.9375 C 105.898438 207.777344 105.171875 208.578125 104.40625 209.34375 C 103.636719 210.109375 102.835938 210.839844 101.996094 211.527344 C 101.15625 212.214844 100.285156 212.859375 99.382812 213.460938 C 98.484375 214.066406 97.554688 214.621094 96.597656 215.132812 C 95.640625 215.644531 94.660156 216.109375 93.65625 216.523438 C 92.65625 216.9375 91.636719 217.304688 90.597656 217.621094 C 89.558594 217.933594 88.507812 218.199219 87.445312 218.410156 C 86.378906 218.625 85.308594 218.785156 84.226562 218.890625 C 83.148438 219 82.066406 219.050781 80.980469 219.054688 Z M 80.980469 219.054688 " fill-opacity="1" fill-rule="nonzero"/><path fill="#fdd04c" d="M 212.3125 255.066406 C 212.015625 255.066406 211.71875 255.039062 211.429688 254.980469 C 211.136719 254.921875 210.851562 254.835938 210.578125 254.722656 C 210.300781 254.609375 210.039062 254.46875 209.792969 254.304688 C 209.542969 254.136719 209.316406 253.949219 209.105469 253.738281 C 208.894531 253.527344 208.707031 253.300781 208.539062 253.050781 C 208.375 252.804688 208.234375 252.542969 208.121094 252.269531 C 208.007812 251.992188 207.921875 251.710938 207.863281 251.417969 C 207.804688 251.125 207.777344 250.832031 207.777344 250.535156 L 207.777344 179.523438 C 207.777344 179.222656 207.804688 178.929688 207.863281 178.636719 C 207.921875 178.34375 208.007812 178.0625 208.121094 177.789062 C 208.234375 177.511719 208.375 177.25 208.539062 177.003906 C 208.707031 176.753906 208.894531 176.527344 209.105469 176.316406 C 209.316406 176.105469 209.542969 175.917969 209.792969 175.753906 C 210.039062 175.585938 210.300781 175.449219 210.578125 175.332031 C 210.851562 175.21875 211.136719 175.132812 211.429688 175.074219 C 211.71875 175.019531 212.015625 174.988281 212.3125 174.988281 C 212.609375 174.988281 212.90625 175.019531 213.199219 175.074219 C 213.492188 175.132812 213.773438 175.21875 214.050781 175.332031 C 214.324219 175.449219 214.585938 175.585938 214.835938 175.753906 C 215.082031 175.917969 215.3125 176.105469 215.523438 176.316406 C 215.730469 176.527344 215.921875 176.753906 216.085938 177.003906 C 216.25 177.25 216.390625 177.511719 216.503906 177.789062 C 216.621094 178.0625 216.707031 178.34375 216.761719 178.636719 C 216.820312 178.929688 216.851562 179.222656 216.851562 179.523438 L 216.851562 250.535156 C 216.851562 250.832031 216.820312 251.125 216.761719 251.417969 C 216.707031 251.710938 216.621094 251.992188 216.503906 252.269531 C 216.390625 252.542969 216.25 252.804688 216.085938 253.050781 C 215.921875 253.300781 215.730469 253.527344 215.523438 253.738281 C 215.3125 253.949219 215.082031 254.136719 214.835938 254.304688 C 214.585938 254.46875 214.324219 254.609375 214.050781 254.722656 C 213.773438 254.835938 213.492188 254.921875 213.199219 254.980469 C 212.90625 255.039062 212.609375 255.066406 212.3125 255.066406 Z M 212.3125 255.066406 " fill-opacity="1" fill-rule="nonzero"/><path fill="#4c91d4" d="M 150.386719 255.066406 C 150.085938 255.066406 149.792969 255.039062 149.5 254.980469 C 149.207031 254.921875 148.925781 254.835938 148.648438 254.722656 C 148.375 254.609375 148.113281 254.46875 147.863281 254.304688 C 147.617188 254.136719 147.386719 253.949219 147.175781 253.738281 C 146.964844 253.527344 146.777344 253.300781 146.613281 253.050781 C 146.449219 252.804688 146.308594 252.542969 146.195312 252.269531 C 146.078125 251.992188 145.992188 251.710938 145.933594 251.417969 C 145.878906 251.125 145.847656 250.832031 145.847656 250.535156 L 145.847656 125.046875 C 145.847656 124.75 145.878906 124.457031 145.933594 124.164062 C 145.992188 123.871094 146.078125 123.589844 146.195312 123.3125 C 146.308594 123.039062 146.449219 122.777344 146.613281 122.53125 C 146.777344 122.28125 146.964844 122.054688 147.175781 121.84375 C 147.386719 121.632812 147.617188 121.445312 147.863281 121.277344 C 148.113281 121.113281 148.375 120.972656 148.648438 120.859375 C 148.925781 120.746094 149.207031 120.660156 149.5 120.601562 C 149.792969 120.542969 150.085938 120.515625 150.386719 120.515625 C 150.683594 120.515625 150.980469 120.542969 151.269531 120.601562 C 151.5625 120.660156 151.847656 120.746094 152.121094 120.859375 C 152.398438 120.972656 152.660156 121.113281 152.90625 121.277344 C 153.15625 121.445312 153.382812 121.632812 153.59375 121.84375 C 153.804688 122.054688 153.992188 122.28125 154.160156 122.53125 C 154.324219 122.777344 154.464844 123.039062 154.578125 123.3125 C 154.691406 123.589844 154.777344 123.871094 154.835938 124.164062 C 154.894531 124.457031 154.921875 124.75 154.921875 125.046875 L 154.921875 250.535156 C 154.921875 250.832031 154.894531 251.125 154.835938 251.417969 C 154.777344 251.710938 154.691406 251.992188 154.578125 252.269531 C 154.464844 252.542969 154.324219 252.804688 154.160156 253.050781 C 153.992188 253.300781 153.804688 253.527344 153.59375 253.738281 C 153.382812 253.949219 153.15625 254.136719 152.90625 254.304688 C 152.660156 254.46875 152.398438 254.609375 152.121094 254.722656 C 151.847656 254.835938 151.5625 254.921875 151.269531 254.980469 C 150.980469 255.039062 150.683594 255.066406 150.386719 255.066406 Z M 150.386719 255.066406 " fill-opacity="1" fill-rule="nonzero"/><path fill="#4c91d4" d="M 274.242188 255.066406 C 273.941406 255.066406 273.648438 255.039062 273.355469 254.980469 C 273.0625 254.921875 272.78125 254.835938 272.503906 254.722656 C 272.230469 254.609375 271.96875 254.46875 271.71875 254.304688 C 271.472656 254.136719 271.242188 253.949219 271.03125 253.738281 C 270.820312 253.527344 270.632812 253.300781 270.46875 253.050781 C 270.300781 252.804688 270.164062 252.542969 270.046875 252.269531 C 269.933594 251.992188 269.847656 251.710938 269.789062 251.417969 C 269.730469 251.125 269.703125 250.832031 269.703125 250.535156 L 269.703125 125.046875 C 269.703125 124.75 269.730469 124.457031 269.789062 124.164062 C 269.847656 123.871094 269.933594 123.589844 270.046875 123.3125 C 270.164062 123.039062 270.300781 122.777344 270.46875 122.53125 C 270.632812 122.28125 270.820312 122.054688 271.03125 121.84375 C 271.242188 121.632812 271.472656 121.445312 271.71875 121.277344 C 271.96875 121.113281 272.230469 120.972656 272.503906 120.859375 C 272.78125 120.746094 273.0625 120.660156 273.355469 120.601562 C 273.648438 120.542969 273.941406 120.515625 274.242188 120.515625 C 274.539062 120.515625 274.832031 120.542969 275.125 120.601562 C 275.417969 120.660156 275.703125 120.746094 275.976562 120.859375 C 276.253906 120.972656 276.515625 121.113281 276.761719 121.277344 C 277.007812 121.445312 277.238281 121.632812 277.449219 121.84375 C 277.660156 122.054688 277.847656 122.28125 278.011719 122.53125 C 278.179688 122.777344 278.320312 123.039062 278.433594 123.3125 C 278.546875 123.589844 278.632812 123.871094 278.691406 124.164062 C 278.75 124.457031 278.777344 124.75 278.777344 125.046875 L 278.777344 250.535156 C 278.777344 250.832031 278.75 251.125 278.691406 251.417969 C 278.632812 251.710938 278.546875 251.992188 278.433594 252.269531 C 278.320312 252.542969 278.179688 252.804688 278.011719 253.050781 C 277.847656 253.300781 277.660156 253.527344 277.449219 253.738281 C 277.238281 253.949219 277.007812 254.136719 276.761719 254.304688 C 276.515625 254.46875 276.253906 254.609375 275.976562 254.722656 C 275.703125 254.835938 275.417969 254.921875 275.125 254.980469 C 274.832031 255.039062 274.539062 255.066406 274.242188 255.066406 Z M 274.242188 255.066406 " fill-opacity="1" fill-rule="nonzero"/><path fill="#ff6d55" d="M 88.457031 255.066406 C 88.160156 255.066406 87.867188 255.039062 87.574219 254.980469 C 87.28125 254.921875 86.996094 254.835938 86.722656 254.722656 C 86.445312 254.609375 86.183594 254.46875 85.9375 254.304688 C 85.691406 254.136719 85.460938 253.949219 85.25 253.738281 C 85.039062 253.527344 84.851562 253.300781 84.6875 253.050781 C 84.519531 252.804688 84.378906 252.542969 84.265625 252.269531 C 84.152344 251.992188 84.066406 251.710938 84.007812 251.417969 C 83.949219 251.125 83.921875 250.832031 83.921875 250.535156 L 83.921875 228.773438 C 83.921875 228.476562 83.949219 228.179688 84.007812 227.890625 C 84.066406 227.597656 84.152344 227.3125 84.265625 227.039062 C 84.378906 226.761719 84.519531 226.503906 84.6875 226.253906 C 84.851562 226.007812 85.039062 225.777344 85.25 225.566406 C 85.460938 225.355469 85.691406 225.167969 85.9375 225.003906 C 86.183594 224.839844 86.445312 224.699219 86.722656 224.585938 C 86.996094 224.472656 87.28125 224.386719 87.574219 224.328125 C 87.867188 224.269531 88.160156 224.238281 88.457031 224.238281 C 88.757812 224.238281 89.050781 224.269531 89.34375 224.328125 C 89.636719 224.386719 89.917969 224.472656 90.195312 224.585938 C 90.46875 224.699219 90.730469 224.839844 90.980469 225.003906 C 91.226562 225.167969 91.457031 225.355469 91.667969 225.566406 C 91.878906 225.777344 92.066406 226.007812 92.230469 226.253906 C 92.398438 226.503906 92.535156 226.761719 92.652344 227.039062 C 92.765625 227.3125 92.851562 227.597656 92.910156 227.890625 C 92.96875 228.179688 92.996094 228.476562 92.996094 228.773438 L 92.996094 250.535156 C 92.996094 250.832031 92.96875 251.125 92.910156 251.417969 C 92.851562 251.710938 92.765625 251.992188 92.652344 252.269531 C 92.535156 252.542969 92.398438 252.804688 92.230469 253.050781 C 92.066406 253.300781 91.878906 253.527344 91.667969 253.738281 C 91.457031 253.949219 91.226562 254.136719 90.980469 254.304688 C 90.730469 254.46875 90.46875 254.609375 90.195312 254.722656 C 89.917969 254.835938 89.636719 254.921875 89.34375 254.980469 C 89.050781 255.039062 88.757812 255.066406 88.457031 255.066406 Z M 88.457031 255.066406 " fill-opacity="1" fill-rule="nonzero"/></svg>