<svg xmlns="http://www.w3.org/2000/svg" xmlns:xlink="http://www.w3.org/1999/xlink" width="1000" zoomAndPan="magnify" viewBox="0 0 750 749.999995" height="1000" preserveAspectRatio="xMidYMid meet" version="1.0"><path fill="#000000" d="M 671.902344 0 L 78.097656 0 C 34.972656 0 0 34.972656 0 78.097656 L 0 671.902344 C 0 715.027344 34.972656 750 78.097656 750 L 671.902344 750 C 715.027344 750 750 715.027344 750 671.902344 L 750 78.097656 C 750 34.972656 715.027344 0 671.902344 0 Z M 577.949219 269.902344 C 573.960938 274.160156 568.433594 276.515625 562.636719 276.515625 L 187.363281 276.515625 C 181.65625 276.515625 176.039062 274.070312 172.144531 269.902344 C 168.15625 265.734375 166.164062 260.027344 166.527344 254.226562 C 173.410156 144.417969 265.007812 58.4375 375.089844 58.4375 C 485.171875 58.4375 576.769531 144.417969 583.65625 254.226562 C 583.925781 260.027344 581.84375 265.734375 577.949219 269.902344 Z M 375 220.886719 L 419.214844 127.386719 C 420.480469 124.757812 423.5625 123.398438 426.371094 124.488281 C 429.179688 125.484375 430.71875 128.472656 429.996094 131.28125 L 404.171875 231.214844 C 397.015625 222.878906 385.871094 218.894531 375 220.886719 Z M 405.441406 262.925781 L 342.019531 262.925781 C 342.382812 245.710938 356.425781 231.847656 373.730469 231.847656 C 391.035156 231.847656 405.078125 245.710938 405.441406 262.925781 Z M 381.433594 67.859375 L 381.433594 89.242188 L 368.65625 89.242188 L 368.65625 67.859375 C 370.832031 67.769531 372.917969 67.589844 375.089844 67.589844 C 377.175781 67.589844 379.257812 67.859375 381.433594 67.859375 Z M 338.488281 71.03125 C 340.390625 70.667969 342.292969 70.488281 344.195312 70.214844 L 346.550781 83.445312 L 340.84375 84.441406 Z M 275.246094 94.589844 C 276.878906 93.589844 278.507812 92.59375 280.230469 91.6875 L 287.296875 103.921875 L 282.316406 106.820312 Z M 223.0625 137.984375 C 224.328125 136.535156 225.597656 135.085938 226.867188 133.636719 L 238.644531 143.511719 L 234.929688 147.953125 Z M 188.179688 196.785156 C 188.90625 194.976562 189.71875 193.253906 190.445312 191.441406 L 206.390625 197.238281 L 204.398438 202.675781 Z M 405.804688 70.214844 C 407.707031 70.488281 409.609375 70.667969 411.511719 71.03125 L 409.15625 84.441406 L 403.449219 83.445312 Z M 469.769531 91.6875 C 471.492188 92.59375 473.121094 93.589844 474.753906 94.589844 L 467.683594 106.820312 L 462.703125 103.921875 Z M 523.132812 133.546875 C 524.402344 134.996094 525.671875 136.445312 526.9375 137.894531 L 515.070312 147.863281 L 511.355469 143.421875 Z M 559.644531 191.441406 C 560.371094 193.253906 561.1875 194.976562 561.910156 196.785156 L 545.601562 202.675781 L 543.609375 197.238281 Z M 314.660156 77.011719 L 322.089844 97.488281 L 310.039062 101.835938 L 302.519531 81.269531 C 306.503906 79.730469 310.582031 78.371094 314.660156 77.011719 Z M 244.714844 116.332031 C 247.976562 113.523438 251.238281 110.804688 254.589844 108.179688 L 269.085938 125.484375 L 259.300781 133.726562 Z M 201.40625 168.789062 C 203.492188 165.074219 205.847656 161.453125 208.203125 157.917969 L 228.949219 169.878906 L 222.515625 180.929688 Z M 178.121094 233.480469 C 178.847656 229.222656 179.753906 225.054688 180.75 220.976562 L 206.300781 225.507812 L 204.125 238.101562 Z M 569.25 220.886719 C 570.246094 225.054688 571.152344 229.222656 571.878906 233.390625 L 545.875 237.917969 L 543.609375 225.328125 Z M 541.886719 157.917969 C 544.242188 161.453125 546.507812 165.074219 548.59375 168.789062 L 527.484375 180.929688 L 521.050781 169.878906 Z M 495.410156 108.179688 C 498.851562 110.714844 502.113281 113.523438 505.285156 116.332031 L 490.699219 133.726562 L 480.914062 125.484375 Z M 435.429688 77.011719 C 439.507812 78.28125 443.585938 79.730469 447.480469 81.269531 L 440.050781 101.835938 L 428 97.488281 Z M 435.429688 77.011719 " fill-opacity="1" fill-rule="nonzero"/></svg>