<svg xmlns="http://www.w3.org/2000/svg" xmlns:xlink="http://www.w3.org/1999/xlink" width="450" zoomAndPan="magnify" viewBox="0 0 337.5 337.500003" height="450" preserveAspectRatio="xMidYMid meet" version="1.0"><defs><g/><clipPath id="id1"><path d="M 0 0 L 337 0 L 337 337 L 0 337 Z M 0 0 " clip-rule="nonzero"/></clipPath><clipPath id="id2"><path d="M 0 0 L 337 0 L 337 337 L 0 337 Z M 0 0 " clip-rule="nonzero"/></clipPath><clipPath id="id3"><path d="M 168.75 0 C 75.550781 0 0 75.550781 0 168.75 C 0 261.949219 75.550781 337.5 168.75 337.5 C 261.949219 337.5 337.5 261.949219 337.5 168.75 C 337.5 75.550781 261.949219 0 168.75 0 " clip-rule="nonzero"/></clipPath></defs><g clip-path="url(#id1)"><path fill="#14c38e" d="M 168.75 0 C 75.550781 0 0 75.550781 0 168.75 C 0 261.949219 75.550781 337.5 168.75 337.5 C 261.949219 337.5 337.5 261.949219 337.5 168.75 C 337.5 75.550781 261.949219 0 168.75 0 " fill-opacity="1" fill-rule="nonzero"/></g><g clip-path="url(#id2)"><g clip-path="url(#id3)"><path stroke-linecap="butt" transform="matrix(0.75, 0, 0, 0.75, 0, 0.0000114852)" fill="none" stroke-linejoin="miter" d="M 225.000012 -0.0000153136 C 100.73438 -0.0000153136 0 100.734365 0 224.999996 C 0 349.265628 100.73438 450.000008 225.000012 450.000008 C 349.265643 450.000008 450.000023 349.265628 450.000023 224.999996 C 450.000023 100.734365 349.265643 -0.0000153136 225.000012 -0.0000153136 " stroke="#b8f1b0" stroke-width="32" stroke-opacity="1" stroke-miterlimit="4"/></g></g><g fill="#d32f23" fill-opacity="0.4196"><g transform="translate(69.681378, 253.360711)"><g><path d="M 53.171875 -36.703125 C 52.734375 -36.410156 52.585938 -36.113281 52.734375 -35.8125 C 52.878906 -35.519531 53.175781 -35.375 53.625 -35.375 L 93.390625 -35.375 C 94.421875 -35.375 95.191406 -35.082031 95.703125 -34.5 C 96.210938 -33.914062 96.394531 -33.109375 96.25 -32.078125 L 92.734375 -3.296875 C 92.585938 -2.273438 92.179688 -1.46875 91.515625 -0.875 C 90.859375 -0.289062 90.019531 0 89 0 L 2.859375 0 C 1.828125 0 1.054688 -0.289062 0.546875 -0.875 C 0.0351562 -1.46875 -0.144531 -2.273438 0 -3.296875 L 3.515625 -32.96875 C 3.804688 -34.570312 4.539062 -35.960938 5.71875 -37.140625 L 21.96875 -53.625 C 35.59375 -67.25 45.265625 -77.578125 50.984375 -84.609375 C 55.378906 -90.171875 58.710938 -95.296875 60.984375 -99.984375 C 63.253906 -104.671875 64.390625 -109.210938 64.390625 -113.609375 C 64.390625 -115.804688 63.984375 -117.453125 63.171875 -118.546875 C 62.367188 -119.648438 61.234375 -120.203125 59.765625 -120.203125 C 58.015625 -120.203125 56.515625 -119.503906 55.265625 -118.109375 C 54.023438 -116.722656 53.253906 -114.859375 52.953125 -112.515625 L 51.859375 -103.28125 C 51.710938 -102.257812 51.347656 -101.453125 50.765625 -100.859375 C 50.179688 -100.273438 49.375 -99.984375 48.34375 -99.984375 L 14.28125 -99.984375 C 13.257812 -99.984375 12.488281 -100.273438 11.96875 -100.859375 C 11.457031 -101.453125 11.273438 -102.257812 11.421875 -103.28125 L 12.75 -114.265625 C 15.09375 -126.722656 21.171875 -136.722656 30.984375 -144.265625 C 40.796875 -151.804688 52.441406 -155.578125 65.921875 -155.578125 C 77.929688 -155.578125 87.453125 -152.132812 94.484375 -145.25 C 101.523438 -138.363281 105.046875 -129.207031 105.046875 -117.78125 C 105.046875 -116.320312 104.894531 -113.976562 104.59375 -110.75 C 103.570312 -102.550781 101.554688 -95.265625 98.546875 -88.890625 C 95.546875 -82.515625 90.972656 -75.738281 84.828125 -68.5625 C 78.523438 -61.238281 69.296875 -51.9375 57.140625 -40.65625 Z M 53.171875 -36.703125 "/></g></g></g><g fill="#d32f23" fill-opacity="0.4196"><g transform="translate(168.345562, 253.360711)"><g><path d="M 53.171875 -36.703125 C 52.734375 -36.410156 52.585938 -36.113281 52.734375 -35.8125 C 52.878906 -35.519531 53.175781 -35.375 53.625 -35.375 L 93.390625 -35.375 C 94.421875 -35.375 95.191406 -35.082031 95.703125 -34.5 C 96.210938 -33.914062 96.394531 -33.109375 96.25 -32.078125 L 92.734375 -3.296875 C 92.585938 -2.273438 92.179688 -1.46875 91.515625 -0.875 C 90.859375 -0.289062 90.019531 0 89 0 L 2.859375 0 C 1.828125 0 1.054688 -0.289062 0.546875 -0.875 C 0.0351562 -1.46875 -0.144531 -2.273438 0 -3.296875 L 3.515625 -32.96875 C 3.804688 -34.570312 4.539062 -35.960938 5.71875 -37.140625 L 21.96875 -53.625 C 35.59375 -67.25 45.265625 -77.578125 50.984375 -84.609375 C 55.378906 -90.171875 58.710938 -95.296875 60.984375 -99.984375 C 63.253906 -104.671875 64.390625 -109.210938 64.390625 -113.609375 C 64.390625 -115.804688 63.984375 -117.453125 63.171875 -118.546875 C 62.367188 -119.648438 61.234375 -120.203125 59.765625 -120.203125 C 58.015625 -120.203125 56.515625 -119.503906 55.265625 -118.109375 C 54.023438 -116.722656 53.253906 -114.859375 52.953125 -112.515625 L 51.859375 -103.28125 C 51.710938 -102.257812 51.347656 -101.453125 50.765625 -100.859375 C 50.179688 -100.273438 49.375 -99.984375 48.34375 -99.984375 L 14.28125 -99.984375 C 13.257812 -99.984375 12.488281 -100.273438 11.96875 -100.859375 C 11.457031 -101.453125 11.273438 -102.257812 11.421875 -103.28125 L 12.75 -114.265625 C 15.09375 -126.722656 21.171875 -136.722656 30.984375 -144.265625 C 40.796875 -151.804688 52.441406 -155.578125 65.921875 -155.578125 C 77.929688 -155.578125 87.453125 -152.132812 94.484375 -145.25 C 101.523438 -138.363281 105.046875 -129.207031 105.046875 -117.78125 C 105.046875 -116.320312 104.894531 -113.976562 104.59375 -110.75 C 103.570312 -102.550781 101.554688 -95.265625 98.546875 -88.890625 C 95.546875 -82.515625 90.972656 -75.738281 84.828125 -68.5625 C 78.523438 -61.238281 69.296875 -51.9375 57.140625 -40.65625 Z M 53.171875 -36.703125 "/></g></g></g><g fill="#e3fcbf" fill-opacity="1"><g transform="translate(63.149224, 247.479133)"><g><path d="M 53.171875 -36.703125 C 52.734375 -36.410156 52.585938 -36.113281 52.734375 -35.8125 C 52.878906 -35.519531 53.175781 -35.375 53.625 -35.375 L 93.390625 -35.375 C 94.421875 -35.375 95.191406 -35.082031 95.703125 -34.5 C 96.210938 -33.914062 96.394531 -33.109375 96.25 -32.078125 L 92.734375 -3.296875 C 92.585938 -2.273438 92.179688 -1.46875 91.515625 -0.875 C 90.859375 -0.289062 90.019531 0 89 0 L 2.859375 0 C 1.828125 0 1.054688 -0.289062 0.546875 -0.875 C 0.0351562 -1.46875 -0.144531 -2.273438 0 -3.296875 L 3.515625 -32.96875 C 3.804688 -34.570312 4.539062 -35.960938 5.71875 -37.140625 L 21.96875 -53.625 C 35.59375 -67.25 45.265625 -77.578125 50.984375 -84.609375 C 55.378906 -90.171875 58.710938 -95.296875 60.984375 -99.984375 C 63.253906 -104.671875 64.390625 -109.210938 64.390625 -113.609375 C 64.390625 -115.804688 63.984375 -117.453125 63.171875 -118.546875 C 62.367188 -119.648438 61.234375 -120.203125 59.765625 -120.203125 C 58.015625 -120.203125 56.515625 -119.503906 55.265625 -118.109375 C 54.023438 -116.722656 53.253906 -114.859375 52.953125 -112.515625 L 51.859375 -103.28125 C 51.710938 -102.257812 51.347656 -101.453125 50.765625 -100.859375 C 50.179688 -100.273438 49.375 -99.984375 48.34375 -99.984375 L 14.28125 -99.984375 C 13.257812 -99.984375 12.488281 -100.273438 11.96875 -100.859375 C 11.457031 -101.453125 11.273438 -102.257812 11.421875 -103.28125 L 12.75 -114.265625 C 15.09375 -126.722656 21.171875 -136.722656 30.984375 -144.265625 C 40.796875 -151.804688 52.441406 -155.578125 65.921875 -155.578125 C 77.929688 -155.578125 87.453125 -152.132812 94.484375 -145.25 C 101.523438 -138.363281 105.046875 -129.207031 105.046875 -117.78125 C 105.046875 -116.320312 104.894531 -113.976562 104.59375 -110.75 C 103.570312 -102.550781 101.554688 -95.265625 98.546875 -88.890625 C 95.546875 -82.515625 90.972656 -75.738281 84.828125 -68.5625 C 78.523438 -61.238281 69.296875 -51.9375 57.140625 -40.65625 Z M 53.171875 -36.703125 "/></g></g></g><g fill="#e3fcbf" fill-opacity="1"><g transform="translate(161.813408, 247.479133)"><g><path d="M 53.171875 -36.703125 C 52.734375 -36.410156 52.585938 -36.113281 52.734375 -35.8125 C 52.878906 -35.519531 53.175781 -35.375 53.625 -35.375 L 93.390625 -35.375 C 94.421875 -35.375 95.191406 -35.082031 95.703125 -34.5 C 96.210938 -33.914062 96.394531 -33.109375 96.25 -32.078125 L 92.734375 -3.296875 C 92.585938 -2.273438 92.179688 -1.46875 91.515625 -0.875 C 90.859375 -0.289062 90.019531 0 89 0 L 2.859375 0 C 1.828125 0 1.054688 -0.289062 0.546875 -0.875 C 0.0351562 -1.46875 -0.144531 -2.273438 0 -3.296875 L 3.515625 -32.96875 C 3.804688 -34.570312 4.539062 -35.960938 5.71875 -37.140625 L 21.96875 -53.625 C 35.59375 -67.25 45.265625 -77.578125 50.984375 -84.609375 C 55.378906 -90.171875 58.710938 -95.296875 60.984375 -99.984375 C 63.253906 -104.671875 64.390625 -109.210938 64.390625 -113.609375 C 64.390625 -115.804688 63.984375 -117.453125 63.171875 -118.546875 C 62.367188 -119.648438 61.234375 -120.203125 59.765625 -120.203125 C 58.015625 -120.203125 56.515625 -119.503906 55.265625 -118.109375 C 54.023438 -116.722656 53.253906 -114.859375 52.953125 -112.515625 L 51.859375 -103.28125 C 51.710938 -102.257812 51.347656 -101.453125 50.765625 -100.859375 C 50.179688 -100.273438 49.375 -99.984375 48.34375 -99.984375 L 14.28125 -99.984375 C 13.257812 -99.984375 12.488281 -100.273438 11.96875 -100.859375 C 11.457031 -101.453125 11.273438 -102.257812 11.421875 -103.28125 L 12.75 -114.265625 C 15.09375 -126.722656 21.171875 -136.722656 30.984375 -144.265625 C 40.796875 -151.804688 52.441406 -155.578125 65.921875 -155.578125 C 77.929688 -155.578125 87.453125 -152.132812 94.484375 -145.25 C 101.523438 -138.363281 105.046875 -129.207031 105.046875 -117.78125 C 105.046875 -116.320312 104.894531 -113.976562 104.59375 -110.75 C 103.570312 -102.550781 101.554688 -95.265625 98.546875 -88.890625 C 95.546875 -82.515625 90.972656 -75.738281 84.828125 -68.5625 C 78.523438 -61.238281 69.296875 -51.9375 57.140625 -40.65625 Z M 53.171875 -36.703125 "/></g></g></g></svg>