<svg xmlns="http://www.w3.org/2000/svg" xmlns:xlink="http://www.w3.org/1999/xlink" width="1024" zoomAndPan="magnify" viewBox="0 0 768 767.999994" height="1024" preserveAspectRatio="xMidYMid meet" version="1.0"><defs><g/><clipPath id="id1"><path d="M 384 0 C 171.921875 0 0 171.921875 0 384 C 0 596.078125 171.921875 768 384 768 C 596.078125 768 768 596.078125 768 384 C 768 171.921875 596.078125 0 384 0 " clip-rule="nonzero"/></clipPath></defs><path fill="#14c38e" d="M 384 0 C 171.921875 0 0 171.921875 0 384 C 0 596.078125 171.921875 768 384 768 C 596.078125 768 768 596.078125 768 384 C 768 171.921875 596.078125 0 384 0 " fill-opacity="1" fill-rule="nonzero"/><g clip-path="url(#id1)"><path stroke-linecap="butt" transform="matrix(0.75, 0, 0, 0.75, 0.000003, 0.00002)" fill="none" stroke-linejoin="miter" d="M 512.000021 -0.0000266667 C 229.229174 -0.0000266667 -0.000004 229.229151 -0.000004 511.999999 C -0.000004 794.770846 229.229174 1024.000024 512.000021 1024.000024 C 794.770869 1024.000024 1024.000047 794.770846 1024.000047 511.999999 C 1024.000047 229.229151 794.770869 -0.0000266667 512.000021 -0.0000266667 " stroke="#000000" stroke-width="8" stroke-opacity="1" stroke-miterlimit="4"/></g><g fill="#e3fcbf" fill-opacity="1"><g transform="translate(55.869141, 575.059884)"><g><path d="M 319.65625 -77.390625 L 275.625 -77.390625 L 275.625 0 L 168.984375 0 L 168.984375 -77.390625 L 9.578125 -77.390625 L 9.578125 -156.6875 L 175.828125 -399.78125 L 275.625 -399.78125 L 275.625 -158.046875 L 319.65625 -158.046875 Z M 168.984375 -158.046875 L 168.984375 -204.53125 C 168.984375 -213.28125 169.300781 -225.082031 169.9375 -239.9375 C 170.582031 -254.800781 171.085938 -262.597656 171.453125 -263.328125 L 168.4375 -263.328125 C 162.238281 -249.285156 155.222656 -236.160156 147.390625 -223.953125 L 103.09375 -158.046875 Z M 168.984375 -158.046875 "/></g></g><g transform="translate(383.99998, 575.059884)"><g><path d="M 308.453125 -199.34375 C 308.453125 -128.613281 296.597656 -76.796875 272.890625 -43.890625 C 249.191406 -10.984375 212.914062 5.46875 164.0625 5.46875 C 116.300781 5.46875 80.296875 -11.710938 56.046875 -46.078125 C 31.804688 -80.441406 19.6875 -131.53125 19.6875 -199.34375 C 19.6875 -270.4375 31.535156 -322.570312 55.234375 -355.75 C 78.929688 -388.925781 115.207031 -405.515625 164.0625 -405.515625 C 211.644531 -405.515625 247.601562 -388.242188 271.9375 -353.703125 C 296.28125 -319.160156 308.453125 -267.707031 308.453125 -199.34375 Z M 127.15625 -199.34375 C 127.15625 -154.132812 129.976562 -123.050781 135.625 -106.09375 C 141.28125 -89.144531 150.757812 -80.671875 164.0625 -80.671875 C 177.550781 -80.671875 187.078125 -89.421875 192.640625 -106.921875 C 198.203125 -124.421875 200.984375 -155.226562 200.984375 -199.34375 C 200.984375 -243.632812 198.15625 -274.664062 192.5 -292.4375 C 186.851562 -310.21875 177.375 -319.109375 164.0625 -319.109375 C 150.757812 -319.109375 141.28125 -310.539062 135.625 -293.40625 C 129.976562 -276.269531 127.15625 -244.914062 127.15625 -199.34375 Z M 127.15625 -199.34375 "/></g></g></g></svg>