<svg xmlns="http://www.w3.org/2000/svg" xmlns:xlink="http://www.w3.org/1999/xlink" width="1024" zoomAndPan="magnify" viewBox="0 0 768 711.000001" height="948" preserveAspectRatio="xMidYMid meet" version="1.0"><defs><clipPath id="id1"><path d="M 1.285156 0.25 L 766.988281 0.25 L 766.988281 710 L 1.285156 710 Z M 1.285156 0.25 " clip-rule="nonzero"/></clipPath></defs><g clip-path="url(#id1)"><path fill="#f5ba53" d="M 1.285156 612.03125 L 10.246094 143.9375 L 322.179688 0.214844 L 764.039062 57.453125 L 766.988281 502.308594 L 504.5625 710.429688 L 1.285156 612.03125 " fill-opacity="1" fill-rule="evenodd"/></g><path fill="#fef7e4" d="M 700.367188 177.390625 L 610.519531 234.113281 L 617.636719 462 L 703.058594 389.640625 Z M 343.710938 341.839844 L 349.167969 580.683594 L 445.132812 598.089844 L 434.40625 351.984375 Z M 430.386719 14.558594 L 523.109375 20.386719 L 298.328125 185.28125 L 290.144531 339.222656 L 205.570312 328.378906 L 216.296875 164.480469 L 430.386719 14.558594 " fill-opacity="1" fill-rule="evenodd"/><path fill="#bd651d" d="M 762.601562 61.363281 L 527.570312 204.679688 C 527.863281 204.976562 528.085938 205.382812 528.046875 205.863281 C 528.046875 205.863281 527.976562 270.550781 527.605469 352.980469 C 527.53125 368.765625 527.421875 385.214844 527.273438 401.992188 C 527.164062 418.148438 527.015625 434.597656 526.832031 451.046875 C 526.464844 484.570312 525.984375 518.09375 525.503906 549.113281 C 524.324219 631.46875 523.21875 696.191406 523.21875 696.191406 C 523.183594 697.113281 522.445312 697.890625 521.488281 697.851562 C 520.566406 697.851562 519.789062 697.078125 519.789062 696.15625 C 519.789062 696.15625 520.011719 631.429688 520.453125 549.039062 C 520.636719 518.019531 520.785156 484.496094 521.117188 450.972656 C 521.265625 434.523438 521.449219 418.074219 521.632812 401.957031 C 521.855469 385.175781 522.078125 368.726562 522.296875 352.90625 C 523.585938 270.515625 524.804688 205.824219 524.804688 205.824219 C 524.804688 205.53125 524.988281 205.308594 525.136719 205.050781 C 518.941406 204.386719 469.28125 198.890625 403.105469 191.441406 C 377.738281 188.5625 349.980469 185.394531 321.332031 182.109375 C 280.816406 177.425781 238.492188 172.484375 198.710938 167.835938 C 98.800781 156.144531 14.816406 146.113281 14.816406 146.113281 C 13.894531 146.039062 13.269531 145.230469 13.378906 144.308594 C 13.488281 143.421875 14.261719 142.796875 15.183594 142.867188 C 15.183594 142.867188 99.28125 151.941406 199.265625 162.933594 C 239.082031 167.285156 281.441406 171.96875 321.960938 176.503906 C 350.640625 179.714844 378.402344 182.847656 403.769531 185.722656 C 469.097656 193.175781 518.390625 198.929688 525.503906 199.777344 L 760.832031 58.449219 C 761.640625 57.96875 762.671875 58.226562 763.191406 59.039062 C 763.667969 59.8125 763.410156 60.882812 762.601562 61.363281 " fill-opacity="1" fill-rule="evenodd"/><path fill="#3b435f" d="M 241.921875 478.667969 C 241.921875 478.667969 216.332031 475.792969 183.742188 472.363281 C 171.464844 471.070312 158.195312 469.707031 144.921875 468.417969 C 138.394531 467.753906 131.871094 467.199219 125.457031 466.609375 C 118.820312 466.054688 112.292969 465.503906 106.027344 464.988281 C 73.324219 462.367188 47.664062 460.523438 47.664062 460.523438 C 46.742188 460.449219 45.96875 461.113281 45.894531 462 C 45.785156 462.921875 46.449219 463.695312 47.371094 463.769531 C 47.371094 463.769531 72.917969 466.757812 105.546875 470.261719 C 111.816406 470.925781 118.304688 471.589844 124.9375 472.253906 C 131.355469 472.878906 137.84375 473.542969 144.367188 474.097656 C 157.640625 475.3125 170.949219 476.417969 183.265625 477.414062 C 215.929688 480.109375 241.625 482.0625 241.625 482.0625 C 242.546875 482.136719 243.394531 481.433594 243.46875 480.511719 C 243.542969 479.589844 242.878906 478.742188 241.921875 478.667969 Z M 244.757812 434.265625 C 244.757812 434.265625 219.171875 431.425781 186.546875 427.996094 C 174.269531 426.703125 160.996094 425.304688 147.722656 424.011719 C 141.234375 423.386719 134.710938 422.796875 128.292969 422.242188 C 121.65625 421.652344 115.132812 421.097656 108.863281 420.582031 C 76.164062 417.964844 50.46875 416.15625 50.46875 416.15625 C 49.582031 416.082031 48.769531 416.710938 48.699219 417.632812 C 48.625 418.515625 49.289062 419.328125 50.171875 419.402344 C 50.171875 419.402344 75.757812 422.390625 108.347656 425.855469 C 114.617188 426.519531 121.140625 427.21875 127.777344 427.882812 C 134.15625 428.511719 140.683594 429.136719 147.207031 429.730469 C 160.480469 430.910156 173.789062 432.015625 186.101562 433.046875 C 218.765625 435.738281 244.425781 437.65625 244.425781 437.65625 C 245.386719 437.769531 246.195312 437.066406 246.308594 436.144531 C 246.382812 435.1875 245.679688 434.339844 244.757812 434.265625 Z M 247.488281 396.386719 C 247.375 397.308594 246.566406 398.011719 245.605469 397.898438 C 245.605469 397.898438 219.945312 395.984375 187.246094 393.289062 C 174.96875 392.257812 161.660156 391.1875 148.386719 389.972656 C 141.863281 389.378906 135.335938 388.753906 128.957031 388.125 C 122.285156 387.464844 115.796875 386.800781 109.527344 386.097656 C 76.9375 382.632812 51.351562 379.644531 51.351562 379.644531 C 50.46875 379.570312 49.804688 378.757812 49.878906 377.875 C 49.949219 376.988281 50.761719 376.324219 51.648438 376.398438 C 51.648438 376.398438 77.34375 378.242188 110.042969 380.863281 C 116.3125 381.339844 122.835938 381.894531 129.472656 382.484375 C 135.890625 383.039062 142.414062 383.628906 148.902344 384.253906 C 162.175781 385.546875 175.449219 386.945312 187.726562 388.238281 C 220.351562 391.667969 245.9375 394.507812 245.9375 394.507812 C 246.859375 394.617188 247.5625 395.429688 247.488281 396.386719 " fill-opacity="1" fill-rule="evenodd"/><path fill="#d13123" d="M 418.515625 387.796875 L 395.289062 447.984375 L 399.824219 542.289062 L 413.90625 563.902344 L 372.652344 557.335938 L 390.605469 540.851562 L 389.316406 448.207031 L 365.425781 382.445312 L 396.136719 385.507812 L 391.417969 392.40625 L 397.28125 397.640625 L 392.300781 410.734375 L 402.996094 400.59375 L 398.238281 391.742188 L 399.195312 385.839844 Z M 362.550781 568.621094 C 362.292969 558.773438 360.523438 496.703125 358.863281 442.304688 C 357.757812 404.761719 356.652344 370.902344 356.320312 360.503906 L 424.488281 369.316406 C 424.820312 378.796875 426.109375 414.753906 427.585938 454.769531 C 429.648438 508.949219 432.046875 570.503906 432.5625 583.964844 Z M 430.128906 366.664062 C 430.089844 365.261719 429.023438 364.117188 427.621094 363.933594 L 353.777344 354.566406 C 353 354.492188 352.191406 354.75 351.5625 355.265625 C 350.972656 355.820312 350.640625 356.59375 350.679688 357.441406 C 350.679688 357.441406 352.191406 397.273438 354.035156 442.488281 C 356.429688 501.71875 359.34375 570.097656 359.34375 570.097656 C 359.378906 570.871094 359.894531 571.535156 360.632812 571.683594 C 360.597656 571.683594 434.292969 588.613281 434.292969 588.613281 C 434.921875 588.757812 435.585938 588.613281 436.101562 588.167969 C 436.582031 587.761719 436.875 587.171875 436.839844 586.507812 C 436.839844 586.507812 434.773438 515.808594 432.894531 454.625 C 431.457031 407.894531 430.128906 366.664062 430.128906 366.664062 Z M 667.851562 298.875 L 662.355469 365.113281 C 665.492188 366.664062 674.007812 373.964844 674.007812 373.964844 L 649.527344 387.535156 C 649.527344 387.535156 658.042969 366.882812 658.375 366.550781 L 661.03125 300.386719 L 639.460938 269.738281 L 664.9375 258.121094 C 663.980469 259.671875 662.355469 264.132812 661.65625 265.757812 C 661.03125 267.230469 662.542969 268.191406 663.316406 269.261719 C 664.679688 271.175781 665.417969 272.835938 664.496094 275.125 C 663.796875 276.929688 662.875 278.703125 662.136719 280.507812 C 662.097656 280.617188 661.433594 282.464844 661.804688 282.390625 C 662.910156 282.167969 664.386719 279.21875 664.976562 278.40625 C 665.636719 277.484375 666.300781 276.597656 666.964844 275.675781 C 667.40625 275.085938 667.851562 274.460938 668.292969 273.871094 C 668.625 273.390625 668.992188 272.949219 669.363281 272.503906 C 669.546875 272.210938 670.503906 271.324219 670.542969 270.957031 C 670.578125 269.738281 666.597656 268.558594 666.632812 266.898438 C 666.632812 264.835938 667.222656 259.191406 667.445312 256.574219 L 681.492188 247.683594 Z M 628.4375 433.75 C 628.585938 419.660156 629.140625 368.285156 629.546875 322.882812 C 629.875 287 630.0625 254.875 630.136719 247.90625 L 687.941406 205.308594 C 688.128906 216.410156 688.644531 242.816406 689.195312 271.804688 C 690.15625 318.089844 691.296875 370.941406 691.445312 378.871094 Z M 694.542969 271.695312 C 694.0625 233.410156 693.546875 199.628906 693.546875 199.628906 C 693.546875 198.558594 692.921875 197.601562 691.960938 197.121094 C 691.003906 196.640625 689.859375 196.753906 688.976562 197.378906 L 625.746094 244.292969 C 625.046875 244.808594 624.605469 245.617188 624.605469 246.503906 C 624.605469 246.503906 624.605469 282.277344 624.714844 322.882812 C 624.863281 376.03125 625.15625 437.4375 625.15625 437.4375 C 625.15625 438.101562 625.527344 438.726562 626.117188 438.984375 C 626.667969 439.28125 627.371094 439.171875 627.847656 438.726562 C 627.886719 438.726562 695.09375 381.488281 695.09375 381.488281 C 695.574219 381.082031 695.871094 380.457031 695.871094 379.792969 C 695.871094 379.792969 695.207031 321.890625 694.542969 271.695312 " fill-opacity="1" fill-rule="evenodd"/></svg>