<svg xmlns="http://www.w3.org/2000/svg" xmlns:xlink="http://www.w3.org/1999/xlink" width="308" zoomAndPan="magnify" viewBox="0 0 230.87999 231" height="308" preserveAspectRatio="xMidYMid meet" version="1.0"><defs><g/><clipPath id="id1"><path d="M 0 0.0585938 L 230.761719 0.0585938 L 230.761719 230.9375 L 0 230.9375 Z M 0 0.0585938 " clip-rule="nonzero"/></clipPath><clipPath id="id2"><path d="M 8.15625 8.21875 L 222.546875 8.21875 L 222.546875 222.605469 L 8.15625 222.605469 Z M 8.15625 8.21875 " clip-rule="nonzero"/></clipPath></defs><g clip-path="url(#id1)"><path fill="#b8f1b0" d="M 230.878906 115.5 C 230.878906 117.390625 230.832031 119.277344 230.742188 121.164062 C 230.648438 123.050781 230.507812 124.933594 230.324219 126.816406 C 230.140625 128.695312 229.90625 130.570312 229.628906 132.4375 C 229.351562 134.308594 229.03125 136.167969 228.660156 138.019531 C 228.292969 139.875 227.878906 141.71875 227.421875 143.550781 C 226.960938 145.382812 226.457031 147.203125 225.910156 149.011719 C 225.359375 150.820312 224.769531 152.613281 224.132812 154.390625 C 223.496094 156.167969 222.816406 157.929688 222.09375 159.675781 C 221.371094 161.421875 220.605469 163.148438 219.796875 164.855469 C 218.988281 166.566406 218.140625 168.25 217.25 169.917969 C 216.359375 171.585938 215.425781 173.226562 214.457031 174.847656 C 213.484375 176.46875 212.472656 178.0625 211.425781 179.636719 C 210.375 181.207031 209.289062 182.75 208.164062 184.265625 C 207.035156 185.785156 205.875 187.273438 204.675781 188.734375 C 203.476562 190.195312 202.242188 191.625 200.976562 193.023438 C 199.707031 194.425781 198.402344 195.792969 197.070312 197.128906 C 195.734375 198.464844 194.363281 199.765625 192.964844 201.035156 C 191.566406 202.304688 190.132812 203.539062 188.675781 204.734375 C 187.214844 205.933594 185.726562 207.097656 184.207031 208.222656 C 182.691406 209.347656 181.144531 210.433594 179.574219 211.484375 C 178.003906 212.535156 176.410156 213.542969 174.789062 214.515625 C 173.167969 215.488281 171.523438 216.417969 169.859375 217.308594 C 168.191406 218.199219 166.503906 219.046875 164.796875 219.855469 C 163.089844 220.664062 161.363281 221.429688 159.617188 222.152344 C 157.871094 222.875 156.109375 223.554688 154.332031 224.191406 C 152.550781 224.828125 150.757812 225.421875 148.949219 225.96875 C 147.140625 226.515625 145.320312 227.019531 143.488281 227.480469 C 141.65625 227.9375 139.8125 228.351562 137.960938 228.722656 C 136.109375 229.089844 134.246094 229.414062 132.378906 229.691406 C 130.507812 229.96875 128.636719 230.199219 126.753906 230.382812 C 124.875 230.570312 122.992188 230.707031 121.105469 230.800781 C 119.21875 230.894531 117.328125 230.941406 115.441406 230.941406 C 113.550781 230.941406 111.664062 230.894531 109.777344 230.800781 C 107.886719 230.707031 106.003906 230.570312 104.125 230.382812 C 102.246094 230.199219 100.371094 229.96875 98.5 229.691406 C 96.632812 229.414062 94.773438 229.089844 92.917969 228.722656 C 91.066406 228.351562 89.222656 227.9375 87.390625 227.480469 C 85.558594 227.019531 83.738281 226.515625 81.929688 225.96875 C 80.121094 225.421875 78.328125 224.828125 76.550781 224.191406 C 74.769531 223.554688 73.007812 222.875 71.261719 222.152344 C 69.515625 221.429688 67.789062 220.664062 66.082031 219.855469 C 64.375 219.046875 62.6875 218.199219 61.023438 217.308594 C 59.355469 216.417969 57.710938 215.488281 56.09375 214.515625 C 54.472656 213.542969 52.875 212.535156 51.304688 211.484375 C 49.734375 210.433594 48.191406 209.347656 46.671875 208.222656 C 45.15625 207.097656 43.667969 205.933594 42.207031 204.734375 C 40.746094 203.539062 39.316406 202.304688 37.914062 201.035156 C 36.515625 199.765625 35.148438 198.464844 33.8125 197.128906 C 32.476562 195.792969 31.171875 194.425781 29.90625 193.023438 C 28.636719 191.625 27.402344 190.195312 26.203125 188.734375 C 25.003906 187.273438 23.84375 185.785156 22.71875 184.265625 C 21.59375 182.75 20.503906 181.207031 19.457031 179.636719 C 18.40625 178.0625 17.394531 176.46875 16.421875 174.847656 C 15.453125 173.226562 14.523438 171.585938 13.632812 169.917969 C 12.742188 168.25 11.890625 166.566406 11.082031 164.855469 C 10.277344 163.148438 9.511719 161.421875 8.789062 159.675781 C 8.0625 157.929688 7.382812 156.167969 6.75 154.390625 C 6.113281 152.613281 5.519531 150.816406 4.972656 149.011719 C 4.421875 147.203125 3.917969 145.382812 3.460938 143.550781 C 3 141.71875 2.585938 139.875 2.21875 138.019531 C 1.847656 136.167969 1.527344 134.308594 1.25 132.4375 C 0.972656 130.570312 0.742188 128.695312 0.554688 126.816406 C 0.371094 124.933594 0.230469 123.050781 0.140625 121.164062 C 0.046875 119.277344 0 117.390625 0 115.5 C 0 113.609375 0.046875 111.722656 0.140625 109.835938 C 0.230469 107.949219 0.371094 106.066406 0.554688 104.183594 C 0.742188 102.304688 0.972656 100.429688 1.25 98.5625 C 1.527344 96.691406 1.847656 94.832031 2.21875 92.980469 C 2.585938 91.125 3 89.28125 3.460938 87.449219 C 3.917969 85.617188 4.421875 83.796875 4.972656 81.988281 C 5.519531 80.179688 6.113281 78.386719 6.75 76.609375 C 7.382812 74.832031 8.0625 73.070312 8.789062 71.324219 C 9.511719 69.578125 10.277344 67.851562 11.082031 66.144531 C 11.890625 64.433594 12.742188 62.75 13.632812 61.082031 C 14.523438 59.414062 15.453125 57.773438 16.421875 56.152344 C 17.394531 54.53125 18.40625 52.9375 19.457031 51.363281 C 20.503906 49.792969 21.59375 48.25 22.71875 46.734375 C 23.84375 45.214844 25.003906 43.726562 26.203125 42.265625 C 27.402344 40.804688 28.636719 39.375 29.90625 37.976562 C 31.171875 36.574219 32.476562 35.207031 33.8125 33.871094 C 35.148438 32.535156 36.515625 31.234375 37.914062 29.964844 C 39.316406 28.695312 40.746094 27.460938 42.207031 26.265625 C 43.667969 25.066406 45.15625 23.902344 46.671875 22.777344 C 48.191406 21.652344 49.734375 20.566406 51.304688 19.515625 C 52.875 18.464844 54.472656 17.457031 56.09375 16.484375 C 57.710938 15.511719 59.355469 14.582031 61.023438 13.691406 C 62.6875 12.800781 64.375 11.953125 66.082031 11.144531 C 67.789062 10.335938 69.515625 9.570312 71.261719 8.847656 C 73.007812 8.125 74.769531 7.445312 76.550781 6.808594 C 78.328125 6.171875 80.121094 5.578125 81.929688 5.03125 C 83.738281 4.480469 85.558594 3.980469 87.390625 3.519531 C 89.222656 3.0625 91.066406 2.648438 92.917969 2.277344 C 94.773438 1.910156 96.632812 1.585938 98.5 1.308594 C 100.371094 1.03125 102.246094 0.800781 104.125 0.617188 C 106.003906 0.429688 107.886719 0.292969 109.777344 0.199219 C 111.664062 0.105469 113.550781 0.0585938 115.441406 0.0585938 C 117.328125 0.0585938 119.21875 0.105469 121.105469 0.199219 C 122.992188 0.292969 124.875 0.429688 126.753906 0.617188 C 128.636719 0.800781 130.507812 1.03125 132.378906 1.308594 C 134.246094 1.585938 136.109375 1.910156 137.960938 2.277344 C 139.8125 2.648438 141.65625 3.0625 143.488281 3.519531 C 145.320312 3.980469 147.140625 4.480469 148.949219 5.03125 C 150.757812 5.578125 152.550781 6.171875 154.332031 6.808594 C 156.109375 7.445312 157.871094 8.125 159.617188 8.847656 C 161.363281 9.570312 163.089844 10.335938 164.796875 11.144531 C 166.503906 11.953125 168.191406 12.800781 169.859375 13.691406 C 171.523438 14.582031 173.167969 15.511719 174.789062 16.484375 C 176.410156 17.457031 178.003906 18.464844 179.574219 19.515625 C 181.144531 20.566406 182.691406 21.652344 184.207031 22.777344 C 185.726562 23.902344 187.214844 25.066406 188.675781 26.265625 C 190.132812 27.460938 191.566406 28.695312 192.964844 29.964844 C 194.363281 31.234375 195.734375 32.535156 197.070312 33.871094 C 198.402344 35.207031 199.707031 36.574219 200.976562 37.976562 C 202.242188 39.375 203.476562 40.804688 204.675781 42.265625 C 205.875 43.726562 207.035156 45.214844 208.164062 46.734375 C 209.289062 48.25 210.375 49.792969 211.425781 51.363281 C 212.472656 52.9375 213.484375 54.53125 214.457031 56.152344 C 215.425781 57.773438 216.359375 59.414062 217.25 61.082031 C 218.140625 62.75 218.988281 64.433594 219.796875 66.144531 C 220.605469 67.851562 221.371094 69.578125 222.09375 71.324219 C 222.816406 73.070312 223.496094 74.832031 224.132812 76.609375 C 224.769531 78.386719 225.359375 80.179688 225.910156 81.988281 C 226.457031 83.796875 226.960938 85.617188 227.421875 87.449219 C 227.878906 89.28125 228.292969 91.125 228.660156 92.980469 C 229.03125 94.832031 229.351562 96.691406 229.628906 98.5625 C 229.90625 100.429688 230.140625 102.304688 230.324219 104.183594 C 230.507812 106.066406 230.648438 107.949219 230.742188 109.835938 C 230.832031 111.722656 230.878906 113.609375 230.878906 115.5 Z M 230.878906 115.5 " fill-opacity="1" fill-rule="nonzero"/><path fill="#b8f1b0" d="M 115.441406 0.0585938 C 51.503906 0.0585938 0 51.5625 0 115.5 C 0 179.4375 51.503906 230.941406 115.441406 230.941406 C 178.785156 230.941406 230.878906 179.4375 230.878906 115.5 C 230.878906 51.5625 178.785156 0.0585938 115.441406 0.0585938 Z M 115.441406 213.179688 C 61.566406 213.179688 17.761719 169.371094 17.761719 115.5 C 17.761719 61.628906 61.566406 17.820312 115.441406 17.820312 C 169.3125 17.820312 213.121094 61.628906 213.121094 115.5 C 213.121094 169.371094 169.3125 213.179688 115.441406 213.179688 Z M 115.441406 213.179688 " fill-opacity="1" fill-rule="nonzero"/></g><path fill="#14c38e" d="M 115.441406 17.820312 C 61.566406 17.820312 17.761719 61.628906 17.761719 115.5 C 17.761719 169.371094 61.566406 213.179688 115.441406 213.179688 C 169.3125 213.179688 213.121094 169.371094 213.121094 115.5 C 213.121094 61.628906 169.3125 17.820312 115.441406 17.820312 Z M 115.441406 17.820312 " fill-opacity="1" fill-rule="nonzero"/><g fill="#d32f23" fill-opacity="0.4196"><g transform="translate(75.814022, 175.973171)"><g><path d="M 49.046875 0 C 47.578125 0 46.894531 -0.734375 47 -2.203125 L 46.6875 -14.1875 C 46.789062 -14.40625 46.734375 -14.59375 46.515625 -14.75 C 46.304688 -14.90625 46.097656 -14.984375 45.890625 -14.984375 L 32.171875 -14.984375 C 31.648438 -14.984375 31.28125 -14.71875 31.0625 -14.1875 L 28.078125 -2.203125 C 27.753906 -0.734375 26.859375 0 25.390625 0 L 1.421875 0 C -0.160156 0 -0.738281 -0.835938 -0.3125 -2.515625 L 34.375 -108.34375 C 34.800781 -109.707031 35.75 -110.390625 37.21875 -110.390625 L 65.125 -110.390625 C 66.601562 -110.390625 67.394531 -109.707031 67.5 -108.34375 L 76.171875 -2.515625 L 76.171875 -2.203125 C 76.171875 -0.734375 75.382812 0 73.8125 0 Z M 37.53125 -38.484375 C 37.320312 -37.953125 37.476562 -37.6875 38 -37.6875 L 45.421875 -37.6875 C 45.734375 -37.6875 45.992188 -37.953125 46.203125 -38.484375 L 45.578125 -67.65625 C 45.578125 -68.070312 45.441406 -68.253906 45.171875 -68.203125 C 44.910156 -68.148438 44.78125 -67.96875 44.78125 -67.65625 Z M 37.53125 -38.484375 "/></g></g></g><g fill="#e3fcbf" fill-opacity="1"><g transform="translate(71.126243, 171.752275)"><g><path d="M 49.046875 0 C 47.578125 0 46.894531 -0.734375 47 -2.203125 L 46.6875 -14.1875 C 46.789062 -14.40625 46.734375 -14.59375 46.515625 -14.75 C 46.304688 -14.90625 46.097656 -14.984375 45.890625 -14.984375 L 32.171875 -14.984375 C 31.648438 -14.984375 31.28125 -14.71875 31.0625 -14.1875 L 28.078125 -2.203125 C 27.753906 -0.734375 26.859375 0 25.390625 0 L 1.421875 0 C -0.160156 0 -0.738281 -0.835938 -0.3125 -2.515625 L 34.375 -108.34375 C 34.800781 -109.707031 35.75 -110.390625 37.21875 -110.390625 L 65.125 -110.390625 C 66.601562 -110.390625 67.394531 -109.707031 67.5 -108.34375 L 76.171875 -2.515625 L 76.171875 -2.203125 C 76.171875 -0.734375 75.382812 0 73.8125 0 Z M 37.53125 -38.484375 C 37.320312 -37.953125 37.476562 -37.6875 38 -37.6875 L 45.421875 -37.6875 C 45.734375 -37.6875 45.992188 -37.953125 46.203125 -38.484375 L 45.578125 -67.65625 C 45.578125 -68.070312 45.441406 -68.253906 45.171875 -68.203125 C 44.910156 -68.148438 44.78125 -67.96875 44.78125 -67.65625 Z M 37.53125 -38.484375 "/></g></g></g><g clip-path="url(#id2)"><path fill="#14c38e" d="M 222.546875 115.410156 C 222.546875 117.167969 222.503906 118.917969 222.417969 120.671875 C 222.332031 122.425781 222.203125 124.171875 222.03125 125.917969 C 221.859375 127.664062 221.644531 129.40625 221.386719 131.140625 C 221.128906 132.875 220.828125 134.605469 220.488281 136.324219 C 220.144531 138.046875 219.761719 139.757812 219.332031 141.457031 C 218.90625 143.160156 218.441406 144.851562 217.929688 146.527344 C 217.421875 148.207031 216.871094 149.871094 216.28125 151.523438 C 215.6875 153.175781 215.058594 154.8125 214.386719 156.433594 C 213.714844 158.054688 213.003906 159.65625 212.253906 161.242188 C 211.503906 162.828125 210.714844 164.394531 209.890625 165.941406 C 209.0625 167.488281 208.199219 169.015625 207.296875 170.519531 C 206.394531 172.027344 205.457031 173.507812 204.480469 174.964844 C 203.507812 176.425781 202.496094 177.859375 201.449219 179.265625 C 200.40625 180.675781 199.328125 182.058594 198.214844 183.414062 C 197.101562 184.769531 195.957031 186.097656 194.777344 187.398438 C 193.597656 188.699219 192.390625 189.96875 191.148438 191.210938 C 189.910156 192.449219 188.640625 193.660156 187.339844 194.835938 C 186.039062 196.015625 184.710938 197.160156 183.355469 198.273438 C 182 199.386719 180.617188 200.464844 179.207031 201.511719 C 177.796875 202.554688 176.363281 203.566406 174.90625 204.539062 C 173.445312 205.515625 171.964844 206.453125 170.460938 207.355469 C 168.957031 208.257812 167.429688 209.121094 165.882812 209.949219 C 164.335938 210.777344 162.769531 211.5625 161.183594 212.3125 C 159.597656 213.0625 157.992188 213.773438 156.375 214.445312 C 154.753906 215.117188 153.117188 215.75 151.464844 216.339844 C 149.8125 216.929688 148.148438 217.480469 146.46875 217.992188 C 144.789062 218.5 143.101562 218.96875 141.398438 219.394531 C 139.695312 219.820312 137.984375 220.203125 136.265625 220.546875 C 134.542969 220.890625 132.816406 221.1875 131.082031 221.445312 C 129.34375 221.703125 127.605469 221.917969 125.859375 222.089844 C 124.113281 222.261719 122.363281 222.390625 120.613281 222.476562 C 118.859375 222.5625 117.105469 222.605469 115.351562 222.605469 C 113.597656 222.605469 111.84375 222.5625 110.09375 222.476562 C 108.339844 222.390625 106.589844 222.261719 104.84375 222.089844 C 103.097656 221.917969 101.359375 221.703125 99.625 221.445312 C 97.886719 221.1875 96.160156 220.890625 94.4375 220.546875 C 92.71875 220.203125 91.007812 219.820312 89.304688 219.394531 C 87.605469 218.96875 85.914062 218.5 84.234375 217.992188 C 82.554688 217.480469 80.890625 216.929688 79.238281 216.339844 C 77.585938 215.75 75.953125 215.117188 74.332031 214.445312 C 72.710938 213.773438 71.105469 213.0625 69.519531 212.3125 C 67.933594 211.5625 66.367188 210.777344 64.820312 209.949219 C 63.273438 209.121094 61.746094 208.257812 60.242188 207.355469 C 58.738281 206.453125 57.257812 205.515625 55.796875 204.539062 C 54.339844 203.566406 52.90625 202.554688 51.496094 201.511719 C 50.085938 200.464844 48.703125 199.386719 47.347656 198.273438 C 45.992188 197.160156 44.664062 196.015625 43.363281 194.835938 C 42.066406 193.660156 40.792969 192.449219 39.554688 191.210938 C 38.3125 189.96875 37.105469 188.699219 35.925781 187.398438 C 34.75 186.097656 33.601562 184.769531 32.488281 183.414062 C 31.375 182.058594 30.296875 180.675781 29.253906 179.265625 C 28.207031 177.859375 27.199219 176.425781 26.222656 174.964844 C 25.25 173.507812 24.308594 172.027344 23.410156 170.519531 C 22.507812 169.015625 21.640625 167.488281 20.816406 165.941406 C 19.988281 164.394531 19.199219 162.828125 18.449219 161.242188 C 17.699219 159.65625 16.988281 158.054688 16.316406 156.433594 C 15.644531 154.8125 15.015625 153.175781 14.421875 151.523438 C 13.832031 149.871094 13.28125 148.207031 12.773438 146.527344 C 12.265625 144.851562 11.796875 143.160156 11.371094 141.457031 C 10.945312 139.757812 10.558594 138.046875 10.21875 136.324219 C 9.875 134.605469 9.574219 132.875 9.316406 131.140625 C 9.058594 129.40625 8.847656 127.664062 8.671875 125.917969 C 8.5 124.171875 8.371094 122.425781 8.285156 120.671875 C 8.199219 118.917969 8.15625 117.167969 8.15625 115.410156 C 8.15625 113.65625 8.199219 111.90625 8.285156 110.152344 C 8.371094 108.398438 8.5 106.652344 8.671875 104.90625 C 8.847656 103.160156 9.058594 101.417969 9.316406 99.683594 C 9.574219 97.949219 9.875 96.21875 10.21875 94.5 C 10.558594 92.777344 10.945312 91.066406 11.371094 89.367188 C 11.796875 87.664062 12.265625 85.972656 12.773438 84.296875 C 13.28125 82.617188 13.832031 80.949219 14.421875 79.300781 C 15.015625 77.648438 15.644531 76.011719 16.316406 74.390625 C 16.988281 72.769531 17.699219 71.167969 18.449219 69.582031 C 19.199219 67.996094 19.988281 66.429688 20.816406 64.882812 C 21.640625 63.332031 22.507812 61.808594 23.410156 60.304688 C 24.308594 58.796875 25.25 57.316406 26.222656 55.859375 C 27.199219 54.398438 28.207031 52.964844 29.253906 51.554688 C 30.296875 50.148438 31.375 48.765625 32.488281 47.410156 C 33.601562 46.050781 34.75 44.722656 35.925781 43.425781 C 37.105469 42.125 38.3125 40.855469 39.554688 39.613281 C 40.792969 38.375 42.066406 37.164062 43.363281 35.984375 C 44.664062 34.808594 45.992188 33.664062 47.347656 32.550781 C 48.703125 31.4375 50.085938 30.359375 51.496094 29.3125 C 52.90625 28.269531 54.339844 27.257812 55.796875 26.28125 C 57.257812 25.308594 58.738281 24.371094 60.242188 23.46875 C 61.746094 22.566406 63.273438 21.703125 64.820312 20.875 C 66.367188 20.046875 67.933594 19.257812 69.519531 18.507812 C 71.105469 17.757812 72.710938 17.046875 74.332031 16.378906 C 75.953125 15.707031 77.585938 15.074219 79.238281 14.484375 C 80.890625 13.894531 82.554688 13.34375 84.234375 12.832031 C 85.914062 12.324219 87.605469 11.855469 89.304688 11.429688 C 91.007812 11.003906 92.71875 10.621094 94.4375 10.277344 C 96.160156 9.933594 97.886719 9.636719 99.625 9.378906 C 101.359375 9.121094 103.097656 8.90625 104.84375 8.734375 C 106.589844 8.5625 108.339844 8.433594 110.09375 8.347656 C 111.84375 8.261719 113.597656 8.21875 115.351562 8.21875 C 117.105469 8.21875 118.859375 8.261719 120.613281 8.347656 C 122.363281 8.433594 124.113281 8.5625 125.859375 8.734375 C 127.605469 8.90625 129.34375 9.121094 131.082031 9.378906 C 132.816406 9.636719 134.542969 9.933594 136.265625 10.277344 C 137.984375 10.621094 139.695312 11.003906 141.398438 11.429688 C 143.101562 11.855469 144.789062 12.324219 146.46875 12.832031 C 148.148438 13.34375 149.8125 13.894531 151.464844 14.484375 C 153.117188 15.074219 154.753906 15.707031 156.375 16.378906 C 157.996094 17.046875 159.597656 17.757812 161.183594 18.507812 C 162.769531 19.257812 164.335938 20.046875 165.882812 20.875 C 167.429688 21.703125 168.957031 22.566406 170.460938 23.46875 C 171.964844 24.371094 173.445312 25.308594 174.90625 26.28125 C 176.363281 27.257812 177.796875 28.269531 179.207031 29.3125 C 180.617188 30.359375 182 31.4375 183.355469 32.550781 C 184.710938 33.664062 186.039062 34.808594 187.339844 35.984375 C 188.640625 37.164062 189.910156 38.375 191.148438 39.613281 C 192.390625 40.855469 193.597656 42.125 194.777344 43.425781 C 195.957031 44.722656 197.101562 46.050781 198.214844 47.410156 C 199.328125 48.765625 200.40625 50.148438 201.449219 51.554688 C 202.496094 52.964844 203.507812 54.398438 204.480469 55.859375 C 205.457031 57.316406 206.394531 58.796875 207.296875 60.304688 C 208.199219 61.808594 209.0625 63.332031 209.890625 64.882812 C 210.714844 66.429688 211.503906 67.996094 212.253906 69.582031 C 213.003906 71.167969 213.714844 72.769531 214.386719 74.390625 C 215.058594 76.011719 215.6875 77.648438 216.28125 79.300781 C 216.871094 80.949219 217.421875 82.617188 217.929688 84.296875 C 218.441406 85.972656 218.90625 87.664062 219.332031 89.367188 C 219.761719 91.066406 220.144531 92.777344 220.488281 94.5 C 220.828125 96.21875 221.128906 97.949219 221.386719 99.683594 C 221.644531 101.417969 221.859375 103.160156 222.03125 104.90625 C 222.203125 106.652344 222.332031 108.398438 222.417969 110.152344 C 222.503906 111.90625 222.546875 113.65625 222.546875 115.410156 Z M 222.546875 115.410156 " fill-opacity="1" fill-rule="nonzero"/></g><g fill="#d32f23" fill-opacity="0.4196"><g transform="translate(48.209856, 174.114891)"><g><path d="M 48.046875 -67.09375 C 54.191406 -67.09375 58.976562 -65.128906 62.40625 -61.203125 C 65.832031 -57.273438 67.546875 -51.832031 67.546875 -44.875 C 67.546875 -42.457031 67.445312 -40.59375 67.25 -39.28125 L 65.578125 -25.84375 C 64.578125 -17.375 60.953125 -10.75 54.703125 -5.96875 C 48.453125 -1.1875 40.546875 1.203125 30.984375 1.203125 C 22.015625 1.203125 15.035156 -0.957031 10.046875 -5.28125 C 5.054688 -9.613281 2.765625 -16.113281 3.171875 -24.78125 C 3.273438 -25.488281 3.328125 -26.34375 3.328125 -27.34375 C 3.328125 -28.351562 3.425781 -29.515625 3.625 -30.828125 L 9.21875 -79.1875 C 10.226562 -87.75 13.878906 -94.519531 20.171875 -99.5 C 26.472656 -104.488281 34.359375 -106.984375 43.828125 -106.984375 C 52.085938 -106.984375 58.707031 -104.867188 63.6875 -100.640625 C 68.675781 -96.410156 71.171875 -90.617188 71.171875 -83.265625 C 71.171875 -82.359375 71.070312 -81 70.875 -79.1875 L 70.109375 -73.28125 C 70.015625 -72.582031 69.738281 -72.03125 69.28125 -71.625 C 68.832031 -71.21875 68.304688 -71.015625 67.703125 -71.015625 L 44.421875 -71.015625 C 43.816406 -71.015625 43.335938 -71.21875 42.984375 -71.625 C 42.640625 -72.03125 42.515625 -72.582031 42.609375 -73.28125 L 43.0625 -77.21875 C 43.164062 -78.625 42.960938 -79.78125 42.453125 -80.6875 C 41.953125 -81.59375 41.351562 -82.046875 40.65625 -82.046875 C 39.644531 -82.046875 38.757812 -81.59375 38 -80.6875 C 37.25 -79.78125 36.820312 -78.625 36.71875 -77.21875 L 35.0625 -63.015625 C 34.957031 -62.710938 35.003906 -62.507812 35.203125 -62.40625 C 35.410156 -62.300781 35.613281 -62.351562 35.8125 -62.5625 C 37.625 -63.96875 39.585938 -65.070312 41.703125 -65.875 C 43.816406 -66.6875 45.929688 -67.09375 48.046875 -67.09375 Z M 39.59375 -42.3125 C 39.789062 -43.71875 39.632812 -44.875 39.125 -45.78125 C 38.625 -46.6875 37.820312 -47.140625 36.71875 -47.140625 C 35.613281 -47.140625 34.679688 -46.6875 33.921875 -45.78125 C 33.171875 -44.875 32.691406 -43.71875 32.484375 -42.3125 L 30.671875 -27.796875 C 30.472656 -26.390625 30.675781 -25.234375 31.28125 -24.328125 C 31.882812 -23.421875 32.691406 -22.96875 33.703125 -22.96875 C 34.703125 -22.96875 35.601562 -23.421875 36.40625 -24.328125 C 37.21875 -25.234375 37.722656 -26.390625 37.921875 -27.796875 Z M 39.59375 -42.3125 "/></g></g></g><g fill="#d32f23" fill-opacity="0.4196"><g transform="translate(115.602713, 174.114891)"><g><path d="M 77.671875 -50.921875 C 78.273438 -50.921875 78.753906 -50.71875 79.109375 -50.3125 C 79.460938 -49.914062 79.585938 -49.363281 79.484375 -48.65625 L 76.921875 -27.5 C 76.816406 -26.789062 76.5625 -26.234375 76.15625 -25.828125 C 75.757812 -25.429688 75.207031 -25.234375 74.5 -25.234375 L 69.96875 -25.234375 C 69.5625 -25.234375 69.257812 -24.984375 69.0625 -24.484375 L 66.34375 -2.265625 C 66.238281 -1.554688 65.984375 -1 65.578125 -0.59375 C 65.179688 -0.195312 64.628906 0 63.921875 0 L 40.796875 0 C 40.085938 0 39.554688 -0.195312 39.203125 -0.59375 C 38.859375 -1 38.734375 -1.554688 38.828125 -2.265625 L 41.5625 -24.484375 C 41.5625 -24.984375 41.359375 -25.234375 40.953125 -25.234375 L 3.46875 -25.234375 C 2.863281 -25.234375 2.382812 -25.429688 2.03125 -25.828125 C 1.6875 -26.234375 1.5625 -26.789062 1.65625 -27.5 L 3.625 -44.28125 C 3.726562 -44.882812 3.976562 -45.789062 4.375 -47 L 29.171875 -103.96875 C 29.671875 -105.175781 30.578125 -105.78125 31.890625 -105.78125 L 56.671875 -105.78125 C 57.472656 -105.78125 58.023438 -105.550781 58.328125 -105.09375 C 58.628906 -104.644531 58.628906 -104.015625 58.328125 -103.203125 L 36.875 -51.828125 C 36.570312 -51.222656 36.722656 -50.921875 37.328125 -50.921875 L 44.125 -50.921875 C 44.625 -50.921875 44.875 -51.171875 44.875 -51.671875 L 46.234375 -62.109375 C 46.335938 -62.804688 46.585938 -63.359375 46.984375 -63.765625 C 47.390625 -64.171875 47.945312 -64.375 48.65625 -64.375 L 71.78125 -64.375 C 72.476562 -64.375 73.003906 -64.171875 73.359375 -63.765625 C 73.710938 -63.359375 73.835938 -62.804688 73.734375 -62.109375 L 72.375 -51.671875 C 72.375 -51.171875 72.628906 -50.921875 73.140625 -50.921875 Z M 77.671875 -50.921875 "/></g></g></g><g fill="#e3fcbf" fill-opacity="1"><g transform="translate(43.717717, 170.07015)"><g><path d="M 48.046875 -67.09375 C 54.191406 -67.09375 58.976562 -65.128906 62.40625 -61.203125 C 65.832031 -57.273438 67.546875 -51.832031 67.546875 -44.875 C 67.546875 -42.457031 67.445312 -40.59375 67.25 -39.28125 L 65.578125 -25.84375 C 64.578125 -17.375 60.953125 -10.75 54.703125 -5.96875 C 48.453125 -1.1875 40.546875 1.203125 30.984375 1.203125 C 22.015625 1.203125 15.035156 -0.957031 10.046875 -5.28125 C 5.054688 -9.613281 2.765625 -16.113281 3.171875 -24.78125 C 3.273438 -25.488281 3.328125 -26.34375 3.328125 -27.34375 C 3.328125 -28.351562 3.425781 -29.515625 3.625 -30.828125 L 9.21875 -79.1875 C 10.226562 -87.75 13.878906 -94.519531 20.171875 -99.5 C 26.472656 -104.488281 34.359375 -106.984375 43.828125 -106.984375 C 52.085938 -106.984375 58.707031 -104.867188 63.6875 -100.640625 C 68.675781 -96.410156 71.171875 -90.617188 71.171875 -83.265625 C 71.171875 -82.359375 71.070312 -81 70.875 -79.1875 L 70.109375 -73.28125 C 70.015625 -72.582031 69.738281 -72.03125 69.28125 -71.625 C 68.832031 -71.21875 68.304688 -71.015625 67.703125 -71.015625 L 44.421875 -71.015625 C 43.816406 -71.015625 43.335938 -71.21875 42.984375 -71.625 C 42.640625 -72.03125 42.515625 -72.582031 42.609375 -73.28125 L 43.0625 -77.21875 C 43.164062 -78.625 42.960938 -79.78125 42.453125 -80.6875 C 41.953125 -81.59375 41.351562 -82.046875 40.65625 -82.046875 C 39.644531 -82.046875 38.757812 -81.59375 38 -80.6875 C 37.25 -79.78125 36.820312 -78.625 36.71875 -77.21875 L 35.0625 -63.015625 C 34.957031 -62.710938 35.003906 -62.507812 35.203125 -62.40625 C 35.410156 -62.300781 35.613281 -62.351562 35.8125 -62.5625 C 37.625 -63.96875 39.585938 -65.070312 41.703125 -65.875 C 43.816406 -66.6875 45.929688 -67.09375 48.046875 -67.09375 Z M 39.59375 -42.3125 C 39.789062 -43.71875 39.632812 -44.875 39.125 -45.78125 C 38.625 -46.6875 37.820312 -47.140625 36.71875 -47.140625 C 35.613281 -47.140625 34.679688 -46.6875 33.921875 -45.78125 C 33.171875 -44.875 32.691406 -43.71875 32.484375 -42.3125 L 30.671875 -27.796875 C 30.472656 -26.390625 30.675781 -25.234375 31.28125 -24.328125 C 31.882812 -23.421875 32.691406 -22.96875 33.703125 -22.96875 C 34.703125 -22.96875 35.601562 -23.421875 36.40625 -24.328125 C 37.21875 -25.234375 37.722656 -26.390625 37.921875 -27.796875 Z M 39.59375 -42.3125 "/></g></g></g><g fill="#e3fcbf" fill-opacity="1"><g transform="translate(111.110574, 170.07015)"><g><path d="M 77.671875 -50.921875 C 78.273438 -50.921875 78.753906 -50.71875 79.109375 -50.3125 C 79.460938 -49.914062 79.585938 -49.363281 79.484375 -48.65625 L 76.921875 -27.5 C 76.816406 -26.789062 76.5625 -26.234375 76.15625 -25.828125 C 75.757812 -25.429688 75.207031 -25.234375 74.5 -25.234375 L 69.96875 -25.234375 C 69.5625 -25.234375 69.257812 -24.984375 69.0625 -24.484375 L 66.34375 -2.265625 C 66.238281 -1.554688 65.984375 -1 65.578125 -0.59375 C 65.179688 -0.195312 64.628906 0 63.921875 0 L 40.796875 0 C 40.085938 0 39.554688 -0.195312 39.203125 -0.59375 C 38.859375 -1 38.734375 -1.554688 38.828125 -2.265625 L 41.5625 -24.484375 C 41.5625 -24.984375 41.359375 -25.234375 40.953125 -25.234375 L 3.46875 -25.234375 C 2.863281 -25.234375 2.382812 -25.429688 2.03125 -25.828125 C 1.6875 -26.234375 1.5625 -26.789062 1.65625 -27.5 L 3.625 -44.28125 C 3.726562 -44.882812 3.976562 -45.789062 4.375 -47 L 29.171875 -103.96875 C 29.671875 -105.175781 30.578125 -105.78125 31.890625 -105.78125 L 56.671875 -105.78125 C 57.472656 -105.78125 58.023438 -105.550781 58.328125 -105.09375 C 58.628906 -104.644531 58.628906 -104.015625 58.328125 -103.203125 L 36.875 -51.828125 C 36.570312 -51.222656 36.722656 -50.921875 37.328125 -50.921875 L 44.125 -50.921875 C 44.625 -50.921875 44.875 -51.171875 44.875 -51.671875 L 46.234375 -62.109375 C 46.335938 -62.804688 46.585938 -63.359375 46.984375 -63.765625 C 47.390625 -64.171875 47.945312 -64.375 48.65625 -64.375 L 71.78125 -64.375 C 72.476562 -64.375 73.003906 -64.171875 73.359375 -63.765625 C 73.710938 -63.359375 73.835938 -62.804688 73.734375 -62.109375 L 72.375 -51.671875 C 72.375 -51.171875 72.628906 -50.921875 73.140625 -50.921875 Z M 77.671875 -50.921875 "/></g></g></g></svg>