<svg xmlns="http://www.w3.org/2000/svg" xmlns:xlink="http://www.w3.org/1999/xlink" width="1024" zoomAndPan="magnify" viewBox="0 0 768 767.999994" height="1024" preserveAspectRatio="xMidYMid meet" version="1.0"><path fill="#56b48c" d="M 384 0 C 171.957031 0 0 171.957031 0 384 C 0 596.042969 171.957031 768 384 768 C 596.042969 768 768 596.042969 768 384 C 768 171.957031 596.042969 0 384 0 Z M 384 0 " fill-opacity="1" fill-rule="nonzero"/><path fill="#e3fcbf" d="M 495.285156 418.667969 C 490.949219 407.992188 484.605469 398.703125 476.09375 390.5 C 467.578125 382.453125 456.898438 375.953125 444.054688 370.84375 C 459.222656 363.414062 470.519531 353.972656 478.105469 342.210938 C 485.6875 330.601562 489.558594 317.292969 489.558594 302.585938 C 489.558594 290.980469 487.390625 279.992188 483.058594 269.621094 C 478.722656 259.25 471.914062 249.964844 462.9375 241.761719 C 453.804688 233.558594 442.503906 227.058594 428.886719 222.414062 C 415.265625 217.769531 399.476562 215.449219 381.523438 215.449219 C 360.164062 215.449219 341.589844 219.472656 325.648438 227.519531 C 309.707031 235.570312 297.632812 246.25 289.429688 259.558594 C 281.226562 272.871094 277.050781 287.109375 277.050781 302.277344 C 277.050781 333.542969 292.527344 356.449219 323.480469 371 C 285.097656 386.167969 265.90625 414.027344 265.90625 454.734375 C 265.90625 473.769531 270.394531 490.949219 279.527344 506.273438 C 288.65625 521.597656 301.96875 533.667969 319.921875 542.492188 C 337.722656 551.3125 359.234375 555.648438 384.308594 555.648438 C 408.453125 555.648438 429.503906 551.3125 447.304688 542.492188 C 465.101562 533.667969 478.722656 521.597656 487.855469 506.117188 C 497.140625 490.640625 501.628906 473.304688 501.628906 454.269531 C 501.785156 441.113281 499.617188 429.195312 495.285156 418.667969 M 348.554688 271.941406 C 357.222656 263.121094 368.675781 258.632812 382.917969 258.632812 C 392.359375 258.632812 400.5625 260.644531 407.835938 264.820312 C 415.109375 269 420.683594 274.574219 424.707031 281.539062 C 428.730469 288.65625 430.742188 296.707031 430.742188 305.527344 C 430.742188 312.183594 429.660156 318.21875 427.335938 323.792969 C 425.015625 329.363281 421.921875 334.007812 417.742188 338.03125 C 413.5625 342.054688 408.609375 345.152344 402.726562 347.472656 C 396.847656 349.792969 390.5 350.878906 383.378906 350.878906 C 369.296875 350.878906 357.84375 346.542969 348.867188 338.03125 C 339.886719 329.519531 335.554688 318.839844 335.554688 305.992188 C 335.554688 292.21875 339.886719 280.765625 348.554688 271.941406 M 432.445312 483.519531 C 427.648438 492.652344 420.992188 499.617188 412.480469 504.570312 C 403.964844 509.523438 394.523438 512 383.84375 512 C 373.476562 512 364.035156 509.523438 355.519531 504.570312 C 347.007812 499.617188 340.351562 492.652344 335.398438 483.675781 C 330.449219 474.699219 327.972656 464.328125 327.972656 452.566406 C 327.972656 434.148438 333.234375 419.753906 343.601562 409.539062 C 353.972656 399.324219 366.972656 394.058594 382.296875 394.058594 C 393.132812 394.058594 403.039062 396.382812 411.703125 401.023438 C 420.527344 405.667969 427.335938 412.480469 432.136719 421.144531 C 436.933594 429.96875 439.410156 440.183594 439.410156 451.945312 C 439.410156 463.710938 437.242188 474.542969 432.445312 483.519531 " fill-opacity="1" fill-rule="nonzero"/></svg>