<svg xmlns="http://www.w3.org/2000/svg" xmlns:xlink="http://www.w3.org/1999/xlink" width="1024" zoomAndPan="magnify" viewBox="0 0 768 767.999994" height="1024" preserveAspectRatio="xMidYMid meet" version="1.0"><path fill="#56b48c" d="M 384 0 C 171.957031 0 0 171.957031 0 384 C 0 596.042969 171.957031 768 384 768 C 596.042969 768 768 596.042969 768 384 C 768 171.957031 596.042969 0 384 0 Z M 384 0 " fill-opacity="1" fill-rule="nonzero"/><path fill="#e3fcbf" d="M 489.710938 308.46875 C 484.140625 287.882812 476.09375 270.859375 465.722656 257.394531 C 455.351562 243.925781 442.503906 233.558594 427.183594 226.4375 C 411.859375 219.316406 394.523438 215.757812 375.023438 215.757812 C 358.152344 215.757812 342.675781 218.699219 328.589844 224.425781 C 314.660156 230.152344 302.585938 238.199219 292.371094 248.414062 C 282.3125 258.632812 274.417969 270.859375 269 284.789062 C 263.585938 298.71875 260.796875 313.578125 260.796875 329.054688 C 260.796875 343.601562 263.273438 357.378906 268.074219 370.6875 C 272.871094 383.84375 279.835938 395.453125 288.8125 405.359375 C 297.789062 415.265625 308.46875 423.003906 320.851562 428.421875 C 333.234375 433.992188 346.390625 436.625 360.628906 436.625 C 375.640625 436.625 389.261719 433.683594 401.488281 427.648438 C 413.871094 421.609375 425.015625 412.789062 434.921875 401.023438 C 432.753906 442.042969 426.253906 470.519531 415.417969 486.769531 C 410.003906 494.820312 403.347656 501.011719 395.761719 505.34375 C 388.023438 509.679688 379.820312 511.84375 371.308594 511.84375 C 361.558594 511.84375 352.890625 509.058594 345.304688 503.640625 C 337.566406 498.070312 332.148438 490.796875 328.746094 481.820312 C 325.957031 474.390625 322.089844 468.816406 316.671875 465.101562 C 311.410156 461.386719 305.375 459.53125 298.71875 459.53125 C 291.445312 459.53125 285.5625 462.007812 280.765625 466.960938 C 276.121094 471.914062 273.800781 477.640625 273.800781 483.984375 C 273.800781 494.199219 277.515625 504.878906 285.097656 516.023438 C 292.683594 527.167969 303.671875 536.453125 318.21875 543.882812 C 332.769531 551.3125 349.792969 555.183594 369.449219 555.183594 C 389.417969 555.183594 407.214844 551.46875 423.003906 544.195312 C 438.789062 536.917969 452.257812 525.621094 463.398438 510.605469 C 474.699219 495.59375 483.210938 477.019531 489.09375 454.886719 C 494.972656 432.753906 497.914062 407.214844 497.914062 378.117188 C 498.226562 352.425781 495.285156 329.054688 489.710938 308.46875 M 421.921875 364.960938 C 416.503906 374.402344 409.539062 381.523438 401.023438 386.320312 C 392.511719 391.273438 383.535156 393.75 374.09375 393.75 C 358.769531 393.75 346.234375 387.714844 336.175781 375.796875 C 326.269531 363.878906 321.160156 347.78125 321.160156 327.660156 C 321.160156 307.386719 326.113281 291.132812 336.175781 278.753906 C 346.078125 266.371094 358.308594 260.332031 372.703125 260.332031 C 381.058594 260.332031 388.644531 262.191406 395.761719 265.75 C 402.882812 269.3125 408.765625 274.417969 413.871094 280.765625 C 418.980469 287.109375 422.847656 294.695312 425.636719 303.363281 C 428.421875 312.027344 429.8125 321.46875 429.8125 331.839844 C 429.96875 344.53125 427.183594 355.675781 421.921875 364.960938 " fill-opacity="1" fill-rule="nonzero"/></svg>