<svg xmlns="http://www.w3.org/2000/svg" xmlns:xlink="http://www.w3.org/1999/xlink" width="450" zoomAndPan="magnify" viewBox="0 0 337.5 337.500003" height="450" preserveAspectRatio="xMidYMid meet" version="1.0"><defs><g/><clipPath id="id1"><path d="M 0 0 L 337 0 L 337 337 L 0 337 Z M 0 0 " clip-rule="nonzero"/></clipPath><clipPath id="id2"><path d="M 0 0 L 337 0 L 337 337 L 0 337 Z M 0 0 " clip-rule="nonzero"/></clipPath><clipPath id="id3"><path d="M 168.75 0 C 75.550781 0 0 75.550781 0 168.75 C 0 261.949219 75.550781 337.5 168.75 337.5 C 261.949219 337.5 337.5 261.949219 337.5 168.75 C 337.5 75.550781 261.949219 0 168.75 0 " clip-rule="nonzero"/></clipPath></defs><g clip-path="url(#id1)"><path fill="#14c38e" d="M 168.75 0 C 75.550781 0 0 75.550781 0 168.75 C 0 261.949219 75.550781 337.5 168.75 337.5 C 261.949219 337.5 337.5 261.949219 337.5 168.75 C 337.5 75.550781 261.949219 0 168.75 0 " fill-opacity="1" fill-rule="nonzero"/></g><g clip-path="url(#id2)"><g clip-path="url(#id3)"><path stroke-linecap="butt" transform="matrix(0.75, 0, 0, 0.75, 0, 0.0000114852)" fill="none" stroke-linejoin="miter" d="M 225.000012 -0.0000153136 C 100.73438 -0.0000153136 0 100.734365 0 224.999996 C 0 349.265628 100.73438 450.000008 225.000012 450.000008 C 349.265643 450.000008 450.000023 349.265628 450.000023 224.999996 C 450.000023 100.734365 349.265643 -0.0000153136 225.000012 -0.0000153136 " stroke="#b8f1b0" stroke-width="32" stroke-opacity="1" stroke-miterlimit="4"/></g></g><g fill="#d32f23" fill-opacity="0.4196"><g transform="translate(119.345435, 253.360711)"><g><path d="M 69.875 -97.5625 C 78.8125 -97.5625 85.769531 -94.703125 90.75 -88.984375 C 95.738281 -83.273438 98.234375 -75.367188 98.234375 -65.265625 C 98.234375 -61.742188 98.082031 -59.035156 97.78125 -57.140625 L 95.375 -37.578125 C 93.90625 -25.273438 88.628906 -15.640625 79.546875 -8.671875 C 70.460938 -1.710938 58.960938 1.765625 45.046875 1.765625 C 32.003906 1.765625 21.859375 -1.382812 14.609375 -7.6875 C 7.359375 -13.988281 4.023438 -23.4375 4.609375 -36.03125 C 4.753906 -37.0625 4.828125 -38.304688 4.828125 -39.765625 C 4.828125 -41.234375 4.976562 -42.921875 5.28125 -44.828125 L 13.40625 -115.15625 C 14.875 -127.601562 20.1875 -137.453125 29.34375 -144.703125 C 38.5 -151.953125 49.960938 -155.578125 63.734375 -155.578125 C 75.742188 -155.578125 85.375 -152.5 92.625 -146.34375 C 99.875 -140.195312 103.5 -131.773438 103.5 -121.078125 C 103.5 -119.765625 103.351562 -117.789062 103.0625 -115.15625 L 101.96875 -106.578125 C 101.820312 -105.554688 101.414062 -104.75 100.75 -104.15625 C 100.09375 -103.570312 99.328125 -103.28125 98.453125 -103.28125 L 64.609375 -103.28125 C 63.722656 -103.28125 63.023438 -103.570312 62.515625 -104.15625 C 62.003906 -104.75 61.820312 -105.554688 61.96875 -106.578125 L 62.625 -112.296875 C 62.769531 -114.347656 62.476562 -116.03125 61.75 -117.34375 C 61.019531 -118.664062 60.140625 -119.328125 59.109375 -119.328125 C 57.648438 -119.328125 56.367188 -118.664062 55.265625 -117.34375 C 54.171875 -116.03125 53.550781 -114.347656 53.40625 -112.296875 L 50.984375 -91.640625 C 50.835938 -91.191406 50.910156 -90.894531 51.203125 -90.75 C 51.492188 -90.601562 51.785156 -90.675781 52.078125 -90.96875 C 54.710938 -93.019531 57.566406 -94.628906 60.640625 -95.796875 C 63.722656 -96.972656 66.800781 -97.5625 69.875 -97.5625 Z M 57.578125 -61.53125 C 57.867188 -63.582031 57.644531 -65.265625 56.90625 -66.578125 C 56.175781 -67.898438 55.007812 -68.5625 53.40625 -68.5625 C 51.789062 -68.5625 50.429688 -67.898438 49.328125 -66.578125 C 48.234375 -65.265625 47.539062 -63.582031 47.25 -61.53125 L 44.609375 -40.4375 C 44.316406 -38.382812 44.609375 -36.695312 45.484375 -35.375 C 46.367188 -34.0625 47.539062 -33.40625 49 -33.40625 C 50.46875 -33.40625 51.785156 -34.0625 52.953125 -35.375 C 54.128906 -36.695312 54.863281 -38.382812 55.15625 -40.4375 Z M 57.578125 -61.53125 "/></g></g></g><g fill="#e3fcbf" fill-opacity="1"><g transform="translate(112.813281, 247.479133)"><g><path d="M 69.875 -97.5625 C 78.8125 -97.5625 85.769531 -94.703125 90.75 -88.984375 C 95.738281 -83.273438 98.234375 -75.367188 98.234375 -65.265625 C 98.234375 -61.742188 98.082031 -59.035156 97.78125 -57.140625 L 95.375 -37.578125 C 93.90625 -25.273438 88.628906 -15.640625 79.546875 -8.671875 C 70.460938 -1.710938 58.960938 1.765625 45.046875 1.765625 C 32.003906 1.765625 21.859375 -1.382812 14.609375 -7.6875 C 7.359375 -13.988281 4.023438 -23.4375 4.609375 -36.03125 C 4.753906 -37.0625 4.828125 -38.304688 4.828125 -39.765625 C 4.828125 -41.234375 4.976562 -42.921875 5.28125 -44.828125 L 13.40625 -115.15625 C 14.875 -127.601562 20.1875 -137.453125 29.34375 -144.703125 C 38.5 -151.953125 49.960938 -155.578125 63.734375 -155.578125 C 75.742188 -155.578125 85.375 -152.5 92.625 -146.34375 C 99.875 -140.195312 103.5 -131.773438 103.5 -121.078125 C 103.5 -119.765625 103.351562 -117.789062 103.0625 -115.15625 L 101.96875 -106.578125 C 101.820312 -105.554688 101.414062 -104.75 100.75 -104.15625 C 100.09375 -103.570312 99.328125 -103.28125 98.453125 -103.28125 L 64.609375 -103.28125 C 63.722656 -103.28125 63.023438 -103.570312 62.515625 -104.15625 C 62.003906 -104.75 61.820312 -105.554688 61.96875 -106.578125 L 62.625 -112.296875 C 62.769531 -114.347656 62.476562 -116.03125 61.75 -117.34375 C 61.019531 -118.664062 60.140625 -119.328125 59.109375 -119.328125 C 57.648438 -119.328125 56.367188 -118.664062 55.265625 -117.34375 C 54.171875 -116.03125 53.550781 -114.347656 53.40625 -112.296875 L 50.984375 -91.640625 C 50.835938 -91.191406 50.910156 -90.894531 51.203125 -90.75 C 51.492188 -90.601562 51.785156 -90.675781 52.078125 -90.96875 C 54.710938 -93.019531 57.566406 -94.628906 60.640625 -95.796875 C 63.722656 -96.972656 66.800781 -97.5625 69.875 -97.5625 Z M 57.578125 -61.53125 C 57.867188 -63.582031 57.644531 -65.265625 56.90625 -66.578125 C 56.175781 -67.898438 55.007812 -68.5625 53.40625 -68.5625 C 51.789062 -68.5625 50.429688 -67.898438 49.328125 -66.578125 C 48.234375 -65.265625 47.539062 -63.582031 47.25 -61.53125 L 44.609375 -40.4375 C 44.316406 -38.382812 44.609375 -36.695312 45.484375 -35.375 C 46.367188 -34.0625 47.539062 -33.40625 49 -33.40625 C 50.46875 -33.40625 51.785156 -34.0625 52.953125 -35.375 C 54.128906 -36.695312 54.863281 -38.382812 55.15625 -40.4375 Z M 57.578125 -61.53125 "/></g></g></g></svg>