<svg xmlns="http://www.w3.org/2000/svg" xmlns:xlink="http://www.w3.org/1999/xlink" width="450" zoomAndPan="magnify" viewBox="0 0 337.5 337.500003" height="450" preserveAspectRatio="xMidYMid meet" version="1.0"><defs><g/><clipPath id="id1"><path d="M 0 0 L 337 0 L 337 337 L 0 337 Z M 0 0 " clip-rule="nonzero"/></clipPath><clipPath id="id2"><path d="M 0 0 L 337 0 L 337 337 L 0 337 Z M 0 0 " clip-rule="nonzero"/></clipPath><clipPath id="id3"><path d="M 168.75 0 C 75.550781 0 0 75.550781 0 168.75 C 0 261.949219 75.550781 337.5 168.75 337.5 C 261.949219 337.5 337.5 261.949219 337.5 168.75 C 337.5 75.550781 261.949219 0 168.75 0 " clip-rule="nonzero"/></clipPath></defs><g clip-path="url(#id1)"><path fill="#14c38e" d="M 168.75 0 C 75.550781 0 0 75.550781 0 168.75 C 0 261.949219 75.550781 337.5 168.75 337.5 C 261.949219 337.5 337.5 261.949219 337.5 168.75 C 337.5 75.550781 261.949219 0 168.75 0 " fill-opacity="1" fill-rule="nonzero"/></g><g clip-path="url(#id2)"><g clip-path="url(#id3)"><path stroke-linecap="butt" transform="matrix(0.75, 0, 0, 0.75, 0, 0.0000114852)" fill="none" stroke-linejoin="miter" d="M 225.000012 -0.0000153136 C 100.73438 -0.0000153136 0 100.734365 0 224.999996 C 0 349.265628 100.73438 450.000008 225.000012 450.000008 C 349.265643 450.000008 450.000023 349.265628 450.000023 224.999996 C 450.000023 100.734365 349.265643 -0.0000153136 225.000012 -0.0000153136 " stroke="#b8f1b0" stroke-width="32" stroke-opacity="1" stroke-miterlimit="4"/></g></g><g fill="#d32f23" fill-opacity="0.4196"><g transform="translate(120.224341, 253.360711)"><g><path d="M 84.171875 -80.203125 C 83.578125 -79.617188 83.578125 -79.109375 84.171875 -78.671875 C 88.703125 -75.453125 91.703125 -71.054688 93.171875 -65.484375 C 94.203125 -61.816406 94.71875 -57.566406 94.71875 -52.734375 C 94.71875 -51.128906 94.566406 -48.710938 94.265625 -45.484375 C 93.535156 -38.742188 91.488281 -32.148438 88.125 -25.703125 C 83.875 -17.359375 77.789062 -10.691406 69.875 -5.703125 C 61.96875 -0.722656 53.253906 1.765625 43.734375 1.765625 C 34.210938 1.765625 26.046875 -0.6875 19.234375 -5.59375 C 12.421875 -10.507812 7.914062 -17.210938 5.71875 -25.703125 C 4.832031 -29.515625 4.390625 -33.472656 4.390625 -37.578125 C 4.390625 -41.085938 4.535156 -43.722656 4.828125 -45.484375 C 5.710938 -53.253906 7.617188 -59.921875 10.546875 -65.484375 C 13.328125 -71.054688 17.359375 -75.378906 22.640625 -78.453125 C 23.367188 -78.890625 23.515625 -79.398438 23.078125 -79.984375 C 18.828125 -83.359375 15.820312 -87.972656 14.0625 -93.828125 C 13.039062 -97.492188 12.53125 -101.597656 12.53125 -106.140625 C 12.53125 -107.609375 12.675781 -109.804688 12.96875 -112.734375 C 13.84375 -120.054688 15.742188 -126.425781 18.671875 -131.84375 C 22.921875 -139.613281 29 -145.769531 36.90625 -150.3125 C 44.820312 -154.851562 53.613281 -157.125 63.28125 -157.125 C 72.664062 -157.125 80.757812 -154.960938 87.5625 -150.640625 C 94.375 -146.316406 98.957031 -140.050781 101.3125 -131.84375 C 102.332031 -128.1875 102.84375 -123.867188 102.84375 -118.890625 C 102.84375 -110.097656 100.71875 -101.742188 96.46875 -93.828125 C 93.394531 -88.117188 89.296875 -83.578125 84.171875 -80.203125 Z M 51.203125 -103.0625 C 50.910156 -100.425781 51.128906 -98.300781 51.859375 -96.6875 C 52.585938 -95.070312 53.757812 -94.265625 55.375 -94.265625 C 56.988281 -94.265625 58.414062 -95.070312 59.65625 -96.6875 C 60.90625 -98.300781 61.675781 -100.425781 61.96875 -103.0625 L 63.0625 -113.171875 C 63.351562 -115.660156 63.132812 -117.707031 62.40625 -119.3125 C 61.675781 -120.925781 60.503906 -121.734375 58.890625 -121.734375 C 57.273438 -121.734375 55.878906 -120.960938 54.703125 -119.421875 C 53.535156 -117.890625 52.804688 -115.804688 52.515625 -113.171875 Z M 56.03125 -54.5 C 56.320312 -57.132812 56.066406 -59.253906 55.265625 -60.859375 C 54.460938 -62.472656 53.253906 -63.28125 51.640625 -63.28125 C 50.023438 -63.28125 48.628906 -62.472656 47.453125 -60.859375 C 46.285156 -59.253906 45.554688 -57.132812 45.265625 -54.5 L 43.734375 -42.1875 C 43.441406 -39.695312 43.695312 -37.644531 44.5 -36.03125 C 45.300781 -34.425781 46.507812 -33.625 48.125 -33.625 C 49.738281 -33.625 51.128906 -34.425781 52.296875 -36.03125 C 53.472656 -37.644531 54.207031 -39.695312 54.5 -42.1875 Z M 56.03125 -54.5 "/></g></g></g><g fill="#e3fcbf" fill-opacity="1"><g transform="translate(113.692187, 247.479133)"><g><path d="M 84.171875 -80.203125 C 83.578125 -79.617188 83.578125 -79.109375 84.171875 -78.671875 C 88.703125 -75.453125 91.703125 -71.054688 93.171875 -65.484375 C 94.203125 -61.816406 94.71875 -57.566406 94.71875 -52.734375 C 94.71875 -51.128906 94.566406 -48.710938 94.265625 -45.484375 C 93.535156 -38.742188 91.488281 -32.148438 88.125 -25.703125 C 83.875 -17.359375 77.789062 -10.691406 69.875 -5.703125 C 61.96875 -0.722656 53.253906 1.765625 43.734375 1.765625 C 34.210938 1.765625 26.046875 -0.6875 19.234375 -5.59375 C 12.421875 -10.507812 7.914062 -17.210938 5.71875 -25.703125 C 4.832031 -29.515625 4.390625 -33.472656 4.390625 -37.578125 C 4.390625 -41.085938 4.535156 -43.722656 4.828125 -45.484375 C 5.710938 -53.253906 7.617188 -59.921875 10.546875 -65.484375 C 13.328125 -71.054688 17.359375 -75.378906 22.640625 -78.453125 C 23.367188 -78.890625 23.515625 -79.398438 23.078125 -79.984375 C 18.828125 -83.359375 15.820312 -87.972656 14.0625 -93.828125 C 13.039062 -97.492188 12.53125 -101.597656 12.53125 -106.140625 C 12.53125 -107.609375 12.675781 -109.804688 12.96875 -112.734375 C 13.84375 -120.054688 15.742188 -126.425781 18.671875 -131.84375 C 22.921875 -139.613281 29 -145.769531 36.90625 -150.3125 C 44.820312 -154.851562 53.613281 -157.125 63.28125 -157.125 C 72.664062 -157.125 80.757812 -154.960938 87.5625 -150.640625 C 94.375 -146.316406 98.957031 -140.050781 101.3125 -131.84375 C 102.332031 -128.1875 102.84375 -123.867188 102.84375 -118.890625 C 102.84375 -110.097656 100.71875 -101.742188 96.46875 -93.828125 C 93.394531 -88.117188 89.296875 -83.578125 84.171875 -80.203125 Z M 51.203125 -103.0625 C 50.910156 -100.425781 51.128906 -98.300781 51.859375 -96.6875 C 52.585938 -95.070312 53.757812 -94.265625 55.375 -94.265625 C 56.988281 -94.265625 58.414062 -95.070312 59.65625 -96.6875 C 60.90625 -98.300781 61.675781 -100.425781 61.96875 -103.0625 L 63.0625 -113.171875 C 63.351562 -115.660156 63.132812 -117.707031 62.40625 -119.3125 C 61.675781 -120.925781 60.503906 -121.734375 58.890625 -121.734375 C 57.273438 -121.734375 55.878906 -120.960938 54.703125 -119.421875 C 53.535156 -117.890625 52.804688 -115.804688 52.515625 -113.171875 Z M 56.03125 -54.5 C 56.320312 -57.132812 56.066406 -59.253906 55.265625 -60.859375 C 54.460938 -62.472656 53.253906 -63.28125 51.640625 -63.28125 C 50.023438 -63.28125 48.628906 -62.472656 47.453125 -60.859375 C 46.285156 -59.253906 45.554688 -57.132812 45.265625 -54.5 L 43.734375 -42.1875 C 43.441406 -39.695312 43.695312 -37.644531 44.5 -36.03125 C 45.300781 -34.425781 46.507812 -33.625 48.125 -33.625 C 49.738281 -33.625 51.128906 -34.425781 52.296875 -36.03125 C 53.472656 -37.644531 54.207031 -39.695312 54.5 -42.1875 Z M 56.03125 -54.5 "/></g></g></g></svg>