<svg xmlns="http://www.w3.org/2000/svg" xmlns:xlink="http://www.w3.org/1999/xlink" width="1024" zoomAndPan="magnify" viewBox="0 0 768 767.999994" height="1024" preserveAspectRatio="xMidYMid meet" version="1.0"><path fill="#56b48c" d="M 384 0 C 171.957031 0 0 171.957031 0 384 C 0 596.042969 171.957031 768 384 768 C 596.042969 768 768 596.042969 768 384 C 768 171.957031 596.042969 0 384 0 Z M 384 0 " fill-opacity="1" fill-rule="nonzero"/><path fill="#e3fcbf" d="M 497.296875 400.40625 C 492.34375 386.941406 485.222656 375.332031 476.09375 365.425781 C 466.960938 355.519531 456.28125 347.9375 444.054688 342.519531 C 431.824219 337.101562 418.667969 334.472656 404.277344 334.472656 C 389.261719 334.472656 375.796875 337.414062 363.722656 343.292969 C 351.652344 349.175781 340.507812 358.308594 330.136719 370.535156 C 332.148438 329.363281 338.652344 300.886719 349.640625 284.789062 C 355.058594 276.894531 361.710938 270.703125 369.761719 266.058594 C 377.652344 261.417969 385.703125 259.09375 393.75 259.09375 C 403.65625 259.09375 412.480469 261.882812 420.0625 267.296875 C 427.648438 272.871094 433.0625 280.144531 436.625 289.121094 C 439.253906 296.242188 443.125 301.8125 448.695312 305.839844 C 454.113281 309.863281 459.996094 311.875 466.339844 311.875 C 473.617188 311.875 479.496094 309.398438 484.296875 304.289062 C 488.9375 299.183594 491.261719 293.609375 491.261719 287.417969 C 491.261719 277.203125 487.546875 266.371094 479.960938 255.226562 C 472.53125 244.082031 461.386719 234.640625 446.683594 227.058594 C 431.980469 219.472656 414.957031 215.757812 395.609375 215.757812 C 375.488281 215.757812 357.535156 219.472656 341.902344 227.058594 C 326.113281 234.640625 312.804688 245.785156 301.8125 260.644531 C 290.824219 275.5 282.3125 294.074219 276.429688 316.671875 C 270.550781 339.269531 267.609375 364.808594 267.609375 393.285156 C 267.609375 428.421875 272.40625 457.984375 282.15625 482.28125 C 291.90625 506.582031 305.992188 524.847656 324.410156 537.226562 C 342.828125 549.609375 364.808594 555.800781 390.191406 555.800781 C 412.324219 555.800781 431.980469 551.003906 449.46875 541.253906 C 466.960938 531.5 480.582031 517.882812 490.332031 500.546875 C 500.082031 483.210938 504.878906 463.863281 504.878906 442.503906 C 504.726562 427.800781 502.25 413.871094 497.296875 400.40625 M 429.195312 492.5 C 419.289062 505.035156 406.597656 511.226562 391.273438 511.226562 C 375.175781 511.226562 362.023438 504.414062 351.34375 490.796875 C 340.816406 477.175781 335.398438 460.148438 335.398438 439.71875 C 335.398438 427.027344 338.03125 415.882812 343.292969 406.441406 C 348.554688 397 355.367188 389.726562 363.878906 384.773438 C 372.390625 379.820312 381.367188 377.34375 390.808594 377.34375 C 400.5625 377.34375 409.691406 379.976562 417.742188 385.238281 C 425.789062 390.5 432.289062 398.085938 437.089844 407.835938 C 441.730469 417.742188 444.054688 429.503906 444.054688 443.277344 C 444.207031 463.710938 439.253906 480.117188 429.195312 492.5 " fill-opacity="1" fill-rule="nonzero"/></svg>