<svg xmlns="http://www.w3.org/2000/svg" xmlns:xlink="http://www.w3.org/1999/xlink" width="341" zoomAndPan="magnify" viewBox="0 0 255.75 337.499995" height="450" preserveAspectRatio="xMidYMid meet" version="1.0"><path fill="#ffbd59" d="M 87.710938 307.601562 C 73.410156 307.46875 49.75 294.316406 50.574219 269.039062 C 50.574219 269.039062 46.722656 165.925781 43.703125 123.917969 C 40.796875 83.464844 72.835938 65.941406 99.046875 65.941406 C 125.742188 65.941406 152.484375 89.453125 151.0625 127.015625 C 149.585938 166.039062 140.933594 267.8125 140.933594 267.8125 C 139.925781 281.613281 132.605469 308.027344 87.710938 307.601562 " fill-opacity="1" fill-rule="nonzero"/><path fill="#ffbd59" d="M 167.628906 307.601562 C 153.328125 307.46875 129.667969 294.316406 130.492188 269.039062 C 130.492188 269.039062 126.640625 165.925781 123.625 123.917969 C 120.714844 83.464844 152.753906 65.941406 178.964844 65.941406 C 205.65625 65.941406 232.402344 89.453125 230.980469 127.015625 C 229.503906 166.039062 220.851562 267.8125 220.851562 267.8125 C 219.84375 281.613281 212.523438 308.027344 167.628906 307.601562 " fill-opacity="1" fill-rule="nonzero"/><path fill="#1b2417" d="M 178.851562 94.960938 C 178.851562 100.9375 157.082031 105.78125 130.222656 105.78125 C 103.367188 105.78125 81.59375 100.9375 81.59375 94.960938 C 81.59375 88.980469 103.367188 84.136719 130.222656 84.136719 C 157.082031 84.136719 178.851562 88.980469 178.851562 94.960938 " fill-opacity="1" fill-rule="nonzero"/><path fill="#ff914d" d="M 172.699219 326.878906 C 158.457031 325.5625 135.96875 310.496094 138.890625 285.375 C 138.890625 285.375 143.605469 182.296875 144.085938 140.183594 C 144.539062 99.628906 177.925781 84.820312 204.042969 86.988281 C 230.648438 89.199219 255.34375 114.84375 250.816406 152.164062 C 246.105469 190.925781 229.039062 291.632812 229.039062 291.632812 C 226.890625 305.300781 217.402344 331.019531 172.699219 326.878906 " fill-opacity="1" fill-rule="nonzero"/><path fill="#ff914d" d="M 75.367188 327.726562 C 61.160156 329.398438 36.03125 319.332031 33.660156 294.15625 C 33.660156 294.15625 16.820312 192.347656 8.519531 151.054688 C 0.527344 111.296875 30.097656 89.871094 56.09375 86.570312 L 56.097656 86.570312 C 82.582031 83.207031 112.078125 103.15625 115.410156 140.597656 C 118.875 179.496094 123.136719 281.542969 123.136719 281.542969 C 123.882812 295.367188 119.957031 322.488281 75.367188 327.726562 " fill-opacity="1" fill-rule="nonzero"/><path fill="#22381b" d="M 113.117188 100.320312 C 113.117188 100.320312 119.714844 12.375 177.238281 6.386719 C 234.757812 0.398438 204.496094 41.609375 194.796875 35.738281 C 188.246094 31.773438 166.601562 26.554688 153.660156 53.042969 C 145.769531 69.203125 146.558594 94.292969 151.117188 100.320312 L 113.117188 100.320312 " fill-opacity="1" fill-rule="nonzero"/><path fill="#ffbd59" d="M 130.714844 336.957031 C 105.476562 336.957031 83.144531 323.667969 83.96875 298.390625 C 83.96875 298.390625 80.121094 195.277344 77.105469 153.269531 C 74.195312 112.816406 106.234375 95.292969 132.441406 95.292969 C 159.136719 95.292969 185.878906 118.804688 184.460938 156.367188 C 182.984375 195.386719 174.332031 297.160156 174.332031 297.160156 C 173.324219 310.960938 172.464844 336.957031 130.714844 336.957031 " fill-opacity="1" fill-rule="nonzero"/><path fill="#ffde59" d="M 165.480469 144.027344 L 162.265625 195.183594 C 162.15625 196.902344 163.78125 198.367188 165.894531 198.460938 L 166.96875 198.507812 C 169.09375 198.601562 170.90625 197.277344 171.019531 195.550781 L 174.230469 144.390625 C 174.339844 142.675781 172.71875 141.207031 170.605469 141.113281 L 169.527344 141.066406 C 167.402344 140.972656 165.589844 142.296875 165.480469 144.027344 " fill-opacity="1" fill-rule="nonzero"/><path fill="#ffde59" d="M 161.332031 205.503906 L 161.527344 202.398438 C 161.570312 201.714844 162.289062 201.183594 163.136719 201.222656 L 168.691406 201.464844 C 169.53125 201.503906 170.179688 202.085938 170.132812 202.773438 L 169.9375 205.875 C 169.894531 206.5625 169.175781 207.089844 168.328125 207.050781 L 162.777344 206.808594 C 161.9375 206.769531 161.289062 206.183594 161.332031 205.503906 " fill-opacity="1" fill-rule="nonzero"/></svg>