<svg xmlns="http://www.w3.org/2000/svg" xmlns:xlink="http://www.w3.org/1999/xlink" width="1024" zoomAndPan="magnify" viewBox="0 0 768 767.999994" height="1024" preserveAspectRatio="xMidYMid meet" version="1.0"><defs><g/><clipPath id="id1"><path d="M 384 0 C 171.921875 0 0 171.921875 0 384 C 0 596.078125 171.921875 768 384 768 C 596.078125 768 768 596.078125 768 384 C 768 171.921875 596.078125 0 384 0 " clip-rule="nonzero"/></clipPath></defs><path fill="#14c38e" d="M 384 0 C 171.921875 0 0 171.921875 0 384 C 0 596.078125 171.921875 768 384 768 C 596.078125 768 768 596.078125 768 384 C 768 171.921875 596.078125 0 384 0 " fill-opacity="1" fill-rule="nonzero"/><g clip-path="url(#id1)"><path stroke-linecap="butt" transform="matrix(0.75, 0, 0, 0.75, 0.000003, 0.00002)" fill="none" stroke-linejoin="miter" d="M 512.000021 -0.0000266667 C 229.229174 -0.0000266667 -0.000004 229.229151 -0.000004 511.999999 C -0.000004 794.770846 229.229174 1024.000024 512.000021 1024.000024 C 794.770869 1024.000024 1024.000047 794.770846 1024.000047 511.999999 C 1024.000047 229.229151 794.770869 -0.0000266667 512.000021 -0.0000266667 " stroke="#000000" stroke-width="8" stroke-opacity="1" stroke-miterlimit="4"/></g><g fill="#e3fcbf" fill-opacity="1"><g transform="translate(55.869141, 575.059884)"><g><path d="M 293.40625 -313.09375 C 293.40625 -288.300781 285.835938 -267.015625 270.703125 -249.234375 C 255.578125 -231.460938 233.703125 -218.566406 205.078125 -210.546875 L 205.078125 -208.90625 C 271.804688 -200.519531 305.171875 -168.984375 305.171875 -114.296875 C 305.171875 -77.109375 290.445312 -47.847656 261 -26.515625 C 231.5625 -5.191406 190.679688 5.46875 138.359375 5.46875 C 116.847656 5.46875 96.929688 3.914062 78.609375 0.8125 C 60.296875 -2.28125 40.472656 -7.929688 19.140625 -16.140625 L 19.140625 -105.828125 C 36.640625 -96.890625 54.457031 -90.28125 72.59375 -86 C 90.738281 -81.71875 107.46875 -79.578125 122.78125 -79.578125 C 146.476562 -79.578125 163.75 -82.898438 174.59375 -89.546875 C 185.4375 -96.203125 190.859375 -106.640625 190.859375 -120.859375 C 190.859375 -131.796875 188.03125 -140.226562 182.375 -146.15625 C 176.726562 -152.082031 167.613281 -156.546875 155.03125 -159.546875 C 142.457031 -162.554688 126.054688 -164.0625 105.828125 -164.0625 L 81.21875 -164.0625 L 81.21875 -245.28125 L 106.375 -245.28125 C 161.238281 -245.28125 188.671875 -259.316406 188.671875 -287.390625 C 188.671875 -297.960938 184.613281 -305.800781 176.5 -310.90625 C 168.394531 -316.007812 157.503906 -318.5625 143.828125 -318.5625 C 118.304688 -318.5625 91.875 -309.992188 64.53125 -292.859375 L 19.6875 -365.046875 C 40.832031 -379.628906 62.476562 -390.019531 84.625 -396.21875 C 106.78125 -402.414062 132.164062 -405.515625 160.78125 -405.515625 C 202.164062 -405.515625 234.613281 -397.3125 258.125 -380.90625 C 281.644531 -364.5 293.40625 -341.894531 293.40625 -313.09375 Z M 293.40625 -313.09375 "/></g></g><g transform="translate(383.99998, 575.059884)"><g><path d="M 181.5625 -261.953125 C 204.53125 -261.953125 225.265625 -256.617188 243.765625 -245.953125 C 262.273438 -235.296875 276.679688 -220.210938 286.984375 -200.703125 C 297.285156 -181.203125 302.4375 -158.691406 302.4375 -133.171875 C 302.4375 -88.503906 288.988281 -54.226562 262.09375 -30.34375 C 235.207031 -6.46875 194.507812 5.46875 140 5.46875 C 93.332031 5.46875 55.234375 -1.734375 25.703125 -16.140625 L 25.703125 -104.734375 C 41.566406 -97.441406 59.476562 -91.425781 79.4375 -86.6875 C 99.394531 -81.945312 116.578125 -79.578125 130.984375 -79.578125 C 151.035156 -79.578125 166.4375 -83.8125 177.1875 -92.28125 C 187.945312 -100.757812 193.328125 -113.296875 193.328125 -129.890625 C 193.328125 -145.203125 187.859375 -157.140625 176.921875 -165.703125 C 165.984375 -174.273438 149.394531 -178.5625 127.15625 -178.5625 C 110.195312 -178.5625 91.875 -175.367188 72.1875 -168.984375 L 32.546875 -188.671875 L 47.578125 -399.78125 L 275.625 -399.78125 L 275.625 -309.8125 L 139.453125 -309.8125 L 134.53125 -257.03125 C 148.75 -259.769531 158.863281 -261.273438 164.875 -261.546875 C 170.894531 -261.816406 176.457031 -261.953125 181.5625 -261.953125 Z M 181.5625 -261.953125 "/></g></g></g></svg>