<svg xmlns="http://www.w3.org/2000/svg" xmlns:xlink="http://www.w3.org/1999/xlink" width="450" zoomAndPan="magnify" viewBox="0 0 337.5 337.500003" height="450" preserveAspectRatio="xMidYMid meet" version="1.0"><defs><g/><clipPath id="id1"><path d="M 0 0 L 337 0 L 337 337 L 0 337 Z M 0 0 " clip-rule="nonzero"/></clipPath><clipPath id="id2"><path d="M 0 0 L 337 0 L 337 337 L 0 337 Z M 0 0 " clip-rule="nonzero"/></clipPath><clipPath id="id3"><path d="M 168.75 0 C 75.550781 0 0 75.550781 0 168.75 C 0 261.949219 75.550781 337.5 168.75 337.5 C 261.949219 337.5 337.5 261.949219 337.5 168.75 C 337.5 75.550781 261.949219 0 168.75 0 " clip-rule="nonzero"/></clipPath></defs><g clip-path="url(#id1)"><path fill="#14c38e" d="M 168.75 0 C 75.550781 0 0 75.550781 0 168.75 C 0 261.949219 75.550781 337.5 168.75 337.5 C 261.949219 337.5 337.5 261.949219 337.5 168.75 C 337.5 75.550781 261.949219 0 168.75 0 " fill-opacity="1" fill-rule="nonzero"/></g><g clip-path="url(#id2)"><g clip-path="url(#id3)"><path stroke-linecap="butt" transform="matrix(0.75, 0, 0, 0.75, 0, 0.0000114852)" fill="none" stroke-linejoin="miter" d="M 225.000012 -0.0000153136 C 100.73438 -0.0000153136 0 100.734365 0 224.999996 C 0 349.265628 100.73438 450.000008 225.000012 450.000008 C 349.265643 450.000008 450.000023 349.265628 450.000023 224.999996 C 450.000023 100.734365 349.265643 -0.0000153136 225.000012 -0.0000153136 " stroke="#b8f1b0" stroke-width="32" stroke-opacity="1" stroke-miterlimit="4"/></g></g><g fill="#d32f23" fill-opacity="0.4196"><g transform="translate(71.111065, 253.360711)"><g><path d="M 104.59375 -153.828125 C 105.625 -153.828125 106.394531 -153.53125 106.90625 -152.9375 C 107.414062 -152.351562 107.597656 -151.550781 107.453125 -150.53125 L 103.71875 -121.078125 C 103.425781 -119.316406 102.769531 -117.925781 101.75 -116.90625 L 76.6875 -92.953125 C 76.25 -92.660156 76.066406 -92.367188 76.140625 -92.078125 C 76.210938 -91.785156 76.46875 -91.640625 76.90625 -91.640625 C 82.769531 -91.191406 87.53125 -88.550781 91.1875 -83.71875 C 94.851562 -78.882812 96.6875 -72.953125 96.6875 -65.921875 C 96.6875 -64.753906 96.539062 -63 96.25 -60.65625 L 93.609375 -37.796875 C 92.734375 -30.179688 90.023438 -23.367188 85.484375 -17.359375 C 80.941406 -11.347656 75.117188 -6.65625 68.015625 -3.28125 C 60.910156 0.0820312 53.109375 1.765625 44.609375 1.765625 C 32.160156 1.765625 22.125 -1.421875 14.5 -7.796875 C 6.882812 -14.171875 3.078125 -22.488281 3.078125 -32.75 C 3.078125 -34.9375 3.148438 -36.617188 3.296875 -37.796875 L 4.609375 -47.6875 C 4.753906 -48.707031 5.117188 -49.507812 5.703125 -50.09375 C 6.296875 -50.6875 7.101562 -50.984375 8.125 -50.984375 L 41.75 -50.984375 C 42.78125 -50.984375 43.550781 -50.6875 44.0625 -50.09375 C 44.570312 -49.507812 44.753906 -48.707031 44.609375 -47.6875 L 43.953125 -41.75 C 43.660156 -39.40625 43.953125 -37.460938 44.828125 -35.921875 C 45.703125 -34.390625 47.019531 -33.625 48.78125 -33.625 C 50.6875 -33.625 52.296875 -34.351562 53.609375 -35.8125 C 54.929688 -37.28125 55.738281 -39.257812 56.03125 -41.75 L 59.109375 -66.578125 C 59.398438 -68.921875 59.070312 -70.863281 58.125 -72.40625 C 57.175781 -73.945312 55.75 -74.71875 53.84375 -74.71875 C 51.5 -74.71875 48.859375 -73.472656 45.921875 -70.984375 C 44.898438 -70.242188 44.097656 -69.875 43.515625 -69.875 C 42.921875 -69.875 42.257812 -70.242188 41.53125 -70.984375 L 26.8125 -89.21875 C 26.375 -89.945312 26.15625 -90.609375 26.15625 -91.203125 C 26.15625 -92.367188 26.59375 -93.242188 27.46875 -93.828125 L 54.28125 -117.34375 C 54.570312 -117.632812 54.679688 -117.925781 54.609375 -118.21875 C 54.535156 -118.519531 54.28125 -118.671875 53.84375 -118.671875 L 20 -118.671875 C 18.96875 -118.671875 18.195312 -118.960938 17.6875 -119.546875 C 17.175781 -120.128906 16.992188 -120.9375 17.140625 -121.96875 L 20.65625 -150.53125 C 20.800781 -151.550781 21.164062 -152.351562 21.75 -152.9375 C 22.34375 -153.53125 23.148438 -153.828125 24.171875 -153.828125 Z M 104.59375 -153.828125 "/></g></g></g><g fill="#d32f23" fill-opacity="0.4196"><g transform="translate(167.797608, 253.360711)"><g><path d="M 44.171875 2.640625 C 31.859375 2.640625 22.113281 -0.984375 14.9375 -8.234375 C 7.757812 -15.492188 4.171875 -25.273438 4.171875 -37.578125 C 4.171875 -39.191406 4.316406 -41.753906 4.609375 -45.265625 L 12.53125 -108.5625 C 13.695312 -118.082031 16.585938 -126.46875 21.203125 -133.71875 C 25.816406 -140.96875 31.820312 -146.570312 39.21875 -150.53125 C 46.625 -154.488281 54.796875 -156.46875 63.734375 -156.46875 C 76.035156 -156.46875 85.8125 -152.835938 93.0625 -145.578125 C 100.3125 -138.328125 103.9375 -128.550781 103.9375 -116.25 C 103.9375 -114.632812 103.789062 -112.070312 103.5 -108.5625 L 95.8125 -45.265625 C 94.632812 -35.742188 91.703125 -27.359375 87.015625 -20.109375 C 82.328125 -12.859375 76.285156 -7.253906 68.890625 -3.296875 C 61.492188 0.660156 53.253906 2.640625 44.171875 2.640625 Z M 48.5625 -32.75 C 50.320312 -32.75 51.785156 -33.660156 52.953125 -35.484375 C 54.128906 -37.316406 54.9375 -39.769531 55.375 -42.84375 L 63.734375 -110.96875 L 63.953125 -113.609375 C 63.953125 -118.585938 62.410156 -121.078125 59.328125 -121.078125 C 57.722656 -121.078125 56.332031 -120.160156 55.15625 -118.328125 C 53.988281 -116.503906 53.179688 -114.050781 52.734375 -110.96875 L 44.390625 -42.84375 L 44.171875 -40.21875 C 44.171875 -37.875 44.535156 -36.039062 45.265625 -34.71875 C 46.003906 -33.40625 47.101562 -32.75 48.5625 -32.75 Z M 48.5625 -32.75 "/></g></g></g><g fill="#e3fcbf" fill-opacity="1"><g transform="translate(64.578911, 247.479133)"><g><path d="M 104.59375 -153.828125 C 105.625 -153.828125 106.394531 -153.53125 106.90625 -152.9375 C 107.414062 -152.351562 107.597656 -151.550781 107.453125 -150.53125 L 103.71875 -121.078125 C 103.425781 -119.316406 102.769531 -117.925781 101.75 -116.90625 L 76.6875 -92.953125 C 76.25 -92.660156 76.066406 -92.367188 76.140625 -92.078125 C 76.210938 -91.785156 76.46875 -91.640625 76.90625 -91.640625 C 82.769531 -91.191406 87.53125 -88.550781 91.1875 -83.71875 C 94.851562 -78.882812 96.6875 -72.953125 96.6875 -65.921875 C 96.6875 -64.753906 96.539062 -63 96.25 -60.65625 L 93.609375 -37.796875 C 92.734375 -30.179688 90.023438 -23.367188 85.484375 -17.359375 C 80.941406 -11.347656 75.117188 -6.65625 68.015625 -3.28125 C 60.910156 0.0820312 53.109375 1.765625 44.609375 1.765625 C 32.160156 1.765625 22.125 -1.421875 14.5 -7.796875 C 6.882812 -14.171875 3.078125 -22.488281 3.078125 -32.75 C 3.078125 -34.9375 3.148438 -36.617188 3.296875 -37.796875 L 4.609375 -47.6875 C 4.753906 -48.707031 5.117188 -49.507812 5.703125 -50.09375 C 6.296875 -50.6875 7.101562 -50.984375 8.125 -50.984375 L 41.75 -50.984375 C 42.78125 -50.984375 43.550781 -50.6875 44.0625 -50.09375 C 44.570312 -49.507812 44.753906 -48.707031 44.609375 -47.6875 L 43.953125 -41.75 C 43.660156 -39.40625 43.953125 -37.460938 44.828125 -35.921875 C 45.703125 -34.390625 47.019531 -33.625 48.78125 -33.625 C 50.6875 -33.625 52.296875 -34.351562 53.609375 -35.8125 C 54.929688 -37.28125 55.738281 -39.257812 56.03125 -41.75 L 59.109375 -66.578125 C 59.398438 -68.921875 59.070312 -70.863281 58.125 -72.40625 C 57.175781 -73.945312 55.75 -74.71875 53.84375 -74.71875 C 51.5 -74.71875 48.859375 -73.472656 45.921875 -70.984375 C 44.898438 -70.242188 44.097656 -69.875 43.515625 -69.875 C 42.921875 -69.875 42.257812 -70.242188 41.53125 -70.984375 L 26.8125 -89.21875 C 26.375 -89.945312 26.15625 -90.609375 26.15625 -91.203125 C 26.15625 -92.367188 26.59375 -93.242188 27.46875 -93.828125 L 54.28125 -117.34375 C 54.570312 -117.632812 54.679688 -117.925781 54.609375 -118.21875 C 54.535156 -118.519531 54.28125 -118.671875 53.84375 -118.671875 L 20 -118.671875 C 18.96875 -118.671875 18.195312 -118.960938 17.6875 -119.546875 C 17.175781 -120.128906 16.992188 -120.9375 17.140625 -121.96875 L 20.65625 -150.53125 C 20.800781 -151.550781 21.164062 -152.351562 21.75 -152.9375 C 22.34375 -153.53125 23.148438 -153.828125 24.171875 -153.828125 Z M 104.59375 -153.828125 "/></g></g></g><g fill="#e3fcbf" fill-opacity="1"><g transform="translate(161.265454, 247.479133)"><g><path d="M 44.171875 2.640625 C 31.859375 2.640625 22.113281 -0.984375 14.9375 -8.234375 C 7.757812 -15.492188 4.171875 -25.273438 4.171875 -37.578125 C 4.171875 -39.191406 4.316406 -41.753906 4.609375 -45.265625 L 12.53125 -108.5625 C 13.695312 -118.082031 16.585938 -126.46875 21.203125 -133.71875 C 25.816406 -140.96875 31.820312 -146.570312 39.21875 -150.53125 C 46.625 -154.488281 54.796875 -156.46875 63.734375 -156.46875 C 76.035156 -156.46875 85.8125 -152.835938 93.0625 -145.578125 C 100.3125 -138.328125 103.9375 -128.550781 103.9375 -116.25 C 103.9375 -114.632812 103.789062 -112.070312 103.5 -108.5625 L 95.8125 -45.265625 C 94.632812 -35.742188 91.703125 -27.359375 87.015625 -20.109375 C 82.328125 -12.859375 76.285156 -7.253906 68.890625 -3.296875 C 61.492188 0.660156 53.253906 2.640625 44.171875 2.640625 Z M 48.5625 -32.75 C 50.320312 -32.75 51.785156 -33.660156 52.953125 -35.484375 C 54.128906 -37.316406 54.9375 -39.769531 55.375 -42.84375 L 63.734375 -110.96875 L 63.953125 -113.609375 C 63.953125 -118.585938 62.410156 -121.078125 59.328125 -121.078125 C 57.722656 -121.078125 56.332031 -120.160156 55.15625 -118.328125 C 53.988281 -116.503906 53.179688 -114.050781 52.734375 -110.96875 L 44.390625 -42.84375 L 44.171875 -40.21875 C 44.171875 -37.875 44.535156 -36.039062 45.265625 -34.71875 C 46.003906 -33.40625 47.101562 -32.75 48.5625 -32.75 Z M 48.5625 -32.75 "/></g></g></g></svg>