<svg xmlns="http://www.w3.org/2000/svg" xmlns:xlink="http://www.w3.org/1999/xlink" width="450" zoomAndPan="magnify" viewBox="0 0 337.5 337.500003" height="450" preserveAspectRatio="xMidYMid meet" version="1.0"><defs><g/><clipPath id="id1"><path d="M 0 0 L 337 0 L 337 337 L 0 337 Z M 0 0 " clip-rule="nonzero"/></clipPath><clipPath id="id2"><path d="M 0 0 L 337 0 L 337 337 L 0 337 Z M 0 0 " clip-rule="nonzero"/></clipPath><clipPath id="id3"><path d="M 168.75 0 C 75.550781 0 0 75.550781 0 168.75 C 0 261.949219 75.550781 337.5 168.75 337.5 C 261.949219 337.5 337.5 261.949219 337.5 168.75 C 337.5 75.550781 261.949219 0 168.75 0 " clip-rule="nonzero"/></clipPath></defs><g clip-path="url(#id1)"><path fill="#14c38e" d="M 168.75 0 C 75.550781 0 0 75.550781 0 168.75 C 0 261.949219 75.550781 337.5 168.75 337.5 C 261.949219 337.5 337.5 261.949219 337.5 168.75 C 337.5 75.550781 261.949219 0 168.75 0 " fill-opacity="1" fill-rule="nonzero"/></g><g clip-path="url(#id2)"><g clip-path="url(#id3)"><path stroke-linecap="butt" transform="matrix(0.75, 0, 0, 0.75, 0, 0.0000114852)" fill="none" stroke-linejoin="miter" d="M 225.000012 -0.0000153136 C 100.73438 -0.0000153136 0 100.734365 0 224.999996 C 0 349.265628 100.73438 450.000008 225.000012 450.000008 C 349.265643 450.000008 450.000023 349.265628 450.000023 224.999996 C 450.000023 100.734365 349.265643 -0.0000153136 225.000012 -0.0000153136 " stroke="#b8f1b0" stroke-width="32" stroke-opacity="1" stroke-miterlimit="4"/></g></g><g fill="#d32f23" fill-opacity="0.4196"><g transform="translate(71.005596, 253.360711)"><g><path d="M 104.59375 -153.828125 C 105.625 -153.828125 106.394531 -153.53125 106.90625 -152.9375 C 107.414062 -152.351562 107.597656 -151.550781 107.453125 -150.53125 L 103.71875 -121.078125 C 103.425781 -119.316406 102.769531 -117.925781 101.75 -116.90625 L 76.6875 -92.953125 C 76.25 -92.660156 76.066406 -92.367188 76.140625 -92.078125 C 76.210938 -91.785156 76.46875 -91.640625 76.90625 -91.640625 C 82.769531 -91.191406 87.53125 -88.550781 91.1875 -83.71875 C 94.851562 -78.882812 96.6875 -72.953125 96.6875 -65.921875 C 96.6875 -64.753906 96.539062 -63 96.25 -60.65625 L 93.609375 -37.796875 C 92.734375 -30.179688 90.023438 -23.367188 85.484375 -17.359375 C 80.941406 -11.347656 75.117188 -6.65625 68.015625 -3.28125 C 60.910156 0.0820312 53.109375 1.765625 44.609375 1.765625 C 32.160156 1.765625 22.125 -1.421875 14.5 -7.796875 C 6.882812 -14.171875 3.078125 -22.488281 3.078125 -32.75 C 3.078125 -34.9375 3.148438 -36.617188 3.296875 -37.796875 L 4.609375 -47.6875 C 4.753906 -48.707031 5.117188 -49.507812 5.703125 -50.09375 C 6.296875 -50.6875 7.101562 -50.984375 8.125 -50.984375 L 41.75 -50.984375 C 42.78125 -50.984375 43.550781 -50.6875 44.0625 -50.09375 C 44.570312 -49.507812 44.753906 -48.707031 44.609375 -47.6875 L 43.953125 -41.75 C 43.660156 -39.40625 43.953125 -37.460938 44.828125 -35.921875 C 45.703125 -34.390625 47.019531 -33.625 48.78125 -33.625 C 50.6875 -33.625 52.296875 -34.351562 53.609375 -35.8125 C 54.929688 -37.28125 55.738281 -39.257812 56.03125 -41.75 L 59.109375 -66.578125 C 59.398438 -68.921875 59.070312 -70.863281 58.125 -72.40625 C 57.175781 -73.945312 55.75 -74.71875 53.84375 -74.71875 C 51.5 -74.71875 48.859375 -73.472656 45.921875 -70.984375 C 44.898438 -70.242188 44.097656 -69.875 43.515625 -69.875 C 42.921875 -69.875 42.257812 -70.242188 41.53125 -70.984375 L 26.8125 -89.21875 C 26.375 -89.945312 26.15625 -90.609375 26.15625 -91.203125 C 26.15625 -92.367188 26.59375 -93.242188 27.46875 -93.828125 L 54.28125 -117.34375 C 54.570312 -117.632812 54.679688 -117.925781 54.609375 -118.21875 C 54.535156 -118.519531 54.28125 -118.671875 53.84375 -118.671875 L 20 -118.671875 C 18.96875 -118.671875 18.195312 -118.960938 17.6875 -119.546875 C 17.175781 -120.128906 16.992188 -120.9375 17.140625 -121.96875 L 20.65625 -150.53125 C 20.800781 -151.550781 21.164062 -152.351562 21.75 -152.9375 C 22.34375 -153.53125 23.148438 -153.828125 24.171875 -153.828125 Z M 104.59375 -153.828125 "/></g></g></g><g fill="#d32f23" fill-opacity="0.4196"><g transform="translate(167.692139, 253.360711)"><g><path d="M 69.875 -97.5625 C 78.8125 -97.5625 85.769531 -94.703125 90.75 -88.984375 C 95.738281 -83.273438 98.234375 -75.367188 98.234375 -65.265625 C 98.234375 -61.742188 98.082031 -59.035156 97.78125 -57.140625 L 95.375 -37.578125 C 93.90625 -25.273438 88.628906 -15.640625 79.546875 -8.671875 C 70.460938 -1.710938 58.960938 1.765625 45.046875 1.765625 C 32.003906 1.765625 21.859375 -1.382812 14.609375 -7.6875 C 7.359375 -13.988281 4.023438 -23.4375 4.609375 -36.03125 C 4.753906 -37.0625 4.828125 -38.304688 4.828125 -39.765625 C 4.828125 -41.234375 4.976562 -42.921875 5.28125 -44.828125 L 13.40625 -115.15625 C 14.875 -127.601562 20.1875 -137.453125 29.34375 -144.703125 C 38.5 -151.953125 49.960938 -155.578125 63.734375 -155.578125 C 75.742188 -155.578125 85.375 -152.5 92.625 -146.34375 C 99.875 -140.195312 103.5 -131.773438 103.5 -121.078125 C 103.5 -119.765625 103.351562 -117.789062 103.0625 -115.15625 L 101.96875 -106.578125 C 101.820312 -105.554688 101.414062 -104.75 100.75 -104.15625 C 100.09375 -103.570312 99.328125 -103.28125 98.453125 -103.28125 L 64.609375 -103.28125 C 63.722656 -103.28125 63.023438 -103.570312 62.515625 -104.15625 C 62.003906 -104.75 61.820312 -105.554688 61.96875 -106.578125 L 62.625 -112.296875 C 62.769531 -114.347656 62.476562 -116.03125 61.75 -117.34375 C 61.019531 -118.664062 60.140625 -119.328125 59.109375 -119.328125 C 57.648438 -119.328125 56.367188 -118.664062 55.265625 -117.34375 C 54.171875 -116.03125 53.550781 -114.347656 53.40625 -112.296875 L 50.984375 -91.640625 C 50.835938 -91.191406 50.910156 -90.894531 51.203125 -90.75 C 51.492188 -90.601562 51.785156 -90.675781 52.078125 -90.96875 C 54.710938 -93.019531 57.566406 -94.628906 60.640625 -95.796875 C 63.722656 -96.972656 66.800781 -97.5625 69.875 -97.5625 Z M 57.578125 -61.53125 C 57.867188 -63.582031 57.644531 -65.265625 56.90625 -66.578125 C 56.175781 -67.898438 55.007812 -68.5625 53.40625 -68.5625 C 51.789062 -68.5625 50.429688 -67.898438 49.328125 -66.578125 C 48.234375 -65.265625 47.539062 -63.582031 47.25 -61.53125 L 44.609375 -40.4375 C 44.316406 -38.382812 44.609375 -36.695312 45.484375 -35.375 C 46.367188 -34.0625 47.539062 -33.40625 49 -33.40625 C 50.46875 -33.40625 51.785156 -34.0625 52.953125 -35.375 C 54.128906 -36.695312 54.863281 -38.382812 55.15625 -40.4375 Z M 57.578125 -61.53125 "/></g></g></g><g fill="#e3fcbf" fill-opacity="1"><g transform="translate(64.473443, 247.479133)"><g><path d="M 104.59375 -153.828125 C 105.625 -153.828125 106.394531 -153.53125 106.90625 -152.9375 C 107.414062 -152.351562 107.597656 -151.550781 107.453125 -150.53125 L 103.71875 -121.078125 C 103.425781 -119.316406 102.769531 -117.925781 101.75 -116.90625 L 76.6875 -92.953125 C 76.25 -92.660156 76.066406 -92.367188 76.140625 -92.078125 C 76.210938 -91.785156 76.46875 -91.640625 76.90625 -91.640625 C 82.769531 -91.191406 87.53125 -88.550781 91.1875 -83.71875 C 94.851562 -78.882812 96.6875 -72.953125 96.6875 -65.921875 C 96.6875 -64.753906 96.539062 -63 96.25 -60.65625 L 93.609375 -37.796875 C 92.734375 -30.179688 90.023438 -23.367188 85.484375 -17.359375 C 80.941406 -11.347656 75.117188 -6.65625 68.015625 -3.28125 C 60.910156 0.0820312 53.109375 1.765625 44.609375 1.765625 C 32.160156 1.765625 22.125 -1.421875 14.5 -7.796875 C 6.882812 -14.171875 3.078125 -22.488281 3.078125 -32.75 C 3.078125 -34.9375 3.148438 -36.617188 3.296875 -37.796875 L 4.609375 -47.6875 C 4.753906 -48.707031 5.117188 -49.507812 5.703125 -50.09375 C 6.296875 -50.6875 7.101562 -50.984375 8.125 -50.984375 L 41.75 -50.984375 C 42.78125 -50.984375 43.550781 -50.6875 44.0625 -50.09375 C 44.570312 -49.507812 44.753906 -48.707031 44.609375 -47.6875 L 43.953125 -41.75 C 43.660156 -39.40625 43.953125 -37.460938 44.828125 -35.921875 C 45.703125 -34.390625 47.019531 -33.625 48.78125 -33.625 C 50.6875 -33.625 52.296875 -34.351562 53.609375 -35.8125 C 54.929688 -37.28125 55.738281 -39.257812 56.03125 -41.75 L 59.109375 -66.578125 C 59.398438 -68.921875 59.070312 -70.863281 58.125 -72.40625 C 57.175781 -73.945312 55.75 -74.71875 53.84375 -74.71875 C 51.5 -74.71875 48.859375 -73.472656 45.921875 -70.984375 C 44.898438 -70.242188 44.097656 -69.875 43.515625 -69.875 C 42.921875 -69.875 42.257812 -70.242188 41.53125 -70.984375 L 26.8125 -89.21875 C 26.375 -89.945312 26.15625 -90.609375 26.15625 -91.203125 C 26.15625 -92.367188 26.59375 -93.242188 27.46875 -93.828125 L 54.28125 -117.34375 C 54.570312 -117.632812 54.679688 -117.925781 54.609375 -118.21875 C 54.535156 -118.519531 54.28125 -118.671875 53.84375 -118.671875 L 20 -118.671875 C 18.96875 -118.671875 18.195312 -118.960938 17.6875 -119.546875 C 17.175781 -120.128906 16.992188 -120.9375 17.140625 -121.96875 L 20.65625 -150.53125 C 20.800781 -151.550781 21.164062 -152.351562 21.75 -152.9375 C 22.34375 -153.53125 23.148438 -153.828125 24.171875 -153.828125 Z M 104.59375 -153.828125 "/></g></g></g><g fill="#e3fcbf" fill-opacity="1"><g transform="translate(161.159985, 247.479133)"><g><path d="M 69.875 -97.5625 C 78.8125 -97.5625 85.769531 -94.703125 90.75 -88.984375 C 95.738281 -83.273438 98.234375 -75.367188 98.234375 -65.265625 C 98.234375 -61.742188 98.082031 -59.035156 97.78125 -57.140625 L 95.375 -37.578125 C 93.90625 -25.273438 88.628906 -15.640625 79.546875 -8.671875 C 70.460938 -1.710938 58.960938 1.765625 45.046875 1.765625 C 32.003906 1.765625 21.859375 -1.382812 14.609375 -7.6875 C 7.359375 -13.988281 4.023438 -23.4375 4.609375 -36.03125 C 4.753906 -37.0625 4.828125 -38.304688 4.828125 -39.765625 C 4.828125 -41.234375 4.976562 -42.921875 5.28125 -44.828125 L 13.40625 -115.15625 C 14.875 -127.601562 20.1875 -137.453125 29.34375 -144.703125 C 38.5 -151.953125 49.960938 -155.578125 63.734375 -155.578125 C 75.742188 -155.578125 85.375 -152.5 92.625 -146.34375 C 99.875 -140.195312 103.5 -131.773438 103.5 -121.078125 C 103.5 -119.765625 103.351562 -117.789062 103.0625 -115.15625 L 101.96875 -106.578125 C 101.820312 -105.554688 101.414062 -104.75 100.75 -104.15625 C 100.09375 -103.570312 99.328125 -103.28125 98.453125 -103.28125 L 64.609375 -103.28125 C 63.722656 -103.28125 63.023438 -103.570312 62.515625 -104.15625 C 62.003906 -104.75 61.820312 -105.554688 61.96875 -106.578125 L 62.625 -112.296875 C 62.769531 -114.347656 62.476562 -116.03125 61.75 -117.34375 C 61.019531 -118.664062 60.140625 -119.328125 59.109375 -119.328125 C 57.648438 -119.328125 56.367188 -118.664062 55.265625 -117.34375 C 54.171875 -116.03125 53.550781 -114.347656 53.40625 -112.296875 L 50.984375 -91.640625 C 50.835938 -91.191406 50.910156 -90.894531 51.203125 -90.75 C 51.492188 -90.601562 51.785156 -90.675781 52.078125 -90.96875 C 54.710938 -93.019531 57.566406 -94.628906 60.640625 -95.796875 C 63.722656 -96.972656 66.800781 -97.5625 69.875 -97.5625 Z M 57.578125 -61.53125 C 57.867188 -63.582031 57.644531 -65.265625 56.90625 -66.578125 C 56.175781 -67.898438 55.007812 -68.5625 53.40625 -68.5625 C 51.789062 -68.5625 50.429688 -67.898438 49.328125 -66.578125 C 48.234375 -65.265625 47.539062 -63.582031 47.25 -61.53125 L 44.609375 -40.4375 C 44.316406 -38.382812 44.609375 -36.695312 45.484375 -35.375 C 46.367188 -34.0625 47.539062 -33.40625 49 -33.40625 C 50.46875 -33.40625 51.785156 -34.0625 52.953125 -35.375 C 54.128906 -36.695312 54.863281 -38.382812 55.15625 -40.4375 Z M 57.578125 -61.53125 "/></g></g></g></svg>