<svg xmlns="http://www.w3.org/2000/svg" xmlns:xlink="http://www.w3.org/1999/xlink" width="1012" zoomAndPan="magnify" viewBox="0 0 759 421.499983" height="562" preserveAspectRatio="xMidYMid meet" version="1.0"><defs><clipPath id="id1"><path d="M 0.792969 338 L 758.207031 338 L 758.207031 421 L 0.792969 421 Z M 0.792969 338 " clip-rule="nonzero"/></clipPath><clipPath id="id2"><path d="M 14 0.253906 L 205 0.253906 L 205 126 L 14 126 Z M 14 0.253906 " clip-rule="nonzero"/></clipPath><clipPath id="id3"><path d="M 134 0.253906 L 295 0.253906 L 295 126 L 134 126 Z M 134 0.253906 " clip-rule="nonzero"/></clipPath><clipPath id="id4"><path d="M 254 0.253906 L 384 0.253906 L 384 126 L 254 126 Z M 254 0.253906 " clip-rule="nonzero"/></clipPath><clipPath id="id5"><path d="M 375 0.253906 L 505 0.253906 L 505 126 L 375 126 Z M 375 0.253906 " clip-rule="nonzero"/></clipPath><clipPath id="id6"><path d="M 464 0.253906 L 625 0.253906 L 625 126 L 464 126 Z M 464 0.253906 " clip-rule="nonzero"/></clipPath><clipPath id="id7"><path d="M 554 0.253906 L 745 0.253906 L 745 126 L 554 126 Z M 554 0.253906 " clip-rule="nonzero"/></clipPath></defs><path fill="#5aae51" d="M 753.738281 416.804688 L 5.265625 416.804688 L 5.265625 349.558594 C 5.265625 346.011719 8.140625 343.132812 11.691406 343.132812 L 747.304688 343.132812 C 750.859375 343.132812 753.738281 346.011719 753.738281 349.558594 L 753.738281 416.804688 " fill-opacity="1" fill-rule="nonzero"/><path fill="#499c3f" d="M 747.304688 343.132812 L 714.886719 343.132812 C 714.886719 371.765625 691.679688 394.988281 663.054688 394.988281 L 5.265625 394.988281 L 5.265625 416.804688 L 753.738281 416.804688 L 753.738281 349.558594 C 753.738281 346.011719 750.859375 343.132812 747.304688 343.132812 " fill-opacity="1" fill-rule="nonzero"/><path fill="#5aae51" d="M 197.171875 287.296875 C 197.171875 287.296875 159.066406 285.800781 169.421875 252.355469 C 169.421875 252.355469 197.171875 252.148438 197.171875 287.296875 " fill-opacity="1" fill-rule="nonzero"/><path fill="#5aae51" d="M 197.171875 287.296875 C 197.171875 287.296875 203.347656 258.21875 234.640625 267.484375 C 234.640625 267.484375 230.910156 295.921875 197.171875 287.296875 " fill-opacity="1" fill-rule="nonzero"/><path fill="#bebebe" d="M 110.109375 323.082031 C 99.109375 318.246094 88.109375 315.835938 77.113281 315.835938 C 66.109375 315.835938 55.113281 318.246094 44.117188 323.082031 C 44.117188 323.082031 27.21875 330.65625 18.460938 343.132812 L 135.761719 343.132812 C 127.003906 330.65625 110.109375 323.082031 110.109375 323.082031 " fill-opacity="1" fill-rule="nonzero"/><path fill="#bebebe" d="M 230.167969 323.082031 C 219.171875 318.246094 208.167969 315.835938 197.171875 315.835938 C 186.171875 315.835938 175.175781 318.246094 164.175781 323.082031 C 164.175781 323.082031 147.28125 330.65625 138.523438 343.132812 L 255.820312 343.132812 C 247.066406 330.65625 230.167969 323.082031 230.167969 323.082031 " fill-opacity="1" fill-rule="nonzero"/><path fill="#bebebe" d="M 350.230469 323.082031 C 339.226562 318.246094 328.230469 315.835938 317.234375 315.835938 C 306.234375 315.835938 295.234375 318.246094 284.238281 323.082031 C 284.238281 323.082031 267.34375 330.65625 258.585938 343.132812 L 375.878906 343.132812 C 367.128906 330.65625 350.230469 323.082031 350.230469 323.082031 " fill-opacity="1" fill-rule="nonzero"/><path fill="#bebebe" d="M 470.289062 323.082031 C 459.289062 318.246094 448.289062 315.835938 437.292969 315.835938 C 426.296875 315.835938 415.300781 318.246094 404.296875 323.082031 C 404.296875 323.082031 387.40625 330.65625 378.648438 343.132812 L 495.941406 343.132812 C 487.191406 330.65625 470.289062 323.082031 470.289062 323.082031 " fill-opacity="1" fill-rule="nonzero"/><path fill="#bebebe" d="M 590.351562 323.082031 C 579.351562 318.246094 568.355469 315.835938 557.355469 315.835938 C 546.359375 315.835938 535.355469 318.246094 524.359375 323.082031 C 524.359375 323.082031 507.460938 330.65625 498.707031 343.132812 L 616.003906 343.132812 C 607.246094 330.65625 590.351562 323.082031 590.351562 323.082031 " fill-opacity="1" fill-rule="nonzero"/><path fill="#bebebe" d="M 710.410156 323.082031 C 699.414062 318.246094 688.417969 315.835938 677.414062 315.835938 C 666.414062 315.835938 655.417969 318.246094 644.421875 323.082031 C 644.421875 323.082031 627.523438 330.65625 618.765625 343.132812 L 736.066406 343.132812 C 727.308594 330.65625 710.410156 323.082031 710.410156 323.082031 " fill-opacity="1" fill-rule="nonzero"/><path fill="#5aae51" d="M 77.105469 287.296875 C 77.105469 287.296875 39.007812 285.800781 49.355469 252.355469 C 49.355469 252.355469 77.105469 252.148438 77.105469 287.296875 " fill-opacity="1" fill-rule="nonzero"/><path fill="#5aae51" d="M 77.105469 287.296875 C 77.105469 287.296875 83.28125 258.21875 114.578125 267.484375 C 114.578125 267.484375 110.855469 295.921875 77.105469 287.296875 " fill-opacity="1" fill-rule="nonzero"/><path fill="#5aae51" d="M 317.234375 287.296875 C 317.234375 287.296875 279.128906 285.800781 289.476562 252.355469 C 289.476562 252.355469 317.234375 252.148438 317.234375 287.296875 " fill-opacity="1" fill-rule="nonzero"/><path fill="#5aae51" d="M 317.234375 287.296875 C 317.234375 287.296875 323.410156 258.21875 354.703125 267.484375 C 354.703125 267.484375 350.972656 295.921875 317.234375 287.296875 " fill-opacity="1" fill-rule="nonzero"/><path fill="#5aae51" d="M 437.292969 287.296875 C 437.292969 287.296875 399.191406 285.800781 409.546875 252.355469 C 409.546875 252.355469 437.292969 252.148438 437.292969 287.296875 " fill-opacity="1" fill-rule="nonzero"/><path fill="#5aae51" d="M 437.292969 287.296875 C 437.292969 287.296875 443.472656 258.21875 474.761719 267.484375 C 474.761719 267.484375 471.035156 295.921875 437.292969 287.296875 " fill-opacity="1" fill-rule="nonzero"/><path fill="#5aae51" d="M 557.359375 287.296875 C 557.359375 287.296875 519.25 285.800781 529.605469 252.355469 C 529.605469 252.355469 557.359375 252.148438 557.359375 287.296875 " fill-opacity="1" fill-rule="nonzero"/><path fill="#5aae51" d="M 557.359375 287.296875 C 557.359375 287.296875 563.53125 258.21875 594.820312 267.484375 C 594.820312 267.484375 591.097656 295.921875 557.359375 287.296875 " fill-opacity="1" fill-rule="nonzero"/><path fill="#5aae51" d="M 677.421875 287.296875 C 677.421875 287.296875 639.3125 285.800781 649.667969 252.355469 C 649.667969 252.355469 677.421875 252.148438 677.421875 287.296875 " fill-opacity="1" fill-rule="nonzero"/><path fill="#5aae51" d="M 677.421875 287.296875 C 677.421875 287.296875 683.589844 258.21875 714.886719 267.484375 C 714.886719 267.484375 711.160156 295.921875 677.421875 287.296875 " fill-opacity="1" fill-rule="nonzero"/><g clip-path="url(#id1)"><path fill="#1e1e1e" d="M 9.734375 412.324219 L 749.265625 412.324219 L 749.265625 349.558594 C 749.265625 348.484375 748.382812 347.605469 747.304688 347.605469 L 11.691406 347.605469 C 10.609375 347.605469 9.734375 348.484375 9.734375 349.558594 Z M 753.738281 421.28125 L 5.265625 421.28125 C 2.796875 421.28125 0.792969 419.269531 0.792969 416.804688 L 0.792969 349.558594 C 0.792969 343.550781 5.683594 338.664062 11.691406 338.664062 L 747.304688 338.664062 C 753.320312 338.664062 758.207031 343.550781 758.207031 349.558594 L 758.207031 416.804688 C 758.207031 419.269531 756.203125 421.28125 753.738281 421.28125 " fill-opacity="1" fill-rule="nonzero"/></g><path fill="#1e1e1e" d="M 696.125 399.546875 L 570.765625 399.546875 C 568.296875 399.546875 566.300781 397.542969 566.300781 395.074219 C 566.300781 392.605469 568.296875 390.605469 570.765625 390.605469 L 696.125 390.605469 C 698.59375 390.605469 700.597656 392.605469 700.597656 395.074219 C 700.597656 397.542969 698.59375 399.546875 696.125 399.546875 " fill-opacity="1" fill-rule="nonzero"/><path fill="#1e1e1e" d="M 164.179688 327.5625 C 162.457031 327.5625 160.820312 326.554688 160.082031 324.875 C 159.089844 322.613281 160.121094 319.972656 162.378906 318.988281 C 185.46875 308.851562 208.878906 308.851562 231.96875 318.988281 C 234.226562 319.972656 235.25 322.613281 234.261719 324.875 C 233.269531 327.144531 230.636719 328.167969 228.371094 327.171875 C 207.375 317.957031 186.964844 317.957031 165.96875 327.171875 C 165.386719 327.433594 164.777344 327.5625 164.179688 327.5625 " fill-opacity="1" fill-rule="nonzero"/><path fill="#1e1e1e" d="M 197.171875 320.304688 C 194.703125 320.304688 192.699219 318.3125 192.699219 315.835938 L 192.699219 287.296875 C 192.699219 284.820312 194.703125 282.824219 197.171875 282.824219 C 199.644531 282.824219 201.640625 284.820312 201.640625 287.296875 L 201.640625 315.835938 C 201.640625 318.3125 199.644531 320.304688 197.171875 320.304688 " fill-opacity="1" fill-rule="nonzero"/><path fill="#1e1e1e" d="M 172.769531 257.171875 C 171.421875 263.539062 172.152344 268.773438 174.96875 272.769531 C 179.195312 278.769531 187.265625 281.21875 192.480469 282.199219 C 190.699219 262.902344 178.839844 258.277344 172.769531 257.171875 Z M 197.171875 291.769531 C 197.113281 291.769531 197.054688 291.769531 197 291.769531 C 196.171875 291.734375 176.785156 290.832031 167.691406 277.964844 C 162.664062 270.863281 161.816406 261.804688 165.144531 251.039062 C 165.726562 249.167969 167.4375 247.902344 169.386719 247.886719 C 180.511719 247.886719 201.414062 256.042969 201.640625 286.796875 C 201.660156 286.960938 201.671875 287.128906 201.671875 287.296875 C 201.671875 289.769531 199.667969 291.769531 197.199219 291.769531 C 197.191406 291.769531 197.179688 291.769531 197.171875 291.769531 " fill-opacity="1" fill-rule="nonzero"/><path fill="#1e1e1e" d="M 202.976562 283.941406 C 205.097656 284.28125 207.109375 284.449219 209 284.449219 C 222.332031 284.449219 227.375 275.992188 229.21875 270.761719 C 227.082031 270.34375 225.039062 270.136719 223.105469 270.136719 C 210.882812 270.136719 205.296875 278.585938 202.976562 283.941406 Z M 209 293.394531 C 205.007812 293.394531 200.65625 292.796875 196.0625 291.621094 C 193.746094 291.03125 192.300781 288.710938 192.800781 286.363281 C 194.648438 277.660156 203.363281 261.1875 223.105469 261.1875 C 227.105469 261.1875 231.410156 261.867188 235.902344 263.203125 C 238.011719 263.820312 239.359375 265.886719 239.074219 268.074219 C 237.925781 276.824219 230.164062 293.394531 209 293.394531 " fill-opacity="1" fill-rule="nonzero"/><path fill="#1e1e1e" d="M 44.117188 327.5625 C 42.398438 327.5625 40.753906 326.554688 40.019531 324.875 C 39.027344 322.613281 40.058594 319.972656 42.316406 318.988281 C 65.40625 308.851562 88.816406 308.851562 111.898438 318.988281 C 114.164062 319.972656 115.195312 322.613281 114.203125 324.875 C 113.207031 327.144531 110.574219 328.167969 108.308594 327.171875 C 87.320312 317.957031 66.910156 317.957031 45.914062 327.171875 C 45.324219 327.433594 44.714844 327.5625 44.117188 327.5625 " fill-opacity="1" fill-rule="nonzero"/><path fill="#1e1e1e" d="M 77.105469 320.304688 C 74.640625 320.304688 72.640625 318.3125 72.640625 315.835938 L 72.640625 287.296875 C 72.640625 284.820312 74.640625 282.824219 77.105469 282.824219 C 79.582031 282.824219 81.585938 284.820312 81.585938 287.296875 L 81.585938 315.835938 C 81.585938 318.3125 79.582031 320.304688 77.105469 320.304688 " fill-opacity="1" fill-rule="nonzero"/><path fill="#1e1e1e" d="M 52.710938 257.171875 C 51.355469 263.539062 52.089844 268.773438 54.90625 272.769531 C 59.132812 278.769531 67.207031 281.21875 72.414062 282.199219 C 70.636719 262.902344 58.78125 258.277344 52.710938 257.171875 Z M 77.105469 291.769531 C 77.050781 291.769531 76.992188 291.769531 76.933594 291.769531 C 76.117188 291.734375 56.722656 290.832031 47.625 277.964844 C 42.609375 270.863281 41.75 261.804688 45.089844 251.039062 C 45.660156 249.167969 47.378906 247.902344 49.324219 247.886719 C 60.449219 247.886719 81.355469 256.042969 81.578125 286.796875 C 81.597656 286.960938 81.609375 287.128906 81.609375 287.296875 C 81.609375 289.769531 79.601562 291.769531 77.136719 291.769531 C 77.125 291.769531 77.117188 291.769531 77.105469 291.769531 " fill-opacity="1" fill-rule="nonzero"/><path fill="#1e1e1e" d="M 82.921875 283.941406 C 85.035156 284.28125 87.046875 284.449219 88.941406 284.449219 C 102.269531 284.449219 107.316406 275.992188 109.160156 270.761719 C 107.019531 270.34375 104.972656 270.136719 103.050781 270.136719 C 90.820312 270.136719 85.234375 278.585938 82.921875 283.941406 Z M 88.941406 293.394531 C 84.945312 293.394531 80.59375 292.796875 76.003906 291.621094 C 73.679688 291.03125 72.234375 288.710938 72.734375 286.363281 C 74.585938 277.660156 83.300781 261.1875 103.050781 261.1875 C 107.042969 261.1875 111.347656 261.867188 115.84375 263.203125 C 117.949219 263.820312 119.292969 265.886719 119.007812 268.074219 C 117.863281 276.824219 110.09375 293.394531 88.941406 293.394531 " fill-opacity="1" fill-rule="nonzero"/><path fill="#1e1e1e" d="M 284.238281 327.5625 C 282.519531 327.5625 280.878906 326.554688 280.148438 324.875 C 279.152344 322.613281 280.179688 319.972656 282.441406 318.988281 C 305.527344 308.851562 328.9375 308.851562 352.023438 318.988281 C 354.28125 319.972656 355.3125 322.613281 354.328125 324.875 C 353.332031 327.144531 350.699219 328.167969 348.433594 327.171875 C 327.441406 317.957031 307.03125 317.957031 286.035156 327.171875 C 285.449219 327.433594 284.84375 327.5625 284.238281 327.5625 " fill-opacity="1" fill-rule="nonzero"/><path fill="#1e1e1e" d="M 317.234375 320.304688 C 314.765625 320.304688 312.761719 318.3125 312.761719 315.835938 L 312.761719 287.296875 C 312.761719 284.820312 314.765625 282.824219 317.234375 282.824219 C 319.707031 282.824219 321.703125 284.820312 321.703125 287.296875 L 321.703125 315.835938 C 321.703125 318.3125 319.707031 320.304688 317.234375 320.304688 " fill-opacity="1" fill-rule="nonzero"/><path fill="#1e1e1e" d="M 292.835938 257.171875 C 291.480469 263.539062 292.214844 268.773438 295.03125 272.769531 C 299.257812 278.769531 307.328125 281.21875 312.535156 282.199219 C 310.761719 262.902344 298.90625 258.277344 292.835938 257.171875 Z M 317.234375 291.769531 C 317.175781 291.769531 317.121094 291.769531 317.058594 291.769531 C 316.238281 291.734375 296.84375 290.832031 287.753906 277.964844 C 282.734375 270.863281 281.875 261.804688 285.210938 251.039062 C 285.785156 249.167969 287.5 247.902344 289.449219 247.886719 C 300.574219 247.886719 321.480469 256.042969 321.703125 286.796875 C 321.722656 286.960938 321.726562 287.128906 321.726562 287.296875 C 321.726562 289.769531 319.726562 291.769531 317.261719 291.769531 C 317.25 291.769531 317.246094 291.769531 317.234375 291.769531 " fill-opacity="1" fill-rule="nonzero"/><path fill="#1e1e1e" d="M 323.042969 283.941406 C 325.160156 284.28125 327.171875 284.449219 329.066406 284.449219 C 342.394531 284.449219 347.4375 275.992188 349.28125 270.761719 C 347.136719 270.34375 345.097656 270.136719 343.171875 270.136719 C 330.9375 270.136719 325.351562 278.585938 323.042969 283.941406 Z M 329.066406 293.394531 C 325.074219 293.394531 320.714844 292.796875 316.125 291.621094 C 313.804688 291.03125 312.363281 288.710938 312.863281 286.363281 C 314.710938 277.660156 323.421875 261.1875 343.171875 261.1875 C 347.167969 261.1875 351.472656 261.867188 355.96875 263.203125 C 358.078125 263.820312 359.414062 265.886719 359.128906 268.074219 C 357.984375 276.824219 350.222656 293.394531 329.066406 293.394531 " fill-opacity="1" fill-rule="nonzero"/><path fill="#1e1e1e" d="M 404.304688 327.5625 C 402.582031 327.5625 400.941406 326.554688 400.207031 324.875 C 399.214844 322.613281 400.246094 319.972656 402.503906 318.988281 C 425.589844 308.851562 449.003906 308.851562 472.089844 318.988281 C 474.347656 319.972656 475.375 322.613281 474.382812 324.875 C 473.398438 327.144531 470.757812 328.167969 468.496094 327.171875 C 447.503906 317.957031 427.089844 317.957031 406.097656 327.171875 C 405.511719 327.433594 404.898438 327.5625 404.304688 327.5625 " fill-opacity="1" fill-rule="nonzero"/><path fill="#1e1e1e" d="M 437.292969 320.304688 C 434.828125 320.304688 432.824219 318.3125 432.824219 315.835938 L 432.824219 287.296875 C 432.824219 284.820312 434.828125 282.824219 437.292969 282.824219 C 439.761719 282.824219 441.765625 284.820312 441.765625 287.296875 L 441.765625 315.835938 C 441.765625 318.3125 439.761719 320.304688 437.292969 320.304688 " fill-opacity="1" fill-rule="nonzero"/><path fill="#1e1e1e" d="M 412.898438 257.171875 C 411.546875 263.539062 412.28125 268.773438 415.09375 272.769531 C 419.320312 278.769531 427.390625 281.21875 432.601562 282.199219 C 430.816406 262.902344 418.96875 258.277344 412.898438 257.171875 Z M 437.292969 291.769531 C 437.238281 291.769531 437.179688 291.769531 437.121094 291.769531 C 436.296875 291.734375 416.910156 290.832031 407.808594 277.964844 C 402.792969 270.863281 401.9375 261.804688 405.269531 251.039062 C 405.847656 249.167969 407.5625 247.902344 409.503906 247.886719 C 420.636719 247.886719 441.539062 256.042969 441.765625 286.796875 C 441.78125 286.960938 441.792969 287.128906 441.792969 287.296875 C 441.792969 289.769531 439.792969 291.769531 437.320312 291.769531 C 437.3125 291.769531 437.300781 291.769531 437.292969 291.769531 " fill-opacity="1" fill-rule="nonzero"/><path fill="#1e1e1e" d="M 443.105469 283.941406 C 445.222656 284.28125 447.234375 284.449219 449.125 284.449219 C 462.457031 284.449219 467.5 275.992188 469.34375 270.761719 C 467.203125 270.34375 465.15625 270.136719 463.234375 270.136719 C 451.003906 270.136719 445.417969 278.585938 443.105469 283.941406 Z M 449.125 293.394531 C 445.132812 293.394531 440.777344 292.796875 436.1875 291.621094 C 433.863281 291.03125 432.425781 288.710938 432.921875 286.363281 C 434.773438 277.660156 443.484375 261.1875 463.234375 261.1875 C 467.230469 261.1875 471.535156 261.867188 476.03125 263.203125 C 478.136719 263.820312 479.476562 265.886719 479.195312 268.074219 C 478.042969 276.824219 470.28125 293.394531 449.125 293.394531 " fill-opacity="1" fill-rule="nonzero"/><path fill="#1e1e1e" d="M 524.363281 327.5625 C 522.644531 327.5625 521.007812 326.554688 520.265625 324.875 C 519.277344 322.613281 520.308594 319.972656 522.566406 318.988281 C 545.648438 308.851562 569.058594 308.851562 592.148438 318.988281 C 594.410156 319.972656 595.441406 322.613281 594.445312 324.875 C 593.453125 327.144531 590.816406 328.167969 588.558594 327.171875 C 567.566406 317.957031 547.15625 317.957031 526.160156 327.171875 C 525.574219 327.433594 524.960938 327.5625 524.363281 327.5625 " fill-opacity="1" fill-rule="nonzero"/><path fill="#1e1e1e" d="M 557.359375 320.304688 C 554.886719 320.304688 552.886719 318.3125 552.886719 315.835938 L 552.886719 287.296875 C 552.886719 284.820312 554.886719 282.824219 557.359375 282.824219 C 559.824219 282.824219 561.828125 284.820312 561.828125 287.296875 L 561.828125 315.835938 C 561.828125 318.3125 559.824219 320.304688 557.359375 320.304688 " fill-opacity="1" fill-rule="nonzero"/><path fill="#1e1e1e" d="M 532.960938 257.171875 C 531.605469 263.539062 532.339844 268.773438 535.15625 272.769531 C 539.375 278.769531 547.453125 281.21875 552.660156 282.199219 C 550.882812 262.902344 539.023438 258.277344 532.960938 257.171875 Z M 557.359375 291.769531 C 557.300781 291.769531 557.242188 291.769531 557.179688 291.769531 C 556.363281 291.734375 536.96875 290.832031 527.875 277.964844 C 522.855469 270.863281 522.003906 261.804688 525.332031 251.039062 C 525.910156 249.167969 527.621094 247.902344 529.574219 247.886719 C 540.695312 247.886719 561.605469 256.042969 561.828125 286.796875 C 561.839844 286.960938 561.855469 287.128906 561.855469 287.296875 C 561.855469 289.769531 559.855469 291.769531 557.382812 291.769531 C 557.375 291.769531 557.363281 291.769531 557.359375 291.769531 " fill-opacity="1" fill-rule="nonzero"/><path fill="#1e1e1e" d="M 563.167969 283.941406 C 565.285156 284.28125 567.300781 284.449219 569.1875 284.449219 C 582.515625 284.449219 587.5625 275.992188 589.402344 270.761719 C 587.265625 270.34375 585.21875 270.136719 583.292969 270.136719 C 571.066406 270.136719 565.480469 278.585938 563.167969 283.941406 Z M 569.1875 293.394531 C 565.195312 293.394531 560.84375 292.796875 556.25 291.621094 C 553.925781 291.03125 552.488281 288.710938 552.984375 286.363281 C 554.835938 277.660156 563.546875 261.1875 583.292969 261.1875 C 587.289062 261.1875 591.601562 261.867188 596.09375 263.203125 C 598.199219 263.820312 599.539062 265.886719 599.257812 268.074219 C 598.109375 276.824219 590.347656 293.394531 569.1875 293.394531 " fill-opacity="1" fill-rule="nonzero"/><path fill="#1e1e1e" d="M 644.421875 327.5625 C 642.707031 327.5625 641.0625 326.554688 640.328125 324.875 C 639.339844 322.613281 640.363281 319.972656 642.628906 318.988281 C 665.714844 308.851562 689.128906 308.851562 712.210938 318.988281 C 714.472656 319.972656 715.5 322.613281 714.511719 324.875 C 713.515625 327.144531 710.882812 328.167969 708.621094 327.171875 C 687.628906 317.957031 667.214844 317.957031 646.21875 327.171875 C 645.636719 327.433594 645.023438 327.5625 644.421875 327.5625 " fill-opacity="1" fill-rule="nonzero"/><path fill="#1e1e1e" d="M 677.421875 320.304688 C 674.949219 320.304688 672.949219 318.3125 672.949219 315.835938 L 672.949219 287.296875 C 672.949219 284.820312 674.949219 282.824219 677.421875 282.824219 C 679.890625 282.824219 681.894531 284.820312 681.894531 287.296875 L 681.894531 315.835938 C 681.894531 318.3125 679.890625 320.304688 677.421875 320.304688 " fill-opacity="1" fill-rule="nonzero"/><path fill="#1e1e1e" d="M 653.023438 257.171875 C 651.664062 263.554688 652.40625 268.796875 655.230469 272.792969 C 659.425781 278.730469 667.507812 281.183594 672.722656 282.179688 C 670.9375 262.902344 659.085938 258.277344 653.023438 257.171875 Z M 677.421875 291.769531 C 677.363281 291.769531 677.300781 291.769531 677.242188 291.769531 C 676.425781 291.734375 657.03125 290.832031 647.933594 277.964844 C 642.917969 270.863281 642.058594 261.800781 645.398438 251.039062 C 645.96875 249.167969 647.679688 247.902344 649.632812 247.886719 C 660.757812 247.886719 681.667969 256.042969 681.886719 286.796875 C 681.90625 286.960938 681.914062 287.128906 681.914062 287.296875 C 681.914062 289.769531 679.914062 291.769531 677.445312 291.769531 C 677.445312 291.769531 677.429688 291.769531 677.421875 291.769531 " fill-opacity="1" fill-rule="nonzero"/><path fill="#1e1e1e" d="M 683.230469 283.941406 C 685.34375 284.28125 687.355469 284.449219 689.25 284.449219 C 702.578125 284.449219 707.625 275.992188 709.46875 270.761719 C 707.324219 270.34375 705.28125 270.136719 703.359375 270.136719 C 691.128906 270.136719 685.542969 278.585938 683.230469 283.941406 Z M 689.25 293.394531 C 685.257812 293.394531 680.902344 292.796875 676.3125 291.621094 C 673.988281 291.03125 672.550781 288.710938 673.046875 286.363281 C 674.902344 277.660156 683.609375 261.1875 703.359375 261.1875 C 707.351562 261.1875 711.65625 261.867188 716.15625 263.203125 C 718.261719 263.820312 719.601562 265.886719 719.316406 268.074219 C 718.167969 276.824219 710.410156 293.394531 689.25 293.394531 " fill-opacity="1" fill-rule="nonzero"/><path fill="#1e1e1e" d="M 546.605469 399.546875 L 532.554688 399.546875 C 530.085938 399.546875 528.082031 397.542969 528.082031 395.074219 C 528.082031 392.605469 530.085938 390.605469 532.554688 390.605469 L 546.605469 390.605469 C 549.074219 390.605469 551.078125 392.605469 551.078125 395.074219 C 551.078125 397.542969 549.074219 399.546875 546.605469 399.546875 " fill-opacity="1" fill-rule="nonzero"/><path fill="#1e1e1e" d="M 205.019531 58.03125 C 203.261719 58.03125 201.589844 56.988281 200.882812 55.269531 C 199.941406 52.980469 201.035156 50.359375 203.316406 49.429688 L 226.46875 39.90625 C 228.753906 38.972656 231.359375 40.066406 232.300781 42.347656 C 233.238281 44.632812 232.148438 47.242188 229.867188 48.179688 L 206.71875 57.699219 C 206.15625 57.929688 205.585938 58.03125 205.019531 58.03125 " fill-opacity="1" fill-rule="nonzero"/><path fill="#1e1e1e" d="M 192.960938 86.621094 C 191.203125 86.621094 189.53125 85.574219 188.824219 83.84375 C 187.882812 81.558594 188.972656 78.949219 191.261719 78.015625 L 240.863281 57.609375 C 243.152344 56.667969 245.757812 57.761719 246.703125 60.046875 C 247.636719 62.332031 246.546875 64.949219 244.265625 65.882812 L 194.660156 86.28125 C 194.101562 86.507812 193.53125 86.621094 192.960938 86.621094 " fill-opacity="1" fill-rule="nonzero"/><path fill="#1e1e1e" d="M 305.601562 189.03125 C 303.84375 189.03125 302.175781 187.988281 301.464844 186.261719 C 300.527344 183.976562 301.617188 181.359375 303.902344 180.417969 L 327.046875 170.894531 C 329.339844 169.960938 331.945312 171.058594 332.886719 173.34375 C 333.828125 175.628906 332.734375 178.230469 330.449219 179.179688 L 307.300781 188.699219 C 306.746094 188.929688 306.164062 189.03125 305.601562 189.03125 " fill-opacity="1" fill-rule="nonzero"/><path fill="#1e1e1e" d="M 293.542969 217.613281 C 291.785156 217.613281 290.121094 216.574219 289.410156 214.84375 C 288.46875 212.558594 289.5625 209.945312 291.84375 209.007812 L 341.445312 188.609375 C 343.738281 187.667969 346.34375 188.75 347.28125 191.035156 C 348.222656 193.320312 347.128906 195.941406 344.847656 196.875 L 295.242188 217.28125 C 294.683594 217.507812 294.109375 217.613281 293.542969 217.613281 " fill-opacity="1" fill-rule="nonzero"/><path fill="#1e1e1e" d="M 66.601562 189.03125 C 64.847656 189.03125 63.175781 187.988281 62.464844 186.261719 C 61.53125 183.976562 62.621094 181.359375 64.902344 180.417969 L 88.054688 170.894531 C 90.339844 169.960938 92.949219 171.058594 93.886719 173.34375 C 94.824219 175.628906 93.734375 178.230469 91.453125 179.179688 L 68.304688 188.699219 C 67.742188 188.929688 67.171875 189.03125 66.601562 189.03125 " fill-opacity="1" fill-rule="nonzero"/><path fill="#1e1e1e" d="M 54.546875 217.613281 C 52.785156 217.613281 51.113281 216.574219 50.40625 214.84375 C 49.46875 212.558594 50.558594 209.945312 52.839844 209.007812 L 102.449219 188.609375 C 104.734375 187.667969 107.34375 188.75 108.285156 191.035156 C 109.222656 193.320312 108.132812 195.941406 105.851562 196.875 L 56.238281 217.28125 C 55.6875 217.507812 55.109375 217.613281 54.546875 217.613281 " fill-opacity="1" fill-rule="nonzero"/><path fill="#1e1e1e" d="M 419.988281 58.03125 C 418.234375 58.03125 416.5625 56.988281 415.851562 55.269531 C 414.914062 52.980469 416.003906 50.359375 418.289062 49.429688 L 441.4375 39.90625 C 443.726562 38.972656 446.335938 40.066406 447.273438 42.347656 C 448.210938 44.632812 447.121094 47.242188 444.839844 48.179688 L 421.691406 57.699219 C 421.128906 57.929688 420.554688 58.03125 419.988281 58.03125 " fill-opacity="1" fill-rule="nonzero"/><path fill="#1e1e1e" d="M 407.933594 86.621094 C 406.171875 86.621094 404.503906 85.574219 403.796875 83.84375 C 402.855469 81.558594 403.949219 78.949219 406.230469 78.015625 L 455.839844 57.609375 C 458.121094 56.667969 460.734375 57.761719 461.671875 60.046875 C 462.613281 62.332031 461.519531 64.949219 459.234375 65.882812 L 409.628906 86.28125 C 409.070312 86.507812 408.5 86.621094 407.933594 86.621094 " fill-opacity="1" fill-rule="nonzero"/><path fill="#1e1e1e" d="M 631.683594 58.03125 C 629.925781 58.03125 628.261719 56.988281 627.546875 55.269531 C 626.609375 52.980469 627.699219 50.359375 629.984375 49.429688 L 653.136719 39.90625 C 655.421875 38.972656 658.03125 40.066406 658.96875 42.347656 C 659.90625 44.632812 658.816406 47.242188 656.53125 48.179688 L 633.382812 57.699219 C 632.828125 57.929688 632.253906 58.03125 631.683594 58.03125 " fill-opacity="1" fill-rule="nonzero"/><path fill="#1e1e1e" d="M 619.628906 86.621094 C 617.867188 86.621094 616.195312 85.574219 615.488281 83.84375 C 614.550781 81.558594 615.640625 78.949219 617.921875 78.015625 L 667.535156 57.609375 C 669.816406 56.667969 672.425781 57.761719 673.363281 60.046875 C 674.304688 62.332031 673.214844 64.949219 670.925781 65.882812 L 621.320312 86.28125 C 620.769531 86.507812 620.191406 86.621094 619.628906 86.621094 " fill-opacity="1" fill-rule="nonzero"/><path fill="#1e1e1e" d="M 544.617188 182.125 C 542.855469 182.125 541.191406 181.078125 540.476562 179.355469 C 539.542969 177.074219 540.632812 174.453125 542.910156 173.519531 L 566.0625 163.992188 C 568.351562 163.058594 570.957031 164.15625 571.902344 166.441406 C 572.835938 168.714844 571.746094 171.328125 569.464844 172.273438 L 546.3125 181.785156 C 545.757812 182.015625 545.179688 182.125 544.617188 182.125 " fill-opacity="1" fill-rule="nonzero"/><path fill="#1e1e1e" d="M 532.554688 210.707031 C 530.796875 210.707031 529.132812 209.664062 528.421875 207.9375 C 527.480469 205.652344 528.570312 203.035156 530.855469 202.105469 L 580.460938 181.699219 C 582.75 180.757812 585.359375 181.847656 586.292969 184.132812 C 587.230469 186.417969 586.140625 189.03125 583.863281 189.976562 L 534.25 210.375 C 533.699219 210.59375 533.121094 210.707031 532.554688 210.707031 " fill-opacity="1" fill-rule="nonzero"/><path fill="#1e1e1e" d="M 139.375 347.605469 L 19.316406 347.605469 C 16.84375 347.605469 14.84375 345.59375 14.84375 343.132812 L 14.84375 120.835938 C 14.84375 118.355469 16.84375 116.363281 19.316406 116.363281 L 86.457031 116.363281 C 88.925781 116.363281 90.929688 118.355469 90.929688 120.835938 C 90.929688 123.296875 88.925781 125.308594 86.457031 125.308594 L 23.785156 125.308594 L 23.785156 338.664062 L 134.910156 338.664062 L 134.910156 125.308594 L 113.191406 125.308594 C 110.726562 125.308594 108.726562 123.296875 108.726562 120.835938 C 108.726562 118.355469 110.726562 116.363281 113.191406 116.363281 L 139.375 116.363281 C 141.84375 116.363281 143.84375 118.355469 143.84375 120.835938 L 143.84375 343.132812 C 143.84375 345.59375 141.84375 347.605469 139.375 347.605469 " fill-opacity="1" fill-rule="nonzero"/><g clip-path="url(#id2)"><path fill="#1e1e1e" d="M 139.375 125.308594 L 113.191406 125.308594 C 110.726562 125.308594 108.726562 123.296875 108.726562 120.835938 C 108.726562 118.355469 110.726562 116.363281 113.191406 116.363281 L 136.664062 116.363281 L 192.527344 9.195312 L 112.285156 9.195312 L 28.492188 116.363281 L 86.457031 116.363281 C 88.925781 116.363281 90.929688 118.355469 90.929688 120.835938 C 90.929688 123.296875 88.925781 125.308594 86.457031 125.308594 L 19.316406 125.308594 C 17.601562 125.308594 16.046875 124.328125 15.296875 122.789062 C 14.546875 121.253906 14.738281 119.417969 15.792969 118.070312 L 106.585938 1.972656 C 107.433594 0.875 108.730469 0.25 110.105469 0.25 L 199.90625 0.25 C 201.46875 0.25 202.914062 1.074219 203.726562 2.40625 C 204.539062 3.742188 204.589844 5.40625 203.871094 6.796875 L 143.339844 122.898438 C 142.570312 124.375 141.046875 125.308594 139.375 125.308594 " fill-opacity="1" fill-rule="nonzero"/></g><path fill="#1e1e1e" d="M 259.441406 347.605469 L 139.375 347.605469 C 136.90625 347.605469 134.910156 345.59375 134.910156 343.132812 L 134.910156 120.835938 C 134.910156 118.355469 136.90625 116.363281 139.375 116.363281 L 206.519531 116.363281 C 208.984375 116.363281 210.984375 118.355469 210.984375 120.835938 C 210.984375 123.296875 208.984375 125.308594 206.519531 125.308594 L 143.84375 125.308594 L 143.84375 338.664062 L 254.964844 338.664062 L 254.964844 125.308594 L 233.253906 125.308594 C 230.785156 125.308594 228.78125 123.296875 228.78125 120.835938 C 228.78125 118.355469 230.785156 116.363281 233.253906 116.363281 L 259.441406 116.363281 C 261.910156 116.363281 263.910156 118.355469 263.910156 120.835938 L 263.910156 343.132812 C 263.910156 345.59375 261.910156 347.605469 259.441406 347.605469 " fill-opacity="1" fill-rule="nonzero"/><g clip-path="url(#id3)"><path fill="#1e1e1e" d="M 259.441406 125.308594 L 233.253906 125.308594 C 230.785156 125.308594 228.78125 123.296875 228.78125 120.835938 C 228.78125 118.355469 230.785156 116.363281 233.253906 116.363281 L 255.980469 116.363281 L 283.914062 9.195312 L 202.613281 9.195312 L 146.753906 116.363281 L 206.519531 116.363281 C 208.984375 116.363281 210.984375 118.355469 210.984375 120.835938 C 210.984375 123.296875 208.984375 125.308594 206.519531 125.308594 L 139.375 125.308594 C 137.8125 125.308594 136.367188 124.484375 135.554688 123.152344 C 134.742188 121.816406 134.691406 120.144531 135.417969 118.757812 L 195.941406 2.648438 C 196.710938 1.175781 198.238281 0.25 199.90625 0.25 L 289.707031 0.25 C 291.085938 0.25 292.390625 0.894531 293.242188 1.988281 C 294.082031 3.082031 294.375 4.511719 294.03125 5.851562 L 263.761719 121.960938 C 263.25 123.921875 261.476562 125.308594 259.441406 125.308594 " fill-opacity="1" fill-rule="nonzero"/></g><path fill="#1e1e1e" d="M 379.5 347.605469 L 259.441406 347.605469 C 256.96875 347.605469 254.964844 345.59375 254.964844 343.132812 L 254.964844 120.835938 C 254.964844 118.355469 256.96875 116.363281 259.441406 116.363281 L 326.574219 116.363281 C 329.046875 116.363281 331.046875 118.355469 331.046875 120.835938 C 331.046875 123.296875 329.046875 125.308594 326.574219 125.308594 L 263.910156 125.308594 L 263.910156 338.664062 L 375.03125 338.664062 L 375.03125 125.308594 L 353.316406 125.308594 C 350.84375 125.308594 348.847656 123.296875 348.847656 120.835938 C 348.847656 118.355469 350.84375 116.363281 353.316406 116.363281 L 379.5 116.363281 C 381.964844 116.363281 383.96875 118.355469 383.96875 120.835938 L 383.96875 343.132812 C 383.96875 345.59375 381.964844 347.605469 379.5 347.605469 " fill-opacity="1" fill-rule="nonzero"/><g clip-path="url(#id4)"><path fill="#1e1e1e" d="M 379.5 125.308594 L 353.316406 125.308594 C 350.84375 125.308594 348.847656 123.296875 348.847656 120.835938 C 348.847656 118.355469 350.84375 116.363281 353.316406 116.363281 L 375.03125 116.363281 L 375.03125 9.195312 L 293.15625 9.195312 L 265.222656 116.363281 L 326.574219 116.363281 C 329.046875 116.363281 331.046875 118.355469 331.046875 120.835938 C 331.046875 123.296875 329.046875 125.308594 326.574219 125.308594 L 259.441406 125.308594 C 258.050781 125.308594 256.746094 124.664062 255.898438 123.574219 C 255.054688 122.46875 254.761719 121.046875 255.113281 119.699219 L 285.375 3.601562 C 285.886719 1.617188 287.667969 0.25 289.707031 0.25 L 379.5 0.25 C 381.964844 0.25 383.96875 2.253906 383.96875 4.726562 L 383.96875 120.835938 C 383.96875 123.296875 381.964844 125.308594 379.5 125.308594 " fill-opacity="1" fill-rule="nonzero"/></g><path fill="#1e1e1e" d="M 499.558594 347.605469 L 379.5 347.605469 C 377.035156 347.605469 375.03125 345.59375 375.03125 343.132812 L 375.03125 120.835938 C 375.03125 118.355469 377.035156 116.363281 379.5 116.363281 L 446.640625 116.363281 C 449.113281 116.363281 451.113281 118.355469 451.113281 120.835938 C 451.113281 123.296875 449.113281 125.308594 446.640625 125.308594 L 383.96875 125.308594 L 383.96875 338.664062 L 495.089844 338.664062 L 495.089844 125.308594 L 473.378906 125.308594 C 470.914062 125.308594 468.910156 123.296875 468.910156 120.835938 C 468.910156 118.355469 470.914062 116.363281 473.378906 116.363281 L 499.558594 116.363281 C 502.03125 116.363281 504.035156 118.355469 504.035156 120.835938 L 504.035156 343.132812 C 504.035156 345.59375 502.03125 347.605469 499.558594 347.605469 " fill-opacity="1" fill-rule="nonzero"/><g clip-path="url(#id5)"><path fill="#1e1e1e" d="M 499.558594 125.308594 L 473.378906 125.308594 C 470.914062 125.308594 468.910156 123.296875 468.910156 120.835938 C 468.910156 118.355469 470.914062 116.363281 473.378906 116.363281 L 493.777344 116.363281 L 465.84375 9.195312 L 383.96875 9.195312 L 383.96875 116.363281 L 446.640625 116.363281 C 449.113281 116.363281 451.113281 118.355469 451.113281 120.835938 C 451.113281 123.296875 449.113281 125.308594 446.640625 125.308594 L 379.5 125.308594 C 377.035156 125.308594 375.03125 123.296875 375.03125 120.835938 L 375.03125 4.726562 C 375.03125 2.253906 377.035156 0.25 379.5 0.25 L 469.300781 0.25 C 471.332031 0.25 473.113281 1.617188 473.625 3.601562 L 503.886719 119.699219 C 504.238281 121.046875 503.949219 122.46875 503.097656 123.574219 C 502.25 124.664062 500.949219 125.308594 499.558594 125.308594 " fill-opacity="1" fill-rule="nonzero"/></g><path fill="#1e1e1e" d="M 619.625 347.605469 L 499.558594 347.605469 C 497.089844 347.605469 495.089844 345.59375 495.089844 343.132812 L 495.089844 120.835938 C 495.089844 118.355469 497.089844 116.363281 499.558594 116.363281 L 566.703125 116.363281 C 569.175781 116.363281 571.171875 118.355469 571.171875 120.835938 C 571.171875 123.296875 569.175781 125.308594 566.703125 125.308594 L 504.035156 125.308594 L 504.035156 338.664062 L 615.15625 338.664062 L 615.15625 125.308594 L 593.441406 125.308594 C 590.96875 125.308594 588.96875 123.296875 588.96875 120.835938 C 588.96875 118.355469 590.96875 116.363281 593.441406 116.363281 L 619.625 116.363281 C 622.09375 116.363281 624.097656 118.355469 624.097656 120.835938 L 624.097656 343.132812 C 624.097656 345.59375 622.09375 347.605469 619.625 347.605469 " fill-opacity="1" fill-rule="nonzero"/><g clip-path="url(#id6)"><path fill="#1e1e1e" d="M 619.625 125.308594 L 593.441406 125.308594 C 590.96875 125.308594 588.96875 123.296875 588.96875 120.835938 C 588.96875 118.355469 590.96875 116.363281 593.441406 116.363281 L 612.246094 116.363281 L 556.382812 9.195312 L 475.082031 9.195312 L 503.019531 116.363281 L 566.703125 116.363281 C 569.175781 116.363281 571.171875 118.355469 571.171875 120.835938 C 571.171875 123.296875 569.175781 125.308594 566.703125 125.308594 L 499.558594 125.308594 C 497.523438 125.308594 495.75 123.921875 495.238281 121.960938 L 464.96875 5.851562 C 464.625 4.511719 464.917969 3.082031 465.757812 1.988281 C 466.609375 0.894531 467.914062 0.25 469.300781 0.25 L 559.09375 0.25 C 560.761719 0.25 562.289062 1.175781 563.058594 2.648438 L 623.582031 118.757812 C 624.308594 120.144531 624.257812 121.816406 623.445312 123.152344 C 622.636719 124.484375 621.1875 125.308594 619.625 125.308594 " fill-opacity="1" fill-rule="nonzero"/></g><path fill="#1e1e1e" d="M 739.683594 347.605469 L 619.625 347.605469 C 617.15625 347.605469 615.15625 345.59375 615.15625 343.132812 L 615.15625 120.835938 C 615.15625 118.355469 617.15625 116.363281 619.625 116.363281 L 686.761719 116.363281 C 689.230469 116.363281 691.234375 118.355469 691.234375 120.835938 C 691.234375 123.296875 689.230469 125.308594 686.761719 125.308594 L 624.097656 125.308594 L 624.097656 338.664062 L 735.21875 338.664062 L 735.21875 125.308594 L 713.5 125.308594 C 711.03125 125.308594 709.035156 123.296875 709.035156 120.835938 C 709.035156 118.355469 711.03125 116.363281 713.5 116.363281 L 739.683594 116.363281 C 742.15625 116.363281 744.152344 118.355469 744.152344 120.835938 L 744.152344 343.132812 C 744.152344 345.59375 742.15625 347.605469 739.683594 347.605469 " fill-opacity="1" fill-rule="nonzero"/><g clip-path="url(#id7)"><path fill="#1e1e1e" d="M 739.683594 125.308594 L 713.5 125.308594 C 711.03125 125.308594 709.035156 123.296875 709.035156 120.835938 C 709.035156 118.355469 711.03125 116.363281 713.5 116.363281 L 730.507812 116.363281 L 646.714844 9.195312 L 566.464844 9.195312 L 622.335938 116.363281 L 686.761719 116.363281 C 689.230469 116.363281 691.234375 118.355469 691.234375 120.835938 C 691.234375 123.296875 689.230469 125.308594 686.761719 125.308594 L 619.625 125.308594 C 617.957031 125.308594 616.433594 124.375 615.660156 122.898438 L 555.128906 6.796875 C 554.414062 5.40625 554.460938 3.742188 555.273438 2.40625 C 556.085938 1.074219 557.53125 0.25 559.09375 0.25 L 648.894531 0.25 C 650.269531 0.25 651.566406 0.875 652.414062 1.972656 L 743.207031 118.070312 C 744.261719 119.417969 744.453125 121.253906 743.703125 122.789062 C 742.949219 124.328125 741.398438 125.308594 739.683594 125.308594 " fill-opacity="1" fill-rule="nonzero"/></g></svg>