<svg xmlns="http://www.w3.org/2000/svg" xmlns:xlink="http://www.w3.org/1999/xlink" width="655" zoomAndPan="magnify" viewBox="0 0 491.25 499.499998" height="666" preserveAspectRatio="xMidYMid meet" version="1.0"><defs><clipPath id="id1"><path d="M 0 229 L 490.5 229 L 490.5 498.871094 L 0 498.871094 Z M 0 229 " clip-rule="nonzero"/></clipPath></defs><path fill="#ffc857" d="M 139.152344 392.832031 L 24.894531 392.832031 C 15.875 392.832031 8.574219 385.527344 8.574219 376.507812 L 8.574219 360.183594 C 8.574219 351.164062 15.875 343.855469 24.894531 343.855469 L 139.152344 343.855469 C 148.171875 343.855469 155.476562 351.164062 155.476562 360.183594 L 155.476562 376.507812 C 155.476562 385.527344 148.171875 392.832031 139.152344 392.832031 Z M 139.152344 392.832031 " fill-opacity="1" fill-rule="nonzero"/><path fill="#ffc857" d="M 171.796875 441.808594 L 57.539062 441.808594 C 48.523438 441.808594 41.21875 434.503906 41.21875 425.484375 L 41.21875 409.15625 C 41.21875 400.136719 48.523438 392.832031 57.539062 392.832031 L 171.796875 392.832031 C 180.816406 392.832031 188.121094 400.136719 188.121094 409.15625 L 188.121094 425.484375 C 188.121094 434.503906 180.816406 441.808594 171.796875 441.808594 Z M 171.796875 441.808594 " fill-opacity="1" fill-rule="nonzero"/><path fill="#ffc857" d="M 139.152344 490.785156 L 24.894531 490.785156 C 15.875 490.785156 8.574219 483.480469 8.574219 474.460938 L 8.574219 458.132812 C 8.574219 449.113281 15.875 441.808594 24.894531 441.808594 L 139.152344 441.808594 C 148.171875 441.808594 155.476562 449.113281 155.476562 458.132812 L 155.476562 474.460938 C 155.476562 483.480469 148.171875 490.785156 139.152344 490.785156 Z M 139.152344 490.785156 " fill-opacity="1" fill-rule="nonzero"/><path fill="#a9c7b9" d="M 98.347656 294.878906 L 82.023438 294.878906 L 82.023438 278.554688 C 82.023438 260.523438 96.640625 245.90625 114.667969 245.90625 L 130.992188 245.90625 L 130.992188 262.230469 C 130.992188 280.261719 116.375 294.878906 98.347656 294.878906 Z M 98.347656 294.878906 " fill-opacity="1" fill-rule="nonzero"/><path fill="#a9c7b9" d="M 65.703125 294.878906 L 82.023438 294.878906 L 82.023438 278.554688 C 82.023438 260.523438 67.40625 245.90625 49.378906 245.90625 L 33.054688 245.90625 L 33.054688 262.230469 C 33.054688 280.261719 47.671875 294.878906 65.703125 294.878906 Z M 65.703125 294.878906 " fill-opacity="1" fill-rule="nonzero"/><path fill="#a9c7b9" d="M 188.121094 303.042969 L 481.929688 303.042969 L 481.929688 482.621094 L 188.121094 482.621094 Z M 188.121094 303.042969 " fill-opacity="1" fill-rule="nonzero"/><path fill="#ffc857" d="M 367.671875 392.832031 C 367.671875 394.167969 367.605469 395.503906 367.472656 396.832031 C 367.34375 398.164062 367.148438 399.484375 366.886719 400.792969 C 366.625 402.105469 366.300781 403.402344 365.914062 404.679688 C 365.523438 405.960938 365.074219 407.214844 364.5625 408.449219 C 364.050781 409.6875 363.480469 410.894531 362.851562 412.070312 C 362.222656 413.25 361.535156 414.394531 360.792969 415.507812 C 360.050781 416.617188 359.253906 417.691406 358.40625 418.722656 C 357.558594 419.757812 356.664062 420.746094 355.71875 421.691406 C 354.773438 422.636719 353.785156 423.535156 352.75 424.382812 C 351.71875 425.230469 350.644531 426.023438 349.535156 426.765625 C 348.421875 427.511719 347.277344 428.195312 346.101562 428.828125 C 344.921875 429.457031 343.714844 430.027344 342.480469 430.539062 C 341.246094 431.050781 339.988281 431.5 338.710938 431.886719 C 337.429688 432.277344 336.136719 432.601562 334.824219 432.863281 C 333.515625 433.121094 332.195312 433.320312 330.863281 433.449219 C 329.535156 433.582031 328.199219 433.644531 326.863281 433.644531 C 325.527344 433.644531 324.195312 433.582031 322.863281 433.449219 C 321.535156 433.316406 320.214844 433.121094 318.902344 432.863281 C 317.59375 432.601562 316.296875 432.277344 315.019531 431.886719 C 313.738281 431.5 312.484375 431.050781 311.246094 430.539062 C 310.011719 430.027344 308.804688 429.457031 307.628906 428.828125 C 306.449219 428.195312 305.304688 427.511719 304.191406 426.765625 C 303.082031 426.023438 302.007812 425.230469 300.976562 424.382812 C 299.941406 423.535156 298.953125 422.636719 298.007812 421.691406 C 297.0625 420.746094 296.167969 419.757812 295.320312 418.722656 C 294.472656 417.691406 293.675781 416.617188 292.933594 415.507812 C 292.191406 414.394531 291.503906 413.25 290.875 412.070312 C 290.246094 410.894531 289.675781 409.6875 289.164062 408.449219 C 288.652344 407.214844 288.203125 405.960938 287.8125 404.679688 C 287.425781 403.402344 287.101562 402.105469 286.839844 400.792969 C 286.582031 399.484375 286.382812 398.164062 286.253906 396.832031 C 286.121094 395.503906 286.058594 394.167969 286.058594 392.832031 C 286.058594 391.496094 286.121094 390.164062 286.253906 388.832031 C 286.382812 387.503906 286.582031 386.179688 286.839844 384.871094 C 287.101562 383.558594 287.425781 382.265625 287.8125 380.984375 C 288.203125 379.707031 288.652344 378.449219 289.164062 377.214844 C 289.675781 375.980469 290.246094 374.773438 290.875 373.59375 C 291.503906 372.414062 292.191406 371.269531 292.933594 370.15625 C 293.675781 369.046875 294.472656 367.972656 295.320312 366.941406 C 296.167969 365.90625 297.0625 364.917969 298.007812 363.972656 C 298.953125 363.027344 299.941406 362.132812 300.976562 361.285156 C 302.007812 360.433594 303.082031 359.640625 304.191406 358.898438 C 305.304688 358.15625 306.449219 357.46875 307.628906 356.839844 C 308.804688 356.207031 310.011719 355.636719 311.246094 355.125 C 312.484375 354.613281 313.738281 354.164062 315.019531 353.777344 C 316.296875 353.386719 317.59375 353.0625 318.902344 352.804688 C 320.214844 352.542969 321.535156 352.347656 322.863281 352.214844 C 324.195312 352.085938 325.527344 352.019531 326.863281 352.019531 C 328.199219 352.019531 329.535156 352.085938 330.863281 352.214844 C 332.195312 352.347656 333.515625 352.542969 334.824219 352.804688 C 336.136719 353.0625 337.429688 353.386719 338.710938 353.777344 C 339.988281 354.164062 341.246094 354.613281 342.480469 355.125 C 343.714844 355.636719 344.921875 356.207031 346.101562 356.839844 C 347.277344 357.46875 348.421875 358.15625 349.535156 358.898438 C 350.644531 359.640625 351.71875 360.433594 352.75 361.285156 C 353.785156 362.132812 354.773438 363.027344 355.71875 363.972656 C 356.664062 364.917969 357.558594 365.90625 358.40625 366.941406 C 359.253906 367.972656 360.050781 369.046875 360.792969 370.15625 C 361.535156 371.269531 362.222656 372.414062 362.851562 373.59375 C 363.480469 374.773438 364.050781 375.980469 364.5625 377.214844 C 365.074219 378.449219 365.523438 379.707031 365.914062 380.984375 C 366.300781 382.265625 366.625 383.558594 366.886719 384.871094 C 367.148438 386.179688 367.34375 387.503906 367.472656 388.832031 C 367.605469 390.164062 367.671875 391.496094 367.671875 392.832031 Z M 367.671875 392.832031 " fill-opacity="1" fill-rule="nonzero"/><path fill="#ffc857" d="M 465.605469 352.019531 L 481.929688 352.019531 L 481.929688 303.042969 L 432.960938 303.042969 L 432.960938 319.367188 C 432.960938 337.398438 447.578125 352.019531 465.605469 352.019531 Z M 465.605469 352.019531 " fill-opacity="1" fill-rule="nonzero"/><path fill="#ffc857" d="M 432.960938 482.621094 L 481.929688 482.621094 L 481.929688 433.644531 L 465.605469 433.644531 C 447.578125 433.644531 432.960938 448.265625 432.960938 466.296875 Z M 432.960938 482.621094 " fill-opacity="1" fill-rule="nonzero"/><path fill="#ffc857" d="M 188.121094 352.019531 L 204.445312 352.019531 C 222.472656 352.019531 237.089844 337.398438 237.089844 319.367188 L 237.089844 303.042969 L 188.121094 303.042969 Z M 188.121094 352.019531 " fill-opacity="1" fill-rule="nonzero"/><path fill="#ffb41f" d="M 188.121094 482.621094 L 237.089844 482.621094 L 237.089844 466.296875 C 237.089844 448.265625 222.472656 433.644531 204.445312 433.644531 L 188.121094 433.644531 Z M 188.121094 482.621094 " fill-opacity="1" fill-rule="nonzero"/><path fill="#83ae9b" d="M 220.765625 270.394531 L 481.929688 270.394531 L 481.929688 303.042969 L 220.765625 303.042969 Z M 220.765625 270.394531 " fill-opacity="1" fill-rule="nonzero"/><path fill="#61947d" d="M 253.410156 237.742188 L 481.929688 237.742188 L 481.929688 270.394531 L 253.410156 270.394531 Z M 253.410156 237.742188 " fill-opacity="1" fill-rule="nonzero"/><path fill="#ffc857" d="M 392.15625 196.929688 L 392.15625 74.488281 L 441.121094 74.488281 L 441.121094 196.929688 " fill-opacity="1" fill-rule="nonzero"/><path fill="#a2bdcd" d="M 294.21875 196.929688 L 294.21875 107.140625 L 343.1875 107.140625 L 343.1875 196.929688 " fill-opacity="1" fill-rule="nonzero"/><path fill="#83ae9b" d="M 196.28125 196.929688 L 196.28125 139.789062 L 245.25 139.789062 L 245.25 196.929688 " fill-opacity="1" fill-rule="nonzero"/><path fill="#a2bdcd" d="M 114.667969 180.601562 L 114.667969 98.976562 L 147.316406 98.976562 L 82.023438 33.675781 L 16.734375 98.976562 L 49.378906 98.976562 L 49.378906 180.601562 " fill-opacity="1" fill-rule="nonzero"/><path fill="#464a51" d="M 326.863281 343.855469 C 299.859375 343.855469 277.894531 365.824219 277.894531 392.832031 C 277.894531 419.84375 299.859375 441.808594 326.863281 441.808594 C 353.871094 441.808594 375.832031 419.84375 375.832031 392.832031 C 375.832031 365.824219 353.871094 343.855469 326.863281 343.855469 Z M 326.863281 425.484375 C 308.859375 425.484375 294.21875 410.839844 294.21875 392.832031 C 294.21875 374.824219 308.859375 360.183594 326.863281 360.183594 C 344.867188 360.183594 359.507812 374.824219 359.507812 392.832031 C 359.507812 410.839844 344.867188 425.484375 326.863281 425.484375 Z M 326.863281 425.484375 " fill-opacity="1" fill-rule="nonzero"/><path fill="#464a51" d="M 432.960938 384.667969 L 400.316406 384.667969 C 395.8125 384.667969 392.15625 388.320312 392.15625 392.832031 C 392.15625 397.347656 395.8125 400.996094 400.316406 400.996094 L 432.960938 400.996094 C 437.464844 400.996094 441.121094 397.347656 441.121094 392.832031 C 441.121094 388.320312 437.464844 384.667969 432.960938 384.667969 Z M 432.960938 384.667969 " fill-opacity="1" fill-rule="nonzero"/><path fill="#464a51" d="M 253.410156 384.667969 L 220.765625 384.667969 C 216.261719 384.667969 212.605469 388.320312 212.605469 392.832031 C 212.605469 397.347656 216.261719 400.996094 220.765625 400.996094 L 253.410156 400.996094 C 257.917969 400.996094 261.574219 397.347656 261.574219 392.832031 C 261.574219 388.320312 257.917969 384.667969 253.410156 384.667969 Z M 253.410156 384.667969 " fill-opacity="1" fill-rule="nonzero"/><g clip-path="url(#id1)"><path fill="#464a51" d="M 481.929688 229.578125 L 253.410156 229.578125 C 248.90625 229.578125 245.25 233.226562 245.25 237.742188 L 245.25 262.230469 L 220.765625 262.230469 C 216.261719 262.230469 212.605469 265.878906 212.605469 270.394531 L 212.605469 294.878906 L 188.121094 294.878906 C 183.617188 294.878906 179.960938 298.53125 179.960938 303.042969 L 179.960938 386.171875 C 177.398438 385.257812 174.671875 384.667969 171.796875 384.667969 L 162.136719 384.667969 C 163.050781 382.105469 163.636719 379.378906 163.636719 376.507812 L 163.636719 360.183594 C 163.636719 346.679688 152.652344 335.695312 139.152344 335.695312 L 90.183594 335.695312 L 90.183594 303.042969 L 98.347656 303.042969 C 120.847656 303.042969 139.152344 284.734375 139.152344 262.230469 L 139.152344 245.90625 C 139.152344 241.390625 135.496094 237.742188 130.992188 237.742188 L 114.667969 237.742188 C 101.277344 237.742188 89.46875 244.320312 82.023438 254.320312 C 74.582031 244.320312 62.773438 237.742188 49.378906 237.742188 L 33.054688 237.742188 C 28.550781 237.742188 24.894531 241.390625 24.894531 245.90625 L 24.894531 262.230469 C 24.894531 284.734375 43.199219 303.042969 65.703125 303.042969 L 73.863281 303.042969 L 73.863281 335.695312 L 24.894531 335.695312 C 11.394531 335.695312 0.410156 346.679688 0.410156 360.183594 L 0.410156 376.507812 C 0.410156 390.007812 11.394531 400.996094 24.894531 400.996094 L 34.558594 400.996094 C 33.644531 403.558594 33.054688 406.285156 33.054688 409.15625 L 33.054688 425.484375 C 33.054688 428.355469 33.644531 431.082031 34.558594 433.644531 L 24.894531 433.644531 C 11.394531 433.644531 0.410156 444.632812 0.410156 458.132812 L 0.410156 474.460938 C 0.410156 487.960938 11.394531 498.945312 24.894531 498.945312 L 139.152344 498.945312 C 152.652344 498.945312 163.636719 487.960938 163.636719 474.460938 L 163.636719 458.132812 C 163.636719 455.261719 163.050781 452.535156 162.136719 449.972656 L 171.796875 449.972656 C 174.671875 449.972656 177.398438 449.382812 179.960938 448.46875 L 179.960938 482.621094 C 179.960938 487.136719 183.617188 490.785156 188.121094 490.785156 L 481.929688 490.785156 C 486.433594 490.785156 490.089844 487.136719 490.089844 482.621094 L 490.089844 237.742188 C 490.089844 233.226562 486.433594 229.578125 481.929688 229.578125 Z M 424.800781 466.296875 L 424.800781 474.460938 L 245.25 474.460938 L 245.25 466.296875 C 245.25 443.792969 226.945312 425.484375 204.445312 425.484375 L 196.28125 425.484375 L 196.28125 360.183594 L 204.445312 360.183594 C 226.945312 360.183594 245.25 341.875 245.25 319.367188 L 245.25 311.207031 L 424.800781 311.207031 L 424.800781 319.367188 C 424.800781 341.875 443.105469 360.183594 465.605469 360.183594 L 473.765625 360.183594 L 473.765625 425.484375 L 465.605469 425.484375 C 443.105469 425.484375 424.800781 443.792969 424.800781 466.296875 Z M 441.121094 311.207031 L 473.765625 311.207031 L 473.765625 343.855469 L 465.605469 343.855469 C 452.105469 343.855469 441.121094 332.871094 441.121094 319.367188 Z M 261.574219 245.90625 L 473.765625 245.90625 L 473.765625 262.230469 L 261.574219 262.230469 Z M 228.929688 278.554688 L 473.765625 278.554688 L 473.765625 294.878906 L 228.929688 294.878906 Z M 196.28125 311.207031 L 228.929688 311.207031 L 228.929688 319.367188 C 228.929688 332.871094 217.941406 343.855469 204.445312 343.855469 L 196.28125 343.855469 Z M 114.667969 254.066406 L 122.832031 254.066406 L 122.832031 262.230469 C 122.832031 275.730469 111.84375 286.71875 98.347656 286.71875 L 90.183594 286.71875 L 90.183594 278.554688 C 90.183594 265.054688 101.171875 254.066406 114.667969 254.066406 Z M 65.703125 286.71875 C 52.203125 286.71875 41.21875 275.730469 41.21875 262.230469 L 41.21875 254.066406 L 49.378906 254.066406 C 62.878906 254.066406 73.863281 265.054688 73.863281 278.554688 L 73.863281 286.71875 Z M 16.734375 376.507812 L 16.734375 360.183594 C 16.734375 355.675781 20.398438 352.019531 24.894531 352.019531 L 33.054688 352.019531 L 33.054688 360.183594 C 33.054688 364.695312 36.710938 368.34375 41.21875 368.34375 C 45.722656 368.34375 49.378906 364.695312 49.378906 360.183594 L 49.378906 352.019531 L 73.863281 352.019531 L 73.863281 360.183594 C 73.863281 364.695312 77.519531 368.34375 82.023438 368.34375 C 86.527344 368.34375 90.183594 364.695312 90.183594 360.183594 L 90.183594 352.019531 L 114.667969 352.019531 L 114.667969 360.183594 C 114.667969 364.695312 118.324219 368.34375 122.832031 368.34375 C 127.335938 368.34375 130.992188 364.695312 130.992188 360.183594 L 130.992188 352.019531 L 139.152344 352.019531 C 143.648438 352.019531 147.316406 355.675781 147.316406 360.183594 L 147.316406 376.507812 C 147.316406 381.011719 143.648438 384.667969 139.152344 384.667969 L 24.894531 384.667969 C 20.398438 384.667969 16.734375 381.011719 16.734375 376.507812 Z M 147.316406 458.132812 L 147.316406 474.460938 C 147.316406 478.964844 143.648438 482.621094 139.152344 482.621094 L 24.894531 482.621094 C 20.398438 482.621094 16.734375 478.964844 16.734375 474.460938 L 16.734375 458.132812 C 16.734375 453.628906 20.398438 449.972656 24.894531 449.972656 L 33.054688 449.972656 L 33.054688 458.132812 C 33.054688 462.648438 36.710938 466.296875 41.21875 466.296875 C 45.722656 466.296875 49.378906 462.648438 49.378906 458.132812 L 49.378906 449.972656 L 73.863281 449.972656 L 73.863281 458.132812 C 73.863281 462.648438 77.519531 466.296875 82.023438 466.296875 C 86.527344 466.296875 90.183594 462.648438 90.183594 458.132812 L 90.183594 449.972656 L 114.667969 449.972656 L 114.667969 458.132812 C 114.667969 462.648438 118.324219 466.296875 122.832031 466.296875 C 127.335938 466.296875 130.992188 462.648438 130.992188 458.132812 L 130.992188 449.972656 L 139.152344 449.972656 C 143.648438 449.972656 147.316406 453.628906 147.316406 458.132812 Z M 171.796875 433.644531 L 57.539062 433.644531 C 53.042969 433.644531 49.378906 429.988281 49.378906 425.484375 L 49.378906 409.15625 C 49.378906 404.652344 53.042969 400.996094 57.539062 400.996094 L 65.703125 400.996094 L 65.703125 409.15625 C 65.703125 413.671875 69.359375 417.320312 73.863281 417.320312 C 78.367188 417.320312 82.023438 413.671875 82.023438 409.15625 L 82.023438 400.996094 L 106.507812 400.996094 L 106.507812 409.15625 C 106.507812 413.671875 110.164062 417.320312 114.667969 417.320312 C 119.175781 417.320312 122.832031 413.671875 122.832031 409.15625 L 122.832031 400.996094 L 147.316406 400.996094 L 147.316406 409.15625 C 147.316406 413.671875 150.972656 417.320312 155.476562 417.320312 C 159.980469 417.320312 163.636719 413.671875 163.636719 409.15625 L 163.636719 400.996094 L 171.796875 400.996094 C 176.296875 400.996094 179.960938 404.652344 179.960938 409.15625 L 179.960938 425.484375 C 179.960938 429.988281 176.296875 433.644531 171.796875 433.644531 Z M 196.28125 474.460938 L 196.28125 441.808594 L 204.445312 441.808594 C 217.941406 441.808594 228.929688 452.796875 228.929688 466.296875 L 228.929688 474.460938 Z M 473.765625 474.460938 L 441.121094 474.460938 L 441.121094 466.296875 C 441.121094 452.796875 452.105469 441.808594 465.605469 441.808594 L 473.765625 441.808594 Z M 473.765625 474.460938 " fill-opacity="1" fill-rule="nonzero"/></g><path fill="#464a51" d="M 383.992188 74.488281 L 383.992188 196.929688 C 383.992188 201.441406 387.648438 205.089844 392.15625 205.089844 C 396.660156 205.089844 400.316406 201.441406 400.316406 196.929688 L 400.316406 82.652344 L 432.960938 82.652344 L 432.960938 196.929688 C 432.960938 201.441406 436.617188 205.089844 441.121094 205.089844 C 445.628906 205.089844 449.285156 201.441406 449.285156 196.929688 L 449.285156 74.488281 C 449.285156 69.976562 445.628906 66.324219 441.121094 66.324219 L 392.15625 66.324219 C 387.648438 66.324219 383.992188 69.976562 383.992188 74.488281 Z M 383.992188 74.488281 " fill-opacity="1" fill-rule="nonzero"/><path fill="#464a51" d="M 343.1875 205.089844 C 347.691406 205.089844 351.347656 201.441406 351.347656 196.929688 L 351.347656 107.140625 C 351.347656 102.625 347.691406 98.976562 343.1875 98.976562 L 294.21875 98.976562 C 289.714844 98.976562 286.058594 102.625 286.058594 107.140625 L 286.058594 196.929688 C 286.058594 201.441406 289.714844 205.089844 294.21875 205.089844 C 298.722656 205.089844 302.378906 201.441406 302.378906 196.929688 L 302.378906 115.300781 L 335.023438 115.300781 L 335.023438 196.929688 C 335.023438 201.441406 338.679688 205.089844 343.1875 205.089844 Z M 343.1875 205.089844 " fill-opacity="1" fill-rule="nonzero"/><path fill="#464a51" d="M 196.28125 205.089844 C 200.789062 205.089844 204.445312 201.441406 204.445312 196.929688 L 204.445312 147.953125 L 237.089844 147.953125 L 237.089844 196.929688 C 237.089844 201.441406 240.746094 205.089844 245.25 205.089844 C 249.753906 205.089844 253.410156 201.441406 253.410156 196.929688 L 253.410156 139.789062 C 253.410156 135.277344 249.753906 131.628906 245.25 131.628906 L 196.28125 131.628906 C 191.777344 131.628906 188.121094 135.277344 188.121094 139.789062 L 188.121094 196.929688 C 188.121094 201.441406 191.777344 205.089844 196.28125 205.089844 Z M 196.28125 205.089844 " fill-opacity="1" fill-rule="nonzero"/><path fill="#464a51" d="M 196.28125 90.8125 L 233.570312 90.8125 C 306.28125 90.8125 376.078125 64.023438 430.300781 15.210938 C 433.613281 12.175781 433.785156 7.097656 430.765625 3.765625 C 427.746094 0.429688 422.53125 0.234375 419.191406 3.253906 C 368.167969 49.183594 302.242188 74.488281 233.570312 74.488281 L 196.28125 74.488281 C 191.777344 74.488281 188.121094 78.136719 188.121094 82.652344 C 188.121094 87.164062 191.777344 90.8125 196.28125 90.8125 Z M 196.28125 90.8125 " fill-opacity="1" fill-rule="nonzero"/><path fill="#464a51" d="M 16.734375 107.140625 L 41.21875 107.140625 L 41.21875 180.601562 C 41.21875 185.117188 44.875 188.765625 49.378906 188.765625 C 53.882812 188.765625 57.539062 185.117188 57.539062 180.601562 L 57.539062 98.976562 C 57.539062 94.460938 53.882812 90.8125 49.378906 90.8125 L 36.433594 90.8125 L 82.023438 45.21875 L 127.613281 90.8125 L 114.667969 90.8125 C 110.164062 90.8125 106.507812 94.460938 106.507812 98.976562 L 106.507812 180.601562 C 106.507812 185.117188 110.164062 188.765625 114.667969 188.765625 C 119.175781 188.765625 122.832031 185.117188 122.832031 180.601562 L 122.832031 107.140625 L 147.316406 107.140625 C 150.613281 107.140625 153.589844 105.15625 154.855469 102.101562 C 156.121094 99.050781 155.417969 95.539062 153.085938 93.207031 L 87.792969 27.90625 C 84.601562 24.714844 79.445312 24.714844 76.253906 27.90625 L 10.964844 93.207031 C 8.628906 95.539062 7.925781 99.050781 9.191406 102.101562 C 10.457031 105.15625 13.4375 107.140625 16.734375 107.140625 Z M 16.734375 107.140625 " fill-opacity="1" fill-rule="nonzero"/><path fill="#464a51" d="M 73.863281 123.464844 L 73.863281 205.089844 C 73.863281 209.605469 77.519531 213.253906 82.023438 213.253906 C 86.527344 213.253906 90.183594 209.605469 90.183594 205.089844 L 90.183594 123.464844 C 90.183594 118.949219 86.527344 115.300781 82.023438 115.300781 C 77.519531 115.300781 73.863281 118.949219 73.863281 123.464844 Z M 73.863281 123.464844 " fill-opacity="1" fill-rule="nonzero"/></svg>