<svg xmlns="http://www.w3.org/2000/svg" xmlns:xlink="http://www.w3.org/1999/xlink" width="1024" zoomAndPan="magnify" viewBox="0 0 768 767.999994" height="1024" preserveAspectRatio="xMidYMid meet" version="1.0"><defs><g/><clipPath id="id1"><path d="M 384 0 C 171.921875 0 0 171.921875 0 384 C 0 596.078125 171.921875 768 384 768 C 596.078125 768 768 596.078125 768 384 C 768 171.921875 596.078125 0 384 0 " clip-rule="nonzero"/></clipPath></defs><path fill="#14c38e" d="M 384 0 C 171.921875 0 0 171.921875 0 384 C 0 596.078125 171.921875 768 384 768 C 596.078125 768 768 596.078125 768 384 C 768 171.921875 596.078125 0 384 0 " fill-opacity="1" fill-rule="nonzero"/><g clip-path="url(#id1)"><path stroke-linecap="butt" transform="matrix(0.75, 0, 0, 0.75, 0.000003, 0.00002)" fill="none" stroke-linejoin="miter" d="M 512.000021 -0.0000266667 C 229.229174 -0.0000266667 -0.000004 229.229151 -0.000004 511.999999 C -0.000004 794.770846 229.229174 1024.000024 512.000021 1024.000024 C 794.770869 1024.000024 1024.000047 794.770846 1024.000047 511.999999 C 1024.000047 229.229151 794.770869 -0.0000266667 512.000021 -0.0000266667 " stroke="#000000" stroke-width="8" stroke-opacity="1" stroke-miterlimit="4"/></g><g fill="#e3fcbf" fill-opacity="1"><g transform="translate(55.869141, 575.059884)"><g><path d="M 257.578125 0 L 147.9375 0 L 147.9375 -211.640625 C 147.9375 -237.347656 148.484375 -260.867188 149.578125 -282.203125 C 142.828125 -273.992188 134.441406 -265.421875 124.421875 -256.484375 L 79.03125 -219.03125 L 22.96875 -287.9375 L 160.234375 -399.78125 L 257.578125 -399.78125 Z M 257.578125 0 "/></g></g><g transform="translate(383.99998, 575.059884)"><g><path d="M 165.15625 -405.515625 C 207.269531 -405.515625 240.039062 -397.035156 263.46875 -380.078125 C 286.894531 -363.128906 298.609375 -339.070312 298.609375 -307.90625 C 298.609375 -286.75 293.09375 -268.195312 282.0625 -252.25 C 271.03125 -236.300781 253.570312 -222.398438 229.6875 -210.546875 C 259.21875 -193.773438 280.046875 -177.050781 292.171875 -160.375 C 304.296875 -143.695312 310.359375 -125.695312 310.359375 -106.375 C 310.359375 -70.820312 297.503906 -43.289062 271.796875 -23.78125 C 246.097656 -4.28125 210.1875 5.46875 164.0625 5.46875 C 117.03125 5.46875 81.023438 -4.054688 56.046875 -23.109375 C 31.078125 -42.160156 18.59375 -69.550781 18.59375 -105.28125 C 18.59375 -128.425781 24.148438 -148.15625 35.265625 -164.46875 C 46.390625 -180.789062 65.078125 -195.601562 91.328125 -208.90625 C 70.179688 -223.125 54.734375 -238.390625 44.984375 -254.703125 C 35.234375 -271.023438 30.359375 -288.941406 30.359375 -308.453125 C 30.359375 -339.078125 42.296875 -362.910156 66.171875 -379.953125 C 90.054688 -396.992188 123.050781 -405.515625 165.15625 -405.515625 Z M 117.578125 -109.65625 C 117.578125 -98.351562 121.585938 -89.28125 129.609375 -82.4375 C 137.628906 -75.601562 148.75 -72.1875 162.96875 -72.1875 C 195.050781 -72.1875 211.09375 -83.945312 211.09375 -107.46875 C 211.09375 -116.394531 207.582031 -125.1875 200.5625 -133.84375 C 193.550781 -142.507812 181.019531 -152.21875 162.96875 -162.96875 C 146.75 -154.40625 135.128906 -145.789062 128.109375 -137.125 C 121.085938 -128.46875 117.578125 -119.3125 117.578125 -109.65625 Z M 164.609375 -327.59375 C 155.316406 -327.59375 147.476562 -324.898438 141.09375 -319.515625 C 134.71875 -314.140625 131.53125 -307.171875 131.53125 -298.609375 C 131.53125 -282.921875 142.191406 -269.0625 163.515625 -257.03125 C 176.460938 -264.507812 185.304688 -271.347656 190.046875 -277.546875 C 194.785156 -283.742188 197.15625 -290.765625 197.15625 -298.609375 C 197.15625 -307.359375 193.960938 -314.375 187.578125 -319.65625 C 181.203125 -324.945312 173.546875 -327.59375 164.609375 -327.59375 Z M 164.609375 -327.59375 "/></g></g></g></svg>