<svg xmlns="http://www.w3.org/2000/svg" xmlns:xlink="http://www.w3.org/1999/xlink" width="655" zoomAndPan="magnify" viewBox="0 0 491.25 499.499998" height="666" preserveAspectRatio="xMidYMid meet" version="1.0"><defs><clipPath id="id1"><path d="M 0 237 L 197 237 L 197 498.871094 L 0 498.871094 Z M 0 237 " clip-rule="nonzero"/></clipPath><clipPath id="id2"><path d="M 179 294 L 490.5 294 L 490.5 491 L 179 491 Z M 179 294 " clip-rule="nonzero"/></clipPath><clipPath id="id3"><path d="M 212 262 L 490.5 262 L 490.5 279 L 212 279 Z M 212 262 " clip-rule="nonzero"/></clipPath><clipPath id="id4"><path d="M 245 229 L 490.5 229 L 490.5 246 L 245 246 Z M 245 229 " clip-rule="nonzero"/></clipPath></defs><path fill="#f3e305" d="M 139.164062 392.890625 L 24.921875 392.890625 C 15.898438 392.890625 8.601562 385.589844 8.601562 376.566406 L 8.601562 360.238281 C 8.601562 351.214844 15.898438 343.914062 24.921875 343.914062 L 139.164062 343.914062 C 148.1875 343.914062 155.488281 351.214844 155.488281 360.238281 L 155.488281 376.566406 C 155.488281 385.589844 148.1875 392.890625 139.164062 392.890625 " fill-opacity="1" fill-rule="nonzero"/><path fill="#f7b60b" d="M 139.164062 343.914062 L 24.921875 343.914062 C 15.898438 343.914062 8.601562 351.214844 8.601562 360.238281 L 8.601562 368.402344 L 155.488281 368.402344 L 155.488281 360.238281 C 155.488281 351.214844 148.1875 343.914062 139.164062 343.914062 " fill-opacity="1" fill-rule="nonzero"/><path fill="#e48e1e" d="M 49.402344 343.914062 L 49.402344 360.238281 C 49.402344 364.734375 45.734375 368.402344 41.242188 368.402344 C 36.746094 368.402344 33.082031 364.734375 33.082031 360.238281 L 33.082031 343.914062 " fill-opacity="1" fill-rule="nonzero"/><path fill="#e48e1e" d="M 90.203125 343.914062 L 90.203125 360.238281 C 90.203125 364.734375 86.539062 368.402344 82.042969 368.402344 C 77.546875 368.402344 73.882812 364.734375 73.882812 360.238281 L 73.882812 343.914062 " fill-opacity="1" fill-rule="nonzero"/><path fill="#e48e1e" d="M 131.003906 343.914062 L 131.003906 360.238281 C 131.003906 364.734375 127.339844 368.402344 122.84375 368.402344 C 118.351562 368.402344 114.683594 364.734375 114.683594 360.238281 L 114.683594 343.914062 " fill-opacity="1" fill-rule="nonzero"/><path fill="#f3e305" d="M 171.808594 441.867188 L 57.5625 441.867188 C 48.542969 441.867188 41.242188 434.5625 41.242188 425.539062 L 41.242188 409.214844 C 41.242188 400.191406 48.542969 392.890625 57.5625 392.890625 L 171.808594 392.890625 C 180.828125 392.890625 188.128906 400.191406 188.128906 409.214844 L 188.128906 425.539062 C 188.128906 434.5625 180.828125 441.867188 171.808594 441.867188 " fill-opacity="1" fill-rule="nonzero"/><path fill="#f7b60b" d="M 171.808594 392.890625 L 57.5625 392.890625 C 48.542969 392.890625 41.242188 400.191406 41.242188 409.214844 L 41.242188 417.378906 L 188.128906 417.378906 L 188.128906 409.214844 C 188.128906 400.191406 180.828125 392.890625 171.808594 392.890625 " fill-opacity="1" fill-rule="nonzero"/><path fill="#e48e1e" d="M 82.042969 392.890625 L 82.042969 409.214844 C 82.042969 413.710938 78.378906 417.378906 73.882812 417.378906 C 69.386719 417.378906 65.722656 413.710938 65.722656 409.214844 L 65.722656 392.890625 " fill-opacity="1" fill-rule="nonzero"/><path fill="#e48e1e" d="M 122.84375 392.890625 L 122.84375 409.214844 C 122.84375 413.710938 119.179688 417.378906 114.683594 417.378906 C 110.191406 417.378906 106.523438 413.710938 106.523438 409.214844 L 106.523438 392.890625 " fill-opacity="1" fill-rule="nonzero"/><path fill="#e48e1e" d="M 163.648438 392.890625 L 163.648438 409.214844 C 163.648438 413.710938 159.980469 417.378906 155.488281 417.378906 C 150.992188 417.378906 147.328125 413.710938 147.328125 409.214844 L 147.328125 392.890625 " fill-opacity="1" fill-rule="nonzero"/><path fill="#f3e305" d="M 139.164062 490.84375 L 24.921875 490.84375 C 15.898438 490.84375 8.601562 483.539062 8.601562 474.515625 L 8.601562 458.191406 C 8.601562 449.167969 15.898438 441.867188 24.921875 441.867188 L 139.164062 441.867188 C 148.1875 441.867188 155.488281 449.167969 155.488281 458.191406 L 155.488281 474.515625 C 155.488281 483.539062 148.1875 490.84375 139.164062 490.84375 " fill-opacity="1" fill-rule="nonzero"/><path fill="#f7b60b" d="M 139.164062 441.867188 L 24.921875 441.867188 C 15.898438 441.867188 8.601562 449.167969 8.601562 458.191406 L 8.601562 466.355469 L 155.488281 466.355469 L 155.488281 458.191406 C 155.488281 449.167969 148.1875 441.867188 139.164062 441.867188 " fill-opacity="1" fill-rule="nonzero"/><path fill="#e48e1e" d="M 49.402344 441.867188 L 49.402344 458.191406 C 49.402344 462.6875 45.734375 466.355469 41.242188 466.355469 C 36.746094 466.355469 33.082031 462.6875 33.082031 458.191406 L 33.082031 441.867188 " fill-opacity="1" fill-rule="nonzero"/><path fill="#e48e1e" d="M 90.203125 441.867188 L 90.203125 458.191406 C 90.203125 462.6875 86.539062 466.355469 82.042969 466.355469 C 77.546875 466.355469 73.882812 462.6875 73.882812 458.191406 L 73.882812 441.867188 " fill-opacity="1" fill-rule="nonzero"/><path fill="#e48e1e" d="M 131.003906 441.867188 L 131.003906 458.191406 C 131.003906 462.6875 127.339844 466.355469 122.84375 466.355469 C 118.351562 466.355469 114.683594 462.6875 114.683594 458.191406 L 114.683594 441.867188 " fill-opacity="1" fill-rule="nonzero"/><path fill="#6cc02e" d="M 82.042969 347.996094 C 79.78125 347.996094 77.964844 346.179688 77.964844 343.914062 L 77.964844 286.777344 C 77.964844 284.511719 79.78125 282.695312 82.042969 282.695312 C 84.304688 282.695312 86.125 284.511719 86.125 286.777344 L 86.125 343.914062 C 86.125 346.179688 84.304688 347.996094 82.042969 347.996094 " fill-opacity="1" fill-rule="nonzero"/><path fill="#b9de23" d="M 98.363281 294.9375 L 82.042969 294.9375 L 82.042969 278.613281 C 82.042969 260.566406 96.644531 245.960938 114.683594 245.960938 L 131.003906 245.960938 L 131.003906 262.289062 C 131.003906 280.335938 116.40625 294.9375 98.363281 294.9375 " fill-opacity="1" fill-rule="nonzero"/><path fill="#b9de23" d="M 65.722656 294.9375 L 82.042969 294.9375 L 82.042969 278.613281 C 82.042969 260.566406 67.445312 245.960938 49.402344 245.960938 L 33.082031 245.960938 L 33.082031 262.289062 C 33.082031 280.335938 47.710938 294.9375 65.722656 294.9375 " fill-opacity="1" fill-rule="nonzero"/><path fill="#95d221" d="M 90.203125 278.613281 C 87.429688 278.613281 84.753906 278.324219 82.140625 277.816406 C 82.105469 278.070312 82.042969 278.324219 82.042969 278.613281 L 82.042969 294.9375 L 98.363281 294.9375 C 116.40625 294.9375 131.003906 280.335938 131.003906 262.289062 L 131.003906 245.960938 L 130.175781 245.960938 C 126.414062 264.582031 109.933594 278.613281 90.203125 278.613281 " fill-opacity="1" fill-rule="nonzero"/><path fill="#95d221" d="M 50.230469 246.058594 C 49.945312 246.058594 49.6875 245.960938 49.402344 245.960938 L 33.082031 245.960938 L 33.082031 262.289062 C 33.082031 280.335938 47.710938 294.9375 65.722656 294.9375 L 82.042969 294.9375 L 82.042969 278.613281 C 82.042969 278.324219 81.980469 278.070312 81.949219 277.785156 C 66.042969 274.5 53.515625 261.96875 50.230469 246.058594 " fill-opacity="1" fill-rule="nonzero"/><path fill="#b9de23" d="M 481.902344 482.679688 L 188.128906 482.679688 L 188.128906 303.101562 L 481.902344 303.101562 L 481.902344 482.679688 " fill-opacity="1" fill-rule="nonzero"/><path fill="#95d221" d="M 310.535156 441.867188 C 265.460938 441.867188 228.929688 405.324219 228.929688 360.238281 L 228.929688 303.101562 L 188.128906 303.101562 L 188.128906 482.679688 L 481.902344 482.679688 L 481.902344 441.867188 L 310.535156 441.867188 " fill-opacity="1" fill-rule="nonzero"/><path fill="#f3e305" d="M 367.65625 392.890625 C 367.65625 415.433594 349.390625 433.703125 326.855469 433.703125 C 304.316406 433.703125 286.050781 415.433594 286.050781 392.890625 C 286.050781 370.347656 304.316406 352.078125 326.855469 352.078125 C 349.390625 352.078125 367.65625 370.347656 367.65625 392.890625 " fill-opacity="1" fill-rule="nonzero"/><path fill="#f3e305" d="M 465.582031 352.078125 L 481.902344 352.078125 L 481.902344 303.101562 L 432.9375 303.101562 L 432.9375 319.425781 C 432.9375 337.472656 447.539062 352.078125 465.582031 352.078125 " fill-opacity="1" fill-rule="nonzero"/><path fill="#f3e305" d="M 432.9375 482.679688 L 481.902344 482.679688 L 481.902344 433.703125 L 465.582031 433.703125 C 447.539062 433.703125 432.9375 448.339844 432.9375 466.355469 L 432.9375 482.679688 " fill-opacity="1" fill-rule="nonzero"/><path fill="#f3e305" d="M 188.128906 352.078125 L 204.449219 352.078125 C 222.492188 352.078125 237.089844 337.472656 237.089844 319.425781 L 237.089844 303.101562 L 188.128906 303.101562 L 188.128906 352.078125 " fill-opacity="1" fill-rule="nonzero"/><path fill="#f7b60b" d="M 188.128906 482.679688 L 237.089844 482.679688 L 237.089844 466.355469 C 237.089844 448.339844 222.492188 433.703125 204.449219 433.703125 L 188.128906 433.703125 L 188.128906 482.679688 " fill-opacity="1" fill-rule="nonzero"/><path fill="#f7b60b" d="M 432.9375 401.054688 L 400.296875 401.054688 C 395.804688 401.054688 392.136719 397.386719 392.136719 392.890625 C 392.136719 388.394531 395.804688 384.726562 400.296875 384.726562 L 432.9375 384.726562 C 437.433594 384.726562 441.097656 388.394531 441.097656 392.890625 C 441.097656 397.386719 437.433594 401.054688 432.9375 401.054688 " fill-opacity="1" fill-rule="nonzero"/><path fill="#f7b60b" d="M 253.410156 401.054688 L 220.769531 401.054688 C 216.273438 401.054688 212.609375 397.386719 212.609375 392.890625 C 212.609375 388.394531 216.273438 384.726562 220.769531 384.726562 L 253.410156 384.726562 C 257.90625 384.726562 261.570312 388.394531 261.570312 392.890625 C 261.570312 397.386719 257.90625 401.054688 253.410156 401.054688 " fill-opacity="1" fill-rule="nonzero"/><path fill="#95d221" d="M 481.902344 270.449219 L 220.769531 270.449219 L 220.769531 303.101562 L 481.902344 303.101562 L 481.902344 270.449219 " fill-opacity="1" fill-rule="nonzero"/><path fill="#6cc02e" d="M 481.902344 237.800781 L 253.410156 237.800781 L 253.410156 270.449219 L 481.902344 270.449219 L 481.902344 237.800781 " fill-opacity="1" fill-rule="nonzero"/><path fill="#f7b60b" d="M 432.9375 466.355469 L 432.9375 482.679688 L 481.902344 482.679688 L 481.902344 441.867188 L 444.191406 441.867188 C 437.335938 447.859375 432.9375 456.566406 432.9375 466.355469 " fill-opacity="1" fill-rule="nonzero"/><path fill="#f7b60b" d="M 228.929688 340.820312 L 228.929688 303.101562 L 188.128906 303.101562 L 188.128906 352.078125 L 204.449219 352.078125 C 214.265625 352.078125 222.9375 347.675781 228.929688 340.820312 " fill-opacity="1" fill-rule="nonzero"/><path fill="#f3e305" d="M 392.136719 196.988281 L 441.097656 196.988281 L 441.097656 74.546875 L 392.136719 74.546875 Z M 392.136719 196.988281 " fill-opacity="1" fill-rule="nonzero"/><path fill="#6dbbea" d="M 294.210938 196.988281 L 343.175781 196.988281 L 343.175781 107.195312 L 294.210938 107.195312 Z M 294.210938 196.988281 " fill-opacity="1" fill-rule="nonzero"/><path fill="#95d221" d="M 196.289062 196.988281 L 245.25 196.988281 L 245.25 139.847656 L 196.289062 139.847656 Z M 196.289062 196.988281 " fill-opacity="1" fill-rule="nonzero"/><path fill="#f7b60b" d="M 233.582031 90.871094 L 196.289062 90.871094 C 191.792969 90.871094 188.128906 87.203125 188.128906 82.710938 C 188.128906 78.214844 191.792969 74.546875 196.289062 74.546875 L 233.582031 74.546875 C 302.246094 74.546875 368.132812 49.261719 419.199219 3.316406 C 422.515625 0.285156 427.742188 0.476562 430.738281 3.824219 C 433.769531 7.140625 433.609375 12.242188 430.292969 15.273438 C 376.070312 64.089844 306.261719 90.871094 233.582031 90.871094 " fill-opacity="1" fill-rule="nonzero"/><path fill="#f7b60b" d="M 392.136719 196.988281 L 416.617188 196.988281 L 416.617188 74.546875 L 392.136719 74.546875 Z M 392.136719 196.988281 " fill-opacity="1" fill-rule="nonzero"/><path fill="#578fd3" d="M 294.210938 196.988281 L 318.695312 196.988281 L 318.695312 107.195312 L 294.210938 107.195312 Z M 294.210938 196.988281 " fill-opacity="1" fill-rule="nonzero"/><path fill="#6cc02e" d="M 196.289062 196.988281 L 220.769531 196.988281 L 220.769531 139.847656 L 196.289062 139.847656 Z M 196.289062 196.988281 " fill-opacity="1" fill-rule="nonzero"/><path fill="#6dbbea" d="M 114.683594 180.660156 L 114.683594 99.035156 L 147.328125 99.035156 L 82.042969 33.734375 L 16.761719 99.035156 L 49.402344 99.035156 L 49.402344 180.660156 " fill-opacity="1" fill-rule="nonzero"/><path fill="#578fd3" d="M 82.042969 82.710938 L 82.042969 33.734375 L 16.761719 99.035156 L 49.402344 99.035156 L 49.402344 180.660156 L 114.683594 180.660156 L 114.683594 155.566406 C 94.699219 137.648438 82.042969 111.691406 82.042969 82.710938 " fill-opacity="1" fill-rule="nonzero"/><path fill="#3f6dbe" d="M 82.042969 213.3125 C 77.546875 213.3125 73.882812 209.644531 73.882812 205.148438 L 73.882812 123.523438 C 73.882812 119.027344 77.546875 115.359375 82.042969 115.359375 C 86.539062 115.359375 90.203125 119.027344 90.203125 123.523438 L 90.203125 205.148438 C 90.203125 209.644531 86.539062 213.3125 82.042969 213.3125 " fill-opacity="1" fill-rule="nonzero"/><g clip-path="url(#id1)"><path fill="#3a4aa2" d="M 57.5625 433.703125 C 53.066406 433.703125 49.402344 430.035156 49.402344 425.539062 L 49.402344 409.214844 C 49.402344 404.71875 53.066406 401.054688 57.5625 401.054688 L 65.722656 401.054688 L 65.722656 409.214844 C 65.722656 413.710938 69.386719 417.378906 73.882812 417.378906 C 78.378906 417.378906 82.042969 413.710938 82.042969 409.214844 L 82.042969 401.054688 L 106.523438 401.054688 L 106.523438 409.214844 C 106.523438 413.710938 110.191406 417.378906 114.683594 417.378906 C 119.179688 417.378906 122.84375 413.710938 122.84375 409.214844 L 122.84375 401.054688 L 147.328125 401.054688 L 147.328125 409.214844 C 147.328125 413.710938 150.992188 417.378906 155.488281 417.378906 C 159.980469 417.378906 163.648438 413.710938 163.648438 409.214844 L 163.648438 401.054688 L 171.808594 401.054688 C 176.300781 401.054688 179.96875 404.71875 179.96875 409.214844 L 179.96875 425.539062 C 179.96875 430.035156 176.300781 433.703125 171.808594 433.703125 Z M 16.761719 376.566406 L 16.761719 360.238281 C 16.761719 355.742188 20.425781 352.078125 24.921875 352.078125 L 33.082031 352.078125 L 33.082031 360.238281 C 33.082031 364.734375 36.746094 368.402344 41.242188 368.402344 C 45.734375 368.402344 49.402344 364.734375 49.402344 360.238281 L 49.402344 352.078125 L 73.882812 352.078125 L 73.882812 360.238281 C 73.882812 364.734375 77.546875 368.402344 82.042969 368.402344 C 86.539062 368.402344 90.203125 364.734375 90.203125 360.238281 L 90.203125 352.078125 L 114.683594 352.078125 L 114.683594 360.238281 C 114.683594 364.734375 118.351562 368.402344 122.84375 368.402344 C 127.339844 368.402344 131.003906 364.734375 131.003906 360.238281 L 131.003906 352.078125 L 139.164062 352.078125 C 143.660156 352.078125 147.328125 355.742188 147.328125 360.238281 L 147.328125 376.566406 C 147.328125 381.0625 143.660156 384.726562 139.164062 384.726562 L 24.921875 384.726562 C 20.425781 384.726562 16.761719 381.0625 16.761719 376.566406 Z M 65.722656 286.777344 C 52.207031 286.777344 41.242188 275.808594 41.242188 262.289062 L 41.242188 254.125 L 49.402344 254.125 C 62.917969 254.125 73.882812 265.09375 73.882812 278.613281 L 73.882812 286.777344 Z M 114.683594 254.125 L 122.84375 254.125 L 122.84375 262.289062 C 122.84375 275.808594 111.878906 286.777344 98.363281 286.777344 L 90.203125 286.777344 L 90.203125 278.613281 C 90.203125 265.09375 101.167969 254.125 114.683594 254.125 Z M 196.289062 425.539062 L 196.289062 409.214844 C 196.289062 395.695312 185.324219 384.726562 171.808594 384.726562 L 162.246094 384.726562 C 163.136719 382.175781 163.648438 379.433594 163.648438 376.566406 L 163.648438 360.238281 C 163.648438 346.71875 152.679688 335.75 139.164062 335.75 L 90.203125 335.75 L 90.203125 303.101562 L 98.363281 303.101562 C 120.867188 303.101562 139.164062 284.796875 139.164062 262.289062 L 139.164062 245.960938 C 139.164062 241.464844 135.5 237.800781 131.003906 237.800781 L 114.683594 237.800781 C 101.359375 237.800781 89.503906 244.242188 82.042969 254.15625 C 74.585938 244.242188 62.726562 237.800781 49.402344 237.800781 L 33.082031 237.800781 C 28.585938 237.800781 24.921875 241.464844 24.921875 245.960938 L 24.921875 262.289062 C 24.921875 284.796875 43.21875 303.101562 65.722656 303.101562 L 73.882812 303.101562 L 73.882812 335.75 L 24.921875 335.75 C 11.40625 335.75 0.441406 346.71875 0.441406 360.238281 L 0.441406 376.566406 C 0.441406 390.085938 11.40625 401.054688 24.921875 401.054688 L 34.484375 401.054688 C 33.589844 403.605469 33.082031 406.347656 33.082031 409.214844 L 33.082031 425.539062 C 33.082031 428.410156 33.589844 431.152344 34.484375 433.703125 L 24.921875 433.703125 C 20.425781 433.703125 16.761719 437.371094 16.761719 441.867188 C 16.761719 446.363281 20.425781 450.027344 24.921875 450.027344 L 33.082031 450.027344 L 33.082031 458.191406 C 33.082031 462.6875 36.746094 466.355469 41.242188 466.355469 C 45.734375 466.355469 49.402344 462.6875 49.402344 458.191406 L 49.402344 450.027344 L 73.882812 450.027344 L 73.882812 458.191406 C 73.882812 462.6875 77.546875 466.355469 82.042969 466.355469 C 86.539062 466.355469 90.203125 462.6875 90.203125 458.191406 L 90.203125 450.027344 L 114.683594 450.027344 L 114.683594 458.191406 C 114.683594 462.6875 118.351562 466.355469 122.84375 466.355469 C 127.339844 466.355469 131.003906 462.6875 131.003906 458.191406 L 131.003906 450.027344 L 139.164062 450.027344 C 143.660156 450.027344 147.328125 453.695312 147.328125 458.191406 L 147.328125 474.515625 C 147.328125 479.011719 143.660156 482.679688 139.164062 482.679688 L 24.921875 482.679688 C 20.425781 482.679688 16.761719 486.347656 16.761719 490.84375 C 16.761719 495.339844 20.425781 499.003906 24.921875 499.003906 L 139.164062 499.003906 C 152.679688 499.003906 163.648438 488.035156 163.648438 474.515625 L 163.648438 458.191406 C 163.648438 455.320312 163.136719 452.578125 162.246094 450.027344 L 171.808594 450.027344 C 185.324219 450.027344 196.289062 439.058594 196.289062 425.539062 " fill-opacity="1" fill-rule="nonzero"/></g><path fill="#3a4aa2" d="M 294.210938 392.890625 C 294.210938 374.875 308.84375 360.238281 326.855469 360.238281 C 344.863281 360.238281 359.496094 374.875 359.496094 392.890625 C 359.496094 410.90625 344.863281 425.539062 326.855469 425.539062 C 308.84375 425.539062 294.210938 410.90625 294.210938 392.890625 Z M 375.816406 392.890625 C 375.816406 365.882812 353.851562 343.914062 326.855469 343.914062 C 299.855469 343.914062 277.890625 365.882812 277.890625 392.890625 C 277.890625 419.898438 299.855469 441.867188 326.855469 441.867188 C 353.851562 441.867188 375.816406 419.898438 375.816406 392.890625 " fill-opacity="1" fill-rule="nonzero"/><g clip-path="url(#id2)"><path fill="#3a4aa2" d="M 473.742188 474.515625 L 441.097656 474.515625 L 441.097656 466.355469 C 441.097656 452.835938 452.066406 441.867188 465.582031 441.867188 L 473.742188 441.867188 Z M 465.582031 343.914062 C 452.066406 343.914062 441.097656 332.945312 441.097656 319.425781 L 441.097656 311.261719 L 473.742188 311.261719 L 473.742188 343.914062 Z M 228.929688 319.425781 C 228.929688 332.945312 217.964844 343.914062 204.449219 343.914062 L 196.289062 343.914062 L 196.289062 311.261719 L 228.929688 311.261719 Z M 481.902344 294.9375 L 188.128906 294.9375 C 183.632812 294.9375 179.96875 298.605469 179.96875 303.101562 L 179.96875 352.078125 C 179.96875 356.574219 183.632812 360.238281 188.128906 360.238281 L 204.449219 360.238281 C 226.953125 360.238281 245.25 341.9375 245.25 319.425781 L 245.25 311.261719 L 424.777344 311.261719 L 424.777344 319.425781 C 424.777344 341.9375 443.074219 360.238281 465.582031 360.238281 L 473.742188 360.238281 L 473.742188 425.539062 L 465.582031 425.539062 C 443.074219 425.539062 424.777344 443.84375 424.777344 466.355469 L 424.777344 474.515625 L 245.25 474.515625 L 245.25 466.355469 C 245.25 451.8125 237.441406 438.296875 224.851562 430.992188 C 220.960938 428.730469 215.957031 430.070312 213.691406 433.992188 C 211.460938 437.878906 212.769531 442.886719 216.6875 445.117188 C 224.242188 449.519531 228.929688 457.648438 228.929688 466.355469 L 228.929688 474.515625 L 196.289062 474.515625 C 196.289062 470.019531 192.621094 466.355469 188.128906 466.355469 C 183.632812 466.355469 179.96875 470.019531 179.96875 474.515625 L 179.96875 482.679688 C 179.96875 487.175781 183.632812 490.84375 188.128906 490.84375 L 481.902344 490.84375 C 486.394531 490.84375 490.0625 487.175781 490.0625 482.679688 L 490.0625 303.101562 C 490.0625 298.605469 486.394531 294.9375 481.902344 294.9375 " fill-opacity="1" fill-rule="nonzero"/></g><path fill="#3a4aa2" d="M 432.9375 401.054688 C 437.433594 401.054688 441.097656 397.386719 441.097656 392.890625 C 441.097656 388.394531 437.433594 384.726562 432.9375 384.726562 L 400.296875 384.726562 C 395.804688 384.726562 392.136719 388.394531 392.136719 392.890625 C 392.136719 397.386719 395.804688 401.054688 400.296875 401.054688 L 432.9375 401.054688 " fill-opacity="1" fill-rule="nonzero"/><path fill="#3a4aa2" d="M 220.769531 401.054688 L 253.410156 401.054688 C 257.90625 401.054688 261.570312 397.386719 261.570312 392.890625 C 261.570312 388.394531 257.90625 384.726562 253.410156 384.726562 L 220.769531 384.726562 C 216.273438 384.726562 212.609375 388.394531 212.609375 392.890625 C 212.609375 397.386719 216.273438 401.054688 220.769531 401.054688 " fill-opacity="1" fill-rule="nonzero"/><g clip-path="url(#id3)"><path fill="#3a4aa2" d="M 481.902344 262.289062 L 220.769531 262.289062 C 216.273438 262.289062 212.609375 265.953125 212.609375 270.449219 C 212.609375 274.945312 216.273438 278.613281 220.769531 278.613281 L 481.902344 278.613281 C 486.394531 278.613281 490.0625 274.945312 490.0625 270.449219 C 490.0625 265.953125 486.394531 262.289062 481.902344 262.289062 " fill-opacity="1" fill-rule="nonzero"/></g><g clip-path="url(#id4)"><path fill="#3a4aa2" d="M 245.25 237.800781 C 245.25 242.296875 248.917969 245.960938 253.410156 245.960938 L 481.902344 245.960938 C 486.394531 245.960938 490.0625 242.296875 490.0625 237.800781 C 490.0625 233.304688 486.394531 229.636719 481.902344 229.636719 L 253.410156 229.636719 C 248.917969 229.636719 245.25 233.304688 245.25 237.800781 " fill-opacity="1" fill-rule="nonzero"/></g><path fill="#3a4aa2" d="M 383.976562 74.546875 L 383.976562 196.988281 C 383.976562 201.480469 387.640625 205.148438 392.136719 205.148438 C 396.632812 205.148438 400.296875 201.480469 400.296875 196.988281 L 400.296875 82.710938 L 432.9375 82.710938 L 432.9375 196.988281 C 432.9375 201.480469 436.605469 205.148438 441.097656 205.148438 C 445.59375 205.148438 449.257812 201.480469 449.257812 196.988281 L 449.257812 74.546875 C 449.257812 70.050781 445.59375 66.382812 441.097656 66.382812 L 392.136719 66.382812 C 387.640625 66.382812 383.976562 70.050781 383.976562 74.546875 " fill-opacity="1" fill-rule="nonzero"/><path fill="#3a4aa2" d="M 343.175781 205.148438 C 347.667969 205.148438 351.335938 201.480469 351.335938 196.988281 L 351.335938 107.195312 C 351.335938 102.703125 347.667969 99.035156 343.175781 99.035156 L 294.210938 99.035156 C 289.71875 99.035156 286.050781 102.703125 286.050781 107.195312 L 286.050781 196.988281 C 286.050781 201.480469 289.71875 205.148438 294.210938 205.148438 C 298.707031 205.148438 302.375 201.480469 302.375 196.988281 L 302.375 115.359375 L 335.015625 115.359375 L 335.015625 196.988281 C 335.015625 201.480469 338.679688 205.148438 343.175781 205.148438 " fill-opacity="1" fill-rule="nonzero"/><path fill="#3a4aa2" d="M 196.289062 205.148438 C 200.78125 205.148438 204.449219 201.480469 204.449219 196.988281 L 204.449219 148.011719 L 237.089844 148.011719 L 237.089844 196.988281 C 237.089844 201.480469 240.757812 205.148438 245.25 205.148438 C 249.746094 205.148438 253.410156 201.480469 253.410156 196.988281 L 253.410156 139.847656 C 253.410156 135.351562 249.746094 131.683594 245.25 131.683594 L 196.289062 131.683594 C 191.792969 131.683594 188.128906 135.351562 188.128906 139.847656 L 188.128906 196.988281 C 188.128906 201.480469 191.792969 205.148438 196.289062 205.148438 " fill-opacity="1" fill-rule="nonzero"/><path fill="#3a4aa2" d="M 196.289062 90.871094 L 233.582031 90.871094 C 306.261719 90.871094 376.070312 64.089844 430.292969 15.273438 C 433.609375 12.242188 433.769531 7.140625 430.738281 3.824219 C 427.742188 0.476562 422.515625 0.285156 419.199219 3.316406 C 368.132812 49.261719 302.246094 74.546875 233.582031 74.546875 L 196.289062 74.546875 C 191.792969 74.546875 188.128906 78.214844 188.128906 82.710938 C 188.128906 87.203125 191.792969 90.871094 196.289062 90.871094 " fill-opacity="1" fill-rule="nonzero"/><path fill="#3a4aa2" d="M 16.761719 107.195312 L 41.242188 107.195312 L 41.242188 180.660156 C 41.242188 185.15625 44.90625 188.824219 49.402344 188.824219 C 53.894531 188.824219 57.5625 185.15625 57.5625 180.660156 L 57.5625 99.035156 C 57.5625 94.539062 53.894531 90.871094 49.402344 90.871094 L 36.460938 90.871094 L 82.042969 45.277344 L 127.625 90.871094 L 114.683594 90.871094 C 110.191406 90.871094 106.523438 94.539062 106.523438 99.035156 L 106.523438 180.660156 C 106.523438 185.15625 110.191406 188.824219 114.683594 188.824219 C 119.179688 188.824219 122.84375 185.15625 122.84375 180.660156 L 122.84375 107.195312 L 147.328125 107.195312 C 150.640625 107.195312 153.605469 105.21875 154.847656 102.160156 C 156.125 99.097656 155.421875 95.589844 153.097656 93.261719 L 87.8125 27.960938 C 84.625 24.773438 79.460938 24.773438 76.273438 27.960938 L 10.992188 93.261719 C 8.664062 95.589844 7.960938 99.097656 9.207031 102.160156 C 10.480469 105.21875 13.445312 107.195312 16.761719 107.195312 " fill-opacity="1" fill-rule="nonzero"/><path fill="#3a4aa2" d="M 73.882812 123.523438 L 73.882812 205.148438 C 73.882812 209.644531 77.546875 213.3125 82.042969 213.3125 C 86.539062 213.3125 90.203125 209.644531 90.203125 205.148438 L 90.203125 123.523438 C 90.203125 119.027344 86.539062 115.359375 82.042969 115.359375 C 77.546875 115.359375 73.882812 119.027344 73.882812 123.523438 " fill-opacity="1" fill-rule="nonzero"/></svg>